<?xml version="1.0" encoding="utf-8"?>
<!-- Generator: Adobe Illustrator 21.1.0, SVG Export Plug-In . SVG Version: 6.00 Build 0)  -->
<svg version="1.1" id="Layer_1" xmlns="http://www.w3.org/2000/svg" xmlns:xlink="http://www.w3.org/1999/xlink" x="0px" y="0px"
	 viewBox="0 0 508 508" style="enable-background:new 0 0 508 508;" xml:space="preserve">
<style type="text/css">
	.st0{fill:#45005C;}
	.st1{fill:#545E73;}
	.st2{fill:#8697CB;}
	.st3{fill:#323A45;}
	.st4{fill:#26B999;}
	.st5{fill:#FFFFFF;}
</style>
<circle class="st0" cx="254" cy="254" r="254"/>
<g>
	<g>
		<path class="st1" d="M295.227,437.68H132.941c-12.119,0-21.938-9.825-21.938-21.938V85.938c0-12.112,9.825-21.938,21.938-21.938
			h162.286c12.119,0,21.938,9.825,21.938,21.938v329.798C317.171,427.854,307.346,437.68,295.227,437.68z"/>
		<rect x="111.003" y="102.657" class="st2" width="206.168" height="257.71"/>
		<circle class="st3" cx="214.087" cy="399.023" r="19.328"/>
		<path class="st3" d="M214.087,89.771h-25.771c-3.563,0-6.443-2.88-6.443-6.443c0-3.563,2.88-6.443,6.443-6.443h25.771
			c3.563,0,6.443,2.88,6.443,6.443C220.53,86.891,217.65,89.771,214.087,89.771z"/>
		<path class="st3" d="M239.858,89.771h-6.443c-3.563,0-6.443-2.88-6.443-6.443c0-3.563,2.88-6.443,6.443-6.443h6.443
			c3.563,0,6.443,2.88,6.443,6.443C246.301,86.891,243.421,89.771,239.858,89.771z"/>
	</g>
	<g>
		<circle class="st4" cx="319.684" cy="366.687" r="77.313"/>
		<path class="st5" d="M362.019,329.19c-2.931-2.036-6.939-1.314-8.968,1.611l-36.054,51.8l-25.442-20.887
			c-2.745-2.261-6.81-1.855-9.065,0.896c-2.261,2.751-1.862,6.81,0.896,9.065l30.835,25.314c1.16,0.947,2.603,1.463,4.085,1.463
			c0.29,0,0.586-0.019,0.883-0.058c1.778-0.251,3.376-1.224,4.407-2.699l40.035-57.527
			C365.659,335.24,364.938,331.22,362.019,329.19z"/>
	</g>
</g>
</svg>
