<?xml version="1.0" encoding="utf-8"?>
<!-- Generator: Adobe Illustrator 21.1.0, SVG Export Plug-In . SVG Version: 6.00 Build 0)  -->
<svg version="1.1" id="Layer_1" xmlns="http://www.w3.org/2000/svg" xmlns:xlink="http://www.w3.org/1999/xlink" x="0px" y="0px"
	 viewBox="0 0 508 508" style="enable-background:new 0 0 508 508;" xml:space="preserve">
<style type="text/css">
	.st0{fill:#45005C;}
	.st1{fill:#4DC95B;}
	.st2{fill:#FFFFFF;}
	.st3{fill:#298430;}
</style>
<circle class="st0" cx="254" cy="254" r="254"/>
<g>
	<path class="st1" d="M101.056,161.73c-5.106,0-9.245,4.139-9.245,9.245v186.5v44.742l44.742-44.742h197.686
		c5.106,0,9.245-4.139,9.245-9.245V170.975c0-5.106-4.139-9.245-9.245-9.245H101.056z"/>
	<path class="st2" d="M214.851,223.25h-67.113c-3.093,0-5.593-2.506-5.593-5.593s2.5-5.593,5.593-5.593h67.113
		c3.093,0,5.593,2.506,5.593,5.593S217.944,223.25,214.851,223.25z"/>
	<path class="st2" d="M287.556,262.399H147.738c-3.093,0-5.593-2.506-5.593-5.593c0-3.087,2.5-5.593,5.593-5.593h139.818
		c3.093,0,5.593,2.506,5.593,5.593C293.149,259.894,290.649,262.399,287.556,262.399z"/>
	<path class="st2" d="M287.556,301.548H147.738c-3.093,0-5.593-2.506-5.593-5.593c0-3.087,2.5-5.593,5.593-5.593h139.818
		c3.093,0,5.593,2.506,5.593,5.593C293.149,299.043,290.649,301.548,287.556,301.548z"/>
	<path class="st3" d="M406.944,105.803H173.761c-5.106,0-9.245,4.139-9.245,9.245v46.682h169.722c5.106,0,9.245,4.139,9.245,9.245
		v130.573h63.461c5.106,0,9.245-4.139,9.245-9.245V115.048C416.189,109.942,412.05,105.803,406.944,105.803z"/>
</g>
</svg>
