<?xml version="1.0" encoding="utf-8"?>
<!-- Generator: Adobe Illustrator 21.1.0, SVG Export Plug-In . SVG Version: 6.00 Build 0)  -->
<svg version="1.1" id="Layer_1" xmlns="http://www.w3.org/2000/svg" xmlns:xlink="http://www.w3.org/1999/xlink" x="0px" y="0px"
	 viewBox="0 0 508 508" style="enable-background:new 0 0 508 508;" xml:space="preserve">
<style type="text/css">
	.st0{fill:#45005C;}
	.st1{fill:#D89932;}
	.st2{fill:#E2E5E7;}
	.st3{opacity:0.07;fill:#2D404E;enable-background:new    ;}
	.st4{fill:#F2B643;}
	.st5{opacity:0.54;fill:#D89932;enable-background:new    ;}
	.st6{fill:#D1D5D5;}
	.st7{fill:#DF584C;}
	.st8{fill:#2D404E;}
</style>
<circle class="st0" cx="254" cy="254" r="254"/>
<g>
	<path class="st1" d="M404.183,187.587c0,0-59.59-54.758-89.385-85.358S254,74.045,254,74.045s-31.003-2.417-60.798,28.184
		s-89.385,85.358-89.385,85.358l-7.247,26.574V434H411.43V214.161L404.183,187.587z"/>
	<path class="st2" d="M385.661,317.529c0,5.048-4.092,9.141-9.141,9.141h-238.6c-5.048,0-9.141-4.092-9.141-9.141V150.022
		c0-5.048,4.092-9.141,9.141-9.141h238.6c5.048,0,9.141,4.092,9.141,9.141V317.529z"/>
	<polygon class="st3" points="207.16,306.499 218.162,305.963 124.217,217.919 96.57,214.161 	"/>
	<polygon class="st3" points="300.773,306.499 289.771,305.963 383.716,217.919 411.364,214.161 	"/>
	<polygon class="st4" points="96.57,214.161 96.57,433.999 207.25,306.364 123.144,220.067 	"/>
	<polygon class="st4" points="411.364,214.161 411.364,433.999 300.684,306.364 384.79,220.067 	"/>
	<polygon class="st5" points="96.57,433.999 96.57,407.426 203.434,302.449 207.25,306.364 	"/>
	<polygon class="st5" points="411.364,433.999 411.364,407.426 304.5,302.449 300.684,306.364 	"/>
	<path class="st4" d="M403.545,408.633c0,0-84.979-88.981-92.669-96.228c-7.691-7.247-13.843-6.441-13.843-6.441h-43.066H210.9
		c0,0-6.152-0.806-13.843,6.441c-7.691,7.248-92.669,96.228-92.669,96.228l-7.307,25.366h156.885h156.884L403.545,408.633z"/>
	<g>
		<path class="st6" d="M166.906,233.497l20.992-39.067l8.959,21.611c0,0-0.203-9.819,6.545-9.663
			c6.749,0.156,11.902,27.12,11.902,27.12H166.906L166.906,233.497z"/>
		<circle class="st6" cx="200.925" cy="198.709" r="4.28"/>
	</g>
	<path class="st6" d="M336.725,202.888c0,2.223-1.802,4.027-4.027,4.027h-79.136c-2.224,0-4.027-1.803-4.027-4.027v-0.152
		c0-2.223,1.803-4.027,4.027-4.027h79.136c2.224,0,4.027,1.803,4.027,4.027V202.888z"/>
	<path class="st6" d="M336.725,218.339c0,2.223-1.802,4.027-4.027,4.027h-79.136c-2.224,0-4.027-1.803-4.027-4.027v-0.152
		c0-2.223,1.803-4.027,4.027-4.027h79.136c2.224,0,4.027,1.803,4.027,4.027V218.339z"/>
	<path class="st6" d="M336.725,233.792c0,2.223-1.802,4.026-4.027,4.026h-79.136c-2.224,0-4.027-1.802-4.027-4.026v-0.152
		c0-2.224,1.803-4.027,4.027-4.027h79.136c2.224,0,4.027,1.802,4.027,4.027V233.792z"/>
	<g>
		<g>
			<g>
				<g>
					<polygon class="st7" points="191.106,140.881 181.316,158.866 196.857,158.866 206.646,140.881 					"/>
					<polygon class="st2" points="175.564,140.881 165.776,158.866 181.316,158.866 191.106,140.881 					"/>
					<polygon class="st2" points="206.646,140.881 196.857,158.866 212.398,158.866 222.187,140.881 					"/>
					<polygon class="st2" points="237.728,140.881 227.938,158.866 243.479,158.866 253.268,140.881 					"/>
					<polygon class="st7" points="128.781,140.881 128.781,158.866 134.694,158.866 144.483,140.881 					"/>
					<polygon class="st2" points="144.483,140.881 134.694,158.866 150.234,158.866 160.024,140.881 					"/>
					<polygon class="st2" points="330.972,140.881 321.183,158.866 336.725,158.866 346.514,140.881 					"/>
					<polygon class="st2" points="362.054,140.881 352.264,158.866 367.806,158.866 377.595,140.881 					"/>
					<polygon class="st7" points="253.268,140.881 243.479,158.866 259.02,158.866 268.81,140.881 					"/>
					<polygon class="st7" points="377.595,140.881 367.806,158.866 385.661,158.866 385.661,140.881 					"/>
					<polygon class="st7" points="315.432,140.881 305.643,158.866 321.183,158.866 330.972,140.881 					"/>
					<polygon class="st2" points="268.81,140.881 259.02,158.866 274.561,158.866 284.35,140.881 					"/>
					<g>
						<polygon class="st8" points="222.187,140.881 212.398,158.866 227.938,158.866 237.728,140.881 						"/>
						<polygon class="st8" points="160.024,140.881 150.234,158.866 165.776,158.866 175.564,140.881 						"/>
						<polygon class="st8" points="346.514,140.881 336.725,158.866 352.264,158.866 362.054,140.881 						"/>
						<polygon class="st8" points="284.35,140.881 274.561,158.866 290.102,158.866 299.891,140.881 						"/>
					</g>
					<polygon class="st2" points="299.891,140.881 290.102,158.866 305.643,158.866 315.432,140.881 					"/>
				</g>
			</g>
		</g>
	</g>
</g>
</svg>
