<?xml version="1.0" encoding="utf-8"?>
<!-- Generator: Adobe Illustrator 21.1.0, SVG Export Plug-In . SVG Version: 6.00 Build 0)  -->
<svg version="1.1" id="Layer_1" xmlns="http://www.w3.org/2000/svg" xmlns:xlink="http://www.w3.org/1999/xlink" x="0px" y="0px"
	 viewBox="0 0 508 508" style="enable-background:new 0 0 508 508;" xml:space="preserve">
<style type="text/css">
	.st0{fill:#45005C;}
	.st1{fill:#B02721;}
	.st2{fill:#E0E1E2;}
	.st3{fill:#556080;}
	.st4{fill:#7383BF;}
	.st5{fill:#FF7058;}
	.st6{fill:#F1543F;}
	.st7{fill:#EA4939;}
</style>
<circle class="st0" cx="254" cy="254" r="254"/>
<g>
	<g>
		<g>
			<path class="st1" d="M374.712,241.271l-120.714-93.052l-120.714,93.052c-6.231,4.8-15.089,4.064-20.437-1.7l0,0
				c-6.063-6.53-5.241-16.845,1.776-22.335l129.025-100.942l10.35-9.62l10.355,9.62l129.025,100.942
				c7.017,5.49,7.839,15.805,1.776,22.335l0,0C389.801,245.335,380.942,246.07,374.712,241.271z"/>
			<path class="st1" d="M374.712,241.271l-120.714-93.052l-120.714,93.052c-6.231,4.8-15.089,4.064-20.437-1.7l0,0
				c-6.063-6.53-5.241-16.845,1.776-22.335l129.025-100.942l10.35-9.62l10.355,9.62l129.025,100.942
				c7.017,5.49,7.839,15.805,1.776,22.335l0,0C389.801,245.335,380.942,246.07,374.712,241.271z"/>
			<polygon class="st2" points="253.997,148.219 137.302,238.171 137.302,238.592 137.302,390.803 370.693,390.803 370.693,238.592 
				370.693,238.171 			"/>
			<rect x="177.892" y="233.518" class="st3" width="60.885" height="40.59"/>
			<rect x="177.892" y="304.55" class="st3" width="60.885" height="50.737"/>
			<rect x="269.219" y="233.518" class="st3" width="60.885" height="40.59"/>
			<rect x="269.219" y="304.55" class="st3" width="60.885" height="86.253"/>
			<rect x="269.219" y="233.518" class="st4" width="60.885" height="30.442"/>
			<rect x="177.892" y="233.518" class="st4" width="60.885" height="14.029"/>
			<polygon class="st4" points="213.408,324.845 213.408,304.55 203.26,304.55 203.26,324.845 177.892,324.845 177.892,334.992 
				203.26,334.992 203.26,355.287 213.408,355.287 213.408,334.992 238.776,334.992 238.776,324.845 			"/>
		</g>
	</g>
	<g>
		<g>
			<path class="st5" d="M335.691,237.253l14.331-13.735c-0.083,0.04-7.866,3.792-16.367-0.354
				c-7.611-3.718-18.159-14.872-25.065-47.09c-4.73-20.048-22.543-31.977-41.7-39.092l5.729,31.857
				c5.741,3.684,9.838,8.091,11.073,13.314c7.335,34.191,20.489,56.09,39.121,65.225c19.356,9.449,36.465,1.184,38.788-0.04
				l0.122-0.06L335.691,237.253z"/>
			<rect x="233.043" y="136.025" class="st5" width="43.058" height="254.171"/>
			<path class="st5" d="M252.399,163.522c-23.1,14.905-61.159,46.682-64.941,68.475l-7.981-18.102l-17.198,13.367
				c6.983-40.616,69.557-81.922,76.667-86.482L252.399,163.522z"/>
			<path class="st5" d="M254.575,135.397c0,0-58.554,14.203-73.928,2.327c-14.798-11.435-14.798-55.649,0-67.084
				c15.374-11.876,73.928,53.422,73.928,53.422V135.397z"/>
		</g>
		<path class="st6" d="M180.653,114.674c-0.435,0.334-0.857,0.702-1.261,1.11c-5.633,5.584-5.633,15.246,0,20.83
			c0.403,0.401,0.826,0.769,1.261,1.103c15.362,11.876,73.921-2.327,73.921-2.327S196.015,102.811,180.653,114.674"/>
		<path class="st5" d="M254.575,135.397c0,0,58.547,14.203,73.921,2.327c14.798-11.435,14.798-55.649,0-67.084
			c-15.374-11.876-73.921,53.422-73.921,53.422V135.397z"/>
		<path class="st6" d="M328.49,114.674c0.435,0.334,0.857,0.702,1.261,1.11c5.633,5.584,5.633,15.246,0,20.83
			c-0.403,0.401-0.826,0.769-1.261,1.103c-15.355,11.876-73.921-2.327-73.921-2.327S313.128,102.811,328.49,114.674"/>
		<path class="st7" d="M240.98,109.117l-1.69,29.135c-0.038,0.849,0.64,1.565,1.491,1.565h27.581c0.852,0,1.524-0.715,1.485-1.565
			l-1.683-29.135c-0.038-0.802-0.698-1.431-1.498-1.431h-24.188C241.677,107.686,241.018,108.315,240.98,109.117"/>
	</g>
</g>
</svg>
