<?xml version="1.0" encoding="utf-8"?>
<!-- Generator: Adobe Illustrator 21.1.0, SVG Export Plug-In . SVG Version: 6.00 Build 0)  -->
<svg version="1.1" id="Layer_1" xmlns="http://www.w3.org/2000/svg" xmlns:xlink="http://www.w3.org/1999/xlink" x="0px" y="0px"
	 viewBox="0 0 508 508" style="enable-background:new 0 0 508 508;" xml:space="preserve">
<style type="text/css">
	.st0{fill:#45005C;}
	.st1{fill:#0096DC;}
	.st2{fill:#B48764;}
	.st3{fill:#D29B6E;}
	.st4{fill:#F0C087;}
	.st5{fill:#E6AF78;}
	.st6{fill:#D5DCED;}
	.st7{fill:#00AAF0;}
	.st8{fill:#C7CFE2;}
	.st9{fill:#966D50;}
	.st10{fill:#FFDC64;}
	.st11{fill:#C39772;}
	.st12{fill:#FFFFFF;}
	.st13{fill:#FFC850;}
</style>
<circle class="st0" cx="254" cy="254" r="254"/>
<g>
	<path class="st1" d="M248.562,260.559l-26.239-6.56h-73.913l-26.24,6.56c-9.401,2.35-15.996,10.797-15.996,20.488v104.941h158.386
		v-104.94C264.559,271.356,257.963,262.909,248.562,260.559z"/>
	<path class="st2" d="M248.562,260.559l-16.616-4.153c-3.229,7.887-15.563,34.138-43.536,53.617c-1.805,1.256-4.285,1.256-6.09,0
		c-27.973-19.479-40.307-45.73-43.535-53.617l-16.616,4.154c-9.401,2.35-15.996,10.797-15.996,20.488v104.941h158.386V281.047
		C264.559,271.356,257.963,262.909,248.562,260.559z"/>
	<rect x="158.968" y="227.6" class="st3" width="52.795" height="31.677"/>
	<path class="st4" d="M232.882,174.806v-15.839c0-20.411-16.547-36.957-36.957-36.957h-21.118c-20.41,0-36.957,16.546-36.957,36.957
		v15.839c-5.832,0-10.559,4.727-10.559,10.559s4.727,10.559,10.559,10.559c0,26.242,21.273,47.516,47.516,47.516
		s47.516-21.273,47.516-47.516c5.832,0,10.559-4.727,10.559-10.559S238.713,174.806,232.882,174.806z"/>
	<path class="st5" d="M164.248,195.924v-36.957c0-19.52,15.144-35.465,34.317-36.823c-0.876-0.062-1.748-0.133-2.64-0.133h-21.118
		c-20.41,0-36.957,16.546-36.957,36.957v15.839c-5.832,0-10.559,4.727-10.559,10.559s4.727,10.559,10.559,10.559
		c0,26.242,21.273,47.516,47.516,47.516c4.585,0,9.004-0.685,13.199-1.896C178.751,235.819,164.248,217.581,164.248,195.924z"/>
	<g>
		<path class="st6" d="M148.409,144.449c0-5.832-4.727-10.559-10.559-10.559c-5.832,0-10.559,4.727-10.559,10.559
			c0,2.151,0.651,4.147,1.755,5.816c-5.567,1.55-9.675,6.602-9.675,12.663c0,7.29,5.909,13.199,13.199,13.199
			c7.29,0,13.199-5.91,13.199-13.199c0-3.447-1.352-6.558-3.516-8.908C145.879,152.346,148.409,148.703,148.409,144.449z"/>
		<path class="st6" d="M222.322,144.449c0-5.832,4.727-10.559,10.559-10.559c5.832,0,10.559,4.727,10.559,10.559
			c0,2.151-0.651,4.147-1.755,5.816c5.567,1.55,9.675,6.602,9.675,12.663c0,7.29-5.909,13.199-13.199,13.199
			s-13.199-5.91-13.199-13.199c0-3.447,1.352-6.558,3.516-8.908C224.853,152.346,222.322,148.703,222.322,144.449z"/>
	</g>
	<g>
		<path class="st1" d="M130.118,288.504l-19.862-19.862c-2.563,3.519-4.084,7.808-4.084,12.404v104.942h31.677V307.17
			C137.85,300.169,135.069,293.454,130.118,288.504z"/>
		<path class="st1" d="M240.613,288.504l19.862-19.862c2.563,3.519,4.084,7.808,4.084,12.404v104.942h-31.677V307.17
			C232.882,300.169,235.663,293.454,240.613,288.504z"/>
	</g>
	<g>
		<path class="st7" d="M153.689,243.44l31.677,15.839l-11.749,15.666c-2.071,2.761-6.19,2.825-8.346,0.13l-16.861-21.076
			L153.689,243.44z"/>
		<path class="st7" d="M217.043,243.44l-31.677,15.839l11.749,15.666c2.071,2.761,6.19,2.825,8.346,0.13l16.861-21.076
			L217.043,243.44z"/>
	</g>
	<g>
		<path class="st8" d="M364.87,248.72c8.748,0,15.839,7.091,15.839,15.839c0,0.322-0.076,0.623-0.095,0.94
			c6.186,2.155,10.654,7.977,10.654,14.898c0,8.748-7.091,15.839-15.839,15.839h-26.398v-31.677
			C349.031,255.81,356.122,248.72,364.87,248.72z"/>
		<path class="st8" d="M290.956,248.72c-8.748,0-15.839,7.091-15.839,15.839c0,0.322,0.076,0.623,0.095,0.94
			c-6.186,2.155-10.654,7.977-10.654,14.898c0,8.748,7.091,15.839,15.839,15.839h26.398v-31.677
			C306.795,255.81,299.704,248.72,290.956,248.72z"/>
	</g>
	<path class="st9" d="M385.233,294.877l-29.564-11.826c-3.007-1.203-5.236-3.688-6.164-6.676l-0.473-11.817h-42.236l-0.474,11.817
		c-0.927,2.989-3.158,5.473-6.164,6.676l-29.564,11.826C260.571,298.886,254,308.593,254,319.387v66.603l147.827-0.002v-66.601
		C401.827,308.593,395.255,298.886,385.233,294.877z"/>
	<path class="st10" d="M385.233,294.875l-23.102-9.241c-8.233,9.704-20.497,15.878-34.218,15.878
		c-13.721,0-25.985-6.175-34.217-15.878l-23.102,9.241C260.571,298.884,254,308.591,254,319.385v66.602l147.827-0.002v-66.601
		C401.827,308.591,395.255,298.884,385.233,294.875z"/>
	<circle class="st6" cx="327.913" cy="201.205" r="58.072"/>
	<path class="st8" d="M306.795,201.204c0-25.606,16.593-47.296,39.597-55.021c-5.811-1.951-12.011-3.054-18.479-3.054
		c-32.074,0-58.075,26.001-58.075,58.075s26.001,58.075,58.075,58.075c6.468,0,12.668-1.102,18.479-3.053
		C323.388,248.5,306.795,226.81,306.795,201.204z"/>
	<path class="st11" d="M327.913,280.397L327.913,280.397c-26.242,0-47.516-21.273-47.516-47.516v-11.104
		c0-5.624,3.018-10.781,7.857-13.647c7.059-4.182,12.496-9.906,15.606-13.648c1.672-2.012,4.585-2.494,6.752-1.03
		c26.455,17.874,64.816,14.024,64.816,34.15v5.28C375.429,259.123,354.156,280.397,327.913,280.397z"/>
	<path class="st2" d="M306.795,232.881v-40.129c-1.109,0.234-2.16,0.798-2.935,1.73c-3.11,3.742-8.547,9.466-15.606,13.648
		c-4.839,2.867-7.857,8.023-7.857,13.647v9.403c0,21.821,14.047,41.756,35.092,47.526c9.073,2.488,17.744,2.071,25.623-0.205
		C321.298,272.776,306.795,254.538,306.795,232.881z"/>
	<g>
		<path class="st12" d="M349.031,219.682c-4.369,0-7.92,3.55-7.92,7.92c0,4.37,3.55,7.92,7.92,7.92c4.37,0,7.92-3.55,7.92-7.92
			C356.951,223.231,353.401,219.682,349.031,219.682z"/>
		<path class="st12" d="M306.795,219.682c-4.369,0-7.92,3.55-7.92,7.92c0,4.37,3.55,7.92,7.92,7.92c4.37,0,7.92-3.55,7.92-7.92
			C314.715,223.231,311.164,219.682,306.795,219.682z"/>
	</g>
	<g>
		<path class="st13" d="M280.397,327.913l-22.395-22.395c-2.531,4.087-4.003,8.845-4.003,13.867v66.602l26.398-0.001V327.913z"/>
		<path class="st13" d="M375.429,327.913l22.395-22.395c2.531,4.087,4.003,8.845,4.003,13.867v66.602l-26.398-0.001V327.913z"/>
		<path class="st13" d="M327.913,322.633c22.883,0,43.096-11.243,55.566-28.46l-21.348-8.539
			c-8.232,9.704-20.497,15.878-34.218,15.878s-25.985-6.175-34.218-15.878l-21.348,8.539
			C284.817,311.39,305.03,322.633,327.913,322.633z"/>
	</g>
	<path d="M250.836,265.198c0.432,0.131,0.867,0.193,1.296,0.193c1.914,0,3.683-1.242,4.268-3.168
		c0.715-2.358-0.617-4.849-2.975-5.564l-29.213-8.859l-3.178-6.356c-0.99-1.982-3.255-2.898-5.304-2.264v-1.106
		c12.097-8.739,20.307-22.543,21.471-38.282c5.669-1.584,10.13-6.194,11.064-11.94c0.59-3.625-0.18-7.193-1.942-10.159
		c5.639-2.952,9.499-8.859,9.499-15.654c0-6.162-3.265-11.776-8.343-14.939c0.28-1.152,0.424-2.338,0.424-3.539
		c0-8.282-6.738-15.021-15.021-15.021c-1.987,0-3.883,0.391-5.62,1.095c-8.598-7.811-19.607-12.088-31.336-12.088h-21.118
		c-11.678,0-22.733,4.284-31.338,12.087c-1.737-0.704-3.633-1.095-5.619-1.095c-8.282,0-15.021,6.738-15.021,15.021
		c0,1.201,0.143,2.388,0.424,3.539c-5.078,3.163-8.343,8.777-8.343,14.939c0,6.791,3.855,12.694,9.488,15.648
		c-1.758,2.956-2.523,6.523-1.932,10.165c0.934,5.747,5.395,10.356,11.064,11.94c1.162,15.717,9.351,29.504,21.422,38.245v1.126
		c-2.036-0.604-4.272,0.315-5.255,2.28l-3.175,6.35l-30.345,9.103c-8.654,2.597-14.467,10.411-14.467,19.445v109.645
		c0,2.464,1.998,4.462,4.462,4.462s4.462-1.998,4.462-4.462V276.343c0-0.327,0.015-0.651,0.042-0.972l17.834,17.834
		c3.146,3.146,4.879,7.329,4.879,11.778v81.004c0,2.464,1.998,4.462,4.462,4.462s4.462-1.998,4.462-4.462v-81.004
		c0-6.833-2.661-13.256-7.492-18.088l-19.648-19.648c1.052-0.785,2.249-1.406,3.571-1.802l20.101-6.03
		c1.574,4.424,13.263,34.808,44.047,55.33c0.75,0.5,1.612,0.75,2.475,0.75c0.863,0,1.725-0.25,2.475-0.75
		c31.815-21.21,43.164-52.563,44.098-55.277L250.836,265.198z M215.048,249.426l2.008,4.015l-15.077,18.847
		c-0.207,0.259-0.456,0.312-0.652,0.307c-0.183-0.003-0.443-0.062-0.641-0.327l-8.542-11.389L215.048,249.426z M238.979,143.563
		c0,1.191-0.351,2.35-1.014,3.353c-0.788,1.19-0.959,2.686-0.459,4.023s1.609,2.355,2.983,2.738c3.774,1.051,6.41,4.49,6.41,8.365
		c0,4.818-3.92,8.738-8.738,8.738c-4.818,0-8.738-3.92-8.738-8.738c0-2.159,0.83-4.25,2.337-5.887
		c0.966-1.049,1.372-2.497,1.092-3.896c-0.28-1.399-1.211-2.579-2.506-3.177c-2.164-0.999-3.563-3.165-3.563-5.519
		c0-3.362,2.735-6.098,6.097-6.098C236.244,137.465,238.979,140.2,238.979,143.563z M130.243,153.677
		c1.375-0.383,2.484-1.4,2.983-2.738c0.499-1.337,0.328-2.833-0.459-4.023c-0.663-1.002-1.014-2.162-1.014-3.353
		c0-3.362,2.735-6.098,6.097-6.098s6.097,2.735,6.097,6.097c0,2.354-1.399,4.52-3.563,5.519c-1.295,0.597-2.227,1.778-2.506,3.177
		c-0.28,1.399,0.126,2.846,1.092,3.896c1.507,1.637,2.337,3.728,2.337,5.887c0,4.818-3.92,8.738-8.738,8.738
		c-4.818,0-8.738-3.92-8.738-8.738C123.833,158.167,126.469,154.727,130.243,153.677z M142.312,195.924
		c0-2.464-1.998-4.462-4.462-4.462c-3.281,0-6.109-2.167-6.576-5.041c-0.532-3.274,1.471-6.286,4.66-7.005
		c0.173-0.039,0.338-0.09,0.501-0.147c7.885-1.768,13.795-8.819,13.795-17.229c0-2.729-0.64-5.393-1.847-7.808
		c2.815-2.777,4.487-6.608,4.487-10.671c0-3.012-0.895-5.818-2.427-8.172c6.81-5.764,15.356-8.918,24.363-8.918h21.118
		c9.047,0,17.568,3.139,24.37,8.908c-1.537,2.356-2.434,5.166-2.434,8.183c0,4.062,1.672,7.893,4.487,10.671
		c-1.207,2.415-1.847,5.079-1.847,7.808c0,8.579,6.151,15.746,14.274,17.331c0.137,0.056,0.277,0.106,0.422,0.149
		c2.551,0.762,4.834,3.377,4.261,6.901c-0.467,2.874-3.294,5.041-6.576,5.041c-2.464,0-4.462,1.998-4.462,4.462
		c0,23.74-19.314,43.054-43.054,43.054S142.312,219.665,142.312,195.924z M185.366,247.902c7.641,0,14.9-1.66,21.441-4.634v0.303
		l-21.441,10.72l-21.49-10.745v-0.299C170.429,246.234,177.706,247.902,185.366,247.902z M154.27,252.253l1.413-2.826l22.905,11.453
		l-8.542,11.389c-0.199,0.265-0.459,0.324-0.641,0.327c-0.195,0.015-0.445-0.048-0.652-0.307l-14.958-18.698
		C154.023,253.175,154.183,252.723,154.27,252.253z M185.366,305.617c-19.974-14.196-30.724-32.774-35.292-42.395l11.713,14.641
		c1.864,2.33,4.627,3.656,7.602,3.656c0.052,0,0.105-0.001,0.157-0.001c3.034-0.048,5.819-1.468,7.64-3.895l3.719-4.958v18.292
		c0,2.464,1.998,4.462,4.462,4.462c2.464,0,4.462-1.998,4.462-4.462v-18.292l3.719,4.958c1.821,2.428,4.606,3.848,7.64,3.895
		c0.052,0.001,0.105,0.001,0.157,0.001c2.975,0,5.738-1.327,7.602-3.656l11.748-14.686
		C216.161,272.772,205.443,291.356,185.366,305.617z"/>
	<path d="M199.39,214.574c1.552-1.914,1.259-4.723-0.654-6.275c-1.914-1.553-4.723-1.259-6.275,0.654
		c-1.898,2.34-4.417,3.629-7.094,3.629s-5.196-1.289-7.094-3.629c-1.551-1.914-4.362-2.206-6.275-0.654
		c-1.914,1.552-2.206,4.362-0.654,6.275c3.572,4.404,8.684,6.93,14.024,6.93C190.707,221.504,195.817,218.977,199.39,214.574z"/>
	<path d="M164.248,180.904c-2.464,0-4.462,1.998-4.462,4.462v5.28c0,2.464,1.998,4.462,4.462,4.462c2.464,0,4.462-1.998,4.462-4.462
		v-5.28C168.709,182.901,166.712,180.904,164.248,180.904z"/>
	<path d="M206.484,195.106c2.464,0,4.462-1.998,4.462-4.462v-5.28c0-2.464-1.998-4.462-4.462-4.462
		c-2.464,0-4.462,1.998-4.462,4.462v5.28C202.022,193.109,204.02,195.106,206.484,195.106z"/>
	<path d="M251.875,277.242c-1.742-1.742-4.567-1.742-6.309,0l-9.653,9.653c-4.832,4.832-7.492,11.255-7.492,18.088v81.004
		c0,2.464,1.998,4.462,4.462,4.462c2.464,0,4.462-1.998,4.462-4.462v-81.004c0-4.449,1.733-8.632,4.879-11.778l9.653-9.653
		C253.617,281.81,253.617,278.985,251.875,277.242z"/>
	<path d="M327.913,258.461c5.34,0,10.451-2.526,14.024-6.93c1.552-1.914,1.259-4.723-0.654-6.275
		c-1.914-1.553-4.724-1.259-6.275,0.654c-1.898,2.34-4.417,3.629-7.094,3.629s-5.196-1.289-7.094-3.629
		c-1.551-1.914-4.362-2.206-6.275-0.654s-2.206,4.362-0.654,6.275C317.462,255.934,322.573,258.461,327.913,258.461z"/>
	<path d="M280.397,323.451c-2.464,0-4.462,1.998-4.462,4.462v58.075c0,2.464,1.998,4.462,4.462,4.462
		c2.464,0,4.462-1.998,4.462-4.462v-58.075C284.859,325.449,282.861,323.451,280.397,323.451z"/>
	<path d="M375.429,323.451c-2.464,0-4.462,1.998-4.462,4.462v58.075c0,2.464,1.998,4.462,4.462,4.462
		c2.464,0,4.462-1.998,4.462-4.462v-58.075C379.891,325.449,377.893,323.451,375.429,323.451z"/>
	<path d="M391.374,292.962c2.787-3.535,4.356-7.941,4.356-12.565c0-7.519-4.124-14.247-10.576-17.748
		c0.012-0.244,0.017-0.487,0.017-0.73c0-5.799-2.808-11.108-7.391-14.375c0.303-1.029,0.585-2.065,0.823-3.115
		c0.578-2.548,0.947-5.24,1.12-8.191c7.022-10.362,10.727-22.449,10.727-35.034c0-34.483-28.054-62.536-62.536-62.536
		s-62.536,28.054-62.536,62.536c0,12.586,3.705,24.674,10.728,35.035c0.173,2.952,0.542,5.644,1.12,8.19
		c0.238,1.049,0.52,2.085,0.823,3.115c-4.584,3.267-7.391,8.576-7.391,14.376c0,0.243,0.006,0.487,0.017,0.73
		c-6.453,3.5-10.576,10.23-10.576,17.748c0,4.624,1.569,9.03,4.356,12.565c-9.194,5.517-14.915,15.427-14.915,26.425v66.603
		c0,2.464,1.998,4.462,4.462,4.462c2.464,0,4.462-1.998,4.462-4.462v-66.603c0-9.022,5.413-17.016,13.789-20.367l0.854-0.341
		c13.196,17.834,33.525,28.417,54.81,28.417c21.575,0,41.459-10.338,54.805-28.418l0.857,0.343
		c8.377,3.351,13.789,11.345,13.789,20.367v66.601c0,2.464,1.998,4.462,4.462,4.462s4.462-1.998,4.462-4.462v-66.601
		C406.288,308.389,400.568,298.479,391.374,292.962z M376.247,261.919c0,0.66-0.113,1.384-0.357,2.28
		c-0.628,2.308,0.676,4.7,2.955,5.423c4.761,1.512,7.961,5.842,7.961,10.776c0,3.372-1.492,6.537-4.039,8.689l-25.442-10.177
		c-0.916-0.366-1.707-0.943-2.334-1.665c1.936-1.18,3.801-2.487,5.575-3.92c5.732-4.633,10.395-10.441,13.702-16.942
		C375.521,257.91,376.247,259.85,376.247,261.919z M308.943,281.258c6.009,2.354,12.45,3.6,18.971,3.6
		c6.521,0,12.961-1.246,18.971-3.6c1.584,2.52,3.893,4.522,6.679,5.742c-6.937,6.44-16.011,10.053-25.65,10.053
		c-9.629,0-18.708-3.616-25.648-10.054C305.051,285.779,307.359,283.777,308.943,281.258z M274.3,201.204
		c0-29.562,24.051-53.613,53.613-53.613c29.562,0,53.613,24.051,53.613,53.613c0,7.52-1.545,14.83-4.517,21.577
		c-6.428-13.833-20.716-17.709-34.615-21.47c-11.237-3.04-22.856-6.185-32.813-14.15c-1.052-0.842-2.43-1.164-3.744-0.874
		c-1.316,0.289-2.431,1.157-3.033,2.362c-0.046,0.092-4.72,9.282-13.843,13.843c-2.204,1.102-3.098,3.782-1.995,5.986
		c1.102,2.204,3.781,3.098,5.986,1.995c7.262-3.631,12.265-9.397,15.086-13.388c10.393,6.985,21.812,10.075,32.026,12.839
		c3.353,0.907,6.438,1.767,9.259,2.664c-0.098-0.002-0.194-0.007-0.291-0.007c-5.437,0-10.209,2.904-12.845,7.242
		c-2.466-1.269-5.297-1.962-8.272-1.962c-2.976,0-5.807,0.693-8.273,1.962c-2.637-4.338-7.409-7.242-12.845-7.242
		c-8.282,0-15.021,6.738-15.021,15.021c0,8.282,6.738,15.021,15.021,15.021c7.719,0,14.094-5.854,14.926-13.355
		c1.456-1.549,3.732-2.484,6.192-2.484c2.46,0,4.736,0.935,6.191,2.484c0.832,7.501,7.207,13.355,14.926,13.355
		c8.282,0,15.021-6.738,15.021-15.021c0-4.339-1.851-8.252-4.803-10.996c6.381,3.477,10.305,8.331,11.76,16.905
		c-0.075,0.299-0.123,0.61-0.134,0.93c-0.106,2.975-0.425,5.596-0.974,8.014c-2.124,9.359-7.431,17.858-14.944,23.931
		c-7.73,6.249-17.081,9.551-27.043,9.551c-9.962,0-19.313-3.303-27.043-9.551c-7.513-6.073-12.82-14.572-14.944-23.931
		c-0.547-2.413-0.866-5.031-0.973-8.006c-0.043-1.181-0.542-2.242-1.325-3.014C277.522,222.51,274.3,212.075,274.3,201.204z
		 M355.129,227.601c0,3.362-2.735,6.097-6.097,6.097s-6.098-2.735-6.098-6.097s2.735-6.097,6.098-6.097
		S355.129,224.239,355.129,227.601z M306.795,233.699c-3.362,0-6.097-2.735-6.097-6.097s2.735-6.097,6.097-6.097
		c3.362,0,6.098,2.735,6.098,6.097S310.157,233.699,306.795,233.699z M276.981,269.621c2.28-0.723,3.582-3.115,2.955-5.423
		c-0.244-0.895-0.357-1.62-0.357-2.28c0-2.069,0.726-4.008,1.979-5.537c3.307,6.501,7.971,12.309,13.702,16.942
		c1.774,1.434,3.638,2.741,5.575,3.92c-0.627,0.722-1.419,1.299-2.335,1.665l-25.442,10.177c-2.547-2.152-4.038-5.317-4.038-8.689
		C269.02,275.463,272.22,271.133,276.981,269.621z M327.913,318.171c-17.983,0-34.602-8.307-46.205-22.935l11.576-4.63
		c8.856,9.801,21.323,15.37,34.63,15.37c13.319,0,25.773-5.567,34.628-15.37l11.581,4.632
		C362.514,309.861,345.867,318.171,327.913,318.171z"/>
</g>
</svg>
