<?xml version="1.0" encoding="utf-8"?>
<!-- Generator: Adobe Illustrator 21.1.0, SVG Export Plug-In . SVG Version: 6.00 Build 0)  -->
<svg version="1.1" id="Layer_1" xmlns="http://www.w3.org/2000/svg" xmlns:xlink="http://www.w3.org/1999/xlink" x="0px" y="0px"
	 viewBox="0 0 508 508" style="enable-background:new 0 0 508 508;" xml:space="preserve">
<style type="text/css">
	.st0{fill:#45005C;}
	.st1{fill:#E6AF78;}
	.st2{fill:#D5DCED;}
	.st3{fill:#00AAF0;}
	.st4{fill:#B48764;}
	.st5{fill:#C7CFE2;}
	.st6{fill:#FFDC64;}
	.st7{fill:#FFFFFF;}
	.st8{fill:none;}
</style>
<circle class="st0" cx="254" cy="254" r="254"/>
<g>
	<path class="st1" d="M243.4,185.4c0,5.8-4.7,10.6-10.6,10.6c0,16.5-8.4,31-21.1,39.5v23.8H159v-23.8c-12.7-8.5-21.1-23-21.1-39.5
		c-5.8,0-10.6-4.7-10.6-10.6c0,0,0,0,0,0s0,0,0,0c0-5.8,4.7-10.6,10.6-10.6V159v0c0-20.4,16.5-37,37-37h21.1c20.4,0,37,16.5,37,37
		v15.8C238.7,174.8,243.4,179.5,243.4,185.4z"/>
	<path class="st2" d="M142.3,154c2.2,2.4,3.5,5.5,3.5,8.9c0,7.3-5.9,13.2-13.2,13.2c-7.3,0-13.2-5.9-13.2-13.2
		c0-6.1,4.1-11.1,9.7-12.7c-1.1-1.7-1.8-3.7-1.8-5.8c0-5.8,4.7-10.6,10.6-10.6c5.8,0,10.6,4.7,10.6,10.6
		C148.4,148.7,145.9,152.3,142.3,154z M241.7,150.3c1.1-1.7,1.8-3.7,1.8-5.8c0-5.8-4.7-10.6-10.6-10.6c-5.8,0-10.6,4.7-10.6,10.6
		c0,4.3,2.5,7.9,6.2,9.6c-2.2,2.4-3.5,5.5-3.5,8.9c0,7.3,5.9,13.2,13.2,13.2c7.3,0,13.2-5.9,13.2-13.2
		C251.4,156.9,247.3,151.8,241.7,150.3z"/>
	<path class="st3" d="M264.6,281V386h0h-31.7h-95h-31.7h0V281c0-0.6,0-1.2,0.1-1.8c0-0.3,0.1-0.6,0.1-0.9c0-0.2,0.1-0.5,0.1-0.7
		c1.3-8.2,7.4-15,15.7-17.1l26.2-6.6l0,0l5.3-10.6l21.1,10.6h21.1l21.1-10.6l5.3,10.6h0l26.2,6.6c8.3,2.1,14.4,8.9,15.7,17.1
		c0,0,0,0,0,0c0.1,0.5,0.2,1.1,0.2,1.6c0,0.3,0,0.7,0,1C264.5,280.6,264.6,280.8,264.6,281z"/>
	<path class="st4" d="M248.6,260.6l-16.6-4.2c-3.2,7.9-15.6,34.1-43.5,53.6c-1.8,1.3-4.3,1.3-6.1,0c-28-19.5-40.3-45.7-43.5-53.6
		l-16.6,4.2c-9.4,2.4-16,10.8-16,20.5V386h158.4V281C264.6,271.4,258,262.9,248.6,260.6z"/>
	<path class="st5" d="M391.3,280.4c0,8.7-7.1,15.8-15.8,15.8H349v-31.7c0-4.5,1.9-8.6,4.9-11.4c-5.7,2.9-12,4.8-18.6,5.7
		c-0.2,0-0.3,0-0.5,0.1c-0.6,0.1-1.1,0.1-1.7,0.2c-0.5,0-0.9,0.1-1.4,0.1c-0.4,0-0.7,0.1-1.1,0.1c-0.9,0-1.8,0.1-2.7,0.1
		c-9.4,0-18.2-2.2-26-6.2c3,2.9,4.9,6.9,4.9,11.4v31.7h-26.4c-8.7,0-15.8-7.1-15.8-15.8c0-6.9,4.5-12.7,10.7-14.9
		c0-0.3-0.1-0.6-0.1-0.9c0-8.7,7.1-15.8,15.8-15.8c1.6,0,3.1,0.2,4.5,0.7c-15.5-10.4-25.6-28.1-25.6-48.2c0-32.1,26-58.1,58.1-58.1
		c0.9,0,1.9,0,2.8,0.1c0.3,0,0.6,0,0.9,0.1c0.5,0,1.1,0.1,1.6,0.1c0.5,0,1,0.1,1.5,0.2c0.2,0,0.4,0.1,0.7,0.1
		c28.5,3.7,50.6,28,50.6,57.6c0,20.1-10.2,37.7-25.6,48.2c1.4-0.4,3-0.7,4.5-0.7c8.7,0,15.8,7.1,15.8,15.8c0,0.3-0.1,0.6-0.1,0.9
		C386.8,267.7,391.3,273.5,391.3,280.4z"/>
	<path class="st4" d="M401.8,319.4V386L254,386v-66.6c0-10.8,6.6-20.5,16.6-24.5l29.6-11.8c3-1.2,5.2-3.7,6.2-6.7l0-1.2
		c-15.4-7.9-26-23.9-26-42.3v-1.7v-9.4c0-0.4,0-0.7,0-1c0.3-5.2,3.3-9.9,7.8-12.6c0.9-0.5,1.7-1.1,2.6-1.6c1.7-1.1,3.2-2.3,4.7-3.5
		s2.8-2.4,3.9-3.6c1.8-1.8,3.3-3.5,4.4-4.9c0,0,0.1-0.1,0.1-0.1c0.2-0.2,0.3-0.4,0.5-0.5c1.7-1.5,4.2-1.7,6.1-0.4
		c26.5,17.9,64.8,14,64.8,34.1v5.3c0,18.5-10.6,34.5-26,42.3l0,1.2c0.9,3,3.2,5.5,6.2,6.7l29.6,11.8
		C395.3,298.9,401.8,308.6,401.8,319.4z"/>
	<path class="st6" d="M385.2,294.9l-23.1-9.2c-8.2,9.7-20.5,15.9-34.2,15.9c-13.7,0-26-6.2-34.2-15.9l-23.1,9.2
		c-10,4-16.6,13.7-16.6,24.5V386l147.8,0v-66.6C401.8,308.6,395.3,298.9,385.2,294.9z"/>
	<path class="st7" d="M349,219.7c-4.4,0-7.9,3.6-7.9,7.9s3.5,7.9,7.9,7.9c4.4,0,7.9-3.6,7.9-7.9C357,223.2,353.4,219.7,349,219.7z
		 M306.8,219.7c-4.4,0-7.9,3.6-7.9,7.9s3.5,7.9,7.9,7.9c4.4,0,7.9-3.6,7.9-7.9C314.7,223.2,311.2,219.7,306.8,219.7z"/>
	<path class="st8" d="M280.4,327.9L258,305.5c-2.5,4.1-4,8.8-4,13.9V386l26.4,0V327.9z M375.4,327.9l22.4-22.4c2.5,4.1,4,8.8,4,13.9
		V386l-26.4,0L375.4,327.9L375.4,327.9z M327.9,322.6c22.9,0,43.1-11.2,55.6-28.5l-21.3-8.5c-8.2,9.7-20.5,15.9-34.2,15.9
		s-26-6.2-34.2-15.9l-21.3,8.5C284.8,311.4,305,322.6,327.9,322.6z"/>
	<path d="M250.8,265.2c0.4,0.1,0.9,0.2,1.3,0.2c1.9,0,3.7-1.2,4.3-3.2c0.7-2.4-0.6-4.8-3-5.6l-29.2-8.9l-3.2-6.4
		c-1-2-3.3-2.9-5.3-2.3v-1.1c12.1-8.7,20.3-22.5,21.5-38.3c5.7-1.6,10.1-6.2,11.1-11.9c0.6-3.6-0.2-7.2-1.9-10.2
		c5.6-3,9.5-8.9,9.5-15.7c0-6.2-3.3-11.8-8.3-14.9c0.3-1.2,0.4-2.3,0.4-3.5c0-8.3-6.7-15-15-15c-2,0-3.9,0.4-5.6,1.1
		c-8.6-7.8-19.6-12.1-31.3-12.1h-21.1c-11.7,0-22.7,4.3-31.3,12.1c-1.7-0.7-3.6-1.1-5.6-1.1c-8.3,0-15,6.7-15,15
		c0,1.2,0.1,2.4,0.4,3.5c-5.1,3.2-8.3,8.8-8.3,14.9c0,6.8,3.9,12.7,9.5,15.6c-1.8,3-2.5,6.5-1.9,10.2c0.9,5.7,5.4,10.4,11.1,11.9
		c1.2,15.7,9.4,29.5,21.4,38.2v1.1c-2-0.6-4.3,0.3-5.3,2.3l-3.2,6.4l-30.3,9.1c-8.7,2.6-14.5,10.4-14.5,19.4V386
		c0,2.5,2,4.5,4.5,4.5s4.5-2,4.5-4.5V276.3c0-0.3,0-0.7,0-1l17.8,17.8c3.1,3.1,4.9,7.3,4.9,11.8v81c0,2.5,2,4.5,4.5,4.5
		s4.5-2,4.5-4.5v-81c0-6.8-2.7-13.3-7.5-18.1l-19.6-19.6c1.1-0.8,2.2-1.4,3.6-1.8l20.1-6c1.6,4.4,13.3,34.8,44,55.3
		c0.8,0.5,1.6,0.8,2.5,0.8s1.7-0.2,2.5-0.8c31.8-21.2,43.2-52.6,44.1-55.3L250.8,265.2z M215,249.4l2,4L202,272.3
		c-0.2,0.3-0.5,0.3-0.7,0.3c-0.2,0-0.4-0.1-0.6-0.3l-8.5-11.4L215,249.4z M239,143.6c0,1.2-0.4,2.4-1,3.4c-0.8,1.2-1,2.7-0.5,4
		s1.6,2.4,3,2.7c3.8,1.1,6.4,4.5,6.4,8.4c0,4.8-3.9,8.7-8.7,8.7c-4.8,0-8.7-3.9-8.7-8.7c0-2.2,0.8-4.2,2.3-5.9c1-1,1.4-2.5,1.1-3.9
		s-1.2-2.6-2.5-3.2c-2.2-1-3.6-3.2-3.6-5.5c0-3.4,2.7-6.1,6.1-6.1C236.2,137.5,239,140.2,239,143.6z M130.2,153.7
		c1.4-0.4,2.5-1.4,3-2.7c0.5-1.3,0.3-2.8-0.5-4c-0.7-1-1-2.2-1-3.4c0-3.4,2.7-6.1,6.1-6.1s6.1,2.7,6.1,6.1c0,2.4-1.4,4.5-3.6,5.5
		c-1.3,0.6-2.2,1.8-2.5,3.2c-0.3,1.4,0.1,2.8,1.1,3.9c1.5,1.6,2.3,3.7,2.3,5.9c0,4.8-3.9,8.7-8.7,8.7c-4.8,0-8.7-3.9-8.7-8.7
		C123.8,158.2,126.5,154.7,130.2,153.7z M142.3,195.9c0-2.5-2-4.5-4.5-4.5c-3.3,0-6.1-2.2-6.6-5c-0.5-3.3,1.5-6.3,4.7-7
		c0.2,0,0.3-0.1,0.5-0.1c7.9-1.8,13.8-8.8,13.8-17.2c0-2.7-0.6-5.4-1.8-7.8c2.8-2.8,4.5-6.6,4.5-10.7c0-3-0.9-5.8-2.4-8.2
		c6.8-5.8,15.4-8.9,24.4-8.9h21.1c9,0,17.6,3.1,24.4,8.9c-1.5,2.4-2.4,5.2-2.4,8.2c0,4.1,1.7,7.9,4.5,10.7c-1.2,2.4-1.8,5.1-1.8,7.8
		c0,8.6,6.2,15.7,14.3,17.3c0.1,0.1,0.3,0.1,0.4,0.1c2.6,0.8,4.8,3.4,4.3,6.9c-0.5,2.9-3.3,5-6.6,5c-2.5,0-4.5,2-4.5,4.5
		c0,23.7-19.3,43.1-43.1,43.1S142.3,219.7,142.3,195.9z M185.4,247.9c7.6,0,14.9-1.7,21.4-4.6v0.3l-21.4,10.7l-21.5-10.7v-0.3
		C170.4,246.2,177.7,247.9,185.4,247.9z M154.3,252.3l1.4-2.8l22.9,11.5l-8.5,11.4c-0.2,0.3-0.5,0.3-0.6,0.3c-0.2,0-0.4,0-0.7-0.3
		l-15-18.7C154,253.2,154.2,252.7,154.3,252.3z M185.4,305.6c-20-14.2-30.7-32.8-35.3-42.4l11.7,14.6c1.9,2.3,4.6,3.7,7.6,3.7
		c0.1,0,0.1,0,0.2,0c3,0,5.8-1.5,7.6-3.9l3.7-5V291c0,2.5,2,4.5,4.5,4.5s4.5-2,4.5-4.5v-18.3l3.7,5c1.8,2.4,4.6,3.8,7.6,3.9
		c0.1,0,0.1,0,0.2,0c3,0,5.7-1.3,7.6-3.7l11.7-14.7C216.2,272.8,205.4,291.4,185.4,305.6z M199.4,214.6c1.6-1.9,1.3-4.7-0.7-6.3
		c-1.9-1.6-4.7-1.3-6.3,0.7c-1.9,2.3-4.4,3.6-7.1,3.6s-5.2-1.3-7.1-3.6c-1.6-1.9-4.4-2.2-6.3-0.7c-1.9,1.6-2.2,4.4-0.7,6.3
		c3.6,4.4,8.7,6.9,14,6.9C190.7,221.5,195.8,219,199.4,214.6z M164.2,180.9c-2.5,0-4.5,2-4.5,4.5v5.3c0,2.5,2,4.5,4.5,4.5
		s4.5-2,4.5-4.5v-5.3C168.7,182.9,166.7,180.9,164.2,180.9z M206.5,195.1c2.5,0,4.5-2,4.5-4.5v-5.3c0-2.5-2-4.5-4.5-4.5
		s-4.5,2-4.5,4.5v5.3C202,193.1,204,195.1,206.5,195.1z M251.9,277.2c-1.7-1.7-4.6-1.7-6.3,0l-9.7,9.7c-4.8,4.8-7.5,11.3-7.5,18.1
		v81c0,2.5,2,4.5,4.5,4.5s4.5-2,4.5-4.5v-81c0-4.4,1.7-8.6,4.9-11.8l9.7-9.7C253.6,281.8,253.6,279,251.9,277.2z M327.9,258.5
		c5.3,0,10.5-2.5,14-6.9c1.6-1.9,1.3-4.7-0.7-6.3c-1.9-1.6-4.7-1.3-6.3,0.7c-1.9,2.3-4.4,3.6-7.1,3.6s-5.2-1.3-7.1-3.6
		c-1.6-1.9-4.4-2.2-6.3-0.7s-2.2,4.4-0.7,6.3C317.5,255.9,322.6,258.5,327.9,258.5z M280.4,323.5c-2.5,0-4.5,2-4.5,4.5V386
		c0,2.5,2,4.5,4.5,4.5c2.5,0,4.5-2,4.5-4.5v-58.1C284.9,325.4,282.9,323.5,280.4,323.5z M375.4,323.5c-2.5,0-4.5,2-4.5,4.5V386
		c0,2.5,2,4.5,4.5,4.5c2.5,0,4.5-2,4.5-4.5v-58.1C379.9,325.4,377.9,323.5,375.4,323.5z M391.4,293c2.8-3.5,4.4-7.9,4.4-12.6
		c0-7.5-4.1-14.2-10.6-17.7c0-0.2,0-0.5,0-0.7c0-5.8-2.8-11.1-7.4-14.4c0.3-1,0.6-2.1,0.8-3.1c0.6-2.5,0.9-5.2,1.1-8.2
		c7-10.4,10.7-22.4,10.7-35c0-34.5-28.1-62.5-62.5-62.5s-62.5,28.1-62.5,62.5c0,12.6,3.7,24.7,10.7,35c0.2,3,0.5,5.6,1.1,8.2
		c0.2,1,0.5,2.1,0.8,3.1c-4.6,3.3-7.4,8.6-7.4,14.4c0,0.2,0,0.5,0,0.7c-6.5,3.5-10.6,10.2-10.6,17.7c0,4.6,1.6,9,4.4,12.6
		c-9.2,5.5-14.9,15.4-14.9,26.4V386c0,2.5,2,4.5,4.5,4.5s4.5-2,4.5-4.5v-66.6c0-9,5.4-17,13.8-20.4l0.9-0.3
		c13.2,17.8,33.5,28.4,54.8,28.4c21.6,0,41.5-10.3,54.8-28.4l0.9,0.3c8.4,3.4,13.8,11.3,13.8,20.4V386c0,2.5,2,4.5,4.5,4.5
		s4.5-2,4.5-4.5v-66.6C406.3,308.4,400.6,298.5,391.4,293z M376.2,261.9c0,0.7-0.1,1.4-0.4,2.3c-0.6,2.3,0.7,4.7,3,5.4
		c4.8,1.5,8,5.8,8,10.8c0,3.4-1.5,6.5-4,8.7l-25.4-10.2c-0.9-0.4-1.7-0.9-2.3-1.7c1.9-1.2,3.8-2.5,5.6-3.9
		c5.7-4.6,10.4-10.4,13.7-16.9C375.5,257.9,376.2,259.9,376.2,261.9z M308.9,281.3c6,2.4,12.5,3.6,19,3.6s13-1.2,19-3.6
		c1.6,2.5,3.9,4.5,6.7,5.7c-6.9,6.4-16,10.1-25.6,10.1c-9.6,0-18.7-3.6-25.6-10.1C305.1,285.8,307.4,283.8,308.9,281.3z
		 M274.3,201.2c0-29.6,24.1-53.6,53.6-53.6s53.6,24.1,53.6,53.6c0,7.5-1.5,14.8-4.5,21.6c-6.4-13.8-20.7-17.7-34.6-21.5
		c-11.2-3-22.9-6.2-32.8-14.1c-1.1-0.8-2.4-1.2-3.7-0.9c-1.3,0.3-2.4,1.2-3,2.4c0,0.1-4.7,9.3-13.8,13.8c-2.2,1.1-3.1,3.8-2,6
		c1.1,2.2,3.8,3.1,6,2c7.3-3.6,12.3-9.4,15.1-13.4c10.4,7,21.8,10.1,32,12.8c3.4,0.9,6.4,1.8,9.3,2.7c-0.1,0-0.2,0-0.3,0
		c-5.4,0-10.2,2.9-12.8,7.2c-2.5-1.3-5.3-2-8.3-2c-3,0-5.8,0.7-8.3,2c-2.6-4.3-7.4-7.2-12.8-7.2c-8.3,0-15,6.7-15,15
		c0,8.3,6.7,15,15,15c7.7,0,14.1-5.9,14.9-13.4c1.5-1.5,3.7-2.5,6.2-2.5s4.7,0.9,6.2,2.5c0.8,7.5,7.2,13.4,14.9,13.4
		c8.3,0,15-6.7,15-15c0-4.3-1.9-8.3-4.8-11c6.4,3.5,10.3,8.3,11.8,16.9c-0.1,0.3-0.1,0.6-0.1,0.9c-0.1,3-0.4,5.6-1,8
		c-2.1,9.4-7.4,17.9-14.9,23.9c-7.7,6.2-17.1,9.6-27,9.6s-19.3-3.3-27-9.6c-7.5-6.1-12.8-14.6-14.9-23.9c-0.5-2.4-0.9-5-1-8
		c0-1.2-0.5-2.2-1.3-3C277.5,222.5,274.3,212.1,274.3,201.2z M355.1,227.6c0,3.4-2.7,6.1-6.1,6.1s-6.1-2.7-6.1-6.1s2.7-6.1,6.1-6.1
		S355.1,224.2,355.1,227.6z M306.8,233.7c-3.4,0-6.1-2.7-6.1-6.1s2.7-6.1,6.1-6.1s6.1,2.7,6.1,6.1S310.2,233.7,306.8,233.7z
		 M277,269.6c2.3-0.7,3.6-3.1,3-5.4c-0.2-0.9-0.4-1.6-0.4-2.3c0-2.1,0.7-4,2-5.5c3.3,6.5,8,12.3,13.7,16.9c1.8,1.4,3.6,2.7,5.6,3.9
		c-0.6,0.7-1.4,1.3-2.3,1.7l-25.4,10.2c-2.5-2.2-4-5.3-4-8.7C269,275.5,272.2,271.1,277,269.6z M327.9,318.2
		c-18,0-34.6-8.3-46.2-22.9l11.6-4.6c8.9,9.8,21.3,15.4,34.6,15.4c13.3,0,25.8-5.6,34.6-15.4l11.6,4.6
		C362.5,309.9,345.9,318.2,327.9,318.2z"/>
</g>
</svg>
