<?xml version="1.0" encoding="utf-8"?>
<!-- Generator: Adobe Illustrator 21.1.0, SVG Export Plug-In . SVG Version: 6.00 Build 0)  -->
<svg version="1.1" id="Layer_1" xmlns="http://www.w3.org/2000/svg" xmlns:xlink="http://www.w3.org/1999/xlink" x="0px" y="0px"
	 viewBox="0 0 508 508" style="enable-background:new 0 0 508 508;" xml:space="preserve">
<style type="text/css">
	.st0{fill:#45005C;}
	.st1{fill:#B02721;}
	.st2{fill:#E0E1E2;}
	.st3{fill:#556080;}
	.st4{fill:#7383BF;}
	.st5{fill:#FFFFFF;}
</style>
<circle class="st0" cx="254" cy="254" r="254"/>
<g>
	<g>
		<path class="st1" d="M374.712,212.582L253.997,119.53l-120.714,93.052c-6.231,4.8-15.089,4.064-20.437-1.7l0,0
			c-6.063-6.53-5.241-16.845,1.776-22.335L243.647,87.606l10.35-9.62l10.355,9.62l129.025,100.942
			c7.017,5.49,7.839,15.805,1.776,22.335l0,0C389.801,216.647,380.942,217.382,374.712,212.582z"/>
		<path class="st1" d="M374.712,212.582L253.997,119.53l-120.714,93.052c-6.231,4.8-15.089,4.064-20.437-1.7l0,0
			c-6.063-6.53-5.241-16.845,1.776-22.335L243.647,87.606l10.35-9.62l10.355,9.62l129.025,100.942
			c7.017,5.49,7.839,15.805,1.776,22.335l0,0C389.801,216.647,380.942,217.382,374.712,212.582z"/>
		<polygon class="st2" points="253.997,119.53 137.302,209.482 137.302,209.904 137.302,362.115 370.693,362.115 370.693,209.904 
			370.693,209.482 		"/>
		<rect x="177.892" y="204.83" class="st3" width="60.885" height="40.59"/>
		<rect x="177.892" y="275.862" class="st3" width="60.885" height="50.737"/>
		<rect x="269.219" y="204.83" class="st3" width="60.885" height="40.59"/>
		<rect x="269.219" y="275.862" class="st3" width="60.885" height="86.253"/>
		<rect x="269.219" y="204.83" class="st4" width="60.885" height="30.442"/>
		<rect x="177.892" y="204.83" class="st4" width="60.885" height="14.029"/>
		<polygon class="st4" points="213.408,296.157 213.408,275.862 203.26,275.862 203.26,296.157 177.892,296.157 177.892,306.304 
			203.26,306.304 203.26,326.599 213.408,326.599 213.408,306.304 238.776,306.304 238.776,296.157 		"/>
	</g>
</g>
<g>
	<g>
		<g>
			<path class="st5" d="M426.794,68.197c0-3.033-2.482-5.423-5.515-5.423c0,0,0,0-0.092,0c-3.033,0-5.515,2.574-5.423,5.607
				l0.368,32.171l-6.25-6.067c-42.65-41.639-98.904-64.251-158.466-63.515c-59.563,0.643-115.265,24.542-156.904,67.1
				c-29.873,30.517-50.187,68.571-58.827,110.209c-8.456,40.444-5.515,82.358,8.365,121.24c0.827,2.298,2.941,3.677,5.147,3.677
				c0.643,0,1.287-0.092,1.838-0.368c2.849-1.011,4.32-4.228,3.309-7.078c-27.575-77.119-9.192-161.408,48.073-219.959
				C141.941,65.255,194.977,42.644,251.599,42c56.621-0.735,110.118,20.773,150.561,60.39l6.25,6.067l-32.171,0.368
				c-3.033,0-5.515,2.574-5.423,5.607c0,3.033,2.482,5.423,5.515,5.423c0,0,0,0,0.092,0l45.499-0.552
				c3.033,0,5.515-2.574,5.423-5.607L426.794,68.197z"/>
		</g>
	</g>
	<g>
		<g>
			<path class="st5" d="M463.929,178.498c-1.011-2.849-4.228-4.32-7.078-3.309c-2.849,1.011-4.32,4.228-3.309,7.078
				c27.667,77.119,9.284,161.408-47.889,219.959c-39.617,40.536-92.561,63.148-149.183,63.791
				c-56.621,0.643-110.118-20.773-150.561-60.39l-6.25-6.067l32.171-0.368c3.033,0,5.515-2.574,5.423-5.607
				c0-3.033-2.482-5.423-5.607-5.423l-45.499,0.552c-3.033,0-5.515,2.574-5.423,5.607l0.552,45.499c0,3.033,2.482,5.423,5.515,5.423
				c0,0,0,0,0.092,0c3.033,0,5.515-2.574,5.423-5.607l-0.368-32.171l6.25,6.067c42.006,40.995,97.249,63.515,155.801,63.515
				c0.919,0,1.746,0,2.666,0c59.563-0.643,115.265-24.542,156.904-67.1c29.781-30.517,50.187-68.571,58.827-110.209
				C480.75,259.202,477.809,217.288,463.929,178.498z"/>
		</g>
	</g>
</g>
</svg>
