<?xml version="1.0" encoding="utf-8"?>
<!-- Generator: Adobe Illustrator 21.1.0, SVG Export Plug-In . SVG Version: 6.00 Build 0)  -->
<svg version="1.1" id="Layer_1" xmlns="http://www.w3.org/2000/svg" xmlns:xlink="http://www.w3.org/1999/xlink" x="0px" y="0px"
	 viewBox="0 0 120 120" style="enable-background:new 0 0 120 120;" xml:space="preserve">
<style type="text/css">
	.st0{fill:#2B3B4E;}
	.st1{fill:#324A5E;}
	.st2{fill:#FF7058;}
	.st3{fill:#84DBFF;}
	.st4{fill:#FFFFFF;}
	.st5{fill:#54C0EB;}
	.st6{fill:#E6E9EE;}
</style>
<g>
	<path class="st0" d="M78.7,71.6V78H68.4v-2.2c0-0.8-0.6-1.3-1.3-1.3H50.7c-0.8,0-1.3,0.6-1.3,1.3V78H36.2c-0.8-3.1-3.7-5.3-7-5.3
		s-6.2,2.3-7,5.3h-6.4v-6.4H78.7z"/>
	<path class="st1" d="M78.7,71.6h-63c-1.8,0-3.3-1.5-3.3-3.3V36c0-1.8,1.5-3.3,3.3-3.3h59.7c1.8,0,3.3,1.5,3.3,3.3L78.7,71.6
		L78.7,71.6z"/>
	<rect x="12.4" y="45.3" class="st2" width="66.3" height="11.7"/>
	<polygon class="st3" points="78.7,45.7 78.7,79.6 106.6,79.6 106.6,63.9 96.7,45.7 	"/>
	<path class="st4" d="M106.6,63.9V77h-5.1v2.5h-5.2c-0.2-3.8-3.4-6.9-7.3-6.9c-3.8,0-7,3.1-7.3,6.9h-3.2V45.8h18L106.6,63.9z"/>
	<polygon class="st3" points="103.3,62.2 95.5,47.8 80.8,47.8 80.8,62.2 	"/>
	<polygon class="st5" points="90.4,62.2 103.3,62.2 95.5,47.8 94.4,47.8 	"/>
	<circle class="st1" cx="29.1" cy="79.9" r="7.3"/>
	<g>
		<circle class="st6" cx="29.1" cy="79.9" r="4.7"/>
		<path class="st6" d="M67,81.2H50.8c-0.8,0-1.3-0.6-1.3-1.3v-4.1c0-0.8,0.6-1.3,1.3-1.3H67c0.8,0,1.3,0.6,1.3,1.3v4.1
			C68.4,80.6,67.8,81.2,67,81.2z"/>
	</g>
	<rect x="103.9" y="70.5" class="st2" width="2.7" height="5.4"/>
	<path class="st6" d="M85.5,64.8H82c-0.7,0-1.2-0.6-1.2-1.2v-0.4h6v0.5C86.7,64.4,86.2,64.8,85.5,64.8z"/>
	<path class="st1" d="M106.7,77h-5.2v3.8h5.2c0.5,0,0.8-0.4,0.8-0.8v-2C107.6,77.4,107.2,77,106.7,77z"/>
	<path class="st0" d="M97.4,79.6h-1c-0.2-3.8-3.4-6.9-7.3-6.9c-3.9,0-7.1,3.1-7.3,6.9h-1c0.2-4.4,3.8-8,8.4-8
		C93.6,71.6,97.3,75.1,97.4,79.6z"/>
	<circle class="st1" cx="89.1" cy="79.9" r="7.3"/>
	<circle class="st6" cx="89.1" cy="79.9" r="4.7"/>
</g>
</svg>
