<?xml version="1.0" encoding="utf-8"?>
<!-- Generator: Adobe Illustrator 21.1.0, SVG Export Plug-In . SVG Version: 6.00 Build 0)  -->
<svg version="1.1" id="Слой_1" xmlns="http://www.w3.org/2000/svg" xmlns:xlink="http://www.w3.org/1999/xlink" x="0px" y="0px"
	 viewBox="0 0 512 512" style="enable-background:new 0 0 512 512;" xml:space="preserve">
<style type="text/css">
	.st0{fill:url(#SVGID_1_);}
</style>
<linearGradient id="SVGID_1_" gradientUnits="userSpaceOnUse" x1="-39.0444" y1="256" x2="775.3169" y2="256">
	<stop  offset="0" style="stop-color:#E35C67"/>
	<stop  offset="1" style="stop-color:#381CE2"/>
</linearGradient>
<path class="st0" d="M478.229,224.188l-43.676-42.633h8.033c5.889,0,11.425-2.294,15.6-6.469c4.154-4.168,6.442-9.702,6.442-15.582
	c0-12.153-9.887-22.041-22.04-22.041h-23.252c-3.921-35.676-34.229-63.528-70.933-63.528H163.599
	c-36.703,0-67.012,27.851-70.932,63.528H69.414c-5.882,0-11.415,2.288-15.599,6.459c-4.154,4.169-6.442,9.702-6.442,15.582
	c0,12.158,9.887,22.051,22.041,22.051h8.034l-43.676,42.633C26.304,227.117,21,234.39,21,242.883v135.639
	c0,7.443,4.074,13.947,10.107,17.414v16.47c0,13.184,9.997,24.073,22.809,25.496c0.479,0.103,0.966,0.159,1.454,0.159
	c0.153,0,0.307-0.011,0.459-0.022c0.311,0.011,0.622,0.025,0.935,0.025h51.012c14.142,0,25.648-11.51,25.648-25.657v-13.807h9.116
	h9.117h226.92v13.807c0,14.148,11.506,25.657,25.648,25.657h51.012c14.147,0,25.657-11.51,25.657-25.657v-16.47
	c6.032-3.467,10.106-9.972,10.106-17.414V242.883C491.001,234.39,485.697,227.117,478.229,224.188z M457.101,222.807h-92.51v-7.121
	h85.215L457.101,222.807z M419.775,151.234h22.812c4.561,0,8.271,3.71,8.271,8.27c0,2.211-0.861,4.294-2.417,5.854
	c-1.565,1.565-3.644,2.427-5.854,2.427h-22.14l-0.672-0.657V151.234z M435.699,201.915h-71.108v-7.516
	c0-3.199-2.204-5.978-5.32-6.705l-43.491-10.153h94.949L435.699,201.915z M323.056,222.807h-134.11H161.18v-22.945l94.821-22.136
	l94.821,22.135v22.946H323.056z M350.822,236.576v82.481H329.94v-82.481H350.822z M316.171,236.576v82.481h-8.047v-82.481H316.171z
	 M294.354,236.576v82.481h-8.529v-82.481H294.354z M272.056,236.576v82.481h-9.17v-82.481H272.056z M249.116,236.576v82.481h-8.529
	v-82.481H249.116z M226.817,236.576v82.481h-8.529v-82.481H226.817z M204.519,236.576v82.481h-8.688v-82.481H204.519z
	 M182.06,236.576v82.481H161.18v-82.481H182.06z M105.996,145.31c0-31.763,25.841-57.604,57.604-57.604h184.803
	c31.762,0,57.604,25.841,57.604,57.604v18.462H105.996V145.31z M69.414,167.785c-4.56,0-8.271-3.714-8.271-8.281
	c0-2.211,0.861-4.292,2.41-5.846c1.569-1.563,3.651-2.425,5.861-2.425h22.812v15.895l-0.672,0.656H69.414z M101.272,177.541h94.948
	l-43.49,10.153c-3.116,0.727-5.32,3.505-5.32,6.705v7.516H76.302L101.272,177.541z M62.197,215.685h85.214v7.121h-92.51
	L62.197,215.685z M34.77,242.883c0-3.478,2.83-6.307,6.307-6.307H147.41v82.481H93.503c1.827-3.513,2.867-7.498,2.867-11.723
	c0-5.433-1.714-10.471-4.621-14.611h21.557c11.679,0,21.181-9.502,21.181-21.182v-5.257c0-11.68-9.502-21.181-21.181-21.181h-47.64
	c-11.679,0-21.181,9.502-21.181,21.181v5.257c0,7.112,3.527,13.411,8.919,17.255c-4.932,4.652-8.02,11.239-8.02,18.538
	c0,4.226,1.04,8.211,2.867,11.723H34.77V242.883z M65.666,278.953c-4.087,0-7.411-3.325-7.411-7.411v-5.257
	c0-4.086,3.325-7.411,7.411-7.411h47.64c4.086,0,7.412,3.325,7.412,7.411v5.257c0,4.087-3.325,7.411-7.412,7.411H65.666z
	 M82.6,307.334c0,6.464-5.259,11.723-11.723,11.723s-11.723-5.259-11.723-11.723c0-6.465,5.259-11.724,11.723-11.724
	S82.6,300.87,82.6,307.334z M119.654,412.406c0,6.555-5.329,11.887-11.879,11.887h-1.67l3.755-3.755
	c2.688-2.689,2.688-7.048,0-9.737c-2.688-2.688-7.048-2.688-9.736,0l-13.493,13.492H71.991l3.755-3.755
	c2.689-2.689,2.689-7.048,0-9.737c-2.688-2.688-7.048-2.688-9.736,0L53.102,423.71c-4.766-1.549-8.224-6.028-8.224-11.304v-13.807
	h74.777V412.406z M467.125,412.406c0,6.404-5.096,11.629-11.443,11.866l3.733-3.733c2.689-2.689,2.689-7.048,0-9.737
	c-2.689-2.687-7.048-2.687-9.736,0l-13.493,13.493h-14.642l3.755-3.756c2.689-2.689,2.689-7.048,0-9.737
	c-2.688-2.687-7.047-2.687-9.735,0l-13.314,13.315c-5.61-0.947-9.901-5.83-9.901-11.709V398.6h74.778V412.406z M477.232,378.522
	c0,3.478-2.83,6.307-6.307,6.307H151.656h-9.117H41.077c-3.478,0-6.307-2.83-6.307-6.307v-45.694h119.525h34.651h134.11h34.651
	h119.525V378.522z M441.124,295.371c6.464,0,11.723,5.259,11.723,11.723c0,6.464-5.259,11.723-11.723,11.723
	c-6.465,0-11.723-5.259-11.723-11.723C429.401,300.629,434.66,295.371,441.124,295.371z M398.696,278.712
	c-4.087,0-7.411-3.325-7.411-7.411v-5.257c0-4.087,3.325-7.411,7.411-7.411h47.64c4.087,0,7.412,3.325,7.412,7.411v5.257
	c0,4.086-3.325,7.411-7.412,7.411H398.696z M477.232,319.057h-13.605c1.906-3.57,2.991-7.643,2.991-11.965
	c0-7.299-3.089-13.886-8.02-18.537c5.392-3.844,8.919-10.142,8.919-17.254v-5.257c0-11.68-9.502-21.181-21.182-21.181h-47.64
	c-11.679,0-21.182,9.501-21.182,21.181v5.257c0,11.679,9.502,21.18,21.182,21.18h21.557c-2.908,4.142-4.621,9.179-4.621,14.611
	c0,4.322,1.085,8.395,2.99,11.965h-54.03v-82.481h106.333c3.477,0,6.307,2.83,6.307,6.307V319.057z M114.015,341.678
	c-3.802,0-6.885,3.081-6.885,6.885v22.62c0,3.803,3.083,6.885,6.885,6.885h284.423c3.802,0,6.884-3.082,6.884-6.885v-22.62
	c0-3.803-3.083-6.885-6.884-6.885H348.94H114.015z M391.552,364.298H120.899v-8.85H348.94h42.611V364.298z M440.855,377.287
	c11.061,0,20.061-9,20.061-20.062c0-11.062-9-20.061-20.061-20.061c-11.061,0-20.061,8.999-20.061,20.061
	C420.794,368.287,429.794,377.287,440.855,377.287z M440.854,350.933c3.469,0,6.292,2.823,6.292,6.292
	c0,3.47-2.823,6.293-6.292,6.293s-6.292-2.823-6.292-6.293C434.563,353.756,437.385,350.933,440.854,350.933z M70.486,337.164
	c-11.061,0-20.061,8.999-20.061,20.061c0,11.063,9,20.062,20.061,20.062s20.061-9,20.061-20.062
	C90.548,346.163,81.548,337.164,70.486,337.164z M70.487,363.518c-3.469,0-6.292-2.823-6.292-6.293c0-3.469,2.823-6.292,6.292-6.292
	c3.469,0,6.292,2.822,6.292,6.292C76.779,360.695,73.956,363.518,70.487,363.518z"/>
</svg>
