<?xml version="1.0" encoding="utf-8"?>
<!-- Generator: Adobe Illustrator 21.1.0, SVG Export Plug-In . SVG Version: 6.00 Build 0)  -->
<svg version="1.1" id="Слой_1" xmlns="http://www.w3.org/2000/svg" xmlns:xlink="http://www.w3.org/1999/xlink" x="0px" y="0px"
	 viewBox="0 0 512 512" style="enable-background:new 0 0 512 512;" xml:space="preserve">
<style type="text/css">
	.st0{fill:url(#SVGID_1_);}
	.st1{fill:url(#SVGID_2_);}
	.st2{fill:url(#SVGID_3_);}
	.st3{fill:url(#SVGID_4_);}
	.st4{fill:url(#SVGID_5_);}
	.st5{fill:url(#SVGID_6_);}
</style>
<g>
	<linearGradient id="SVGID_1_" gradientUnits="userSpaceOnUse" x1="-140.0683" y1="396.7287" x2="695.0394" y2="396.7287">
		<stop  offset="0" style="stop-color:#E35C67"/>
		<stop  offset="1" style="stop-color:#381CE2"/>
	</linearGradient>
	<path class="st0" d="M438.9,343.8l-82.4-33c-13.7-5.5-28.2-8.3-43-8.3H263c-18.1,0-36.2,4.3-52.3,12.5L136,353l-53.6,7.8
		c-13,1.9-24.9,8.4-33.4,18.3c-8.6,9.9-13.3,22.6-13.3,35.7v31.6c0,4.9,4,8.8,8.8,8.8h37.9c1.9,8.6,6.3,16.5,12.7,22.8
		c8.6,8.3,19.9,12.9,31.8,12.9c11.9,0,23.2-4.6,31.8-12.9c6.4-6.3,10.8-14.2,12.7-22.8H330c1.9,8.6,6.3,16.5,12.7,22.8
		c8.6,8.3,19.8,12.9,31.8,12.9c12,0,23.2-4.6,31.8-12.9c6.4-6.3,10.8-14.2,12.7-22.8h40.3c4.9,0,8.8-4,8.8-8.8v-59.3
		C468.2,367.9,456.7,350.9,438.9,343.8z M349.9,327.2l63.6,25.5h-48l-21.1-27.5C346.2,325.8,348.1,326.4,349.9,327.2z M271.3,320.1
		h42.2c1.6,0,3.2,0,4.8,0.1l24.9,32.4h-71.9V320.1z M218.7,330.8c10.9-5.5,22.8-9,34.9-10.2v32h-78L218.7,330.8z M83.6,378.5
		C80,390.8,69.1,400.1,56,401.3C60.6,389.8,70.9,380.9,83.6,378.5z M127,473.3c-15.4,0-27.9-12.5-27.9-27.9s12.5-27.9,27.9-27.9
		s27.9,12.5,27.9,27.9C154.9,460.8,142.4,473.3,127,473.3z M374.6,473.3c-15.4,0-27.9-12.5-27.9-27.9s12.5-27.9,27.9-27.9
		s27.9,12.5,27.9,27.9S390,473.3,374.6,473.3z M450.6,437.6h-31.1c-3.7-21.4-22.4-37.8-44.9-37.8c-22.5,0-41.2,16.4-44.9,37.8H171.9
		c-3.7-21.4-22.4-37.8-44.9-37.8c-22.5,0-41.2,16.4-44.9,37.8H53.4v-18.5c25.1-0.2,45.7-19.1,48.8-43.4l37.2-5.4h221.8c0,0,0,0,0,0
		c0,0,0,0,0,0h56v11.5c0,16.2,13.2,29.4,29.4,29.4h4V437.6z M450.6,393.5h-4c-6.4,0-11.7-5.2-11.7-11.7v-11.5h10.4
		c3.4,4.8,5.3,10.6,5.3,16.8V393.5z"/>
	<linearGradient id="SVGID_2_" gradientUnits="userSpaceOnUse" x1="182.3931" y1="403.9948" x2="329.8194" y2="403.9948">
		<stop  offset="0" style="stop-color:#E35C67"/>
		<stop  offset="1" style="stop-color:#381CE2"/>
	</linearGradient>
	<path class="st1" d="M280.9,395.1h-58.7c-4.9,0-8.8,4-8.8,8.8s4,8.8,8.8,8.8h58.7c4.9,0,8.8-4,8.8-8.8S285.8,395.1,280.9,395.1z"/>
	<linearGradient id="SVGID_3_" gradientUnits="userSpaceOnUse" x1="105.9351" y1="445.4047" x2="151.2094" y2="445.4047">
		<stop  offset="0" style="stop-color:#E35C67"/>
		<stop  offset="1" style="stop-color:#381CE2"/>
	</linearGradient>
	<path class="st2" d="M127.2,433.7c-6.5,0-11.7,5.3-11.7,11.7c0,6.5,5.2,11.7,11.7,11.7c6.5,0,11.7-5.3,11.7-11.7
		C138.9,438.9,133.7,433.7,127.2,433.7z"/>
	<linearGradient id="SVGID_4_" gradientUnits="userSpaceOnUse" x1="353.9805" y1="445.4047" x2="399.2547" y2="445.4047">
		<stop  offset="0" style="stop-color:#E35C67"/>
		<stop  offset="1" style="stop-color:#381CE2"/>
	</linearGradient>
	<path class="st3" d="M375.2,433.7c-6.5,0-11.7,5.3-11.7,11.7c0,6.5,5.2,11.7,11.7,11.7c6.5,0,11.7-5.3,11.7-11.7
		C387,438.9,381.7,433.7,375.2,433.7z"/>
	<linearGradient id="SVGID_5_" gradientUnits="userSpaceOnUse" x1="-88.0946" y1="90.9612" x2="680.2509" y2="90.9612">
		<stop  offset="0" style="stop-color:#E35C67"/>
		<stop  offset="1" style="stop-color:#381CE2"/>
	</linearGradient>
	<path class="st4" d="M103,100.1c7.8,0,14.9-3.1,20.2-8.1l64,33.5c-0.4,1.9-0.6,3.9-0.6,5.9c0,16.2,13.2,29.4,29.4,29.4
		c16.2,0,29.4-13.2,29.4-29.4c0-2.4-0.3-4.8-0.9-7.1l68-49.7c4.7,3.2,10.4,5.1,16.5,5.1c7.5,0,14.4-2.8,19.6-7.5l66.8,47
		c-1.7,3.7-2.6,7.8-2.6,12.2c0,16.2,13.2,29.4,29.4,29.4c16.2,0,29.4-13.2,29.4-29.4s-13.2-29.4-29.4-29.4c-5.2,0-10.2,1.4-14.4,3.8
		l-69.9-49.3c0.4-2,0.7-4.1,0.7-6.3c0-16.2-13.2-29.4-29.4-29.4c-16.2,0-29.4,13.2-29.4,29.4c0,3.5,0.6,6.9,1.8,10.1L235,109.1
		c-5.1-4.3-11.7-6.9-18.9-6.9c-7.6,0-14.6,2.9-19.9,7.7l-64.3-33.7c0.3-1.8,0.5-3.6,0.5-5.4c0-16.2-13.2-29.4-29.4-29.4
		c-16.2,0-29.4,13.2-29.4,29.4C73.6,87,86.8,100.1,103,100.1z M442.2,120.2c6.2,0,11.3,5.1,11.3,11.3c0,6.2-5.1,11.3-11.3,11.3
		s-11.3-5.1-11.3-11.3C430.9,125.3,436,120.2,442.2,120.2z M329.1,39.1c6.2,0,11.3,5.1,11.3,11.3c0,6.2-5.1,11.3-11.3,11.3
		c-6.2,0-11.3-5.1-11.3-11.3C317.8,44.2,322.9,39.1,329.1,39.1z M216.1,120.2c6.2,0,11.3,5.1,11.3,11.3c0,6.2-5.1,11.3-11.3,11.3
		c-6.2,0-11.3-5.1-11.3-11.3C204.8,125.3,209.8,120.2,216.1,120.2z M103,59.4c6.2,0,11.3,5.1,11.3,11.3c0,6.2-5.1,11.3-11.3,11.3
		c-6.2,0-11.3-5.1-11.3-11.3C91.7,64.5,96.8,59.4,103,59.4z"/>
	<linearGradient id="SVGID_6_" gradientUnits="userSpaceOnUse" x1="-96.6766" y1="220.0622" x2="689.941" y2="220.0622">
		<stop  offset="0" style="stop-color:#E35C67"/>
		<stop  offset="1" style="stop-color:#381CE2"/>
	</linearGradient>
	<path class="st5" d="M98.3,293.2c16.2,0,29.4-13.2,29.4-29.4c0-0.5,0-1,0-1.4l68.1-20.7c5.3,5.4,12.7,8.7,20.8,8.7
		c16.2,0,29.4-13.2,29.4-29.4c0-1.2-0.1-2.3-0.2-3.4l61.3-22.5c5.4,6.5,13.5,10.6,22.6,10.6c7.5,0,14.3-2.8,19.5-7.4l69.9,49.8
		c-1,3-1.6,6.2-1.6,9.6c0,16.2,13.2,29.4,29.4,29.4s29.4-13.2,29.4-29.4s-13.2-29.4-29.4-29.4c-6.3,0-12.1,2-16.9,5.4l-71.6-51
		c0.4-2,0.7-4.1,0.7-6.3c0-16.2-13.2-29.4-29.4-29.4c-16.2,0-29.4,13.2-29.4,29.4c0,0.7,0,1.3,0.1,2l-62.1,22.9
		c-5.4-5.8-13.1-9.5-21.6-9.5c-16.2,0-29.4,13.2-29.4,29.4c0,1.5,0.1,2.9,0.3,4.3l-66.3,20.1c-5.4-6.7-13.7-11-22.9-11
		c-16.2,0-29.4,13.2-29.4,29.4C68.9,280.1,82.1,293.2,98.3,293.2z M446.9,246.3c6.2,0,11.3,5.1,11.3,11.3c0,6.2-5.1,11.3-11.3,11.3
		s-11.3-5.1-11.3-11.3C435.6,251.3,440.7,246.3,446.9,246.3z M329.7,165c6.2,0,11.3,5.1,11.3,11.3c0,6.2-5.1,11.3-11.3,11.3
		s-11.3-5.1-11.3-11.3C318.4,170,323.4,165,329.7,165z M216.6,209.7c6.2,0,11.3,5.1,11.3,11.3c0,6.2-5.1,11.3-11.3,11.3
		s-11.3-5.1-11.3-11.3C205.3,214.8,210.4,209.7,216.6,209.7z M98.3,252.5c6.2,0,11.3,5.1,11.3,11.3c0,6.2-5.1,11.3-11.3,11.3
		c-6.2,0-11.3-5.1-11.3-11.3C87,257.6,92,252.5,98.3,252.5z"/>
</g>
</svg>
