<svg xmlns="http://www.w3.org/2000/svg" viewBox="0 0 500 500"><path d="M432.6 66.1H67.5c-32.6 0-59.1 26.5-59.1 59.1v249.6c0 32.6 26.5 59.1 59.1 59.1h365.1c32.6 0 59.1-26.5 59.1-59.1V125.3c.1-32.6-26.4-59.2-59.1-59.2zm32.2 308.7c0 17.7-14.4 32.1-32.1 32.1H67.5c-17.7 0-32.1-14.4-32.1-32.1V125.3c0-17.7 14.4-32.1 32.1-32.1h365.1c17.7 0 32.1 14.4 32.1 32.1l.1 249.5z"/><path d="M313.1 246.9l118.2-106c5.5-5 6-13.5 1-19.1-5-5.5-13.5-6-19.1-1l-163 146.3-31.8-28.4c-.1-.1-.2-.2-.2-.3-.7-.7-1.4-1.3-2.2-1.9L86.7 120.7c-5.6-5-14.1-4.5-19.1 1.1s-4.5 14.1 1.1 19.1l119.6 106.9L69.2 359.3c-5.4 5.1-5.7 13.6-.6 19.1 2.7 2.8 6.3 4.3 9.9 4.3 3.3 0 6.6-1.2 9.2-3.6L208.6 266l32.8 29.3c2.6 2.3 5.8 3.4 9 3.4s6.5-1.2 9-3.5l33.7-30.2 120.2 114.2c2.6 2.5 6 3.7 9.3 3.7 3.6 0 7.1-1.4 9.8-4.2 5.1-5.4 4.9-14-.5-19.1L313.1 246.9z"/></svg>