<svg xmlns="http://www.w3.org/2000/svg" viewBox="0 0 64 64"><path d="M57.8 2.702l-9.322-1.437a107.966 107.966 0 0 0-32.956 0L6.2 2.702a1 1 0 0 0-.848.989v7.157c0 20.576 9.726 40.36 26.018 52.93a1.003 1.003 0 0 0 1.257.001c16.294-12.568 26.021-32.353 26.021-52.931V3.69a1 1 0 0 0-.848-.989zm-1.152 8.146c0 19.71-9.2 38.673-24.647 50.884C16.55 49.52 7.352 30.559 7.352 10.848v-6.3l8.475-1.307a105.907 105.907 0 0 1 32.346 0l8.475 1.307v6.3z"/><path d="M32.988 50.342a.999.999 0 1 0 1.445 1.38C51.23 34.15 50.111 11.87 50.097 11.647c-.032-.551-.52-.961-1.056-.939a1 1 0 0 0-.94 1.057c.013.215 1.062 21.653-15.113 38.578z"/></svg>