<?xml version="1.0" encoding="utf-8"?>
<!-- Generator: Adobe Illustrator 21.1.0, SVG Export Plug-In . SVG Version: 6.00 Build 0)  -->
<svg version="1.1" id="Layer_1" xmlns="http://www.w3.org/2000/svg" xmlns:xlink="http://www.w3.org/1999/xlink" x="0px" y="0px"
	 viewBox="0 0 120 120" style="enable-background:new 0 0 120 120;" xml:space="preserve">
<style type="text/css">
	.st0{fill:#CBCDD1;}
	.st1{fill:#FEC24C;}
	.st2{fill:#535353;}
	.st3{fill:#A2A2A2;}
	.st4{fill:#BC8D2F;}
</style>
<path class="st0" d="M89.7,71.2c-3.5,0-6.4-2.9-6.4-6.4c0-1,0.6-1.6,1.6-1.6s1.6,0.6,1.6,1.6c0,1.8,1.4,3.2,3.2,3.2s3.2-1.4,3.2-3.2
	s-1.4-3.2-3.2-3.2c-0.5,0-0.8-0.2-1.1-0.5c-0.3-0.3-0.5-0.6-0.5-1.1V23.1c0-1,0.6-1.6,1.6-1.6l0,0c1,0,1.6,0.6,1.6,1.6v35.4
	c2.7,0.6,4.8,3.2,4.8,6.3C96.1,68.3,93.2,71.2,89.7,71.2"/>
<path class="st1" d="M85.3,18.3L50.9,55.2h11.2c1.1,0,2.2,0.2,3.2,0.5l24.4-32.6C87.3,23,85.3,20.9,85.3,18.3"/>
<path class="st2" d="M82.5,106.5H32.7c-4.8,0-8.8-4-8.8-8.8l0,0c0-4.8,4-8.8,8.8-8.8h49.7c4.8,0,8.8,4,8.8,8.8l0,0
	C91.3,102.5,87.3,106.5,82.5,106.5"/>
<g>
	<path class="st3" d="M38.3,97.7c0-2.2-1.8-4-4-4c-2.2,0-4,1.8-4,4c0,2.2,1.8,4,4,4C36.6,101.7,38.3,99.9,38.3,97.7"/>
	<path class="st3" d="M84.9,97.7c0-2.2-1.8-4-4-4c-2.2,0-4,1.8-4,4c0,2.2,1.8,4,4,4C83.1,101.7,84.9,99.9,84.9,97.7"/>
</g>
<path class="st4" d="M49.6,88.9h16v-4.8h-16V88.9z"/>
<path class="st1" d="M46.4,58.4v12.8H28.9c-2.7,0-5,2.2-5,5v7.9h22.5H72V65.1c0-1.3-0.2-2.6-0.6-3.7c-1.4-3.8-5.1-6.3-9.3-6.3H49.6
	C47.8,55.2,46.4,56.6,46.4,58.4"/>
<g>
	<path class="st4" d="M28.9,71.2c-2.7,0-5,2.2-5,5v1.4h8c2.7,0,4.8-2.2,4.8-4.8v-1.6H28.9z"/>
	<path class="st4" d="M61.8,55.2h-7.4v11.5c0,2.7,1.8,5.1,4.3,6.1L72,77.6V65.1c0-3.2-1.6-6.3-4.3-8.3
		C65.9,55.7,63.8,55.2,61.8,55.2"/>
</g>
<path class="st0" d="M76.8,97.7c0-1.9,1.4-3.5,3.2-4l0,0H57.6H35.1l0,0c1.8,0.3,3.2,1.9,3.2,4s-1.4,3.5-3.2,4l0,0h22.5H80l0,0
	C78.3,101.2,76.8,99.6,76.8,97.7"/>
<g>
	<path class="st4" d="M95,18.3c0-2.7-2.1-4.8-4.8-4.8s-4.8,2.1-4.8,4.8s2.1,4.8,4.8,4.8C92.7,23.1,95,21,95,18.3"/>
	<path class="st4" d="M84.4,30.2l-0.6-8.7c0-0.5-0.2-0.8-0.5-1l-2.6,2.7l0.6,7.4l-8.5,1.1l-3.2,3.5l0.6,10.3l-11.7,1.6l-2.9,3
		c0.3,0.3,0.6,0.5,1.1,0.5H57l13.6-1.8l2.7-3.7l-0.6-9.9l9-1.1L84.4,30.2z"/>
</g>
<path class="st3" d="M92.9,56.8h-6.4c-1,0-1.6-0.6-1.6-1.6s0.6-1.6,1.6-1.6h6.4c1,0,1.6,0.6,1.6,1.6S93.8,56.8,92.9,56.8"/>
</svg>
