<svg id="Слой_1" xmlns="http://www.w3.org/2000/svg" xmlns:xlink="http://www.w3.org/1999/xlink" viewBox="0 0 160 60"><style>.st0{fill:#009fe3}.st1{fill:#0070aa}.st2{fill:#fff}.st3{fill:url(#SVGID_1_)}.st4{clip-path:url(#SVGID_3_)}.st5{fill:url(#SVGID_4_)}.st6{fill:url(#SVGID_5_)}.st7{clip-path:url(#SVGID_7_)}.st8{fill:url(#SVGID_8_)}</style><path class="st0" d="M27 5.3c10.2 0 18.8 6.8 21.5 16.2-7.4 2.2-14.3 5.7-21.3 10.5-7-4.9-14.2-8.4-21.8-10.5C8.2 12.1 16.8 5.3 27 5.3z"/><path class="st1" d="M83.9 49.3v-9.2H73.6c-4 0-7.4 0-9-2.9-.3-.6-.9-2-.9-6.2 0-1.8.2-4.8 1.2-6.7 1.6-3 4.6-2.9 8.5-2.9h9.9v-9.2H67.6c-4.2 0-9.6.5-13 4.8-2.7 3.3-3.2 8-3.2 14.2 0 7.1 1.2 10.8 3.4 13.5 3 3.8 6.9 4.6 12.7 4.6h16.4zm26.4 0V21.4h13.3v-9.2H85v9.2h13.3v27.9h12zm46.8 0v-9.2h-10.3c-4 0-7.4 0-9-2.9-.3-.6-.9-2-.9-6.2 0-1.8.2-4.8 1.2-6.7 1.6-3 4.6-2.9 8.5-2.9h9.9v-9.2h-15.7c-4.2 0-9.6.5-13 4.8-2.7 3.3-3.2 8-3.2 14.2 0 7.1 1.2 10.8 3.4 13.5 3 3.8 6.9 4.6 12.7 4.6h16.4zM15.1 56.4c-.3.2-.6.3-.9.4-.1 0-.4.1-.7.1s-.7-.1-.9-.3c-.3-.3-.3-.8-.3-1.1v-.8c0-.3 0-.6.3-.9.2-.2.5-.2.7-.2s.4 0 .5.2c.2.2.2.4.2.5v.3l1.5-.1c.1-.2.1-.3.1-.5 0-.5-.2-.9-.6-1.2-.5-.3-1-.3-1.5-.3s-1.2.1-1.7.5c-.9.6-1 1.7-1 2.4 0 .8.2 1.6 1 2.2.5.4 1.1.6 1.7.6.6 0 1-.1 1.3-.2.3-.1.6-.2.9-.5l-.6-1.1zm10.5-3.9h-4.8v5.4h1.6v-4.2H24v4.2h1.6v-5.4zm6.9 3.1h3.4V55c0-1-.3-1.6-.6-1.9-.4-.4-1.1-.7-1.8-.7s-1.4.2-1.9.8c-.5.6-.7 1.3-.7 2s.1 1.5.7 2.1c.7.7 1.6.7 2.1.7s.9-.1 1.3-.2c.3-.1.6-.3.9-.4l-.5-1c-.3.2-.5.3-.7.3-.3.1-.5.1-.8.1s-.7-.1-1-.3c-.2-.2-.3-.5-.3-.8v-.1h-.1zm0-1v-.2c0-.4.1-.6.2-.7.1-.2.3-.3.6-.3.4 0 .6.2.7.3.2.2.2.5.2.7v.2h-1.7zm11.8-2.1v4.2h-1.6v-4.2h-1.6v5.4h4.1v1.3h1.5v-2.5h-.8v-4.2h-1.6zm6.8 0v1.2h1.6v4.2h1.6v-4.2h1.6v-1.2h-4.8zm11.2 7.8v-2.5c.1.1.5.3 1.2.3.8 0 1.2-.3 1.5-.5.7-.7.8-1.6.8-2.3s0-1.4-.6-2.1c-.4-.4-.9-.7-1.7-.7-.5 0-1.1.2-1.4.6v-.5h-1.4v7.7h1.6zm0-6.3c.2-.2.6-.4.9-.4.2 0 .5 0 .7.3.2.3.2.6.2.9v.9c0 .3 0 .7-.2 1-.1.1-.3.3-.7.3-.2 0-.6-.1-.9-.3V54zm12.1 3.9h1.5v-3.4c0-.5 0-1.1-.5-1.6-.6-.5-1.4-.6-2-.6-1.3 0-1.7.3-1.9.4-.4.3-.6.8-.3 1.4h1.4v-.2c0-.3.2-.4.3-.5.2-.1.4-.1.6-.1s.5 0 .7.2.2.4.2.6v.5h-.6c-.4 0-1.5 0-2.1.3-.7.3-.9.9-.9 1.4 0 .6.3 1 .6 1.2.5.4 1 .4 1.4.4s.8-.1 1.2-.3c.2-.1.3-.2.4-.3v.6zm-.1-1.4c-.3.4-.6.5-1 .5-.6 0-.8-.3-.8-.7 0-.7.8-.8 1.4-.8h.5l-.1 1zm12-4h-1.6v2h-1.8v-2h-1.6v5.4h1.6v-2.2h1.8v2.2h1.6v-5.4zm9.8 3.9c-.3.2-.6.3-.9.4-.1 0-.4.1-.7.1-.3 0-.7-.1-.9-.3-.3-.3-.3-.8-.3-1.1v-.8c0-.3 0-.6.3-.9.2-.2.5-.2.7-.2s.4 0 .5.2c.2.2.2.4.2.5v.3l1.5-.1c.1-.2.1-.3.1-.5 0-.5-.2-.9-.6-1.2-.5-.3-1-.3-1.5-.3s-1.2.1-1.7.5c-.9.6-1 1.7-1 2.4 0 .8.2 1.6 1 2.2.5.4 1.1.6 1.7.6s1-.1 1.3-.2c.3-.1.6-.2.9-.5l-.6-1.1zm9.9 0c-.3.2-.6.3-.9.4-.1 0-.4.1-.7.1-.3 0-.7-.1-.9-.3-.3-.3-.3-.8-.3-1.1v-.8c0-.3 0-.6.3-.9.2-.2.5-.2.7-.2s.4 0 .5.2c.2.2.2.4.2.5v.3l1.5-.1c.1-.2.1-.3.1-.5 0-.5-.2-.9-.6-1.2-.5-.3-1-.3-1.5-.3s-1.2.1-1.7.5c-.9.6-1 1.7-1 2.4 0 .8.2 1.6 1 2.2.5.4 1.1.6 1.7.6s1-.1 1.3-.2c.3-.1.6-.2.9-.5l-.6-1.1zm7.1-.8h3.4V55c0-1-.3-1.6-.6-1.9-.4-.4-1.1-.7-1.8-.7s-1.4.2-1.9.8-.7 1.3-.7 2 .1 1.5.7 2.1c.7.7 1.6.7 2.1.7s.9-.1 1.3-.2c.3-.1.6-.3.9-.4l-.5-1c-.3.2-.5.3-.7.3-.3.1-.5.1-.8.1s-.7-.1-1-.3c-.2-.2-.3-.5-.4-.9zm0-1v-.2c0-.4.1-.6.2-.7.1-.2.3-.3.6-.3.4 0 .6.2.7.3.2.2.2.5.2.7v.2h-1.7zm10.2 5.7v-2.5c.1.1.5.3 1.2.3.8 0 1.2-.3 1.5-.5.7-.7.8-1.6.8-2.3s0-1.4-.6-2.1c-.4-.4-.9-.7-1.7-.7-.5 0-1.1.2-1.4.6v-.5h-1.4v7.7h1.6zm0-6.3c.2-.2.6-.4.9-.4.2 0 .5 0 .7.3s.2.6.2.9v.9c0 .3 0 .7-.2 1-.1.1-.3.3-.7.3-.2 0-.6-.1-.9-.3V54zm8.7 3.9h2.7c.5 0 1.2-.1 1.7-.4.5-.3.6-.8.6-1.1 0-.5-.2-.8-.4-1l-.6-.3.6-.3c.2-.3.3-.6.3-.8 0-.4-.1-.7-.5-1s-1.1-.3-1.5-.3H132v5.2zm1.6-4.3h1c.1 0 .3 0 .5.1.1.1.1.2.1.3s0 .2-.2.3c-.1.1-.3.2-.4.2h-1v-.9zm0 2.1h1c.2 0 .4 0 .5.1s.2.2.2.4c0 .1 0 .2-.1.4-.2.2-.4.2-.6.2h-1v-1.1zm13.9-3.2h-1.6l-2.1 3.3.1-1v-2.3h-1.6v5.4h1.6l2.1-3.3-.1 1v2.3h1.6v-5.4zm9.8 3.9c-.3.2-.6.3-.9.4-.1 0-.4.1-.7.1s-.7-.1-.9-.3c-.3-.3-.3-.8-.3-1.1v-.8c0-.3 0-.6.3-.9.2-.2.5-.2.7-.2s.4 0 .5.2c.2.2.2.4.2.5v.3l1.5-.1c.1-.2.1-.3.1-.5 0-.5-.2-.9-.6-1.2-.5-.3-1-.3-1.5-.3s-1.2.1-1.7.5c-.9.6-1 1.7-1 2.4 0 .8.2 1.6 1 2.2.5.4 1.1.6 1.7.6.6 0 1-.1 1.3-.2.3-.1.6-.2.9-.5l-.6-1.1zM49 22.7c.4 1.6.5 3.3.5 5 0 12.6-10.1 22.9-22.6 22.9S4.3 40.4 4.3 27.7c0-1.7.2-3.4.5-5 7.9 1.4 14.9 6.4 22.3 10.1 7.8-3.8 14-8.5 21.9-10.1zM15.1 43.2c2.9 2.3 5.1 3.1 8.2 3.9-2.3-1.7-4.1-3.4-5.7-5.7l-2.5 1.8zm24 0l-2.5-1.8c-1.6 2.3-3.4 3.9-5.7 5.7 3.2-.8 5.3-1.6 8.2-3.9zm-5.7-2.9c-2.4-1-3.6-1-5-1v5.5c0 .1 5-4.2 5-4.5zm-12.7 0c0 .3 5 4.6 5 4.4v-5.5c-1.4 0-2.6 0-5 1.1zm-4.3-9.4c.3 2.8.9 4.2 2.3 6.7 2.2-.9 4.5-1.3 7.2-1.6l-9.5-5.1zm21.4 0l-9.5 5.2c2.6.3 5 .6 7.2 1.6 1.4-2.6 2-4 2.3-6.8zm8.8-4.3L41 28.9c-.3 3.9-.8 6.4-2.8 9.9l3.4 2.2c3-3.4 5.1-7.8 5-14.4zm-39.1 0c-.1 6.5 2.1 11 5 14.4l3.4-2.2c-2-3.5-2.6-5.9-2.8-9.9l-5.6-2.3z"/><path class="st2" d="M30.7 7.4c3.9 1.4 6.7 5.2 6.7 9.6 0 5.4-4.1 9.8-9.4 10.2-.9 1.5-.8 3.7-1.9 3.9-.3.1-.7.1-1.2-.5-1.2-1.3-1.5-2.6-1.9-4.3-3.6-1.6-6-5.2-6-9.3 0-4 2.2-7.4 5.5-9.1 1.1-1 2.2-1.9 3.1-3.2.9-.1.8.5 1.8.5 1.2 0 2.3.1 3.5.1l-.2 2.1z"/><path class="st1" d="M26.8.8c.2 2.6-.4 3.9-1.7 5.2-3.2 3.3-7.4 5.3-7.4 10.8 0 3.8 2.3 7.1 5.6 8.6 0-1.7.7-2.9 1.6-4.3.8-1.2 1.9-2.1 2.8-3.1.9-.9 1.8-1.7 2.5-2.7 1.6-2 1.9-3.3 1.8-5.7.8 1 1.4 2 2 3 .7 1.2 1 2.4 1.2 3.7.2 1.5-.1 2.7-.7 3.8-.8 1.6-2 2.7-3.2 3.8-.6.5-1.1 1-1.7 1.5-.3.2-.5.5-.8.7 4.4-.8 7.7-4.7 7.7-9.3 0-3.9-2.4-7.3-5.8-8.7l-.2 1.1c-.4 1.2-.8 2.1-1.3 2.9-1 1.4-2.2 2.6-3.4 3.8-1.5 1.4-2.5 2.7-3.2 4.1-.2.4-.3.8-.4 1.2-.4 1.6-1.2 1.4-1.9.1-.5-.8-.9-1.7-1.2-2.6-.3-1.1-.5-2.2-.3-3.3.3-1.2.5-2 1.3-3.1.8-1.2 1.8-2.1 2.9-3C24.8 8 26.8 6.2 27.2 4c.1-.8 0-1.8-.4-3.2z"/><linearGradient id="SVGID_1_" gradientUnits="userSpaceOnUse" x1="29.33" y1="60.09" x2="21.822" y2="43.228" gradientTransform="matrix(1 0 0 -1 0 62)"><stop offset="0" stop-color="#ea5b0c"/><stop offset="1" stop-color="#fc0"/></linearGradient><path class="st3" d="M27.7 4.2c-.1.4-.2.7-.3 1-.5 1.3-1.4 2.4-2.6 3.3-1.7 1.3-3 2.4-4.1 3.9-1.2 1.7-1.6 3.3-1.3 5 .1.8.4 1.4.6 2 .8 1.9 1.4 1.9 2.3.2.1-.2.2-.4.3-.5.5-.8 1-1.5 1.7-2.3.6-.7 1.4-1.4 2.2-2.2 1.6-1.7 3.4-3.5 3.8-6.2.3-2.1-.2-3.3-1.3-4.8-.5-.6-.7-.6-.9-.5-.4.2-.4.5-.4 1.1z"/><defs><path id="SVGID_2_" d="M27.7 4.2c-.1.4-.2.7-.3 1-.5 1.3-1.4 2.4-2.6 3.3-1.7 1.3-3 2.4-4.1 3.9-1.2 1.7-1.6 3.3-1.3 5 .1.8.4 1.4.6 2 .8 1.9 1.4 1.9 2.3.2.1-.2.2-.4.3-.5.5-.8 1-1.5 1.7-2.3.6-.7 1.4-1.4 2.2-2.2 1.6-1.7 3.4-3.5 3.8-6.2.3-2.1-.2-3.3-1.3-4.8-.5-.6-.7-.6-.9-.5-.4.2-.4.5-.4 1.1z"/></defs><clipPath id="SVGID_3_"><use xlink:href="#SVGID_2_" overflow="visible"/></clipPath><g class="st4"><linearGradient id="SVGID_4_" gradientUnits="userSpaceOnUse" x1="33.572" y1="50.625" x2="12.546" y2="45.383" gradientTransform="matrix(1 0 0 -1 0 62)"><stop offset="0" stop-color="#ea5b0c"/><stop offset="1" stop-color="#fc0"/></linearGradient><path class="st5" d="M27.6 2.1c.9 4 1.7 6.3-2.5 9.3-2.7 2-4.6 5.6-4.1 8.5.3 2 .7 3.4 1.9 4.9-.1-1.4.6-2.3 1.2-3.6.7-1.5 1.8-2.4 3.4-3.9 1.3-1.1 2.5-2.3 3.4-3.6.7-1.1 1.2-2.3 1.2-3.9 0-2-1.7-7.3-4.5-7.7z"/></g><linearGradient id="SVGID_5_" gradientUnits="userSpaceOnUse" x1="33.718" y1="50.684" x2="26.288" y2="33.996" gradientTransform="matrix(1 0 0 -1 0 62)"><stop offset="0" stop-color="#ea5b0c"/><stop offset="1" stop-color="#fc0"/></linearGradient><path class="st6" d="M32 13.6c-.3.7-.7 1.3-1.3 2-.9 1-1.8 2-2.7 2.9-1.3 1.3-2.4 2.4-3.2 3.8-1.1 1.7-1.3 3-1.1 4.4.1.6.3 1.2.5 1.7s.4.9.6 1.3c.6 1.2 1.4.8 1.5-.2.1-.5.2-1.1.4-1.5.7-1.4 1.7-2.3 3.3-3.6 1.2-1.1 2.5-2.1 3.4-3.4.7-1 1.2-2.1 1.2-3.6 0-1.3-.3-2.6-.9-3.9-.7-1.5-.9-1.2-1-1.2-.1-.1-.2.2-.7 1.3z"/><g><defs><path id="SVGID_6_" d="M32 13.6c-.3.7-.7 1.3-1.3 2-.9 1-1.8 2-2.7 2.9-1.3 1.3-2.4 2.4-3.2 3.8-1.1 1.7-1.3 3-1.1 4.4.1.6.3 1.2.5 1.7s.4.9.6 1.3c.6 1.2 1.4.8 1.5-.2.1-.5.2-1.1.4-1.5.7-1.4 1.7-2.3 3.3-3.6 1.2-1.1 2.5-2.1 3.4-3.4.7-1 1.2-2.1 1.2-3.6 0-1.3-.3-2.6-.9-3.9-.7-1.5-.9-1.2-1-1.2-.1-.1-.2.2-.7 1.3z"/></defs><clipPath id="SVGID_7_"><use xlink:href="#SVGID_6_" overflow="visible"/></clipPath><g class="st7"><linearGradient id="SVGID_8_" gradientUnits="userSpaceOnUse" x1="38.286" y1="41.578" x2="17.292" y2="36.344" gradientTransform="matrix(1 0 0 -1 0 62)"><stop offset="0" stop-color="#ea5b0c"/><stop offset="1" stop-color="#fc0"/></linearGradient><path class="st8" d="M32.6 11c.9 4 1.4 6.4-2.7 9.5-2.7 2-4.6 5.6-4.1 8.5.3 2 .7 3.4 1.9 4.9-.1-1.4.6-2.3 1.2-3.6.7-1.5 1.8-2.4 3.4-3.9 1.3-1.1 2.5-2.3 3.4-3.6.7-1.1 1.2-2.3 1.2-3.9 0-2.1-3-5.6-4.3-7.9z"/></g></g></svg>