<svg id="Layer_1" xmlns="http://www.w3.org/2000/svg" viewBox="0 0 455.7 455.7"><style>.st0{fill:#fff}</style><path class="st0" d="M303.4 75.5h-151c-42.4 0-76.9 34.5-76.9 76.9v151c0 42.4 34.5 76.9 76.9 76.9h151c42.4 0 76.9-34.5 76.9-76.9v-151c0-42.4-34.5-76.9-76.9-76.9zm43.8 227.8c0 24.1-19.6 43.7-43.7 43.7h-151c-24.1 0-43.7-19.6-43.7-43.7v-151c0-24.1 19.6-43.7 43.7-43.7h151c24.1 0 43.7 19.6 43.7 43.7v151z"/><path class="st0" d="M306.5 168c-10.2 0-18.6-8.3-18.6-18.6s8.3-18.6 18.6-18.6 18.6 8.3 18.6 18.6-8.4 18.6-18.6 18.6zM228 149.4c-43.3 0-78.5 35.2-78.5 78.5s35.2 78.5 78.5 78.5c43.2 0 78.5-35.3 78.5-78.5 0-43.4-35.2-78.5-78.5-78.5zm0 123.7c-25 0-45.3-20.3-45.3-45.3s20.3-45.3 45.3-45.3 45.3 20.3 45.3 45.3c0 25.1-20.3 45.3-45.3 45.3z"/></svg>