<svg id="Слой_1" xmlns="http://www.w3.org/2000/svg" viewBox="0 0 455.7 455.7"><style>.st0{fill:#fff}</style><path class="st0" d="M227.9 110.2c19.7 0 35.8 16.1 35.8 35.8s-16.1 35.8-35.8 35.8-35.8-16.1-35.8-35.8c0-19.8 16-35.8 35.8-35.8zm0 122.2c47.7 0 86.4-38.8 86.4-86.4 0-47.7-38.8-86.4-86.4-86.4-47.7 0-86.4 38.8-86.4 86.4-.1 47.6 38.7 86.4 86.4 86.4M262.8 304.6c17.6-4 34.6-11 50.2-20.8 11.8-7.5 15.4-23.1 7.9-34.9-7.4-11.8-23.1-15.4-34.9-8-35.4 22.3-81 22.2-116.4 0-11.8-7.5-27.5-3.9-34.9 8-7.5 11.8-3.9 27.5 7.9 34.9 15.6 9.8 32.6 16.8 50.2 20.8L144.6 353c-9.9 9.9-9.9 25.9 0 35.8 4.9 4.9 11.4 7.4 17.9 7.4s13-2.5 17.9-7.4l47.5-47.5 47.5 47.5c9.9 9.9 25.9 9.9 35.8 0s9.9-25.9 0-35.8l-48.4-48.4"/></svg>