<svg id="Capa_1" xmlns="http://www.w3.org/2000/svg" viewBox="0 0 455.7 455.7"><style>.st0{fill:#fff}</style><path class="st0" d="M118.1 138.7c10.9 27 24.8 52.4 43 75.2 2.4 3 5.5 5.7 8.7 7.9 4.7 3.2 9.1 2.1 11-3.3 2-5.6 3.9-17 4-23 .3-15.4 0-25.6-.9-41-.5-9.9-4.1-18.6-18.6-21.2-4.5-.8-4.9-4.5-2-8.2 6-7.7 14.4-8.9 23.4-9.4 14.7-.8 29.5-.1 44.2 0 6 .1 12 .5 17.9 1.8 7.7 1.7 11.8 7.1 13.1 14.6.7 3.9 1 7.9.9 11.8-.4 16.9-1.2 33.7-1.4 50.6-.1 6.6.4 13.4 1.8 19.8 2 9 8.1 11.2 14.3 4.7 7.9-8.2 14.9-17.5 21.5-26.9 11.9-17.1 20.8-35.9 28.5-55.3 4-10 7-12.2 17.8-12.2 20.2 0 40.4-.1 60.7 0 3.6 0 7.3.4 10.7 1.4 5.5 1.8 7.7 6.2 6.4 11.9-3 13.3-10.2 24.6-17.9 35.5-12.4 17.5-25.3 34.5-38 51.8-1.6 2.2-3 4.5-4.4 6.9-4.7 8.6-4.4 13.4 2.5 20.5 11 11.3 22.8 22 33.4 33.6 7.7 8.5 14.9 17.7 21 27.4 7.8 12.2 3 23.8-11.5 25.8-9.1 1.3-53.6 0-55.9 0-12-.1-22.5-4.2-30.9-12.3-9.4-9.1-17.9-19-27-28.4-2.7-2.8-5.6-5.6-8.8-8-7.4-5.6-14.6-4.4-18.1 4.3-2.9 7.4-5.5 27-5.6 28.7-.6 8.7-6.2 14.3-16 14.8-28.2 1.5-55.6-1.6-81.1-15.3-21.6-11.6-38.9-27.9-53.8-47-23.7-30.3-42.5-63.6-59.6-97.9-.9-1.8-18.2-38.7-18.7-40.4-1.5-5.8-.1-11.4 4.8-13.3 3.1-1.2 60.2 0 61.2 0 9.3.8 15.5 4.6 19.4 14.1z"/></svg>