<?xml version="1.0" encoding="utf-8"?>
<!-- Generator: Adobe Illustrator 21.1.0, SVG Export Plug-In . SVG Version: 6.00 Build 0)  -->
<svg version="1.1" id="Слой_1" xmlns="http://www.w3.org/2000/svg" xmlns:xlink="http://www.w3.org/1999/xlink" x="0px" y="0px"
	 viewBox="0 0 194.6 138" style="enable-background:new 0 0 194.6 138;" xml:space="preserve">
<style type="text/css">
	.st0{fill:url(#path0_fill_3_);}
	.st1{fill:url(#path1_fill_3_);}
	.st2{fill:url(#path2_fill_2_);}
	.st3{fill:url(#path3_fill_2_);}
	.st4{fill:url(#path4_fill_2_);}
	.st5{fill:url(#path1_fill_4_);}
	.st6{fill:url(#path0_fill_4_);}
</style>
<g>
	
		<linearGradient id="path0_fill_3_" gradientUnits="userSpaceOnUse" x1="-93.908" y1="272.0948" x2="-92.908" y2="272.0948" gradientTransform="matrix(171.737 38.5021 -172.069 38.4278 62930.8984 -6735.5864)">
		<stop  offset="0" style="stop-color:#E35C67"/>
		<stop  offset="1" style="stop-color:#381CE2"/>
	</linearGradient>
	<path id="path0_fill_2_" class="st0" d="M16.1,126.1l2-9.4c-1.8,1-3.8,1.5-6.1,1.5c-2,0-3.6-0.5-4.7-1.6c-1.1-1.1-1.7-2.6-1.7-4.5
		c0-0.6,0.1-1.3,0.2-2.2l1.8-9.5h6.9l-1.7,8.6c-0.1,0.5-0.2,1-0.2,1.4c0,0.7,0.2,1.2,0.7,1.6c0.4,0.4,1,0.5,1.7,0.5
		c0.6,0,1.3-0.1,2-0.3c0.7-0.2,1.4-0.5,2-0.9l2.3-10.9h6.9l-5.4,25.7H16.1z"/>
	
		<linearGradient id="path1_fill_3_" gradientUnits="userSpaceOnUse" x1="-93.908" y1="272.0413" x2="-92.908" y2="272.0413" gradientTransform="matrix(171.737 38.5021 -172.069 38.4278 62930.8984 -6735.5864)">
		<stop  offset="0" style="stop-color:#E35C67"/>
		<stop  offset="1" style="stop-color:#381CE2"/>
	</linearGradient>
	<path id="path1_fill_2_" class="st1" d="M46.8,121.3h-7.9l-2.2,4.8h-7.1l13.1-25.7h8.8l2.2,25.7H47L46.8,121.3z M41.5,115.8h5.2
		l-0.3-7.5v-1.5c0-0.9,0-1.6,0.1-2.3c-0.3,1-0.6,2-1.1,2.9L41.5,115.8z"/>
	
		<linearGradient id="path2_fill_2_" gradientUnits="userSpaceOnUse" x1="-93.908" y1="271.9456" x2="-92.908" y2="271.9456" gradientTransform="matrix(171.737 38.5021 -172.069 38.4278 62930.8984 -6735.5864)">
		<stop  offset="0" style="stop-color:#E35C67"/>
		<stop  offset="1" style="stop-color:#381CE2"/>
	</linearGradient>
	<path id="path2_fill_1_" class="st2" d="M75.2,105.7c-1.3,0-2.4,0.5-3.4,1.4s-1.8,2.2-2.4,3.8c-0.6,1.6-0.9,3.3-0.9,5.2
		c0,1.6,0.3,2.7,1,3.5s1.6,1.2,2.8,1.2c1,0,2-0.1,3-0.4c1-0.2,2.2-0.7,3.5-1.2v5.7c-2.4,1.1-5,1.6-7.7,1.6c-3,0-5.4-0.9-7-2.6
		c-1.6-1.7-2.5-4.2-2.5-7.4c0-3.1,0.6-6,1.8-8.6s2.8-4.6,4.9-5.9c2.1-1.3,4.4-2,7-2c3.1,0,5.9,0.8,8.5,2.3l-2.6,5.4
		c-1.1-0.6-2.1-1.1-3-1.4C77.1,105.9,76.1,105.7,75.2,105.7z"/>
	
		<linearGradient id="path3_fill_2_" gradientUnits="userSpaceOnUse" x1="-93.908" y1="271.8694" x2="-92.908" y2="271.8694" gradientTransform="matrix(171.737 38.5021 -172.069 38.4278 62930.8984 -6735.5864)">
		<stop  offset="0" style="stop-color:#E35C67"/>
		<stop  offset="1" style="stop-color:#381CE2"/>
	</linearGradient>
	<path id="path3_fill_1_" class="st3" d="M101.7,100c3,0,5.4,0.9,7.1,2.6s2.5,4.2,2.5,7.3s-0.6,6-1.8,8.6c-1.2,2.6-2.8,4.6-4.8,5.9
		c-2.1,1.4-4.4,2.1-7.1,2.1c-3.2,0-5.6-0.9-7.3-2.6c-1.7-1.7-2.6-4.2-2.6-7.3c0-3.1,0.6-6,1.8-8.6c1.2-2.6,2.8-4.6,4.9-5.9
		C96.6,100.7,99,100,101.7,100z M104.4,109.9c0-1.3-0.3-2.4-0.8-3.1c-0.6-0.8-1.4-1.1-2.4-1.1c-1.2,0-2.2,0.5-3.2,1.5
		s-1.8,2.3-2.3,4.1c-0.6,1.7-0.9,3.5-0.9,5.3c0,2.8,1.2,4.3,3.5,4.3c1.1,0,2.1-0.5,3.1-1.5s1.7-2.3,2.2-3.9
		C104.2,113.7,104.4,111.9,104.4,109.9z"/>
	
		<linearGradient id="path4_fill_2_" gradientUnits="userSpaceOnUse" x1="-93.908" y1="271.7959" x2="-92.908" y2="271.7959" gradientTransform="matrix(171.737 38.5021 -172.069 38.4278 62930.8984 -6735.5864)">
		<stop  offset="0" style="stop-color:#E35C67"/>
		<stop  offset="1" style="stop-color:#381CE2"/>
	</linearGradient>
	<path id="path4_fill_1_" class="st4" d="M122.1,100.4h8.6c2.5,0,4.5,0.5,5.8,1.5s2,2.3,2,4.1c0,3.4-1.7,5.6-5.2,6.6v0.1
		c1,0.3,1.9,0.9,2.5,1.8c0.6,0.8,0.9,1.9,0.9,3.1c0,2.7-0.9,4.8-2.7,6.2c-1.8,1.5-4.3,2.2-7.6,2.2h-9.6L122.1,100.4z M126.9,110.2
		h1.3c1,0,1.8-0.2,2.3-0.7c0.5-0.4,0.8-1.2,0.8-2.1c0-1.2-0.7-1.8-2.2-1.8H128L126.9,110.2z M125.9,115.3l-1.2,5.4h1.4
		c1,0,1.8-0.3,2.5-0.8c0.7-0.6,1-1.3,1-2.1c0-0.8-0.2-1.4-0.6-1.8s-1.1-0.6-2-0.6h-1.1V115.3z"/>
</g>
<g>
	
		<linearGradient id="path1_fill_4_" gradientUnits="userSpaceOnUse" x1="-96.6753" y1="269.2339" x2="-95.6862" y2="269.2339" gradientTransform="matrix(214.418 134.145 -214.833 133.886 78580.8984 -23096.6113)">
		<stop  offset="0" style="stop-color:#E35C67"/>
		<stop  offset="1" style="stop-color:#381CE2"/>
	</linearGradient>
	<path id="path1_fill_1_" class="st5" d="M51.3,63.7c-1,3.9-1.3,7.1-1.1,9.7c0.3,2.6,1.2,4.7,2.9,6.3c1.6,1.5,3.9,2.6,7,3.3
		c3.1,0.7,7,1,11.7,1h60.4c4.7,0,8.7-0.3,12-1c3.4-0.7,6.3-1.8,8.7-3.3c2.4-1.6,4.3-3.7,5.8-6.3c1.5-2.6,2.8-5.8,3.7-9.7l9.4-39.4
		c1-3.9,1.3-7.1,1-9.7c-0.2-2.6-1.1-4.6-2.7-6.1c-1.6-1.6-3.9-2.8-7-3.4c-3-0.7-6.9-1-11.6-1H91.1c-4.7,0-8.7,0.3-12.1,1
		c-3.3,0.7-6.2,1.8-8.6,3.4c-2.4,1.5-4.3,3.6-5.8,6.1c-1.5,2.6-2.8,5.8-3.7,9.7L51.3,63.7z M136.3,66.3c-0.5,1.9-1,3.1-1.7,3.7
		c-0.7,0.6-1.9,0.9-3.6,0.9H79c-1.7,0-2.8-0.3-3.1-0.9c-0.4-0.6-0.3-1.8,0.1-3.7l10.8-44.4c0.5-1.9,1-3.1,1.7-3.7
		c0.7-0.6,1.8-0.9,3.4-0.9h52.2c1.6,0,2.6,0.3,3,0.9c0.5,0.6,0.5,1.8,0,3.7L136.3,66.3z"/>
	
		<linearGradient id="path0_fill_4_" gradientUnits="userSpaceOnUse" x1="-96.6753" y1="269.4343" x2="-95.6862" y2="269.4343" gradientTransform="matrix(214.418 134.145 -214.833 133.886 78580.8984 -23096.6113)">
		<stop  offset="0" style="stop-color:#E35C67"/>
		<stop  offset="1" style="stop-color:#381CE2"/>
	</linearGradient>
	<path id="path0_fill_1_" class="st6" d="M35.2,4.4L11.1,13c-0.7,0.2-1.2,0.6-1.7,1.1c-0.5,0.5-0.8,1-1,1.4l-1.6,6.6
		c-0.2,0.8,0,1.4,0.4,2C7.8,24.7,8.6,25,9.6,25h8.5L4.6,81.3c-0.2,0.8,0,1.4,0.4,2c0.6,0.6,1.4,0.9,2.4,0.9h18.4
		c1,0,1.9-0.3,2.7-0.9c0.9-0.6,1.4-1.2,1.6-2L47.8,7.3c0.2-0.8,0-1.4-0.7-2c-0.6-0.6-1.4-0.9-2.4-0.9C44.7,4.4,35.2,4.4,35.2,4.4z"
		/>
</g>
</svg>
