<?xml version="1.0" encoding="utf-8"?>
<!-- Generator: Adobe Illustrator 21.1.0, SVG Export Plug-In . SVG Version: 6.00 Build 0)  -->
<svg version="1.1" id="Слой_1" xmlns="http://www.w3.org/2000/svg" xmlns:xlink="http://www.w3.org/1999/xlink" x="0px" y="0px"
	 viewBox="0 0 323 89" style="enable-background:new 0 0 323 89;" xml:space="preserve">
<style type="text/css">
	.st0{fill:url(#path0_fill_3_);}
	.st1{fill:url(#path1_fill_3_);}
	.st2{fill:url(#path2_fill_2_);}
	.st3{fill:url(#path3_fill_2_);}
	.st4{fill:url(#path4_fill_2_);}
	.st5{fill:url(#path1_fill_4_);}
	.st6{fill:url(#path0_fill_4_);}
</style>
<linearGradient id="path0_fill_3_" gradientUnits="userSpaceOnUse" x1="76.2856" y1="56.7339" x2="77.2856" y2="56.7339" gradientTransform="matrix(171.737 38.5021 172.069 -38.4278 -22700.4297 -720.9525)">
	<stop  offset="0" style="stop-color:#E35C67"/>
	<stop  offset="1" style="stop-color:#381CE2"/>
</linearGradient>
<path id="path0_fill_2_" class="st0" d="M194.5,57.4l2-9.4c-1.8,1-3.8,1.5-6.1,1.5c-2,0-3.6-0.5-4.7-1.6c-1.1-1.1-1.7-2.6-1.7-4.5
	c0-0.6,0.1-1.3,0.2-2.2l1.8-9.5h6.9l-1.7,8.6c-0.1,0.5-0.2,1-0.2,1.4c0,0.7,0.2,1.2,0.7,1.6c0.4,0.4,1,0.5,1.7,0.5
	c0.6,0,1.3-0.1,2-0.3c0.7-0.2,1.4-0.5,2-0.9l2.3-10.9h6.9l-5.4,25.7H194.5z"/>
<linearGradient id="path1_fill_3_" gradientUnits="userSpaceOnUse" x1="76.2856" y1="56.7874" x2="77.2856" y2="56.7874" gradientTransform="matrix(171.737 38.5021 172.069 -38.4278 -22700.4297 -720.9525)">
	<stop  offset="0" style="stop-color:#E35C67"/>
	<stop  offset="1" style="stop-color:#381CE2"/>
</linearGradient>
<path id="path1_fill_2_" class="st1" d="M225.2,52.6h-7.9l-2.2,4.8H208l13.1-25.7h8.8l2.2,25.7h-6.7L225.2,52.6z M219.9,47.1h5.2
	l-0.3-7.5l0-1.5c0-0.9,0-1.6,0.1-2.3c-0.3,1-0.6,2-1.1,2.9L219.9,47.1z"/>
<linearGradient id="path2_fill_2_" gradientUnits="userSpaceOnUse" x1="76.2856" y1="56.883" x2="77.2856" y2="56.883" gradientTransform="matrix(171.737 38.5021 172.069 -38.4278 -22700.4297 -720.9525)">
	<stop  offset="0" style="stop-color:#E35C67"/>
	<stop  offset="1" style="stop-color:#381CE2"/>
</linearGradient>
<path id="path2_fill_1_" class="st2" d="M253.6,37c-1.3,0-2.4,0.5-3.4,1.4c-1,0.9-1.8,2.2-2.4,3.8c-0.6,1.6-0.9,3.3-0.9,5.2
	c0,1.6,0.3,2.7,1,3.5c0.7,0.8,1.6,1.2,2.8,1.2c1,0,2-0.1,3-0.4c1-0.2,2.2-0.7,3.5-1.2v5.7c-2.4,1.1-5,1.6-7.7,1.6
	c-3,0-5.4-0.9-7-2.6c-1.6-1.7-2.5-4.2-2.5-7.4c0-3.1,0.6-6,1.8-8.6c1.2-2.6,2.8-4.6,4.9-5.9c2.1-1.3,4.4-2,7-2
	c3.1,0,5.9,0.8,8.5,2.3l-2.6,5.4c-1.1-0.6-2.1-1.1-3-1.4C255.5,37.2,254.5,37,253.6,37z"/>
<linearGradient id="path3_fill_2_" gradientUnits="userSpaceOnUse" x1="76.2856" y1="56.9597" x2="77.2856" y2="56.9597" gradientTransform="matrix(171.737 38.5021 172.069 -38.4278 -22700.4297 -720.9525)">
	<stop  offset="0" style="stop-color:#E35C67"/>
	<stop  offset="1" style="stop-color:#381CE2"/>
</linearGradient>
<path id="path3_fill_1_" class="st3" d="M280.1,31.3c3,0,5.4,0.9,7.1,2.6c1.7,1.7,2.5,4.2,2.5,7.3c0,3.1-0.6,6-1.8,8.6
	c-1.2,2.6-2.8,4.6-4.8,5.9c-2.1,1.4-4.4,2.1-7.1,2.1c-3.2,0-5.6-0.9-7.3-2.6c-1.7-1.7-2.6-4.2-2.6-7.3s0.6-6,1.8-8.6
	c1.2-2.6,2.8-4.6,4.9-5.9C275,32,277.4,31.3,280.1,31.3z M282.8,41.2c0-1.3-0.3-2.4-0.8-3.1c-0.6-0.8-1.4-1.1-2.4-1.1
	c-1.2,0-2.2,0.5-3.2,1.5c-1,1-1.8,2.3-2.3,4.1c-0.6,1.7-0.9,3.5-0.9,5.3c0,2.8,1.2,4.3,3.5,4.3c1.1,0,2.1-0.5,3.1-1.5
	c1-1,1.7-2.3,2.2-3.9C282.6,45,282.8,43.2,282.8,41.2z"/>
<linearGradient id="path4_fill_2_" gradientUnits="userSpaceOnUse" x1="76.2856" y1="57.0318" x2="77.2856" y2="57.0318" gradientTransform="matrix(171.737 38.5021 172.069 -38.4278 -22700.4297 -720.9525)">
	<stop  offset="0" style="stop-color:#E35C67"/>
	<stop  offset="1" style="stop-color:#381CE2"/>
</linearGradient>
<path id="path4_fill_1_" class="st4" d="M300.5,31.7h8.6c2.5,0,4.5,0.5,5.8,1.5c1.3,1,2,2.3,2,4.1c0,3.4-1.7,5.6-5.2,6.6v0.1
	c1,0.3,1.9,0.9,2.5,1.8c0.6,0.8,0.9,1.9,0.9,3.1c0,2.7-0.9,4.8-2.7,6.2c-1.8,1.5-4.3,2.2-7.6,2.2h-9.6L300.5,31.7z M305.3,41.5h1.3
	c1,0,1.8-0.2,2.3-0.7c0.5-0.4,0.8-1.2,0.8-2.1c0-1.2-0.7-1.8-2.2-1.8h-1.1L305.3,41.5z M304.3,46.6l-1.2,5.4h1.4
	c1,0,1.8-0.3,2.5-0.8c0.7-0.6,1-1.3,1-2.1c0-0.8-0.2-1.4-0.6-1.8c-0.4-0.4-1.1-0.6-2-0.6H304.3z"/>
<linearGradient id="path1_fill_4_" gradientUnits="userSpaceOnUse" x1="75.7235" y1="56.5522" x2="76.7138" y2="56.5522" gradientTransform="matrix(214.418 134.145 214.833 -133.886 -28375.2598 -2604.3765)">
	<stop  offset="0" style="stop-color:#E35C67"/>
	<stop  offset="1" style="stop-color:#381CE2"/>
</linearGradient>
<path id="path1_fill_1_" class="st5" d="M50.3,64.2c-1,3.9-1.3,7.1-1.1,9.7c0.3,2.6,1.2,4.7,2.9,6.3c1.6,1.5,3.9,2.6,7,3.3
	c3.1,0.7,7,1,11.7,1h60.5c4.7,0,8.7-0.3,12-1c3.4-0.7,6.3-1.8,8.7-3.3c2.4-1.6,4.3-3.7,5.8-6.3c1.5-2.6,2.8-5.8,3.7-9.7l9.4-39.4
	c1-3.9,1.3-7.1,1-9.7c-0.2-2.6-1.1-4.6-2.7-6.1c-1.6-1.6-3.9-2.8-7-3.4c-3-0.7-6.9-1-11.6-1H90.1c-4.7,0-8.7,0.3-12.1,1
	c-3.3,0.7-6.2,1.8-8.6,3.4c-2.4,1.5-4.3,3.6-5.8,6.1c-1.5,2.6-2.8,5.8-3.7,9.7L50.3,64.2z M135.4,66.8c-0.5,1.9-1,3.1-1.7,3.7
	c-0.7,0.6-1.9,0.9-3.6,0.9H78c-1.7,0-2.8-0.3-3.1-0.9c-0.4-0.6-0.3-1.8,0.1-3.7l10.8-44.5c0.5-1.9,1-3.1,1.7-3.7
	c0.7-0.6,1.8-0.9,3.4-0.9h52.3c1.6,0,2.6,0.3,3,0.9c0.5,0.6,0.5,1.8,0,3.7L135.4,66.8z"/>
<linearGradient id="path0_fill_4_" gradientUnits="userSpaceOnUse" x1="75.7235" y1="56.3521" x2="76.7138" y2="56.3521" gradientTransform="matrix(214.418 134.145 214.833 -133.886 -28375.2598 -2604.3765)">
	<stop  offset="0" style="stop-color:#E35C67"/>
	<stop  offset="1" style="stop-color:#381CE2"/>
</linearGradient>
<path id="path0_fill_1_" class="st6" d="M34.1,4.9L10,13.5c-0.7,0.2-1.2,0.6-1.7,1.1c-0.5,0.5-0.8,1-1,1.4l-1.6,6.6
	c-0.2,0.8,0,1.4,0.4,2c0.6,0.6,1.4,0.9,2.4,0.9H17L3.5,81.8c-0.2,0.8,0,1.4,0.4,2c0.6,0.6,1.4,0.9,2.4,0.9h18.4c1,0,1.9-0.3,2.7-0.9
	c0.9-0.6,1.4-1.2,1.6-2l17.8-74c0.2-0.8,0-1.4-0.7-2c-0.6-0.6-1.4-0.9-2.4-0.9H34.1z"/>
</svg>
