<?xml version="1.0" encoding="utf-8"?>
<!-- Generator: Adobe Illustrator 21.1.0, SVG Export Plug-In . SVG Version: 6.00 Build 0)  -->
<svg version="1.1" id="Слой_1" xmlns="http://www.w3.org/2000/svg" xmlns:xlink="http://www.w3.org/1999/xlink" x="0px" y="0px"
	 viewBox="0 0 164 138" style="enable-background:new 0 0 164 138;" xml:space="preserve">
<style type="text/css">
	.st0{fill:url(#path2_fill_2_);}
	.st1{fill:url(#path1_fill_3_);}
	.st2{fill:url(#path0_fill_3_);}
	.st3{fill:url(#path1_fill_4_);}
	.st4{fill:url(#path0_fill_4_);}
</style>
<linearGradient id="path2_fill_2_" gradientUnits="userSpaceOnUse" x1="-56.2166" y1="248.0366" x2="-55.2166" y2="248.0366" gradientTransform="matrix(235.694 38.5021 -236.15 38.4278 71826.2188 -7263.4385)">
	<stop  offset="0" style="stop-color:#E35C67"/>
	<stop  offset="1" style="stop-color:#381CE2"/>
</linearGradient>
<path id="path2_fill_1_" class="st0" d="M72.3,128.2h-6.9l4.2-20H64l1.2-5.7h18.1l-1.2,5.7h-5.6L72.3,128.2z"/>
<linearGradient id="path1_fill_3_" gradientUnits="userSpaceOnUse" x1="-56.2166" y1="248.0918" x2="-55.2166" y2="248.0918" gradientTransform="matrix(235.694 38.5021 -236.15 38.4278 71826.2188 -7263.4385)">
	<stop  offset="0" style="stop-color:#E35C67"/>
	<stop  offset="1" style="stop-color:#381CE2"/>
</linearGradient>
<path id="path1_fill_2_" class="st1" d="M53.3,128.2H38l5.4-25.7h15.3l-1.1,5.6h-8.4l-0.8,4h7.8l-1.3,5.6h-7.8l-1,4.9h8.4
	L53.3,128.2z"/>
<linearGradient id="path0_fill_3_" gradientUnits="userSpaceOnUse" x1="-56.2166" y1="248.1508" x2="-55.2166" y2="248.1508" gradientTransform="matrix(235.694 38.5021 -236.15 38.4278 71826.2188 -7263.4385)">
	<stop  offset="0" style="stop-color:#E35C67"/>
	<stop  offset="1" style="stop-color:#381CE2"/>
</linearGradient>
<path id="path0_fill_2_" class="st2" d="M21.8,128.2L26,108h-3.5c-1.9,7-3.2,11.2-3.8,12.7c-0.8,2.1-1.7,3.7-2.5,4.8
	s-1.7,1.9-2.8,2.4c-1,0.5-2.4,0.7-4,0.7c-0.9,0-1.9-0.2-2.7-0.5v-5.4c0.5,0.2,0.9,0.3,1.1,0.3c0.2,0,0.4,0,0.7,0
	c0.6,0,1.1-0.1,1.5-0.4c0.4-0.3,0.7-0.7,1.1-1.2c0.4-0.6,0.8-1.4,1.2-2.4c1.2-3,2.8-8.5,4.9-16.6h16.9l-5.4,25.7L21.8,128.2
	L21.8,128.2z"/>
<linearGradient id="path1_fill_4_" gradientUnits="userSpaceOnUse" x1="-59.1783" y1="244.94" x2="-58.1863" y2="244.94" gradientTransform="matrix(214.418 134.145 -214.833 133.886 65318.0586 -24871.3359)">
	<stop  offset="0" style="stop-color:#E35C67"/>
	<stop  offset="1" style="stop-color:#381CE2"/>
</linearGradient>
<path id="path1_fill_1_" class="st3" d="M128.4,35.5H84.5c-4.7,0-8.7,0.3-12.1,1c-3.3,0.7-6.2,1.8-8.6,3.4c-2.4,1.5-4.3,3.6-5.9,6.1
	c-1.4,2.6-2.6,5.8-3.6,9.7L50.7,70c-0.6,2.3-0.7,4.3-0.3,6.1s1.3,3.3,2.9,4.6c1.6,1.1,3.9,2,6.7,2.7c2.9,0.6,6.5,0.9,11,0.9h67.9
	c1,0,2-0.3,2.7-0.9c0.9-0.6,1.4-1.2,1.6-2l1.6-6.6c0.2-0.8,0-1.4-0.6-2c-0.5-0.6-1.2-0.9-2.3-0.9H75.2c-1.7,0-2.8-0.3-3.1-0.9
	c-0.4-0.6-0.3-1.8,0.1-3.7l2.4-10c0.5-1.9,1-3.1,1.7-3.7c0.7-0.6,1.8-0.9,3.4-0.9h45.4c4.7,0,8.7-0.3,12-1c3.4-0.7,6.3-1.8,8.7-3.3
	c2.4-1.6,4.3-3.7,5.7-6.3c1.5-2.6,2.8-5.8,3.7-9.7l2-7.9c1-3.9,1.3-7.1,1-9.7c-0.2-2.6-1.1-4.6-2.7-6.1c-1.6-1.6-4-2.8-7.1-3.4
	c-3-0.7-6.9-1-11.6-1H70.1c-1,0-2,0.3-2.9,0.9c-0.8,0.6-1.2,1.2-1.4,2l-1.7,6.4c-0.2,0.8,0,1.4,0.6,2s1.3,0.9,2.3,0.9l66.1,0.1
	c1.7,0,2.8,0.3,3.1,0.9c0.4,0.6,0.3,1.8-0.1,3.7l-2.3,9.6c-0.5,1.9-1.1,3.1-1.9,3.7C131.3,35.2,130.1,35.5,128.4,35.5z"/>
<linearGradient id="path0_fill_4_" gradientUnits="userSpaceOnUse" x1="-59.1783" y1="245.1215" x2="-58.1863" y2="245.1215" gradientTransform="matrix(214.418 134.145 -214.833 133.886 65318.0586 -24871.3359)">
	<stop  offset="0" style="stop-color:#E35C67"/>
	<stop  offset="1" style="stop-color:#381CE2"/>
</linearGradient>
<path id="path0_fill_1_" class="st4" d="M35.7,4.6l-24.1,8.6c-0.7,0.2-1.2,0.6-1.7,1.1s-0.8,1-1,1.4l-1.6,6.6c-0.2,0.8,0,1.4,0.4,2
	c0.6,0.6,1.4,0.9,2.4,0.9h8.4L5,81.6c-0.2,0.8,0,1.4,0.4,2c0.6,0.6,1.4,0.9,2.4,0.9h18.4c1,0,1.9-0.3,2.7-0.9c0.9-0.6,1.4-1.2,1.6-2
	L48.4,7.5c0.2-0.8,0-1.4-0.7-2c-0.6-0.6-1.4-0.9-2.4-0.9H35.7z"/>
</svg>
