<?xml version="1.0" encoding="utf-8"?>
<!-- Generator: Adobe Illustrator 21.1.0, SVG Export Plug-In . SVG Version: 6.00 Build 0)  -->
<svg version="1.1" id="Слой_1" xmlns="http://www.w3.org/2000/svg" xmlns:xlink="http://www.w3.org/1999/xlink" x="0px" y="0px"
	 viewBox="0 0 251 89" style="enable-background:new 0 0 251 89;" xml:space="preserve">
<style type="text/css">
	.st0{fill:url(#path2_fill_2_);}
	.st1{fill:url(#path1_fill_3_);}
	.st2{fill:url(#path0_fill_3_);}
	.st3{fill:url(#path1_fill_4_);}
	.st4{fill:url(#path0_fill_4_);}
</style>
<linearGradient id="path2_fill_2_" gradientUnits="userSpaceOnUse" x1="70.1877" y1="56.6995" x2="71.1877" y2="56.6995" gradientTransform="matrix(235.694 38.5021 236.15 -38.4278 -29765.1465 -490.9443)">
	<stop  offset="0" style="stop-color:#E35C67"/>
	<stop  offset="1" style="stop-color:#381CE2"/>
</linearGradient>
<path id="path2_fill_1_" class="st0" d="M237,57.2h-6.9l4.2-20h-5.6l1.2-5.7H248l-1.2,5.7h-5.6L237,57.2z"/>
<linearGradient id="path1_fill_3_" gradientUnits="userSpaceOnUse" x1="70.1877" y1="56.6443" x2="71.1877" y2="56.6443" gradientTransform="matrix(235.694 38.5021 236.15 -38.4278 -29765.1465 -490.9443)">
	<stop  offset="0" style="stop-color:#E35C67"/>
	<stop  offset="1" style="stop-color:#381CE2"/>
</linearGradient>
<path id="path1_fill_2_" class="st1" d="M218,57.2h-15.3l5.4-25.7h15.3l-1.1,5.6h-8.4l-0.8,4h7.8l-1.3,5.6h-7.8l-1,4.9h8.4L218,57.2
	z"/>
<linearGradient id="path0_fill_3_" gradientUnits="userSpaceOnUse" x1="70.1877" y1="56.5847" x2="71.1877" y2="56.5847" gradientTransform="matrix(235.694 38.5021 236.15 -38.4278 -29765.1465 -490.9443)">
	<stop  offset="0" style="stop-color:#E35C67"/>
	<stop  offset="1" style="stop-color:#381CE2"/>
</linearGradient>
<path id="path0_fill_2_" class="st2" d="M186.5,57.2l4.2-20.2h-3.5c-1.9,7-3.2,11.2-3.8,12.7c-0.8,2.1-1.7,3.7-2.5,4.8
	c-0.8,1.1-1.7,1.9-2.8,2.4c-1,0.5-2.4,0.7-4,0.7c-0.9,0-1.9-0.2-2.7-0.5v-5.4c0.5,0.2,0.9,0.3,1.1,0.3c0.2,0,0.4,0,0.7,0
	c0.6,0,1.1-0.1,1.5-0.4c0.4-0.3,0.7-0.7,1.1-1.2c0.4-0.6,0.8-1.4,1.2-2.4c1.2-3,2.8-8.5,4.9-16.6h16.9l-5.4,25.7H186.5z"/>
<linearGradient id="path1_fill_4_" gradientUnits="userSpaceOnUse" x1="69.7312" y1="56.5429" x2="70.7232" y2="56.5429" gradientTransform="matrix(214.418 134.145 214.833 -133.886 -27091.0117 -1799.5002)">
	<stop  offset="0" style="stop-color:#E35C67"/>
	<stop  offset="1" style="stop-color:#381CE2"/>
</linearGradient>
<path id="path1_fill_1_" class="st3" d="M128.4,35.5H84.5c-4.7,0-8.7,0.3-12.1,1c-3.3,0.7-6.2,1.8-8.6,3.4c-2.4,1.5-4.3,3.6-5.9,6.1
	c-1.4,2.6-2.6,5.8-3.6,9.7l-3.6,14.3c-0.6,2.3-0.7,4.3-0.3,6.1s1.3,3.3,2.9,4.6c1.6,1.1,3.9,2,6.7,2.7c2.9,0.6,6.5,0.9,11,0.9h67.9
	c1,0,2-0.3,2.7-0.9c0.9-0.6,1.4-1.2,1.6-2l1.6-6.6c0.2-0.8,0-1.4-0.6-2c-0.5-0.6-1.2-0.9-2.3-0.9H75.2c-1.7,0-2.8-0.3-3.1-0.9
	c-0.4-0.6-0.3-1.8,0.1-3.7l2.4-10c0.5-1.9,1-3.1,1.7-3.7c0.7-0.6,1.8-0.9,3.4-0.9h45.4c4.7,0,8.7-0.3,12-1c3.4-0.7,6.3-1.8,8.7-3.3
	c2.4-1.6,4.3-3.7,5.7-6.3c1.5-2.6,2.8-5.8,3.7-9.7l2-7.9c1-3.9,1.3-7.1,1-9.7c-0.2-2.6-1.1-4.6-2.7-6.1c-1.6-1.6-4-2.8-7.1-3.4
	c-3-0.7-6.9-1-11.6-1H70.1c-1,0-2,0.3-2.9,0.9c-0.8,0.6-1.2,1.2-1.4,2l-1.7,6.4c-0.2,0.8,0,1.4,0.6,2c0.6,0.6,1.3,0.9,2.3,0.9
	l66.1,0.1c1.7,0,2.8,0.3,3.1,0.9c0.4,0.6,0.3,1.8-0.1,3.7l-2.3,9.6c-0.5,1.9-1.1,3.1-1.9,3.7C131.3,35.2,130.1,35.5,128.4,35.5z"/>
<linearGradient id="path0_fill_4_" gradientUnits="userSpaceOnUse" x1="69.7312" y1="56.3618" x2="70.7232" y2="56.3618" gradientTransform="matrix(214.418 134.145 214.833 -133.886 -27091.0117 -1799.5002)">
	<stop  offset="0" style="stop-color:#E35C67"/>
	<stop  offset="1" style="stop-color:#381CE2"/>
</linearGradient>
<path id="path0_fill_1_" class="st4" d="M35.7,4.6l-24.1,8.6c-0.7,0.2-1.2,0.6-1.7,1.1c-0.5,0.5-0.8,1-1,1.4l-1.6,6.6
	c-0.2,0.8,0,1.4,0.4,2c0.6,0.6,1.4,0.9,2.4,0.9h8.4L5,81.6c-0.2,0.8,0,1.4,0.4,2c0.6,0.6,1.4,0.9,2.4,0.9h18.4c1,0,1.9-0.3,2.7-0.9
	c0.9-0.6,1.4-1.2,1.6-2L48.4,7.5c0.2-0.8,0-1.4-0.7-2c-0.6-0.6-1.4-0.9-2.4-0.9H35.7z"/>
</svg>
