<?xml version="1.0" encoding="utf-8"?>
<!-- Generator: Adobe Illustrator 21.1.0, SVG Export Plug-In . SVG Version: 6.00 Build 0)  -->
<svg version="1.1" id="Слой_1" xmlns="http://www.w3.org/2000/svg" xmlns:xlink="http://www.w3.org/1999/xlink" x="0px" y="0px"
	 viewBox="0 0 125 89" style="enable-background:new 0 0 125 89;" xml:space="preserve">
<style type="text/css">
	.st0{fill:url(#path0_fill_2_);}
</style>
<linearGradient id="path0_fill_2_" gradientUnits="userSpaceOnUse" x1="50.7414" y1="57.0227" x2="51.737" y2="57.0227" gradientTransform="matrix(164.852 134.145 165.171 -133.886 -17785.1113 815.6938)">
	<stop  offset="0" style="stop-color:#E35C67"/>
	<stop  offset="1" style="stop-color:#381CE2"/>
</linearGradient>
<path id="path0_fill_1_" class="st0" d="M28.6,31.5l5.7-23.5c0.2-0.8,0-1.5-0.4-2.3c-0.5-0.8-1.2-1.1-2.3-1.1H16.4
	c-1.1,0-2,0.4-2.9,1.1c-0.8,0.8-1.2,1.5-1.4,2.3L5.4,35.5C5,37,4.8,38.5,4.8,40.1c0.1,1.5,0.4,2.9,1,4.2c0.7,1.2,1.6,2.3,2.9,3.2
	c1.3,0.8,3.1,1.1,5.3,1.1h41.9l-8,33.1c-0.2,0.8,0,1.4,0.4,2c0.6,0.6,1.4,0.9,2.4,0.9h15.2c1.1,0,2-0.3,2.7-0.9
	c0.9-0.6,1.4-1.2,1.6-2l8-33.1h36.1c0.8,0,1.5-0.2,2.2-0.6c0.8-0.5,1.3-1,1.7-1.4l1.4-6.5c0.7-1.1,0.7-1.9,0.1-2.6
	c-0.5-0.8-1.3-1.1-2.6-1.1H81.1l7-28.5c0.2-0.8,0-1.5-0.6-2.2c-0.5-0.8-1.2-1.1-2.3-1.1H70c-1.1,0-2,0.4-2.9,1.1
	c-0.8,0.7-1.2,1.4-1.4,2.2l-7,28.5H31.5c-1.3,0-2.2-0.5-2.7-1.6C28.4,33.6,28.3,32.5,28.6,31.5z"/>
</svg>
