<?xml version="1.0" encoding="utf-8"?>
<!-- Generator: Adobe Illustrator 21.1.0, SVG Export Plug-In . SVG Version: 6.00 Build 0)  -->
<svg version="1.1" id="Слой_1" xmlns="http://www.w3.org/2000/svg" xmlns:xlink="http://www.w3.org/1999/xlink" x="0px" y="0px"
	 viewBox="0 0 330 89" style="enable-background:new 0 0 330 89;" xml:space="preserve">
<style type="text/css">
	.st0{fill:url(#path0_fill_2_);}
	.st1{fill:url(#SVGID_1_);}
</style>
<linearGradient id="path0_fill_2_" gradientUnits="userSpaceOnUse" x1="-140.8864" y1="244.1786" x2="-139.8908" y2="244.1786" gradientTransform="matrix(164.852 134.145 -165.171 133.886 63554.7969 -13805.0068)">
	<stop  offset="0" style="stop-color:#E35C67"/>
	<stop  offset="1" style="stop-color:#381CE2"/>
</linearGradient>
<path id="path0_fill_1_" class="st0" d="M28.6,31.5L34.3,8c0.2-0.8,0-1.5-0.4-2.3c-0.5-0.8-1.2-1.1-2.3-1.1H16.4
	c-1.1,0-2,0.4-2.9,1.1c-0.8,0.8-1.2,1.5-1.4,2.3L5.4,35.5c-0.4,1.5-0.6,3-0.6,4.6c0.1,1.5,0.4,2.9,1,4.2c0.7,1.2,1.6,2.3,2.9,3.2
	c1.3,0.8,3.1,1.1,5.3,1.1h41.9l-8,33.1c-0.2,0.8,0,1.4,0.4,2c0.6,0.6,1.4,0.9,2.4,0.9h15.2c1.1,0,2-0.3,2.7-0.9
	c0.9-0.6,1.4-1.2,1.6-2l8-33.1h36.1c0.8,0,1.5-0.2,2.2-0.6c0.8-0.5,1.3-1,1.7-1.4l1.4-6.5c0.7-1.1,0.7-1.9,0.1-2.6
	c-0.5-0.8-1.3-1.1-2.6-1.1h-36l7-28.5c0.2-0.8,0-1.5-0.6-2.2c-0.5-0.8-1.2-1.1-2.3-1.1H70c-1.1,0-2,0.4-2.9,1.1
	c-0.8,0.7-1.2,1.4-1.4,2.2l-7,28.5H31.5c-1.3,0-2.2-0.5-2.7-1.6C28.4,33.6,28.3,32.5,28.6,31.5z"/>
<linearGradient id="SVGID_1_" gradientUnits="userSpaceOnUse" x1="129.9717" y1="44.5" x2="679.7911" y2="44.5">
	<stop  offset="0" style="stop-color:#E35C67"/>
	<stop  offset="1" style="stop-color:#381CE2"/>
</linearGradient>
<path class="st1" d="M160.4,39.4c0,3-1,5.3-3,7c-2,1.7-4.8,2.5-8.2,2.5h-1.5l-1.8,8.5H139l5.4-25.7h6.6c3,0,5.4,0.7,7,2
	C159.6,35,160.4,36.9,160.4,39.4z M148.8,43.2h1.1c1.1,0,1.9-0.3,2.6-1c0.7-0.7,1-1.6,1-2.6c0-0.7-0.2-1.2-0.6-1.7
	c-0.4-0.4-1-0.6-1.7-0.6h-1L148.8,43.2z M180.3,57.4H165l5.4-25.7h15.3l-1.1,5.6h-8.4l-0.8,4h7.8l-1.3,5.6h-7.8l-1,4.9h8.4
	L180.3,57.4z M195.7,57.4h-6.9l5.4-25.7h15.2l-1.2,5.6H200L195.7,57.4z M216.9,31.7h6.3l-2.3,10.8c-0.3,1.5-0.8,3.6-1.6,6.3h0.1
	l11.7-17h8.6l-5.4,25.7H228l2.2-10.7c0.4-1.9,0.9-4.2,1.6-6.7h-0.1L220,57.4h-8.6L216.9,31.7z M258.8,31.3c3,0,5.4,0.9,7.1,2.6
	c1.7,1.7,2.5,4.2,2.5,7.3c0,3.1-0.6,6-1.8,8.6c-1.2,2.6-2.8,4.6-4.8,5.9c-2.1,1.4-4.4,2.1-7.1,2.1c-3.2,0-5.6-0.9-7.3-2.6
	c-1.7-1.7-2.6-4.2-2.6-7.3s0.6-6,1.8-8.6c1.2-2.6,2.8-4.6,4.9-5.9C253.7,32,256.1,31.3,258.8,31.3z M261.5,41.2
	c0-1.3-0.3-2.4-0.8-3.1c-0.6-0.8-1.4-1.1-2.4-1.1c-1.2,0-2.2,0.5-3.2,1.5c-1,1-1.8,2.3-2.3,4.1c-0.6,1.7-0.9,3.5-0.9,5.3
	c0,2.8,1.2,4.3,3.5,4.3c1.1,0,2.1-0.5,3.1-1.5c1-1,1.7-2.3,2.2-3.9C261.3,45,261.5,43.2,261.5,41.2z M293.7,57.4h-6.9l2.2-10.5h-6.1
	l-2.2,10.5h-6.9l5.4-25.7h6.9l-2,9.5h6.1l2-9.5h6.9L293.7,57.4z M317.6,52.6h-7.9l-2.2,4.8h-7.1l13.1-25.7h8.8l2.2,25.7h-6.7
	L317.6,52.6z M312.2,47.1h5.1l-0.3-7.5l0-1.5c0-0.9,0-1.6,0.1-2.3c-0.3,1-0.6,2-1.1,2.9L312.2,47.1z"/>
</svg>
