<?xml version="1.0" encoding="utf-8"?>
<!-- Generator: Adobe Illustrator 21.1.0, SVG Export Plug-In . SVG Version: 6.00 Build 0)  -->
<svg version="1.1" id="Слой_1" xmlns="http://www.w3.org/2000/svg" xmlns:xlink="http://www.w3.org/1999/xlink" x="0px" y="0px"
	 viewBox="0 0 125 89" style="enable-background:new 0 0 125 89;" xml:space="preserve">
<style type="text/css">
	.st0{fill:url(#path0_fill_2_);}
</style>
<linearGradient id="path0_fill_2_" gradientUnits="userSpaceOnUse" x1="50.2513" y1="56.985" x2="51.247" y2="56.985" gradientTransform="matrix(186.778 134.145 187.139 -133.886 -20057.5508 882.7663)">
	<stop  offset="0" style="stop-color:#E35C67"/>
	<stop  offset="1" style="stop-color:#381CE2"/>
</linearGradient>
<path id="path0_fill_1_" class="st0" d="M82.7,84.5c4.7,0,8.7-0.3,12.2-1c3.4-0.7,6.3-1.8,8.6-3.3c2.4-1.6,4.3-3.7,5.9-6.3
	c1.5-2.6,2.8-5.8,3.9-9.7l2.2-9.2c0.2-1-0.1-2.1-0.9-3.3s-1.7-2.4-2.9-3.4c-1.1-1.1-2.4-2.2-3.7-3c-1.3-1-2.5-1.6-3.4-1.9
	c0.9-0.5,2.1-1.1,3.7-1.7c1.7-0.7,3.4-1.5,5.2-2.4c1.8-1.1,3.4-2.2,4.9-3.6c1.5-1.4,2.5-3.1,3-4.9l1.4-5.9c1-3.9,1.3-7.2,1-9.7
	c-0.3-2.6-1.2-4.6-2.9-6.2c-1.6-1.6-4-2.8-7.2-3.4c-3.1-0.7-6.9-1-11.6-1H42.3c-4.7,0-8.7,0.3-12.2,1c-3.3,0.7-6.2,1.8-8.6,3.4
	c-2.4,1.5-4.3,3.6-5.9,6.2c-1.4,2.6-2.6,5.8-3.6,9.7l-1.4,5.9c-0.4,1.5-0.2,2.9,0.6,4.2c0.9,1.1,1.9,2.2,3.2,3.2
	c1.3,1,2.7,1.8,4.2,2.6c1.5,0.7,2.8,1.3,3.9,1.9c-1.2,0.6-2.8,1.3-4.7,2.2c-1.8,0.8-3.6,1.7-5.4,2.7c-1.8,1-3.4,2.1-4.9,3.3
	c-1.3,1.1-2.2,2.4-2.4,3.9l-2.4,9.6c-1,3.9-1.3,7.2-1.1,9.7c0.3,2.6,1.2,4.7,2.9,6.3c1.6,1.5,4,2.6,7,3.3c3.2,0.7,7.1,1,11.8,1H82.7
	z M87.3,49.4c1.6,0,2.6,0.3,3,0.9c0.4,0.6,0.3,1.8-0.1,3.7L87,66.7c-0.5,1.9-1.1,3.2-1.7,3.7c-0.6,0.6-1.7,0.9-3.4,0.9H30.2
	c-1.7,0-2.8-0.3-3.2-0.9c-0.4-0.6-0.3-1.8,0.1-3.7l3-12.8c0.5-1.9,1.1-3.2,1.7-3.7c0.8-0.6,2-0.9,3.7-0.9H87.3z M95.6,31.7
	c-0.5,1.8-1.1,3-1.7,3.6c-0.6,0.6-1.7,0.9-3.4,0.9H38.8c-1.7,0-2.8-0.3-3.2-0.9c-0.4-0.6-0.3-1.8,0.1-3.7l2.2-9.3
	c0.5-1.9,1.1-3.2,1.7-3.7c0.8-0.6,2-0.9,3.6-0.9h51.6c1.7,0,2.7,0.3,3,0.9c0.4,0.6,0.3,1.8-0.1,3.7L95.6,31.7z"/>
</svg>
