<?xml version="1.0" encoding="utf-8"?>
<!-- Generator: Adobe Illustrator 21.1.0, SVG Export Plug-In . SVG Version: 6.00 Build 0)  -->
<svg version="1.1" id="Слой_1" xmlns="http://www.w3.org/2000/svg" xmlns:xlink="http://www.w3.org/1999/xlink" x="0px" y="0px"
	 viewBox="0 0 24 24" style="enable-background:new 0 0 24 24;" xml:space="preserve">
<style type="text/css">
	.st0{fill:url(#SVGID_1_);}
</style>
<linearGradient id="SVGID_1_" gradientUnits="userSpaceOnUse" x1="4.7545" y1="6.0833" x2="20.0851" y2="16.4239">
	<stop  offset="0" style="stop-color:#E35C67"/>
	<stop  offset="1" style="stop-color:#381CE2"/>
</linearGradient>
<path class="st0" d="M22.7,11.4L22.7,11.4L22.7,11.4L22.7,11.4l-7.3-6.9c-0.3-0.3-0.9-0.3-1.2,0s-0.3,0.9,0,1.2l5.8,5.4H1.8
	c-0.5,0-0.8,0.4-0.8,0.8c0,0.5,0.4,0.8,0.8,0.8h18.3l-5.9,5.5c-0.3,0.3-0.4,0.8,0,1.2c0.3,0.3,0.8,0.4,1.2,0l7.3-6.9
	c0.2-0.2,0.3-0.4,0.3-0.6C23,11.8,22.9,11.5,22.7,11.4z"/>
</svg>
