<?xml version="1.0" encoding="utf-8"?>
<!-- Generator: Adobe Illustrator 21.1.0, SVG Export Plug-In . SVG Version: 6.00 Build 0)  -->
<svg version="1.1" id="Capa_1" xmlns="http://www.w3.org/2000/svg" xmlns:xlink="http://www.w3.org/1999/xlink" x="0px" y="0px"
	 viewBox="0 0 75.3 32.6" style="enable-background:new 0 0 75.3 32.6;" xml:space="preserve">
<style type="text/css">
	.st0{fill:#3E0059;}
</style>
<path class="st0" d="M74.1,16.8H1.2c-0.6,0-1.2-0.2-1.2-0.5s0.5-0.5,1.2-0.5h72.9c0.6,0,1.2,0.2,1.2,0.5
	C75.3,16.6,74.8,16.8,74.1,16.8z M62.3,29.4c-0.1,0-0.3,0-0.4-0.1c-0.2-0.2-0.2-0.5,0-0.7l12.2-12.2L61.9,4.1
	c-0.2-0.2-0.2-0.5,0-0.7s0.5-0.2,0.7,0L75.1,16c0.1,0.1,0.1,0.2,0.1,0.4s-0.1,0.3-0.1,0.4L62.6,29.2C62.5,29.3,62.4,29.4,62.3,29.4z
	"/>
</svg>
