<?xml version="1.0" encoding="utf-8"?>
<!-- Generator: Adobe Illustrator 21.1.0, SVG Export Plug-In . SVG Version: 6.00 Build 0)  -->
<svg version="1.1" id="Слой_1" xmlns="http://www.w3.org/2000/svg" xmlns:xlink="http://www.w3.org/1999/xlink" x="0px" y="0px"
	 viewBox="0 0 512 512" style="enable-background:new 0 0 512 512;" xml:space="preserve">
<style type="text/css">
	.st0{fill:url(#SVGID_1_);}
</style>
<title>Stroke 465</title>
<desc>Created using Figma</desc>
<linearGradient id="SVGID_1_" gradientUnits="userSpaceOnUse" x1="78.8232956" y1="256" x2="745.2615967" y2="256">
	<stop  offset="0" style="stop-color:#E35C67"/>
	<stop  offset="1" style="stop-color:#381CE2"/>
</linearGradient>
<path class="st0" d="M488.9152832,261.9234314C490.1381836,260.1644897,491,258.1788635,491,256.0002136
	c0-2.2579498-0.9100647-4.3159485-2.2191772-6.1128235c-0.3507385-0.4817505-0.604126-1.026413-1.0298462-1.4418182
	c-0.0715332-0.0697937-0.0973816-0.170639-0.1706543-0.2387085l-0.0706482,0.0766907l0,0l0.0706482-0.0766907
	L365.1867676,135.5922546c-4.303894-3.960022-11.0036316-3.6816711-14.9636536,0.6230774
	c-3.960022,4.303894-3.6816406,11.0027466,0.6222229,14.9627686l102.4202576,94.2373505H31.5899372
	C25.7408237,245.415451,21,250.157135,21,256.0054016c0,5.8490906,4.7408237,10.5899353,10.5899372,10.5899353h421.6644592
	l-102.4090576,94.2269897c-4.3038635,3.9591675-4.5822449,10.6588745-0.6222229,14.9627686
	s10.6597595,4.5830994,14.9636536,0.6222229l122.3935547-112.6145935c0.0672302-0.0611877,0.0896301-0.1542664,0.1551514-0.2171936
	C488.2240906,263.1006775,488.5257263,262.4844971,488.9152832,261.9234314z"/>
</svg>
