<?xml version="1.0" encoding="utf-8"?>
<!-- Generator: Adobe Illustrator 21.1.0, SVG Export Plug-In . SVG Version: 6.00 Build 0)  -->
<svg version="1.1" id="Слой_1" xmlns="http://www.w3.org/2000/svg" xmlns:xlink="http://www.w3.org/1999/xlink" x="0px" y="0px"
	 viewBox="0 0 160 45" style="enable-background:new 0 0 160 45;" xml:space="preserve">
<style type="text/css">
	.st0{fill:url(#path0_stroke_2_);}
</style>
<linearGradient id="path0_stroke_2_" gradientUnits="userSpaceOnUse" x1="1987.9264" y1="54.5252" x2="1988.9412" y2="54.5252" gradientTransform="matrix(186.665 51.944 -187.026 51.8437 -360866.125 -106084.7812)">
	<stop  offset="0" style="stop-color:#E35C67"/>
	<stop  offset="1" style="stop-color:#381CE2"/>
</linearGradient>
<path id="path0_stroke_1_" class="st0" d="M9.774,38.783l-0.8,0.613L9.774,38.783z M9.874,6.727l-0.8-0.51L9.874,6.727z
	 M148.205,0.602H18.27v2.042h129.936V0.602z M8.974,6.217L2.577,17.549l1.699,1.123L10.673,7.34L8.974,6.217z M2.877,29.799
	l6.097,9.596l1.599-1.123l-6.097-9.596L2.877,29.799z M17.97,44.5h130.236v-2.042H17.97V44.5z M159,32.964V12.036h-1.999v20.928H159
	z M148.205,2.644c4.897,0,8.796,4.186,8.796,9.392H159C159,5.707,154.202,0.5,148.205,0.5V2.644z M18.27,0.602
	c-3.798,0-7.296,2.144-9.295,5.615l1.699,1.123c1.599-2.858,4.498-4.594,7.596-4.594V0.602z M2.577,17.447
	c-2.199,3.777-2.099,8.677,0.3,12.353l1.599-1.123c-1.899-3.063-1.999-6.942-0.2-10.107L2.577,17.447z M8.974,39.396
	c1.999,3.165,5.397,5.104,8.996,5.104v-2.042c-2.898,0-5.697-1.531-7.296-4.186L8.974,39.396z M148.205,44.5
	c5.997,0,10.795-5.104,10.795-11.536h-1.999c0,5.207-3.998,9.392-8.796,9.392V44.5z"/>
</svg>
