<?xml version="1.0" encoding="utf-8"?>
<!-- Generator: Adobe Illustrator 21.1.0, SVG Export Plug-In . SVG Version: 6.00 Build 0)  -->
<svg version="1.1" id="Слой_1" xmlns="http://www.w3.org/2000/svg" xmlns:xlink="http://www.w3.org/1999/xlink" x="0px" y="0px"
	 viewBox="0 0 24 24" style="enable-background:new 0 0 24 24;" xml:space="preserve">
<style type="text/css">
	.st0{fill:url(#SVGID_1_);}
	.st1{fill:#B435DA;}
</style>
<linearGradient id="SVGID_1_" gradientUnits="userSpaceOnUse" x1="-1.1269" y1="12" x2="35.1046" y2="12">
	<stop  offset="0" style="stop-color:#E35C67"/>
	<stop  offset="1" style="stop-color:#381CE2"/>
</linearGradient>
<path class="st0" d="M12,1C5.9,1,1,5.9,1,12c0,6.1,4.9,11,11,11c6.1,0,11-4.9,11-11C23,5.9,18.1,1,12,1z M12,21.9
	c-5.5,0-9.9-4.4-9.9-9.9S6.5,2.1,12,2.1s9.9,4.4,9.9,9.9S17.5,21.9,12,21.9z"/>
<path class="st1" d="M10.1,12l5.4-4.7c0.3-0.3,0.3-0.7,0.1-1.1c-0.3-0.3-0.7-0.3-1.1-0.1l-6,5.2c-0.2,0.1-0.3,0.3-0.3,0.6
	c0,0.2,0.1,0.4,0.3,0.6L9,12l0,0l-0.5,0.6l6,5.2c0.3,0.3,0.8,0.2,1.1-0.1c0.3-0.3,0.2-0.8-0.1-1.1L10.1,12z"/>
</svg>
