<?xml version="1.0" encoding="utf-8"?>
<!-- Generator: Adobe Illustrator 21.1.0, SVG Export Plug-In . SVG Version: 6.00 Build 0)  -->
<svg version="1.1" id="Слой_1" xmlns="http://www.w3.org/2000/svg" xmlns:xlink="http://www.w3.org/1999/xlink" x="0px" y="0px"
	 viewBox="0 0 24 24" style="enable-background:new 0 0 24 24;" xml:space="preserve">
<style type="text/css">
	.st0{fill:url(#path0_fill_2_);}
	.st1{fill:#FFFFFF;}
</style>
<linearGradient id="path0_fill_2_" gradientUnits="userSpaceOnUse" x1="0.9514" y1="24.6204" x2="1.6848" y2="24.6204" gradientTransform="matrix(-34.847 -38.958 -34.9144 38.8828 914.0195 -897.8943)">
	<stop  offset="0" style="stop-color:#E35C67"/>
	<stop  offset="1" style="stop-color:#381CE2"/>
</linearGradient>
<path id="path0_fill_1_" class="st0" d="M12,1C5.9,1,1,5.9,1,12c0,6.1,4.9,11,11,11c6.1,0,11-4.9,11-11C23,5.9,18.1,1,12,1z"/>
<path class="st1" d="M9.4,6l-1,1.1C8.1,6.9,8.1,6.4,8.3,6.1C8.6,5.8,9.1,5.7,9.4,6z M15.6,11.4L9.4,6l-1,1.1
	c1.9,1.6,3.7,3.2,5.6,4.8l-5.6,4.9c-0.3,0.3-0.3,0.7-0.1,1.1c0.3,0.3,0.7,0.3,1.1,0.1l6.2-5.4c0.2-0.1,0.3-0.3,0.3-0.6
	C15.8,11.8,15.8,11.6,15.6,11.4z"/>
</svg>
