<?xml version="1.0" encoding="utf-8"?>
<!-- Generator: Adobe Illustrator 21.1.0, SVG Export Plug-In . SVG Version: 6.00 Build 0)  -->
<svg version="1.1" id="Слой_1" xmlns="http://www.w3.org/2000/svg" xmlns:xlink="http://www.w3.org/1999/xlink" x="0px" y="0px"
	 viewBox="0 0 160 45" style="enable-background:new 0 0 160 45;" xml:space="preserve">
<style type="text/css">
	.st0{fill:#B435DA;}
	.st1{fill:url(#path0_stroke_2_);}
</style>
<title>Vector 7</title>
<desc>Created using Figma</desc>
<g id="Canvas" transform="translate(-2100 -195)">
	<g id="Vector_7">
		<g transform="translate(2100 196.113)">
			<path id="path0_stroke" class="st0" d="M2109.7,233.4l-0.8,0.6L2109.7,233.4z M2109.8,202l-0.8-0.5L2109.8,202z M2248.2,196h-130
				v2h130V196z M2108.9,201.5l-6.4,11.1l1.7,1.1l6.4-11.1L2108.9,201.5z M2102.8,224.6l6.1,9.4l1.6-1.1l-6.1-9.4L2102.8,224.6z
				 M2117.9,239h130.3v-2h-130.3V239z M2259,227.7v-20.5h-2v20.5H2259z M2248.2,198c4.9,0,8.8,4.1,8.8,9.2h2
				c0-6.2-4.8-11.3-10.8-11.3V198z M2118.2,196c-3.8,0-7.3,2.1-9.3,5.5l1.7,1.1c1.6-2.8,4.5-4.5,7.6-4.5V196z M2102.5,212.5
				c-2.2,3.7-2.1,8.5,0.3,12.1l1.6-1.1c-1.9-3-2-6.8-0.2-9.9L2102.5,212.5z M2108.9,234c2,3.1,5.4,5,9,5v-2c-2.9,0-5.7-1.5-7.3-4.1
				L2108.9,234z M2248.2,239c6,0,10.8-5,10.8-11.3h-2c0,5.1-4,9.2-8.8,9.2V239z"/>
		</g>
		<g transform="translate(2100 196.113)">
			
				<linearGradient id="path0_stroke_2_" gradientUnits="userSpaceOnUse" x1="2167.7205" y1="229.986" x2="2168.7244" y2="229.986" gradientTransform="matrix(186.665 51.944 187.026 -51.8437 -445537.75 -100478.7031)">
				<stop  offset="0" style="stop-color:#E35C67"/>
				<stop  offset="1" style="stop-color:#381CE2"/>
			</linearGradient>
			<path id="path0_stroke_1_" class="st1" d="M2109.7,233.4l-0.8,0.6L2109.7,233.4z M2109.8,202l-0.8-0.5L2109.8,202z M2248.2,196
				h-130v2h130V196z M2108.9,201.5l-6.4,11.1l1.7,1.1l6.4-11.1L2108.9,201.5z M2102.8,224.6l6.1,9.4l1.6-1.1l-6.1-9.4L2102.8,224.6z
				 M2117.9,239h130.3v-2h-130.3V239z M2259,227.7v-20.5h-2v20.5H2259z M2248.2,198c4.9,0,8.8,4.1,8.8,9.2h2
				c0-6.2-4.8-11.3-10.8-11.3V198z M2118.2,196c-3.8,0-7.3,2.1-9.3,5.5l1.7,1.1c1.6-2.8,4.5-4.5,7.6-4.5V196z M2102.5,212.5
				c-2.2,3.7-2.1,8.5,0.3,12.1l1.6-1.1c-1.9-3-2-6.8-0.2-9.9L2102.5,212.5z M2108.9,234c2,3.1,5.4,5,9,5v-2c-2.9,0-5.7-1.5-7.3-4.1
				L2108.9,234z M2248.2,239c6,0,10.8-5,10.8-11.3h-2c0,5.1-4,9.2-8.8,9.2V239z"/>
		</g>
	</g>
</g>
</svg>
