<?xml version="1.0" encoding="utf-8"?>
<!-- Generator: Adobe Illustrator 21.1.0, SVG Export Plug-In . SVG Version: 6.00 Build 0)  -->
<svg version="1.1" id="Слой_1" xmlns="http://www.w3.org/2000/svg" xmlns:xlink="http://www.w3.org/1999/xlink" x="0px" y="0px"
	 viewBox="0 0 24 24" style="enable-background:new 0 0 24 24;" xml:space="preserve">
<path d="M18.7,17.6L18.3,18l0.1-0.1L18.7,17.6L18.7,17.6l-1.9-1.9c0,0,0,0,0,0l0,0c-0.9-0.9-2.4-0.9-3.3,0l0,0L13.1,16
	c-1.9-1.5-3.6-3.3-5.2-5.2l0.3-0.3l-0.4-0.4l0.4,0.4c0.9-0.9,0.9-2.4,0-3.3l0,0L6.3,5.3C5.4,4.4,3.9,4.4,3,5.3L2,6.4
	c-1.1,1.1-1.3,2.8-0.4,4.1c3.1,4.7,7.3,8.8,12,11.9l0,0c1.3,0.8,3,0.7,4.1-0.4l0,0l1.1-1.1l0,0C19.6,20,19.6,18.6,18.7,17.6z
	 M18,20.2L18,20.2l-1.1,1.1l0,0l0.3,0.3l0,0l-0.4-0.4c-0.7,0.7-1.9,0.9-2.8,0.3c-4.6-3-8.7-7.1-11.7-11.6C1.8,9,1.9,7.9,2.7,7.1
	l1.1-1.1c0.5-0.5,1.3-0.5,1.8,0l0,0L7.5,8C8,8.5,8,9.3,7.5,9.8l-0.6,0.6c-0.2,0.2-0.2,0.5,0,0.7c1.8,2.1,3.9,4.2,6,6
	c0.2,0.2,0.5,0.2,0.7,0l0.6-0.6l0,0c0.5-0.5,1.3-0.5,1.8,0l0,0l0.3-0.3l0,0L16,16.5l1.9,1.9C18.5,18.9,18.5,19.7,18,20.2z M23,12
	c0,0.3-0.2,0.5-0.5,0.5c-0.3,0-0.5-0.2-0.5-0.5c0-5.5-4.5-9.9-10-9.9c-0.3,0-0.5-0.2-0.5-0.5C11.5,1.3,11.7,1,12,1
	C18.1,1,23,5.9,23,12z M11.5,5.2c0-0.3,0.2-0.5,0.5-0.5c4.1,0,7.4,3.3,7.4,7.3c0,0.3-0.2,0.5-0.5,0.5c-0.3,0-0.5-0.2-0.5-0.5
	c0-3.5-2.8-6.3-6.3-6.3C11.7,5.7,11.5,5.5,11.5,5.2z M11.5,8.8c0-0.3,0.2-0.5,0.5-0.5c2,0,3.7,1.7,3.7,3.7c0,0.3-0.2,0.5-0.5,0.5
	c-0.3,0-0.5-0.2-0.5-0.5c0-1.5-1.2-2.7-2.7-2.7C11.7,9.3,11.5,9.1,11.5,8.8z"/>
</svg>
