<?xml version="1.0" encoding="utf-8"?>
<!-- Generator: Adobe Illustrator 21.1.0, SVG Export Plug-In . SVG Version: 6.00 Build 0)  -->
<svg version="1.1" id="Слой_1" xmlns="http://www.w3.org/2000/svg" xmlns:xlink="http://www.w3.org/1999/xlink" x="0px" y="0px"
	 viewBox="0 0 24 24" style="enable-background:new 0 0 24 24;" xml:space="preserve">
<path d="M22.9,13l-1.9-1.9h1.6c0.3,0,0.5-0.2,0.5-0.5V8.8c0-0.3-0.2-0.5-0.5-0.5h-2.7c-0.1,0-0.2,0-0.2,0.1L18.4,5l-0.5,0.2V4.7H6.1
	C5.8,4.7,5.7,4.8,5.6,5L4.5,8.4c-0.1,0-0.2-0.1-0.2-0.1H1.5C1.2,8.3,1,8.5,1,8.8v1.8c0,0.3,0.2,0.5,0.5,0.5h1.6L1.1,13
	c0,0,0,0,0,0.1c0,0-0.1,0.1-0.1,0.1c0,0.1,0,0.1,0,0.2v0v1.8V17c0,0.3,0.2,0.5,0.5,0.5h0.4v1.4c0,0.3,0.2,0.5,0.5,0.5h2.7
	c0.3,0,0.5-0.2,0.5-0.5v-1.4h2.7V18c0,0.3,0.2,0.5,0.5,0.5h6.4c0.3,0,0.5-0.2,0.5-0.5v-0.4h2.7v1.4c0,0.3,0.2,0.5,0.5,0.5h2.7
	c0.3,0,0.5-0.2,0.5-0.5v-1.4h0.4c0.3,0,0.5-0.2,0.5-0.5v-3.7C23,13.2,22.9,13.1,22.9,13z M19.3,13.8H22v0.9h-2.7V13.8z M2,9.3h1.8
	v0.9H2V9.3z M22,10.2h-1.8V9.3H22V10.2z M6.4,5.6h11.2l1.5,4.5H4.9L6.4,5.6z M4.7,14.7H2v-0.9h2.7V14.7z M4.7,18.4H2.9v-0.9h1.8
	V18.4z M14.7,17.5H9.3V17c0,0,0,0,0,0s0,0,0,0v-1.3h5.4V17.5z M15.7,15.2c0-0.3-0.2-0.5-0.5-0.5H8.8c-0.3,0-0.5,0.2-0.5,0.5v1.3H2
	v-0.9h3.2c0.3,0,0.5-0.2,0.5-0.5v-1.8c0-0.3-0.2-0.5-0.5-0.5H2.6l1.8-1.8h15.2l1.8,1.8h-2.5c-0.3,0-0.5,0.2-0.5,0.5v1.8
	c0,0.3,0.2,0.5,0.5,0.5H22v0.9h-6.4V15.2z M21.1,18.4h-1.8v-0.9h1.8V18.4z M12.5,12.5v0.9c0,0.3-0.2,0.5-0.5,0.5s-0.5-0.2-0.5-0.5
	v-0.9c0-0.3,0.2-0.5,0.5-0.5S12.5,12.2,12.5,12.5z"/>
</svg>
