<?xml version="1.0" encoding="utf-8"?>
<!-- Generator: Adobe Illustrator 21.1.0, SVG Export Plug-In . SVG Version: 6.00 Build 0)  -->
<svg version="1.1" id="Слой_1" xmlns="http://www.w3.org/2000/svg" xmlns:xlink="http://www.w3.org/1999/xlink" x="0px" y="0px"
	 viewBox="0 0 512 512" style="enable-background:new 0 0 512 512;" xml:space="preserve">
<style type="text/css">
	.st0{fill:#333333;stroke:#000000;stroke-width:3;stroke-miterlimit:10;}
</style>
<g>
	<polygon class="st0" points="258.148,58.452 252.566,61.812 258.149,58.453 	"/>
	<polygon class="st0" points="352.551,166.616 351.538,173.763 351.537,173.763 351.537,173.763 351.542,173.764 352.602,166.255 	
		"/>
	<path class="st0" d="M485.173,98.644c-8.897-12.971-29.329-30.063-50.578-44.188c-21.169-14.07-45.254-26.607-62.046-28.988h-0.001
		c-2.699-0.377-5.902-0.586-8.989-0.59c-22.121,0-51.66,9.47-71.609,17.961c-10.554,4.492-22.986,10.499-32.697,17.452
		c-0.369-0.614-0.731-1.219-1.103-1.838l-0.001,0l0.001,0.001l-6.577,3.956l0.993-0.598l-0.992,0.597l6.575-3.958
		c-4.242-7.046-13.29-9.481-20.496-5.522l-0.002,0.001c-7.207,3.962-9.995,12.909-6.322,20.263l6.866-3.429l-0.697,0.349
		l-6.169,3.08l0.002,0.003c5.544,11.087,7.875,29.711,5.986,54.754c-1.872,24.984-7.758,54.717-17.656,87.76
		c-7.6,25.421-16.39,48.684-24.845,67.591c-6.28,14.049-12.16,25.173-16.94,32.602c-16.545-13.402-37.617-21.456-60.536-21.456
		C64.21,294.445,21,337.659,21,390.785c0,53.126,43.21,96.336,96.336,96.336c53.126,0,96.337-43.208,96.337-96.336
		c-0.096-18.524-5.761-36.678-14.985-51.45c8.353-10.974,17.059-27.592,25.133-45.953c9.388-21.357,18.373-46.164,25.178-68.893
		c6.803-22.741,15.291-56.083,18.465-88.528c14.827,27.666,24.357,49.599,30.494,71.367c7.388,25.99,9.79,51.255,10.197,85.562
		c-40.511,11.379-70.314,48.617-70.314,92.739c0,53.126,43.209,96.336,96.335,96.336c53.127,0,96.335-43.211,96.335-96.336
		c0-51.602-40.765-93.848-91.789-96.229c-0.902-51.595-6.893-86.964-26.44-131.421c1.404,0.827,2.827,1.646,4.266,2.449
		c10.879,6.059,23.42,11.695,34.989,13.335l1.014-7.147l0.064-0.451l-0.013,0.09l0.013-0.09l-1.073,7.599h0
		c2.69,0.375,5.909,0.585,9.049,0.589c22.241,0,53.755-9.294,75.454-17.632l-2.202-5.731l2.038,5.303l0.164,0.427
		c12.773-4.914,24.373-10.287,33.052-15.317c10.985-6.38,19.288-13.151,21.397-22.245l0.002-0.005l-7.298-1.688l-0.179-0.042
		l7.478,1.73C492.166,111.934,489.509,104.964,485.173,98.644z M117.336,456.496c-36.226,0-65.711-29.485-65.711-65.711
		s29.486-65.714,65.711-65.714c36.226,0,65.711,29.488,65.711,65.714C183.047,427.011,153.562,456.496,117.336,456.496z
		 M334.175,319.915c36.226,0,65.709,29.485,65.709,65.711c0,36.227-29.484,65.714-65.709,65.714
		c-36.226,0-65.714-29.488-65.714-65.714C268.461,349.4,297.949,319.915,334.175,319.915z M451.903,115.962
		c-6.643,3.702-15.989,8.121-29.119,13.039l2.694,7.183l-2.695-7.182c0,0,0.001,0,0.001,0l-0.001-0.002L422.782,129
		c-24.718,9.276-48.558,14.729-62.19,14.729c-1.942,0.004-3.364-0.083-4.758-0.286l-1.077,7.598c0,0,0,0-0.001,0l1.077-7.598
		c-5.057-0.717-12.802-3.599-22.291-8.668c-9.454-5.042-19.713-11.717-30.07-19.71l-4.686,6.077l1.081-1.402l3.604-4.675
		c-4.99-3.84-9.26-7.391-12.913-10.648c32.157,4.232,79.646,10.928,112.692,17.561l0.005,0.001l1.301-6.507l0.2-0.998l-1.501,7.506
		c0.881,0.167,2.136,0.291,3.016,0.301c7.148,0,13.546-5.016,15.006-12.306h-0.001c1.662-8.295-3.715-16.357-12-18.021h-0.002
		c-33.15-6.647-80.228-13.332-112.757-17.636c2.8-1.304,5.855-2.653,9.208-4.044l-0.398-0.956l-0.005-0.013l0.403,0.969
		c22.37-9.309,44.572-14.765,57.833-14.765c1.882-0.004,3.284,0.082,4.693,0.288l1.078-7.598l-0.339,2.391l-0.739,5.207h0.002
		c5.053,0.716,13.161,3.666,23.363,8.857c10.133,5.149,21.406,12.004,32.964,20.178c11.671,8.24,20.414,15.537,26.684,21.536
		c2.556,2.44,4.532,4.499,6.115,6.318C455.889,113.661,454.115,114.733,451.903,115.962z M407.765,99.478l0.467-2.328l0.924-4.6
		L407.765,99.478z"/>
</g>
</svg>
