<?xml version="1.0" encoding="utf-8"?>
<!-- Generator: Adobe Illustrator 21.1.0, SVG Export Plug-In . SVG Version: 6.00 Build 0)  -->
<svg version="1.1" id="Слой_1" xmlns="http://www.w3.org/2000/svg" xmlns:xlink="http://www.w3.org/1999/xlink" x="0px" y="0px"
	 viewBox="0 0 24 24" style="enable-background:new 0 0 24 24;" xml:space="preserve">
<path d="M12,1C5.9,1,1,5.9,1,12s4.9,11,11,11c6.1,0,11-4.9,11-11S18.1,1,12,1z M12,21.7c-5.4,0-9.8-4.4-9.8-9.7S6.6,2.3,12,2.3
	c5.4,0,9.8,4.4,9.8,9.7C21.8,17.4,17.4,21.7,12,21.7z M17.4,16.5c0.2,0.2,0.3,0.6,0,0.9c-0.2,0.2-0.6,0.3-0.9,0l-5.4-4.9l0.4-0.4
	l0,0l-0.4,0.4c-0.1-0.1-0.2-0.3-0.2-0.4V7.1c0-0.3,0.3-0.6,0.6-0.6c0.3,0,0.6,0.3,0.6,0.6v4.7L17.4,16.5z"/>
</svg>
