<?xml version="1.0" encoding="utf-8"?>
<!-- Generator: Adobe Illustrator 21.1.0, SVG Export Plug-In . SVG Version: 6.00 Build 0)  -->
<svg version="1.1" id="Слой_1" xmlns="http://www.w3.org/2000/svg" xmlns:xlink="http://www.w3.org/1999/xlink" x="0px" y="0px"
	 viewBox="0 0 24 24" style="enable-background:new 0 0 24 24;" xml:space="preserve">
<style type="text/css">
	.st0{fill:url(#cloudy-day_1_);}
</style>
<linearGradient id="cloudy-day_1_" gradientUnits="userSpaceOnUse" x1="7.4902" y1="17.5087" x2="17.3375" y2="7.3115">
	<stop  offset="0" style="stop-color:#E35C67"/>
	<stop  offset="1" style="stop-color:#381CE2"/>
</linearGradient>
<path id="cloudy-day" class="st0" d="M12.8,17.6V19c0,0.3-0.2,0.5-0.5,0.5c-0.3,0-0.5-0.2-0.5-0.5v-1.4c0-0.3,0.2-0.5,0.5-0.5
	C12.6,17.1,12.8,17.3,12.8,17.6z M12.4,5.3c-0.3,0-0.5,0.2-0.5,0.5v1.4c0,0.3,0.2,0.5,0.5,0.5c0.3,0,0.5-0.2,0.5-0.5V5.7
	C12.8,5.5,12.6,5.3,12.4,5.3z M19,11.9h-1.4c-0.3,0-0.5,0.2-0.5,0.5c0,0.3,0.2,0.5,0.5,0.5H19c0.3,0,0.5-0.2,0.5-0.5
	C19.4,12.1,19.2,11.9,19,11.9z M7.1,11.9H5.7c-0.3,0-0.5,0.2-0.5,0.5c0,0.3,0.2,0.5,0.5,0.5h1.4c0.3,0,0.5-0.2,0.5-0.5
	C7.6,12.1,7.4,11.9,7.1,11.9z M17.4,7.3c-0.2-0.2-0.5-0.2-0.7,0l-1,1c-0.2,0.2-0.2,0.5,0,0.7c0.1,0.1,0.2,0.1,0.3,0.1s0.2,0,0.3-0.1
	l1-1C17.6,7.8,17.6,7.5,17.4,7.3z M9,15.7c-0.2-0.2-0.5-0.2-0.7,0l-1,1c-0.2,0.2-0.2,0.5,0,0.7c0.1,0.1,0.2,0.1,0.3,0.1
	s0.2,0,0.3-0.1l1-1C9.2,16.2,9.2,15.9,9,15.7z M16.1,12.4c0,2.1-1.7,3.8-3.8,3.8c-2.1,0-3.8-1.7-3.8-3.8c0-2.1,1.7-3.8,3.8-3.8
	C14.4,8.6,16.1,10.3,16.1,12.4z M15.2,12.4c0-1.5-1.3-2.8-2.8-2.8c-1.5,0-2.8,1.3-2.8,2.8c0,1.5,1.3,2.8,2.8,2.8
	C13.9,15.2,15.2,13.9,15.2,12.4z M23,18.1c0,1.2-1,2.2-2.3,2.2h-4.4c-1,0-1.8-0.8-1.8-1.8c0-0.9,0.7-1.6,1.5-1.8
	c0.1-1.3,1.2-2.3,2.5-2.3c1,0,1.8,0.5,2.2,1.4C22,15.8,23,16.8,23,18.1z M22,18.1c0-0.7-0.6-1.3-1.3-1.3c-0.1,0-0.2,0-0.2,0
	c-0.2,0-0.5-0.1-0.5-0.3c-0.2-0.6-0.8-1.1-1.5-1.1c-0.8,0-1.5,0.7-1.5,1.5c0,0.1,0,0.1,0,0.2c0,0.1,0,0.3-0.1,0.4s-0.3,0.2-0.4,0.1
	c0,0-0.1,0-0.1,0c-0.5,0-0.9,0.4-0.9,0.9s0.4,0.9,0.9,0.9h4.4C21.4,19.3,22,18.8,22,18.1z M9.5,7.3c0,1.2-1,2.2-2.3,2.2H2.8
	C1.8,9.6,1,8.8,1,7.8C1,6.9,1.7,6.1,2.5,6C2.6,4.7,3.7,3.7,5,3.7c1,0,1.8,0.5,2.2,1.4C8.5,5.1,9.5,6.1,9.5,7.3z M8.5,7.3
	C8.5,6.6,8,6,7.2,6C7.1,6,7.1,6,7,6.1C6.8,6.1,6.5,6,6.5,5.7C6.3,5.1,5.7,4.7,5,4.7c-0.8,0-1.5,0.7-1.5,1.5c0,0.1,0,0.1,0,0.2
	c0,0.1,0,0.3-0.1,0.4C3.3,6.9,3.1,6.9,3,6.9c0,0-0.1,0-0.1,0C2.4,6.9,2,7.3,2,7.8c0,0.5,0.4,0.9,0.9,0.9h4.4C8,8.6,8.5,8,8.5,7.3z"
	/>
</svg>
