<?xml version="1.0" encoding="utf-8"?>
<!-- Generator: Adobe Illustrator 21.1.0, SVG Export Plug-In . SVG Version: 6.00 Build 0)  -->
<svg version="1.1" id="Слой_1" xmlns="http://www.w3.org/2000/svg" xmlns:xlink="http://www.w3.org/1999/xlink" x="0px" y="0px"
	 viewBox="0 0 24 24" style="enable-background:new 0 0 24 24;" xml:space="preserve">
<style type="text/css">
	.st0{fill:url(#Group_1_);}
</style>
<linearGradient id="Group_1_" gradientUnits="userSpaceOnUse" x1="1" y1="12" x2="23" y2="12">
	<stop  offset="0" style="stop-color:#E35C67"/>
	<stop  offset="1" style="stop-color:#381CE2"/>
</linearGradient>
<path id="Group_19_" class="st0" d="M22.9,17.2c-0.5-0.5-1-0.9-1.6-1c-0.5-0.2-1.1-0.1-1.7,0l0.1,0.5l0,0l-0.1-0.5c0,0,0,0,0,0
	l-3.3,1.1c-0.1-0.6-0.7-1.1-1.5-1.1h-2.6C12.1,16.1,12.1,16,12,16c0,0-0.1-0.1-0.1-0.1c-0.1,0-0.1-0.1-0.2-0.1
	c-0.1-0.1-0.2-0.1-0.2-0.2c-0.1,0-0.1-0.1-0.2-0.1c-0.1-0.1-0.2-0.1-0.3-0.2c-0.1,0-0.1-0.1-0.2-0.1c-0.1-0.1-0.3-0.1-0.4-0.2
	c-0.1,0-0.1-0.1-0.2-0.1c-0.1-0.1-0.3-0.1-0.5-0.2c-0.1,0-0.1-0.1-0.2-0.1c-0.2,0-0.3-0.1-0.5-0.1c-0.1,0-0.1,0-0.2,0
	c-0.3,0-0.5-0.1-0.8-0.1H5.6v-0.4c0-0.3-0.2-0.5-0.5-0.5H1.5c-0.3,0-0.5,0.2-0.5,0.5v7.4c0,0.3,0.2,0.5,0.5,0.5h3.7
	c0.3,0,0.5-0.2,0.5-0.5v-0.7c2,0.7,3.5,1.2,4.6,1.6c1.3,0.4,2.2,0.5,3.2,0.4c1-0.2,2-0.6,3.4-1.3c1.4-0.7,3.3-1.8,6-3.1
	c0.1-0.1,0.2-0.2,0.3-0.4C23,17.5,23,17.3,22.9,17.2z M4.7,20.8H2v-6.4h2.7V20.8z M16.9,19.9C16.9,19.9,16.9,19.9,16.9,19.9
	c-0.3,0.1-0.4,0.2-0.6,0.3c-1.4,0.7-2.3,1.1-3.1,1.2c-0.8,0.1-1.5,0-2.7-0.3c-1.1-0.3-2.7-0.9-4.9-1.7v-4.2h2.3c2,0,3.3,1.3,3.8,1.7
	l0.3-0.3v0L11.7,17c0.1,0.1,0.2,0.1,0.3,0.1h2.7c0.5,0,0.6,0.3,0.6,0.4c0,0.2-0.1,0.4-0.6,0.4h-5c-0.3,0-0.5,0.2-0.5,0.5
	s0.2,0.5,0.5,0.5h5c0.6,0,1-0.2,1.3-0.6l3.9-1.3c0,0,0,0,0,0c0.4-0.1,0.7-0.1,1.1,0c0.1,0,0.2,0.1,0.3,0.1c0,0,0,0,0,0
	c0.1,0.1,0.2,0.1,0.3,0.2C19.6,18.5,18.1,19.3,16.9,19.9z M12.5,7.9c-1.8,0-3.2,1.4-3.2,3.2c0,1.8,1.4,3.2,3.2,3.2s3.2-1.4,3.2-3.2
	C15.7,9.4,14.2,7.9,12.5,7.9z M12.5,13.4c-1.2,0-2.3-1-2.3-2.3c0-1.2,1-2.3,2.3-2.3c1.2,0,2.3,1,2.3,2.3
	C14.7,12.4,13.7,13.4,12.5,13.4z M12.9,10.2v1.8c0,0.3-0.2,0.5-0.5,0.5S12,12.3,12,12.1v-1.8c0-0.3,0.2-0.5,0.5-0.5
	S12.9,10,12.9,10.2z M17,1.5c-1.8,0-3.2,1.4-3.2,3.2S15.2,8,17,8c1.8,0,3.2-1.4,3.2-3.2S18.8,1.5,17,1.5z M17,7
	c-1.2,0-2.3-1-2.3-2.3c0-1.2,1-2.3,2.3-2.3c1.2,0,2.3,1,2.3,2.3C19.3,6,18.3,7,17,7z M17.5,3.8v1.8c0,0.3-0.2,0.5-0.5,0.5
	c-0.3,0-0.5-0.2-0.5-0.5V3.8c0-0.3,0.2-0.5,0.5-0.5C17.3,3.3,17.5,3.6,17.5,3.8z"/>
</svg>
