<?xml version="1.0" encoding="utf-8"?>
<!-- Generator: Adobe Illustrator 21.1.0, SVG Export Plug-In . SVG Version: 6.00 Build 0)  -->
<svg version="1.1" id="Слой_1" xmlns="http://www.w3.org/2000/svg" xmlns:xlink="http://www.w3.org/1999/xlink" x="0px" y="0px"
	 viewBox="0 0 24 24" style="enable-background:new 0 0 24 24;" xml:space="preserve">
<style type="text/css">
	.st0{fill:url(#SVGID_1_);}
	.st1{fill:url(#SVGID_2_);}
</style>
<g id="settings__x28_1_x29_">
	<linearGradient id="SVGID_1_" gradientUnits="userSpaceOnUse" x1="-0.1821" y1="16.5833" x2="20.789" y2="16.5833">
		<stop  offset="0" style="stop-color:#E35C67"/>
		<stop  offset="1" style="stop-color:#381CE2"/>
	</linearGradient>
	<path class="st0" d="M7.4,14.7c-1,0-1.8,0.8-1.8,1.8s0.8,1.8,1.8,1.8c1,0,1.8-0.8,1.8-1.8S8.4,14.7,7.4,14.7z M7.4,17.5
		c-0.5,0-0.9-0.4-0.9-0.9s0.4-0.9,0.9-0.9c0.5,0,0.9,0.4,0.9,0.9S7.9,17.5,7.4,17.5z M12.3,17c0-0.1,0-0.3,0-0.4c0-0.1,0-0.3,0-0.4
		l1.1-0.8c0.3-0.2,0.4-0.7,0.2-1l-1.2-2.1c-0.2-0.3-0.6-0.4-0.9-0.3l-1.2,0.5c-0.2-0.1-0.4-0.3-0.7-0.4l-0.2-1.3
		c-0.1-0.4-0.4-0.6-0.7-0.6H6.2c-0.4,0-0.7,0.3-0.8,0.6l-0.2,1.3c-0.2,0.1-0.4,0.2-0.7,0.4L3.4,12c-0.3-0.1-0.7,0-0.9,0.3l-1.2,2.1
		c-0.2,0.3-0.1,0.7,0.2,1l1.1,0.8c0,0.1,0,0.3,0,0.4c0,0.1,0,0.3,0,0.4l-1.1,0.8c-0.3,0.2-0.4,0.7-0.2,1l1.2,2.1
		c0.2,0.3,0.6,0.5,0.9,0.3l1.2-0.5c0.2,0.1,0.4,0.3,0.7,0.4l0.2,1.3C5.5,22.7,5.9,23,6.2,23h2.4c0.4,0,0.7-0.3,0.8-0.6L9.5,21
		c0.2-0.1,0.4-0.2,0.7-0.4l1.3,0.5c0.3,0.1,0.7,0,0.9-0.3l1.2-2.1c0.2-0.3,0.1-0.7-0.2-1L12.3,17z M11.7,20.2l-1.3-0.5
		c-0.2-0.1-0.3,0-0.5,0.1c-0.3,0.2-0.6,0.4-0.9,0.5c-0.1,0.1-0.3,0.2-0.3,0.4l-0.2,1.4H6.4l-0.2-1.4c0-0.2-0.1-0.3-0.3-0.4
		C5.6,20.2,5.3,20,5,19.8c-0.1-0.1-0.3-0.1-0.5-0.1l-1.3,0.5l-1.1-1.8l1.1-0.9c0.1-0.1,0.2-0.3,0.2-0.4c0-0.2,0-0.4,0-0.5
		c0-0.2,0-0.3,0-0.5c0-0.2,0-0.3-0.2-0.4l-1.1-0.9l1.1-1.8l1.3,0.5c0.2,0.1,0.3,0,0.5-0.1c0.3-0.2,0.6-0.4,0.9-0.5
		c0.1-0.1,0.3-0.2,0.3-0.4l0.2-1.4h2.1l0.2,1.4c0,0.2,0.1,0.3,0.3,0.4c0.3,0.1,0.6,0.3,0.9,0.5c0.1,0.1,0.3,0.1,0.5,0.1l1.3-0.5
		l1.1,1.8l-1.1,0.9c-0.1,0.1-0.2,0.3-0.2,0.4c0,0.2,0,0.4,0,0.5c0,0.2,0,0.3,0,0.5c0,0.2,0,0.3,0.2,0.4l1.1,0.9L11.7,20.2z"/>
	<linearGradient id="SVGID_2_" gradientUnits="userSpaceOnUse" x1="8.9863" y1="7.4167" x2="29.9577" y2="7.4167">
		<stop  offset="0" style="stop-color:#E35C67"/>
		<stop  offset="1" style="stop-color:#381CE2"/>
	</linearGradient>
	<path class="st1" d="M16.6,5.6c-1,0-1.8,0.8-1.8,1.8c0,1,0.8,1.8,1.8,1.8s1.8-0.8,1.8-1.8C18.4,6.4,17.6,5.6,16.6,5.6z M16.6,8.3
		c-0.5,0-0.9-0.4-0.9-0.9c0-0.5,0.4-0.9,0.9-0.9s0.9,0.4,0.9,0.9S17.1,8.3,16.6,8.3z M21.5,7.8c0-0.1,0-0.3,0-0.4c0-0.1,0-0.3,0-0.4
		l1.1-0.8c0.3-0.2,0.4-0.7,0.2-1l-1.2-2.1c-0.2-0.3-0.6-0.4-0.9-0.3l-1.2,0.5c-0.2-0.1-0.4-0.3-0.7-0.4l-0.2-1.3
		C18.5,1.3,18.1,1,17.8,1h-2.4c-0.4,0-0.7,0.3-0.8,0.6L14.5,3c-0.2,0.1-0.4,0.2-0.7,0.4l-1.3-0.5c-0.3-0.1-0.7,0-0.9,0.3l-1.2,2.1
		c-0.2,0.3-0.1,0.7,0.2,1L11.7,7c0,0.1,0,0.3,0,0.4c0,0.1,0,0.3,0,0.4l-1.1,0.8c-0.3,0.2-0.4,0.7-0.2,1l1.2,2.1
		c0.2,0.3,0.6,0.5,0.9,0.3l1.2-0.5c0.2,0.1,0.4,0.3,0.7,0.4l0.2,1.3c0.1,0.4,0.4,0.6,0.7,0.6h2.4c0.4,0,0.7-0.3,0.8-0.6l0.2-1.3
		c0.2-0.1,0.4-0.2,0.7-0.4l1.3,0.5c0.3,0.1,0.7,0,0.9-0.3l1.2-2.1c0.2-0.3,0.1-0.7-0.2-1L21.5,7.8z M20.8,11.1l-1.3-0.5
		c-0.2-0.1-0.3,0-0.5,0.1c-0.3,0.2-0.6,0.4-0.9,0.5c-0.1,0.1-0.3,0.2-0.3,0.4l-0.2,1.4h-2.1l-0.2-1.4c0-0.2-0.1-0.3-0.3-0.4
		c-0.3-0.1-0.6-0.3-0.9-0.5c-0.1-0.1-0.3-0.1-0.5-0.1l-1.3,0.5l-1.1-1.8l1.1-0.9c0.1-0.1,0.2-0.3,0.2-0.4c0-0.2,0-0.4,0-0.5
		c0-0.2,0-0.3,0-0.5c0-0.2,0-0.3-0.2-0.4l-1.1-0.9l1.1-1.8l1.3,0.5c0.2,0.1,0.3,0,0.5-0.1c0.3-0.2,0.6-0.4,0.9-0.5
		c0.1-0.1,0.3-0.2,0.3-0.4l0.2-1.4h2.1l0.2,1.4c0,0.2,0.1,0.3,0.3,0.4C18.4,3.8,18.7,4,19,4.2c0.1,0.1,0.3,0.1,0.5,0.1l1.3-0.5
		l1.1,1.8l-1.1,0.9c-0.1,0.1-0.2,0.3-0.2,0.4c0,0.2,0,0.4,0,0.5c0,0.2,0,0.3,0,0.5c0,0.2,0,0.3,0.2,0.4l1.1,0.9L20.8,11.1z"/>
</g>
</svg>
