<?xml version="1.0" encoding="utf-8"?>
<!-- Generator: Adobe Illustrator 21.1.0, SVG Export Plug-In . SVG Version: 6.00 Build 0)  -->
<svg version="1.1" id="Слой_1" xmlns="http://www.w3.org/2000/svg" xmlns:xlink="http://www.w3.org/1999/xlink" x="0px" y="0px"
	 viewBox="0 0 512 512" style="enable-background:new 0 0 512 512;" xml:space="preserve">
<style type="text/css">
	.st0{fill:#333333;stroke:#000000;stroke-width:3;stroke-miterlimit:10;}
</style>
<path class="st0" d="M113.972,218.697l-1.792,3.41l0,0l0.007-0.013L113.972,218.697l-0.003-0.002
	c-6.27-3.288-14.008-0.858-17.285,5.387l0,0c-18.014,34.338-22.892,72.665-13.596,107.92l0,0v0.001c0,0.001,0,0.001,0,0.002l0,0
	c1.512,5.748,6.696,9.543,12.365,9.543c0.998-0.008,2.259-0.17,3.273-0.433v0.001c0.004-0.001,0.007-0.002,0.01-0.003
	c0.004-0.001,0.008-0.002,0.012-0.003v-0.001c6.817-1.813,10.89-8.802,9.087-15.631l0,0c-7.623-28.919-3.59-60.705,11.52-89.505l0,0
	C122.647,229.709,120.222,221.982,113.972,218.697z M100.096,225.873L100.096,225.873L100.096,225.873l-0.442-0.232L100.096,225.873
	z M97.744,337.391L97.744,337.391l0.001,0.005L97.744,337.391z M170.799,165.028l1.945-1.276l-0.008-0.011l-3.206,2.119
	l-0.008,0.005l0,0l3.214-2.124c-3.892-5.889-11.819-7.508-17.713-3.648l-0.003,0.002l2.072,3.156l0.014,0.021l-2.086-3.177
	c-9.238,6.07-18.075,13.16-25.973,20.834l0,0c-5.061,4.92-5.196,13.019-0.267,18.092l0,0c0.001,0.001,0.001,0.001,0.002,0.002
	l0.001,0.001l0,0c2.512,2.588,5.859,3.877,9.184,3.877c3.197,0,6.428-1.198,8.908-3.62l0.001,0.001
	c6.834-6.638,14.217-12.557,22.2-17.812l0,0c5.911-3.882,7.541-11.813,3.669-17.717L170.799,165.028z M131.734,183.691
	L131.734,183.691L131.734,183.691L131.734,183.691z M131.546,196.338L131.546,196.338L131.546,196.338L131.546,196.338z
	 M166.956,178.253L166.956,178.253L166.956,178.253l0.015,0.023L166.956,178.253z M247.439,84.941l-1.757-3.429l1.768,3.424
	L247.439,84.941z M243.953,92.167l0.002,0.002l-3.45,1.713L243.953,92.167z M304.772,88.744c9.351-3.72,18.337-4.452,18.507-4.467
	v-0.003c6.262-0.457,11.295-5.395,11.822-11.674h0.001c0.538-6.296-3.598-12.043-9.751-13.527
	c-18.716-4.512-35.359-5.352-49.586-2.302c-4.77-20.631-10.584-29.261-11.662-30.744l-0.011-0.015l-3.027,2.225l-0.076,0.056l0,0
	l3.104-2.281c-4.911-6.683-15.724-6.683-20.635,0l3.104,2.281l0,0l-0.004-0.003l-3.1-2.279l-0.012,0.015
	c-1.078,1.482-6.893,10.113-11.661,30.744c-14.238-3.051-30.867-2.211-49.586,2.301l0.887,3.677l-0.013-0.055L182.2,59.07h-0.002
	c-6.139,1.484-10.287,7.227-9.749,13.526c0.536,6.283,5.571,11.238,11.861,11.678v0.002c-0.104-0.008,4.301,0.346,10.055,1.812
	c3.126,0.787,6.538,1.845,9.919,3.298c-99.106,21.396-171.267,102.47-171.267,198.257c0,104.876,86.031,191.755,200.09,202.694
	l0.149,0.014l0.149,0.003l0.068-3.842l0.001-0.01l-0.069,3.852l36.458,0.644l0.143,0.002l0.145-0.008
	c116.791-6.691,208.832-95.738,208.832-203.349C478.992,190.196,405.635,109.018,304.772,88.744z M227.534,78.069
	C227.534,78.069,227.535,78.069,227.534,78.069L227.534,78.069C227.535,78.069,227.534,78.069,227.534,78.069z M245.682,81.512
	C245.683,81.512,245.683,81.512,245.682,81.512l1.768,3.424c3.061-1.579,5.303-4.317,6.319-7.542c1.016,3.226,3.26,5.953,6.31,7.537
	c2.198,1.142,4.643,1.584,7.036,1.365c-1.176,1.693-2.272,3.468-3.24,5.335l3.207,1.646l-0.05-0.025l-3.157-1.621l-0.002,0.005
	c-1.944,3.797-1.869,8.322,0.204,12.049h-0.001c2.072,3.733,5.871,6.193,10.135,6.54l0,0c102.49,8.466,179.188,85,179.188,177.417
	c0,93.416-80.735,171.779-183.898,177.777l-34.76-0.611C134.002,455.068,58.61,378.662,58.61,287.643
	c0-90.53,74.986-166.902,175.17-177.048l0,0l0,0h0.001l0,0c4.191-0.423,7.885-2.883,9.913-6.545l-3.369-1.867l0,0l0.076,0.042
	l3.292,1.825l0.008-0.014c2.016-3.673,2.123-8.1,0.253-11.867l-3.45,1.713l0,0l0,0l3.449-1.715c-1.039-2.068-2.236-4.022-3.526-5.88
	c2.388,0.216,4.822-0.224,7.012-1.346L245.682,81.512L245.682,81.512z M280.047,78.06L280.047,78.06L280.047,78.06
	C280.048,78.06,280.047,78.06,280.047,78.06z M269.949,81.566L269.949,81.566L269.949,81.566L269.949,81.566z M250.415,74.947
	l2.878,0.45l0,0L250.415,74.947l2.879,0.457l0,0L250.415,74.947L250.415,74.947L250.415,74.947z M253.766,75.471L253.766,75.471
	L253.766,75.471L253.766,75.471L253.766,75.471z M253.794,75.476L253.794,75.476L253.794,75.476L253.794,75.476L253.794,75.476z
	 M253.741,75.475L253.741,75.475L253.741,75.475L253.741,75.475L253.741,75.475z M253.769,75.48L253.769,75.48L253.769,75.48
	L253.769,75.48L253.769,75.48z M254.243,75.404l2.879-0.457l-2.878,0.449l0,0l2.878-0.449l0,0l0,0L254.243,75.404L254.243,75.404z
	 M269.591,469.265l0.001,0.01c0,0,0,0-0.001,0V469.265z M237.588,81.566l-0.309,0.628l0,0l0.248-0.503L237.588,81.566
	L237.588,81.566z M293.124,90.582C293.123,90.582,293.123,90.582,293.124,90.582C293.123,90.582,293.123,90.582,293.124,90.582
	L293.124,90.582L293.124,90.582z M215.237,91.19L215.237,91.19L215.237,91.19L215.237,91.19L215.237,91.19z M331.262,72.273
	L331.262,72.273L331.262,72.273L331.262,72.273z"/>
</svg>
