<?xml version="1.0" encoding="utf-8"?>
<!-- Generator: Adobe Illustrator 21.1.0, SVG Export Plug-In . SVG Version: 6.00 Build 0)  -->
<svg version="1.1" id="Слой_1" xmlns="http://www.w3.org/2000/svg" xmlns:xlink="http://www.w3.org/1999/xlink" x="0px" y="0px"
	 viewBox="0 0 24 24" style="enable-background:new 0 0 24 24;" xml:space="preserve">
<style type="text/css">
	.st0{fill:#B435DA;}
	.st1{fill:#189355;}
	.st2{fill:#FFFFFF;}
	.st3{fill:#DF8AFF;}
</style>
<path id="path0_fill" class="st0" d="M4.1,1c-1,0-1.7,0.8-1.7,1.8v18.5c0,1,0.8,1.8,1.7,1.8h15.7c1,0,1.8-0.8,1.8-1.8V8l-6.5-7H4.1z
	"/>
<path id="path2_fill" class="st1" d="M21.6,8v0.3h-4.4c0,0-2.2-0.4-2.1-2.3c0,0,0.1,2,2.1,2H21.6z"/>
<path id="path1_fill" class="st2" d="M5.8,13.9v5.6h7.4v-5.6H5.8z M8.1,19H6.3v-1.2h1.7V19z M8.1,17.3H6.3v-1.2h1.7V17.3z M8.1,15.6
	H6.3v-1.2h1.7V15.6z M12.7,19H8.5v-1.2h4.2V19z M12.7,17.3H8.5v-1.2h4.2V17.3z M12.7,15.6H8.5v-1.2h4.2V15.6z"/>
<path id="path3_fill" class="st3" d="M15.1,1v5c0,0.6,0.4,2,2.1,2h4.4L15.1,1z"/>
</svg>
