<?xml version="1.0" encoding="utf-8"?>
<!-- Generator: Adobe Illustrator 21.1.0, SVG Export Plug-In . SVG Version: 6.00 Build 0)  -->
<svg version="1.1" id="Layer_1" xmlns="http://www.w3.org/2000/svg" xmlns:xlink="http://www.w3.org/1999/xlink" x="0px" y="0px"
	 viewBox="0 0 60 60" style="enable-background:new 0 0 60 60;" xml:space="preserve">
<style type="text/css">
	.st0{fill:#575072;}
	.st1{fill:none;stroke:#B1AEB7;stroke-width:1.6143;stroke-linecap:round;stroke-linejoin:round;stroke-miterlimit:10;}
</style>
<g id="XMLID_18_">
	<path id="XMLID_19_" class="st0" d="M28.9,55.1c0.3,0.3,0.9,0.3,1.4,0l5.1-5.2c0.9-0.9-0.5-2.2-1.4-1.4l-3,3
		c-0.2,0.2-0.5,0.1-0.5-0.2V40.2c0-0.6-0.5-0.9-0.9-0.9c-0.6,0-0.9,0.5-0.9,0.9v11.1c0,0.3-0.2,0.5-0.5,0.2l-3-3
		c-0.9-0.9-2.2,0.5-1.4,1.4L28.9,55.1z"/>
</g>
<rect id="XMLID_7_" x="15.8" y="33.4" class="st0" width="27.6" height="10.4"/>
<path id="XMLID_5_" class="st1" d="M11.3,36.9c-4.8,0-8.8-3.9-8.8-8.8s3.9-8.8,8.8-8.8c0.6,0,1.2,0.1,1.7,0.2"/>
<path id="XMLID_6_" class="st1" d="M46.2,19.8c0.8-0.2,1.6-0.3,2.5-0.3c4.8,0,8.8,3.9,8.8,8.8S53.6,37,48.7,37h-1.5"/>
<path id="XMLID_3_" class="st1" d="M32.8,12.5c1.4-1,3.1-1.7,5.1-1.7c4.6,0,8.3,3.7,8.3,8.3c0,1.2-0.2,2.2-0.7,3.2"/>
<path id="XMLID_4_" class="st1" d="M9.9,19.5c-0.2-0.9-0.3-1.8-0.3-2.8C9.5,10,15,4.6,21.6,4.6c6,0,11.1,4.4,11.9,10.3"/>
<path id="XMLID_1_" class="st1" d="M41.9,43.9H17.1c-0.8,0-1.4-0.6-1.4-1.4V24.5c0-0.8,0.6-1.4,1.4-1.4h9.5l1.5,4h14
	c0.8,0,1.4,0.6,1.4,1.4v14.1C43.3,43.2,42.7,43.9,41.9,43.9z"/>
<line id="XMLID_2_" class="st1" x1="21.5" y1="33.4" x2="37.6" y2="33.4"/>
<line id="XMLID_8_" class="st1" x1="21.5" y1="36.6" x2="37.6" y2="36.6"/>
</svg>
