<?xml version="1.0" encoding="utf-8"?>
<!-- Generator: Adobe Illustrator 21.1.0, SVG Export Plug-In . SVG Version: 6.00 Build 0)  -->
<svg version="1.1" id="Layer_1" xmlns="http://www.w3.org/2000/svg" xmlns:xlink="http://www.w3.org/1999/xlink" x="0px" y="0px"
	 viewBox="0 0 60 60" style="enable-background:new 0 0 60 60;" xml:space="preserve">
<style type="text/css">
	.st0{fill:#575072;}
	.st1{fill:none;stroke:#B1AEB7;stroke-width:1.7915;stroke-linecap:round;stroke-linejoin:round;stroke-miterlimit:10;}
</style>
<circle id="XMLID_2_" class="st0" cx="28.8" cy="29.7" r="17.4"/>
<path id="XMLID_6_" class="st1" d="M53.3,20.6c0.9,2.3,1.4,4.6,1.7,7.2c1.3,14.5-9.5,27.1-23.9,28.4C16.6,57.4,3.9,46.7,2.6,32.2
	S12.1,5.1,26.5,3.8C32.8,3.3,38.8,5,43.7,8.3"/>
<path id="XMLID_5_" class="st1" d="M29.3,35.3c-0.6,0-1.2-0.3-1.7-0.6l-10-8.1l3.3-4.2l8.2,6.5L53.8,5.4l3.7,3.8L31.3,34.5
	C30.8,35,30,35.3,29.3,35.3z"/>
<line id="XMLID_3_" class="st1" x1="28.8" y1="7.4" x2="28.8" y2="9.3"/>
<line id="XMLID_4_" class="st1" x1="28.8" y1="50.3" x2="28.8" y2="52.1"/>
<line id="XMLID_8_" class="st1" x1="51.6" y1="30.2" x2="49.7" y2="30.2"/>
<line id="XMLID_7_" class="st1" x1="8.4" y1="30.2" x2="6.6" y2="30.2"/>
</svg>
