<?xml version="1.0" encoding="utf-8"?>
<!-- Generator: Adobe Illustrator 21.1.0, SVG Export Plug-In . SVG Version: 6.00 Build 0)  -->
<svg version="1.1" id="Layer_1" xmlns="http://www.w3.org/2000/svg" xmlns:xlink="http://www.w3.org/1999/xlink" x="0px" y="0px"
	 viewBox="0 0 60 60" style="enable-background:new 0 0 60 60;" xml:space="preserve">
<style type="text/css">
	.st0{fill:#575072;}
	.st1{fill:none;stroke:#B1AEB7;stroke-width:1.754;stroke-linecap:round;stroke-linejoin:round;stroke-miterlimit:10;}
	.st2{fill:#575072;stroke:#B1AEB7;stroke-width:1.754;stroke-linecap:round;stroke-linejoin:round;stroke-miterlimit:10;}
</style>
<path id="XMLID_3_" class="st0" d="M19,46.9H3.6c-0.6,0-1.1-0.5-1.1-1.1V32.2c0-0.6,0.5-1.1,1.1-1.1H19c0.6,0,1.1,0.5,1.1,1.1v13.5
	C20.2,46.5,19.7,46.9,19,46.9z"/>
<path id="XMLID_17_" class="st1" d="M37.1,38.2H10.8c-1.9,0-3.5-1.6-3.5-3.5V9.5C7.3,7.6,8.9,6,10.8,6h35.7C48.4,6,50,7.6,50,9.5
	v13.9"/>
<path id="XMLID_16_" class="st2" d="M54.9,54H39.7c-1.4,0-2.6-1.1-2.6-2.6V25.9c0-1.4,1.1-2.6,2.6-2.6h15.2c1.4,0,2.6,1.1,2.6,2.6
	v25.4C57.4,52.9,56.2,54,54.9,54z"/>
<line id="XMLID_10_" class="st1" x1="50.1" y1="13.8" x2="7.4" y2="13.8"/>
<circle id="XMLID_9_" class="st0" cx="11.8" cy="10" r="1.9"/>
<circle id="XMLID_12_" class="st0" cx="16.9" cy="10" r="1.9"/>
<circle id="XMLID_13_" class="st0" cx="22" cy="10" r="1.9"/>
<line id="XMLID_11_" class="st1" x1="15" y1="21.3" x2="29.7" y2="21.3"/>
<line id="XMLID_18_" class="st1" x1="43" y1="29.2" x2="51.5" y2="29.2"/>
<line id="XMLID_19_" class="st1" x1="43" y1="32.4" x2="51.5" y2="32.4"/>
<line id="XMLID_2_" class="st1" x1="43" y1="48.7" x2="51.5" y2="48.7"/>
<line id="XMLID_15_" class="st1" x1="15" y1="24.6" x2="29.7" y2="24.6"/>
<line id="XMLID_14_" class="st1" x1="15" y1="28.3" x2="29.7" y2="28.3"/>
</svg>
