<?xml version="1.0" encoding="utf-8"?>
<!-- Generator: Adobe Illustrator 21.1.0, SVG Export Plug-In . SVG Version: 6.00 Build 0)  -->
<svg version="1.1" id="Layer_1" xmlns="http://www.w3.org/2000/svg" xmlns:xlink="http://www.w3.org/1999/xlink" x="0px" y="0px"
	 viewBox="0 0 60 60" style="enable-background:new 0 0 60 60;" xml:space="preserve">
<style type="text/css">
	.st0{fill:#575072;}
	.st1{fill:none;stroke:#B1AEB7;stroke-width:1.8554;stroke-linecap:round;stroke-linejoin:round;stroke-miterlimit:10;}
</style>
<path id="XMLID_27_" class="st0" d="M38.3,20c-2.7-1.6-8.2-1.9-8.2-1.9s-5.6,0.3-8.2,1.9c-2.7,1.6-3.6,2.5-3.6,5V35
	c0,2.4,1.9,4.2,4.2,4.2h0.3h0.1v18.2h14.3V39.2h0.1h0.3c2.4,0,4.2-1.9,4.2-4.2V25C41.9,22.5,40.9,21.6,38.3,20z"/>
<path id="XMLID_9_" class="st1" d="M30.1,14.7L30.1,14.7c-2.5,0-4.6-2.1-4.6-4.6V7.1c0-2.5,2.1-4.6,4.6-4.6l0,0
	c2.5,0,4.6,2.1,4.6,4.6v2.9C34.6,12.6,32.6,14.7,30.1,14.7z"/>
<path id="XMLID_11_" class="st1" d="M14.7,18.3L14.7,18.3c-2.5,0-4.6-2.1-4.6-4.6v-2.9c0-2.5,2.1-4.6,4.6-4.6l0,0
	c2.5,0,4.6,2.1,4.6,4.6v2.9C19.3,16.2,17.2,18.3,14.7,18.3z"/>
<path id="XMLID_12_" class="st1" d="M45.3,18.3L45.3,18.3c-2.5,0-4.6-2.1-4.6-4.6v-2.9c0-2.5,2.1-4.6,4.6-4.6l0,0
	c2.5,0,4.6,2.1,4.6,4.6v2.9C49.9,16.2,48,18.3,45.3,18.3z"/>
<line id="XMLID_14_" class="st1" x1="22.9" y1="27.4" x2="22.9" y2="57.5"/>
<path id="XMLID_17_" class="st1" d="M37.4,39.2h0.3c2.4,0,4.2-1.9,4.2-4.2V25c0-2.5-0.9-3.4-3.6-5c-2.7-1.6-8.2-1.9-8.2-1.9
	s-5.6,0.3-8.2,1.9c-2.7,1.6-3.6,2.5-3.6,5V35c0,2.4,1.9,4.2,4.2,4.2h0.3"/>
<g id="XMLID_10_">
	<line id="XMLID_21_" class="st1" x1="8.6" y1="31" x2="8.6" y2="57.5"/>
	<path id="XMLID_20_" class="st1" d="M14.4,21.8c-1.9,0.1-5.2,0.7-7,1.7c-2.7,1.6-3.6,2.5-3.6,5v9.9c0,2.4,1.9,4.2,4.2,4.2h0.3"/>
	<line id="XMLID_23_" class="st1" x1="51.4" y1="31" x2="51.4" y2="57.5"/>
	<path id="XMLID_22_" class="st1" d="M45.6,21.8c1.9,0.1,5.2,0.7,7,1.7c2.7,1.6,3.6,2.5,3.6,5v9.9c0,2.4-1.9,4.2-4.2,4.2h-0.3"/>
</g>
<line id="XMLID_15_" class="st1" x1="37.2" y1="27.4" x2="37.2" y2="57.5"/>
<line id="XMLID_13_" class="st1" x1="30.1" y1="39.2" x2="30.1" y2="57.5"/>
</svg>
