<?xml version="1.0" encoding="utf-8"?>
<!-- Generator: Adobe Illustrator 21.1.0, SVG Export Plug-In . SVG Version: 6.00 Build 0)  -->
<svg version="1.1" id="Layer_1" xmlns="http://www.w3.org/2000/svg" xmlns:xlink="http://www.w3.org/1999/xlink" x="0px" y="0px"
	 viewBox="0 0 60 60" style="enable-background:new 0 0 60 60;" xml:space="preserve">
<style type="text/css">
	.st0{fill:#575072;}
	.st1{fill:none;stroke:#B1AEB7;stroke-width:1.5587;stroke-linecap:round;stroke-linejoin:round;stroke-miterlimit:10;}
</style>
<circle id="XMLID_2_" class="st0" cx="36.3" cy="44.1" r="13.4"/>
<path id="XMLID_19_" class="st1" d="M39.9,47.7l1.3-22.3H26.1H11.3l1.3,22.3c0.2,2.8,2.6,4.9,5.3,4.9h16.7
	C37.3,52.6,39.7,50.5,39.9,47.7z"/>
<polyline id="XMLID_3_" class="st1" points="12.4,25.4 10.3,15.4 12.2,6.4 17.9,13.7 20.2,25.4 "/>
<line id="XMLID_6_" class="st1" x1="17.9" y1="13.7" x2="10.3" y2="15.4"/>
<polyline id="XMLID_7_" class="st1" points="23.4,25.4 23.4,12.9 30.6,12.9 30.6,25.4 "/>
<polyline id="XMLID_5_" class="st1" points="30.6,12.9 27,4.8 23.4,12.9 "/>
<line id="XMLID_16_" class="st1" x1="27" y1="12.9" x2="27" y2="25.4"/>
<path id="XMLID_18_" class="st1" d="M34.2,25.4l2.7-18c0-0.9,0.8-1.6,1.7-1.4l2.9,0.3c0.8,0.1,1.4,0.8,1.4,1.6l-2.7,17.6"/>
<path id="XMLID_8_" class="st1" d="M36.8,11l6.2,0.9c1.1,0.1,2,1,1.9,2.1l-1.4,9.1"/>
<path id="XMLID_1_" class="st1" d="M16.8,42.9v2.7c0,1.4,1.2,2.7,2.7,2.7h4.2"/>
<line id="XMLID_4_" class="st1" x1="27" y1="4.8" x2="27" y2="2.5"/>
</svg>
