<?xml version="1.0" encoding="utf-8"?>
<!-- Generator: Adobe Illustrator 21.1.0, SVG Export Plug-In . SVG Version: 6.00 Build 0)  -->
<svg version="1.1" id="Layer_1" xmlns="http://www.w3.org/2000/svg" xmlns:xlink="http://www.w3.org/1999/xlink" x="0px" y="0px"
	 viewBox="0 0 60 60" style="enable-background:new 0 0 60 60;" xml:space="preserve">
<style type="text/css">
	.st0{fill:#575072;}
	.st1{fill:none;stroke:#B1AEB7;stroke-width:1.5391;stroke-linecap:round;stroke-linejoin:round;stroke-miterlimit:10;}
</style>
<path id="XMLID_17_" class="st0" d="M53.9,18.5c-3.2-4.1-7.3-7.8-7-14c-2.5,2.9-3.4,5.8-2.8,9.2c0.3,1.8,0.7,3.7,0.2,5.5
	c-0.2,0.6-0.3,1.3-1,1.3c-0.8,0-0.9-0.7-1-1.3C41.8,17.8,42.1,16,42,14c-3,4.3-4.8,8.6-5,13.4c-0.1,3.6,1.3,6.6,4.6,8.2
	c3.1,1.5,6.4,1.6,9.5,0.5c4.3-1.5,6.5-4.6,6.4-9.1C57.4,23.6,55.8,21.1,53.9,18.5z"/>
<path id="XMLID_10_" class="st1" d="M22.5,27h26.3c1.1,0,2.1,0.9,2.1,2.1v20l-6.4,6.4H18.7c-1.1,0-2.1-0.9-2.1-2.1V32.6"/>
<path id="XMLID_4_" class="st1" d="M19.7,24.2l8.9,9.1v0.1c0,1.4-1.1,2.7-2.7,2.7h-1.5c-1,0-1.9-0.4-2.8-1.1L20,33.3
	c-0.4-0.4-1-0.7-1.6-0.7h-2.6c-2.3,0-4-1.8-4-4l0,0"/>
<path id="XMLID_9_" class="st1" d="M31.2,27L26,20.9c-0.8-1-2.1-1.5-3.3-1.5H6.4"/>
<path id="XMLID_12_" class="st1" d="M16.8,39.2c0,0-1.1,0-3.9,0c-2.7,0-4.3-3.2-4.3-3.2H6.3"/>
<polyline id="XMLID_13_" class="st1" points="2.5,17.8 6.4,17.8 6.4,38.2 2.5,38.2 "/>
<line id="XMLID_14_" class="st1" x1="36.9" y1="34.2" x2="36.9" y2="49.8"/>
<line id="XMLID_15_" class="st1" x1="32.8" y1="34.2" x2="32.8" y2="42"/>
<polyline id="XMLID_11_" class="st1" points="47.2,47.6 43.2,47.6 43.2,52 "/>
</svg>
