<?xml version="1.0" encoding="utf-8"?>
<!-- Generator: Adobe Illustrator 21.1.0, SVG Export Plug-In . SVG Version: 6.00 Build 0)  -->
<svg version="1.1" id="Слой_1" xmlns="http://www.w3.org/2000/svg" xmlns:xlink="http://www.w3.org/1999/xlink" x="0px" y="0px"
	 viewBox="0 0 512 512" style="enable-background:new 0 0 512 512;" xml:space="preserve">
<style type="text/css">
	.st0{fill:#333333;stroke:#000000;stroke-width:3;stroke-miterlimit:10;}
</style>
<path class="st0" d="M481.794,150.031l0.001,0c-3.365-10.96-2.357-23.969,3.45-36.655h0c5.375-12.001,7.096-26.627,4.692-39.812h0
	c-4.936-25.947-25.623-46.635-51.572-51.572v0c-13.184-2.405-27.813-0.682-39.812,4.693l0,0
	c-12.686,5.807-25.693,6.813-36.652,3.449l0,0c-83.792-25.726-183.803,4.938-255.28,76.414l6.288,6.288l0,0l-2.515-2.515
	l-3.773-3.773v0C35.144,178.026,4.48,278.037,30.205,361.829l0,0c3.364,10.957,2.357,23.967-3.451,36.655l8.086,3.701l0,0
	l-8.086-3.701h0c-5.373,12-7.095,26.623-4.693,39.805h0l0.109-0.021l8.627-1.641v0l-8.736,1.662
	c4.935,25.948,25.62,46.636,51.567,51.575l0,0c4.091,0.768,8.607,1.195,12.68,1.206c9.049-0.05,18.864-2.166,27.139-5.899l0,0.001
	c12.684-5.807,25.692-6.815,36.651-3.45v0c83.794,25.73,183.804-4.937,255.282-76.415l-0.001-0.001
	C476.857,333.833,507.519,233.82,481.794,150.031z M103.861,464.23l-3.702-8.085c-6.708,3.193-12.956,3.909-20.559,2.357h0
	l-1.513,7.948l-0.15,0.788l1.663-8.736c-13.122-2.497-23.678-13.053-26.174-26.176c-1.55-7.6-0.831-13.846,2.358-20.553
	l-8.086-3.701l1.333,0.61l6.752,3.091h0c8.829-19.29,10.761-40.358,4.942-59.312v-0.002l-8.271,2.54l-0.23,0.071c0,0,0,0,0-0.001
	l8.501-2.61c-21.886-71.283,4.279-159.144,68.47-223.334c49.107-49.107,112.263-76.078,171.207-76.078
	c18.146-0.022,35.259,2.4,52.129,7.607c18.956,5.82,40.024,3.888,59.312-4.941l0,0c6.706-3.19,12.954-3.909,20.555-2.359l0,0
	c13.124,2.497,23.681,13.055,26.178,26.177h0c1.551,7.601,0.832,13.849-2.358,20.555l0,0c-8.83,19.288-10.762,40.357-4.943,59.313
	l0,0c21.886,71.283-4.279,159.144-68.47,223.335c-64.189,64.191-152.052,90.353-223.336,68.47h0l-1.56,5.081l-0.528,1.72
	l2.088-6.801c-18.957-5.819-40.024-3.89-59.311,4.941h0L103.861,464.23L103.861,464.23z M464.303,103.789l-5.569-2.55
	L464.303,103.789C464.303,103.788,464.303,103.788,464.303,103.789L464.303,103.789z M467.312,77.87L467.312,77.87l-2.912,0.554
	L467.312,77.87L467.312,77.87z M436.703,30.727C436.703,30.727,436.702,30.727,436.703,30.727L436.703,30.727l1.621-8.521
	L436.703,30.727z M359.292,38.635L359.292,38.635C359.291,38.635,359.291,38.635,359.292,38.635l2.399-7.816L359.292,38.635z
	 M152.709,473.222L152.709,473.222L152.709,473.222L152.709,473.222z M111.377,359.852L111.377,359.852
	c6.082-1.867,9.496-8.311,7.629-14.39h0c-12.526-40.798-7.267-88.35,15.236-133.931l0,0c2.816-5.703,0.475-12.609-5.229-15.424
	c-5.703-2.815-12.609-0.477-15.425,5.229l0,0c-24.93,50.496-30.969,104.093-16.601,150.887l0,0
	c1.523,4.959,6.084,8.138,11.007,8.138C109,360.349,110.354,360.153,111.377,359.852z M114.756,346.767L114.756,346.767l0.207-0.064
	L114.756,346.767z M130.256,209.563L130.256,209.563L130.256,209.563L130.256,209.563z M117.576,203.304L117.576,203.304
	l-0.099-0.049L117.576,203.304z M392.905,166.393l3.903-1.198l0.101-0.031L392.905,166.393c2.056,6.686,3.621,13.516,4.72,20.603
	l0,0c0.885,5.689,5.788,9.747,11.371,9.747c0.528-0.003,1.236-0.057,1.781-0.138v0c6.285-0.978,10.585-6.866,9.608-13.15
	l-4.283,0.666l1.302-0.203l2.981-0.463v0c-1.257-8.064-3.118-16.18-5.461-23.822l0-0.001l-4.25,1.305l0,0l4.25-1.305
	c-1.868-6.083-8.314-9.493-14.389-7.629h0l1.211,3.948l0.093,0.303l0,0l-1.304-4.251
	C394.454,153.869,391.038,160.312,392.905,166.393L392.905,166.393z M402.019,186.312
	C402.019,186.313,402.019,186.313,402.019,186.312l-0.861,0.134L402.019,186.312z M410.093,192.212L410.093,192.212L410.093,192.212
	l0.006,0.04L410.093,192.212z M418.151,213.575l4.446,0.042l0,0.001L418.151,213.575z M379.699,321.14l-2.14,3.897l0,0
	L379.699,321.14z M377.559,325.037l2.14-3.897l0,0l0,0L377.559,325.037c1.615,0.842,3.863,1.392,5.537,1.423
	c4.054,0,8.003-2.153,10.101-5.975l0,0l-3.133-1.72l-0.764-0.42l0,0l3.897,2.14c18.755-34.219,29.014-71.501,29.399-106.867
	l-4.446-0.044l0,0v0l4.446,0.042c0.06-6.358-5.043-11.566-11.404-11.628l-0.043,4.446c0,0,0,0,0,0l0.043-4.446h-0.043
	c-0.024,0-0.047,0-0.071,0c-6.307,0-11.453,5.081-11.515,11.403l0,0c-0.277,31.892-9.366,64.762-26.556,96.007h0
	C369.945,314.975,371.985,321.976,377.559,325.037z M404.01,213.436L404.01,213.436L404.01,213.436l-0.494-0.005L404.01,213.436z
	 M376.905,311.539L376.905,311.539l-0.168-0.092L376.905,311.539z"/>
</svg>
