<?xml version="1.0" encoding="utf-8"?>
<!-- Generator: Adobe Illustrator 21.1.0, SVG Export Plug-In . SVG Version: 6.00 Build 0)  -->
<svg version="1.1" id="Слой_1" xmlns="http://www.w3.org/2000/svg" xmlns:xlink="http://www.w3.org/1999/xlink" x="0px" y="0px"
	 viewBox="0 0 24 24" style="enable-background:new 0 0 24 24;" xml:space="preserve">
<style type="text/css">
	.st0{fill:url(#path0_fill_1_);}
	.st1{fill:#FFFFFF;}
</style>
<linearGradient id="path0_fill_1_" gradientUnits="userSpaceOnUse" x1="0.0513917" y1="24.1530094" x2="0.5879771" y2="24.1530094" gradientTransform="matrix(31.3623009 53.2425995 31.4230003 -53.139801 -753.7037964 1280.5494385)">
	<stop  offset="0" style="stop-color:#E35C67"/>
	<stop  offset="1" style="stop-color:#381CE2"/>
</linearGradient>
<path id="path0_fill_2_" class="st0" d="M19.2038631,8.0240297c0,3.96381-7.2439022,14.8260679-7.2439022,14.8260679
	S4.7160587,11.9878397,4.7160587,8.0240297c0-3.9619322,3.2423706-7.1739321,7.2439022-7.1739321
	C15.9605274,0.8500977,19.2038631,4.0620975,19.2038631,8.0240297z"/>
<path id="path0_fill_3_" class="st1" d="M12.58249,9.2571497c0.8737221-0.1048489,2.1901264-0.2912531,4.3220339-0.5824957
	c-2.1319075-0.2912416-3.4715996-0.4659872-4.3220339-0.5708351C12.4776411,7.1951437,12.2912426,5.9136758,12,3.7817791
	c-0.2912426,2.1318967-0.4310389,3.4366629-0.5824852,4.3220396c-0.8504286,0.1048479-2.1901426,0.2912416-4.3220391,0.5824852
	c2.1318965,0.2912416,3.4949088,0.4659967,4.3220391,0.5708456C11.5340128,10.0725985,11.7087574,11.4472771,12,13.5791845
	C12.3028917,11.4472771,12.4776411,10.107584,12.58249,9.2571497z"/>
</svg>
