<?xml version="1.0" encoding="utf-8"?>
<!-- Generator: Adobe Illustrator 21.1.0, SVG Export Plug-In . SVG Version: 6.00 Build 0)  -->
<svg version="1.1" id="Слой_1" xmlns="http://www.w3.org/2000/svg" xmlns:xlink="http://www.w3.org/1999/xlink" x="0px" y="0px"
	 viewBox="0 0 24 24" style="enable-background:new 0 0 24 24;" xml:space="preserve">
<style type="text/css">
	.st0{fill:url(#SVGID_1_);}
</style>
<linearGradient id="SVGID_1_" gradientUnits="userSpaceOnUse" x1="3.4506" y1="12" x2="31.6872" y2="12">
	<stop  offset="0" style="stop-color:#E35C67"/>
	<stop  offset="1" style="stop-color:#381CE2"/>
</linearGradient>
<path class="st0" d="M12,1C8,1,4.8,4.2,4.8,8.2C4.8,12.1,12,23,12,23s7.2-10.9,7.2-14.8C19.2,4.2,16,1,12,1z M12,13.8
	c-0.4-2.6-0.6-4.3-0.7-5.3c-1-0.1-2.7-0.3-5.3-0.7c2.6-0.4,4.3-0.6,5.3-0.7C11.5,6,11.7,4.4,12,1.7c0.4,2.6,0.6,4.2,0.7,5.3
	c1,0.1,2.7,0.3,5.3,0.7c-2.6,0.4-4.2,0.6-5.3,0.7C12.6,9.5,12.4,11.2,12,13.8z"/>
</svg>
