<svg xmlns="http://www.w3.org/2000/svg" width="13.5" height="20.031" viewBox="0 0 13.5 20.031">
  <metadata><?xpacket begin="﻿" id="W5M0MpCehiHzreSzNTczkc9d"?>
<x:xmpmeta xmlns:x="adobe:ns:meta/" x:xmptk="Adobe XMP Core 5.6-c138 79.159824, 2016/09/14-01:09:01        ">
   <rdf:RDF xmlns:rdf="http://www.w3.org/1999/02/22-rdf-syntax-ns#">
      <rdf:Description rdf:about=""/>
   </rdf:RDF>
</x:xmpmeta>
                                                                                                    
                                                                                                    
                                                                                                    
                                                                                                    
                                                                                                    
                                                                                                    
                                                                                                    
                                                                                                    
                                                                                                    
                                                                                                    
                                                                                                    
                                                                                                    
                                                                                                    
                                                                                                    
                                                                                                    
                                                                                                    
                                                                                                    
                                                                                                    
                                                                                                    
                                                                                                    
                           
<?xpacket end="w"?></metadata>
<defs>
    <style>
      .cls-1 {
        fill: #3b3c46;
        fill-rule: evenodd;
      }
    </style>
  </defs>
  <path id="icon" class="cls-1" d="M730.25,335.692a6.154,6.154,0,0,0-6.055,6.234V345.7a7.069,7.069,0,0,0-.7,3.056,6.753,6.753,0,1,0,13.5,0,7.1,7.1,0,0,0-.7-3.056v-3.772a6.154,6.154,0,0,0-6.055-6.234h0Zm0,2.369A3.815,3.815,0,0,1,734,341.926v1.052a6.589,6.589,0,0,0-7.508,0v-1.052A3.815,3.815,0,0,1,730.25,338.061Zm0,8.1a1.3,1.3,0,0,1,1.29,1.324,1.332,1.332,0,0,1-.491,1.045l0.327,2.82h-2.249l0.33-2.82a1.35,1.35,0,0,1-.5-1.045,1.3,1.3,0,0,1,1.29-1.324h0Z" transform="translate(-723.5 -335.688)"/>
</svg>
