<?xml version="1.0" encoding="utf-8"?>
<!-- Generator: Adobe Illustrator 21.1.0, SVG Export Plug-In . SVG Version: 6.00 Build 0)  -->
<svg version="1.1" id="Слой_1" xmlns="http://www.w3.org/2000/svg" xmlns:xlink="http://www.w3.org/1999/xlink" x="0px" y="0px"
	 viewBox="0 0 130 70" style="enable-background:new 0 0 130 70;" xml:space="preserve">
<style type="text/css">
	.st0{fill:url(#SVGID_1_);}
	.st1{fill:url(#SVGID_2_);}
	.st2{fill:url(#SVGID_3_);}
	.st3{fill:url(#SVGID_4_);}
	.st4{fill:url(#SVGID_5_);}
</style>
<linearGradient id="SVGID_1_" gradientUnits="userSpaceOnUse" x1="55.7586" y1="4.1685" x2="224.3875" y2="4.1685">
	<stop  offset="0" style="stop-color:#E35C67"/>
	<stop  offset="1" style="stop-color:#381CE2"/>
</linearGradient>
<path class="st0" d="M116.5,3.9c-0.1-0.2-0.1-0.6-0.2-1.1c0-0.3-0.1-0.5-0.1-0.8c0,0.4-0.1,0.7-0.1,1c0,0.4-0.1,0.7-0.1,0.9
	c-0.3,0-0.8,0.1-1.4,0.2l-0.5,0.1c0.9,0.1,1.5,0.2,1.9,0.2c0,0.1,0.1,0.4,0.1,0.7c0.1,0.4,0.1,0.7,0.2,1.2c0.1-0.9,0.2-1.5,0.2-1.9
	c0.3,0,0.6-0.1,1.2-0.2c0.2,0,0.4-0.1,0.7-0.1C117.5,4,116.9,3.9,116.5,3.9z"/>
<linearGradient id="SVGID_2_" gradientUnits="userSpaceOnUse" x1="59.2978" y1="15.4965" x2="191.9674" y2="15.4965">
	<stop  offset="0" style="stop-color:#E35C67"/>
	<stop  offset="1" style="stop-color:#381CE2"/>
</linearGradient>
<path class="st1" d="M115.7,15.4c0.2-0.4,0.4-0.9,0.8-1.6v-0.1c0.1-0.2,0.2-0.5,0.4-0.8c-0.9,1-1.5,1.6-1.8,2
	c-0.4-0.2-0.8-0.4-1.5-0.7c-0.3-0.1-0.6-0.3-0.9-0.5c0.4,0.4,0.8,0.7,1,0.9c0.4,0.4,0.7,0.7,1,0.9c-0.2,0.4-0.5,0.9-0.9,1.8
	l-0.3,0.7c0.9-1,1.5-1.7,1.8-2c0.2,0.1,0.5,0.3,0.9,0.5c0.4,0.2,0.9,0.5,1.5,0.7C116.7,16.3,116.1,15.7,115.7,15.4z"/>
<linearGradient id="SVGID_3_" gradientUnits="userSpaceOnUse" x1="69.1401" y1="7.6654" x2="206.3302" y2="7.6654">
	<stop  offset="0" style="stop-color:#E35C67"/>
	<stop  offset="1" style="stop-color:#381CE2"/>
</linearGradient>
<path class="st2" d="M127.5,6.8c-0.3,0.1-0.6,0.2-0.9,0.3c-0.4,0.2-0.7,0.2-0.9,0.3c-0.1-0.3-0.4-0.7-0.7-1.2l-0.3-0.4
	c0.2,0.9,0.4,1.5,0.5,1.8c-0.1,0.1-0.3,0.2-0.6,0.4c-0.3,0.2-0.6,0.4-1,0.6c0.9-0.2,1.5-0.4,1.8-0.5c0.1,0.2,0.3,0.5,0.6,1
	c0.1,0.2,0.2,0.4,0.5,0.5c-0.2-0.9-0.4-1.5-0.5-1.8c0.2-0.1,0.5-0.3,0.9-0.6C127.1,7.1,127.3,6.9,127.5,6.8z"/>
<linearGradient id="SVGID_4_" gradientUnits="userSpaceOnUse" x1="11.9527" y1="-17.8498" x2="188.598" y2="135.7056">
	<stop  offset="0" style="stop-color:#E35C67"/>
	<stop  offset="1" style="stop-color:#381CE2"/>
</linearGradient>
<path class="st3" d="M118.4,43.3c0.1,0.1,0.1,0.2,0.1,0.4l-0.3,1.5c0,0.1-0.1,0.3-0.3,0.4c-0.2,0.1-0.4,0.2-0.6,0.2H94.6
	c-1,0-1.9-0.1-2.6-0.2c-0.6-0.1-1.1-0.4-1.5-0.7c-0.3-0.4-0.5-0.8-0.6-1.4c0-0.6,0.1-1.3,0.3-2.2l0.5-2.1c0.2-0.9,0.5-1.6,0.8-2.2
	c0.3-0.6,0.8-1.1,1.3-1.4c0.5-0.4,1.2-0.7,1.9-0.8c0.8-0.1,1.7-0.2,2.7-0.2h10.4c0.4,0,0.7-0.1,0.8-0.2c0.2-0.1,0.3-0.4,0.4-0.8
	l0.5-1.9c0.1-0.4,0.1-0.7,0-0.8c-0.1-0.1-0.3-0.2-0.7-0.2H94.2c-0.2,0-0.4-0.1-0.5-0.2c-0.1-0.1-0.1-0.3-0.1-0.5l0.4-1.5
	c0-0.2,0.1-0.3,0.3-0.4c0.2-0.1,0.4-0.2,0.6-0.2h14.7c1.1,0,1.9,0.1,2.6,0.2c0.7,0.2,1.2,0.4,1.6,0.8c0.3,0.4,0.5,0.8,0.6,1.4
	c0.1,0.6,0,1.3-0.2,2.2l-1.7,6.9c0,0.1-0.1,0.3-0.3,0.4c-0.2,0.1-0.4,0.2-0.6,0.2h-3.3c-0.2,0-0.4-0.1-0.5-0.2
	c-0.1-0.1-0.1-0.2-0.1-0.4l0-2h-11c-0.4,0-0.7,0.1-0.8,0.2c-0.1,0.1-0.2,0.4-0.3,0.8l-0.9,3.5c-0.1,0.4-0.1,0.7,0,0.8
	c0.1,0.1,0.3,0.2,0.7,0.2h22.6C118.1,43.1,118.3,43.2,118.4,43.3z M121.4,9.3c0.2-0.9,0.5-2.1,0.9-3.6c0.2-0.7,0.3-1.5,0.6-2.4
	c-0.6,1.1-1.1,2.1-1.5,2.9c-0.6,1.1-1.1,2-1.4,2.7c-1-0.2-2.3-0.6-4.3-1.1c-0.5-0.1-1.1-0.3-1.7-0.4c2.6,1.5,4.3,2.4,5.3,3
	c-13.1,1.4-78.1,9.6-78.1,9.6L14,23.6c-1.7,0.2-3.1,1.4-3.6,3L3.2,45.8C2.1,48.8,4.3,52,7.4,52h50.3h21.1c1,0,1.9-0.1,2.7-0.2
	c0.8-0.1,1.4-0.4,1.9-0.8c0.5-0.3,0.9-0.8,1.3-1.4c0.3-0.6,0.6-1.3,0.8-2.2L89,32.6c0.2-0.9,0.3-1.6,0.2-2.2c-0.1-0.6-0.3-1-0.6-1.4
	c-0.4-0.4-0.9-0.6-1.6-0.8c-0.7-0.1-1.5-0.2-2.6-0.2h-11c-1,0-1.9,0.1-2.7,0.2c-0.7,0.1-1.4,0.4-1.9,0.8c-0.5,0.3-1,0.8-1.3,1.4
	c-0.3,0.6-0.6,1.3-0.8,2.2l-2.5,10.3H43.9c-0.4,0-0.6-0.1-0.7-0.2c-0.1-0.1-0.1-0.4,0-0.8l2.5-10.1c0.1-0.4,0.2-0.7,0.3-0.8
	c0.1-0.1,0.4-0.2,0.8-0.2h10.6c0.4,0,0.6,0.1,0.7,0.2c0.1,0.1,0.1,0.4,0,0.8l-0.7,2.9h-9.2c-0.2,0-0.4,0.1-0.6,0.2
	c-0.2,0.1-0.3,0.3-0.3,0.4L47,36.7c0,0.2,0,0.3,0.1,0.4c0.1,0.1,0.3,0.2,0.5,0.2h13.2c0.2,0,0.4-0.1,0.6-0.2
	c0.2-0.1,0.3-0.3,0.3-0.4l1-4.1c0.2-0.9,0.3-1.6,0.2-2.2c0-0.6-0.2-1-0.6-1.4c-0.4-0.4-0.9-0.6-1.6-0.8c-0.7-0.1-1.5-0.2-2.6-0.2
	h-11c-1,0-1.9,0.1-2.7,0.2c-0.2,0-0.5,0.1-0.7,0.2c0-0.1-0.1-0.2-0.1-0.2c-0.1-0.1-0.3-0.2-0.5-0.2h-6.7c-0.1,0-0.2,0-0.4,0.1
	c-0.2,0.1-0.3,0.1-0.4,0.2l-12,14l-1.8-4.2L17,38.9l2.6,6.4c0,0.1,0.1,0.2,0.3,0.3c0.1,0.1,0.3,0.1,0.4,0.1h4.2c0.1,0,0.3,0,0.4-0.1
	c0.2-0.1,0.3-0.2,0.4-0.3L38,30.8h3.3c-0.2,0.5-0.4,1.1-0.6,1.8l-2.1,8.7c-0.2,0.9-0.3,1.6-0.3,2.2c0.1,0.6,0.3,1,0.6,1.4
	c0.4,0.3,0.9,0.6,1.5,0.7c0.7,0.1,1.6,0.2,2.6,0.2h21.5h2.5h10.7c0.2,0,0.4-0.1,0.6-0.2c0.2-0.1,0.3-0.3,0.3-0.4l0.3-1.5
	c0-0.2,0-0.3-0.1-0.4c-0.1-0.1-0.3-0.2-0.5-0.2h-9.2l2.7-11.1c0.1-0.4,0.2-0.7,0.4-0.8c0.1-0.1,0.4-0.2,0.8-0.2h10.6
	c0.4,0,0.6,0.1,0.7,0.2c0.1,0.1,0.1,0.4,0,0.8l-3.9,16.4c-0.1,0.4-0.2,0.7-0.4,0.8c-0.1,0.1-0.4,0.2-0.8,0.2l-21.5-0.1h-1.8h-0.1
	H7.3c-1.3,0-2.1-1.3-1.7-2.5l7-18.5c0,0,0,0,0.1,0l1.1,2.7l2,5l4.9-0.8l-2.5-5.9c0.6-0.3,1.1-0.6,1.3-1.2c0.5-0.9,0.6-1.8,0.6-2.5
	l21.5-3c0,0,64.7-9.9,77.7-12.1c-0.1,0.6-0.3,1.3-0.5,2.2c-0.2,1-0.5,2.2-0.9,3.6c1.4-2.6,2.3-4.2,2.9-5.3c0.9,0.2,2.2,0.5,3.9,0.9
	c0.6,0.1,1.3,0.3,2.1,0.5C124.2,10.8,122.5,9.9,121.4,9.3z"/>
<linearGradient id="SVGID_5_" gradientUnits="userSpaceOnUse" x1="57.4302" y1="80.5421" x2="65.0949" y2="47.3426">
	<stop  offset="0" style="stop-color:#E35C67"/>
	<stop  offset="0.5522" style="stop-color:#9E4299"/>
	<stop  offset="1" style="stop-color:#632CC3"/>
	<stop  offset="1" style="stop-color:#381CE2"/>
</linearGradient>
<path class="st4" d="M49.9,61.5c0,0.2,0,0.3,0.1,0.5c0.1,0.1,0.3,0.3,0.6,0.5c0.3,0.2,0.6,0.5,0.8,0.8c0,0.2,0.1,0.6,0.1,1
	c0,0.6-0.2,1.1-0.6,1.5c-0.4,0.4-1,0.5-1.7,0.5c-0.6,0-1.2-0.1-1.5-0.4v-1.2c0.6,0.3,1.1,0.5,1.5,0.5c0.3,0,0.6-0.1,0.8-0.2
	c0.2-0.1,0.3-0.3,0.3-0.5c0-0.1,0-0.2-0.1-0.3c0-0.1-0.1-0.2-0.2-0.3c-0.1-0.1-0.3-0.2-0.5-0.4c-0.4-0.3-0.7-0.6-0.8-0.9
	c-0.2-0.3-0.2-0.6-0.2-0.9c0-0.4,0.1-0.7,0.3-1c0.2-0.3,0.4-0.5,0.8-0.7c0.3-0.2,0.7-0.3,1.1-0.3c0.6,0,1.2,0.1,1.7,0.4l-0.5,1
	c-0.4-0.2-0.9-0.3-1.2-0.3c-0.2,0-0.4,0.1-0.6,0.2C49.9,61.2,49.9,61.3,49.9,61.5z M44.3,66.1H43l-0.1-1.5h-2l-0.7,1.5h-1.4l3.3-6.4
	h1.6L44.3,66.1z M42.8,63.4l-0.1-1.5c0-0.3,0-0.7,0-1.1v-0.2c-0.2,0.3-0.3,0.7-0.5,1.1l-0.8,1.7H42.8z M5.6,59.8l-1.3,6
	c-0.1,0.3-0.2,0.6-0.4,0.8s-0.4,0.3-0.7,0.3c-0.2,0-0.4,0-0.7-0.1v1.1c0.3,0.1,0.5,0.1,0.8,0.1c0.7,0,1.2-0.1,1.5-0.4
	c0.4-0.4,0.7-0.9,0.8-1.6l1.3-6.2H5.6z M14.2,61l0.2-1.1H11l-1.3,6.3h3.4l0.3-1.1h-2.2l0.3-1.7h2.1l0.2-1.1h-2.1l0.3-1.4H14.2z
	 M17.6,59.9L17.4,61h1.5l-1,5.2h1.3l1.1-5.2h1.5l0.2-1.1H17.6z M36.2,60l-1.4,3.4c-0.3,0.6-0.5,1.1-0.6,1.5c0-0.4,0-0.8,0-1.2
	L34.1,60h-1.2l-1.6,3.5c-0.1,0-0.2,0.3-0.3,0.6c-0.1,0.3-0.2,0.6-0.3,0.8c0-0.2,0-0.4,0-0.8c0-0.4,0-0.6,0-0.8v-3.4h-1.2l0.2,6.3
	h1.5l1.4-3.2c0.2-0.4,0.4-0.9,0.5-1.3c0,0.2,0,0.4,0,0.8v0.6l0.1,3.2h1.5l2.8-6.3H36.2z M59.4,59.9l-0.5,2.5h-2l0.5-2.5h-1.3
	l-1.3,6.3h1.3l0.6-2.8h2l-0.6,2.8h1.3l1.3-6.3H59.4z M70.9,61.1c0.2-0.1,0.4-0.2,0.6-0.2c0.3,0,0.8,0.1,1.2,0.3l0.5-1
	c-0.5-0.3-1.1-0.4-1.7-0.4c-0.4,0-0.8,0.1-1.1,0.3c-0.4,0.2-0.6,0.4-0.8,0.7c-0.2,0.3-0.3,0.6-0.3,1c0,0.3,0,0.6,0.2,0.9
	c0.1,0.3,0.4,0.6,0.8,0.9c0.2,0.2,0.4,0.3,0.5,0.4c0.1,0.1,0.2,0.2,0.2,0.3c0.1,0.1,0.1,0.2,0.1,0.3c0,0.2-0.1,0.4-0.3,0.5
	c-0.2,0.1-0.5,0.2-0.8,0.2c-0.4,0-0.9-0.2-1.5-0.5v1.2c0.3,0.3,0.9,0.4,1.5,0.4c0.7,0,1.3-0.1,1.7-0.5c0.4-0.4,0.6-0.9,0.6-1.5
	c0-0.4,0-0.8-0.1-1c-0.2-0.3-0.5-0.6-0.8-0.8c-0.3-0.2-0.5-0.4-0.6-0.5c-0.1-0.2-0.1-0.3-0.1-0.5C70.7,61.3,70.7,61.2,70.9,61.1z
	 M79.7,59.8l-1.6,2.6l-0.6-2.6h-1.3l1,3.9l-0.5,2.5h1.3l0.5-2.5l2.7-3.9H79.7z M85.7,61.1c0.2-0.1,0.4-0.2,0.6-0.2
	c0.3,0,0.8,0.1,1.2,0.3l0.5-1c-0.5-0.3-1.1-0.4-1.7-0.4c-0.4,0-0.8,0.1-1.1,0.3c-0.4,0.2-0.6,0.4-0.8,0.7c-0.2,0.3-0.3,0.6-0.3,1
	c0,0.3,0,0.6,0.2,0.9c0.1,0.3,0.4,0.6,0.8,0.9c0.2,0.2,0.4,0.3,0.5,0.4c0.1,0.1,0.2,0.2,0.2,0.3c0.1,0.1,0.1,0.2,0.1,0.3
	c0,0.2-0.1,0.4-0.3,0.5c-0.2,0.1-0.5,0.2-0.8,0.2c-0.4,0-0.9-0.2-1.5-0.5v1.2c0.3,0.3,0.9,0.4,1.5,0.4c0.7,0,1.3-0.1,1.7-0.5
	c0.4-0.4,0.6-0.9,0.6-1.5c0-0.4-0.1-0.8-0.1-1c-0.2-0.3-0.5-0.6-0.8-0.8c-0.3-0.2-0.5-0.4-0.6-0.5c-0.1-0.2-0.1-0.3-0.1-0.5
	C85.5,61.3,85.5,61.2,85.7,61.1z M91.2,59.9L91,61h1.5l-1,5.2h1.3l1.1-5.2h1.5l0.2-1.1H91.2z M102.3,61l0.2-1.1H99l-1.3,6.3h3.4
	l0.3-1.1h-2.2l0.3-1.7h2.1l0.2-1.1h-2.1l0.3-1.4H102.3z M110.8,59.7L110.8,59.7l-2.4,4.8l-0.3-4.7h-1.7l-1.3,6.3h1.2
	c0.5-2.2,0.7-3.4,0.8-3.9c0.1-0.4,0.1-0.8,0.2-1l0.3,4.9h1.2l2.5-4.9c-0.1,0.6-0.3,1.2-0.5,1.9l-0.6,3h1.2l1.3-6.3H110.8z
	 M117.8,61.1c0.2-0.1,0.4-0.2,0.6-0.2c0.3,0,0.8,0.1,1.2,0.3l0.5-1c-0.5-0.3-1.1-0.4-1.7-0.4c-0.4,0-0.8,0.1-1.1,0.3
	c-0.4,0.2-0.6,0.4-0.8,0.7c-0.2,0.3-0.3,0.6-0.3,1c0,0.3,0,0.6,0.2,0.9c0.1,0.3,0.4,0.6,0.8,0.9c0.3,0.2,0.4,0.3,0.5,0.4
	c0.1,0.1,0.2,0.2,0.2,0.3c0.1,0.1,0.1,0.2,0.1,0.3c0,0.2-0.1,0.4-0.3,0.5c-0.2,0.1-0.5,0.2-0.8,0.2c-0.4,0-0.9-0.2-1.5-0.5v1.2
	c0.3,0.3,0.9,0.4,1.5,0.4c0.7,0,1.3-0.1,1.7-0.5c0.4-0.4,0.6-0.9,0.6-1.5c0-0.4-0.1-0.8-0.1-1c-0.2-0.3-0.5-0.6-0.8-0.8
	c-0.3-0.2-0.5-0.4-0.6-0.5c-0.1-0.2-0.1-0.3-0.1-0.5C117.6,61.3,117.6,61.2,117.8,61.1z"/>
</svg>
