<?xml version="1.0" encoding="utf-8"?>
<!-- Generator: Adobe Illustrator 21.1.0, SVG Export Plug-In . SVG Version: 6.00 Build 0)  -->
<svg version="1.1" id="Слой_1" xmlns="http://www.w3.org/2000/svg" xmlns:xlink="http://www.w3.org/1999/xlink" x="0px" y="0px"
	 viewBox="0 0 50 50" style="enable-background:new 0 0 50 50;" xml:space="preserve">
<style type="text/css">
	.st0{fill-rule:evenodd;clip-rule:evenodd;fill:#C6C5C0;}
	.st1{fill-rule:evenodd;clip-rule:evenodd;fill:url(#SVGID_1_);}
	.st2{fill-rule:evenodd;clip-rule:evenodd;fill:url(#SVGID_2_);}
	.st3{fill-rule:evenodd;clip-rule:evenodd;fill:url(#SVGID_3_);}
	.st4{fill-rule:evenodd;clip-rule:evenodd;fill:url(#SVGID_4_);}
	.st5{opacity:0.67;fill-rule:evenodd;clip-rule:evenodd;fill:url(#SVGID_5_);}
	.st6{opacity:0.67;fill-rule:evenodd;clip-rule:evenodd;fill:url(#SVGID_6_);}
	.st7{opacity:0.67;fill-rule:evenodd;clip-rule:evenodd;fill:url(#SVGID_7_);}
	.st8{opacity:0.67;fill-rule:evenodd;clip-rule:evenodd;fill:url(#SVGID_8_);}
	.st9{opacity:0.67;fill-rule:evenodd;clip-rule:evenodd;fill:url(#SVGID_9_);}
	.st10{opacity:0.67;fill-rule:evenodd;clip-rule:evenodd;fill:url(#SVGID_10_);}
	.st11{opacity:0.67;fill-rule:evenodd;clip-rule:evenodd;fill:url(#SVGID_11_);}
	.st12{opacity:0.86;fill-rule:evenodd;clip-rule:evenodd;fill:url(#SVGID_12_);}
	.st13{fill-rule:evenodd;clip-rule:evenodd;fill:#1D1D1B;}
	.st14{fill-rule:evenodd;clip-rule:evenodd;fill:url(#SVGID_13_);}
	.st15{fill-rule:evenodd;clip-rule:evenodd;fill:url(#SVGID_14_);}
	.st16{fill-rule:evenodd;clip-rule:evenodd;fill:url(#SVGID_15_);}
	.st17{fill-rule:evenodd;clip-rule:evenodd;fill:none;stroke:#B1B0A6;stroke-width:0.3705891;stroke-linecap:round;}
	.st18{fill-rule:evenodd;clip-rule:evenodd;fill:none;stroke:#CBCAC2;stroke-width:0.2571901;stroke-linecap:round;}
	.st19{fill-rule:evenodd;clip-rule:evenodd;fill:none;stroke:#E6E5E0;stroke-width:0.1442269;stroke-linecap:round;}
	.st20{fill-rule:evenodd;clip-rule:evenodd;fill:none;stroke:#FFFFFF;stroke-width:0.030828;stroke-linecap:round;}
	.st21{fill-rule:evenodd;clip-rule:evenodd;fill:url(#SVGID_16_);}
	.st22{fill-rule:evenodd;clip-rule:evenodd;fill:url(#SVGID_17_);}
	.st23{fill:url(#SVGID_18_);}
	.st24{fill:#FFFFFF;stroke:#323230;stroke-width:0.0475655;}
</style>
<g>
	<path class="st0" d="M25.0002728,9.7842169L25.0002728,9.7842169L25.0002728,9.7842169
		c4.2349758,0,7.9996891,1.7254944,10.7449055,4.4707232c2.8237534,2.7451038,4.4705963,6.5880318,4.4705963,10.823555l0,0l0,0l0,0
		l0,0c0,4.1567459-1.646843,7.999691-4.4705963,10.7449036c-2.7452164,2.7451057-6.5099297,4.4706001-10.7449055,4.4706001l0,0l0,0
		l0,0l0,0c-4.2355213,0-8.0003452-1.7254944-10.823554-4.4706001c-2.7452078-2.7452126-4.4707022-6.5881577-4.4707022-10.7449036
		l0,0l0,0l0,0l0,0c0-4.2355232,1.7254944-8.0784512,4.4707022-10.823555
		C16.9999275,11.5097113,20.7647514,9.7842169,25.0002728,9.7842169L25.0002728,9.7842169L25.0002728,9.7842169
		L25.0002728,9.7842169z M25.0002728,10.0194187L25.0002728,10.0194187L25.0002728,10.0194187L25.0002728,10.0194187
		L25.0002728,10.0194187c-4.1567631,0-7.921587,1.7254944-10.5884771,4.3923845
		C11.6666908,17.156908,9.9411964,20.92173,9.9411964,25.078495l0,0l0,0l0,0l0,0
		c0,4.1567459,1.7254944,7.9215851,4.4705992,10.5879326c2.6668901,2.7451019,6.4317141,4.3923683,10.5884771,4.3923683l0,0l0,0l0,0
		l0,0c4.1567688,0,7.921587-1.6472664,10.5879307-4.3923683c2.7451057-2.6663475,4.3923912-6.4311867,4.3923912-10.5879326l0,0l0,0
		l0,0l0,0c0-4.156765-1.6472855-7.921587-4.3923912-10.6666918C32.9218597,11.7449131,29.1570415,10.0194187,25.0002728,10.0194187z
		"/>
	<radialGradient id="SVGID_1_" cx="8.3446293" cy="20.4051056" r="48.6553879" gradientUnits="userSpaceOnUse">
		<stop  offset="0" style="stop-color:#FFFFFF"/>
		<stop  offset="0.0468579" style="stop-color:#FCFCFB"/>
		<stop  offset="0.224719" style="stop-color:#FBFAF9"/>
		<stop  offset="0.2309332" style="stop-color:#F8F7F6"/>
		<stop  offset="0.3772678" style="stop-color:#B6B5B4"/>
		<stop  offset="0.5001048" style="stop-color:#878683"/>
		<stop  offset="0.5933547" style="stop-color:#696865"/>
		<stop  offset="0.646067" style="stop-color:#5E5D5A"/>
		<stop  offset="0.7313168" style="stop-color:#545350"/>
		<stop  offset="0.8775569" style="stop-color:#393834"/>
		<stop  offset="1" style="stop-color:#1D1C18"/>
	</radialGradient>
	<path class="st1" d="M25.0002728,1.7057668c5.3333454,0,10.274641,1.8037242,14.1957836,4.7844501l2.5882416-2.5882411
		l4.5493546,4.5488119l-2.5882378,2.6669998c2.9020729,3.9216862,4.5488091,8.705575,4.5488091,13.8819494
		c0,12.8628807-10.4310684,23.3727112-23.293951,23.3727112S1.705775,37.8626175,1.705775,24.9997368
		C1.705775,12.1373978,12.1373949,1.7057668,25.0002728,1.7057668L25.0002728,1.7057668z M25.0002728,7.1961007
		c-9.8039446,0-17.8042889,7.9996915-17.8042889,17.8036366c0,9.8827019,8.0003452,17.804287,17.8042889,17.804287
		s17.8036366-7.9215851,17.8036366-17.804287C42.8039093,15.1957922,34.8042145,7.1961007,25.0002728,7.1961007z"/>
	<linearGradient id="SVGID_2_" gradientUnits="userSpaceOnUse" x1="15.8062143" y1="21.9047356" x2="33.250618" y2="27.9113235">
		<stop  offset="0" style="stop-color:#E3E2DC"/>
		<stop  offset="1" style="stop-color:#FFFFFF"/>
	</linearGradient>
	<path class="st2" d="M25.0002728,7.1173425L25.0002728,7.1173425L25.0002728,7.1173425
		c4.9412956,0,9.4118938,1.9611154,12.7059116,5.255115c3.2153664,3.2159281,5.2546959,7.6865273,5.2546959,12.7060375l0,0l0,0l0,0
		l0,0c0,4.9412956-2.0393295,9.4113503-5.2546959,12.7059097c-3.2940178,3.2153664-7.764616,5.2546959-12.7059116,5.2546959l0,0l0,0
		l0,0l0,0c-4.9412918,0-9.4901094-2.0393295-12.7060146-5.2546959c-3.2158089-3.2945595-5.2551374-7.7646141-5.2551374-12.7059097
		l0,0l0,0l0,0l0,0c0-5.0195103,2.0393286-9.4901094,5.2551374-12.7060375l0,0
		C15.5101633,9.0784578,20.0589809,7.1173425,25.0002728,7.1173425L25.0002728,7.1173425L25.0002728,7.1173425L25.0002728,7.1173425
		z M25.0002728,7.3529639L25.0002728,7.3529639L25.0002728,7.3529639L25.0002728,7.3529639L25.0002728,7.3529639
		c-4.862648,0-9.3332462,1.9605708-12.5490484,5.1764827l0,0c-3.2159119,3.2152576-5.1764822,7.6077356-5.1764822,12.5490484l0,0
		l0,0l0,0l0,0c0,4.8626308,1.9605703,9.3332291,5.1764822,12.5490456c3.2158022,3.1371384,7.6864004,5.1764832,12.5490484,5.1764832
		l0,0l0,0l0,0l0,0c4.8626537,0,9.33325-2.0393448,12.5490475-5.1764832
		c3.2153664-3.2158165,5.1764832-7.6864147,5.1764832-12.5490456l0,0l0,0l0,0l0,0
		c0-4.9413128-1.9611168-9.3337908-5.1764832-12.5490484C34.3335228,9.3135347,29.8629265,7.3529639,25.0002728,7.3529639z"/>
	<radialGradient id="SVGID_3_" cx="38.8455238" cy="40.0133934" r="53.3968849" gradientUnits="userSpaceOnUse">
		<stop  offset="0" style="stop-color:#C6C5C1"/>
		<stop  offset="1" style="stop-color:#86857E"/>
	</radialGradient>
	<path class="st3" d="M25.0002728,1.5489037L25.0002728,1.5489037L25.0002728,1.5489037
		c5.3333454,0,10.3528614,1.8036153,14.2745419,4.8626633l-0.0787582,0.0786495
		c-3.9211426-2.9807258-8.8624382-4.7844501-14.1957836-4.7844501c-12.8628778,0-23.2944984,10.4316311-23.2944984,23.2939701
		c0,12.8628807,10.4316196,23.3727112,23.2944984,23.3727112s23.293951-10.5098305,23.293951-23.3727112
		c0-5.1763744-1.6467361-9.9602633-4.5488091-13.8819494l0.0782127-0.0787582
		c2.9019661,3.92167,4.6274605,8.7061205,4.6274605,13.9607077l0,0l0,0l0,0l0,0
		c0,6.5099258-2.6663475,12.3921852-6.9018593,16.6276894c-4.2355309,4.2355385-10.0390282,6.8236694-16.5489559,6.8236694l0,0l0,0
		l0,0l0,0c-6.431715,0-12.3139715-2.588131-16.5489483-6.8236694c-4.2355161-4.313736-6.9024124-10.1177635-6.9024124-16.6276894
		l0,0l0,0l0,0l0,0c0-6.4311867,2.6668963-12.3134279,6.9024124-16.5489502
		C12.6863012,4.2152662,18.4903507,1.5489037,25.0002728,1.5489037L25.0002728,1.5489037L25.0002728,1.5489037z"/>
	<radialGradient id="SVGID_4_" cx="33.3998566" cy="33.4780769" r="37.4977188" gradientUnits="userSpaceOnUse">
		<stop  offset="0" style="stop-color:#FFFFFF"/>
		<stop  offset="0.1986084" style="stop-color:#F2F2F2"/>
		<stop  offset="0.297753" style="stop-color:#EAEAEA"/>
		<stop  offset="0.3024525" style="stop-color:#E7E7E7"/>
		<stop  offset="0.374061" style="stop-color:#C2C2C0"/>
		<stop  offset="0.4448729" style="stop-color:#A4A4A2"/>
		<stop  offset="0.513796" style="stop-color:#8F8F8C"/>
		<stop  offset="0.5799989" style="stop-color:#82827E"/>
		<stop  offset="0.640449" style="stop-color:#7E7E7A"/>
		<stop  offset="0.7483749" style="stop-color:#565652"/>
		<stop  offset="0.852195" style="stop-color:#373632"/>
		<stop  offset="0.9395895" style="stop-color:#24231F"/>
		<stop  offset="1" style="stop-color:#1D1C18"/>
	</radialGradient>
	<path class="st4" d="M25.0002728,7.2742057c9.8039417,0,17.8036366,7.9215865,17.8036366,17.8042889
		c0,9.8039436-7.9996948,17.8036346-17.8036366,17.8036346S7.1959834,34.8824387,7.1959834,25.078495
		C7.1959834,15.1957922,15.1963282,7.2742057,25.0002728,7.2742057L25.0002728,7.2742057z M25.0002728,9.7842169
		c-8.3922787,0-15.2160482,6.8237791-15.2160482,15.2942781c0,8.3922844,6.8237696,15.2155037,15.2160482,15.2155037
		s15.2155018-6.8232193,15.2155018-15.2155037C40.2157745,16.607996,33.3925591,9.7842169,25.0002728,9.7842169z"/>
	<g>
		<linearGradient id="SVGID_5_" gradientUnits="userSpaceOnUse" x1="3.8027871" y1="30.7517204" x2="3.8027871" y2="30.6199417">
			<stop  offset="0" style="stop-color:#FFFFFF"/>
			<stop  offset="0.17" style="stop-color:#FBFAF9"/>
			<stop  offset="0.426966" style="stop-color:#BCBBB6"/>
			<stop  offset="0.5231901" style="stop-color:#908F8A"/>
			<stop  offset="0.6237597" style="stop-color:#696864"/>
			<stop  offset="0.7234338" style="stop-color:#4A4A46"/>
			<stop  offset="0.8206043" style="stop-color:#353430"/>
			<stop  offset="0.914131" style="stop-color:#272723"/>
			<stop  offset="1" style="stop-color:#23231F"/>
		</linearGradient>
		<path class="st5" d="M3.7168963,30.6527996c0,0.0217857,0.005332,0.0424824,0.0158985,0.0605659
			c0.0101309,0.0186119,0.0272334,0.027668,0.0500002,0.027668c0.0171025,0,0.034096-0.0042477,0.0516341-0.0127449
			c0.0169935-0.0084953,0.0350764-0.0217857,0.0542486-0.0387955v-0.1728611
			c-0.064924,0.0095863-0.1095862,0.0265808-0.134532,0.0494556C3.7290912,30.5895081,3.7168963,30.6181583,3.7168963,30.6527996z"
			/>
		<linearGradient id="SVGID_6_" gradientUnits="userSpaceOnUse" x1="7.0920072" y1="30.2540226" x2="7.0920072" y2="30.1999683">
			<stop  offset="0" style="stop-color:#FFFFFF"/>
			<stop  offset="0.17" style="stop-color:#FBFAF9"/>
			<stop  offset="0.426966" style="stop-color:#BCBBB6"/>
			<stop  offset="0.5231901" style="stop-color:#908F8A"/>
			<stop  offset="0.6237597" style="stop-color:#696864"/>
			<stop  offset="0.7234338" style="stop-color:#4A4A46"/>
			<stop  offset="0.8206043" style="stop-color:#353430"/>
			<stop  offset="0.914131" style="stop-color:#272723"/>
			<stop  offset="1" style="stop-color:#23231F"/>
		</linearGradient>
		<rect x="7.0374866" y="30.1575909" class="st6" width="0.1090416" height="0.0920481"/>
		<linearGradient id="SVGID_7_" gradientUnits="userSpaceOnUse" x1="7.0920072" y1="30.3674622" x2="7.0920072" y2="30.311554">
			<stop  offset="0" style="stop-color:#FFFFFF"/>
			<stop  offset="0.17" style="stop-color:#FBFAF9"/>
			<stop  offset="0.426966" style="stop-color:#BCBBB6"/>
			<stop  offset="0.5231901" style="stop-color:#908F8A"/>
			<stop  offset="0.6237597" style="stop-color:#696864"/>
			<stop  offset="0.7234338" style="stop-color:#4A4A46"/>
			<stop  offset="0.8206043" style="stop-color:#353430"/>
			<stop  offset="0.914131" style="stop-color:#272723"/>
			<stop  offset="1" style="stop-color:#23231F"/>
		</linearGradient>
		<rect x="7.0374866" y="30.2677212" class="st7" width="0.1090416" height="0.0952072"/>
		<linearGradient id="SVGID_8_" gradientUnits="userSpaceOnUse" x1="4.9059458" y1="30.7517204" x2="4.9059458" y2="30.6199417">
			<stop  offset="0" style="stop-color:#FFFFFF"/>
			<stop  offset="0.17" style="stop-color:#FBFAF9"/>
			<stop  offset="0.426966" style="stop-color:#BCBBB6"/>
			<stop  offset="0.5231901" style="stop-color:#908F8A"/>
			<stop  offset="0.6237597" style="stop-color:#696864"/>
			<stop  offset="0.7234338" style="stop-color:#4A4A46"/>
			<stop  offset="0.8206043" style="stop-color:#353430"/>
			<stop  offset="0.914131" style="stop-color:#272723"/>
			<stop  offset="1" style="stop-color:#23231F"/>
		</linearGradient>
		<path class="st8" d="M4.8200521,30.6527996c0,0.0217857,0.0053377,0.0424824,0.0159044,0.0605659
			c0.0101304,0.0186119,0.0271239,0.027668,0.0500002,0.027668c0.0171022,0,0.0340958-0.0042477,0.0516338-0.0127449
			c0.0169935-0.0084953,0.0350761-0.0217857,0.0542483-0.0387955v-0.1728611
			c-0.0649238,0.0095863-0.1095862,0.0265808-0.1345315,0.0494556C4.8322525,30.5895081,4.8200521,30.6181583,4.8200521,30.6527996z
			"/>
		<linearGradient id="SVGID_9_" gradientUnits="userSpaceOnUse" x1="7.6648846" y1="30.4692001" x2="7.6648846" y2="30.3851452">
			<stop  offset="0" style="stop-color:#FFFFFF"/>
			<stop  offset="0.17" style="stop-color:#FBFAF9"/>
			<stop  offset="0.426966" style="stop-color:#BCBBB6"/>
			<stop  offset="0.5231901" style="stop-color:#908F8A"/>
			<stop  offset="0.6237597" style="stop-color:#696864"/>
			<stop  offset="0.7234338" style="stop-color:#4A4A46"/>
			<stop  offset="0.8206043" style="stop-color:#353430"/>
			<stop  offset="0.914131" style="stop-color:#272723"/>
			<stop  offset="1" style="stop-color:#23231F"/>
		</linearGradient>
		<rect x="7.5140672" y="30.3192463" class="st9" width="0.3016347" height="0.1431376"/>
		<linearGradient id="SVGID_10_" gradientUnits="userSpaceOnUse" x1="7.0266504" y1="32.8213081" x2="7.0266504" y2="31.1421032">
			<stop  offset="0" style="stop-color:#FFFFFF"/>
			<stop  offset="0.17" style="stop-color:#FBFAF9"/>
			<stop  offset="0.426966" style="stop-color:#BCBBB6"/>
			<stop  offset="0.5231901" style="stop-color:#908F8A"/>
			<stop  offset="0.6237597" style="stop-color:#696864"/>
			<stop  offset="0.7234338" style="stop-color:#4A4A46"/>
			<stop  offset="0.8206043" style="stop-color:#353430"/>
			<stop  offset="0.914131" style="stop-color:#272723"/>
			<stop  offset="1" style="stop-color:#23231F"/>
		</linearGradient>
		<path class="st10" d="M10.552309,29.8256569h-8.340106c0.2057738,0.9797573,0.4908507,1.928669,0.8159058,2.8594856h8.8129883
			C11.3187599,31.7846088,10.8831377,30.8299236,10.552309,29.8256569z M6.9970722,30.0070457l0.0632901,0.0404148
			L7.0374866,30.073494v0.0660133h0.1032681l0.0228758-0.0367088l0.0430284,0.0510883l-0.0228758,0.0260353v0.0697174h0.011765
			l0.0313725-0.0405388l0.0457516,0.0586205H7.1837831c0,0.0584965,0.0010896,0.10042,0.0027232,0.1249466l-0.039978,0.0254898
			v-0.0367107H7.0374866v0.1064281h0.0830069l0.028758-0.0441189l0.0430284,0.0627308H7.0374866v0.0989265h0.1346407
			l0.0319176-0.0515251l0.0489106,0.0696068H7.0374866c0,0.0415039,0.0016341,0.0856056,0.0058823,0.1324482L6.9970722,30.777729
			c0.0021787-0.056303,0.0032682-0.1073914,0.0032682-0.1542339h-0.114924c-0.0175381,0-0.0319176,0.0037041-0.0431376,0.0112209
			l-0.0260348-0.0293026h0.1840963v-0.0989265H6.9167891c-0.0154686,0-0.0265794,0.0031738-0.0345316,0.0106907L6.8593817,30.487875
			h0.1409588v-0.1064281H6.9167891c-0.0154686,0-0.0265794,0.0038128-0.0345316,0.0112209l-0.0228758-0.0297394h0.1409588
			v-0.0952072H6.8763752c-0.014924,0-0.0265741,0.0037041-0.0340962,0.011095l-0.0233116-0.0291767h0.1813731v-0.0920486H6.9226713
			c-0.0154686,0-0.0271182,0.0037041-0.0346403,0.0111103l-0.0228763-0.0291939h0.1351857
			C7.0003405,30.0878735,6.9992509,30.0437565,6.9970722,30.0070457z M3.5652564,30.7628212H3.3408549v-0.0217876h0.0659044
			c0.0095861,0,0.0165577-0.0026131,0.0202615-0.0074062c0.0037036-0.0047932,0.0058823-0.0122013,0.0058823-0.0217876v-0.5254898
			c0-0.0095863-0.0021787-0.0171032-0.0058823-0.0219116c-0.0042427-0.0047779-0.0112202-0.0073929-0.0208061-0.0073929H3.3408549
			v-0.0217857H3.373317c0.0175381,0,0.033987-0.0027237,0.05-0.0075169
			c0.0153596-0.0047932,0.0302835-0.0121994,0.0441234-0.0217857h0.0058768v0.6058826
			c0,0.0095863,0.0026145,0.0169945,0.0068629,0.0217876c0.0053377,0.0047932,0.0112257,0.0074062,0.019172,0.0074062h0.0659044
			V30.7628212z M3.9748433,30.7426682c-0.0095804,0.0132751-0.0217865,0.020153-0.0372548,0.020153
			c-0.0132899,0-0.0238564-0.0037041-0.0319173-0.0111122c-0.0074074-0.0069714-0.0132899-0.0191708-0.0169935-0.0367088
			c-0.0191722,0.0175381-0.0367048,0.030283-0.0531592,0.038763c-0.0160131,0.0086212-0.0356209,0.0128708-0.0584967,0.0128708
			c-0.0346408,0-0.0612147-0.0106907-0.0803924-0.0313892C3.6775661,30.7144547,3.66798,30.6904888,3.66798,30.6639099
			c0-0.0441341,0.0149238-0.0802841,0.0446625-0.1084976c0.0291939-0.0282288,0.0882354-0.0483646,0.1760352-0.0605659v-0.0442257
			c0-0.0244026-0.0042484-0.0446625-0.0127394-0.0605679c-0.0085025-0.0160122-0.0282192-0.0239639-0.0590472-0.0239639
			c-0.0324564,0-0.0553322,0.0068626-0.0686276,0.0201511c-0.0132899,0.013834-0.0180829,0.0276527-0.0143793,0.042593
			c0.0037096,0.0095863,0.0037096,0.0197163,0,0.0293026C3.7301805,30.4681587,3.7222283,30.47295,3.7110083,30.47295
			c-0.007952,0-0.0138345-0.0031586-0.0186274-0.0090408c-0.0047932-0.0063171-0.0074074-0.0153599-0.0074074-0.027668
			c0-0.0223484,0.0122004-0.043045,0.0372548-0.062746c0.0249457-0.0196075,0.0558827-0.0291939,0.0920482-0.0291939
			c0.0382354,0,0.0669937,0.0090408,0.0861659,0.0276699c0.019069,0.0180817,0.0286493,0.0446625,0.0286493,0.0786495v0.2425919
			c0,0.0196075,0.0016339,0.0313721,0.0042484,0.0350761c0.0027232,0.0036888,0.0080609,0.0053387,0.0160129,0.0053387
			c0.0095861,0,0.0159099-0.0053387,0.019608-0.016449c0.0038126-0.0112209,0.0058823-0.026144,0.0058823-0.0457516h0.014385
			C3.9892282,30.7054138,3.9844294,30.7293777,3.9748433,30.7426682z M4.3488092,30.7628212h-0.121242v-0.0217876h0.0142703
			c0.0095859,0,0.0165577-0.0026131,0.0202613-0.0074062s0.0058823-0.0122013,0.0058823-0.0217876v-0.2462959
			c0-0.0297394-0.0047927-0.0521793-0.014379-0.0680828c-0.0095859-0.0160141-0.0239649-0.0239658-0.0425925-0.0239658
			c-0.0175381,0-0.0350761,0.0075169-0.0531592,0.0217876c-0.0180826,0.0149231-0.0346351,0.0357285-0.0500002,0.0628529v0.2537041
			c0,0.0095863,0.00207,0.0169945,0.0074077,0.0217876c0.0047927,0.0047932,0.0106754,0.0074062,0.0186272,0.0074062h0.0143852
			v0.0217876H4.0270219v-0.0217876h0.0143795c0.0094771,0,0.0164542-0.0026131,0.0201526-0.0074062
			c0.0037036-0.0047932,0.0058823-0.0122013,0.0058823-0.0217876v-0.3165569c0-0.0068645-0.0010896-0.0127468-0.0032682-0.016449
			c-0.0020695-0.0037041-0.0063124-0.0053387-0.0122004-0.0053387H4.0270219v-0.0217857h0.0206976
			c0.0101361,0,0.0197167-0.0010891,0.028758-0.0037041c0.0090413-0.002739,0.0175381-0.0074081,0.0254903-0.0149231h0.0058823
			v0.0846405c0.0169935-0.0245266,0.0345316-0.042593,0.0516343-0.0547943
			c0.0169935-0.0128536,0.0350761-0.0186272,0.0542483-0.0186272c0.0323529,0,0.0563183,0.0111122,0.0717926,0.0328979
			c0.0153537,0.02244,0.0228758,0.0553379,0.0228758,0.0995636v0.2350769c0,0.0095863,0.0026088,0.0169945,0.0074015,0.0217876
			c0.0047932,0.0047932,0.0106754,0.0074062,0.0186276,0.0074062h0.014379V30.7628212z M4.655128,30.7336273
			c-0.0164485,0.0217857-0.0376906,0.0330067-0.064815,0.0330067c-0.028758,0-0.0499997-0.0112209-0.0643792-0.0330067
			c-0.014379-0.0223465-0.0217862-0.056427-0.0217862-0.103159v-0.2569733H4.4179816v-0.0217857h0.0228758
			c0.0233173,0,0.0419393-0.0090427,0.0563183-0.0276699c0.014379-0.0180817,0.0234203-0.0468407,0.027669-0.0861645
			l0.0026145-0.0291939h0.0171022v0.1430283h0.1148152v0.0217857H4.5445614v0.2717876
			c0,0.0346413,0.0047932,0.0575161,0.0142703,0.0697174c0.0095859,0.0127449,0.0239649,0.0186272,0.0431371,0.0186272
			s0.0345321-0.0079517,0.0463023-0.0239658c0.0111055-0.0159035,0.0191665-0.0387802,0.0228758-0.0680981l0.0143733,0.0075321
			C4.6817079,30.6830826,4.6716857,30.7112808,4.655128,30.7336273z M5.0780048,30.7426682
			c-0.0095859,0.0132751-0.0217867,0.020153-0.0372548,0.020153c-0.0132899,0-0.0238562-0.0037041-0.0319118-0.0111122
			c-0.0074129-0.0069714-0.0132952-0.0191708-0.0169992-0.0367088c-0.0191722,0.0175381-0.0367103,0.030283-0.0531588,0.038763
			C4.922667,30.7623844,4.903059,30.766634,4.8801832,30.766634c-0.0346408,0-0.0612202-0.0106907-0.0803924-0.0313892
			c-0.0190635-0.0207901-0.0286493-0.0447559-0.0286493-0.0713348c0-0.0441341,0.0148149-0.0802841,0.0446625-0.1084976
			c0.0291939-0.0282288,0.0882354-0.0483646,0.1760349-0.0605659v-0.0442257c0-0.0244026-0.0042481-0.0446625-0.0127449-0.0605679
			c-0.0084968-0.0160122-0.0282135-0.0239639-0.0590415-0.0239639c-0.0324621,0-0.0553379,0.0068626-0.0686278,0.0201511
			c-0.0132895,0.013834-0.0180826,0.0276527-0.014379,0.042593c0.0037036,0.0095863,0.0037036,0.0197163,0,0.0293026
			C4.8333421,30.4681587,4.8253899,30.47295,4.8141699,30.47295c-0.0079465,0-0.0138345-0.0031586-0.0186276-0.0090408
			c-0.0047927-0.0063171-0.0074072-0.0153599-0.0074072-0.027668c0-0.0223484,0.0122004-0.043045,0.0372548-0.062746
			c0.0249457-0.0196075,0.0557737-0.0291939,0.0920482-0.0291939c0.0382357,0,0.0669937,0.0090408,0.0861659,0.0276699
			c0.019063,0.0180817,0.0286493,0.0446625,0.0286493,0.0786495v0.2425919c0,0.0196075,0.0016394,0.0313721,0.0042481,0.0350761
			c0.0027232,0.0036888,0.0080609,0.0053387,0.0160131,0.0053387c0.0095863,0,0.0159044-0.0053387,0.019608-0.016449
			c0.0038128-0.0112209,0.0058823-0.026144,0.0058823-0.0457516h0.014379
			C5.0923839,30.7054138,5.0875912,30.7293777,5.0780048,30.7426682z M5.4359579,30.4282894
			c-0.0047932,0.007515-0.0116558,0.011219-0.0212421,0.011219c-0.0095859,0-0.0169878-0.0037041-0.0217862-0.011219
			c-0.0047932-0.0068645-0.0064273-0.0169945-0.0042486-0.0291958c0-0.007515-0.0010891-0.0132885-0.0027232-0.0180817
			c-0.00207-0.0047932-0.0079522-0.0075169-0.0175381-0.0075169c-0.014924,0-0.0334425,0.01231-0.0558825,0.0367107
			c-0.0217867,0.0245094-0.0413947,0.059042-0.058497,0.103159v0.1984749c0,0.0095863,0.0021787,0.0169945,0.0069718,0.0217876
			c0.0047927,0.0047932,0.0111108,0.0074062,0.0186272,0.0074062h0.0632901v0.0217876H5.1301837v-0.0217876h0.0574074
			c0.0095863,0,0.016449-0.0026131,0.0202618-0.0074062c0.0037036-0.0047932,0.0057788-0.0122013,0.0057788-0.0217876v-0.3053379
			c0-0.0095863-0.0020752-0.0175381-0.0057788-0.0239658c-0.0043573-0.0057735-0.0112205-0.0090408-0.0208063-0.0090408H5.1301837
			v-0.0217857h0.0233116c0.0138345,0,0.0303922-0.0016346,0.0490198-0.0058823
			c0.0186272-0.0031605,0.0329032-0.0079536,0.0424838-0.0127449h0.0090413v0.1324615
			c0.0191722-0.0393257,0.039978-0.0691719,0.0617647-0.0898705c0.0217867-0.0208054,0.0446625-0.0313721,0.0675383-0.0313721
			c0.0191722,0,0.0339928,0.0053215,0.0441179,0.016449C5.4381366,30.3719711,5.44348,30.384716,5.44348,30.3990936
			C5.44348,30.4112949,5.4407506,30.4214249,5.4359579,30.4282894z M6.2471795,30.6234951v0.146843
			c0,0.0515251-0.0208058,0.08671-0.0633988,0.1063175c-0.0015249-0.0367107-0.0313725-0.0632896-0.0887799-0.0808277v-0.0143795
			c0.0383444,0.0047932,0.0660133,0.0080605,0.0835514,0.0090408c0.0169935,0.0010891,0.0254903-0.0138493,0.0254903-0.0457516
			v-0.1212425H5.97158c-0.0212421,0-0.0404143,0.0037041-0.0574079,0.0112209l-0.0228758-0.0293026h0.312746
			c0-0.0319176-0.0010896-0.0675392-0.0026145-0.1063194l0.0371461,0.0217876l0.0776691-0.0846405h-0.238236l-0.0260348,0.011219
			l-0.0228758-0.0293026h0.2839875l0.0319171-0.0367107l0.05164,0.0734215
			c-0.0271301-0.0047932-0.0766945,0.0208054-0.1494617,0.0771236l0.0286493,0.0180683l-0.0286493,0.0223465v0.0330067h0.1924844
			l0.0398693-0.0515251l0.0575166,0.0696068H6.2471795z M6.5402088,30.4033432c-0.0287585,0-0.0500002,0.0148144-0.0632901,0.044117
			c-0.1186275-0.0632896-0.1952076-0.1564274-0.2297392-0.278759H6.2300773c0,0.1149254,0.0010891,0.1835518,0.0027232,0.2053394
			l-0.0490198,0.0149231c0.0021787-0.0537033,0.0032682-0.1212425,0.0032682-0.202179
			c-0.0632901,0.1324615-0.163835,0.2324619-0.3016348,0.3010902L5.8827996,30.47295
			c0.120153-0.078104,0.2084975-0.1797371,0.263835-0.3042488h-0.177669c-0.0212417,0-0.0404139,0.0038128-0.0575166,0.0112209
			L5.8881373,30.150074h0.2989116c0-0.0217857-0.0010896-0.0659046-0.0032682-0.1318073l0.0750546,0.0404129l-0.028758,0.0254898
			v0.0659046h0.2123156l0.0404081-0.0509968l0.0515251,0.0696239H6.2614498
			c0.0479302,0.1197186,0.1409588,0.1931381,0.278759,0.2202625V30.4033432z M7.2817135,30.7995148
			c-0.0383444,0.0149403-0.0558825,0.0330238-0.0521789,0.0553551c-0.0531588,0.0021782-0.1138344,0.0021782-0.1808281,0
			c-0.0669937-0.002615-0.1250548-0.014925-0.1734209-0.0367107c-0.0489106-0.0223312-0.0887799-0.0500011-0.1191664-0.0845318
			c-0.0249515,0.0468407-0.0701585,0.0941181-0.135077,0.1430283l-0.0085025-0.0105667
			c0.0494556-0.0420475,0.0909591-0.0968418,0.1234212-0.1654682c-0.030828-0.0563183-0.0537043-0.1186275-0.0691667-0.1872559
			l0.0117588-0.0068779c0.0190635,0.0585117,0.0419393,0.109602,0.0685186,0.1537189
			c0.0191722-0.0633049,0.0330124-0.146841,0.0404143-0.2494564H6.7045879l-0.0234203,0.0404148l-0.0398693-0.0515251
			l0.0345316-0.0181923c0.0340958-0.0706959,0.0669937-0.1430283,0.0973859-0.2164478H6.6811676l-0.0340958,0.011219
			l-0.0233116-0.0298481h0.15207l0.0260406-0.0398693L6.842279,30.164999l-0.0319171,0.0180817
			c-0.0323529,0.0665588-0.0669937,0.1361656-0.1031594,0.2095871h0.0776691l0.0228758-0.0330067l0.0431433,0.0510883
			l-0.026144,0.0254917c-0.011117,0.1032677-0.0286551,0.1888885-0.0515308,0.2569714
			c0.0228758,0.0291939,0.0568628,0.0526142,0.1020699,0.0696087c0.0446625,0.0176468,0.0962968,0.027668,0.1537042,0.0314808
			c0.0575166,0.0037041,0.1415033,0.0004368,0.2527237-0.0090408V30.7995148z M7.9906478,30.7926693
			c-0.0345316,0.0068455-0.0547876,0.0265789-0.0600219,0.0584965c-0.0558825-0.0217876-0.1032681-0.0462971-0.1425929-0.0734367
			c-0.0387802-0.0271091-0.0749459-0.0643635-0.107408-0.1116409c-0.0324616-0.0479298-0.0575161-0.1095867-0.0745096-0.1856213
			H7.5140672v0.2935734l0.1547933-0.084547l0.0058823,0.0111275c-0.0994496,0.0686264-0.1590414,0.1197166-0.177669,0.1542492
			l-0.0345316-0.0622005c0.0074072-0.0101318,0.0122004-0.0245113,0.014379-0.0441189v-0.528759
			c0-0.0387802-0.0010896-0.0734215-0.0032682-0.1026154l0.0404143,0.0367107h0.1462965
			c-0.0037036-0.0415039-0.0201526-0.084095-0.0489106-0.1282139l0.0058823-0.011219
			c0.0478215,0.0271244,0.0754905,0.0516338,0.0819173,0.0734196c0.0068626,0.0217876,0.0005445,0.0441189-0.0186276,0.0660133
			h0.1291943l0.0228758-0.0367107l0.0462966,0.0515251l-0.0260348,0.0218811v0.2090569
			c0,0.0271244,0.0010891,0.059042,0.0026145,0.0956421L7.815702,30.5133648v-0.0328979H7.6231089
			c0.0191722,0.0638351,0.045207,0.1175232,0.0776687,0.1616573c0.0840964-0.0516357,0.1436825-0.1005459,0.1782141-0.146843
			l0.0425925,0.0734215H7.8874884c-0.0574074,0.0265789-0.1159043,0.056427-0.1754904,0.0877991
			c0.0382352,0.0441189,0.0830064,0.0754757,0.1334481,0.0935745c0.0510836,0.0186272,0.0994496,0.0276527,0.1452017,0.0276527
			V30.7926693z"/>
		<linearGradient id="SVGID_11_" gradientUnits="userSpaceOnUse" x1="7.6648846" y1="30.3067036" x2="7.6648846" y2="30.2314835">
			<stop  offset="0" style="stop-color:#FFFFFF"/>
			<stop  offset="0.17" style="stop-color:#FBFAF9"/>
			<stop  offset="0.426966" style="stop-color:#BCBBB6"/>
			<stop  offset="0.5231901" style="stop-color:#908F8A"/>
			<stop  offset="0.6237597" style="stop-color:#696864"/>
			<stop  offset="0.7234338" style="stop-color:#4A4A46"/>
			<stop  offset="0.8206043" style="stop-color:#353430"/>
			<stop  offset="0.914131" style="stop-color:#272723"/>
			<stop  offset="1" style="stop-color:#23231F"/>
		</linearGradient>
		<rect x="7.5140672" y="30.172514" class="st11" width="0.3016347" height="0.1280892"/>
		
			<linearGradient id="SVGID_12_" gradientUnits="userSpaceOnUse" x1="-128.146286" y1="32.8213081" x2="-128.146286" y2="31.1421032" gradientTransform="matrix(-1 0 0 1 -85.161232 0)">
			<stop  offset="0" style="stop-color:#FFFFFF"/>
			<stop  offset="0.17" style="stop-color:#FBFAF9"/>
			<stop  offset="0.426966" style="stop-color:#BCBBB6"/>
			<stop  offset="0.5231901" style="stop-color:#908F8A"/>
			<stop  offset="0.6237597" style="stop-color:#696864"/>
			<stop  offset="0.7234338" style="stop-color:#4A4A46"/>
			<stop  offset="0.8206043" style="stop-color:#353430"/>
			<stop  offset="0.914131" style="stop-color:#272723"/>
			<stop  offset="1" style="stop-color:#23231F"/>
		</linearGradient>
		<path class="st12" d="M39.4593468,29.8256569h8.3402138c-0.205883,0.9797573-0.4909592,1.928669-0.8159065,2.8594856h-8.8130913
			C38.6928978,31.7846088,39.1285172,30.8299236,39.4593468,29.8256569z"/>
	</g>
	<path class="st13" d="M48.216011,19.1174793L48.216011,19.1174793C48.7649307,20.999836,49,22.9604073,49,24.9997368
		c0,2.1180859-0.3132896,4.1573067-0.783989,6.1178627H1.8627471v-0.0786343h46.2745056
		c0.5494576-1.9605865,0.7845421-3.9999008,0.7845421-6.1174583C48.9217949,22.8822861,48.6867104,20.92173,48.216011,19.1174793z"
		/>
	<radialGradient id="SVGID_13_" cx="3.1722469" cy="20.4073143" r="30.2707672" gradientUnits="userSpaceOnUse">
		<stop  offset="0" style="stop-color:#0069B3"/>
		<stop  offset="0.0085452" style="stop-color:#0068B2"/>
		<stop  offset="0.1307792" style="stop-color:#0061A5"/>
		<stop  offset="0.241573" style="stop-color:#005EA0"/>
		<stop  offset="0.4962792" style="stop-color:#00548F"/>
		<stop  offset="0.837079" style="stop-color:#004273"/>
		<stop  offset="0.9620969" style="stop-color:#004072"/>
		<stop  offset="1" style="stop-color:#003B6E"/>
	</radialGradient>
	<path class="st14" d="M1.7845334,19.0392647H48.216011c0.4706993,1.8824654,0.7057838,3.8430214,0.7057838,5.8822422
		c0,2.1175575-0.2350845,4.1568718-0.7845421,6.1174583H1.8627471C1.3137262,29.0783787,1,27.0390644,1,24.9215069
		C1,22.8822861,1.3137262,20.92173,1.7845334,19.0392647z"/>
	<linearGradient id="SVGID_14_" gradientUnits="userSpaceOnUse" x1="47.4429321" y1="13.9918804" x2="35.646122" y2="2.19507">
		<stop  offset="0.005618" style="stop-color:#1F1F0A"/>
		<stop  offset="0.646067" style="stop-color:#3F3E3A"/>
		<stop  offset="0.6507963" style="stop-color:#43423E"/>
		<stop  offset="0.6556994" style="stop-color:#4F4E4B"/>
		<stop  offset="0.6606846" style="stop-color:#64635F"/>
		<stop  offset="0.6657262" style="stop-color:#81807C"/>
		<stop  offset="0.6708118" style="stop-color:#A6A5A2"/>
		<stop  offset="0.6758584" style="stop-color:#D3D2CF"/>
		<stop  offset="0.68" style="stop-color:#FDFCFA"/>
		<stop  offset="0.6825497" style="stop-color:#FAF9F7"/>
		<stop  offset="0.6841806" style="stop-color:#F2F1EF"/>
		<stop  offset="0.6855541" style="stop-color:#E4E3E0"/>
		<stop  offset="0.6867844" style="stop-color:#D0CFCB"/>
		<stop  offset="0.6879192" style="stop-color:#B5B4B0"/>
		<stop  offset="0.688969" style="stop-color:#96958F"/>
		<stop  offset="0.6899616" style="stop-color:#717069"/>
		<stop  offset="0.69" style="stop-color:#6F6E67"/>
		<stop  offset="0.7098045" style="stop-color:#585752"/>
		<stop  offset="0.7352864" style="stop-color:#42423E"/>
		<stop  offset="0.7653952" style="stop-color:#31312E"/>
		<stop  offset="0.8026375" style="stop-color:#262623"/>
		<stop  offset="0.8549064" style="stop-color:#1F1F1D"/>
		<stop  offset="1" style="stop-color:#1D1D1B"/>
	</linearGradient>
	<polygon class="st15" points="42.7258034,2.3334534 47.9021835,7.5099359 44.0592499,11.3528481 44.2943306,11.6666994 
		41.5492287,13.8628912 40.6864815,14.1767263 46.3336525,8.4507875 41.7842979,3.9019756 36.137661,9.5491562 
		36.3727455,8.7646065 	"/>
	<radialGradient id="SVGID_15_" cx="46.4729652" cy="2.9775996" r="12.6505194" gradientUnits="userSpaceOnUse">
		<stop  offset="0" style="stop-color:#54534E"/>
		<stop  offset="1" style="stop-color:#4F4E49"/>
	</radialGradient>
	<path class="st16" d="M37.5493202,1.7839969c4.5488129,2.4312692,8.2354202,6.1960921,10.7449036,10.6666908V1.7839969H37.5493202z
		"/>
	<path class="st17" d="M37.5493202,1.7839969c4.5488129,2.4312692,8.2354202,6.1960921,10.7449036,10.6666908"/>
	<path class="st18" d="M37.5493202,1.7839969c4.4706001,2.4312692,8.2354202,6.1960921,10.6666908,10.6666908"/>
	<path class="st19" d="M37.470562,1.7839969c4.5493584,2.4312692,8.2354202,6.1960921,10.7454491,10.74545"/>
	<path class="st20" d="M37.470562,1.7839969c4.4706001,2.5100112,8.2354202,6.1960921,10.6666908,10.74545"/>
	<linearGradient id="SVGID_16_" gradientUnits="userSpaceOnUse" x1="37.3924561" y1="1.6664503" x2="48.451088" y2="1.6664503">
		<stop  offset="0" style="stop-color:#5C5C5B"/>
		<stop  offset="0.0742882" style="stop-color:#51514F"/>
		<stop  offset="0.249305" style="stop-color:#3D3D3A"/>
		<stop  offset="0.4431854" style="stop-color:#2E2E2B"/>
		<stop  offset="0.6685512" style="stop-color:#262622"/>
		<stop  offset="1" style="stop-color:#23231F"/>
	</linearGradient>
	<path class="st21" d="M48.2942238,1.5489037c0.0786514,0,0.1568642,0.0782301,0.1568642,0.2350932l0,0H37.5493202h-0.1568642
		c0-0.1568631,0.0781059-0.2350932,0.1568642-0.2350932H48.2942238z"/>
	<linearGradient id="SVGID_17_" gradientUnits="userSpaceOnUse" x1="48.3335495" y1="12.6863089" x2="48.3335495" y2="1.5489037">
		<stop  offset="0" style="stop-color:#5C5C5B"/>
		<stop  offset="0.0766839" style="stop-color:#555554"/>
		<stop  offset="0.4468657" style="stop-color:#3A3A37"/>
		<stop  offset="0.7673774" style="stop-color:#292925"/>
		<stop  offset="1" style="stop-color:#23231F"/>
	</linearGradient>
	<path class="st22" d="M48.451088,12.4506874c0,0.1568632-0.0782127,0.2356215-0.1568642,0.2356215l-0.0782127-0.1568623V1.5489037
		c0,0,0,0,0.0782127,0c0.0786514,0,0.1568642,0.0782301,0.1568642,0.2350932V12.4506874z"/>
	<linearGradient id="SVGID_18_" gradientUnits="userSpaceOnUse" x1="7.4119081" y1="15.3716011" x2="14.4929028" y2="24.9489155">
		<stop  offset="0" style="stop-color:#FFFFFF"/>
		<stop  offset="0.1091235" style="stop-color:#D8E8F3"/>
		<stop  offset="0.3376419" style="stop-color:#8CBCDD"/>
		<stop  offset="0.5418774" style="stop-color:#5098CB"/>
		<stop  offset="0.7142743" style="stop-color:#257FBE"/>
		<stop  offset="0.8480508" style="stop-color:#0A6FB6"/>
		<stop  offset="0.926966" style="stop-color:#0069B3"/>
		<stop  offset="0.9293221" style="stop-color:#056BB4"/>
		<stop  offset="0.9492955" style="stop-color:#2777BC"/>
		<stop  offset="0.9682649" style="stop-color:#3F80C1"/>
		<stop  offset="0.9856594" style="stop-color:#4E85C5"/>
		<stop  offset="1" style="stop-color:#5387C6"/>
	</linearGradient>
	<path class="st23" d="M1.8690652,19.1296787c-0.4706982,1.8824673-0.7845334,3.8430214-0.7845334,5.8823662
		c0,0.16852,0.0579522,1.1679764,0.0622005,1.335516l0.1361659,1.5148182
		c-0.0020697-0.1223316-0.0616503-2.5914001-0.0616503-2.7141685c0-2.0393448,0.3398701-3.930727,0.8105626-5.8131943
		l16.4308643-0.0691719l7.0918465-0.1361656H1.8690652z"/>
</g>
<g>
	<path class="st24" d="M8.3510761,28.0792999c0.018115,0.0952244-0.0524893,0.1426048-0.2122803,0.1426048H6.8028731
		c-0.1328492,0-0.210422-0.0566711-0.2331829-0.1700096L6.302599,26.7229385
		c-0.0227609-0.098011-0.1026564-0.1472473-0.239686-0.1472473H5.4734535c-0.141675,0-0.22157,0.0492363-0.239686,0.1472473
		l-0.2262149,1.3470726c-0.0134706,0.1012611-0.098011,0.1518936-0.2531567,0.1518936H3.4663174
		c-0.1783707,0-0.258266-0.0473804-0.2401502-0.1426048l1.1375785-5.779398
		c0.0455217-0.2392216,0.2420082-0.3586006,0.588995-0.3586006h1.6308851c0.3102908,0,0.490984,0.1226311,0.541151,0.3678894
		L8.3510761,28.0792999z M6.1311955,25.3572884l-0.2670918-2.1655331c-0.0092902-0.0919724-0.0455217-0.1379585-0.1096234-0.1379585
		c-0.0641022,0-0.1026564,0.0492382-0.1165915,0.1472492l-0.232718,2.1562424
		c-0.0185804,0.0706043,0.0408764,0.1059074,0.177906,0.1059074h0.3497739
		C6.0740614,25.4631958,6.1404858,25.4278927,6.1311955,25.3572884z"/>
	<path class="st24" d="M12.8804865,27.2148533c0,0.6712112-0.5002747,1.0070515-1.5003586,1.0070515h-2.089818
		c-0.1918421,0-0.3177233-0.0274067-0.3767157-0.0826836c-0.0594568-0.055275-0.0891857-0.156538-0.0891857-0.3033218v-0.3311939
		c0-0.196022,0.0501671-0.3144722,0.1505003-0.3539543c0.0594568-0.0278702,0.1602554-0.0413418,0.301465-0.0413418h1.4460115
		c0.2508335,0,0.3767157-0.083147,0.3767157-0.2485123c0-0.0706043-0.0274067-0.1407452-0.0822182-0.2113495l-1.5895433-2.0048141
		c-0.4292049-0.5457954-0.6442719-1.0665073-0.6442719-1.5630665c0-0.4171276,0.1439972-0.7144127,0.4319916-0.8923187
		c0.2694139-0.1653652,0.7055864-0.2480469,1.3085165-0.2480469h1.6030149c0.2605886,0,0.3906507,0.1133404,0.3906507,0.3400192
		v0.4138756c0,0.2392216-0.1439972,0.3586006-0.4315271,0.3586006h-1.253705c-0.2879944,0-0.4319916,0.0891857-0.4319916,0.2666264
		c0,0.0919724,0.0413408,0.1871967,0.123558,0.2852077l1.5003586,1.8575649
		C12.5948143,26.1683178,12.8804865,26.752203,12.8804865,27.2148533z"/>
	<path class="st24" d="M19.4444389,27.817318c0,0.2085648-0.0501671,0.3311939-0.1505013,0.3678894
		c-0.0641022,0.0246201-0.1667576,0.0366974-0.3084335,0.0366974h-0.7469273c-0.1918411,0-0.3195801-0.0353031-0.3836823-0.1059074
		c-0.0455227-0.0520248-0.0682831-0.1486435-0.0682831-0.2893887v-2.5520039c0-0.1500359-0.0185795-0.2252846-0.0548115-0.2252846
		c-0.0413418,0-0.0822182,0.0692101-0.12356,0.2067051l-0.5615883,1.8622093
		c-0.0548115,0.1904488-0.2238922,0.2852077-0.5072422,0.2852077c-0.2782402,0-0.4473209-0.094759-0.5067768-0.2852077
		l-0.5550871-1.8622093c-0.0455217-0.137495-0.0887203-0.2067051-0.1300621-0.2067051
		c-0.0366955,0-0.0548115,0.0752487-0.0548115,0.2252846v2.5520039c0,0.1407452-0.0227604,0.2373638-0.0682821,0.2893887
		c-0.0594568,0.0706043-0.1876612,0.1059074-0.3836832,0.1059074h-0.7399607c-0.251298,0-0.3976173-0.0534191-0.4384947-0.1607208
		c-0.0185804-0.0524883-0.0274057-0.1337776-0.0274057-0.243866v-5.4900112c0-0.1500359,0.0283346-0.2522278,0.0854692-0.305645
		c0.0571346-0.0534191,0.1793003-0.0803604,0.3664961-0.0803604h0.7673664c0.2285376,0,0.378109,0.0157928,0.4487143,0.0483093
		c0.0710697,0.0320511,0.1337776,0.1124096,0.18859,0.2410793l0.9383049,2.2621498
		c0.0232239,0.0552769,0.0594559,0.083147,0.109623,0.083147c0.0506306,0,0.0891857-0.0278702,0.1165905-0.083147
		l0.9387703-2.2621498c0.0548115-0.1286697,0.1165905-0.2090282,0.1848736-0.2410793
		c0.0687466-0.0325165,0.2169247-0.0483093,0.4454632-0.0483093h0.774332c0.1871967,0,0.30797,0.0274067,0.3627815,0.0826817
		c0.0548115,0.0552769,0.0822182,0.1560745,0.0822182,0.3033237V27.817318z"/>
	<path class="st24" d="M24.8852119,25.0678997c0,1.1645203-0.0938301,1.9388542-0.2810268,2.3216076
		c-0.301466,0.607111-0.9592075,0.9104347-1.9727631,0.9104347c-1.0233097,0-1.6856956-0.3033237-1.9871616-0.9104347
		c-0.1825523-0.3799667-0.2740593-1.1538353-0.2740593-2.3216076c0-1.1617317,0.091507-1.9281693,0.2740593-2.2993107
		c0.2968197-0.5945702,0.9592075-0.8918533,1.9871616-0.8918533c1.0181999,0,1.6759434,0.2972832,1.9727631,0.8918533
		C24.7913818,23.1457691,24.8852119,23.9122066,24.8852119,25.0678997z M23.2478237,25.0678997
		c0-0.8704872-0.0297279-1.4116383-0.0891857-1.6234531c-0.0682831-0.2540855-0.2443314-0.3813591-0.527216-0.3813591
		c-0.2926388,0-0.472868,0.1272736-0.5416145,0.3813591c-0.0548134,0.1964874-0.0822182,0.7376385-0.0822182,1.6234531
		c0,0.8732738,0.0297279,1.4204636,0.0891857,1.6411037c0.0687466,0.2670918,0.2466526,0.4004059,0.534647,0.4004059
		c0.2875309,0,0.4654369-0.1333141,0.5341835-0.4004059C23.220417,26.5069427,23.2478237,25.959753,23.2478237,25.0678997z"/>
	<path class="st24" d="M29.5172787,27.2148533c0,0.6712112-0.5002747,1.0070515-1.5003586,1.0070515h-2.089819
		c-0.1918411,0-0.3177223-0.0274067-0.3767147-0.0826836c-0.0594578-0.055275-0.0891857-0.156538-0.0891857-0.3033218v-0.3311939
		c0-0.196022,0.0501671-0.3144722,0.1504993-0.3539543c0.0594578-0.0278702,0.1602554-0.0413418,0.301466-0.0413418h1.4460106
		c0.2508354,0,0.3767166-0.083147,0.3767166-0.2485123c0-0.0706043-0.0274067-0.1407452-0.0822182-0.2113495l-1.5895443-2.0048141
		c-0.4292049-0.5457954-0.6442719-1.0665073-0.6442719-1.5630665c0-0.4171276,0.1439972-0.7144127,0.4319916-0.8923187
		c0.2694149-0.1653652,0.7055874-0.2480469,1.3085175-0.2480469h1.603014c0.2605896,0,0.3906517,0.1133404,0.3906517,0.3400192
		v0.4138756c0,0.2392216-0.1439972,0.3586006-0.4315281,0.3586006h-1.2537041c-0.2879944,0-0.4319916,0.0891857-0.4319916,0.2666264
		c0,0.0919724,0.0413399,0.1871967,0.123558,0.2852077l1.5003586,1.8575649
		C29.2316055,26.1683178,29.5172787,26.752203,29.5172787,27.2148533z"/>
	<path class="st24" d="M33.9370651,22.6951962c0,0.1532879-0.0334435,0.2512989-0.0994034,0.2944984
		c-0.0664253,0.0427341-0.188591,0.0641022-0.366497,0.0641022h-1.0618629c-0.2740593,0-0.4384956,0.0919724-0.493309,0.2759171
		c-0.0548115,0.1992741-0.0822163,0.7878036-0.0822163,1.7655926c0,0.883028-0.0069675,1.2722855-0.0209045,1.1677704
		c0.0548134,0.5643768,0.2420101,0.8463326,0.5620556,0.8463326h1.0962372c0.3014641,0,0.4519653,0.1073017,0.4519653,0.3214397
		v0.4510365c0,0.2266788-0.141674,0.3400192-0.4245605,0.3400192h-1.664793c-0.708374,0-1.1659145-0.1913776-1.3740139-0.5745964
		c-0.207634-0.3832188-0.3116837-1.1984291-0.3116837-2.4460945c0-1.9648666-0.0134716-2.398716-0.0408764-1.3015499
		c0.0134697-0.5820274,0.1207714-1.0298119,0.3219032-1.3424263c0.2694149-0.4106236,0.7125549-0.6159363,1.3289547-0.6159363
		h1.740509c0.2921753,0,0.4384956,0.1100883,0.4384956,0.3307285V22.6951962z"/>
	<path class="st24" d="M38.9597816,25.0678997c0,1.1645203-0.0938301,1.9388542-0.2810287,2.3216076
		c-0.3014641,0.607111-0.9592056,0.9104347-1.9727592,0.9104347c-1.0233116,0-1.6856995-0.3033237-1.9871635-0.9104347
		c-0.1825523-0.3799667-0.2740593-1.1538353-0.2740593-2.3216076c0-1.1617317,0.091507-1.9281693,0.2740593-2.2993107
		c0.2968216-0.5945702,0.9592094-0.8918533,1.9871635-0.8918533c1.0181999,0,1.6759415,0.2972832,1.9727592,0.8918533
		C38.8659515,23.1457691,38.9597816,23.9122066,38.9597816,25.0678997z M37.3223915,25.0678997
		c0-0.8704872-0.0297279-1.4116383-0.0891838-1.6234531c-0.0682831-0.2540855-0.2443314-0.3813591-0.5272141-0.3813591
		c-0.2926407,0-0.4728699,0.1272736-0.5416183,0.3813591c-0.0548096,0.1964874-0.0822182,0.7376385-0.0822182,1.6234531
		c0,0.8732738,0.0297318,1.4204636,0.0891876,1.6411037c0.0687485,0.2670918,0.2466545,0.4004059,0.5346489,0.4004059
		c0.287529,0,0.465435-0.1333141,0.5341835-0.4004059C37.2949867,26.5069427,37.3223915,25.959753,37.3223915,25.0678997z"/>
	<path class="st24" d="M47.1202431,22.2813206l-1.4594803,5.6693115c-0.0455208,0.1806927-0.1783714,0.2712727-0.3971519,0.2712727
		h-1.0897369c-0.1504974,0-0.251297-0.021368-0.3014641-0.0645676c-0.0408745-0.0334435-0.0729256-0.105442-0.0956879-0.2159958
		l-0.3906517-2.1009655c-0.0134697-0.0766449-0.0366936-0.1151981-0.0682831-0.1151981
		c-0.0413399,0-0.0757141,0.0353031-0.1031189,0.1059074l-0.7673645,2.2022285
		c-0.0455246,0.1258812-0.1732635,0.188591-0.3832207,0.188591h-0.9113617c-0.1964874,0-0.3130798-0.0780373-0.3493118-0.2345772
		l-1.3154831-5.6967163c-0.0139351-0.0492382-0.0209045-0.0933666-0.0209045-0.1333141
		c0-0.1439972,0.1235619-0.2159958,0.3702126-0.2159958h0.95224c0.1871986,0,0.2991447,0.0901146,0.3358383,0.2712727
		l0.664711,3.0620308c0.0134697,0.0826836,0.0548134,0.1240234,0.1230965,0.1240234
		c0.0455208,0,0.0822144-0.0413399,0.109623-0.1240234l0.6303368-1.8069324l-0.1918411-1.1863518
		c-0.0366974-0.2266788,0.079895-0.3400192,0.349308-0.3400192h0.9796448c0.2011337,0,0.3200455,0.0901146,0.3562775,0.2712727
		l0.5416145,3.052742c0.018116,0.0891857,0.0566711,0.1333122,0.116127,0.1333122
		c0.0594597,0,0.0961533-0.0441265,0.109623-0.1333122l0.5620575-3.0806122
		c0.0315857-0.1621132,0.1393509-0.2434025,0.3219032-0.2434025h1.0274887c0.2104225,0,0.3153992,0.0641022,0.3153992,0.19277
		C47.1406822,22.1740189,47.1337166,22.2232571,47.1202431,22.2813206z"/>
</g>
</svg>
