<?xml version="1.0" encoding="utf-8"?>
<!-- Generator: Adobe Illustrator 21.1.0, SVG Export Plug-In . SVG Version: 6.00 Build 0)  -->
<svg version="1.1" id="图层_1" xmlns="http://www.w3.org/2000/svg" xmlns:xlink="http://www.w3.org/1999/xlink" x="0px" y="0px"
	 viewBox="0 0 236.9909821 51.0236206" style="enable-background:new 0 0 236.9909821 51.0236206;" xml:space="preserve">
<style type="text/css">
	.st0{fill-rule:evenodd;clip-rule:evenodd;fill:#C6C5C0;}
	.st1{fill-rule:evenodd;clip-rule:evenodd;fill:url(#SVGID_1_);}
	.st2{fill-rule:evenodd;clip-rule:evenodd;fill:url(#SVGID_2_);}
	.st3{fill-rule:evenodd;clip-rule:evenodd;fill:url(#SVGID_3_);}
	.st4{fill-rule:evenodd;clip-rule:evenodd;fill:url(#SVGID_4_);}
	.st5{opacity:0.67;fill-rule:evenodd;clip-rule:evenodd;fill:url(#SVGID_5_);}
	.st6{opacity:0.67;fill-rule:evenodd;clip-rule:evenodd;fill:url(#SVGID_6_);}
	.st7{opacity:0.67;fill-rule:evenodd;clip-rule:evenodd;fill:url(#SVGID_7_);}
	.st8{opacity:0.67;fill-rule:evenodd;clip-rule:evenodd;fill:url(#SVGID_8_);}
	.st9{opacity:0.67;fill-rule:evenodd;clip-rule:evenodd;fill:url(#SVGID_9_);}
	.st10{opacity:0.67;fill-rule:evenodd;clip-rule:evenodd;fill:url(#SVGID_10_);}
	.st11{opacity:0.67;fill-rule:evenodd;clip-rule:evenodd;fill:url(#SVGID_11_);}
	.st12{opacity:0.86;fill-rule:evenodd;clip-rule:evenodd;fill:url(#SVGID_12_);}
	.st13{fill-rule:evenodd;clip-rule:evenodd;}
	.st14{fill-rule:evenodd;clip-rule:evenodd;fill:url(#SVGID_13_);}
	.st15{fill-rule:evenodd;clip-rule:evenodd;fill:url(#SVGID_14_);}
	.st16{fill-rule:evenodd;clip-rule:evenodd;fill:url(#SVGID_15_);}
	.st17{fill-rule:evenodd;clip-rule:evenodd;fill:none;stroke:#B2B1A7;stroke-width:0.3895562;stroke-linecap:round;}
	.st18{fill-rule:evenodd;clip-rule:evenodd;fill:none;stroke:#CCCBC3;stroke-width:0.2703534;stroke-linecap:round;}
	.st19{fill-rule:evenodd;clip-rule:evenodd;fill:none;stroke:#E7E6E1;stroke-width:0.1516086;stroke-linecap:round;}
	.st20{fill-rule:evenodd;clip-rule:evenodd;fill:none;stroke:#FFFFFF;stroke-width:0.0324058;stroke-linecap:round;}
	.st21{fill-rule:evenodd;clip-rule:evenodd;fill:url(#SVGID_16_);}
	.st22{fill-rule:evenodd;clip-rule:evenodd;fill:url(#SVGID_17_);}
	.st23{fill-rule:evenodd;clip-rule:evenodd;fill:#FFFFFF;}
	.st24{fill:#323230;}
	.st25{fill:url(#SVGID_18_);}
	.st26{fill:#0669B3;}
	.st27{font-family:'VolvoBroad';}
	.st28{font-size:39.0084877px;}
</style>
<g>
	<path class="st0" d="M25.5120964,9.5172672L25.5120964,9.5172672L25.5120964,9.5172672
		c4.4517288,0,8.4091263,1.8138065,11.2948418,4.6995401c2.968277,2.885602,4.6994095,6.9252157,4.6994095,11.3775148l0,0l0,0l0,0
		l0,0c0,4.3694954-1.7311325,8.4091263-4.6994095,11.2948418c-2.8857155,2.885601-6.8431129,4.6994095-11.2948418,4.6994095l0,0l0,0
		l0,0l0,0c-4.4522991,0-8.409811-1.8138084-11.3775148-4.6994095c-2.8857098-2.8857155-4.6995163-6.9253464-4.6995163-11.2948418
		l0,0l0,0l0,0l0,0c0-4.4522991,1.8138065-8.4919128,4.6995163-11.3775148
		C17.1022854,11.3310738,21.0597973,9.5172672,25.5120964,9.5172672L25.5120964,9.5172672L25.5120964,9.5172672
		L25.5120964,9.5172672z M25.5120964,9.7645073L25.5120964,9.7645073L25.5120964,9.7645073L25.5120964,9.7645073
		L25.5120964,9.7645073c-4.3695107,0-8.3270206,1.8138065-11.1304064,4.6171913
		c-2.885602,2.885601-4.6994085,6.8431129-4.6994085,11.2126236l0,0l0,0l0,0l0,0
		c0,4.3694954,1.8138065,8.3270226,4.6994085,11.1298332c2.8033857,2.8856049,6.7608957,4.6171761,11.1304064,4.6171761l0,0l0,0l0,0
		l0,0c4.3695183,0,8.3270226-1.7315712,11.129837-4.6171761c2.885601-2.8028107,4.6171989-6.7603378,4.6171989-11.1298332l0,0l0,0
		l0,0l0,0c0-4.3695107-1.7315979-8.3270226-4.6171989-11.2126236C33.839119,11.5783138,29.8816147,9.7645073,25.5120964,9.7645073z"
		/>
	<radialGradient id="SVGID_1_" cx="8.0039997" cy="20.6817455" r="51.1456261" gradientUnits="userSpaceOnUse">
		<stop  offset="0" style="stop-color:#FFFFFF"/>
		<stop  offset="0.0409532" style="stop-color:#FDFDFC"/>
		<stop  offset="0.224719" style="stop-color:#FCFBFA"/>
		<stop  offset="0.2866821" style="stop-color:#E2E2DF"/>
		<stop  offset="0.413264" style="stop-color:#AFAEAB"/>
		<stop  offset="0.5196698" style="stop-color:#858581"/>
		<stop  offset="0.600423" style="stop-color:#696965"/>
		<stop  offset="0.646067" style="stop-color:#5F5E5B"/>
		<stop  offset="0.7393837" style="stop-color:#555450"/>
		<stop  offset="0.8994977" style="stop-color:#373632"/>
		<stop  offset="1" style="stop-color:#000000"/>
	</radialGradient>
	<path class="st1" d="M25.5120964,1.0253533c5.6063137,0,10.8005104,1.8960408,14.9223404,5.0293231l2.7207108-2.72071
		l4.782196,4.7816257l-2.7207069,2.8034992c3.0506058,4.1224031,4.7816238,9.1511354,4.7816238,14.5924425
		c0,13.5212193-10.9649429,24.5689526-24.4861641,24.5689526S1.0253619,39.032753,1.0253619,25.5115337
		C1.0253619,11.9908857,11.9908838,1.0253533,25.5120964,1.0253533L25.5120964,1.0253533z M25.5120964,6.7966886
		c-10.3057194,0-18.7155304,8.4091244-18.7155304,18.7148457c0,10.3885098,8.409811,18.7155323,18.7155304,18.7155323
		S44.226944,35.9000435,44.226944,25.5115337C44.226944,15.2058125,35.8178177,6.7966886,25.5120964,6.7966886z"/>
	<linearGradient id="SVGID_2_" gradientUnits="userSpaceOnUse" x1="15.847477" y1="22.2581272" x2="34.1847038" y2="28.5721397">
		<stop  offset="0" style="stop-color:#E4E2DC"/>
		<stop  offset="1" style="stop-color:#FFFFFF"/>
	</linearGradient>
	<path class="st2" d="M25.5120964,6.7138991L25.5120964,6.7138991L25.5120964,6.7138991
		c5.1941986,0,9.8936081,2.0614877,13.3562164,5.5240779c3.3799324,3.3805227,5.5236359,8.0799322,5.5236359,13.3563452l0,0l0,0l0,0
		l0,0c0,5.1941986-2.1437035,9.8930359-5.5236359,13.3562126c-3.4626083,3.3799362-8.1620178,5.5236397-13.3562164,5.5236397l0,0
		l0,0l0,0l0,0c-5.194191,0-9.9758224-2.1437035-13.3563213-5.5236397c-3.3803968-3.4631767-5.5241013-8.162014-5.5241013-13.3562126
		l0,0l0,0l0,0l0,0c0-5.276413,2.1437044-9.9758224,5.5241013-13.3563452l0,0
		C15.536274,8.7753868,20.3179054,6.7138991,25.5120964,6.7138991L25.5120964,6.7138991L25.5120964,6.7138991L25.5120964,6.7138991z
		 M25.5120964,6.9615803L25.5120964,6.9615803L25.5120964,6.9615803L25.5120964,6.9615803L25.5120964,6.9615803
		c-5.1115227,0-9.8109303,2.060915-13.1913214,5.4414206l0,0c-3.3805056,3.379818-5.4414206,7.9971075-5.4414206,13.1913214l0,0l0,0
		l0,0l0,0c0,5.1115074,2.060915,9.8109169,5.4414206,13.1913223c3.3803911,3.297699,8.0797987,5.4414215,13.1913214,5.4414215l0,0
		l0,0l0,0l0,0c5.1115303,0,9.8109398-2.1437225,13.1913223-5.4414215c3.3799324-3.3804054,5.4414215-8.0798149,5.4414215-13.1913223
		l0,0l0,0l0,0l0,0c0-5.1942139-2.0614891-9.8115034-5.4414215-13.1913214
		C35.3230362,9.0224953,30.6236267,6.9615803,25.5120964,6.9615803z"/>
	<radialGradient id="SVGID_3_" cx="40.0659637" cy="41.2936058" r="56.1297989" gradientUnits="userSpaceOnUse">
		<stop  offset="0" style="stop-color:#C6C6C1"/>
		<stop  offset="1" style="stop-color:#87867E"/>
	</radialGradient>
	<path class="st3" d="M25.5120964,0.8604618L25.5120964,0.8604618L25.5120964,0.8604618
		c5.6063137,0,10.8827324,1.8959265,15.0051308,5.1115403l-0.0827904,0.0826745
		c-4.12183-3.1332824-9.3160267-5.0293231-14.9223404-5.0293231c-13.5212126,0-24.4867344,10.9655323-24.4867344,24.4861813
		c0,13.5212193,10.9655218,24.5689526,24.4867344,24.5689526S49.9982605,39.032753,49.9982605,25.5115337
		c0-5.4413071-1.7310181-10.4700394-4.7816238-14.5924425l0.0822144-0.0827894
		c3.0504951,4.122386,4.8642998,9.1517086,4.8642998,14.6752319l0,0l0,0l0,0l0,0
		c0,6.843111-2.8028107,13.0264301-7.2551041,17.4787159c-4.4523087,4.4523163-10.5528374,7.1729088-17.3959503,7.1729088l0,0l0,0
		l0,0l0,0c-6.7608948,0-12.9442129-2.7205925-17.3959408-7.1729088c-4.4522943-4.5345192-7.2556853-10.6356049-7.2556853-17.4787159
		l0,0l0,0l0,0l0,0c0-6.7603416,2.803391-12.9436417,7.2556853-17.3959427
		C12.5678835,3.6632915,18.6689911,0.8604618,25.5120964,0.8604618L25.5120964,0.8604618L25.5120964,0.8604618z"/>
	<radialGradient id="SVGID_4_" cx="34.3415794" cy="34.4238052" r="39.416893" gradientUnits="userSpaceOnUse">
		<stop  offset="0" style="stop-color:#FFFFFF"/>
		<stop  offset="0.1571968" style="stop-color:#F6F6F6"/>
		<stop  offset="0.297753" style="stop-color:#EBEBEB"/>
		<stop  offset="0.334954" style="stop-color:#D8D8D6"/>
		<stop  offset="0.3996471" style="stop-color:#BAB9B7"/>
		<stop  offset="0.4636585" style="stop-color:#A0A09C"/>
		<stop  offset="0.5259795" style="stop-color:#8E8D89"/>
		<stop  offset="0.5858085" style="stop-color:#82827E"/>
		<stop  offset="0.640449" style="stop-color:#7E7D7A"/>
		<stop  offset="0.7376599" style="stop-color:#5D5D59"/>
		<stop  offset="0.8455524" style="stop-color:#3D3C38"/>
		<stop  offset="0.9368813" style="stop-color:#191816"/>
		<stop  offset="1" style="stop-color:#000000"/>
	</radialGradient>
	<path class="st4" d="M25.5120964,6.8787909c10.3057213,0,18.7148476,8.3270216,18.7148476,18.7155304
		c0,10.3057213-8.4091263,18.7148438-18.7148476,18.7148438S6.7965655,35.9000435,6.7965655,25.5943222
		C6.7965655,15.2058125,15.206377,6.8787909,25.5120964,6.8787909L25.5120964,6.8787909z M25.5120964,9.5172672
		c-8.821804,0-15.9948206,7.173027-15.9948206,16.077055c0,8.8218117,7.1730165,15.9942513,15.9948206,15.9942513
		s15.9942513-7.1724396,15.9942513-15.9942513C41.5063477,16.6902943,34.3339081,9.5172672,25.5120964,9.5172672z"/>
	<g>
		<linearGradient id="SVGID_5_" gradientUnits="userSpaceOnUse" x1="3.2297013" y1="31.5579109" x2="3.2297013" y2="31.4193878">
			<stop  offset="0" style="stop-color:#FFFFFF"/>
			<stop  offset="0.17" style="stop-color:#FCFBFA"/>
			<stop  offset="0.426966" style="stop-color:#BCBCB6"/>
			<stop  offset="0.4351676" style="stop-color:#B9B8B3"/>
			<stop  offset="0.5344076" style="stop-color:#92918B"/>
			<stop  offset="0.6334417" style="stop-color:#6E6D67"/>
			<stop  offset="0.7305448" style="stop-color:#50504A"/>
			<stop  offset="0.8252248" style="stop-color:#393834"/>
			<stop  offset="0.9163445" style="stop-color:#201F1C"/>
			<stop  offset="1" style="stop-color:#131311"/>
		</linearGradient>
		<path class="st5" d="M3.1394148,31.4539261c0,0.0229015,0.0056047,0.0446587,0.0167122,0.0636673
			c0.0106492,0.0195637,0.0286269,0.0290852,0.0525591,0.0290852c0.0179777,0,0.035841-0.004467,0.0542767-0.0133991
			c0.0178633-0.0089302,0.0368717-0.0229015,0.057025-0.040781V31.310791
			c-0.0682466,0.0100765-0.115195,0.0279408-0.1414173,0.0519867C3.1522336,31.3873978,3.1394148,31.4175129,3.1394148,31.4539261z"
			/>
		<linearGradient id="SVGID_6_" gradientUnits="userSpaceOnUse" x1="6.6872673" y1="31.0347404" x2="6.6872673" y2="30.9779186">
			<stop  offset="0" style="stop-color:#FFFFFF"/>
			<stop  offset="0.17" style="stop-color:#FCFBFA"/>
			<stop  offset="0.426966" style="stop-color:#BCBCB6"/>
			<stop  offset="0.4351676" style="stop-color:#B9B8B3"/>
			<stop  offset="0.5344076" style="stop-color:#92918B"/>
			<stop  offset="0.6334417" style="stop-color:#6E6D67"/>
			<stop  offset="0.7305448" style="stop-color:#50504A"/>
			<stop  offset="0.8252248" style="stop-color:#393834"/>
			<stop  offset="0.9163445" style="stop-color:#201F1C"/>
			<stop  offset="1" style="stop-color:#131311"/>
		</linearGradient>
		<rect x="6.6299562" y="30.9333725" class="st6" width="0.1146225" height="0.0967593"/>
		<linearGradient id="SVGID_7_" gradientUnits="userSpaceOnUse" x1="6.6872673" y1="31.153986" x2="6.6872673" y2="31.0952148">
			<stop  offset="0" style="stop-color:#FFFFFF"/>
			<stop  offset="0.17" style="stop-color:#FCFBFA"/>
			<stop  offset="0.426966" style="stop-color:#BCBCB6"/>
			<stop  offset="0.4351676" style="stop-color:#B9B8B3"/>
			<stop  offset="0.5344076" style="stop-color:#92918B"/>
			<stop  offset="0.6334417" style="stop-color:#6E6D67"/>
			<stop  offset="0.7305448" style="stop-color:#50504A"/>
			<stop  offset="0.8252248" style="stop-color:#393834"/>
			<stop  offset="0.9163445" style="stop-color:#201F1C"/>
			<stop  offset="1" style="stop-color:#131311"/>
		</linearGradient>
		<rect x="6.6299562" y="31.0491409" class="st7" width="0.1146225" height="0.10008"/>
		<linearGradient id="SVGID_8_" gradientUnits="userSpaceOnUse" x1="4.3893209" y1="31.5579109" x2="4.3893209" y2="31.4193878">
			<stop  offset="0" style="stop-color:#FFFFFF"/>
			<stop  offset="0.17" style="stop-color:#FCFBFA"/>
			<stop  offset="0.426966" style="stop-color:#BCBCB6"/>
			<stop  offset="0.4351676" style="stop-color:#B9B8B3"/>
			<stop  offset="0.5344076" style="stop-color:#92918B"/>
			<stop  offset="0.6334417" style="stop-color:#6E6D67"/>
			<stop  offset="0.7305448" style="stop-color:#50504A"/>
			<stop  offset="0.8252248" style="stop-color:#393834"/>
			<stop  offset="0.9163445" style="stop-color:#201F1C"/>
			<stop  offset="1" style="stop-color:#131311"/>
		</linearGradient>
		<path class="st8" d="M4.2990313,31.4539261c0,0.0229015,0.0056109,0.0446587,0.0167184,0.0636673
			c0.0106492,0.0195637,0.0285125,0.0290852,0.0525589,0.0290852c0.0179777,0,0.035841-0.004467,0.0542769-0.0133991
			c0.0178633-0.0089302,0.0368714-0.0229015,0.057025-0.040781V31.310791
			c-0.0682468,0.0100765-0.1151953,0.0279408-0.1414175,0.0519867C4.3118563,31.3873978,4.2990313,31.4175129,4.2990313,31.4539261z
			"/>
		<linearGradient id="SVGID_9_" gradientUnits="userSpaceOnUse" x1="7.289465" y1="31.260931" x2="7.289465" y2="31.1725731">
			<stop  offset="0" style="stop-color:#FFFFFF"/>
			<stop  offset="0.17" style="stop-color:#FCFBFA"/>
			<stop  offset="0.426966" style="stop-color:#BCBCB6"/>
			<stop  offset="0.4351676" style="stop-color:#B9B8B3"/>
			<stop  offset="0.5344076" style="stop-color:#92918B"/>
			<stop  offset="0.6334417" style="stop-color:#6E6D67"/>
			<stop  offset="0.7305448" style="stop-color:#50504A"/>
			<stop  offset="0.8252248" style="stop-color:#393834"/>
			<stop  offset="0.9163445" style="stop-color:#201F1C"/>
			<stop  offset="1" style="stop-color:#131311"/>
		</linearGradient>
		<rect x="7.130929" y="31.103302" class="st9" width="0.3170727" height="0.1504635"/>
		<linearGradient id="SVGID_10_" gradientUnits="userSpaceOnUse" x1="6.6185656" y1="33.7334213" x2="6.6185656" y2="31.9682732">
			<stop  offset="0" style="stop-color:#FFFFFF"/>
			<stop  offset="0.17" style="stop-color:#FCFBFA"/>
			<stop  offset="0.426966" style="stop-color:#BCBCB6"/>
			<stop  offset="0.4351676" style="stop-color:#B9B8B3"/>
			<stop  offset="0.5344076" style="stop-color:#92918B"/>
			<stop  offset="0.6334417" style="stop-color:#6E6D67"/>
			<stop  offset="0.7305448" style="stop-color:#50504A"/>
			<stop  offset="0.8252248" style="stop-color:#393834"/>
			<stop  offset="0.9163445" style="stop-color:#201F1C"/>
			<stop  offset="1" style="stop-color:#131311"/>
		</linearGradient>
		<path class="st10" d="M10.3246717,30.5844498H1.5577097c0.2163056,1.0299015,0.5159731,2.0273819,0.8576648,3.0058365h9.2640476
			C11.1303501,32.6436653,10.6724319,31.6401157,10.3246717,30.5844498z M6.5874739,30.7751236l0.0665293,0.0424824
			l-0.0240469,0.0273666v0.0693913h0.1085534l0.0240469-0.0385876l0.0452309,0.0537033l-0.0240469,0.0273666v0.0732861h0.0123668
			l0.0329785-0.042614l0.0480933,0.0616226H6.7837405c0,0.061491,0.0011449,0.1055603,0.0028625,0.13134l-0.0420241,0.0267944
			v-0.0385876H6.6299562v0.1118736h0.087255l0.03023-0.0463753l0.0452309,0.0659389H6.6299562v0.1039906h0.1415319
			l0.0335507-0.054163l0.051414,0.0731716H6.6299562c0,0.0436268,0.0017176,0.0899868,0.0061836,0.139225l-0.048666,0.0229015
			c0.0022902-0.059185,0.0034351-0.1128883,0.0034351-0.1621265H6.4701033c-0.018436,0-0.0335512,0.0038929-0.0453453,0.0117931
			l-0.0273676-0.0308018H6.590909v-0.1039906H6.5030813c-0.0162601,0-0.0279398,0.0033379-0.0362988,0.0112381l-0.0240469-0.0308018
			H6.590909v-0.1118736H6.5030813c-0.0162601,0-0.0279398,0.0040073-0.0362988,0.0117931l-0.0240469-0.0312595H6.590909v-0.1000805
			H6.4605989c-0.0156875,0-0.0279341,0.0038929-0.035841,0.0116634l-0.0245047-0.0306721H6.590909v-0.0967598H6.5092649
			c-0.0162601,0-0.0285068,0.0038929-0.0364137,0.0116806l-0.0240469-0.0306892H6.590909
			C6.590909,30.8600883,6.5897641,30.8137112,6.5874739,30.7751236z M2.9800136,31.5695801H2.744127v-0.0229015h0.0692773
			c0.0100768,0,0.0174053-0.0027485,0.0212986-0.0077877c0.0038931-0.0050373,0.0061834-0.012825,0.0061834-0.0229015V30.963604
			c0-0.0100784-0.0022902-0.0179787-0.0061834-0.0230331c-0.0044599-0.005022-0.0117943-0.0077705-0.0218711-0.0077705H2.744127
			v-0.0229015h0.0341234c0.0184357,0,0.0357265-0.0028629,0.0525591-0.0079002
			c0.0161457-0.0050392,0.0318332-0.012825,0.0463817-0.0229015h0.0061774v0.6368923
			c0,0.0100765,0.0027483,0.0178642,0.0072141,0.0229015c0.0056109,0.0050392,0.0118003,0.0077877,0.0201535,0.0077877h0.0692773
			V31.5695801z M3.4105637,31.5483952c-0.0100708,0.0139542-0.0229015,0.0211849-0.0391617,0.0211849
			c-0.0139701,0-0.0250773-0.0038948-0.033551-0.0116806c-0.0077865-0.007328-0.0139699-0.020153-0.0178633-0.0385895
			c-0.0201533,0.0184364-0.0385833,0.0318336-0.0558798,0.0407486c-0.0168326,0.0090637-0.0374441,0.0135288-0.0614908,0.0135288
			c-0.0364137,0-0.0643475-0.0112381-0.084507-0.0329952c-0.0200388-0.0218544-0.0301156-0.0470467-0.0301156-0.0749855
			c0-0.0463924,0.0156877-0.0843925,0.0469484-0.1140499c0.030688-0.0296745,0.0927515-0.0508423,0.1850448-0.0636673v-0.0464897
			c0-0.02565-0.0044658-0.0469494-0.0133915-0.0636673c-0.0089376-0.0168324-0.0296633-0.0251904-0.0620692-0.0251904
			c-0.0341175,0-0.0581641,0.0072136-0.07214,0.021183c-0.0139701,0.0145435-0.0190084,0.029068-0.0151153,0.0447731
			c0.0038993,0.0100765,0.0038993,0.0207253,0,0.0308018c-0.0038931,0.0105362-0.0122523,0.0155735-0.0240467,0.0155735
			c-0.008359,0-0.0145423-0.0033207-0.0195808-0.0095043c-0.0050383-0.0066414-0.0077865-0.0161457-0.0077865-0.0290852
			c0-0.0234909,0.012825-0.0452461,0.0391617-0.0659561c0.0262225-0.0206108,0.0587428-0.0306873,0.0967593-0.0306873
			c0.0401924,0,0.0704224,0.0095024,0.0905759,0.0290833c0.0200448,0.0190086,0.0301156,0.0469494,0.0301156,0.0826759v0.2550087
			c0,0.0206127,0.0017176,0.0329781,0.0044658,0.036871c0.0028627,0.0038776,0.0084736,0.0056114,0.0168326,0.0056114
			c0.0100768,0,0.0167241-0.0056114,0.0206115-0.0172901c0.0040078-0.011795,0.0061834-0.027483,0.0061834-0.0480938h0.015121
			C3.4256847,31.5092335,3.4206405,31.5344257,3.4105637,31.5483952z M3.8036697,31.5695801H3.6762223v-0.0229015h0.0150006
			c0.0100765,0,0.017405-0.0027485,0.0212984-0.0077877c0.0038931-0.0050373,0.0061834-0.012825,0.0061834-0.0229015v-0.2589016
			c0-0.0312614-0.0050383-0.0548496-0.015115-0.0715675c-0.0100768-0.0168324-0.0251918-0.0251923-0.0447726-0.0251923
			c-0.0184357,0-0.0368717,0.0079002-0.0558798,0.0229015C3.5839288,31.1989174,3.5665295,31.220789,3.5503778,31.2493v0.2666893
			c0,0.0100765,0.0021758,0.0178642,0.0077868,0.0229015c0.0050383,0.0050392,0.0112216,0.0077877,0.0195808,0.0077877h0.015121
			v0.0229015H3.4654131v-0.0229015h0.015115c0.0099621,0,0.0172966-0.0027485,0.021184-0.0077877
			c0.0038931-0.0050373,0.0061834-0.012825,0.0061834-0.0229015v-0.3327599c0-0.0072136-0.0011451-0.0133972-0.0034351-0.0172901
			c-0.0021758-0.0038948-0.0066357-0.0056114-0.012825-0.0056114H3.4654131v-0.0229015h0.0217564
			c0.0106552,0,0.020726-0.0011444,0.03023-0.0038929c0.0095043-0.0028801,0.018436-0.0077877,0.0267949-0.0156879h0.0061834
			v0.0889721c0.0178633-0.0257797,0.0362992-0.0447731,0.0542769-0.0575962
			c0.0178633-0.0135136,0.0368714-0.0195808,0.057025-0.0195808c0.034009,0,0.0592005,0.0116787,0.0754666,0.0345802
			c0.0161397,0.0235882,0.0240469,0.0581703,0.0240469,0.10466v0.2471085c0,0.0100765,0.0027421,0.0178642,0.0077806,0.0229015
			c0.0050383,0.0050392,0.0112216,0.0077877,0.0195808,0.0077877h0.015115V31.5695801z M4.1256661,31.5388908
			c-0.0172906,0.0229015-0.0396199,0.0346966-0.0681324,0.0346966c-0.03023,0-0.0525589-0.011795-0.0676742-0.0346966
			c-0.015115-0.0234909-0.0229015-0.0593147-0.0229015-0.1084385v-0.2701244H3.8763824v-0.0229015H3.900429
			c0.0245106,0,0.0440855-0.0095043,0.0592005-0.0290852c0.015115-0.0190086,0.0246193-0.0492382,0.0290852-0.0905762
			l0.002748-0.0306873h0.0179777v0.1503487h0.1206918v0.0229015H4.0094404v0.2856979
			c0,0.0364132,0.0050383,0.0604591,0.0150008,0.0732841c0.0100765,0.0133972,0.0251918,0.0195808,0.0453448,0.0195808
			c0.0201535,0,0.0362992-0.008358,0.0486722-0.0251923c0.0116739-0.0167179,0.0201473-0.0407639,0.0240464-0.0715828
			l0.0151091,0.0079174C4.1536059,31.4857597,4.1430712,31.5153999,4.1256661,31.5388908z M4.5701861,31.5483952
			c-0.0100765,0.0139542-0.0229015,0.0211849-0.0391617,0.0211849c-0.0139699,0-0.0250773-0.0038948-0.033545-0.0116806
			c-0.0077925-0.007328-0.0139756-0.020153-0.017869-0.0385895c-0.0201535,0.0184364-0.038589,0.0318336-0.0558801,0.0407486
			c-0.0168324,0.0090637-0.0374441,0.0135288-0.0614905,0.0135288c-0.0364137,0-0.0643535-0.0112381-0.084507-0.0329952
			c-0.0200391-0.0218544-0.0301156-0.0470467-0.0301156-0.0749855c0-0.0463924,0.015573-0.0843925,0.0469484-0.1140499
			c0.0306878-0.0296745,0.0927515-0.0508423,0.1850448-0.0636673v-0.0464897c0-0.02565-0.0044661-0.0469494-0.0133977-0.0636673
			c-0.0089312-0.0168324-0.0296574-0.0251904-0.0620632-0.0251904c-0.0341234,0-0.0581698,0.0072136-0.0721397,0.021183
			c-0.0139704,0.0145435-0.0190086,0.029068-0.0151153,0.0447731c0.0038934,0.0100765,0.0038934,0.0207253,0,0.0308018
			c-0.0038934,0.0105362-0.0122523,0.0155735-0.0240469,0.0155735c-0.0083528,0-0.0145421-0.0033207-0.0195808-0.0095043
			c-0.0050383-0.0066414-0.0077863-0.0161457-0.0077863-0.0290852c0-0.0234909,0.012825-0.0452461,0.0391617-0.0659561
			c0.0262222-0.0206108,0.0586281-0.0306873,0.0967593-0.0306873c0.0401921,0,0.0704222,0.0095024,0.0905757,0.0290833
			c0.0200391,0.0190086,0.0301156,0.0469494,0.0301156,0.0826759v0.2550087c0,0.0206127,0.0017238,0.0329781,0.0044661,0.036871
			c0.0028625,0.0038776,0.0084734,0.0056114,0.0168324,0.0056114c0.010077,0,0.0167184-0.0056114,0.0206118-0.0172901
			c0.0040078-0.011795,0.0061831-0.027483,0.0061831-0.0480938h0.0151153
			C4.5853014,31.5092335,4.5802631,31.5344257,4.5701861,31.5483952z M4.9464598,31.217926
			c-0.0050387,0.0079002-0.0122528,0.0117931-0.0223293,0.0117931s-0.0178571-0.0038929-0.0229015-0.0117931
			c-0.0050383-0.0072155-0.0067558-0.0178642-0.0044661-0.0306892c0-0.0079002-0.0011449-0.0139694-0.0028625-0.0190086
			c-0.0021758-0.0050373-0.008359-0.0079002-0.018436-0.0079002c-0.0156875,0-0.0351539,0.0129395-0.0587425,0.0385895
			c-0.0229015,0.0257645-0.0435128,0.0620632-0.0614905,0.1084385v0.2086334c0,0.0100765,0.0022898,0.0178642,0.0073285,0.0229015
			c0.0050383,0.0050392,0.0116796,0.0077877,0.0195808,0.0077877h0.0665288v0.0229015H4.6250358v-0.0229015h0.0603456
			c0.0100765,0,0.0172906-0.0027485,0.0212984-0.0077877c0.0038934-0.0050373,0.0060749-0.012825,0.0060749-0.0229015v-0.3209648
			c0-0.0100765-0.0021815-0.0184364-0.0060749-0.0251923c-0.0045805-0.0060692-0.0117946-0.0095043-0.0218711-0.0095043h-0.059773
			v-0.0229015h0.0245047c0.0145426,0,0.0319476-0.0017185,0.0515285-0.0061836
			c0.0195808-0.0033207,0.0345874-0.0083599,0.0446582-0.0133972h0.0095043v0.1392422
			c0.020153-0.041338,0.0420241-0.0727139,0.0649257-0.0944691c0.022902-0.0218716,0.0469484-0.0329781,0.0709953-0.0329781
			c0.020153,0,0.0357323,0.0055943,0.0463758,0.0172901c0.0112214,0.0117931,0.0168386,0.0251923,0.0168386,0.0403061
			C4.9543667,31.2000618,4.951498,31.2107105,4.9464598,31.217926z M5.7992005,31.4231243v0.154356
			c0,0.054163-0.0218711,0.0911484-0.0666437,0.1117592c-0.0016031-0.0385876-0.0329781-0.0665283-0.0933237-0.0849648v-0.0151138
			c0.0403066,0.0050373,0.0693917,0.0084724,0.0878277,0.0095043c0.0178633,0.0011444,0.0267949-0.0145607,0.0267949-0.0480938
			v-0.1274471H5.5094953c-0.0223289,0-0.0424824,0.0038929-0.0603456,0.0117931l-0.0240464-0.0308018h0.3287525
			c0-0.0335503-0.0011454-0.0709953-0.0027485-0.1117611l0.0390472,0.0229034l0.0816441-0.088974H5.6213698l-0.0273676,0.011795
			l-0.0240464-0.0308037h0.298522l0.0335512-0.0385876l0.0542827,0.077177
			c-0.0285187-0.0050373-0.0806198,0.0218716-0.1571112,0.0810719l0.0301156,0.0189915l-0.0301156,0.0234909v0.0346966h0.2023358
			l0.0419097-0.054163l0.0604606,0.0731716H5.7992005z M6.1072273,31.1917038c-0.03023,0-0.0525594,0.0155716-0.0665293,0.0463753
			c-0.1246991-0.0665302-0.2051983-0.1644344-0.2414975-0.293026H5.7812228c0,0.1208057,0.0011454,0.1929455,0.0028629,0.215847
			l-0.0515289,0.0156879c0.0022902-0.0564518,0.0034356-0.1274471,0.0034356-0.2125263
			c-0.0665293,0.1392403-0.1722202,0.24436-0.3170729,0.3164997l-0.002748-0.0156879
			c0.1263022-0.0821018,0.2191682-0.1889381,0.277338-0.3198204H5.5067472c-0.0223289,0-0.0424824,0.0040073-0.0604601,0.0117931
			l-0.0245047-0.031374h0.3142099c0-0.0229015-0.0011454-0.0692768-0.0034356-0.1385555l0.078896,0.0424824l-0.03023,0.0267963
			v0.0692768H6.004405l0.0424767-0.053606l0.054162,0.0731869H5.8142014c0.0503836,0.125843,0.1481733,0.203022,0.293026,0.231535
			V31.1917038z M6.886683,31.6081524c-0.0403066,0.0157032-0.0587425,0.0347118-0.0548491,0.0581856
			c-0.0558801,0.0022907-0.1196609,0.0022907-0.1900835,0c-0.0704222-0.0027466-0.1314549-0.015686-0.1822963-0.0385876
			c-0.0514145-0.0234756-0.0933242-0.0525608-0.1252661-0.0888596c-0.0262284,0.0492382-0.0737491,0.0989361-0.1419897,0.1503487
			L6.1832604,31.678133c0.0519867-0.0442009,0.0956144-0.1017971,0.1297379-0.1739368
			c-0.0324059-0.0592022-0.0564528-0.1247005-0.0727067-0.1968403l0.0123606-0.0072308
			c0.0200391,0.0615082,0.044086,0.1152115,0.0720258,0.1615887c0.0201535-0.0665474,0.0347018-0.1543579,0.0424824-0.2622242
			H6.2800198L6.2554007,31.241972l-0.0419102-0.054163l0.0362992-0.0191212
			c0.035841-0.074316,0.0704222-0.1503506,0.1023703-0.2275276H6.2554007l-0.035841,0.0117931l-0.0245047-0.031374h0.159853
			l0.0273733-0.0419102l0.0424767,0.061491l-0.0335507,0.0190067c-0.034009,0.0699654-0.0704226,0.1431351-0.1084394,0.220314
			h0.0816445l0.0240464-0.0346966l0.0453515,0.0537052l-0.027482,0.0267944
			c-0.0116858,0.1085548-0.0301218,0.1985569-0.0541682,0.2701244c0.0240464,0.0306892,0.059773,0.0553074,0.1072941,0.0731716
			c0.046948,0.018549,0.1012249,0.0290852,0.1615705,0.0330925c0.0604601,0.0038929,0.148746,0.0004578,0.2656584-0.0095043
			V31.6081524z M7.6319013,31.6009541c-0.0362992,0.0071983-0.0575914,0.0279408-0.0630937,0.061491
			c-0.058743-0.0229015-0.1085539-0.048666-0.1498914-0.0771942c-0.0407648-0.0284958-0.0787811-0.0676575-0.1129045-0.1173553
			c-0.0341234-0.0503826-0.0604606-0.1151943-0.0783238-0.1951218H7.130929v0.3085995l0.1627154-0.0888748l0.0061836,0.0116978
			c-0.1045399,0.0721397-0.1671815,0.125843-0.1867623,0.1621418l-0.0362992-0.0653839
			c0.0077868-0.0106487,0.012825-0.0257645,0.0151153-0.0463753v-0.5558224c0-0.0407639-0.0011454-0.077177-0.0034356-0.1078663
			l0.0424829,0.0385895h0.1537838c-0.0038929-0.0436268-0.021184-0.0883999-0.051414-0.1347752l0.0061836-0.011795
			c0.0502691,0.028513,0.0793538,0.0542774,0.0861101,0.077179c0.0072141,0.0229015,0.0005722,0.0463753-0.0195808,0.0693913
			h0.1358066l0.0240464-0.0385895l0.048666,0.054163l-0.0273676,0.0229988v0.2197571
			c0,0.028513,0.0011454,0.0620632,0.0027485,0.1005383l-0.0419102,0.0190086v-0.0345821H7.2455511
			c0.0201535,0.0671024,0.0475211,0.123539,0.0816445,0.1699314c0.0883999-0.0542774,0.1510358-0.1056919,0.187335-0.1543579
			l0.0447726,0.077179h-0.035841c-0.0603456,0.0279408-0.1218367,0.0593147-0.1844726,0.0922928
			c0.0401926,0.0463772,0.087255,0.0793381,0.1402783,0.0983639c0.0536985,0.0195808,0.1045399,0.029068,0.1526332,0.029068
			V31.6009541z"/>
		<linearGradient id="SVGID_11_" gradientUnits="userSpaceOnUse" x1="7.289465" y1="31.0901165" x2="7.289465" y2="31.0110474">
			<stop  offset="0" style="stop-color:#FFFFFF"/>
			<stop  offset="0.17" style="stop-color:#FCFBFA"/>
			<stop  offset="0.426966" style="stop-color:#BCBCB6"/>
			<stop  offset="0.4351676" style="stop-color:#B9B8B3"/>
			<stop  offset="0.5344076" style="stop-color:#92918B"/>
			<stop  offset="0.6334417" style="stop-color:#6E6D67"/>
			<stop  offset="0.7305448" style="stop-color:#50504A"/>
			<stop  offset="0.8252248" style="stop-color:#393834"/>
			<stop  offset="0.9163445" style="stop-color:#201F1C"/>
			<stop  offset="1" style="stop-color:#131311"/>
		</linearGradient>
		<rect x="7.130929" y="30.9490604" class="st11" width="0.3170727" height="0.1346449"/>
		
			<linearGradient id="SVGID_12_" gradientUnits="userSpaceOnUse" x1="28.4741192" y1="33.7334213" x2="28.4741192" y2="31.9682732" gradientTransform="matrix(-1 0 0 1 72.8914871 0)">
			<stop  offset="0" style="stop-color:#FFFFFF"/>
			<stop  offset="0.17" style="stop-color:#FCFBFA"/>
			<stop  offset="0.426966" style="stop-color:#BCBCB6"/>
			<stop  offset="0.4351676" style="stop-color:#B9B8B3"/>
			<stop  offset="0.5344076" style="stop-color:#92918B"/>
			<stop  offset="0.6334417" style="stop-color:#6E6D67"/>
			<stop  offset="0.7305448" style="stop-color:#50504A"/>
			<stop  offset="0.8252248" style="stop-color:#393834"/>
			<stop  offset="0.9163445" style="stop-color:#201F1C"/>
			<stop  offset="1" style="stop-color:#131311"/>
		</linearGradient>
		<path class="st12" d="M40.7112045,30.5844498h8.7670746c-0.2164192,1.0299015-0.5160866,2.0273819-0.857666,3.0058365h-9.2641563
			C39.9055252,32.6436653,40.3634415,31.6401157,40.7112045,30.5844498z"/>
	</g>
	<path class="st13" d="M49.9160423,19.3282166L49.9160423,19.3282166c0.5770149,1.9786968,0.8241158,4.0396118,0.8241158,6.1833172
		c0,2.2264938-0.3293266,4.3700829-0.8241158,6.4309826H1.1903679v-0.0826588h48.6428871
		c0.5775757-2.0609322,0.8246918-4.2046204,0.8246918-6.4305573C50.6579475,23.2857094,50.4108315,21.2248116,49.9160423,19.3282166
		z"/>
	<radialGradient id="SVGID_13_" cx="2.5668895" cy="20.6840668" r="31.8200588" gradientUnits="userSpaceOnUse">
		<stop  offset="0" style="stop-color:#0069B4"/>
		<stop  offset="0.0821741" style="stop-color:#0063AA"/>
		<stop  offset="0.1657689" style="stop-color:#005FA3"/>
		<stop  offset="0.241573" style="stop-color:#005EA1"/>
		<stop  offset="0.3914962" style="stop-color:#005998"/>
		<stop  offset="0.6854187" style="stop-color:#004B81"/>
		<stop  offset="0.837079" style="stop-color:#004273"/>
		<stop  offset="0.9334992" style="stop-color:#004272"/>
		<stop  offset="0.9681835" style="stop-color:#004071"/>
		<stop  offset="0.9928582" style="stop-color:#003C6F"/>
		<stop  offset="1" style="stop-color:#003B6E"/>
	</radialGradient>
	<path class="st14" d="M1.1081512,19.2459984h48.8078918c0.4947891,1.9788132,0.7419052,4.039711,0.7419052,6.1833019
		c0,2.2259369-0.2471161,4.3696251-0.8246918,6.4305573H1.1903679c-0.5771203-2.0609322-0.9069034-4.2046204-0.9069034-6.4305573
		C0.2834646,23.2857094,0.6132476,21.2248116,1.1081512,19.2459984z"/>
	<linearGradient id="SVGID_14_" gradientUnits="userSpaceOnUse" x1="49.1033974" y1="13.9402838" x2="36.7028122" y2="1.5396996">
		<stop  offset="0.005618" style="stop-color:#0A0A04"/>
		<stop  offset="0.646067" style="stop-color:#3F3E3A"/>
		<stop  offset="0.6504321" style="stop-color:#43433F"/>
		<stop  offset="0.6549584" style="stop-color:#51504C"/>
		<stop  offset="0.6595588" style="stop-color:#656460"/>
		<stop  offset="0.6642136" style="stop-color:#81807B"/>
		<stop  offset="0.6689082" style="stop-color:#A1A09B"/>
		<stop  offset="0.673636" style="stop-color:#C6C5C1"/>
		<stop  offset="0.6783056" style="stop-color:#EEEDEA"/>
		<stop  offset="0.68" style="stop-color:#FDFDFA"/>
		<stop  offset="0.6823986" style="stop-color:#FCFBF8"/>
		<stop  offset="0.6839324" style="stop-color:#F5F5F1"/>
		<stop  offset="0.6852243" style="stop-color:#EBEAE6"/>
		<stop  offset="0.6863818" style="stop-color:#DBDAD5"/>
		<stop  offset="0.6874495" style="stop-color:#C6C5BF"/>
		<stop  offset="0.6884517" style="stop-color:#ACABA4"/>
		<stop  offset="0.6893843" style="stop-color:#8B8A83"/>
		<stop  offset="0.69" style="stop-color:#6F6E68"/>
		<stop  offset="0.7056876" style="stop-color:#5F5E59"/>
		<stop  offset="0.7315442" style="stop-color:#494946"/>
		<stop  offset="0.7620891" style="stop-color:#373635"/>
		<stop  offset="0.7998703" style="stop-color:#1E1D1D"/>
		<stop  offset="0.8528701" style="stop-color:#070707"/>
		<stop  offset="1" style="stop-color:#000000"/>
	</linearGradient>
	<polygon class="st15" points="44.1448402,1.6851656 49.5861511,7.126586 45.5465317,11.1661825 45.7936478,11.4960966 
		42.9080467,13.8046932 42.0011406,14.1345901 47.9373436,8.115592 43.1551476,3.3339665 37.2195091,9.2701759 
		37.4666252,8.4454718 	"/>
	<radialGradient id="SVGID_15_" cx="48.083786" cy="2.3622799" r="13.297987" gradientUnits="userSpaceOnUse">
		<stop  offset="0" style="stop-color:#55544F"/>
		<stop  offset="1" style="stop-color:#4F4F4A"/>
	</radialGradient>
	<path class="st16" d="M38.7034187,1.1075873c4.7816277,2.5557041,8.6569214,6.5132155,11.2948418,11.2126236V1.1075873H38.7034187z
		"/>
	<path class="st17" d="M38.7034187,1.1075873c4.7816277,2.5557041,8.6569214,6.5132155,11.2948418,11.2126236"/>
	<path class="st18" d="M38.7034187,1.1075873c4.6994095,2.5557041,8.6569214,6.5132155,11.2126236,11.2126236"/>
	<path class="st19" d="M38.6206284,1.1075873c4.7821999,2.5557041,8.6569214,6.5132155,11.295414,11.295414"/>
	<path class="st20" d="M38.6206284,1.1075873c4.6994095,2.6384761,8.6569214,6.5132155,11.2126274,11.295414"/>
	<linearGradient id="SVGID_16_" gradientUnits="userSpaceOnUse" x1="38.5385284" y1="0.9840245" x2="50.1631508" y2="0.9840245">
		<stop  offset="0" style="stop-color:#5C5C5B"/>
		<stop  offset="0.0191961" style="stop-color:#5A5958"/>
		<stop  offset="0.204799" style="stop-color:#434340"/>
		<stop  offset="0.4097227" style="stop-color:#31302D"/>
		<stop  offset="0.648646" style="stop-color:#1B1B19"/>
		<stop  offset="1" style="stop-color:#131311"/>
	</linearGradient>
	<path class="st21" d="M49.9982605,0.8604618c0.0826759,0,0.1648903,0.082234,0.1648903,0.2471256l0,0H38.7034187h-0.1648903
		c0-0.1648915,0.0820999-0.2471256,0.1648903-0.2471256H49.9982605z"/>
	<linearGradient id="SVGID_17_" gradientUnits="userSpaceOnUse" x1="50.0395966" y1="12.5678921" x2="50.0395966" y2="0.8604618">
		<stop  offset="0" style="stop-color:#5C5C5B"/>
		<stop  offset="0.3855278" style="stop-color:#40403D"/>
		<stop  offset="0.7416053" style="stop-color:#242421"/>
		<stop  offset="1" style="stop-color:#131311"/>
	</linearGradient>
	<path class="st22" d="M50.1631508,12.3202114c0,0.1648912-0.0822144,0.2476807-0.1648903,0.2476807l-0.0822182-0.1648912V0.8604618
		c0,0,0,0,0.0822182,0c0.0826759,0,0.1648903,0.082234,0.1648903,0.2471256V12.3202114z"/>
	<g>
		<path class="st23" d="M43.1552048,28.596283c-2.2006836,0-3.9912109-1.3466797-3.9912109-3.0019531
			c0-1.6557617,1.7905273-3.0024414,3.9912109-3.0024414c2.246582,0,4.0742188,1.3466797,4.0742188,3.0024414
			C47.2294235,27.2496033,45.4017868,28.596283,43.1552048,28.596283z M43.1552048,23.4849548
			c-0.7919922,0-1.3671875,0.887207-1.3671875,2.109375c0,1.1552734,0.5878906,2.0268555,1.3671875,2.0268555
			c0.7412109,0,1.3676758-0.9282227,1.3676758-2.0268555C44.5228806,24.4312439,43.909111,23.4849548,43.1552048,23.4849548z
			 M18.0922146,28.596283c-2.2011719,0-3.9916992-1.3466797-3.9916992-3.0019531
			c0-1.5830078,1.828125-2.9199219,3.9916992-2.9199219c2.246582,0,4.0737305,1.3095703,4.0737305,2.9199219
			C22.1659451,27.2496033,20.3387966,28.596283,18.0922146,28.596283z M18.0922146,23.5669861
			c-0.7797852,0-1.3676758,0.871582-1.3676758,2.0273438c0,1.1552734,0.5878906,2.0268555,1.3676758,2.0268555
			c0.7412109,0,1.3671875-0.9282227,1.3671875-2.0268555S18.8334255,23.5669861,18.0922146,23.5669861z M32.7670212,28.4312439
			l-2.5859394-4.7993164l-1.2885742,0.0180664l-0.0341797-0.7763672l5.6406269-0.0341797l0.0341797,0.7763672l-1.4360352,0.0341797
			l2.0083008,3.3286133l1.6708984-3.378418l-0.9584961,0.0498047l-0.0341797-0.7763672l3.9086914-0.0341797l0.0341797,0.7763672
			l-1.3530273,0.0341797l-2.5351562,4.78125H32.7670212z M22.4613552,28.4312439l-0.0341797-0.940918l1.3535156-0.0341797
			l-0.0341797-3.840332l-1.2851562,0.0341797l-0.0341797-0.7763672l5.2285156-0.0341797l0.0341797,0.7763672l-1.3535156,0.0341797
			l0.0341797,3.840332l1.3671875-0.0341797c0.4438477,0,1.6142578-0.2905273,1.6977539-1.6166992l0.8583984-0.0322266
			l0.0341797,2.6240234H22.4613552z M7.7035427,28.4312439l-2.5859375-4.7993164L3.829031,23.6499939l-0.0341797-0.7763672
			L9.434988,22.839447l0.0341797,0.7763672l-1.4360352,0.0341797l2.0087891,3.3286133l1.7539062-3.3789062l-1.0419922,0.050293
			l-0.0341797-0.7763672l3.909668-0.0341797l0.0341797,0.7763672l-1.3535156,0.0341797l-2.5356445,4.78125H7.7035427z"/>
		<path class="st24" d="M43.1551437,22.625946c2.2263794,0,4.0401917,1.319458,4.0401917,2.9683838
			c0,1.6488037-1.8138123,2.9678345-4.0401917,2.9678345c-2.1431274,0-3.9569397-1.3190308-3.9569397-2.9678345
			C39.198204,23.9454041,41.0120163,22.625946,43.1551437,22.625946 M43.1551437,27.6552429
			c0.7420197,0,1.4017029-0.9069214,1.4017029-2.0609131c0-1.2368164-0.6596832-2.1437378-1.4017029-2.1437378
			c-0.8241119,0-1.4011078,0.9069214-1.4011078,2.1437378C41.7540359,26.7483215,42.3310318,27.6552429,43.1551437,27.6552429
			 M18.0919857,22.7087097c2.2259216,0,4.0396118,1.3189087,4.0396118,2.8856201
			c0,1.6488037-1.8136902,2.9678345-4.0396118,2.9678345c-2.1437073,0-3.9573975-1.3190308-3.9573975-2.9678345
			C14.1345882,24.0276184,15.9482784,22.7087097,18.0919857,22.7087097 M18.0919857,27.6552429
			c0.7420044,0,1.4016876-0.9069214,1.4016876-2.0609131s-0.6596832-2.0615234-1.4016876-2.0615234
			c-0.8246918,0-1.4016876,0.9075317-1.4016876,2.0615234S17.2672939,27.6552429,18.0919857,27.6552429 M39.692543,22.8736267
			v0.7420044h-1.3190155l-2.5557098,4.7814941h-3.0505981l-2.5557117-4.7814941h-1.3190155v-0.7420044h5.6063099v0.7420044
			h-1.4016876l1.9786987,3.3803711l1.7311249-3.3803711h-0.9891205v-0.7420044H39.692543 M27.655798,22.8736267v0.7420044
			h-1.3195801v3.8745728c0,0,0.9068909,0,1.4016876,0c0.4949036,0,1.6489105-0.3292847,1.7315826-1.6488037
			c0.6592255,0,0.824234,0,0.824234,0v2.5557251H23.780508h-1.3190155v-0.9069214h1.3190155v-3.8745728h-1.3190155v-0.7420044
			H27.655798 M14.6293697,22.8736267v0.7420044h-1.3195953l-2.5556946,4.7814941H7.7034664l-2.5556946-4.7814941H3.8288631
			v-0.7420044h5.6062012v0.7420044H8.0333614l1.9788208,3.3803711l1.8136902-3.3803711h-1.0717926v-0.7420044H14.6293697
			 M43.1551437,22.5572205c-2.2197418,0-4.0256348,1.3624268-4.0256348,3.0371094
			c0,1.6743774,1.8058929,3.0365601,4.0256348,3.0365601c2.2656555,0,4.1088867-1.3621826,4.1088867-3.0365601
			C47.2640305,23.9196472,45.4207993,22.5572205,43.1551437,22.5572205L43.1551437,22.5572205z M43.1551437,27.5865173
			c-0.7595978,0-1.3324127-0.8564453-1.3324127-1.9921875c0-1.2023315,0.5603638-2.0750122,1.3324127-2.0750122
			c0.7350311,0,1.3330078,0.9308472,1.3330078,2.0750122C44.4881516,26.6742249,43.8777084,27.5865173,43.1551437,27.5865173
			L43.1551437,27.5865173z M18.0919857,22.6399841c-2.182373,0-4.0260925,1.3529053-4.0260925,2.9543457
			c0,1.6743774,1.8060913,3.0365601,4.0260925,3.0365601c2.2653351,0,4.1083069-1.3621826,4.1083069-3.0365601
			C22.2002926,23.9653015,20.3573208,22.6399841,18.0919857,22.6399841L18.0919857,22.6399841z M18.0919857,27.5865173
			c-0.7599335,0-1.3329926-0.8564453-1.3329926-1.9921875c0-1.1361084,0.5730591-1.9927979,1.3329926-1.9927979
			c0.7225494,0,1.3329926,0.9125977,1.3329926,1.9927979C19.4249783,26.6742249,18.8145351,27.5865173,18.0919857,27.5865173
			L18.0919857,27.5865173z M39.7612534,22.8049011H39.692543h-3.8747253h-0.0686951v0.0687256v0.7420044v0.0687256h0.0686951
			h0.8767548l-1.6227722,3.1687622l-1.8548584-3.1687622h1.2818604h0.0686951v-0.0687256v-0.7420044v-0.0687256h-0.0686951
			h-5.6063099h-0.0686951v0.0687256v0.7420044v0.0687256h0.0686951h1.277832l2.5363026,4.7451782l0.0194092,0.0363159h0.0411835
			h3.0505981h0.0411835l0.0194092-0.0363159l2.5363007-4.7451782h1.277832h0.0687103v-0.0687256v-0.7420044V22.8049011
			L39.7612534,22.8049011z M27.724493,22.8049011H27.655798h-5.1943054h-0.0686951v0.0687256v0.7420044v0.0687256h0.0686951
			h1.2503204v3.7371216h-1.2503204h-0.0686951v0.0687256v0.9069214v0.0687256h0.0686951h1.3190155h6.5132141h0.0687103v-0.0687256
			v-2.5557251v-0.0687256h-0.0687103h-0.824234h-0.0645447l-0.0040283,0.0643921
			c-0.0814362,1.2998047-1.2280731,1.5844116-1.6630096,1.5844116h-1.3329926v-3.7371216h1.250885h0.0686951v-0.0687256v-0.7420044
			V22.8049011L27.724493,22.8049011z M14.6980648,22.8049011h-0.0686951h-3.8752899h-0.0687103v0.0687256v0.7420044v0.0687256
			h0.0687103H11.71105l-1.7014771,3.1712036l-1.8563843-3.1712036h1.2818756h0.0686951v-0.0687256v-0.7420044v-0.0687256H9.4350643
			H3.8288631H3.7601681v0.0687256v0.7420044v0.0687256h0.0686951h1.2777252l2.5362854,4.7451782l0.0194092,0.0363159h0.0411835
			h3.0506134h0.0411835l0.0194092-0.0363159l2.5362854-4.7451782h1.2784119h0.0686951v-0.0687256v-0.7420044V22.8049011
			L14.6980648,22.8049011z"/>
	</g>
	<linearGradient id="SVGID_18_" gradientUnits="userSpaceOnUse" x1="7.023541" y1="15.3906202" x2="14.4669495" y2="25.4581127">
		<stop  offset="0" style="stop-color:#FFFFFF"/>
		<stop  offset="0.1091235" style="stop-color:#DEE5F6"/>
		<stop  offset="0.3376419" style="stop-color:#98B5E0"/>
		<stop  offset="0.5418774" style="stop-color:#5491CD"/>
		<stop  offset="0.7142743" style="stop-color:#007AC0"/>
		<stop  offset="0.8480508" style="stop-color:#006EB7"/>
		<stop  offset="0.926966" style="stop-color:#0069B4"/>
		<stop  offset="0.9468459" style="stop-color:#0075BC"/>
		<stop  offset="0.9667193" style="stop-color:#377FC2"/>
		<stop  offset="0.9849595" style="stop-color:#4D86C5"/>
		<stop  offset="1" style="stop-color:#5488C7"/>
	</linearGradient>
	<path class="st25" d="M1.1970094,19.3410397c-0.4947891,1.9788132-0.8246866,4.0397129-0.8246866,6.1834335
		c0,0.1771431,0.0609183,1.2277546,0.0653841,1.4038677l0.143135,1.5923481
		c-0.0021756-0.1285915-0.0648056-2.7240314-0.0648056-2.8530807c0-2.1437206,0.357265-4.1319065,0.8520482-6.1107197
		l17.2718163-0.0727139l7.454813-0.1431351H1.1970094z"/>
</g>
<text transform="matrix(1.4900701 0 0 1 54.5594406 37.9730759)" class="st26 st27 st28">ASMOSCOW</text>
</svg>
