<svg xmlns="http://www.w3.org/2000/svg" width="155" height="31.531" viewBox="0 0 155 31.531">
  <metadata><?xpacket begin="﻿" id="W5M0MpCehiHzreSzNTczkc9d"?>
<x:xmpmeta xmlns:x="adobe:ns:meta/" x:xmptk="Adobe XMP Core 5.6-c138 79.159824, 2016/09/14-01:09:01        ">
   <rdf:RDF xmlns:rdf="http://www.w3.org/1999/02/22-rdf-syntax-ns#">
      <rdf:Description rdf:about=""/>
   </rdf:RDF>
</x:xmpmeta>
                                                                                                    
                                                                                                    
                                                                                                    
                                                                                                    
                                                                                                    
                                                                                                    
                                                                                                    
                                                                                                    
                                                                                                    
                                                                                                    
                                                                                                    
                                                                                                    
                                                                                                    
                                                                                                    
                                                                                                    
                                                                                                    
                                                                                                    
                                                                                                    
                                                                                                    
                                                                                                    
                           
<?xpacket end="w"?></metadata>
<defs>
    <style>
      .cls-1 {
        fill: #433486;
        fill-rule: evenodd;
      }
    </style>
  </defs>
  <path id="logo" class="cls-1" d="M115.7,42.354h-3.646V33.97L109.3,39.225h-1.422l-2.713-5.255v8.384h-3.645V27.291h3.732l3.348,6.3,3.368-6.3H115.7V42.354Zm98.805,0h-3.645V33.97L208.1,39.225h-1.42l-2.713-5.255v8.384h-3.645V27.291h3.731l3.347,6.3,3.369-6.3H214.5V42.354Zm-83.356-5.036a6.229,6.229,0,0,1-12.3,0,49.415,49.415,0,0,1,0-4.991A5.88,5.88,0,0,1,125,27.077c3.539,0,5.969,2.365,6.14,5.25C131.209,33.467,131.209,36.33,131.144,37.318ZM127.5,32.391a2.563,2.563,0,0,0-5.011,0c-0.065.926-.065,3.981,0,4.865A2.331,2.331,0,0,0,125,39.275a2.3,2.3,0,0,0,2.495-2.019C127.562,36.372,127.562,33.317,127.5,32.391Zm5.656,6.842h1.653c0.64,0,.811-0.5.811-1.162V27.291h3.647v11.3c0,3.032-1.664,3.981-3.562,3.981h-2.549V39.233Zm21.39-1.915a6.229,6.229,0,0,1-12.3,0,48.268,48.268,0,0,1,0-4.991,5.88,5.88,0,0,1,6.163-5.25c3.537,0,5.971,2.365,6.14,5.25C154.61,33.467,154.61,36.33,154.545,37.318ZM150.9,32.391a2.564,2.564,0,0,0-5.012,0c-0.063.926-.063,3.981,0,4.865a2.332,2.332,0,0,0,2.517,2.019,2.3,2.3,0,0,0,2.5-2.019C150.963,36.372,150.963,33.317,150.9,32.391Zm17.4-5.1V30.67h-6.993v2.518h6.4v3.184h-6.4v5.982h-3.6V27.291h10.6Zm14.458,10.027a6.229,6.229,0,0,1-12.3,0,48.268,48.268,0,0,1,0-4.991,5.882,5.882,0,0,1,6.163-5.25c3.54,0,5.971,2.365,6.14,5.25C182.823,33.467,182.823,36.33,182.758,37.318Zm-3.647-4.927a2.562,2.562,0,0,0-5.009,0c-0.064.926-.064,3.981,0,4.865a2.331,2.331,0,0,0,2.516,2.019,2.292,2.292,0,0,0,2.493-2.019C179.176,36.372,179.176,33.317,179.111,32.391Zm12.134,5.186h-1.706v4.776h-3.625V27.291h6.462c2.857,0,4.222,1.635,4.349,3.811,0.043,0.9.043,1.675,0,2.6A3.582,3.582,0,0,1,194.914,37l3.049,5.358H193.7Zm1.941-6.176a0.816,0.816,0,0,0-.937-0.71h-2.71v3.528h2.71a0.844,0.844,0,0,0,.937-0.731A17.7,17.7,0,0,0,193.186,31.4ZM75.909,50.01a2.327,2.327,0,0,1-.708-4.527V39.3a5.89,5.89,0,0,1-1.623-.442L70.544,44.21a2.358,2.358,0,0,1,.277,2.71,2.259,2.259,0,0,1-3.113.85h0a2.348,2.348,0,0,1-.835-3.17,2.272,2.272,0,0,1,2.444-1.111l3.032-5.349a6,6,0,0,1-1.2-1.221L65.895,40.01a2.344,2.344,0,0,1-.029,1.08A2.3,2.3,0,0,1,64.8,42.5a2.227,2.227,0,0,1-1.729.232,2.264,2.264,0,0,1-1.383-1.081,2.347,2.347,0,0,1,.833-3.17,2.252,2.252,0,0,1,2.662.283l5.257-3.092a6.169,6.169,0,0,1-.437-1.661H63.945a2.321,2.321,0,1,1,0-1.441h6.062a6.15,6.15,0,0,1,.437-1.661l-5.257-3.091a2.251,2.251,0,0,1-2.662.282,2.3,2.3,0,0,1-1.062-1.409,2.34,2.34,0,0,1,.228-1.76,2.262,2.262,0,0,1,1.383-1.081,2.226,2.226,0,0,1,1.729.231,2.3,2.3,0,0,1,1.062,1.409,2.346,2.346,0,0,1,.029,1.08l5.257,3.091a6.009,6.009,0,0,1,1.2-1.221l-3.032-5.35a2.268,2.268,0,0,1-2.444-1.11,2.347,2.347,0,0,1-.227-1.761,2.3,2.3,0,0,1,1.062-1.409,2.259,2.259,0,0,1,3.113.85,2.357,2.357,0,0,1-.277,2.71l3.72,6.564-0.614.36a4.568,4.568,0,0,0-1.664,1.691,4.686,4.686,0,0,0,0,4.613,4.5,4.5,0,0,0,7.845,0,4.692,4.692,0,0,0,0-4.613A4.584,4.584,0,0,0,78.179,29.3l-0.61-.361,3.723-6.569a2.358,2.358,0,0,1-.278-2.71A2.272,2.272,0,0,1,82.4,18.577a2.23,2.23,0,0,1,1.729.232,2.348,2.348,0,0,1,.834,3.17,2.268,2.268,0,0,1-2.444,1.11l-3.038,5.36a6.033,6.033,0,0,1,1.187,1.211l5.258-3.091a2.343,2.343,0,0,1,1.09-2.489,2.23,2.23,0,0,1,1.73-.231,2.263,2.263,0,0,1,1.383,1.081,2.346,2.346,0,0,1-.834,3.17,2.25,2.25,0,0,1-2.662-.283l-5.257,3.092a6.187,6.187,0,0,1,.437,1.661H87.89a2.321,2.321,0,1,1,0,1.441H81.811a6.184,6.184,0,0,1-.437,1.661l5.257,3.092a2.25,2.25,0,0,1,2.661-.283,2.347,2.347,0,0,1,.834,3.17,2.267,2.267,0,0,1-1.384,1.081,2.232,2.232,0,0,1-1.729-.232,2.3,2.3,0,0,1-1.061-1.409,2.342,2.342,0,0,1-.029-1.079l-5.257-3.092a5.989,5.989,0,0,1-1.187,1.211l3.038,5.359A2.269,2.269,0,0,1,84.962,44.6a2.348,2.348,0,0,1-.834,3.17h0a2.26,2.26,0,0,1-3.114-.85,2.358,2.358,0,0,1,.278-2.71l-3.038-5.358a5.874,5.874,0,0,1-1.638.448v6.182A2.327,2.327,0,0,1,75.909,50.01Zm0-14.4a2.321,2.321,0,1,1,2.278-2.32A2.3,2.3,0,0,1,75.909,35.61Z" transform="translate(-59.5 -18.469)"/>
</svg>
