<?xml version="1.0" encoding="utf-8"?>
<!-- Generator: Adobe Illustrator 21.1.0, SVG Export Plug-In . SVG Version: 6.00 Build 0)  -->
<svg version="1.1" id="Слой_1" xmlns="http://www.w3.org/2000/svg" xmlns:xlink="http://www.w3.org/1999/xlink" x="0px" y="0px"
	 viewBox="0 0 512 155.498" style="enable-background:new 0 0 512 155.498;" xml:space="preserve">
<style type="text/css">
	.st0{fill:#3E0059;}
</style>
<path class="st0" d="M474.292,3.341h6.293c0.133,1.197,0.144,2.487,0.806,3.542c0.731,1.185,2.653,1.211,3.5,0.14
	c0.85-1.025,0.955-2.413,1.095-3.682h6.286c-0.254,2.196-0.673,4.471-1.954,6.323c-0.922,1.367-2.371,2.331-3.957,2.743
	c-1.74,0.447-3.573,0.491-5.34,0.207c-1.835-0.298-3.607-1.22-4.728-2.732C474.865,8.02,474.465,5.623,474.292,3.341z
	 M312.222,14.196c2.771-0.356,5.71,0.154,8.065,1.707c2.72,1.768,4.509,4.635,5.68,7.599c1.714,4.404,2.341,9.15,2.525,13.848
	c0.121,4.572-0.079,9.171-0.876,13.682c-0.731,3.94-1.924,7.928-4.376,11.165c-1.712,2.28-4.206,4.003-7.017,4.586
	c-3.004,0.631-6.293,0.321-8.952-1.286c-2.573-1.528-4.404-4.041-5.659-6.712c-1.768-3.787-2.594-7.939-3.025-12.075
	c-0.55-5.659-0.419-11.43,0.85-16.989c0.869-3.736,2.229-7.441,4.579-10.51C305.99,16.592,308.92,14.594,312.222,14.196
	 M313.167,24.42c-0.796,0.156-1.388,0.792-1.803,1.449c-0.734,1.185-1.12,2.545-1.428,3.894c-0.622,2.872-0.815,5.818-0.871,8.747
	c-0.037,4.397-0.072,8.847,0.869,13.168c0.375,1.535,0.822,3.149,1.919,4.336c0.689,0.78,1.963,1.064,2.839,0.422
	c0.985-0.743,1.421-1.968,1.784-3.1c0.776-2.692,0.999-5.503,1.157-8.289c0.182-4.283,0.198-8.587-0.259-12.853
	c-0.272-2.112-0.573-4.294-1.591-6.197C315.294,25.053,314.304,24.175,313.167,24.42z M377.009,17.694
	c2.741-2.126,6.162-3.37,9.637-3.444c2.303-0.044,4.676,0.235,6.754,1.297c-0.438,3.335-1.053,6.644-1.56,9.97
	c-1.716-0.724-3.614-1.176-5.468-0.741c-2.378,0.47-4.236,2.32-5.289,4.43c-1.656,3.302-2.063,7.061-2.161,10.704
	c-0.051,3.009,0.114,6.053,0.887,8.973c0.529,1.945,1.353,3.875,2.769,5.345c1.085,1.139,2.559,1.903,4.124,2.101
	c1.719,0.228,3.44-0.135,5.112-0.512c0.319,3.321,0.58,6.647,0.885,9.97c-2.196,0.941-4.625,1.123-6.984,1.141
	c-3.442,0.016-6.935-1.011-9.646-3.17c-2.92-2.285-4.87-5.592-6.092-9.048c-1.612-4.588-2.117-9.495-2.033-14.334
	c0.095-4.7,0.778-9.446,2.566-13.815C371.909,23.139,374.056,19.96,377.009,17.694z M335.152,15.467
	c3.065-0.699,6.216-0.901,9.351-0.978c3.4-0.063,6.931-0.026,10.117,1.318c2.212,0.936,4.19,2.52,5.41,4.607
	c1.192,2.014,1.714,4.367,1.805,6.689c0.193,3.729-1.078,7.639-3.871,10.198c-0.708,0.701-1.588,1.174-2.385,1.756
	c-0.023,0.065-0.07,0.196-0.095,0.261c2.126,0.799,4.08,2.124,5.394,4.003c2.436,3.351,2.874,7.767,2.103,11.747
	c-0.71,3.852-3.079,7.445-6.535,9.351c-3.139,1.735-6.77,2.282-10.305,2.459c-3.656,0.137-7.327-0.016-10.948-0.54
	C335.094,49.383,335.173,32.424,335.152,15.467 M345.486,23.46c-0.065,4.069-0.016,8.137-0.026,12.208
	c1.26-0.009,2.648,0.156,3.745-0.61c1.889-1.269,2.541-3.703,2.536-5.866c-0.016-1.889-0.422-4.027-1.984-5.263
	C348.541,22.978,346.895,23.19,345.486,23.46 M345.453,44.443c0.019,4.441-0.023,8.882,0.023,13.324
	c1.577,0.2,3.316,0.158,4.651-0.824c1.863-1.295,2.529-3.698,2.483-5.866c0.012-2.257-0.831-4.735-2.855-5.946
	C348.476,44.306,346.904,44.404,345.453,44.443z M62.224,15.307c5.114-0.449,10.252-0.503,15.385-0.578
	c6.288-0.021,12.583,0.082,18.857,0.512c7.942,0.571,15.925,1.64,23.487,4.218c5.433,1.886,10.741,4.558,14.823,8.689
	c5.245,5.252,8.512,12.189,10.247,19.341c1.118,4.164,1.805,8.421,2.359,12.692c0.245,2.511,0.258,5.042,0.601,7.548
	c0.193,3.451,0.352,6.908,0.41,10.366c0.084,12.248-0.037,24.584-2.268,36.664c-1.015,4.539-2.182,9.076-4.064,13.342
	c-1.421,3.263-3.384,6.281-5.759,8.927c-4.257,4.809-9.9,8.233-15.92,10.371c-4.711,1.742-9.702,2.469-14.625,3.344
	c-3.78,0.51-7.581,0.848-11.388,1.06c-3.61,0.291-7.231,0.231-10.846,0.354h-9.255c-3.384-0.207-6.779-0.133-10.159-0.417
	c-2.182-0.177-4.369-0.326-6.551-0.515c-5.224-0.631-10.464-1.369-15.517-2.876c-3.265-0.953-6.493-2.108-9.472-3.77
	c-3.58-2.012-6.868-4.574-9.558-7.685c-2.452-2.823-4.395-6.064-5.901-9.481c-1.791-4.05-3.067-8.321-3.784-12.692
	c-0.335-1.879-0.645-3.763-0.983-5.643c-0.373-2.08-0.412-4.194-0.592-6.295c-0.643-5.224-0.557-10.496-0.75-15.746v-9.483
	c0.186-2.92,0.191-5.85,0.342-8.775c0.436-6.041,0.906-12.115,2.31-18.021c0.934-4.194,1.966-8.41,3.819-12.308
	c2.82-5.664,6.919-10.797,12.224-14.311c4.625-3.102,9.94-4.988,15.299-6.377c2.518-0.664,5.105-0.985,7.667-1.421
	C55.822,15.786,59.027,15.544,62.224,15.307 M75.136,19.04c-4.7,0.049-9.402,0.231-14.083,0.654
	c-4.213,0.252-8.379,0.936-12.532,1.665c-2.774,0.55-5.494,1.351-8.163,2.282c-4.453,1.574-8.731,3.847-12.148,7.154
	c-2.69,2.587-4.884,5.669-6.619,8.966c-2.378,4.823-3.372,10.161-4.497,15.375c-1.928,12.203-1.959,24.607-1.698,36.929
	c0.123,3.235,0.135,6.481,0.55,9.698c0.249,2.287,0.231,4.602,0.654,6.87c0.363,1.947,0.673,3.903,1.029,5.85
	c0.92,5.249,2.674,10.375,5.329,15.003c3.444,6.009,9.083,10.652,15.52,13.144c6.393,2.511,13.214,3.649,20.012,4.378
	c3.419,0.238,6.831,0.61,10.261,0.682c2.641,0.065,5.28,0.165,7.923,0.186c9.555,0.049,19.146-0.093,28.629-1.395
	c4.271-0.796,8.61-1.386,12.734-2.806c3.575-1.204,7.031-2.827,10.103-5.035c3.146-2.25,5.846-5.114,7.937-8.368
	c2.038-3.214,3.347-6.824,4.39-10.466c0.85-3.051,1.619-6.13,2.005-9.278c0.64-3.554,0.855-7.159,1.199-10.748
	c0.331-5.669,0.503-11.346,0.449-17.027c0.058-4.947-0.114-9.893-0.417-14.828c-0.433-3.044-0.296-6.141-0.836-9.171
	c-0.41-2.587-0.752-5.191-1.397-7.734c-0.838-3.729-1.851-7.448-3.533-10.895c-2.245-4.728-5.524-9.057-9.877-12.026
	c-6.328-4.222-13.838-6.218-21.27-7.418C96.326,19.079,85.702,18.923,75.136,19.04z M190.973,44.641
	c-0.708-3.447-2.564-6.703-5.417-8.81c-3.398-2.55-7.962-3.263-12.05-2.257c-0.007-2.909-0.03-5.82,0.014-8.729
	c4.811-0.005,9.623,0.016,14.435-0.012c0-3.375,0.005-6.749,0-10.121c-8.23-0.021-16.461-0.014-24.689-0.005
	c0.005,17.208-0.047,34.419,0.026,51.627c3.088,0.454,6.214,0.617,9.334,0.587c3.994-0.063,8.123-0.743,11.572-2.869
	c3.116-1.898,5.363-5.054,6.37-8.54C191.583,51.998,191.701,48.226,190.973,44.641z M179.894,54.178
	c-0.559,1.286-1.572,2.41-2.902,2.911c-1.085,0.426-2.275,0.335-3.407,0.212c-0.042-4.812-0.009-9.625-0.016-14.437
	c1.125-0.224,2.343-0.356,3.423,0.126c1.628,0.708,2.739,2.275,3.253,3.936C180.97,49.281,180.893,51.912,179.894,54.178z
	 M216.269,14.734c-4.201-0.058-8.405-0.044-12.609-0.007c-3.163,17.248-6.391,34.484-9.542,51.736
	c3.347-0.002,6.693,0.042,10.04-0.026c0.496-3.393,1.004-6.786,1.532-10.175c2.431,0,4.865-0.033,7.296,0.019
	c0.456,3.389,0.98,6.768,1.442,10.154c3.347,0.072,6.696,0.023,10.042,0.028C221.768,49.215,218.98,31.979,216.269,14.734z
	 M206.695,47.115c0.734-5.606,1.551-11.197,2.236-16.81c0.226-1.637,0.373-3.286,0.694-4.907c0.543,3.421,0.81,6.884,1.232,10.324
	c0.431,3.796,0.871,7.59,1.316,11.384C210.347,47.119,208.518,47.105,206.695,47.115z M230.438,14.715
	c3.456-0.023,6.915-0.023,10.371,0c0.009,6.698-0.009,13.398,0.009,20.098c2.541-0.002,5.082,0.042,7.622-0.026
	c-0.005-6.693-0.019-13.387,0.005-20.08c3.451-0.012,6.905-0.012,10.359,0c0.014,17.252,0.012,34.503,0,51.755
	c-3.454,0.014-6.908,0.009-10.359,0.002c-0.021-6.849-0.012-13.699-0.005-20.546c-2.541-0.061-5.082-0.023-7.622-0.021
	c-0.016,6.852-0.002,13.703-0.007,20.555c-3.458,0.028-6.917,0.028-10.375-0.002C230.438,49.206,230.433,31.961,230.438,14.715z
	 M267.777,14.708c3.368-0.012,6.733-0.012,10.098,0c0.04,7.399-0.056,14.802,0.049,22.199c0.13-0.044,0.391-0.137,0.519-0.182
	c2.08-7.331,4.227-14.644,6.293-21.98c3.791-0.093,7.588-0.035,11.379-0.028c-3.281,7.942-6.684,15.834-9.984,23.769
	c2.191,1.255,3.84,3.295,4.798,5.615c1.698,4.034,2.259,8.414,3.121,12.676c0.608,3.244,1.274,6.477,2.077,9.679
	c-3.417,0.012-6.835,0.051-10.252-0.023c-1.421-4.863-2.031-9.907-3.104-14.849c-0.463-1.847-0.894-3.829-2.18-5.301
	c-0.654-0.789-1.707-0.957-2.669-0.987c-0.1,7.054-0.009,14.113-0.044,21.167c-3.368,0.012-6.735,0.009-10.1,0.002
	C267.761,49.213,267.761,31.961,267.777,14.708z M398.657,14.708c3.363-0.012,6.728-0.014,10.091,0.002
	c0.007,6.223,0,12.448,0.005,18.673c0.007,1.202-0.061,2.41,0.095,3.605c0.638-0.333,0.685-1.102,0.887-1.714
	c1.942-6.852,3.95-13.685,5.88-20.539c3.791-0.072,7.583-0.03,11.377-0.021c-3.291,7.937-6.675,15.839-9.993,23.764
	c1.609,0.966,3.014,2.292,3.945,3.934c1.747,3.021,2.431,6.493,3.123,9.87c0.915,4.737,1.742,9.495,2.932,14.171
	c-3.414,0.019-6.831,0.042-10.242-0.012c-1.477-4.995-2.059-10.189-3.205-15.259c-0.463-1.756-0.906-3.654-2.196-5.012
	c-0.65-0.715-1.647-0.834-2.552-0.873c-0.121,7.052-0.016,14.108-0.056,21.163c-3.363,0.016-6.728,0.009-10.091,0.005
	C398.64,49.213,398.638,31.961,398.657,14.708z M432.16,14.724c3.037-0.037,6.076-0.044,9.115,0.005
	c-0.016,6.211,0.054,12.427-0.214,18.636c-0.14,4.527-0.489,9.048-0.685,13.573c0.629-1.581,0.978-3.256,1.532-4.863
	c2.923-9.15,5.978-18.259,9.006-27.374c3.095,0.005,6.193-0.012,9.29,0.009c0.005,17.25,0.002,34.498,0,51.748
	c-3.011,0.023-6.023,0.012-9.034,0.005c-0.005-6.756-0.047-13.512,0.158-20.266c0.075-3.838,0.319-7.671,0.403-11.509
	c-2.222,8.889-5.336,17.52-8.202,26.214c-0.631,1.856-1.225,3.722-1.877,5.571c-3.165-0.021-6.332,0.033-9.497-0.03
	C432.169,49.204,432.162,31.963,432.16,14.724z M469.243,14.708c3.032-0.007,6.064-0.026,9.097,0.009
	c0.033,8.014,0.007,16.03-0.452,24.032c-0.098,2.69-0.391,5.375-0.408,8.067c0.62-1.593,0.99-3.267,1.539-4.886
	c2.906-9.099,5.957-18.151,8.952-27.222c3.097-0.012,6.197-0.012,9.295,0c0.007,17.252,0.007,34.505,0,51.757
	c-3.011,0.002-6.023,0.019-9.034-0.009c0.002-6.831-0.042-13.664,0.17-20.492c0.077-3.761,0.312-7.52,0.401-11.279
	c-0.964,3.582-1.907,7.175-3.06,10.704c-2.266,7.033-4.688,14.013-6.973,21.039c-3.177,0.091-6.353,0.026-9.528,0.035
	C469.227,49.213,469.227,31.961,469.243,14.708z M74.437,24.399c9.576-0.137,19.202-0.028,28.694,1.353
	c4.97,0.752,9.912,1.9,14.544,3.882c3.065,1.325,6.025,2.993,8.487,5.273c3.777,3.465,6.435,8.011,8.142,12.811
	c1.432,4.264,2.382,8.684,3.002,13.14c0.531,2.86,0.417,5.787,0.813,8.663c0.233,4.097,0.412,8.198,0.37,12.301
	c0.042,9.444-0.235,18.934-1.865,28.254c-0.869,4.155-1.938,8.305-3.663,12.199c-2.557,5.792-7.187,10.578-12.748,13.561
	c-3.88,2.103-8.13,3.465-12.464,4.253c-2.634,0.461-5.252,1.039-7.918,1.274c-6.756,0.787-13.563,0.922-20.359,0.939
	c-8.07-0.023-16.17-0.254-24.162-1.456c-4.22-0.638-8.403-1.6-12.404-3.102c-6.123-2.252-11.549-6.509-14.935-12.115
	c-2.825-4.679-4.572-9.956-5.445-15.336c-0.422-2.653-1.046-5.282-1.157-7.974c-0.075-1.94-0.401-3.861-0.484-5.801
	c-0.263-5.436-0.338-10.878-0.314-16.321c0.123-7.613,0.433-15.254,1.73-22.772c1.036-4.718,1.966-9.553,4.19-13.89
	c2.049-3.815,4.749-7.334,8.184-10.003c2.965-2.32,6.407-3.959,9.956-5.175c2.865-0.966,5.792-1.772,8.787-2.208
	C60.349,24.916,67.404,24.527,74.437,24.399 M73.878,49.01c-0.009,22.874-0.026,45.751,0.007,68.628
	c3.768-0.009,7.536,0.007,11.307-0.009c-0.005-22.87-0.009-45.74,0.002-68.609C81.421,48.994,77.648,49.01,73.878,49.01
	 M50.775,64.64c-0.014,12.457-0.033,24.912,0.009,37.369c3.759-0.002,7.518-0.005,11.277,0.002
	c0.044-12.457,0.026-24.917,0.009-37.374C58.305,64.64,54.539,64.635,50.775,64.64 M96.974,64.64
	c-0.002,12.455-0.009,24.912,0.005,37.369c3.77-0.005,7.541,0,11.311-0.002c0.009-12.455,0.002-24.91,0.002-37.367
	C104.519,64.635,100.746,64.64,96.974,64.64z M216.048,82.912c3.426-0.373,7.024,0.256,9.963,2.115
	c3.007,1.87,5.191,4.814,6.714,7.967c1.744,3.619,2.75,7.55,3.393,11.505c0.706,4.434,0.932,8.936,0.838,13.419
	c-0.1,5.156-0.519,10.329-1.649,15.366c-0.857,3.759-2.117,7.478-4.199,10.743c-1.609,2.525-3.787,4.739-6.472,6.109
	c-3.302,1.698-7.196,2.08-10.822,1.393c-3.528-0.678-6.672-2.792-8.887-5.589c-2.941-3.677-4.593-8.202-5.673-12.739
	c-1.111-4.777-1.581-9.681-1.67-14.577c-0.102-5.51,0.394-11.051,1.721-16.407c0.904-3.603,2.187-7.14,4.104-10.336
	c1.507-2.511,3.442-4.809,5.878-6.463C211.292,84.046,213.633,83.178,216.048,82.912 M216.716,96.329
	c-1.56,0.531-2.373,2.133-2.965,3.559c-1.369,3.598-1.754,7.478-2.008,11.295c-0.203,4.336-0.214,8.687,0.021,13.023
	c0.268,3.708,0.626,7.497,2.056,10.964c0.643,1.481,1.73,3.179,3.521,3.265c1.307,0.109,2.331-0.922,2.906-1.982
	c1.099-2.019,1.53-4.315,1.898-6.561c0.715-4.886,0.808-9.837,0.78-14.765c-0.068-4.234-0.238-8.498-1.109-12.653
	c-0.419-1.789-0.915-3.647-2.098-5.098C219.024,96.499,217.82,95.977,216.716,96.329z M176.193,85.623
	c3.517-1.938,7.585-2.82,11.589-2.576c2.378,0.147,4.83,0.522,6.917,1.742c-0.687,4.329-1.388,8.657-2.087,12.984
	c-2.571-1.32-5.685-1.698-8.417-0.654c-2.557,0.953-4.46,3.125-5.65,5.522c-1.879,3.796-2.476,8.077-2.697,12.264
	c-0.175,4.471-0.026,9.015,1.141,13.359c0.759,2.755,2.001,5.508,4.19,7.425c1.502,1.33,3.458,2.105,5.457,2.224
	c2.019,0.121,4.015-0.293,5.969-0.75c0.389,4.327,0.75,8.657,1.141,12.984c-2.101,0.962-4.43,1.251-6.71,1.428
	c-3.666,0.265-7.443-0.114-10.836-1.602c-3.342-1.432-6.183-3.894-8.282-6.845c-2.31-3.232-3.819-6.973-4.809-10.804
	c-1.355-5.294-1.763-10.794-1.588-16.244c0.254-7.301,1.635-14.761,5.352-21.139C169.107,91.105,172.274,87.754,176.193,85.623z
	 M245.618,84.589c4.476-0.98,9.071-1.232,13.643-1.276c3.524-0.026,7.119,0.133,10.485,1.274c3.316,1.111,6.346,3.284,8.172,6.302
	c1.74,2.86,2.427,6.246,2.466,9.562c0.075,4.416-1.43,8.957-4.574,12.127c-1.078,1.155-2.427,1.984-3.743,2.832
	c0.049,0.461,0.599,0.473,0.927,0.664c3.475,1.365,6.251,4.234,7.739,7.632c1.789,3.98,1.91,8.528,1.069,12.76
	c-0.792,3.975-2.927,7.692-6.057,10.284c-2.529,2.073-5.657,3.277-8.827,3.968c-4.441,0.96-9.015,1.025-13.538,0.857
	c-2.601-0.102-5.198-0.314-7.772-0.72C245.597,128.768,245.578,106.679,245.618,84.589 M259.032,95.078
	c-0.009,5.282-0.009,10.562-0.002,15.841c1.402-0.033,2.888,0.189,4.204-0.422c1.514-0.675,2.58-2.077,3.186-3.584
	c0.883-2.215,0.98-4.69,0.554-7.017c-0.347-1.782-1.181-3.635-2.813-4.579C262.6,94.438,260.697,94.655,259.032,95.078
	 M259.032,122.343c-0.012,5.773-0.005,11.547-0.005,17.32c1.94,0.345,4.071,0.261,5.78-0.822c1.91-1.162,3.014-3.302,3.361-5.459
	c0.366-2.348,0.221-4.844-0.794-7.019c-0.769-1.644-2.145-3.039-3.873-3.647C262.071,122.177,260.523,122.361,259.032,122.343z
	 M291.965,83.641c8.978-0.068,17.958-0.021,26.936-0.023c0.012,4.464,0.012,8.929,0,13.393c-4.474,0.023-8.945-0.007-13.419,0.016
	c0.005,4.187,0.014,8.375-0.005,12.562c4.274,0.088,8.549,0.007,12.823,0.042c0,4.255-0.012,8.51,0.007,12.765
	c-4.218,0.1-8.44-0.021-12.655,0.058l-0.142,0.144c-0.063,4.732,0.002,9.467-0.03,14.199c0.035,0.279-0.116,0.913,0.373,0.834
	c4.669,0.016,9.339-0.014,14.008,0.012c0.012,4.464,0.012,8.931,0,13.396c-9.299,0-18.596,0.035-27.893-0.019
	C291.972,128.561,291.977,106.101,291.965,83.641z M325.539,83.618c11.332,0,22.667-0.042,34,0.021
	c-0.012,4.795,0,9.59-0.005,14.386c-3.435,0.026-6.868-0.044-10.301,0.037c0.014,17.658,0.016,35.318,0,52.978
	c-4.502,0.005-9.003,0.03-13.505-0.014c0.005-13.13,0.002-26.261,0.002-39.391c-0.023-4.539,0.047-9.08-0.035-13.617
	c-3.386,0.012-6.772,0.019-10.159-0.002C325.525,93.215,325.52,88.418,325.539,83.618z M367.112,83.62
	c4.502-0.019,9.004-0.016,13.505-0.002c0.019,8.733-0.002,17.464,0.009,26.198c3.309,0.012,6.619,0.021,9.928-0.005
	c0.009-8.731-0.009-17.462,0.009-26.193c4.504-0.012,9.008-0.019,13.51,0.005c0.002,22.472,0.005,44.943,0,67.415
	c-4.504,0.019-9.006,0.014-13.51,0.002c-0.016-8.934-0.002-17.867-0.007-26.799c-3.312-0.012-6.621-0.005-9.93-0.002
	c-0.009,8.934,0.007,17.867-0.009,26.801c-4.502,0.012-9.004,0.014-13.503,0C367.107,128.566,367.109,106.092,367.112,83.62z
	 M415.753,83.618c3.95-0.012,7.902-0.019,11.854,0.002c-0.016,6.404,0.063,12.811-0.109,19.216
	c-0.158,6.202-0.463,12.399-0.843,18.592c-0.061,1.383-0.254,2.762-0.179,4.148c0.617-1.539,0.953-3.172,1.481-4.742
	c2.86-9.174,5.95-18.273,8.95-27.402c1.097-3.272,2.14-6.563,3.272-9.826c4.034,0.016,8.065-0.019,12.099,0.019
	c-0.002,22.469,0.002,44.941-0.002,67.41c-3.922,0.019-7.844,0.023-11.766-0.002c0.012-5.99-0.033-11.98,0.035-17.97
	c0.082-6.838,0.305-13.673,0.615-20.506c0.04-0.957,0.114-1.917,0.079-2.874c-0.561,1.532-0.789,3.163-1.265,4.723
	c-2.443,9.008-5.596,17.8-8.51,26.661c-1.12,3.326-2.208,6.661-3.347,9.979c-4.122-0.002-8.242,0.009-12.362-0.007
	C415.739,128.566,415.741,106.092,415.753,83.618z M464.038,83.627c4.388-0.033,8.778-0.023,13.165-0.005
	c0.044,9.642-0.068,19.286,0.058,28.925c0.727-0.142,0.88-0.873,1.041-1.481c2.592-9.15,5.261-18.28,7.86-27.427
	c4.944-0.082,9.891,0.016,14.837-0.049v0.172c-1.805,3.966-3.407,8.023-5.131,12.026c-2.636,6.272-5.298,12.532-7.918,18.811
	c1.572,0.957,3.039,2.124,4.136,3.619c2.331,3.107,3.405,6.926,4.29,10.652c1.176,5.263,2.019,10.596,3.149,15.871
	c0.45,1.996,0.806,4.022,1.474,5.96v0.354c-4.441-0.023-8.885-0.002-13.326-0.009c-2.049-6.651-2.722-13.619-4.327-20.373
	c-0.603-2.187-1.197-4.565-2.883-6.193c-0.852-0.855-2.103-0.973-3.242-0.983c-0.037,9.178,0.002,18.359-0.019,27.537
	c-4.388,0.016-8.778,0.026-13.163-0.005C464.036,128.563,464.036,106.096,464.038,83.627z"/>
</svg>
