<?xml version="1.0" encoding="utf-8"?>
<!-- Generator: Adobe Illustrator 21.1.0, SVG Export Plug-In . SVG Version: 6.00 Build 0)  -->
<svg version="1.1" id="Layer_1" xmlns="http://www.w3.org/2000/svg" xmlns:xlink="http://www.w3.org/1999/xlink" x="0px" y="0px"
	 viewBox="0 0 368.5 311.8" style="enable-background:new 0 0 368.5 311.8;" xml:space="preserve">
<style type="text/css">
	.st0{fill:#FFD700;}
	.st1{fill:url(#SVGID_1_);}
</style>
<g>
	<polygon class="st0" points="72.7,0.9 14.8,0.9 142.6,310.9 170,241.7 	"/>
	<linearGradient id="SVGID_1_" gradientUnits="userSpaceOnUse" x1="182.7507" y1="176.5569" x2="141.7395" y2="280.4516">
		<stop  offset="0" style="stop-color:#FFD700"/>
		<stop  offset="1" style="stop-color:#EE7900"/>
	</linearGradient>
	<polygon class="st1" points="265.3,0.9 238.9,0.9 157.2,209.9 170,241.7 	"/>
	<g>
		<path d="M222.5,161.6H187v-62h35.1v4h-23.4v23.9h22v4h-22v26h23.7V161.6z"/>
		<path d="M228.1,153.7l4.3-3.2c1.7,2.7,3.5,4.7,5.4,6c1.9,1.3,4.4,2,7.3,2c2.9,0,5.5-1,7.8-3.1c2.3-2,3.4-4.6,3.4-7.7
			c0-4.9-2.5-8.7-7.5-11.3c-4.7-2.1-9.4-4.3-14-6.4c-5.1-3.2-7.6-7.9-7.6-14.1c0-5.1,1.9-9.4,5.6-12.9c3.7-3.5,8.5-5.3,14.3-5.3
			c3.9,0,7.6,1,11.1,3c3.4,2,6,4.7,7.6,8.1l-4,2.6c-1.4-2.8-3-4.9-4.8-6.3c-2.2-1.7-4.9-2.5-8-2.5c-3.1,0-5.5,1.1-7.4,3.1
			c-1.8,2.1-2.8,4.7-2.8,7.7c0,3.9,2.5,7,7.5,9.5c4.6,2.3,9.3,4.5,14,6.7c5.1,3.5,7.6,8.4,7.6,14.7c0,5.4-2.1,10-6.2,13.6
			c-4.1,3.6-8.8,5.4-14.2,5.4c-4.4,0-8.2-0.8-11.5-2.3C232.9,159.7,230.2,157.2,228.1,153.7z"/>
		<path d="M293.7,161.6h-11.6v-58h-12.4v-4h36.4v4h-12.4V161.6z"/>
		<path d="M353.7,161.6h-11.9l-6.6-16.3h-21.4l-6.2,16.3h-5.4l25.3-63.8L353.7,161.6z M333.5,141.3l-9.1-22.7l-9,22.7H333.5z"/>
		<polygon points="177,99.6 160.2,142.7 142.8,99.6 130.9,99.6 157.2,163.4 182.4,99.6 		"/>
	</g>
</g>
</svg>
