<svg xmlns="http://www.w3.org/2000/svg" width="151" height="133.594" viewBox="0 0 151 133.594">
  <metadata><?xpacket begin="﻿" id="W5M0MpCehiHzreSzNTczkc9d"?>
<x:xmpmeta xmlns:x="adobe:ns:meta/" x:xmptk="Adobe XMP Core 5.6-c138 79.159824, 2016/09/14-01:09:01        ">
   <rdf:RDF xmlns:rdf="http://www.w3.org/1999/02/22-rdf-syntax-ns#">
      <rdf:Description rdf:about=""/>
   </rdf:RDF>
</x:xmpmeta>
                                                                                                    
                                                                                                    
                                                                                                    
                                                                                                    
                                                                                                    
                                                                                                    
                                                                                                    
                                                                                                    
                                                                                                    
                                                                                                    
                                                                                                    
                                                                                                    
                                                                                                    
                                                                                                    
                                                                                                    
                                                                                                    
                                                                                                    
                                                                                                    
                                                                                                    
                                                                                                    
                           
<?xpacket end="w"?></metadata>
<defs>
    <style>
      .cls-1 {
        fill: #433486;
        fill-rule: evenodd;
      }
    </style>
  </defs>
  <path id="logo" class="cls-1" d="M493.45,400.749h-4.873V389.594l-3.68,6.992H483l-3.625-6.992v11.155H474.5V380.708h4.987l4.475,8.389,4.5-8.389h4.987v20.041Zm132.05,0h-4.871V389.594l-3.683,6.992h-1.9l-3.625-6.992v11.155H606.55V380.708h4.987l4.472,8.389,4.5-8.389H625.5v20.041Zm-111.4-6.7c-0.257,3.78-3.59,6.987-8.206,6.987-4.73,0-7.9-3.207-8.236-6.987a65.028,65.028,0,0,1,0-6.64c0.284-3.78,3.561-6.985,8.236-6.985,4.73,0,7.978,3.147,8.206,6.985C514.184,388.926,514.184,392.735,514.1,394.049Zm-4.872-6.555a3.428,3.428,0,0,0-6.7,0c-0.087,1.231-.087,5.3,0,6.472a3.111,3.111,0,0,0,3.362,2.687,3.063,3.063,0,0,0,3.334-2.687C509.31,392.791,509.31,388.725,509.225,387.494Zm7.56,9.1h2.208c0.856,0,1.085-.659,1.085-1.545V380.708h4.873V395.74c0,4.033-2.223,5.3-4.76,5.3h-3.406V396.6Zm28.587-2.548c-0.255,3.78-3.59,6.987-8.206,6.987-4.73,0-7.9-3.207-8.236-6.987a63.9,63.9,0,0,1,0-6.64c0.284-3.78,3.561-6.985,8.236-6.985,4.727,0,7.98,3.147,8.206,6.985C545.459,388.926,545.459,392.735,545.372,394.049Zm-4.872-6.555a3.429,3.429,0,0,0-6.7,0c-0.085,1.231-.085,5.3,0,6.472a3.113,3.113,0,0,0,3.364,2.687,3.064,3.064,0,0,0,3.334-2.687C540.585,392.791,540.585,388.725,540.5,387.494Zm23.255-6.786v4.5h-9.346v3.35h8.55v4.237h-8.55v7.958h-4.817V380.708h14.163Zm19.323,13.341c-0.255,3.78-3.59,6.987-8.207,6.987-4.729,0-7.894-3.207-8.235-6.987a63.9,63.9,0,0,1,0-6.64c0.286-3.78,3.563-6.985,8.235-6.985,4.732,0,7.981,3.147,8.207,6.985C583.165,388.926,583.165,392.735,583.078,394.049Zm-4.874-6.555a3.428,3.428,0,0,0-6.695,0c-0.086,1.231-.086,5.3,0,6.472a3.112,3.112,0,0,0,3.362,2.687,3.06,3.06,0,0,0,3.333-2.687C578.291,392.791,578.291,388.725,578.2,387.494Zm16.217,6.9h-2.28v6.355H587.3V380.708h8.636c3.819,0,5.642,2.177,5.813,5.071,0.057,1.2.057,2.229,0,3.461-0.171,3.435-2.422,4.381-2.422,4.381l4.076,7.128h-5.7Zm2.593-8.217a1.088,1.088,0,0,0-1.252-.944h-3.621v4.694h3.621a1.126,1.126,0,0,0,1.252-.973A22.939,22.939,0,0,0,597.014,386.177Zm-47.038-17.6a6.184,6.184,0,0,1-1.911-12.055V340.058a16.062,16.062,0,0,1-4.383-1.177l-8.19,14.25a6.21,6.21,0,0,1,.749,7.217,6.145,6.145,0,0,1-8.4,2.263h0a6.18,6.18,0,0,1,4.346-11.4l8.187-14.245a16.1,16.1,0,0,1-3.24-3.25l-14.192,8.231a6.2,6.2,0,0,1-2.947,6.628,6.135,6.135,0,0,1-8.4-2.26,6.161,6.161,0,0,1,9.437-7.689l14.2-8.234a16.242,16.242,0,0,1-1.18-4.422H517.674a6.179,6.179,0,1,1,0-3.838h16.367a16.177,16.177,0,0,1,1.18-4.423l-14.2-8.23a6.147,6.147,0,0,1-10.053-3,6.185,6.185,0,0,1,4.35-7.567,6.15,6.15,0,0,1,7.536,4.368,6.17,6.17,0,0,1,.079,2.876l14.192,8.232a16.126,16.126,0,0,1,3.24-3.251l-8.187-14.246a6.181,6.181,0,1,1,3.309-1.919l10.044,17.478-1.658.958a12.3,12.3,0,0,0,0,21.291,12.269,12.269,0,0,0,12.227-21.275l-1.648-.96,10.052-17.491a6.212,6.212,0,0,1-.752-7.218,6.14,6.14,0,0,1,8.407-2.262,6.179,6.179,0,0,1-4.347,11.4l-8.2,14.272a16.131,16.131,0,0,1,3.2,3.225l14.2-8.232a6.2,6.2,0,0,1,2.943-6.628,6.138,6.138,0,0,1,8.4,2.263,6.2,6.2,0,0,1-2.251,8.441,6.139,6.139,0,0,1-7.186-.753l-14.194,8.232a16.285,16.285,0,0,1,1.18,4.423h16.413a6.179,6.179,0,1,1,0,3.838H565.911a16.278,16.278,0,0,1-1.18,4.422l14.194,8.234a6.187,6.187,0,1,1-1.911,3.323l-14.2-8.233a16.016,16.016,0,0,1-3.2,3.223l8.2,14.272a6.18,6.18,0,0,1,4.347,11.4h0a6.148,6.148,0,0,1-8.407-2.263,6.211,6.211,0,0,1,.752-7.217l-8.2-14.267a16.036,16.036,0,0,1-4.422,1.194v16.463A6.184,6.184,0,0,1,549.976,368.576Zm0-38.346a6.179,6.179,0,1,1,6.151-6.179A6.171,6.171,0,0,1,549.976,330.23Zm-36.389,78.988h5.5v1.657h-1.858v5.682h-1.786v-5.682h-1.858v-1.657Zm12.8,4.887a3.053,3.053,0,0,1-6.025,0c-0.04-.472-0.04-1.877,0-2.435a2.875,2.875,0,0,1,3.018-2.557,2.823,2.823,0,0,1,3.007,2.557C526.415,412.228,526.415,413.621,526.385,414.105Zm-1.786-2.4a1.255,1.255,0,0,0-2.452,0c-0.031.451-.031,1.939,0,2.37a1.137,1.137,0,0,0,1.231.986,1.121,1.121,0,0,0,1.221-.986C524.63,413.641,524.63,412.153,524.6,411.7Zm3.355,3.24h1.608V416.4a1.549,1.549,0,0,1-1.712,1.742v-0.849a0.693,0.693,0,0,0,.647-0.735h-0.543v-1.615Zm9.094-5.724h1.745v7.339h-1.745v-2.37a8.752,8.752,0,0,1-1.532.147,1.926,1.926,0,0,1-2.193-2.141v-2.975h1.743v2.925a0.515,0.515,0,0,0,.627.545,7.307,7.307,0,0,0,1.355-.147v-3.323Zm3.167,0h5.5v1.657h-1.861v5.682h-1.785v-5.682h-1.858v-1.657Zm12.8,4.887a3.051,3.051,0,0,1-6.022,0,22.46,22.46,0,0,1,0-2.435,2.874,2.874,0,0,1,3.018-2.557,2.818,2.818,0,0,1,3,2.557C553.043,412.228,553.043,413.621,553.011,414.105Zm-1.785-2.4a1.255,1.255,0,0,0-2.452,0c-0.031.451-.031,1.939,0,2.37a1.139,1.139,0,0,0,1.233.986,1.122,1.122,0,0,0,1.219-.986C551.258,413.641,551.258,412.153,551.226,411.7Zm11.742-2.484v7.339h-1.8v-2.966h-2.277v2.966H557.12v-7.339h1.774v2.768h2.277v-2.768h1.8Zm5.781,0,2.306,7.339h-1.836l-0.439-1.541h-2.12l-0.439,1.541H564.4l2.3-7.339h2.056Zm-1.025,1.991-0.616,2.224h1.222Zm4.407,3.733h0.649a5.8,5.8,0,0,0,.521-2.735v-2.989h5.051v5.724h0.67v3.294H577.3l-0.062-1.679h-3.33l-0.062,1.679h-1.714v-3.294Zm2.913-2.579a8.626,8.626,0,0,1-.406,2.579h1.921v-4.109h-1.515v1.53Zm11.345,1.742a3.052,3.052,0,0,1-6.023,0,21.962,21.962,0,0,1,0-2.435,2.872,2.872,0,0,1,3.013-2.557,2.824,2.824,0,0,1,3.01,2.557C586.42,412.228,586.42,413.621,586.389,414.105Zm-1.788-2.4a1.254,1.254,0,0,0-2.45,0c-0.034.451-.034,1.939,0,2.37a1.136,1.136,0,0,0,1.228.986,1.119,1.119,0,0,0,1.222-.986C584.635,413.641,584.635,412.153,584.6,411.7Z" transform="translate(-474.5 -284.656)"/>
</svg>
