<svg xmlns="http://www.w3.org/2000/svg" width="160" height="123.5" viewBox="0 0 160 123.5">
  <metadata><?xpacket begin="﻿" id="W5M0MpCehiHzreSzNTczkc9d"?>
<x:xmpmeta xmlns:x="adobe:ns:meta/" x:xmptk="Adobe XMP Core 5.6-c138 79.159824, 2016/09/14-01:09:01        ">
   <rdf:RDF xmlns:rdf="http://www.w3.org/1999/02/22-rdf-syntax-ns#">
      <rdf:Description rdf:about=""/>
   </rdf:RDF>
</x:xmpmeta>
                                                                                                    
                                                                                                    
                                                                                                    
                                                                                                    
                                                                                                    
                                                                                                    
                                                                                                    
                                                                                                    
                                                                                                    
                                                                                                    
                                                                                                    
                                                                                                    
                                                                                                    
                                                                                                    
                                                                                                    
                                                                                                    
                                                                                                    
                                                                                                    
                                                                                                    
                                                                                                    
                           
<?xpacket end="w"?></metadata>
<defs>
    <style>
      .cls-1 {
        fill: #433486;
        fill-rule: evenodd;
      }
    </style>
  </defs>
  <path id="logo" class="cls-1" d="M211.08,673.69h-5.164V661.852l-3.9,7.42H200l-3.842-7.42V673.69H191V652.422h5.284l4.742,8.9,4.77-8.9h5.284V673.69Zm139.92,0h-5.162V661.852l-3.9,7.42h-2.012l-3.842-7.42V673.69H330.92V652.422h5.285l4.739,8.9,4.772-8.9H351V673.69Zm-118.043-7.111c-0.273,4.011-3.8,7.415-8.695,7.415-5.012,0-8.366-3.4-8.727-7.415a68.951,68.951,0,0,1,0-7.046c0.3-4.012,3.773-7.413,8.727-7.413,5.011,0,8.453,3.34,8.695,7.413C233.049,661.143,233.049,665.185,232.957,666.579Zm-5.162-6.956a3.631,3.631,0,0,0-7.095,0c-0.092,1.307-.092,5.621,0,6.869a3.3,3.3,0,0,0,3.562,2.85,3.247,3.247,0,0,0,3.533-2.85C227.885,665.244,227.885,660.93,227.8,659.623Zm8.01,9.66h2.34c0.907,0,1.149-.7,1.149-1.64V652.422h5.164v15.951c0,4.281-2.355,5.621-5.043,5.621h-3.61v-4.711Zm30.292-2.7c-0.271,4.011-3.805,7.415-8.7,7.415-5.012,0-8.366-3.4-8.727-7.415a67.823,67.823,0,0,1,0-7.046c0.3-4.012,3.773-7.413,8.727-7.413,5.009,0,8.456,3.34,8.7,7.413C266.188,661.143,266.188,665.185,266.1,666.579Zm-5.163-6.956a3.633,3.633,0,0,0-7.1,0c-0.089,1.307-.089,5.621,0,6.869a3.3,3.3,0,0,0,3.565,2.85,3.249,3.249,0,0,0,3.533-2.85C261.024,665.244,261.024,660.93,260.934,659.623Zm24.641-7.2v4.771h-9.9v3.555h9.06v4.5h-9.06v8.446h-5.1V652.422h15.007Zm20.474,14.157c-0.269,4.011-3.8,7.415-8.695,7.415-5.012,0-8.365-3.4-8.727-7.415a67.823,67.823,0,0,1,0-7.046c0.3-4.012,3.776-7.413,8.727-7.413,5.014,0,8.456,3.34,8.695,7.413C306.141,661.143,306.141,665.185,306.049,666.579Zm-5.164-6.956a3.631,3.631,0,0,0-7.094,0c-0.091,1.307-.091,5.621,0,6.869a3.3,3.3,0,0,0,3.563,2.85,3.244,3.244,0,0,0,3.531-2.85C300.977,665.244,300.977,660.93,300.885,659.623Zm17.183,7.323h-2.416v6.744h-5.133V652.422h9.151c4.046,0,5.978,2.31,6.159,5.381,0.06,1.273.06,2.366,0,3.673-0.181,3.645-2.566,4.649-2.566,4.649l4.319,7.565h-6.041Zm2.749-8.72a1.156,1.156,0,0,0-1.328-1h-3.837v4.981h3.837a1.2,1.2,0,0,0,1.328-1.032A24.941,24.941,0,0,0,320.817,658.226Zm-49.842-18.679a6.564,6.564,0,0,1-2.026-12.792v-17.47a17.011,17.011,0,0,1-4.643-1.249l-8.679,15.121a6.6,6.6,0,0,1,.794,7.659,6.505,6.505,0,0,1-8.905,2.4h0a6.557,6.557,0,0,1,4.605-12.1L260.8,606a17.074,17.074,0,0,1-3.433-3.448l-15.038,8.735a6.583,6.583,0,0,1-3.123,7.033,6.5,6.5,0,0,1-8.9-2.4,6.59,6.59,0,0,1,2.384-8.959,6.505,6.505,0,0,1,7.617.8l15.04-8.738a17.243,17.243,0,0,1-1.25-4.693H236.747a6.556,6.556,0,1,1,0-4.073H254.09a17.174,17.174,0,0,1,1.25-4.692l-15.04-8.734a6.5,6.5,0,0,1-7.616.8,6.569,6.569,0,0,1,1.573-12.013,6.432,6.432,0,0,1,4.945.654,6.581,6.581,0,0,1,3.123,7.033l15.038,8.735a17.13,17.13,0,0,1,3.433-3.449l-8.675-15.118a6.549,6.549,0,1,1,4.3-9.7,6.6,6.6,0,0,1-.794,7.659l10.643,18.547L264.513,581a12.977,12.977,0,0,0-4.76,4.78,12.924,12.924,0,1,0,17.716-4.762L275.723,580l10.651-18.562a6.6,6.6,0,0,1-.8-7.659,6.5,6.5,0,0,1,8.908-2.4,6.591,6.591,0,0,1,2.387,8.958,6.517,6.517,0,0,1-6.993,3.138l-8.691,15.146a17.116,17.116,0,0,1,3.4,3.421l15.042-8.735a6.588,6.588,0,0,1,3.118-7.033,6.5,6.5,0,0,1,8.906,2.4,6.586,6.586,0,0,1-2.385,8.957,6.5,6.5,0,0,1-7.615-.8l-15.04,8.737a17.282,17.282,0,0,1,1.25,4.692H305.25a6.559,6.559,0,1,1,0,4.073H287.859a17.279,17.279,0,0,1-1.25,4.693l15.04,8.738a6.5,6.5,0,0,1,7.613-.8,6.587,6.587,0,0,1,2.387,8.959,6.526,6.526,0,0,1-12.025-4.634l-15.041-8.736a17.032,17.032,0,0,1-3.4,3.42l8.691,15.145a6.523,6.523,0,0,1,6.993,3.139,6.59,6.59,0,0,1-2.387,8.958h0a6.508,6.508,0,0,1-8.908-2.4,6.6,6.6,0,0,1,.8-7.659l-8.691-15.139A16.978,16.978,0,0,1,273,609.285v17.47A6.563,6.563,0,0,1,270.975,639.547Zm0-40.691a6.557,6.557,0,1,1,6.517-6.557A6.543,6.543,0,0,1,270.975,598.856Z" transform="translate(-191 -550.5)"/>
</svg>
