<svg xmlns="http://www.w3.org/2000/svg" width="168" height="37.97" viewBox="0 0 168 37.97">
  <metadata><?xpacket begin="﻿" id="W5M0MpCehiHzreSzNTczkc9d"?>
<x:xmpmeta xmlns:x="adobe:ns:meta/" x:xmptk="Adobe XMP Core 5.6-c138 79.159824, 2016/09/14-01:09:01        ">
   <rdf:RDF xmlns:rdf="http://www.w3.org/1999/02/22-rdf-syntax-ns#">
      <rdf:Description rdf:about=""/>
   </rdf:RDF>
</x:xmpmeta>
                                                                                                    
                                                                                                    
                                                                                                    
                                                                                                    
                                                                                                    
                                                                                                    
                                                                                                    
                                                                                                    
                                                                                                    
                                                                                                    
                                                                                                    
                                                                                                    
                                                                                                    
                                                                                                    
                                                                                                    
                                                                                                    
                                                                                                    
                                                                                                    
                                                                                                    
                                                                                                    
                           
<?xpacket end="w"?></metadata>
<defs>
    <style>
      .cls-1 {
        fill: #3b3c46;
        fill-rule: evenodd;
      }
    </style>
  </defs>
  <path id="Shape_1_copy" data-name="Shape 1 copy" class="cls-1" d="M249.835,3358.62h-3.826v-8.73l-2.889,5.47h-1.492l-2.846-5.47v8.73h-3.825v-15.69h3.915l3.513,6.57,3.534-6.57h3.915v15.69Zm103.665,0h-3.824v-8.73l-2.892,5.47h-1.49l-2.846-5.47v8.73h-3.825v-15.69h3.915l3.511,6.57,3.536-6.57H353.5v15.69Zm-87.456-5.25a6.543,6.543,0,0,1-12.909,0,51.014,51.014,0,0,1,0-5.19,6.156,6.156,0,0,1,6.466-5.47c3.713,0,6.263,2.46,6.443,5.47C266.111,3349.36,266.111,3352.35,266.044,3353.37Zm-3.825-5.13a2.695,2.695,0,0,0-5.257,0c-0.068.97-.068,4.15,0,5.07a2.441,2.441,0,0,0,2.639,2.1,2.4,2.4,0,0,0,2.618-2.1C262.285,3352.39,262.285,3349.21,262.219,3348.24Zm5.935,7.13h1.733c0.672,0,.852-0.52.852-1.21v-11.23h3.826v11.77c0,3.15-1.746,4.14-3.737,4.14h-2.674v-3.47Zm22.442-2a6.543,6.543,0,0,1-12.908,0,49.334,49.334,0,0,1,0-5.19,6.155,6.155,0,0,1,6.466-5.47c3.711,0,6.265,2.46,6.442,5.47C290.664,3349.36,290.664,3352.35,290.6,3353.37Zm-3.825-5.13a2.7,2.7,0,0,0-5.259,0c-0.066.97-.066,4.15,0,5.07a2.444,2.444,0,0,0,2.642,2.1,2.4,2.4,0,0,0,2.617-2.1C286.838,3352.39,286.838,3349.21,286.771,3348.24Zm18.257-5.31v3.52H297.69v2.62H304.4v3.32H297.69v6.23h-3.781v-15.69h11.119Zm15.168,10.44a6.542,6.542,0,0,1-12.907,0,49.334,49.334,0,0,1,0-5.19,6.156,6.156,0,0,1,6.465-5.47c3.715,0,6.265,2.46,6.442,5.47C320.265,3349.36,320.265,3352.35,320.2,3353.37Zm-3.826-5.13a2.694,2.694,0,0,0-5.255,0c-0.068.97-.068,4.15,0,5.07a2.441,2.441,0,0,0,2.639,2.1,2.4,2.4,0,0,0,2.616-2.1C316.439,3352.39,316.439,3349.21,316.37,3348.24Zm12.731,5.4h-1.79v4.98h-3.8v-15.69h6.78c3,0,4.429,1.71,4.563,3.97,0.045,0.94.045,1.75,0,2.71a3.73,3.73,0,0,1-1.9,3.43l3.2,5.58h-4.476Zm2.036-6.43a0.854,0.854,0,0,0-.983-0.74h-2.843v3.68h2.843a0.886,0.886,0,0,0,.983-0.76A17.992,17.992,0,0,0,331.137,3347.21ZM205.508,3368a2.8,2.8,0,0,1-.863-5.45v-7.46a7.149,7.149,0,0,1-1.979-.53l-3.7,6.45a2.822,2.822,0,0,1,.338,3.27,2.776,2.776,0,0,1-3.8,1.02h0a2.8,2.8,0,0,1,1.963-5.16l3.7-6.45a7.031,7.031,0,0,1-1.463-1.47l-6.409,3.73a2.78,2.78,0,0,1-5.126,1.98,2.823,2.823,0,0,1,1.016-3.83,2.778,2.778,0,0,1,3.246.34l6.41-3.72a7.375,7.375,0,0,1-.532-2H190.92a2.8,2.8,0,1,1,0-1.74h7.392a7.245,7.245,0,0,1,.532-2l-6.41-3.73a2.813,2.813,0,0,1-1.137.62,2.794,2.794,0,0,1-3.125-4.1,2.735,2.735,0,0,1,1.687-1.3,2.687,2.687,0,0,1,2.108.28,2.757,2.757,0,0,1,1.295,1.69,2.835,2.835,0,0,1,.036,1.31l6.409,3.72a7.279,7.279,0,0,1,1.463-1.47l-3.7-6.45a2.791,2.791,0,0,1-3.258-3.46,2.8,2.8,0,0,1,1.295-1.7,2.77,2.77,0,0,1,3.8,1.03,2.8,2.8,0,0,1-.338,3.26l4.536,7.91-0.749.44a5.472,5.472,0,0,0-2.029,2.04,5.532,5.532,0,1,0,9.566,5.56,5.605,5.605,0,0,0,0-5.56,5.519,5.519,0,0,0-2.015-2.03l-0.745-.44,4.54-7.92a2.8,2.8,0,0,1,1.349-4.57,2.775,2.775,0,0,1,2.108.28,2.812,2.812,0,0,1,1.017,3.82,2.771,2.771,0,0,1-2.98,1.34l-3.7,6.46a7.551,7.551,0,0,1,1.447,1.46l6.411-3.72a2.8,2.8,0,0,1,1.329-3,2.69,2.69,0,0,1,2.109-.28,2.733,2.733,0,0,1,1.686,1.3,2.808,2.808,0,0,1-1.016,3.82,2.762,2.762,0,0,1-3.246-.34l-6.41,3.73a7.282,7.282,0,0,1,.533,2h7.412a2.79,2.79,0,1,1,0,1.74H212.7a7.377,7.377,0,0,1-.533,2l6.41,3.72a2.777,2.777,0,0,1,3.245-.34,2.822,2.822,0,0,1,1.017,3.83,2.783,2.783,0,0,1-5.125-1.98l-6.41-3.73a7.028,7.028,0,0,1-1.447,1.46l3.7,6.46a2.8,2.8,0,0,1,1.963,5.16h0a2.778,2.778,0,0,1-3.8-1.02,2.824,2.824,0,0,1,.34-3.27l-3.7-6.46a6.942,6.942,0,0,1-2,.54v7.46A2.8,2.8,0,0,1,205.508,3368Zm0-17.36a2.8,2.8,0,1,1,2.778-2.79A2.785,2.785,0,0,1,205.508,3350.64Z" transform="translate(-185.5 -3330.03)"/>
</svg>
