<?xml version="1.0" encoding="utf-8"?>
<!-- Generator: Adobe Illustrator 21.1.0, SVG Export Plug-In . SVG Version: 6.00 Build 0)  -->
<svg version="1.1" id="Слой_1" xmlns="http://www.w3.org/2000/svg" xmlns:xlink="http://www.w3.org/1999/xlink" x="0px" y="0px"
	 viewBox="0 0 24 24" style="enable-background:new 0 0 24 24;" xml:space="preserve">
<style type="text/css">
	.st0{fill:url(#SVGID_1_);}
	.st1{fill:url(#SVGID_2_);}
</style>
<linearGradient id="SVGID_1_" gradientUnits="userSpaceOnUse" x1="3.4865" y1="12" x2="24.389" y2="12">
	<stop  offset="0" style="stop-color:#E35C67"/>
	<stop  offset="1" style="stop-color:#381CE2"/>
</linearGradient>
<path class="st0" d="M14.1,10.3L13.8,10l0.3-0.2l0.2,0.3v0l-0.2-0.3l0.6-0.4L15,9.7l0,0l-0.2-0.3l0.3-0.2l0.2,0.3
	c0.3,0.4,0.7,0.7,1.3,0.7c0.4,0,0.7-0.1,0.9-0.3c0.2-0.2,0.3-0.4,0.3-0.7c0-0.3-0.1-0.5-0.4-0.7c-0.3-0.2-0.7-0.3-1.2-0.4
	c-0.4-0.1-1-0.3-1.4-0.7c-0.4-0.4-0.7-0.9-0.7-1.6c0-0.7,0.3-1.3,0.8-1.7c0.5-0.4,1.1-0.5,1.8-0.5c0.8,0,1.5,0.3,2.1,1L19.1,5
	l-0.3,0.2l-0.6,0.4l-0.3,0.2l-0.2-0.3c-0.1-0.2-0.3-0.3-0.4-0.4C17.2,5,17,5,16.7,5c-0.4,0-0.7,0.1-0.9,0.2
	c-0.2,0.1-0.3,0.4-0.3,0.7c0,0.4,0.1,0.6,0.4,0.7c0.3,0.2,0.7,0.3,1.1,0.4c0.4,0.1,1,0.3,1.4,0.6c0.4,0.3,0.7,0.8,0.7,1.6
	c0,0.7-0.3,1.3-0.8,1.7c-0.5,0.4-1.1,0.6-1.7,0.6C15.6,11.5,14.7,11.2,14.1,10.3z M18.8,12.5H18h-0.4v0.4v4.5l-2-4.7l-0.3,0.1l0,0
	l0.3-0.1l-0.1-0.2h-0.2h-0.3h-0.2l-0.1,0.2l-2,4.7v-4.6v-0.4h-0.4h-0.7h-0.4l0,0.4l0,7.1l0,0.4h0.4h1h0.2l0.1-0.2L12.7,20l0,0
	l0.3,0.1l2.2-5.2l2.2,5.2l0.3-0.1l0,0l-0.3,0.1l0.1,0.2h0.2h1h0.3l0-0.3l0.1-7.1l0-0.4H18.8z M11.3,11.5h0.4h0.7h0.4l0-0.4l-0.4,0v0
	l0.4,0L12.7,4l0-0.3h-0.3h-1h-0.2L11,3.9L8.8,9.1L6.6,3.9L6.5,3.7H6.3h-1H4.9l0,0.4l0,7.1l0.4,0v0l-0.4,0l0,0.4h0.4H6h0.4v-0.4V6.6
	l2,4.7l0.3-0.1v0l-0.3,0.1l0.1,0.2h0.2H9h0.2l0.1-0.2L9,11.2l0,0l0.3,0.1l2-4.7v4.5V11.5z M9.6,18.9L9.6,18.9l0.2-0.3l-0.6-0.4
	L8.9,18l-0.2,0.3C8.5,18.8,8,19,7.4,19c-0.4,0-0.7-0.1-0.9-0.3c-0.2-0.2-0.3-0.4-0.3-0.7c0-0.3,0.1-0.5,0.4-0.7
	c0.3-0.2,0.7-0.3,1.2-0.4c0.4-0.1,1-0.3,1.4-0.7c0.4-0.4,0.7-0.9,0.7-1.6c0-0.7-0.3-1.3-0.8-1.7c-0.5-0.4-1.1-0.5-1.8-0.5
	c-0.8,0-1.5,0.3-2.1,1l0.3,0.2v0l-0.3-0.2l-0.2,0.3L5.2,14l0.6,0.4L6,14.1l0,0l-0.2,0.3l0.3,0.2l0.2-0.3c0.1-0.2,0.3-0.3,0.4-0.4
	c0.2-0.1,0.3-0.1,0.6-0.1c0.4,0,0.7,0.1,0.9,0.2c0.2,0.1,0.3,0.4,0.3,0.7c0,0.4-0.1,0.6-0.4,0.7c-0.3,0.2-0.7,0.3-1.1,0.4
	c-0.4,0.1-1,0.3-1.4,0.6c-0.4,0.3-0.7,0.8-0.7,1.6c0,0.7,0.3,1.3,0.8,1.7c0.5,0.4,1.1,0.6,1.7,0.6c1,0,1.9-0.3,2.5-1.2l0.2-0.3
	l-0.3-0.2L9.6,18.9z"/>
<linearGradient id="SVGID_2_" gradientUnits="userSpaceOnUse" x1="0.3364" y1="12" x2="28.9298" y2="12">
	<stop  offset="0" style="stop-color:#E35C67"/>
	<stop  offset="1" style="stop-color:#381CE2"/>
</linearGradient>
<path class="st1" d="M21.3,1.4H2.7H1.5v1.2v18.9v1.2h1.2h18.6h1.2v-1.2V2.5V1.4H21.3z M21.3,3.6v16.8v1h-1H3.7h-1v-1V3.6v-1h1h16.6
	h1V3.6z"/>
</svg>
