<svg xmlns="http://www.w3.org/2000/svg" width="17.5" height="13.532" viewBox="0 0 17.5 13.532">
  <metadata><?xpacket begin="﻿" id="W5M0MpCehiHzreSzNTczkc9d"?>
<x:xmpmeta xmlns:x="adobe:ns:meta/" x:xmptk="Adobe XMP Core 5.6-c138 79.159824, 2016/09/14-01:09:01        ">
   <rdf:RDF xmlns:rdf="http://www.w3.org/1999/02/22-rdf-syntax-ns#">
      <rdf:Description rdf:about=""/>
   </rdf:RDF>
</x:xmpmeta>
                                                                                                    
                                                                                                    
                                                                                                    
                                                                                                    
                                                                                                    
                                                                                                    
                                                                                                    
                                                                                                    
                                                                                                    
                                                                                                    
                                                                                                    
                                                                                                    
                                                                                                    
                                                                                                    
                                                                                                    
                                                                                                    
                                                                                                    
                                                                                                    
                                                                                                    
                                                                                                    
                           
<?xpacket end="w"?></metadata>
<defs>
    <style>
      .cls-1 {
        fill: #3b3c46;
        fill-rule: evenodd;
      }
    </style>
  </defs>
  <path class="cls-1" d="M723,301.649v-1.086c-0.35.279-.67,0.565-1.023,0.808-1.806,1.24-3.616,2.464-5.417,3.7a5.433,5.433,0,0,1-1.506.771,2.559,2.559,0,0,1-1.563.019,5.35,5.35,0,0,1-1.416-.687c-1.382-.967-2.773-1.908-4.156-2.875a13.549,13.549,0,0,1-2.418-1.8v7.6a1.582,1.582,0,0,0,1.583,1.582H721.4a1.618,1.618,0,0,0,1.6-1.568C722.976,305.957,723,303.8,723,301.649Zm-0.432-2.554a5,5,0,0,1-1.409,1.374q-2.425,1.641-4.842,3.3a7.989,7.989,0,0,1-1.433.859,1.468,1.468,0,0,1-1.29-.019,13.038,13.038,0,0,1-1.289-.764q-2.062-1.383-4.108-2.8a9.747,9.747,0,0,1-1.75-1.338,3.431,3.431,0,0,1-.854-1.343,1.931,1.931,0,0,1-.056-0.906,1.878,1.878,0,0,1,.408-0.829,1.216,1.216,0,0,1,.956-0.447c1.029-.014,2.056-0.014,3.085-0.015h11.387a1.569,1.569,0,0,1,1.6,1.272v0.04A2.291,2.291,0,0,1,722.568,299.1Z" transform="translate(-705.5 -296.156)"/>
</svg>
