<?xml version="1.0" encoding="utf-8"?>
<!-- Generator: Adobe Illustrator 21.1.0, SVG Export Plug-In . SVG Version: 6.00 Build 0)  -->
<svg version="1.1" id="Слой_1" xmlns="http://www.w3.org/2000/svg" xmlns:xlink="http://www.w3.org/1999/xlink" x="0px" y="0px"
	 viewBox="0 0 24 24" style="enable-background:new 0 0 24 24;" xml:space="preserve">
<path id="Group_1_" d="M22.1,17.6c0,0.5-0.4,0.9-0.9,0.9v0.9c1,0,1.8-0.8,1.8-1.8H22.1z M21.2,18.5H2.8v0.9h18.3V18.5z M2.8,18.5
	c-0.5,0-0.9-0.4-0.9-0.9H1c0,1,0.8,1.8,1.8,1.8V18.5z M1.9,17.6V6.4H1v11.1H1.9z M1.9,6.4c0-0.5,0.4-0.9,0.9-0.9V4.6
	C1.8,4.6,1,5.4,1,6.4H1.9z M2.8,5.5h18.3V4.6H2.8V5.5z M21.2,5.5c0.5,0,0.9,0.4,0.9,0.9H23c0-1-0.8-1.8-1.8-1.8V5.5z M22.1,6.4v11.1
	H23V6.4H22.1z M20,9.1c0.2-0.1,0.3-0.4,0.1-0.6c-0.1-0.2-0.4-0.3-0.6-0.1L20,9.1z M12,13.9l-0.3,0.4c0.2,0.1,0.3,0.1,0.5,0L12,13.9z
	 M4.5,8.4C4.2,8.2,4,8.3,3.8,8.5C3.7,8.7,3.7,9,4,9.1L4.5,8.4z M19.5,8.4l-7.8,5.1l0.5,0.8L20,9.1L19.5,8.4z M12.3,13.5L4.5,8.4
	L4,9.1l7.8,5.1L12.3,13.5z M4,15.3c-0.2,0.1-0.3,0.4-0.2,0.6s0.4,0.3,0.6,0.2L4,15.3z M7.6,14.3c0.2-0.1,0.3-0.4,0.2-0.6
	c-0.1-0.2-0.4-0.3-0.6-0.2L7.6,14.3z M4.4,16.1l3.2-1.9l-0.5-0.8L4,15.3L4.4,16.1z M19.6,16.1c0.2,0.1,0.5,0.1,0.6-0.2
	c0.1-0.2,0.1-0.5-0.2-0.6L19.6,16.1z M16.8,13.5c-0.2-0.1-0.5-0.1-0.6,0.2c-0.1,0.2-0.1,0.5,0.2,0.6L16.8,13.5z M20,15.3l-3.2-1.9
	l-0.5,0.8l3.2,1.9L20,15.3z"/>
</svg>
