<?xml version="1.0" encoding="utf-8"?>
<!-- Generator: Adobe Illustrator 21.1.0, SVG Export Plug-In . SVG Version: 6.00 Build 0)  -->
<svg version="1.1" id="Слой_1" xmlns="http://www.w3.org/2000/svg" xmlns:xlink="http://www.w3.org/1999/xlink" x="0px" y="0px"
	 viewBox="0 0 24 24" style="enable-background:new 0 0 24 24;" xml:space="preserve">
<style type="text/css">
	.st0{fill:#010002;}
</style>
<path id="path0_fill" class="st0" d="M14.6,6.6h-0.2C15,6,15.3,5.2,15.3,4.4c0-1.8-1.5-3.3-3.3-3.3S8.7,2.6,8.7,4.4
	C8.7,5.2,9,6,9.5,6.6H9.4c-0.9,0-1.6,0.7-1.6,1.6v5.4c0,0.9,0.7,1.6,1.6,1.6h0.1v5.9c0,0.9,0.5,1.6,1.2,1.6h2.8
	c0.7,0,1.2-0.7,1.2-1.6v-5.9h0.1c0.9,0,1.6-0.7,1.6-1.6V8.2C16.3,7.3,15.5,6.6,14.6,6.6z M9.9,4.4c0-1.2,1-2.1,2.1-2.1
	c1.2,0,2.1,1,2.1,2.1c0,1.2-1,2.1-2.1,2.1C10.8,6.6,9.9,5.6,9.9,4.4z M15.1,13.6c0,0.3-0.2,0.5-0.5,0.5H14c-0.3,0-0.6,0.3-0.6,0.6
	v6.5c0,0.3-0.1,0.4-0.1,0.5h-2.6c0-0.1-0.1-0.3-0.1-0.5v-6.5c0-0.3-0.3-0.6-0.6-0.6H9.4c-0.3,0-0.5-0.2-0.5-0.5V8.2
	c0-0.3,0.2-0.5,0.5-0.5h5.3c0.3,0,0.5,0.2,0.5,0.5V13.6z"/>
</svg>
