<?xml version="1.0" encoding="utf-8"?>
<!-- Generator: Adobe Illustrator 21.1.0, SVG Export Plug-In . SVG Version: 6.00 Build 0)  -->
<svg version="1.1" id="Слой_1" xmlns="http://www.w3.org/2000/svg" xmlns:xlink="http://www.w3.org/1999/xlink" x="0px" y="0px"
	 viewBox="0 0 512 512" style="enable-background:new 0 0 512 512;" xml:space="preserve">
<style type="text/css">
	.st0{fill:#333333;stroke:#000000;stroke-width:3;stroke-miterlimit:10;}
</style>
<path class="st0" d="M480.874,133.438h-158.36c-5.594,0-10.127,4.534-10.127,10.126c0,5.593,4.534,10.126,10.127,10.126h7.779
	c-1.344,9.911-4.635,19.207-9.469,27.503c0.032-0.326,0.05-0.655,0.05-0.989v-17.342c0-5.593-4.534-10.126-10.126-10.126
	s-10.126,4.534-10.126,10.126v17.342c0,5.593,4.534,10.126,10.126,10.126c1.716,0,3.329-0.43,4.745-1.183
	c-13.719,17.862-35.283,29.401-59.491,29.401c-37.909,0-69.336-28.284-74.293-64.858h18.559c-3.455,1.612-5.856,5.107-5.856,9.172
	v17.342c0,5.593,4.534,10.126,10.126,10.126s10.126-4.534,10.126-10.126v-17.342c0-4.065-2.4-7.56-5.856-9.172h72.019
	c5.59,0,10.127-4.533,10.127-10.126s-4.537-10.126-10.127-10.126H31.126c-5.593,0-10.126,4.534-10.126,10.126
	c0,62.766,24.448,121.787,68.829,166.168c44.382,44.382,103.405,68.83,166.171,68.83c62.765,0,121.788-24.446,166.17-68.83
	C466.55,265.351,491,206.328,491,143.564C491,137.972,486.469,133.438,480.874,133.438z M256.001,358.309
	c-115.014,0-209.189-90.894-214.495-204.619h119.823c5.077,47.769,45.579,85.11,94.672,85.11c49.094,0,89.595-37.341,94.669-85.11
	h119.823C465.189,267.415,371.014,358.309,256.001,358.309z M230.87,170.257c5.593,0,10.126,4.534,10.126,10.126v17.339
	c0,5.593-4.534,10.126-10.126,10.126s-10.126-4.534-10.126-10.126v-17.339C220.744,174.788,225.278,170.257,230.87,170.257z
	 M258.516,177.713c5.595,0,10.126,4.534,10.126,10.126v17.339c0,5.592-4.531,10.126-10.126,10.126
	c-5.593,0-10.126-4.534-10.126-10.126v-17.339C248.39,182.247,252.923,177.713,258.516,177.713z M286.708,170.257
	c5.593,0,10.126,4.534,10.126,10.126v17.339c0,5.593-4.534,10.126-10.126,10.126c-5.59,0-10.126-4.533-10.126-10.126v-17.339
	C276.582,174.787,281.119,170.257,286.708,170.257z"/>
</svg>
