<?xml version="1.0" encoding="utf-8"?>
<!-- Generator: Adobe Illustrator 21.1.0, SVG Export Plug-In . SVG Version: 6.00 Build 0)  -->
<svg version="1.1" id="Слой_1" xmlns="http://www.w3.org/2000/svg" xmlns:xlink="http://www.w3.org/1999/xlink" x="0px" y="0px"
	 viewBox="0 0 512 512" style="enable-background:new 0 0 512 512;" xml:space="preserve">
<path d="M462.018219,400.1296997c-38.6908569-102.6551819-77.3560181-205.318924-116.0340271-307.9740601
	c-0.5835876-1.7189407-1.1671753-3.4378586-1.7507629-5.1567993c-0.7366028,1.7175064-1.4732361,3.4350128-2.2098389,5.1525192
	c-27.9809265,56.6162491-55.9960632,113.2153702-84.0069275,169.8188171
	c-29.0330963-57.0824738-58.0491028-114.1734772-87.0351257-171.2815857
	C131.251358,193.8356171,91.5254517,296.982666,51.7995529,400.1296997c-10.2650909-0.0042725-20.5301819,0-30.7995529,0
	c0,8.28479,0,16.5695801,0,24.8586426c56.2441406,0.0042725,112.4839935-0.004303,168.7281342,0.0042725
	c0.0042877-8.2890625,0-16.578125,0.0042877-24.862915c-11.1632843,0-22.3265839,0-33.4898529,0
	c11.1718292-32.2238464,22.305191-64.4604797,33.4855652-96.6800232
	c22.779953,40.508606,45.5171204,81.0428772,68.3013458,121.5514832
	c21.8304138-40.5342712,43.7250061-81.0386047,65.5982056-121.5514832
	c11.1803894,32.2195435,22.3094788,64.4519348,33.4727478,96.6757507c-11.1547546,0.0085449-22.3137207,0-33.4684753,0.0042725
	c0.0042725,8.2890625-0.0042725,16.5738525,0.0042725,24.862915c55.786499-0.0085754,111.5772705,0,167.3637695-0.0042725
	c0-8.2890625,0-16.5738525,0-24.8586426C481.3379517,400.1296997,471.6759338,400.1296997,462.018219,400.1296997z
	 M381.5655518,402.6959839c-17.8099365-51.4965515-35.6498108-102.9845276-53.4554443-154.4810486
	c-23.4985046,43.5197144-46.971344,87.056488-70.4954834,130.563385
	c-24.251297-43.151886-48.4812012-86.3208618-72.7410126-129.4727325
	c-17.6858826,51.1372528-35.4017334,102.2574005-53.0961761,153.3903961c-19.0246277,0-38.0535355,0-57.078186,0
	c33.0322189-85.7691345,66.0387573-171.5467834,99.1094513-257.2987671
	c16.2145538,32.1126251,32.5916443,64.1396942,48.8532715,96.2309418
	c11.8946686,23.3402557,23.7123566,46.7275543,35.6326752,70.0549774
	c27.7371521-56.060257,55.4571838-112.1290131,83.2113953-168.1806793
	c32.5617065,86.3935547,65.1106262,172.7913971,97.6509399,259.1935425
	C419.9569702,402.6959839,400.7612915,402.6959839,381.5655518,402.6959839z"/>
</svg>
