<?xml version="1.0" encoding="utf-8"?>
<!-- Generator: Adobe Illustrator 21.1.0, SVG Export Plug-In . SVG Version: 6.00 Build 0)  -->
<svg version="1.1" id="Слой_1" xmlns="http://www.w3.org/2000/svg" xmlns:xlink="http://www.w3.org/1999/xlink" x="0px" y="0px"
	 viewBox="0 0 24 24" style="enable-background:new 0 0 24 24;" xml:space="preserve">
<path d="M12.2,14.5l-0.9-1.8l0.9-0.5l0.9,0.4L12.2,14.5z M8.2,13.8l0.9,0.3l0.9-0.5l-1.1-1.9L8.2,13.8z M23.7,17.5v1v1.1v1h-1h-7.5
	h-1v-1v-1.1v-0.4l-1.1,2l-0.9-0.5h0l0.9,0.5l-0.9,1.6l-0.9-1.6L10.1,18v0.5v1.1v1h-1H1.6h-1v-1v-1.1v-1h1h0.7L7.4,4.2l0.8-2.1l1,2
	l3,5.9l2.9-5.8L15.2,4c0,0,0,0,0,0c0.3-0.7,0.6-1.4,1-2.1c0.2,0.6,0.5,1.2,0.7,1.8h0l0.2,0.6l5,13.2h0.6H23.7z M9.9,17.5l-0.5-0.9
	L9,17.5h0.1H9.9z M14.3,13.7l0.9,0.5h0L14.3,13.7l1.1-2l0.7,2.2l1.5,4.3l0.2,0.4h2.6L16,7l-2.9,5.8l-0.9-0.4l-0.9,0.5L8.4,7.1
	L4,18.6h2.6l0.2-0.4l1.5-4.3l0.9,0.3l0.9-0.5l2.2,3.9L14.3,13.7z M14.5,17.5h0.7h0.1l-0.3-0.9L14.5,17.5z"/>
</svg>
