<?xml version="1.0" encoding="utf-8"?>
<!-- Generator: Adobe Illustrator 21.1.0, SVG Export Plug-In . SVG Version: 6.00 Build 0)  -->
<svg version="1.1" id="Слой_1" xmlns="http://www.w3.org/2000/svg" xmlns:xlink="http://www.w3.org/1999/xlink" x="0px" y="0px"
	 viewBox="0 0 512 512" style="enable-background:new 0 0 512 512;" xml:space="preserve">
<style type="text/css">
	.st0{fill:url(#SVGID_1_);}
</style>
<linearGradient id="SVGID_1_" gradientUnits="userSpaceOnUse" x1="95.6514" y1="256.0002" x2="538.8798" y2="256.0002">
	<stop  offset="0" style="stop-color:#E35C67"/>
	<stop  offset="1" style="stop-color:#381CE2"/>
</linearGradient>
<path class="st0" d="M169.7,163.6l10.1-10.1l0,0L169.7,163.6z M399.4,373.2c20.5,20.6,20.6,53.9,0,74.4l0,0L377.1,470l0,0
	c-24.1,24.2-61.9,27.9-90.3,9.1l0,0l7.6-11.5l0.9-1.4l-8.5,12.9C187.5,413.3,98.9,324.8,33.2,225.5l0,0
	c-18.8-28.5-15.1-66.2,9.1-90.4l22.3-22.3c20.5-20.5,53.9-20.5,74.4,0l0,0l40.7,40.7l-10.1,10.1l10.1-10.1
	c20.5,20.6,20.5,53.9,0,74.4l-10.3-10.3l10.3,10.3l-4.3,4.3c31.5,37.3,67.3,73,104.5,104.5l4.3-4.3l0,0c20.6-20.6,53.9-20.6,74.4,0
	l0,0L399.4,373.2L399.4,373.2l-9.8,9.7l-0.1,0.1L399.4,373.2z M389.4,437.5l-0.3-0.3l-9.8-9.8l0,0c9.4-9.4,9.4-24.7,0-34.1
	l-40.7-40.7l0,0l9.8-9.8l0.3-0.3l-10.1,10.1c-9.4-9.4-24.7-9.4-34.1,0l0,0l-10-10l-0.1-0.1l10.1,10.1l-13.6,13.6
	c-5.2,5.2-13.4,5.6-19.1,0.9l9-11l0,0l-9,11c-45.2-37-89.6-81.5-126.7-126.7l11-9h0l-11,9c-4.6-5.7-4.2-13.9,0.9-19.1l13.6-13.6l0,0
	c9.4-9.4,9.4-24.7,0-34.2l-40.7-40.7l0,0l9.8-9.8l0.3-0.3l-10.1,10.1c-9.4-9.4-24.7-9.4-34.1,0l-22.3,22.3
	c-14.6,14.6-16.8,37.3-5.4,54.5h0c64,96.9,148.5,181.4,245.5,245.5c17.2,11.4,40,9.1,54.5-5.5l0,0l10.1,10.1l0.1,0.1l-10.1-10.1
	l22.4-22.3L389.4,437.5z M256.3,21c-7.9,0-14.3,6.4-14.3,14.3s6.4,14.3,14.3,14.3c114,0,206.5,92.4,206.5,206.5
	c0,7.9,6.4,14.3,14.3,14.3c7.9,0,14.3-6.4,14.3-14.3C491.2,126.2,386,21,256.3,21z M256.3,126.3c71.6,0,129.7,58.1,129.7,129.7
	c0,7.9,6.4,14.3,14.3,14.3c7.9,0,14.3-6.4,14.3-14.3c0-87.4-70.8-158.2-158.2-158.2c-7.9,0-14.3,6.4-14.3,14.3
	S248.4,126.3,256.3,126.3z M256.3,203.1c29.2,0,52.9,23.7,52.9,52.9c0,7.9,6.4,14.3,14.3,14.3c7.9,0,14.3-6.4,14.3-14.3
	c0-45-36.5-81.4-81.4-81.4c-7.9,0-14.3,6.4-14.3,14.3C242,196.7,248.4,203.1,256.3,203.1z"/>
</svg>
