<?xml version="1.0" encoding="utf-8"?>
<!-- Generator: Adobe Illustrator 21.1.0, SVG Export Plug-In . SVG Version: 6.00 Build 0)  -->
<svg version="1.1" id="Слой_1" xmlns="http://www.w3.org/2000/svg" xmlns:xlink="http://www.w3.org/1999/xlink" x="0px" y="0px"
	 viewBox="0 0 24 24" style="enable-background:new 0 0 24 24;" xml:space="preserve">
<style type="text/css">
	.st0{fill:url(#tablet-text_1_);}
</style>
<linearGradient id="tablet-text_1_" gradientUnits="userSpaceOnUse" x1="2.9212" y1="19.618" x2="21.0788" y2="4.3819">
	<stop  offset="0" style="stop-color:#E35C67"/>
	<stop  offset="1" style="stop-color:#381CE2"/>
</linearGradient>
<path id="tablet-text" class="st0" d="M12,19.3c-0.6,0-1.2,0.5-1.2,1.2c0,0.6,0.5,1.2,1.2,1.2c0.6,0,1.2-0.5,1.2-1.2
	C13.2,19.8,12.6,19.3,12,19.3z M12,20.7c-0.1,0-0.3-0.1-0.3-0.3c0-0.1,0.1-0.3,0.3-0.3s0.3,0.1,0.3,0.3C12.3,20.6,12.1,20.7,12,20.7
	z M12.5,3.6C12.5,3.8,12.3,4,12,4c-0.3,0-0.5-0.2-0.5-0.5s0.2-0.5,0.5-0.5C12.3,3.1,12.5,3.3,12.5,3.6z M15.7,8.2
	c0,0.2-0.2,0.4-0.4,0.4H8.7c-0.2,0-0.4-0.2-0.4-0.4c0-0.2,0.2-0.4,0.4-0.4h6.6C15.5,7.8,15.7,8,15.7,8.2z M15.7,10.1
	c0,0.2-0.2,0.4-0.4,0.4H8.7c-0.2,0-0.4-0.2-0.4-0.4c0-0.2,0.2-0.4,0.4-0.4h6.6C15.5,9.7,15.7,9.9,15.7,10.1z M15.7,12
	c0,0.2-0.2,0.4-0.4,0.4H8.7c-0.2,0-0.4-0.2-0.4-0.4c0-0.2,0.2-0.4,0.4-0.4h6.6C15.5,11.6,15.7,11.8,15.7,12z M15.7,13.9
	c0,0.2-0.2,0.4-0.4,0.4H8.7c-0.2,0-0.4-0.2-0.4-0.4c0-0.2,0.2-0.4,0.4-0.4h6.6C15.5,13.4,15.7,13.6,15.7,13.9z M12.5,15.8
	c0,0.2-0.2,0.4-0.4,0.4H8.7c-0.2,0-0.4-0.2-0.4-0.4s0.2-0.4,0.4-0.4H12C12.3,15.3,12.5,15.5,12.5,15.8z M17.2,1H6.8
	C5.6,1,4.5,2,4.5,3.3v17.4c0,1.3,1,2.3,2.3,2.3h10.3c1.3,0,2.3-1,2.3-2.3V3.3C19.5,2,18.4,1,17.2,1z M18.6,20.7
	c0,0.8-0.6,1.4-1.4,1.4H6.8c-0.8,0-1.4-0.6-1.4-1.4V3.3c0-0.8,0.6-1.4,1.4-1.4h10.3c0.8,0,1.4,0.6,1.4,1.4V20.7z M17.6,5.2H6.4
	c-0.2,0-0.4,0.2-0.4,0.4v12.7c0,0.2,0.2,0.4,0.4,0.4h11.3c0.2,0,0.4-0.2,0.4-0.4V5.7C18.1,5.4,17.9,5.2,17.6,5.2z M6.8,6.1h10.4
	v11.8H6.8V6.1z"/>
</svg>
