<?xml version="1.0" encoding="utf-8"?>
<!-- Generator: Adobe Illustrator 21.1.0, SVG Export Plug-In . SVG Version: 6.00 Build 0)  -->
<svg version="1.1" id="Слой_1" xmlns="http://www.w3.org/2000/svg" xmlns:xlink="http://www.w3.org/1999/xlink" x="0px" y="0px"
	 viewBox="0 0 512 512" style="enable-background:new 0 0 512 512;" xml:space="preserve">
<style type="text/css">
	.st0{fill:#B435DA;}
	.st1{fill:#DC3119;}
	.st2{fill:#D48BEF;}
	.st3{fill:#FFFFFF;}
</style>
<path id="path0_fill" class="st0" d="M96.935,21c-19.391,0-35.32,16.891-35.32,37.453v395.095c0,20.563,15.929,37.452,35.32,37.452
	h317.186c19.391,0,35.32-16.889,35.32-37.452v-283.47L318.549,21H96.935L96.935,21z"/>
<path id="path1_fill" class="st1" d="M449.48,170.807v7.344h-88.646c0,0-43.63-9.547-42.938-49.938c0,0,2.078,42.594,42.245,42.594
	H449.48z"/>
<path id="path2_fill" class="st2" d="M319.494,21v107.219c0,11.75,7.618,42.594,42.245,42.594h88.646L319.494,21z"/>
<path id="path3_fill" class="st3" d="M166.473,380.847h-23.547v30.844c0,2.938-2.078,5.141-4.848,5.141
	c-2.77,0-5.54-2.203-5.54-5.141V336.05c0-4.406,3.463-8.078,7.618-8.078h26.317c16.621,0,25.624,11.75,25.624,26.438
	C192.097,369.097,182.401,380.847,166.473,380.847z M165.088,337.515h-22.161v33.768h22.161c9.696,0,16.621-7.341,16.621-16.884
	C181.709,344.122,174.783,337.515,165.088,337.515z M242.653,380.847h-23.547v30.844c0,2.938-2.078,5.141-4.848,5.141
	c-2.77,0-4.848-2.203-4.848-5.141V336.05c0-4.406,2.77-8.078,6.925-8.078h26.317c16.621,0,25.624,11.75,25.624,26.438
	C268.277,369.097,259.274,380.847,242.653,380.847z M241.268,337.515h-21.469v33.768h21.469c9.696,0,16.621-7.341,16.621-16.884
	C257.889,344.122,250.963,337.515,241.268,337.515z M338.917,337.519h-22.854v74.172c0,2.938-2.078,5.141-4.848,5.141
	c-2.769,0-5.54-2.203-5.54-5.141v-74.172h-22.162c-2.77,0-4.848-2.203-4.848-5.141c0-2.203,2.078-4.406,4.848-4.406h55.404
	c2.771,0,4.848,2.203,4.848,5.141C343.765,335.316,341.687,337.519,338.917,337.519z"/>
</svg>
