<?xml version="1.0" encoding="utf-8"?>
<!-- Generator: Adobe Illustrator 21.1.0, SVG Export Plug-In . SVG Version: 6.00 Build 0)  -->
<svg version="1.1" id="Слой_1" xmlns="http://www.w3.org/2000/svg" xmlns:xlink="http://www.w3.org/1999/xlink" x="0px" y="0px"
	 viewBox="0 0 512 512" style="enable-background:new 0 0 512 512;" xml:space="preserve">
<style type="text/css">
	.st0{fill:url(#SVGID_1_);}
</style>
<linearGradient id="SVGID_1_" gradientUnits="userSpaceOnUse" x1="95.4097" y1="64.6133" x2="416.5945" y2="447.3865">
	<stop  offset="0" style="stop-color:#E35C67"/>
	<stop  offset="1" style="stop-color:#381CE2"/>
</linearGradient>
<path class="st0" d="M397.528,126.812h-8.932V46.034c0-5.819-4.718-10.538-10.539-10.538h-244.11
	c-5.824,0-10.538,4.719-10.538,10.538v80.777h-8.937c-34.858,0-63.223,28.362-63.223,63.222v130.533
	c0,34.863,28.365,63.222,63.223,63.222h8.937v82.177c0,5.82,4.714,10.539,10.538,10.539h244.11c5.82,0,10.539-4.718,10.539-10.539
	v-82.177h8.931c34.858,0,63.224-28.36,63.224-63.222V190.035C460.751,155.173,432.385,126.812,397.528,126.812z M144.485,56.571
	h223.037v70.241H144.485V56.571z M367.522,455.431H144.485V325.47h223.037V455.431z M397.528,362.716h-8.932V325.47h22.79
	c5.823,0,10.537-4.718,10.537-10.539c0-5.817-4.714-10.537-10.537-10.537h-33.328H133.948h-30.207
	c-5.819,0-10.538,4.72-10.538,10.537c0,5.822,4.719,10.539,10.538,10.539h19.669v37.246h-8.937
	c-23.241,0-42.149-18.908-42.149-42.15V190.035c0-23.241,18.908-42.148,42.149-42.148h19.474h244.109h19.472
	c23.24,0,42.148,18.908,42.148,42.148v130.531h0.001C439.678,343.81,420.77,362.716,397.528,362.716z M349.128,99.511
	c0,5.523-4.477,9.998-9.999,9.998H174.172c-5.521,0-9.998-4.475-9.998-9.998c0-5.52,4.477-9.997,9.998-9.997H339.13
	C344.65,89.514,349.128,93.991,349.128,99.511z"/>
</svg>
