<?xml version="1.0" encoding="utf-8"?>
<!-- Generator: Adobe Illustrator 21.1.0, SVG Export Plug-In . SVG Version: 6.00 Build 0)  -->
<svg version="1.1" id="Слой_1" xmlns="http://www.w3.org/2000/svg" xmlns:xlink="http://www.w3.org/1999/xlink" x="0px" y="0px"
	 viewBox="0 0 24 24" style="enable-background:new 0 0 24 24;" xml:space="preserve">
<style type="text/css">
	.st0{fill:url(#SVGID_1_);}
</style>
<linearGradient id="SVGID_1_" gradientUnits="userSpaceOnUse" x1="17.818" y1="22.8696" x2="-0.1656" y2="-12.4252">
	<stop  offset="0" style="stop-color:#E35C67"/>
	<stop  offset="1" style="stop-color:#381CE2"/>
</linearGradient>
<path class="st0" d="M11.4,17.4c-0.8,2.9-3.7,4.7-6.5,4c-2.8-0.8-4.4-3.7-3.6-6.7c0.1-0.5,0.3-0.9,0.5-1.3c0-0.1,0.1-0.3,0.1-0.4
	l3.6-7.7c0.7-1.5,2.5-2.2,4-1.5c1.5,0.7,2.2,2.5,1.5,4l-1.7,3.6C11.2,12.7,12.1,15.1,11.4,17.4z M20.6,10.3l1.7-3.6
	c0.7-1.5,0-3.4-1.5-4c-1.5-0.7-3.3,0-4,1.5l-3.6,7.7c-0.1,0.1-0.1,0.2-0.1,0.4c-0.2,0.4-0.4,0.9-0.5,1.3c-0.8,2.9,0.8,5.9,3.6,6.7
	c2.8,0.8,5.7-1,6.5-4C23.3,13.9,22.4,11.6,20.6,10.3z"/>
</svg>
