<?xml version="1.0" encoding="utf-8"?>
<!-- Generator: Adobe Illustrator 21.1.0, SVG Export Plug-In . SVG Version: 6.00 Build 0)  -->
<svg version="1.1" id="Слой_1" xmlns="http://www.w3.org/2000/svg" xmlns:xlink="http://www.w3.org/1999/xlink" x="0px" y="0px"
	 viewBox="0 0 24 24" style="enable-background:new 0 0 24 24;" xml:space="preserve">
<path d="M22.6,21.1l-5.7-5.8c1.1-1.5,1.8-3.4,1.8-5.4C18.6,5,14.7,1,9.9,1C5,1,1.1,5,1.1,9.9c0,4.9,3.9,8.9,8.8,8.9
	c2,0,3.9-0.7,5.3-1.8l5.7,5.8c0.4,0.4,1.2,0.5,1.6,0C23,22.2,23,21.5,22.6,21.1z M3.4,9.9c0-3.6,2.9-6.6,6.5-6.6s6.5,2.9,6.5,6.6
	c0,1.8-0.7,3.5-1.9,4.6c0,0,0,0,0,0c0,0,0,0,0,0c-1.2,1.2-2.8,1.9-4.6,1.9C6.3,16.4,3.4,13.5,3.4,9.9z"/>
</svg>
