<?xml version="1.0" encoding="utf-8"?>
<!-- Generator: Adobe Illustrator 21.1.0, SVG Export Plug-In . SVG Version: 6.00 Build 0)  -->
<svg version="1.1" id="Слой_1" xmlns="http://www.w3.org/2000/svg" xmlns:xlink="http://www.w3.org/1999/xlink" x="0px" y="0px"
	 viewBox="0 0 512 512" style="enable-background:new 0 0 512 512;" xml:space="preserve">
<style type="text/css">
	.st0{fill:#333333;stroke:#000000;stroke-width:2.8253;stroke-miterlimit:10;}
</style>
<path class="st0" d="M293.27,240.553c-8.513-20.553-32.154-30.345-52.707-21.832s-30.345,32.155-21.832,52.707l0,0
	c4.122,9.95,11.882,17.71,21.832,21.832c4.884,2.007,10.309,3.076,15.437,3.091c5.129-0.015,10.554-1.085,15.437-3.091l0,0
	C291.991,284.747,301.783,261.106,293.27,240.553z M275.584,264.117L275.584,264.117c-2.171,5.242-6.241,9.313-11.483,11.484H264.1
	c-10.805,4.477-23.247-0.676-27.724-11.484c-4.477-10.807,0.677-23.248,11.484-27.725l0,0c2.738-1.153,5.275-1.63,8.089-1.615
	c8.342,0,16.259,4.946,19.636,13.099C277.755,253.12,277.755,258.876,275.584,264.117z M479.771,216.319
	c-7.179-9.322-17.621-15.16-30.94-17.678c-0.588-6.317-2.381-13.222-5.31-20.318l0,0c-2.945-7.087-6.56-13.237-10.611-18.12
	c7.637-11.199,10.893-22.711,9.376-34.378c-1.604-12.355-8.494-24.375-20.118-35.997c-11.621-11.623-23.641-18.512-35.996-20.118
	c-11.667-1.516-23.18,1.74-34.379,9.378c-4.882-4.051-11.032-7.665-18.121-10.612c-7.096-2.93-14.003-4.722-20.32-5.31
	c-2.521-13.319-8.36-23.761-17.681-30.939c-9.87-7.601-23.239-11.229-39.673-11.229c-16.436,0-29.807,3.628-39.678,11.229
	c-9.322,7.178-15.161,17.621-17.68,30.94c-6.316,0.589-13.222,2.381-20.317,5.31c-7.088,2.946-13.239,6.561-18.122,10.612
	c-11.2-7.637-22.713-10.893-34.38-9.377c-12.355,1.605-24.374,8.495-35.995,20.117l0,0c-11.615,11.615-18.498,23.63-20.1,35.982
	c-1.513,11.664,1.741,23.178,9.37,34.381c-4.055,4.886-7.674,11.039-10.621,18.133c-2.932,7.102-4.725,14.016-5.311,20.339
	c-13.316,2.532-23.757,8.375-30.935,17.691C24.629,226.221,21,239.578,21,255.998c0,16.421,3.629,29.778,11.231,39.645
	c7.178,9.316,17.62,15.157,30.936,17.69c0.586,6.323,2.379,13.236,5.311,20.339c2.949,7.096,6.57,13.252,10.626,18.138
	c-7.625,11.206-10.879,22.72-9.367,34.383c1.602,12.351,8.481,24.363,20.094,35.975l0,0c13.377,13.377,27.283,20.483,41.579,20.482
	l0,0c9.779-0.001,19.402-3.345,28.789-9.745c4.884,4.053,11.036,7.669,18.127,10.617c7.1,2.931,14.008,4.723,20.328,5.31
	c2.525,13.317,8.363,23.759,17.683,30.937c9.869,7.601,23.233,11.23,39.662,11.23c16.436,0,29.807-3.628,39.678-11.229
	c9.322-7.178,15.161-17.62,17.68-30.94c6.317-0.589,13.222-2.38,20.315-5.31c7.093-2.948,13.247-6.566,18.131-10.62
	c9.388,6.399,19.009,9.744,28.789,9.744c14.297,0,28.201-7.102,41.576-20.477c11.618-11.618,18.505-23.636,20.11-35.99
	c1.514-11.666-1.741-23.179-9.374-34.38c4.052-4.883,7.67-11.034,10.616-18.125c2.928-7.095,4.72-14,5.309-20.316
	c13.319-2.518,23.763-8.358,30.94-17.68c7.601-9.871,11.229-23.242,11.229-39.678C491,239.561,487.372,226.19,479.771,216.319z
	 M273.313,297.794c-11.171,4.627-23.456,4.627-34.625,0c-11.171-4.627-19.857-13.314-24.483-24.483
	c-4.626-11.171-4.627-23.456,0-34.625c4.627-11.171,13.313-19.857,24.483-24.483c5.735-2.394,11.377-3.459,17.249-3.444
	c17.772,0,34.656,10.536,41.861,27.927C307.343,261.729,296.357,288.249,273.313,297.794z M443.409,288.133L443.409,288.133h-0.001
	c-7.114-11.6-19.344-17.552-27.402-20.889c-20.757-8.506-35.185-7.686-48.415-6.855c-12.238,0.769-23.336,1.5-40.706-4.391
	c17.37-5.891,28.468-5.161,40.705-4.391h0.001l0,0c13.228,0.831,27.658,1.651,48.415-6.854c8.058-3.338,20.288-9.29,27.401-20.889
	h0.001c0.759-1.243,1.447-2.571,2.062-3.911c6.198,1.178,11.698,3.454,15.832,7.962c4.668,5.091,8.082,13.56,8.082,28.083
	c0,8.648-0.915,16.852-4.581,23.307c-3.279,5.774-8.993,10.528-19.367,12.663C444.829,290.654,444.153,289.352,443.409,288.133z
	 M299.436,424.98L299.436,424.98h-0.001c-4.387-2.691-8.346-7.898-12.219-17.248c-6.761-16.1-6.042-26.213-5.252-38.789
	c0.798-12.712,1.639-27.539-5.626-49.275c1.769-0.565,3.536-1.196,5.248-1.904l0,0c1.715-0.711,3.406-1.514,5.047-2.364
	c10.234,20.518,21.318,30.394,30.873,38.822c9.451,8.335,17.111,14.977,23.715,31.142c3.678,8.881,5.101,15.982,3.251,21.89
	c-1.799,5.74-7.019,11.305-19.07,16.297C313.356,428.539,305.162,428.492,299.436,424.98z M150.811,377.092
	c-3.337,8.057-7.777,20.915-4.605,34.147l0,0c0.342,1.414,0.795,2.84,1.308,4.224c-5.219,3.552-10.721,5.828-16.833,5.561
	c-6.901-0.3-15.302-3.876-25.566-14.141c-10.178-10.178-13.776-18.557-14.104-25.474c-0.29-6.128,1.96-11.666,5.527-16.924
	c1.383,0.513,2.807,0.965,4.22,1.306l0,0c3.146,0.747,6.451,1.087,9.477,1.091c9.543-0.047,18.538-3.156,24.671-5.696l0,0l0,0
	c20.692-8.663,30.315-19.445,39.082-29.388c8.118-9.205,15.431-17.579,31.914-25.704c-8.125,16.483-16.499,23.795-25.704,31.914
	c-9.941,8.767-20.725,18.389-29.388,39.081L150.811,377.092z M423.552,325.4L423.552,325.4
	c-4.992,12.051-10.556,17.272-16.296,19.07c-5.908,1.85-13.009,0.425-21.89-3.253c-16.166-6.604-22.808-14.264-31.142-23.715
	c-8.43-9.559-18.313-20.649-38.85-30.887c1.689-3.296,3.126-6.768,4.263-10.293c21.756,7.278,36.592,6.438,49.308,5.639
	c12.577-0.788,22.69-1.509,38.791,5.252c9.35,3.873,14.558,7.832,17.247,12.219C428.493,305.16,428.541,313.354,423.552,325.4z
	 M361.189,377.091c-8.663-20.692-19.447-30.315-29.388-39.082c-9.207-8.118-17.58-15.432-25.706-31.915
	c16.484,8.125,23.797,16.5,31.915,25.705c8.767,9.941,18.39,20.725,39.082,29.388c6.133,2.538,15.127,5.648,24.671,5.694
	c3.025-0.004,6.332-0.343,9.476-1.089l0,0c1.414-0.342,2.84-0.794,4.223-1.307c3.557,5.231,5.825,10.745,5.551,16.863
	c-0.309,6.905-3.892,15.3-14.129,25.536c-6.117,6.116-12.564,11.267-19.72,13.239c-6.401,1.762-13.802,1.083-22.65-4.738
	c0.501-1.359,0.943-2.758,1.279-4.146C368.966,398.006,364.526,385.148,361.189,377.091z M284.075,461.304
	c-5.092,4.667-13.561,8.078-28.075,8.078c-8.65,0-16.851-0.916-23.304-4.582c-5.773-3.28-10.526-8.994-12.668-19.365
	c1.316-0.607,2.618-1.284,3.837-2.028c11.6-7.114,17.552-19.344,20.889-27.402c8.506-20.757,7.684-35.185,6.854-48.415
	c-0.768-12.238-1.499-23.337,4.392-40.707c5.891,17.37,5.16,28.47,4.392,40.707c-0.831,13.229-1.651,27.659,6.855,48.415
	c3.337,8.058,9.29,20.289,20.889,27.402c1.242,0.758,2.571,1.447,3.912,2.063C290.868,451.67,288.586,457.17,284.075,461.304z
	 M88.449,325.401V325.4c-4.99-12.045-4.942-20.239-1.431-25.966l0,0c2.691-4.387,7.899-8.346,17.247-12.219l0,0
	c16.101-6.761,26.211-6.042,38.79-5.252l0,0l0,0c12.711,0.797,27.537,1.639,49.274-5.627c0.565,1.769,1.196,3.536,1.903,5.247
	c0.709,1.708,1.511,3.402,2.361,5.05c-20.515,10.234-30.392,21.316-38.817,30.871c-8.336,9.451-14.977,17.111-31.142,23.715l0,0
	c-8.88,3.678-15.982,5.103-21.89,3.253C99.004,342.671,93.44,337.451,88.449,325.401L88.449,325.401z M88.448,186.595
	L88.448,186.595c4.991-12.05,10.555-17.272,16.295-19.069c5.908-1.851,13.009-0.427,21.891,3.253
	c16.167,6.604,22.808,14.264,31.142,23.714c8.425,9.556,18.302,20.638,38.817,30.872c-0.85,1.648-1.652,3.341-2.359,5.049l0,0
	c-0.708,1.712-1.339,3.479-1.904,5.248c-21.736-7.265-36.564-6.424-49.274-5.627l0,0l0,0c-12.577,0.79-22.689,1.51-38.79-5.252l0,0
	c-9.349-3.873-14.557-7.831-17.247-12.218l0,0C83.506,206.836,83.459,198.64,88.448,186.595z M146.205,100.758
	c-3.173,13.232,1.268,26.09,4.605,34.148l0,0l0,0c8.662,20.692,19.446,30.315,29.388,39.082c9.206,8.118,17.58,15.431,25.705,31.914
	c-16.483-8.126-23.797-16.499-31.915-25.705c-8.767-9.941-18.39-20.725-39.082-29.388l-0.459,1.109l0.459-1.109l0,0
	c-8.058-3.338-20.918-7.775-34.147-4.605l0,0c-1.414,0.342-2.839,0.794-4.222,1.307c-3.563-5.246-5.821-10.773-5.538-16.896
	c0.319-6.912,3.911-15.298,14.115-25.502l0,0c6.116-6.116,12.563-11.268,19.719-13.24c6.401-1.764,13.803-1.084,22.649,4.74
	C146.983,97.972,146.541,99.37,146.205,100.758z M227.923,50.693c5.092-4.667,13.561-8.079,28.077-8.079
	c8.65,0,16.851,0.917,23.305,4.583c5.773,3.279,10.526,8.993,12.665,19.366c-1.315,0.607-2.618,1.283-3.836,2.028l0,0
	c-11.6,7.114-17.552,19.344-20.889,27.402c-8.506,20.757-7.686,35.186-6.855,48.416c0.769,12.237,1.5,23.336-4.39,40.706
	c-5.89-17.37-5.159-28.468-4.391-40.706l0,0c0.831-13.229,1.651-27.659-6.854-48.416c-3.338-8.057-9.29-20.288-20.889-27.401v-0.001
	c-1.242-0.759-2.571-1.447-3.912-2.062C221.133,60.326,223.413,54.826,227.923,50.693z M325.401,88.446
	c12.052,4.992,17.272,10.557,19.07,16.297c1.85,5.908,0.425,13.009-3.253,21.89c-6.604,16.167-14.263,22.808-23.715,31.142
	c-9.56,8.43-20.649,18.313-30.887,38.85c-3.296-1.689-6.767-3.126-10.293-4.262c7.278-21.755,6.438-36.591,5.639-49.309l0,0l0,0
	c-0.79-12.577-1.509-22.689,5.252-38.79l0,0c3.873-9.349,7.832-14.557,12.219-17.247l0,0
	C305.162,83.504,313.358,83.457,325.401,88.446z M424.982,212.562c-2.691,4.388-7.898,8.347-17.248,12.22v-0.001
	c-16.1,6.763-26.212,6.043-38.789,5.252h-0.001l0,0c-12.71-0.795-27.539-1.636-49.277,5.629c-0.561-1.764-1.189-3.53-1.899-5.247
	c-0.712-1.715-1.515-3.406-2.365-5.048c20.518-10.235,30.395-21.317,38.822-30.873c8.334-9.451,14.977-17.111,31.142-23.715
	c8.88-3.679,15.98-5.104,21.888-3.253c5.741,1.797,11.305,7.019,16.297,19.069C428.541,198.642,428.495,206.835,424.982,212.562z
	 M415.386,147.482c-1.359-0.501-2.758-0.943-4.146-1.279l0,0c-13.231-3.173-26.091,1.268-34.147,4.605
	c-20.692,8.662-30.315,19.446-39.082,29.388c-8.118,9.207-15.432,17.58-31.915,25.706c8.125-16.484,16.5-23.797,25.705-31.915
	c9.941-8.767,20.725-18.39,29.388-39.082c3.337-8.057,7.777-20.916,4.605-34.148l0,0c-0.342-1.414-0.795-2.84-1.308-4.224
	c5.219-3.551,10.72-5.828,16.833-5.561c6.901,0.301,15.303,3.877,25.566,14.141c6.116,6.116,11.268,12.564,13.241,19.721
	C421.89,131.235,421.211,138.637,415.386,147.482z M186.597,88.446c12.045-4.99,20.239-4.942,25.966-1.43l0,0
	c4.388,2.691,8.347,7.898,12.22,17.247h-0.001c6.763,16.101,6.042,26.213,5.252,38.79l0,0c-0.798,12.713-1.638,27.541,5.629,49.278
	c-1.763,0.56-3.529,1.189-5.247,1.9v-0.001c-1.709,0.709-3.402,1.511-5.05,2.361c-10.234-20.514-21.316-30.391-30.871-38.816
	l0.001-0.001c-9.451-8.335-17.111-14.977-23.715-31.142l0,0c-3.679-8.88-5.103-15.982-3.253-21.89
	C169.326,99.003,174.547,93.438,186.597,88.446L186.597,88.446z M212.566,424.98h-0.001c-5.727,3.511-13.923,3.559-25.966-1.43
	c-12.052-4.992-17.272-10.557-19.07-16.297c-1.85-5.908-0.427-13.009,3.253-21.89c6.604-16.167,14.263-22.808,23.714-31.142
	c9.556-8.425,20.638-18.302,30.872-38.817c1.648,0.851,3.342,1.652,5.05,2.36c1.711,0.708,3.477,1.339,5.247,1.904
	c-7.265,21.736-6.426,36.563-5.627,49.275c0.79,12.576,1.509,22.689-5.252,38.789C220.911,417.082,216.953,422.29,212.566,424.98
	L212.566,424.98z M95.994,244.752c20.757,8.506,35.187,7.684,48.416,6.854l0,0l0,0c12.236-0.769,23.334-1.499,40.705,4.392
	c-17.37,5.89-28.468,5.16-40.705,4.391l0,0c-13.231-0.831-27.659-1.652-48.416,6.854c-8.058,3.337-20.289,9.29-27.402,20.889l0,0
	c-0.758,1.241-1.446,2.569-2.061,3.909c-6.243-1.197-11.75-3.525-15.877-8.065c-4.659-5.125-8.037-13.594-8.037-27.978
	s3.378-22.854,8.037-27.979c4.127-4.539,9.635-6.868,15.877-8.065c0.615,1.34,1.303,2.668,2.061,3.909l0,0
	C75.705,235.463,87.936,241.415,95.994,244.752z"/>
</svg>
