<?xml version="1.0" encoding="utf-8"?>
<!-- Generator: Adobe Illustrator 21.1.0, SVG Export Plug-In . SVG Version: 6.00 Build 0)  -->
<svg version="1.1" id="Слой_1" xmlns="http://www.w3.org/2000/svg" xmlns:xlink="http://www.w3.org/1999/xlink" x="0px" y="0px"
	 viewBox="0 0 24 24" style="enable-background:new 0 0 24 24;" xml:space="preserve">
<style type="text/css">
	.st0{fill:url(#SVGID_1_);}
</style>
<linearGradient id="SVGID_1_" gradientUnits="userSpaceOnUse" x1="2.7631" y1="1.7413" x2="28.258" y2="30.0563">
	<stop  offset="0" style="stop-color:#E35C67"/>
	<stop  offset="1" style="stop-color:#381CE2"/>
</linearGradient>
<path class="st0" d="M23,12c0,6.1-4.9,11-11,11S1,18.1,1,12S5.9,1,12,1S23,5.9,23,12z M14.1,11l2.3,0.6l0,0c0,0,0,0,0.1,0
	c0.1,0,0.2-0.1,0.2-0.2l0,0c0,0,0,0,0,0c0,0,0,0,0,0l0,0c0-0.1,0-0.3-0.2-0.3l0,0l0,0.1l0,0l0-0.1l-1.8-0.5l1.7-1l0-0.1l0,0l0,0.1
	l0,0c0.1-0.1,0.2-0.2,0.1-0.3l-0.1,0l0,0l0.1,0l0,0c-0.1-0.1-0.2-0.2-0.3-0.1l0,0l-1.7,1L15,8.5l0,0l-0.1,0l0,0l0.1,0
	c0-0.1,0-0.3-0.2-0.3l0,0.1l0,0l0-0.1l0,0c-0.1,0-0.3,0-0.3,0.2l0.1,0l0,0l-0.1,0l0,0l-0.6,2.3l-1.7,1V9.7L13.9,8v0l0,0l0,0l0,0
	c0.1-0.1,0.1-0.2,0-0.3l0,0c0,0,0,0,0,0v0l0,0c-0.1-0.1-0.2-0.1-0.3,0L12.2,9V7v0c0-0.1-0.1-0.2-0.2-0.2S11.8,6.9,11.8,7v2l-1.3-1.3
	l0,0c-0.1-0.1-0.2-0.1-0.3,0l0,0C10,7.8,10,7.9,10.1,8l1.7,1.7v1.9l-1.7-1L9.5,8.4l-0.1,0l0,0l0,0l0.1,0c0-0.1-0.2-0.2-0.3-0.2
	l0,0.1l0,0l0-0.1l0,0C9.1,8.2,9,8.4,9,8.5l0.1,0l0,0L9,8.5l0,0l0.5,1.8l-1.7-1h0c-0.1-0.1-0.3,0-0.3,0.1l0,0v0l0,0h0
	c-0.1,0.1,0,0.3,0.1,0.3l0-0.1l0,0l0,0.1l1.7,1l-1.8,0.5v0l0,0l0,0l0,0c-0.1,0-0.2,0.2-0.2,0.3l0,0c0,0,0,0,0,0s0,0,0,0h0
	c0,0.1,0.1,0.2,0.2,0.2c0,0,0,0,0.1,0l0,0L9.9,11l1.7,1l-1.7,1l-2.3-0.6l0,0l0,0.1l0,0l0-0.1c-0.1,0-0.3,0-0.3,0.2h0c0,0,0,0,0,0
	s0,0,0,0h0c0,0.1,0,0.3,0.2,0.3l0,0l0-0.1l0,0l0,0l0,0.1l1.8,0.5l-1.7,1l0,0.1l0,0l0-0.1l0,0c-0.1,0.1-0.2,0.2-0.1,0.3l0,0l0.1,0
	l0,0l-0.1,0c0,0.1,0.1,0.1,0.2,0.1c0,0,0.1,0,0.1,0l0,0l1.7-1L9,15.5l0,0l0.1,0l0,0l-0.1,0c0,0.1,0,0.3,0.2,0.3l0,0c0,0,0,0,0,0
	c0,0,0,0,0,0l0,0c0,0,0,0,0.1,0c0.1,0,0.2-0.1,0.2-0.2v0l-0.1,0l0,0l0.1,0l0.6-2.3l1.7-1v1.9L10.1,16v0l0,0l0,0l0,0
	c-0.1,0.1-0.1,0.2,0,0.3l0,0c0.1,0.1,0.2,0.1,0.3,0l-0.1-0.1l0,0l0,0l0.1,0.1l0,0l1.3-1.3v2c0,0.1,0.1,0.2,0.2,0.2
	c0.1,0,0.2-0.1,0.2-0.2v-2l1.3,1.3l0,0c0,0,0.1,0.1,0.2,0.1c0.1,0,0.1,0,0.2-0.1l-0.1-0.1l0,0l0.1,0.1l0,0c0.1-0.1,0.1-0.2,0-0.3
	l0,0l-1.7-1.7v-1.9l1.7,1l0.6,2.3h0c0,0.1,0.1,0.2,0.2,0.2c0,0,0,0,0.1,0l0,0c0,0,0,0,0,0c0,0,0,0,0,0l0,0c0.1,0,0.2-0.2,0.2-0.3
	l-0.1,0l0,0l0.1,0l0,0l-0.5-1.8l1.7,1l0,0h0l0,0l0,0c0,0,0.1,0,0.1,0c0.1,0,0.2,0,0.2-0.1l0,0l-0.1,0l0,0l0,0l0.1,0
	c0.1-0.1,0-0.3-0.1-0.3l0,0.1v0l0,0l0-0.1l0,0l-1.7-1l1.8-0.5l0,0c0.1,0,0.2-0.2,0.2-0.3l0,0c0,0,0,0,0,0c0,0,0,0,0,0l0,0
	c0-0.1-0.2-0.2-0.3-0.2L14.1,13l-1.7-1L14.1,11z M9.7,10.5L9.7,10.5L9.7,10.5L9.7,10.5z M9.7,13.5L9.7,13.5L9.7,13.5L9.7,13.5z
	 M10,13.3L10,13.3L10,13.3L10,13.3z M14,13.3L14,13.3L14,13.3L14,13.3z M14.5,13.3L14.5,13.3L14.5,13.3L14.5,13.3z M16.6,11.5
	L16.6,11.5L16.6,11.5L16.6,11.5z M13.8,7.9L13.8,7.9L13.8,7.9L13.8,7.9L13.8,7.9z M13.8,7.7L13.8,7.7L13.8,7.7L13.8,7.7z M7.5,9.4
	L7.5,9.4L7.5,9.4L7.5,9.4z M7.4,11.5L7.4,11.5L7.4,11.5L7.4,11.5z M7.6,11.6L7.6,11.6L7.6,11.6L7.6,11.6z M7.4,12.5L7.4,12.5
	L7.4,12.5L7.4,12.5z M10.2,16.1L10.2,16.1L10.2,16.1L10.2,16.1z M14.8,15.7L14.8,15.7L14.8,15.7L14.8,15.7z M16.3,14.6L16.3,14.6
	L16.3,14.6L16.3,14.6z"/>
</svg>
