<?xml version="1.0" encoding="utf-8"?>
<!-- Generator: Adobe Illustrator 21.1.0, SVG Export Plug-In . SVG Version: 6.00 Build 0)  -->
<svg version="1.1" id="Слой_1" xmlns="http://www.w3.org/2000/svg" xmlns:xlink="http://www.w3.org/1999/xlink" x="0px" y="0px"
	 viewBox="0 0 24 24" style="enable-background:new 0 0 24 24;" xml:space="preserve">
<path d="M12,1C7.9,1,4.6,4.3,4.6,8.3c0,1.1,0.5,2.5,1.1,4c0.7,1.5,1.5,3.2,2.4,4.7c0.9,1.5,1.7,3,2.4,4c0.3,0.5,0.6,0.9,0.8,1.2
	c0.1,0.1,0.2,0.3,0.2,0.3c0,0,0,0.1,0.1,0.1c0,0,0,0,0,0c0,0,0,0,0,0c0,0,0,0,0,0c0,0,0,0,0,0c0,0,0,0,0.1-0.1l-0.1,0.1
	c0.1,0.1,0.2,0.2,0.4,0.2c0.2,0,0.3-0.1,0.4-0.2l-0.1-0.1c0.1,0.1,0.1,0.1,0.1,0.1c0,0,0,0,0,0c0,0,0,0,0,0c0,0,0,0,0,0c0,0,0,0,0,0
	c0,0,0,0,0.1-0.1c0.1-0.1,0.1-0.2,0.2-0.3c0.2-0.3,0.5-0.7,0.8-1.2c0.6-1,1.5-2.5,2.4-4c0.9-1.5,1.7-3.2,2.4-4.7
	c0.6-1.5,1.1-3,1.1-4C19.4,4.3,16.1,1,12,1z M17.4,12c-0.6,1.5-1.5,3.1-2.4,4.7c-0.9,1.5-1.7,2.9-2.4,4c-0.3,0.4-0.5,0.8-0.7,1.1
	c-0.2-0.3-0.4-0.6-0.7-1.1c-0.6-1-1.5-2.4-2.4-4c-0.9-1.5-1.7-3.2-2.4-4.7c-0.6-1.5-1-2.8-1-3.6c0-3.5,2.9-6.4,6.4-6.4
	c3.6,0,6.4,2.9,6.4,6.4C18.4,9.2,18.1,10.5,17.4,12z M12,5.1c-1.8,0-3.2,1.4-3.2,3.2c0,1.8,1.4,3.2,3.2,3.2c1.8,0,3.2-1.4,3.2-3.2
	C15.2,6.6,13.8,5.1,12,5.1z M12,10.6c-1.3,0-2.3-1-2.3-2.3c0-1.3,1-2.3,2.3-2.3c1.3,0,2.3,1,2.3,2.3C14.3,9.6,13.3,10.6,12,10.6z"/>
</svg>
