<svg width="20" height="20" viewBox="0 0 20 20" version="1.1" xmlns="http://www.w3.org/2000/svg" xmlns:xlink="http://www.w3.org/1999/xlink">
<title>phone</title>
<desc>Created using Figma</desc>
<g id="Canvas" transform="translate(8711 -3516)">
<g id="phone">
<g id="Stroke 481">
<use xlink:href="#path0_stroke" transform="translate(-8709.54 3519.81)"/>
</g>
<g id="Stroke 482">
<use xlink:href="#path1_stroke" transform="translate(-8700.54 3516.7)"/>
</g>
<g id="Stroke 483">
<use xlink:href="#path2_stroke" transform="translate(-8700.54 3519.83)"/>
</g>
<g id="Stroke 484">
<use xlink:href="#path3_stroke" transform="translate(-8700.54 3522.96)"/>
</g>
</g>
</g>
<defs>
<path id="path0_stroke" d="M 5.47156 2.11801L 5.82558 1.76493L 5.82505 1.76439L 5.47156 2.11801ZM 3.81084 0.457884L 3.45727 0.811417L 3.45735 0.811501L 3.81084 0.457884ZM 1.5976 0.457884L 1.95117 0.811417L 1.5976 0.457884ZM 0.686629 1.36896L 0.333055 1.01542L 0.686629 1.36896ZM 0.390799 4.3229L 0.807865 4.04711L 0.80786 4.04711L 0.390799 4.3229ZM 10.5648 14.4981L 10.289 14.9151L 10.2892 14.9152L 10.5648 14.4981ZM 13.5177 14.2015L 13.1642 13.8478L 13.1637 13.8483L 13.5177 14.2015ZM 14.4294 13.2904L 14.0761 12.9366L 14.076 12.9367L 14.4294 13.2904ZM 14.4294 11.0769L 14.7832 10.7236L 14.7828 10.7232L 14.4294 11.0769ZM 12.7687 9.41754L 12.4149 9.77085L 12.4153 9.77124L 12.7687 9.41754ZM 10.5554 9.41754L 10.9088 9.77133L 10.9092 9.77085L 10.5554 9.41754ZM 10.0021 9.97014L 9.6852 10.3569C 9.8839 10.5197 10.1737 10.5055 10.3555 10.3239L 10.0021 9.97014ZM 4.91824 4.88566L 4.56467 4.53213C 4.38299 4.71383 4.36861 5.00365 4.5314 5.20245L 4.91824 4.88566ZM 5.82536 4.6856C 6.63086 3.87897 6.63053 2.57203 5.82558 1.76493L 5.11753 2.47109C 5.53346 2.88814 5.53314 3.56302 5.11776 3.97898L 5.82536 4.6856ZM 5.82505 1.76439L 4.16433 0.104268L 3.45735 0.811501L 5.11807 2.47162L 5.82505 1.76439ZM 4.16441 0.104351C 3.35871 -0.70145 2.04973 -0.70145 1.24402 0.104351L 1.95117 0.811417C 2.36635 0.396194 3.04209 0.396194 3.45727 0.811417L 4.16441 0.104351ZM 1.24402 0.104351L 0.333055 1.01542L 1.0402 1.72249L 1.95117 0.811417L 1.24402 0.104351ZM 0.333055 1.01542C -0.625263 1.97385 -0.772753 3.46981 -0.0262623 4.59869L 0.80786 4.04711C 0.32251 3.31314 0.419197 2.34357 1.0402 1.72249L 0.333055 1.01542ZM -0.0262673 4.59868C 2.64877 8.63957 6.24778 12.239 10.289 14.9151L 10.8407 14.0811C 6.8804 11.4645 3.42332 8.00706 0.807865 4.04711L -0.0262673 4.59868ZM 10.2892 14.9152C 11.4161 15.66 12.9153 15.5129 13.8716 14.5546L 13.1637 13.8483C 12.5453 14.468 11.573 14.565 10.8405 14.081L 10.2892 14.9152ZM 13.8711 14.5551L 14.7828 13.6441L 14.076 12.9367L 13.1642 13.8478L 13.8711 14.5551ZM 14.7828 13.6441C 15.5898 12.8381 15.5891 11.5306 14.7832 10.7236L 14.0756 11.4302C 14.4921 11.8473 14.4915 12.5217 14.0761 12.9366L 14.7828 13.6441ZM 14.7828 10.7232L 13.1221 9.06384L 12.4153 9.77124L 14.076 11.4306L 14.7828 10.7232ZM 13.1225 9.06424C 12.3159 8.25657 11.0082 8.25657 10.2016 9.06424L 10.9092 9.77085C 11.3252 9.35436 11.999 9.35436 12.4149 9.77085L 13.1225 9.06424ZM 10.2021 9.06376L 9.64881 9.61635L 10.3555 10.3239L 10.9088 9.77133L 10.2021 9.06376ZM 10.3191 9.58341C 8.51738 8.10768 6.77976 6.37063 5.30509 4.56888L 4.5314 5.20245C 6.03851 7.04186 7.84614 8.84891 9.6852 10.3569L 10.3191 9.58341ZM 5.27182 5.2392L 5.82513 4.68582L 5.11798 3.97876L 4.56467 4.53213L 5.27182 5.2392Z"/>
<path id="path1_stroke" d="M 0 -0.5C -0.276142 -0.5 -0.5 -0.276142 -0.5 0C -0.5 0.276142 -0.276142 0.5 0 0.5L 0 -0.5ZM 8.50011 9.00114C 8.50011 9.27729 8.72397 9.50114 9.00011 9.50114C 9.27625 9.50114 9.50011 9.27729 9.50011 9.00114L 8.50011 9.00114ZM 0 0.5C 4.695 0.5 8.50011 4.30547 8.50011 9.00114L 9.50011 9.00114C 9.50011 3.75329 5.24739 -0.5 0 -0.5L 0 0.5Z"/>
<path id="path2_stroke" d="M 0 -0.5C -0.276142 -0.5 -0.5 -0.276142 -0.5 0C -0.5 0.276142 -0.276142 0.5 0 0.5L 0 -0.5ZM 5.36964 5.87031C 5.36964 6.14645 5.59349 6.37031 5.86964 6.37031C 6.14578 6.37031 6.36964 6.14645 6.36964 5.87031L 5.36964 5.87031ZM 0 0.5C 2.96541 0.5 5.36964 2.90442 5.36964 5.87031L 6.36964 5.87031C 6.36964 2.35225 3.5178 -0.5 0 -0.5L 0 0.5Z"/>
<path id="path3_stroke" d="M 0 -0.5C -0.276142 -0.5 -0.5 -0.276142 -0.5 0C -0.5 0.276142 -0.276142 0.5 0 0.5L 0 -0.5ZM 2.23916 2.73948C 2.23916 3.01562 2.46302 3.23948 2.73916 3.23948C 3.01531 3.23948 3.23916 3.01562 3.23916 2.73948L 2.23916 2.73948ZM 0 0.5C 1.2367 0.5 2.23916 1.5019 2.23916 2.73948L 3.23916 2.73948C 3.23916 0.94954 1.7889 -0.5 0 -0.5L 0 0.5Z"/>
</defs>
</svg>
