<?xml version="1.0" encoding="utf-8"?>
<!-- Generator: Adobe Illustrator 21.1.0, SVG Export Plug-In . SVG Version: 6.00 Build 0)  -->
<svg version="1.1" id="Слой_1" xmlns="http://www.w3.org/2000/svg" xmlns:xlink="http://www.w3.org/1999/xlink" x="0px" y="0px"
	 viewBox="0 0 24 24" style="enable-background:new 0 0 24 24;" xml:space="preserve">
<style type="text/css">
	.st0{fill:url(#path1_fill_1_);}
	.st1{fill:#FFFFFF;}
</style>
<linearGradient id="path1_fill_1_" gradientUnits="userSpaceOnUse" x1="0.7316" y1="25.2791" x2="0.9149" y2="25.2791" gradientTransform="matrix(139.388 155.832 139.658 -155.531 -3629.6604 3819.3352)">
	<stop  offset="0" style="stop-color:#E35C67"/>
	<stop  offset="1" style="stop-color:#381CE2"/>
</linearGradient>
<path id="path1_fill_3_" class="st0" d="M23,12c0,6.1-4.9,11-11,11S1,18.1,1,12S5.9,1,12,1S23,5.9,23,12z"/>
<path class="st1" d="M12,10.2c-1,0-2,0.4-2.7,1.1C8.5,12,8.1,13,8.1,14s0.4,2,1.1,2.7s1.7,1.1,2.7,1.1c1,0,2-0.4,2.7-1.1
	c0.7-0.7,1.1-1.7,1.1-2.7s-0.4-2-1.1-2.7S13,10.2,12,10.2z M12,10.7c0.8,0,1.5,0.3,2.1,0.8l-2.3,2.3c-0.1,0.1-0.1,0.3,0,0.4
	c0.1,0.1,0.1,0.1,0.2,0.1c0.1,0,0.1,0,0.2-0.1l2.3-2.3c0.5,0.6,0.8,1.3,0.8,2.1c0,0.9-0.3,1.7-1,2.3c-0.6,0.6-1.5,1-2.3,1
	c-0.9,0-1.7-0.3-2.3-1c-0.6-0.6-1-1.5-1-2.3s0.3-1.7,1-2.3C10.3,11.1,11.1,10.7,12,10.7z M11.7,7.7V6.4c0-0.1,0.1-0.3,0.3-0.3
	c0.1,0,0.3,0.1,0.3,0.3v1.3C12.3,7.9,12.1,8,12,8C11.9,8,11.7,7.9,11.7,7.7z M17.7,8.8l-1,1c-0.1,0.1-0.1,0.1-0.2,0.1
	s-0.1,0-0.2-0.1c-0.1-0.1-0.1-0.3,0-0.4l1-1c0.1-0.1,0.3-0.1,0.4,0S17.8,8.7,17.7,8.8z M7.6,9.4c0.1,0.1,0.1,0.3,0,0.4
	C7.5,9.8,7.5,9.8,7.4,9.8c-0.1,0-0.1,0-0.2-0.1l-1-1c-0.1-0.1-0.1-0.3,0-0.4s0.3-0.1,0.4,0L7.6,9.4z M13.4,7.9L13.4,7.9l0.3-1.3l0,0
	v0l0,0l0,0h0c0-0.1,0.2-0.2,0.3-0.2h0l0,0l0,0l0,0l0,0c0.1,0,0.2,0.2,0.2,0.3L13.9,8l0,0l0,0l0,0l0,0c0,0.1-0.1,0.2-0.3,0.2
	c0,0,0,0-0.1,0h0C13.5,8.2,13.4,8,13.4,7.9z M10.1,8L9.7,6.7c0-0.1,0-0.3,0.2-0.3c0.1,0,0.3,0,0.3,0.2l0.3,1.3c0,0.1,0,0.3-0.2,0.3
	l0,0l0,0l0,0l0,0c0,0,0,0-0.1,0C10.2,8.2,10.1,8.1,10.1,8L10.1,8z M16.1,7.2L16.1,7.2c-0.1-0.1-0.3,0-0.4,0.1v0l0,0l0,0l0,0L15,8.5
	v0l0,0l0,0l0,0c-0.1,0.1,0,0.3,0.1,0.4l0,0l0,0l0,0v0c0,0,0.1,0,0.1,0c0.1,0,0.2,0,0.2-0.1l0.7-1.2h0C16.2,7.4,16.2,7.3,16.1,7.2z
	 M16.1,7.5L16.1,7.5L16.1,7.5L16.1,7.5z M15.1,8.8L15.1,8.8L15.1,8.8L15.1,8.8z M8.5,8.7L8.5,8.7c0.1,0.1,0.1,0.1,0.2,0.1
	c0,0,0.1,0,0.1,0v0C9,8.8,9.1,8.6,9,8.5l0,0L8.3,7.3C8.2,7.2,8.1,7.1,7.9,7.2l0,0l0,0l0,0l0,0C7.8,7.3,7.8,7.4,7.8,7.6h0L8.5,8.7z
	 M8.9,8.8L8.9,8.8L8.9,8.8L8.9,8.8L8.9,8.8z M8.9,8.5L8.9,8.5L8.9,8.5L8.9,8.5z"/>
</svg>
