<?xml version="1.0" encoding="utf-8"?>
<!-- Generator: Adobe Illustrator 21.1.0, SVG Export Plug-In . SVG Version: 6.00 Build 0)  -->
<svg version="1.1" id="Слой_1" xmlns="http://www.w3.org/2000/svg" xmlns:xlink="http://www.w3.org/1999/xlink" x="0px" y="0px"
	 viewBox="0 0 20 20" style="enable-background:new 0 0 20 20;" xml:space="preserve">
<style type="text/css">
	.st0{fill:#BBB7C1;}
</style>
<path class="st0" d="M19,4.4c-0.7,0.3-1.4,0.5-2.1,0.6c0.8-0.5,1.3-1.2,1.6-2c-0.7,0.4-1.5,0.7-2.3,0.9c-1.4-1.5-3.7-1.6-5.2-0.2
	c-0.7,0.7-1.2,1.7-1.2,2.7c0,0.3,0,0.6,0.1,0.8c-3-0.1-5.7-1.5-7.6-3.9c-1,1.7-0.5,3.8,1.1,4.9c-0.6,0-1.2-0.2-1.7-0.5v0
	c0,1.8,1.2,3.3,3,3.6c-0.5,0.1-1.1,0.2-1.7,0.1c0.5,1.5,1.9,2.5,3.4,2.6C4.9,15.3,3,15.9,1,15.6c4.9,3.1,11.4,1.7,14.5-3.2
	c1.1-1.7,1.7-3.6,1.7-5.6c0-0.2,0-0.3,0-0.5C17.9,5.8,18.5,5.2,19,4.4L19,4.4z"/>
</svg>
