<svg xmlns="http://www.w3.org/2000/svg" width="18" height="18.032" viewBox="0 0 18 18.032">
  <metadata><?xpacket begin="﻿" id="W5M0MpCehiHzreSzNTczkc9d"?>
<x:xmpmeta xmlns:x="adobe:ns:meta/" x:xmptk="Adobe XMP Core 5.6-c138 79.159824, 2016/09/14-01:09:01        ">
   <rdf:RDF xmlns:rdf="http://www.w3.org/1999/02/22-rdf-syntax-ns#">
      <rdf:Description rdf:about=""/>
   </rdf:RDF>
</x:xmpmeta>
                                                                                                    
                                                                                                    
                                                                                                    
                                                                                                    
                                                                                                    
                                                                                                    
                                                                                                    
                                                                                                    
                                                                                                    
                                                                                                    
                                                                                                    
                                                                                                    
                                                                                                    
                                                                                                    
                                                                                                    
                                                                                                    
                                                                                                    
                                                                                                    
                                                                                                    
                                                                                                    
                           
<?xpacket end="w"?></metadata>
<defs>
    <style>
      .cls-1 {
        fill: #3b3c46;
        fill-rule: evenodd;
      }
    </style>
  </defs>
  <path id="icon" class="cls-1" d="M730.5,291.294a2.531,2.531,0,1,0,2.529,2.53A2.534,2.534,0,0,0,730.5,291.294Zm0-4.129a8.993,8.993,0,0,0-7.5,13.966,6.3,6.3,0,0,1,4.061-2.342,1.482,1.482,0,0,1,1.074.276,4.105,4.105,0,0,0,4.79,0,1.483,1.483,0,0,1,1.074-.276,6.3,6.3,0,0,1,4.032,2.3A8.993,8.993,0,0,0,730.5,287.165Zm0,11.064a4.405,4.405,0,1,1,4.4-4.4A4.4,4.4,0,0,1,730.5,298.229Zm-6.032,4.605c0.022-.034.034-0.072,0.058-0.106a4,4,0,0,1,2.532-1.735,6.321,6.321,0,0,0,6.883,0,4.069,4.069,0,0,1,2.533,1.735c0.024,0.034.035,0.071,0.057,0.106A8.926,8.926,0,0,1,724.47,302.834Z" transform="translate(-721.5 -287.156)"/>
</svg>
