<svg xmlns="http://www.w3.org/2000/svg" width="19.5" height="19.5" viewBox="0 0 19.5 19.5">
  <metadata><?xpacket begin="﻿" id="W5M0MpCehiHzreSzNTczkc9d"?>
<x:xmpmeta xmlns:x="adobe:ns:meta/" x:xmptk="Adobe XMP Core 5.6-c138 79.159824, 2016/09/14-01:09:01        ">
   <rdf:RDF xmlns:rdf="http://www.w3.org/1999/02/22-rdf-syntax-ns#">
      <rdf:Description rdf:about=""/>
   </rdf:RDF>
</x:xmpmeta>
                                                                                                    
                                                                                                    
                                                                                                    
                                                                                                    
                                                                                                    
                                                                                                    
                                                                                                    
                                                                                                    
                                                                                                    
                                                                                                    
                                                                                                    
                                                                                                    
                                                                                                    
                                                                                                    
                                                                                                    
                                                                                                    
                                                                                                    
                                                                                                    
                                                                                                    
                                                                                                    
                           
<?xpacket end="w"?></metadata>
<defs>
    <style>
      .cls-1 {
        fill: #8881ab;
        fill-rule: evenodd;
      }
    </style>
  </defs>
  <path class="cls-1" d="M1341.62,64.436a2.738,2.738,0,1,0,2.74,2.738A2.745,2.745,0,0,0,1341.62,64.436Zm0-4.466a9.768,9.768,0,0,0-9.75,9.745,9.622,9.622,0,0,0,1.63,5.365,6.813,6.813,0,0,1,4.39-2.534,1.622,1.622,0,0,1,1.17.3,4.437,4.437,0,0,0,5.18,0,1.609,1.609,0,0,1,1.16-.3,6.827,6.827,0,0,1,4.37,2.49A9.734,9.734,0,0,0,1341.62,59.97Zm0,11.97a4.766,4.766,0,1,1,4.76-4.766A4.761,4.761,0,0,1,1341.62,71.939Zm-6.53,4.981c0.02-.036.04-0.077,0.06-0.114a4.343,4.343,0,0,1,2.74-1.877,6.844,6.844,0,0,0,7.45,0,4.415,4.415,0,0,1,2.75,1.877,0.656,0.656,0,0,0,.06.114A9.668,9.668,0,0,1,1335.09,76.921Z" transform="translate(-1331.88 -59.969)"/>
</svg>
