<?xml version="1.0" encoding="utf-8"?>
<!-- Generator: Adobe Illustrator 21.1.0, SVG Export Plug-In . SVG Version: 6.00 Build 0)  -->
<svg version="1.1" id="Слой_1" xmlns="http://www.w3.org/2000/svg" xmlns:xlink="http://www.w3.org/1999/xlink" x="0px" y="0px"
	 viewBox="0 0 24 24" style="enable-background:new 0 0 24 24;" xml:space="preserve">
<style type="text/css">
	.st0{fill:url(#path1_fill_1_);}
	.st1{fill:#FFFFFF;}
</style>
<linearGradient id="path1_fill_1_" gradientUnits="userSpaceOnUse" x1="0.7316" y1="25.2791" x2="0.9149" y2="25.2791" gradientTransform="matrix(139.388 155.832 139.658 -155.531 -3629.6604 3819.3352)">
	<stop  offset="0" style="stop-color:#E35C67"/>
	<stop  offset="1" style="stop-color:#381CE2"/>
</linearGradient>
<path id="path1_fill_3_" class="st0" d="M23,12c0,6.1-4.9,11-11,11S1,18.1,1,12S5.9,1,12,1S23,5.9,23,12z"/>
<path class="st1" d="M12,15.4c-0.3,0-0.5,0.2-0.5,0.5c0,0.3,0.2,0.5,0.5,0.5s0.5-0.2,0.5-0.5C12.5,15.7,12.3,15.4,12,15.4z M12,16.1
	c-0.1,0-0.1-0.1-0.1-0.1s0.1-0.1,0.1-0.1s0.1,0.1,0.1,0.1S12.1,16.1,12,16.1z M11.8,7.9c0-0.1,0.1-0.2,0.2-0.2s0.2,0.1,0.2,0.2
	S12.1,8.2,12,8.2S11.8,8.1,11.8,7.9z M10.2,9.9c0-0.1,0.1-0.2,0.2-0.2h3.1c0.1,0,0.2,0.1,0.2,0.2s-0.1,0.2-0.2,0.2h-3.1
	C10.3,10.1,10.2,10,10.2,9.9z M13.8,11.1c0,0.1-0.1,0.2-0.2,0.2h-3.1c-0.1,0-0.2-0.1-0.2-0.2c0-0.1,0.1-0.2,0.2-0.2h3.1
	C13.7,10.9,13.8,11,13.8,11.1z M13.8,12c0,0.1-0.1,0.2-0.2,0.2h-3.1c-0.1,0-0.2-0.1-0.2-0.2c0-0.1,0.1-0.2,0.2-0.2h3.1
	C13.7,11.8,13.8,11.9,13.8,12z M13.8,12.9c0,0.1-0.1,0.2-0.2,0.2h-3.1c-0.1,0-0.2-0.1-0.2-0.2c0-0.1,0.1-0.2,0.2-0.2h3.1
	C13.7,12.7,13.8,12.8,13.8,12.9z M12.2,13.8c0,0.1-0.1,0.2-0.2,0.2h-1.5c-0.1,0-0.2-0.1-0.2-0.2c0-0.1,0.1-0.2,0.2-0.2H12
	C12.1,13.6,12.2,13.7,12.2,13.8z M14.4,6.8H9.6C9,6.8,8.5,7.3,8.5,7.9v8.2c0,0.6,0.5,1.1,1.1,1.1h4.9c0.6,0,1.1-0.5,1.1-1.1V7.9
	C15.5,7.3,15,6.8,14.4,6.8z M15.1,16.1c0,0.4-0.3,0.7-0.7,0.7H9.6c-0.4,0-0.7-0.3-0.7-0.7V7.9c0-0.4,0.3-0.7,0.7-0.7h4.9
	c0.4,0,0.7,0.3,0.7,0.7V16.1z M14.7,8.8H9.3C9.2,8.8,9.1,8.9,9.1,9v6c0,0.1,0.1,0.2,0.2,0.2h5.3c0.1,0,0.2-0.1,0.2-0.2V9
	C14.9,8.9,14.8,8.8,14.7,8.8z M9.6,9.2h4.9v5.5H9.6V9.2z"/>
</svg>
