<svg id="Слой_1" xmlns="http://www.w3.org/2000/svg" viewBox="0 0 512 512"><style>.st0{fill:#333;stroke:#000;stroke-width:3;stroke-miterlimit:10}</style><path class="st0" d="M258.148 58.452l-5.582 3.36 5.583-3.359zM352.551 166.616l-1.013 7.147h-.001l.005.001 1.06-7.509z"/><path class="st0" d="M485.173 98.644c-8.897-12.971-29.329-30.063-50.578-44.188-21.169-14.07-45.254-26.607-62.046-28.988h-.001c-2.699-.377-5.902-.586-8.989-.59-22.121 0-51.66 9.47-71.609 17.961-10.554 4.492-22.986 10.499-32.697 17.452l-1.103-1.838h-.001l.001.001-6.577 3.956.993-.598-.992.597 6.575-3.958c-4.242-7.046-13.29-9.481-20.496-5.522l-.002.001c-7.207 3.962-9.995 12.909-6.322 20.263l6.866-3.429-.697.349-6.169 3.08.002.003c5.544 11.087 7.875 29.711 5.986 54.754-1.872 24.984-7.758 54.717-17.656 87.76-7.6 25.421-16.39 48.684-24.845 67.591-6.28 14.049-12.16 25.173-16.94 32.602-16.545-13.402-37.617-21.456-60.536-21.456C64.21 294.445 21 337.659 21 390.785c0 53.126 43.21 96.336 96.336 96.336s96.337-43.208 96.337-96.336c-.096-18.524-5.761-36.678-14.985-51.45 8.353-10.974 17.059-27.592 25.133-45.953 9.388-21.357 18.373-46.164 25.178-68.893 6.803-22.741 15.291-56.083 18.465-88.528 14.827 27.666 24.357 49.599 30.494 71.367 7.388 25.99 9.79 51.255 10.197 85.562-40.511 11.379-70.314 48.617-70.314 92.739 0 53.126 43.209 96.336 96.335 96.336 53.127 0 96.335-43.211 96.335-96.336 0-51.602-40.765-93.848-91.789-96.229-.902-51.595-6.893-86.964-26.44-131.421 1.404.827 2.827 1.646 4.266 2.449 10.879 6.059 23.42 11.695 34.989 13.335l1.014-7.147.064-.451-.013.09.013-.09-1.073 7.599c2.69.375 5.909.585 9.049.589 22.241 0 53.755-9.294 75.454-17.632l-2.202-5.731 2.038 5.303.164.427c12.773-4.914 24.373-10.287 33.052-15.317 10.985-6.38 19.288-13.151 21.397-22.245l.002-.005-7.298-1.688-.179-.042 7.478 1.73c1.669-7.219-.988-14.189-5.324-20.509zM117.336 456.496c-36.226 0-65.711-29.485-65.711-65.711s29.486-65.714 65.711-65.714c36.226 0 65.711 29.488 65.711 65.714s-29.485 65.711-65.711 65.711zm216.839-136.581c36.226 0 65.709 29.485 65.709 65.711 0 36.227-29.484 65.714-65.709 65.714-36.226 0-65.714-29.488-65.714-65.714s29.488-65.711 65.714-65.711zm117.728-203.953c-6.643 3.702-15.989 8.121-29.119 13.039l2.694 7.183-2.695-7.182h.001l-.001-.002h-.001c-24.718 9.276-48.558 14.729-62.19 14.729-1.942.004-3.364-.083-4.758-.286l-1.077 7.598h-.001l1.077-7.598c-5.057-.717-12.802-3.599-22.291-8.668-9.454-5.042-19.713-11.717-30.07-19.71l-4.686 6.077 1.081-1.402 3.604-4.675c-4.99-3.84-9.26-7.391-12.913-10.648 32.157 4.232 79.646 10.928 112.692 17.561l.005.001 1.301-6.507.2-.998-1.501 7.506c.881.167 2.136.291 3.016.301 7.148 0 13.546-5.016 15.006-12.306h-.001c1.662-8.295-3.715-16.357-12-18.021h-.002c-33.15-6.647-80.228-13.332-112.757-17.636 2.8-1.304 5.855-2.653 9.208-4.044l-.398-.956-.005-.013.403.969c22.37-9.309 44.572-14.765 57.833-14.765 1.882-.004 3.284.082 4.693.288l1.078-7.598-.339 2.391-.739 5.207h.002c5.053.716 13.161 3.666 23.363 8.857 10.133 5.149 21.406 12.004 32.964 20.178 11.671 8.24 20.414 15.537 26.684 21.536 2.556 2.44 4.532 4.499 6.115 6.318-1.49.975-3.264 2.047-5.476 3.276zm-44.138-16.484l.467-2.328.924-4.6-1.391 6.928z"/></svg>