<?xml version="1.0" encoding="utf-8"?>
<!-- Generator: Adobe Illustrator 21.1.0, SVG Export Plug-In . SVG Version: 6.00 Build 0)  -->
<svg version="1.1" id="Слой_1" xmlns="http://www.w3.org/2000/svg" xmlns:xlink="http://www.w3.org/1999/xlink" x="0px" y="0px"
	 viewBox="0 0 512 512" style="enable-background:new 0 0 512 512;" xml:space="preserve">
<style type="text/css">
	.st0{fill:#6C6B7F;}
</style>
<path class="st0" d="M265.899,186.136c0,5.305-4.3,9.606-9.606,9.606h-59.081v59.081c0,5.305-4.3,9.606-9.606,9.606
	c-5.305,0-9.606-4.301-9.606-9.606v-59.081h-59.081c-5.305,0-9.606-4.301-9.606-9.606c0-5.306,4.301-9.606,9.606-9.606H178v-59.081
	c0-5.306,4.301-9.606,9.606-9.606c5.306,0,9.606,4.3,9.606,9.606v59.081h59.081C261.599,176.53,265.899,180.83,265.899,186.136z
	 M488.259,486.278c-3.711,3.791-9.793,3.855-13.585,0.144L295.183,310.709c-29.062,24.128-66.593,38.727-107.577,38.727
	C95.792,349.436,21,276.51,21,186.136c0-90.375,74.792-163.3,166.606-163.3s166.606,72.925,166.606,163.3
	c0,43.168-17.191,82.238-45.024,111.398l178.926,175.16C491.904,476.405,491.97,482.487,488.259,486.278z M187.606,330.224
	c81.591,0,147.394-64.707,147.394-144.088S269.197,42.048,187.606,42.048S40.212,106.755,40.212,186.136
	S106.014,330.224,187.606,330.224z"/>
</svg>
