<svg id="Слой_1" xmlns="http://www.w3.org/2000/svg" viewBox="0 0 512 512"><style>.st0{fill:#333;stroke:#000;stroke-width:3;stroke-miterlimit:10}</style><path class="st0" d="M113.972 218.697l-1.792 3.41.007-.013 1.785-3.397-.003-.002c-6.27-3.288-14.008-.858-17.285 5.387-18.014 34.338-22.892 72.665-13.596 107.92v.003c1.512 5.748 6.696 9.543 12.365 9.543.998-.008 2.259-.17 3.273-.433v.001l.01-.003.012-.003v-.001c6.817-1.813 10.89-8.802 9.087-15.631-7.623-28.919-3.59-60.705 11.52-89.505 3.292-6.264.867-13.991-5.383-17.276zm-13.876 7.176l-.442-.232.442.232zm-2.352 111.518l.001.005-.001-.005zm73.055-172.363l1.945-1.276-.008-.011-3.206 2.119-.008.005 3.214-2.124c-3.892-5.889-11.819-7.508-17.713-3.648l-.003.002 2.072 3.156.014.021-2.086-3.177a177.239 177.239 0 0 0-25.973 20.834c-5.061 4.92-5.196 13.019-.267 18.092l.002.002.001.001a12.769 12.769 0 0 0 9.184 3.877c3.197 0 6.428-1.198 8.908-3.62l.001.001a150.544 150.544 0 0 1 22.2-17.812c5.911-3.882 7.541-11.813 3.669-17.717l-1.946 1.275zm-39.065 18.663zm-.188 12.647zm35.41-18.085l.015.023-.015-.023zm80.483-93.312l-1.757-3.429 1.768 3.424-.011.005zm-3.486 7.226l.002.002-3.45 1.713 3.448-1.715zm60.819-3.423c9.351-3.72 18.337-4.452 18.507-4.467v-.003c6.262-.457 11.295-5.395 11.822-11.674h.001a12.792 12.792 0 0 0-9.751-13.527c-18.716-4.512-35.359-5.352-49.586-2.302-4.77-20.631-10.584-29.261-11.662-30.744l-.011-.015-3.027 2.225-.076.056 3.104-2.281c-4.911-6.683-15.724-6.683-20.635 0l3.104 2.281-.004-.003-3.1-2.279-.012.015c-1.078 1.482-6.893 10.113-11.661 30.744-14.238-3.051-30.867-2.211-49.586 2.301l.887 3.677-.013-.055-.873-3.623h-.002c-6.139 1.484-10.287 7.227-9.749 13.526a12.8 12.8 0 0 0 11.861 11.678v.002c-.104-.008 4.301.346 10.055 1.812 3.126.787 6.538 1.845 9.919 3.298-99.106 21.396-171.267 102.47-171.267 198.257 0 104.876 86.031 191.755 200.09 202.694l.149.014.149.003.068-3.842.001-.01-.069 3.852 36.458.644.143.002.145-.008c116.791-6.691 208.832-95.738 208.832-203.349.009-97.447-73.348-178.625-174.211-198.899zm-77.238-10.675s.001 0 0 0c.001 0 0 0 0 0zm18.148 3.443c.001 0 .001 0 0 0l1.768 3.424c3.061-1.579 5.303-4.317 6.319-7.542a12.813 12.813 0 0 0 6.31 7.537 12.726 12.726 0 0 0 7.036 1.365 48.488 48.488 0 0 0-3.24 5.335l3.207 1.646-.05-.025-3.157-1.621-.002.005a12.802 12.802 0 0 0 .204 12.049h-.001a12.78 12.78 0 0 0 10.135 6.54c102.49 8.466 179.188 85 179.188 177.417 0 93.416-80.735 171.779-183.898 177.777l-34.76-.611C134.002 455.068 58.61 378.662 58.61 287.643c0-90.53 74.986-166.902 175.17-177.048h.001a12.807 12.807 0 0 0 9.913-6.545l-3.369-1.867.076.042 3.292 1.825.008-.014a12.81 12.81 0 0 0 .253-11.867l-3.45 1.713 3.449-1.715c-1.039-2.068-2.236-4.022-3.526-5.88a12.828 12.828 0 0 0 7.012-1.346l-1.757-3.429zm34.365-3.452c.001 0 0 0 0 0zm-10.098 3.506zm-19.534-6.619l2.878.45-2.878-.45 2.879.457-2.879-.457zm3.351.524zm.028.005zm-.053-.001zm.028.005zm.474-.076l2.879-.457-2.878.449 2.878-.449-2.879.457zm15.348 393.861l.001.01h-.001v-.01zM237.588 81.566l-.309.628.248-.503.061-.125zm55.536 9.016c-.001 0-.001 0 0 0-.001 0-.001 0 0 0zm-77.887.608zm116.025-18.917z"/></svg>