<svg id="Слой_1" xmlns="http://www.w3.org/2000/svg" viewBox="0 0 512 512"><style>.st0{fill:#333;stroke:#000;stroke-width:3;stroke-miterlimit:10}</style><path class="st0" d="M481.794 150.031h.001c-3.365-10.96-2.357-23.969 3.45-36.655 5.375-12.001 7.096-26.627 4.692-39.812-4.936-25.947-25.623-46.635-51.572-51.572-13.184-2.405-27.813-.682-39.812 4.693-12.686 5.807-25.693 6.813-36.652 3.449-83.792-25.726-183.803 4.938-255.28 76.414l6.288 6.288-2.515-2.515-3.773-3.773C35.144 178.026 4.48 278.037 30.205 361.829c3.364 10.957 2.357 23.967-3.451 36.655l8.086 3.701-8.086-3.701c-5.373 12-7.095 26.623-4.693 39.805l.109-.021 8.627-1.641-8.736 1.662c4.935 25.948 25.62 46.636 51.567 51.575a72.063 72.063 0 0 0 12.68 1.206c9.049-.05 18.864-2.166 27.139-5.899v.001c12.684-5.807 25.692-6.815 36.651-3.45 83.794 25.73 183.804-4.937 255.282-76.415l-.001-.001c71.478-71.473 102.14-171.486 76.415-255.275zM103.861 464.23l-3.702-8.085c-6.708 3.193-12.956 3.909-20.559 2.357l-1.513 7.948-.15.788 1.663-8.736c-13.122-2.497-23.678-13.053-26.174-26.176-1.55-7.6-.831-13.846 2.358-20.553l-8.086-3.701 1.333.61 6.752 3.091c8.829-19.29 10.761-40.358 4.942-59.312v-.002l-8.271 2.54-.23.071v-.001l8.501-2.61c-21.886-71.283 4.279-159.144 68.47-223.334 49.107-49.107 112.263-76.078 171.207-76.078 18.146-.022 35.259 2.4 52.129 7.607 18.956 5.82 40.024 3.888 59.312-4.941 6.706-3.19 12.954-3.909 20.555-2.359 13.124 2.497 23.681 13.055 26.178 26.177 1.551 7.601.832 13.849-2.358 20.555-8.83 19.288-10.762 40.357-4.943 59.313 21.886 71.283-4.279 159.144-68.47 223.335-64.189 64.191-152.052 90.353-223.336 68.47l-1.56 5.081-.528 1.72 2.088-6.801c-18.957-5.819-40.024-3.89-59.311 4.941l3.703 8.085zm360.442-360.441l-5.569-2.55 5.569 2.55c0-.001 0-.001 0 0zm3.009-25.919l-2.912.554 2.912-.554zm-30.609-47.143s-.001 0 0 0l1.621-8.521-1.621 8.521zm-77.411 7.908c-.001 0-.001 0 0 0l2.399-7.816-2.399 7.816zM152.709 473.222zm-41.332-113.37c6.082-1.867 9.496-8.311 7.629-14.39-12.526-40.798-7.267-88.35 15.236-133.931 2.816-5.703.475-12.609-5.229-15.424-5.703-2.815-12.609-.477-15.425 5.229-24.93 50.496-30.969 104.093-16.601 150.887 1.523 4.959 6.084 8.138 11.007 8.138a13.824 13.824 0 0 0 3.383-.509zm3.379-13.085l.207-.064-.207.064zm15.5-137.204zm-12.68-6.259l-.099-.049.099.049zm275.329-36.911l3.903-1.198.101-.031-4.004 1.229a145.847 145.847 0 0 1 4.72 20.603c.885 5.689 5.788 9.747 11.371 9.747a13.926 13.926 0 0 0 1.781-.138c6.285-.978 10.585-6.866 9.608-13.15l-4.283.666 1.302-.203 2.981-.463a172.919 172.919 0 0 0-5.461-23.822v-.001l-4.25 1.305 4.25-1.305c-1.868-6.083-8.314-9.493-14.389-7.629l1.211 3.948.093.303-1.304-4.251c-6.081 1.866-9.497 8.309-7.63 14.39zm9.114 19.919c0 .001 0 .001 0 0l-.861.134.861-.134zm8.074 5.9l.006.04-.006-.04zm8.058 21.363l4.446.042v.001l-4.446-.043zM379.699 321.14l-2.14 3.897 2.14-3.897zm-2.14 3.897l2.14-3.897-2.14 3.897c1.615.842 3.863 1.392 5.537 1.423 4.054 0 8.003-2.153 10.101-5.975l-3.133-1.72-.764-.42 3.897 2.14c18.755-34.219 29.014-71.501 29.399-106.867l-4.446-.044 4.446.042c.06-6.358-5.043-11.566-11.404-11.628l-.043 4.446.043-4.446H411.078c-6.307 0-11.453 5.081-11.515 11.403-.277 31.892-9.366 64.762-26.556 96.007-3.062 5.577-1.022 12.578 4.552 15.639zm26.451-111.601l-.494-.005.494.005zm-27.105 98.103l-.168-.092.168.092z"/></svg>