<svg id="Слой_1" xmlns="http://www.w3.org/2000/svg" viewBox="0 0 512 512"><style>.st0{fill:#333;stroke:#000;stroke-width:3;stroke-miterlimit:10}</style><path class="st0" d="M480.874 133.438h-158.36c-5.594 0-10.127 4.534-10.127 10.126 0 5.593 4.534 10.126 10.127 10.126h7.779a74.43 74.43 0 0 1-9.469 27.503c.032-.326.05-.655.05-.989v-17.342c0-5.593-4.534-10.126-10.126-10.126s-10.126 4.534-10.126 10.126v17.342c0 5.593 4.534 10.126 10.126 10.126 1.716 0 3.329-.43 4.745-1.183-13.719 17.862-35.283 29.401-59.491 29.401-37.909 0-69.336-28.284-74.293-64.858h18.559c-3.455 1.612-5.856 5.107-5.856 9.172v17.342c0 5.593 4.534 10.126 10.126 10.126s10.126-4.534 10.126-10.126v-17.342c0-4.065-2.4-7.56-5.856-9.172h72.019c5.59 0 10.127-4.533 10.127-10.126s-4.537-10.126-10.127-10.126H31.126c-5.593 0-10.126 4.534-10.126 10.126 0 62.766 24.448 121.787 68.829 166.168 44.382 44.382 103.405 68.83 166.171 68.83 62.765 0 121.788-24.446 166.17-68.83C466.55 265.351 491 206.328 491 143.564c0-5.592-4.531-10.126-10.126-10.126zM256.001 358.309c-115.014 0-209.189-90.894-214.495-204.619h119.823c5.077 47.769 45.579 85.11 94.672 85.11 49.094 0 89.595-37.341 94.669-85.11h119.823c-5.304 113.725-99.479 204.619-214.492 204.619zM230.87 170.257c5.593 0 10.126 4.534 10.126 10.126v17.339c0 5.593-4.534 10.126-10.126 10.126s-10.126-4.534-10.126-10.126v-17.339c0-5.595 4.534-10.126 10.126-10.126zm27.646 7.456c5.595 0 10.126 4.534 10.126 10.126v17.339c0 5.592-4.531 10.126-10.126 10.126-5.593 0-10.126-4.534-10.126-10.126v-17.339c0-5.592 4.533-10.126 10.126-10.126zm28.192-7.456c5.593 0 10.126 4.534 10.126 10.126v17.339c0 5.593-4.534 10.126-10.126 10.126-5.59 0-10.126-4.533-10.126-10.126v-17.339c0-5.596 4.537-10.126 10.126-10.126z"/></svg>