<svg id="Слой_1" xmlns="http://www.w3.org/2000/svg" viewBox="0 0 512 512"><style>.st0{fill:#333;stroke:#000;stroke-width:2.8253;stroke-miterlimit:10}</style><path class="st0" d="M293.27 240.553c-8.513-20.553-32.154-30.345-52.707-21.832s-30.345 32.155-21.832 52.707c4.122 9.95 11.882 17.71 21.832 21.832 4.884 2.007 10.309 3.076 15.437 3.091 5.129-.015 10.554-1.085 15.437-3.091 20.554-8.513 30.346-32.154 21.833-52.707zm-17.686 23.564c-2.171 5.242-6.241 9.313-11.483 11.484h-.001c-10.805 4.477-23.247-.676-27.724-11.484-4.477-10.807.677-23.248 11.484-27.725 2.738-1.153 5.275-1.63 8.089-1.615 8.342 0 16.259 4.946 19.636 13.099 2.17 5.244 2.17 11-.001 16.241zm204.187-47.798c-7.179-9.322-17.621-15.16-30.94-17.678-.588-6.317-2.381-13.222-5.31-20.318-2.945-7.087-6.56-13.237-10.611-18.12 7.637-11.199 10.893-22.711 9.376-34.378-1.604-12.355-8.494-24.375-20.118-35.997-11.621-11.623-23.641-18.512-35.996-20.118-11.667-1.516-23.18 1.74-34.379 9.378-4.882-4.051-11.032-7.665-18.121-10.612-7.096-2.93-14.003-4.722-20.32-5.31-2.521-13.319-8.36-23.761-17.681-30.939-9.87-7.601-23.239-11.229-39.673-11.229-16.436 0-29.807 3.628-39.678 11.229-9.322 7.178-15.161 17.621-17.68 30.94-6.316.589-13.222 2.381-20.317 5.31-7.088 2.946-13.239 6.561-18.122 10.612-11.2-7.637-22.713-10.893-34.38-9.377-12.355 1.605-24.374 8.495-35.995 20.117-11.615 11.615-18.498 23.63-20.1 35.982-1.513 11.664 1.741 23.178 9.37 34.381-4.055 4.886-7.674 11.039-10.621 18.133-2.932 7.102-4.725 14.016-5.311 20.339-13.316 2.532-23.757 8.375-30.935 17.691C24.629 226.221 21 239.578 21 255.998c0 16.421 3.629 29.778 11.231 39.645 7.178 9.316 17.62 15.157 30.936 17.69.586 6.323 2.379 13.236 5.311 20.339 2.949 7.096 6.57 13.252 10.626 18.138-7.625 11.206-10.879 22.72-9.367 34.383 1.602 12.351 8.481 24.363 20.094 35.975 13.377 13.377 27.283 20.483 41.579 20.482 9.779-.001 19.402-3.345 28.789-9.745 4.884 4.053 11.036 7.669 18.127 10.617 7.1 2.931 14.008 4.723 20.328 5.31 2.525 13.317 8.363 23.759 17.683 30.937 9.869 7.601 23.233 11.23 39.662 11.23 16.436 0 29.807-3.628 39.678-11.229 9.322-7.178 15.161-17.62 17.68-30.94 6.317-.589 13.222-2.38 20.315-5.31 7.093-2.948 13.247-6.566 18.131-10.62 9.388 6.399 19.009 9.744 28.789 9.744 14.297 0 28.201-7.102 41.576-20.477 11.618-11.618 18.505-23.636 20.11-35.99 1.514-11.666-1.741-23.179-9.374-34.38 4.052-4.883 7.67-11.034 10.616-18.125 2.928-7.095 4.72-14 5.309-20.316 13.319-2.518 23.763-8.358 30.94-17.68 7.601-9.871 11.229-23.242 11.229-39.678.002-16.437-3.626-29.808-11.227-39.679zm-206.458 81.475c-11.171 4.627-23.456 4.627-34.625 0-11.171-4.627-19.857-13.314-24.483-24.483-4.626-11.171-4.627-23.456 0-34.625 4.627-11.171 13.313-19.857 24.483-24.483 5.735-2.394 11.377-3.459 17.249-3.444 17.772 0 34.656 10.536 41.861 27.927 9.545 23.043-1.441 49.563-24.485 59.108zm170.096-9.661h-.001c-7.114-11.6-19.344-17.552-27.402-20.889-20.757-8.506-35.185-7.686-48.415-6.855-12.238.769-23.336 1.5-40.706-4.391 17.37-5.891 28.468-5.161 40.705-4.391h.001c13.228.831 27.658 1.651 48.415-6.854 8.058-3.338 20.288-9.29 27.401-20.889h.001a37.78 37.78 0 0 0 2.062-3.911c6.198 1.178 11.698 3.454 15.832 7.962 4.668 5.091 8.082 13.56 8.082 28.083 0 8.648-.915 16.852-4.581 23.307-3.279 5.774-8.993 10.528-19.367 12.663a37.924 37.924 0 0 0-2.027-3.835zM299.436 424.98h-.001c-4.387-2.691-8.346-7.898-12.219-17.248-6.761-16.1-6.042-26.213-5.252-38.789.798-12.712 1.639-27.539-5.626-49.275a67.548 67.548 0 0 0 5.248-1.904 65.865 65.865 0 0 0 5.047-2.364c10.234 20.518 21.318 30.394 30.873 38.822 9.451 8.335 17.111 14.977 23.715 31.142 3.678 8.881 5.101 15.982 3.251 21.89-1.799 5.74-7.019 11.305-19.07 16.297-12.046 4.988-20.24 4.941-25.966 1.429zm-148.625-47.888c-3.337 8.057-7.777 20.915-4.605 34.147.342 1.414.795 2.84 1.308 4.224-5.219 3.552-10.721 5.828-16.833 5.561-6.901-.3-15.302-3.876-25.566-14.141-10.178-10.178-13.776-18.557-14.104-25.474-.29-6.128 1.96-11.666 5.527-16.924 1.383.513 2.807.965 4.22 1.306 3.146.747 6.451 1.087 9.477 1.091 9.543-.047 18.538-3.156 24.671-5.696 20.692-8.663 30.315-19.445 39.082-29.388 8.118-9.205 15.431-17.579 31.914-25.704-8.125 16.483-16.499 23.795-25.704 31.914-9.941 8.767-20.725 18.389-29.388 39.081l.001.003zM423.552 325.4c-4.992 12.051-10.556 17.272-16.296 19.07-5.908 1.85-13.009.425-21.89-3.253-16.166-6.604-22.808-14.264-31.142-23.715-8.43-9.559-18.313-20.649-38.85-30.887a69.342 69.342 0 0 0 4.263-10.293c21.756 7.278 36.592 6.438 49.308 5.639 12.577-.788 22.69-1.509 38.791 5.252 9.35 3.873 14.558 7.832 17.247 12.219 3.51 5.728 3.558 13.922-1.431 25.968zm-62.363 51.691c-8.663-20.692-19.447-30.315-29.388-39.082-9.207-8.118-17.58-15.432-25.706-31.915 16.484 8.125 23.797 16.5 31.915 25.705 8.767 9.941 18.39 20.725 39.082 29.388 6.133 2.538 15.127 5.648 24.671 5.694 3.025-.004 6.332-.343 9.476-1.089a37.79 37.79 0 0 0 4.223-1.307c3.557 5.231 5.825 10.745 5.551 16.863-.309 6.905-3.892 15.3-14.129 25.536-6.117 6.116-12.564 11.267-19.72 13.239-6.401 1.762-13.802 1.083-22.65-4.738a37.783 37.783 0 0 0 1.279-4.146c3.173-13.233-1.267-26.091-4.604-34.148zm-77.114 84.213c-5.092 4.667-13.561 8.078-28.075 8.078-8.65 0-16.851-.916-23.304-4.582-5.773-3.28-10.526-8.994-12.668-19.365a37.75 37.75 0 0 0 3.837-2.028c11.6-7.114 17.552-19.344 20.889-27.402 8.506-20.757 7.684-35.185 6.854-48.415-.768-12.238-1.499-23.337 4.392-40.707 5.891 17.37 5.16 28.47 4.392 40.707-.831 13.229-1.651 27.659 6.855 48.415 3.337 8.058 9.29 20.289 20.889 27.402a37.986 37.986 0 0 0 3.912 2.063c-1.18 6.2-3.462 11.7-7.973 15.834zM88.449 325.401v-.001c-4.99-12.045-4.942-20.239-1.431-25.966 2.691-4.387 7.899-8.346 17.247-12.219 16.101-6.761 26.211-6.042 38.79-5.252 12.711.797 27.537 1.639 49.274-5.627a67.78 67.78 0 0 0 1.903 5.247 67.672 67.672 0 0 0 2.361 5.05c-20.515 10.234-30.392 21.316-38.817 30.871-8.336 9.451-14.977 17.111-31.142 23.715-8.88 3.678-15.982 5.103-21.89 3.253-5.74-1.801-11.304-7.021-16.295-19.071zm-.001-138.806c4.991-12.05 10.555-17.272 16.295-19.069 5.908-1.851 13.009-.427 21.891 3.253 16.167 6.604 22.808 14.264 31.142 23.714 8.425 9.556 18.302 20.638 38.817 30.872a66.838 66.838 0 0 0-2.359 5.049 67.548 67.548 0 0 0-1.904 5.248c-21.736-7.265-36.564-6.424-49.274-5.627-12.577.79-22.689 1.51-38.79-5.252-9.349-3.873-14.557-7.831-17.247-12.218-3.513-5.729-3.56-13.925 1.429-25.97zm57.757-85.837c-3.173 13.232 1.268 26.09 4.605 34.148 8.662 20.692 19.446 30.315 29.388 39.082 9.206 8.118 17.58 15.431 25.705 31.914-16.483-8.126-23.797-16.499-31.915-25.705-8.767-9.941-18.39-20.725-39.082-29.388l-.459 1.109.459-1.109c-8.058-3.338-20.918-7.775-34.147-4.605a37.774 37.774 0 0 0-4.222 1.307c-3.563-5.246-5.821-10.773-5.538-16.896.319-6.912 3.911-15.298 14.115-25.502 6.116-6.116 12.563-11.268 19.719-13.24 6.401-1.764 13.803-1.084 22.649 4.74a38.193 38.193 0 0 0-1.277 4.145zm81.718-50.065c5.092-4.667 13.561-8.079 28.077-8.079 8.65 0 16.851.917 23.305 4.583 5.773 3.279 10.526 8.993 12.665 19.366a37.536 37.536 0 0 0-3.836 2.028c-11.6 7.114-17.552 19.344-20.889 27.402-8.506 20.757-7.686 35.186-6.855 48.416.769 12.237 1.5 23.336-4.39 40.706-5.89-17.37-5.159-28.468-4.391-40.706.831-13.229 1.651-27.659-6.854-48.416-3.338-8.057-9.29-20.288-20.889-27.401v-.001a37.592 37.592 0 0 0-3.912-2.062c1.179-6.203 3.459-11.703 7.969-15.836zm97.478 37.753c12.052 4.992 17.272 10.557 19.07 16.297 1.85 5.908.425 13.009-3.253 21.89-6.604 16.167-14.263 22.808-23.715 31.142-9.56 8.43-20.649 18.313-30.887 38.85a69.187 69.187 0 0 0-10.293-4.262c7.278-21.755 6.438-36.591 5.639-49.309-.79-12.577-1.509-22.689 5.252-38.79 3.873-9.349 7.832-14.557 12.219-17.247 5.729-3.513 13.925-3.56 25.968 1.429zm99.581 124.116c-2.691 4.388-7.898 8.347-17.248 12.22v-.001c-16.1 6.763-26.212 6.043-38.789 5.252h-.001c-12.71-.795-27.539-1.636-49.277 5.629a66.519 66.519 0 0 0-1.899-5.247 66.457 66.457 0 0 0-2.365-5.048c20.518-10.235 30.395-21.317 38.822-30.873 8.334-9.451 14.977-17.111 31.142-23.715 8.88-3.679 15.98-5.104 21.888-3.253 5.741 1.797 11.305 7.019 16.297 19.069 4.989 12.047 4.943 20.24 1.43 25.967zm-9.596-65.08a37.783 37.783 0 0 0-4.146-1.279c-13.231-3.173-26.091 1.268-34.147 4.605-20.692 8.662-30.315 19.446-39.082 29.388-8.118 9.207-15.432 17.58-31.915 25.706 8.125-16.484 16.5-23.797 25.705-31.915 9.941-8.767 20.725-18.39 29.388-39.082 3.337-8.057 7.777-20.916 4.605-34.148a37.876 37.876 0 0 0-1.308-4.224c5.219-3.551 10.72-5.828 16.833-5.561 6.901.301 15.303 3.877 25.566 14.141 6.116 6.116 11.268 12.564 13.241 19.721 1.764 6.401 1.085 13.803-4.74 22.648zM186.597 88.446c12.045-4.99 20.239-4.942 25.966-1.43 4.388 2.691 8.347 7.898 12.22 17.247h-.001c6.763 16.101 6.042 26.213 5.252 38.79-.798 12.713-1.638 27.541 5.629 49.278a66.02 66.02 0 0 0-5.247 1.9v-.001a67.485 67.485 0 0 0-5.05 2.361c-10.234-20.514-21.316-30.391-30.871-38.816l.001-.001c-9.451-8.335-17.111-14.977-23.715-31.142-3.679-8.88-5.103-15.982-3.253-21.89 1.798-5.739 7.019-11.304 19.069-16.296zm25.969 336.534h-.001c-5.727 3.511-13.923 3.559-25.966-1.43-12.052-4.992-17.272-10.557-19.07-16.297-1.85-5.908-.427-13.009 3.253-21.89 6.604-16.167 14.263-22.808 23.714-31.142 9.556-8.425 20.638-18.302 30.872-38.817a66.87 66.87 0 0 0 5.05 2.36 67.227 67.227 0 0 0 5.247 1.904c-7.265 21.736-6.426 36.563-5.627 49.275.79 12.576 1.509 22.689-5.252 38.789-3.875 9.35-7.833 14.558-12.22 17.248zM95.994 244.752c20.757 8.506 35.187 7.684 48.416 6.854 12.236-.769 23.334-1.499 40.705 4.392-17.37 5.89-28.468 5.16-40.705 4.391-13.231-.831-27.659-1.652-48.416 6.854-8.058 3.337-20.289 9.29-27.402 20.889a37.73 37.73 0 0 0-2.061 3.909c-6.243-1.197-11.75-3.525-15.877-8.065-4.659-5.125-8.037-13.594-8.037-27.978s3.378-22.854 8.037-27.979c4.127-4.539 9.635-6.868 15.877-8.065a37.73 37.73 0 0 0 2.061 3.909c7.113 11.6 19.344 17.552 27.402 20.889z"/></svg>