<svg id="Layer_1" xmlns="http://www.w3.org/2000/svg" viewBox="0 0 120 120"><style>.st0{fill:#242424}.st1{fill:#263740}.st2{fill:#1e2c33}.st3{fill:#ccc}.st4{fill:#b3b3b3}.st5{fill:#e6e6e6}</style><path class="st0" d="M89.4 41.9c-.4-1.2-.8-2.3-1.2-3.5-1.2.2-2.4.5-3.7.7-.4-.6-.8-1.1-1.3-1.7l1.5-2.4c-.7-1.3-1.4-2.6-2.2-3.9-1.3-.1-2.7-.2-4-.3-1.3-.9-2.6-1.8-3.8-2.7-1 .9-1.9 1.7-2.9 2.6-1.5-.5-3-.9-4.5-1.3-.6-1.4-1.2-2.9-1.8-4.3-2.2.8-4.5 1.7-6.7 2.5-.8-1.4-1.5-2.8-2.3-4.2-1.2.4-2.4.8-3.6 1.3-2.3-.2-4.5-.4-6.8-.6-1.8 2.3-3.7 4.6-5.5 6.8.2.9.4 1.7.6 2.6-.8.8-1.5 1.7-2.3 2.5-1.4.5-2.8 1.1-4.2 1.6-.2 1.8-.4 3.5-.6 5.3-1.3-.3-2.5-.6-3.7-.9-1.3 1.1-2.5 2.2-3.8 3.3-1.5 2.4-3 4.7-4.6 7.1 3.7 1.1 7.4 2.3 11.1 3.4h51c3.8-1.1 7.6-2.2 11.3-3.3-.3-1.8-.7-3.6-1-5.3.3-1.1.6-2.2.8-3.3-1.7-.6-3.7-1.3-5.8-2z"/><path class="st1" d="M21.1 54.9l7 33.5H90l7.1-33.5z"/><path class="st2" d="M93.1 54.9L86 88.4h4l7.1-33.5z"/><path class="st3" d="M78.1 93.5c-4.4 0-8-3.7-8-8.1s3.6-8.1 8-8.1 8 3.7 8 8.1-3.6 8.1-8 8.1z"/><ellipse class="st4" cx="78.1" cy="85.4" rx="6" ry="6.1"/><ellipse class="st1" cx="78.1" cy="85.4" rx="1" ry="1"/><g><path class="st3" d="M41.1 93.5c-4.4 0-8-3.7-8-8.1s3.6-8.1 8-8.1 8 3.7 8 8.1-3.6 8.1-8 8.1z"/><ellipse class="st4" cx="41.1" cy="85.4" rx="6" ry="6.1"/><ellipse class="st1" cx="41.1" cy="85.4" rx="1" ry="1"/></g><path class="st5" d="M99.1 52.9c0-.6-.4-1-1-1h-78c-.5 0-1 .5-1 1v1c0 .6.5 1 1 1h78c.6 0 1-.5 1-1v-1z"/></svg>