<svg id="Layer_1" xmlns="http://www.w3.org/2000/svg" viewBox="0 0 120 120"><style>.st0{fill:#cbcdd1}.st1{fill:#fec24c}.st2{fill:#535353}.st3{fill:#a2a2a2}.st4{fill:#bc8d2f}</style><path class="st0" d="M89.7 71.2c-3.5 0-6.4-2.9-6.4-6.4 0-1 .6-1.6 1.6-1.6s1.6.6 1.6 1.6c0 1.8 1.4 3.2 3.2 3.2s3.2-1.4 3.2-3.2-1.4-3.2-3.2-3.2c-.5 0-.8-.2-1.1-.5-.3-.3-.5-.6-.5-1.1V23.1c0-1 .6-1.6 1.6-1.6s1.6.6 1.6 1.6v35.4c2.7.6 4.8 3.2 4.8 6.3 0 3.5-2.9 6.4-6.4 6.4"/><path class="st1" d="M85.3 18.3L50.9 55.2h11.2c1.1 0 2.2.2 3.2.5l24.4-32.6c-2.4-.1-4.4-2.2-4.4-4.8"/><path class="st2" d="M82.5 106.5H32.7c-4.8 0-8.8-4-8.8-8.8 0-4.8 4-8.8 8.8-8.8h49.7c4.8 0 8.8 4 8.8 8.8.1 4.8-3.9 8.8-8.7 8.8"/><path class="st3" d="M38.3 97.7c0-2.2-1.8-4-4-4s-4 1.8-4 4 1.8 4 4 4c2.3 0 4-1.8 4-4M84.9 97.7c0-2.2-1.8-4-4-4s-4 1.8-4 4 1.8 4 4 4 4-1.8 4-4"/><path class="st4" d="M49.6 88.9h16v-4.8h-16v4.8z"/><path class="st1" d="M46.4 58.4v12.8H28.9c-2.7 0-5 2.2-5 5v7.9H72v-19c0-1.3-.2-2.6-.6-3.7-1.4-3.8-5.1-6.3-9.3-6.3H49.6c-1.8.1-3.2 1.5-3.2 3.3"/><path class="st4" d="M28.9 71.2c-2.7 0-5 2.2-5 5v1.4h8c2.7 0 4.8-2.2 4.8-4.8v-1.6h-7.8zM61.8 55.2h-7.4v11.5c0 2.7 1.8 5.1 4.3 6.1L72 77.6V65.1c0-3.2-1.6-6.3-4.3-8.3-1.8-1.1-3.9-1.6-5.9-1.6"/><path class="st0" d="M76.8 97.7c0-1.9 1.4-3.5 3.2-4H35.1c1.8.3 3.2 1.9 3.2 4s-1.4 3.5-3.2 4H80c-1.7-.5-3.2-2.1-3.2-4"/><g><path class="st4" d="M95 18.3c0-2.7-2.1-4.8-4.8-4.8s-4.8 2.1-4.8 4.8 2.1 4.8 4.8 4.8c2.5 0 4.8-2.1 4.8-4.8M84.4 30.2l-.6-8.7c0-.5-.2-.8-.5-1l-2.6 2.7.6 7.4-8.5 1.1-3.2 3.5.6 10.3-11.7 1.6-2.9 3c.3.3.6.5 1.1.5h.3l13.6-1.8 2.7-3.7-.6-9.9 9-1.1 2.7-3.9z"/></g><path class="st3" d="M92.9 56.8h-6.4c-1 0-1.6-.6-1.6-1.6s.6-1.6 1.6-1.6h6.4c1 0 1.6.6 1.6 1.6s-.7 1.6-1.6 1.6"/></svg>