<svg id="Capa_1" xmlns="http://www.w3.org/2000/svg" viewBox="0 0 120 120"><style>.st0{fill:#949493}.st1{fill:#c7cac7}.st2{fill:#e7eced}.st3{fill:#556080}.st4{fill:#fceb1a}</style><path class="st0" d="M87.6 69.1h8.3V100h-8.3z"/><path class="st1" d="M32.4 95.8h55.2V73.3H32.4M95.9 73.3h4.1v22.5h-4.1z"/><path class="st0" d="M24.1 69.1h8.3V100h-8.3z"/><path class="st1" d="M20 73.3h4.1v22.5H20z"/><path class="st2" d="M39.3 64.9h41.4v8.4H39.3z"/><path class="st1" d="M43.4 60.7h33.1v4.2H43.4z"/><path class="st0" d="M53.1 49.5h13.8v11.2H53.1z"/><path class="st3" d="M57.2 36.8h5.5v12.6h-5.5z"/><path class="st4" d="M65 23.4l-.3.3c-1.2 1.3-2.9 2-4.7 2-1.8 0-3.4-.7-4.7-2l-.3-.3c-1.2-1.3-2.9-2-4.7-2H43c-3.6 0-6.5 2.9-6.5 6.6v6.3c0 3.6 2.9 6.6 6.5 6.6h10.1v-4.2h13.8v4.2H77c3.6 0 6.5-2.9 6.5-6.6V28c0-3.6-2.9-6.6-6.5-6.6h-7.3c-1.8 0-3.5.7-4.7 2z"/><path class="st3" d="M60 25.6c1 0 1.9-.3 2.8-.6v-5h-5.5v5.1c.8.2 1.7.5 2.7.5z"/></svg>