<svg id="Layer_1" xmlns="http://www.w3.org/2000/svg" viewBox="0 0 512 512"><style>.st0{fill:#666}.st1{fill:#999}.st2{fill:#ccc}.st3{fill:#06b559}.st4{fill:#0b9b53}.st5{fill:#088443}.st6{fill:none;stroke:#333;stroke-width:15;stroke-linejoin:round;stroke-miterlimit:10}.st7{fill:#4d4d4d}</style><path class="st0" d="M354.6 176.4c-2.4 0-4.4-2-4.4-4.4v-12.8c0-2.4 2-4.4 4.4-4.4 2.4 0 4.4 2 4.4 4.4V172c0 2.4-2 4.4-4.4 4.4z"/><path class="st1" d="M222.5 167.6h151.6v8.8H222.5z"/><path class="st2" d="M284.3 201.1c-2.2 0-4-1.8-4-4v-34c0-2.2 1.8-4 4-4s4 1.8 4 4v34c0 2.2-1.8 4-4 4zM268.4 201.1c-2.2 0-4-1.8-4-4v-34c0-2.2 1.8-4 4-4s4 1.8 4 4v34c0 2.2-1.8 4-4 4z"/><path class="st3" d="M352.5 226.7l-65.1 33H111.8c-4.2 0-8.4.3-12.5.9L83 237.2c-1.6-2.3-2.5-5.1-2.5-8v-12.1l161.3-26.4h53.8c3.6 0 7.1 1.1 10 3.2l46.9 32.8z"/><path class="st4" d="M241.8 190.6L227.5 217h-147c0-5.4 3.1-10.3 8-12.6l21.5-10.1c5.2-2.4 10.8-3.7 16.6-3.7h115.2zM434.5 250.5l-10.9 9.2H287.4v-33h99.1l46.6 15.9c3.3 1.2 4.1 5.6 1.4 7.9z"/><path class="st5" d="M439.7 278.6l-18.1-12.3H111.8c-3.9 0-7.8.3-11.6.9-6.7 1-13.2 2.8-19.4 5.5l-10.7 4.6-5.2-12.2 10.7-4.6c7.3-3.1 14.9-5.3 22.7-6.4 4.4-.7 9-1 13.5-1h311.7c1.3 0 2.6.4 3.7 1.1l19.8 13.4-7.3 11z"/><path class="st6" d="M426.8 314.3l.5-.5"/><path class="st1" d="M200.2 328.8c0-12.4-10.1-22.5-22.5-22.5s-22.5 10.1-22.5 22.5 10.1 22.5 22.5 22.5 22.5-10.1 22.5-22.5zM278.7 332.7c0-10.2-8.3-18.6-18.6-18.6-10.2 0-18.5 8.3-18.5 18.6s8.3 18.6 18.5 18.6c10.3 0 18.6-8.3 18.6-18.6zM372.2 327.4c0-13.2-10.7-23.9-23.9-23.9s-23.9 10.7-23.9 23.9 10.7 23.9 23.9 23.9 23.9-10.7 23.9-23.9zM427.3 314.5c4.5-3 7.4-8.2 7.4-14 0-9.3-7.6-16.9-16.9-16.9-9.4 0-16.9 7.6-16.9 16.9 0 9.4 7.6 16.9 16.9 16.9 3.5 0 6.8-1.1 9.5-2.9zM94.9 324.3c2.2.8 4.6 1.2 7.1 1.2 11.4 0 20.7-9.3 20.7-20.7 0-11.4-9.3-20.7-20.7-20.7-11.4 0-20.7 9.3-20.7 20.7 0 9 5.6 16.6 13.6 19.5z"/><path class="st5" d="M427.3 314.5l-27 25.9c-7.3 7-16.9 10.9-27 10.9h-25c13.2 0 23.9-10.7 23.9-23.9s-10.7-23.9-23.9-23.9-23.9 10.7-23.9 23.9 10.7 23.9 23.9 23.9h-88.1c10.2 0 18.6-8.3 18.6-18.6s-8.3-18.6-18.6-18.6c-10.2 0-18.5 8.3-18.5 18.6s8.3 18.6 18.5 18.6h-82.4c12.4 0 22.5-10.1 22.5-22.5s-10.1-22.5-22.5-22.5-22.5 10.1-22.5 22.5 10.1 22.5 22.5 22.5h-16.6c-5.9 0-11.8-1.2-17.3-3.4L95 324.3c2.2.8 4.6 1.2 7.1 1.2 11.4 0 20.7-9.3 20.7-20.7 0-11.4-9.3-20.7-20.7-20.7l315.8-.6c-9.4 0-16.9 7.6-16.9 16.9 0 9.4 7.6 16.9 16.9 16.9 3.4.1 6.7-1 9.4-2.8z"/><g><path class="st7" d="M177.7 358.2c-16.2 0-29.4-13.2-29.4-29.4s13.2-29.4 29.4-29.4 29.4 13.2 29.4 29.4-13.2 29.4-29.4 29.4zm0-44.9c-8.6 0-15.6 7-15.6 15.6s7 15.6 15.6 15.6 15.6-7 15.6-15.6-7-15.6-15.6-15.6zM260.2 358.2c-14 0-25.4-11.4-25.4-25.4s11.4-25.4 25.4-25.4c14 0 25.4 11.4 25.4 25.4 0 14-11.4 25.4-25.4 25.4zm0-37.1c-6.4 0-11.6 5.2-11.6 11.7 0 6.4 5.2 11.7 11.6 11.7 6.4 0 11.7-5.2 11.7-11.7-.1-6.5-5.3-11.7-11.7-11.7zM348.3 358.2c-17 0-30.8-13.8-30.8-30.8s13.8-30.8 30.8-30.8 30.8 13.8 30.8 30.8-13.9 30.8-30.8 30.8zm0-47.8c-9.4 0-17 7.6-17 17s7.6 17 17 17 17-7.6 17-17-7.7-17-17-17zM417.8 324.3c-13.1 0-23.8-10.7-23.8-23.8s10.7-23.8 23.8-23.8c13.1 0 23.8 10.7 23.8 23.8 0 7.9-3.9 15.3-10.4 19.7-4 2.7-8.6 4.1-13.4 4.1zm0-33.8c-5.5 0-10 4.5-10 10s4.5 10 10 10c2 0 4-.6 5.6-1.7 2.8-1.9 4.4-5 4.4-8.3 0-5.5-4.5-10-10-10zM102 332.5c-3.2 0-6.4-.6-9.4-1.6-.1 0-.1 0-.2-.1-10.8-4-18-14.4-18-25.9 0-15.2 12.4-27.6 27.6-27.6 15.2 0 27.6 12.4 27.6 27.6 0 15.2-12.4 27.6-27.6 27.6zm-4.6-14.6c1.5.5 3 .8 4.6.8 7.6 0 13.8-6.2 13.8-13.8s-6.2-13.8-13.8-13.8-13.8 6.2-13.8 13.8c0 5.8 3.6 10.9 9 12.9 0 .1.1.1.2.1z"/><path class="st7" d="M373.3 358.2H161.1c-6.8 0-13.5-1.3-19.9-3.9-.1-.1-.3-.1-.4-.2l-48.6-23.4c-10.7-4-17.8-14.4-17.8-25.8 0-15.2 12.4-27.6 27.6-27.6l315.8-.6c13.1 0 23.8 10.7 23.8 23.8 0 7.7-3.7 14.9-9.9 19.3L405 345.4c-8.6 8.2-19.8 12.8-31.7 12.8zm-226.7-16.6c4.7 1.9 9.5 2.8 14.5 2.8h212.1c8.3 0 16.2-3.2 22.2-8.9l27-25.9c.3-.3.6-.5.9-.7 2.8-1.9 4.4-5 4.4-8.3 0-5.5-4.5-10-10-10l-315.7.5c-7.6 0-13.8 6.2-13.8 13.8 0 5.7 3.6 10.9 9 12.9.3.1.5.2.8.3l48.6 23.5z"/></g><path class="st0" d="M251.9 162.9h-31.4v.3l-15.2-8.8c-1.4-.8-3.1-.8-4.4 0-1.4.8-2.2 2.2-2.2 3.8v27.5c0 1.6.8 3 2.2 3.8.7.4 1.4.6 2.2.6.8 0 1.5-.2 2.2-.6l15.2-8.8v.3h31.4c1.9 0 3.5-1.6 3.5-3.5v-11.1c.1-1.9-1.5-3.5-3.5-3.5zm-44.4 15.2v-12.2L218 172l-10.5 6.1z"/></svg>