<svg id="Layer_1" xmlns="http://www.w3.org/2000/svg" viewBox="0 0 120 120"><style>.st0{fill:#d22856}.st1{fill:#2b3b4e}.st2{fill:#324a5e}.st3{fill:#e6e9ee}</style><path class="st0" d="M90.7 29.1h.7v49h-.7z"/><path class="st1" d="M76.4 82.5l-13.6-6.7 9-4.6c.5-.3.6-.8.4-1.1-.2-.3-.5-.4-.7-.4L62.4 63l6.6-4.8c.3-.2.4-.5.3-.8-.1-.3-.4-.5-.7-.5H53.7c-.4 0-.6.2-.7.5-.1.3 0 .6.3.8l6.6 4.8-9.3 6.9-.2-.1c-.5-.3-1-.1-1.2.4-.2.4-.1 1 .4 1.1L59 76l-13.2 6.7c-.4.2-.5.6-.5 1s.5.7.9.7h29.9c.5 0 .8-.3.9-.7 0-.6-.2-.9-.6-1.2zM55.9 58.2h10.2L61 61.9l-5.1-3.7zm5.2 5.6l8.1 5.9H53l8.1-5.9zm-7.7 7.3h14.7l-7.2 3.7-7.5-3.7zm-3.6 11.3l11.1-5.7 11.4 5.7H49.8z"/><path class="st2" d="M41.6 100c-.2 0-.4 0-.5-.1-.9-.3-1.5-1.2-1.2-2.2l19.5-61c.3-.7.9-1.2 1.7-1.2s1.5.5 1.7 1.2l19.5 61c.3.9-.3 1.9-1.2 2.2-.9.3-2-.3-2.3-1.1L61.1 43.1 43.3 98.8c-.2.8-.9 1.2-1.7 1.2z"/><path class="st3" d="M33.5 37.2c20.3-4 40.7-8 61-12l1.6 7.8c-20.5 4-40.9 8-61.4 12-.3-2.5-.7-5.2-1.2-7.8z"/><path class="st1" d="M86.1 78.3h9.8v16.5h-9.8z"/><path class="st2" d="M97.1 79.8H85c-1.6 0-2.9-1.2-2.9-2.8v-1.6c0-1.6 1.3-2.8 2.9-2.8h12.1c1.6 0 2.9 1.2 2.9 2.8V77c-.1 1.5-1.4 2.8-2.9 2.8z"/><path class="st0" d="M38.5 44.4c-.7.1-1.5.3-2.2.4-.3-2.6-.6-5.3-1-7.9.8-.2 1.7-.3 2.5-.5l-.6-4.2c-3.5-4.1-7.1-8.1-10.6-12.2-2.1 3.1-7.4 12.1-6.4 24.1 1.5 18.6 17 28.6 19 29.9.6-.3 1.2-.5 1.8-.8-.8-9.6-1.7-19.2-2.5-28.8zM22.8 40c-.7-8 2.9-14 4.3-16.1 2.4 2.7 4.7 5.4 7.1 8.1.1.4.1.9.2 1.3-.6.2-11.6 7-11.6 6.7zm.2 4.8c-.1-1-.1-2-.1-2.8 3.2-1.7 6.5-3.5 9.7-5.3.2 1.2.4 2.5.5 3.7.3 2.1.6 4.2.9 6.4-3.5.2-7 .3-10.5.5-.2-.6-.4-1.5-.5-2.5zm12.2 23.4c-2.4-2.2-5.5-5.6-8.1-10.4-1.6-3.1-2.6-6-3.2-8.4 4.2-.1 8.3-.3 12.5-.4.6 6.5 1.2 12.9 1.9 19.4-1.1-.1-2.1-.2-3.1-.2z"/></svg>