<svg id="Layer_1" xmlns="http://www.w3.org/2000/svg" viewBox="0 0 120 120"><style>.st0{fill:#2b3b4e}.st1{fill:#324a5e}.st2{fill:#ff7058}.st3{fill:#84dbff}.st4{fill:#fff}.st5{fill:#54c0eb}.st6{fill:#e6e9ee}</style><path class="st0" d="M78.7 71.6V78H68.4v-2.2c0-.8-.6-1.3-1.3-1.3H50.7c-.8 0-1.3.6-1.3 1.3V78H36.2c-.8-3.1-3.7-5.3-7-5.3S23 75 22.2 78h-6.4v-6.4h62.9z"/><path class="st1" d="M78.7 71.6h-63c-1.8 0-3.3-1.5-3.3-3.3V36c0-1.8 1.5-3.3 3.3-3.3h59.7c1.8 0 3.3 1.5 3.3 3.3v35.6z"/><path class="st2" d="M12.4 45.3h66.3V57H12.4z"/><path class="st3" d="M78.7 45.7v33.9h27.9V63.9l-9.9-18.2z"/><path class="st4" d="M106.6 63.9V77h-5.1v2.5h-5.2c-.2-3.8-3.4-6.9-7.3-6.9-3.8 0-7 3.1-7.3 6.9h-3.2V45.8h18l10.1 18.1z"/><path class="st3" d="M103.3 62.2l-7.8-14.4H80.8v14.4z"/><path class="st5" d="M90.4 62.2h12.9l-7.8-14.4h-1.1z"/><circle class="st1" cx="29.1" cy="79.9" r="7.3"/><circle class="st6" cx="29.1" cy="79.9" r="4.7"/><path class="st6" d="M67 81.2H50.8c-.8 0-1.3-.6-1.3-1.3v-4.1c0-.8.6-1.3 1.3-1.3H67c.8 0 1.3.6 1.3 1.3v4.1c.1.7-.5 1.3-1.3 1.3z"/><path class="st2" d="M103.9 70.5h2.7v5.4h-2.7z"/><path class="st6" d="M85.5 64.8H82c-.7 0-1.2-.6-1.2-1.2v-.4h6v.5c-.1.7-.6 1.1-1.3 1.1z"/><path class="st1" d="M106.7 77h-5.2v3.8h5.2c.5 0 .8-.4.8-.8v-2c.1-.6-.3-1-.8-1z"/><path class="st0" d="M97.4 79.6h-1c-.2-3.8-3.4-6.9-7.3-6.9s-7.1 3.1-7.3 6.9h-1c.2-4.4 3.8-8 8.4-8 4.4 0 8.1 3.5 8.2 8z"/><circle class="st1" cx="89.1" cy="79.9" r="7.3"/><circle class="st6" cx="89.1" cy="79.9" r="4.7"/></svg>