<svg id="Слой_1" xmlns="http://www.w3.org/2000/svg" viewBox="0 0 150 3292"><style>.st0{fill:url(#SVGID_1_)}.st1{fill:url(#SVGID_2_)}.st2{fill:url(#SVGID_3_)}.st3{fill:url(#SVGID_4_)}.st4{fill:url(#SVGID_5_)}.st5{fill:url(#SVGID_6_)}.st6{fill:url(#SVGID_7_)}.st7{fill:url(#path3_fill_1_)}.st8{fill:#fff}.st9{fill:url(#path3_fill_2_)}.st10{fill:url(#path3_fill_3_)}.st11{fill:url(#path3_fill_4_)}.st12{fill:url(#path3_fill_5_)}.st13{fill:url(#path3_fill_6_)}.st14{fill:url(#path3_fill_8_)}.st15{fill:url(#SVGID_8_)}.st16{fill:url(#SVGID_9_)}.st17{fill:url(#SVGID_10_)}.st18{fill:url(#SVGID_11_)}.st19{fill:url(#SVGID_12_)}.st20{fill:url(#SVGID_13_)}.st21{fill:url(#SVGID_14_)}.st22{fill:url(#SVGID_15_)}.st23{fill:url(#SVGID_16_)}.st24{fill:url(#SVGID_17_)}.st25{fill:url(#SVGID_18_)}.st26{fill:url(#SVGID_19_)}.st27{fill:url(#SVGID_20_)}.st28{fill:url(#SVGID_21_)}.st29{fill:url(#SVGID_22_)}.st30{fill:url(#SVGID_23_)}.st31{fill:url(#SVGID_24_)}.st32{fill:url(#SVGID_25_)}.st33{fill:url(#SVGID_26_)}</style><linearGradient id="SVGID_1_" gradientUnits="userSpaceOnUse" x1="75.373" y1="1652.122" x2="76.5" y2="1652.122"><stop offset="0" stop-color="#a34496"/><stop offset="1"/></linearGradient><path class="st0" d="M75.427 50.282h1v3203.68h-1z"/><linearGradient id="SVGID_2_" gradientUnits="userSpaceOnUse" x1="31.62" y1="2528.445" x2="32.452" y2="2528.445"><stop offset="0" stop-color="#e35c67"/><stop offset="1" stop-color="#381ce2"/></linearGradient><path class="st1" d="M31.62 2527.945h44.818v1H31.62z"/><linearGradient id="SVGID_3_" gradientUnits="userSpaceOnUse" x1="21.31" y1="2528.558" x2="36.518" y2="2528.558"><stop offset="0" stop-color="#e35c67"/><stop offset="1" stop-color="#381ce2"/></linearGradient><path class="st2" d="M30.584 2528.493a3.758 3.758 0 1 1-7.516 0 3.758 3.758 0 0 1 7.516 0zm1.884.065a5.649 5.649 0 1 1-11.297-.001 5.649 5.649 0 0 1 11.297.001zm-.936.02a4.706 4.706 0 1 0-9.412 0 4.706 4.706 0 0 0 9.412 0z"/><linearGradient id="SVGID_4_" gradientUnits="userSpaceOnUse" x1="31.87" y1="2272.195" x2="32.702" y2="2272.195"><stop offset="0" stop-color="#e35c67"/><stop offset="1" stop-color="#381ce2"/></linearGradient><path class="st3" d="M31.87 2271.695h44.818v1H31.87z"/><linearGradient id="SVGID_5_" gradientUnits="userSpaceOnUse" x1="21.56" y1="2272.308" x2="36.768" y2="2272.308"><stop offset="0" stop-color="#e35c67"/><stop offset="1" stop-color="#381ce2"/></linearGradient><path class="st4" d="M30.834 2272.243a3.758 3.758 0 1 1-7.516 0 3.758 3.758 0 0 1 7.516 0zm1.884.065a5.649 5.649 0 1 1-11.297-.001 5.649 5.649 0 0 1 11.297.001zm-.936.02a4.706 4.706 0 1 0-9.412 0 4.706 4.706 0 0 0 9.412 0z"/><linearGradient id="SVGID_6_" gradientUnits="userSpaceOnUse" x1="-106.282" y1="1978.589" x2="-105.451" y2="1978.589" gradientTransform="rotate(180 7.188 1970.307)"><stop offset="0" stop-color="#e35c67"/><stop offset="1" stop-color="#381ce2"/></linearGradient><path class="st5" d="M75.84 1962.526h44.818v-1H75.84"/><linearGradient id="SVGID_7_" gradientUnits="userSpaceOnUse" x1="-116.593" y1="1978.702" x2="-101.385" y2="1978.702" gradientTransform="rotate(180 7.188 1970.307)"><stop offset="0" stop-color="#e35c67"/><stop offset="1" stop-color="#381ce2"/></linearGradient><path class="st6" d="M121.694 1961.977a3.758 3.758 0 1 1 7.516 0 3.758 3.758 0 0 1-7.516 0zm-1.884-.064a5.649 5.649 0 1 1 11.298 0 5.649 5.649 0 0 1-11.298 0zm.936-.02a4.706 4.706 0 1 0 9.412 0 4.706 4.706 0 0 0-9.412 0z"/><linearGradient id="path3_fill_1_" gradientUnits="userSpaceOnUse" x1="-196.919" y1="1912.93" x2="-195.919" y2="1912.93" gradientTransform="matrix(46.4627 51.944 46.5525 -51.8437 -79842.625 112407.266)"><stop offset="0" stop-color="#e35c67"/><stop offset="1" stop-color="#381ce2"/></linearGradient><path id="path3_fill_17_" class="st7" d="M96.5 3023.96c0 11.046-8.954 20-20 20s-20-8.954-20-20 8.954-20 20-20 20 8.954 20 20z"/><path id="path32_fill" class="st8" d="M72.983 3029.96H71.56v-9.158c0-.762.023-1.482.07-2.162-.123.123-.261.252-.413.387s-.85.706-2.092 1.714l-.773-1.002 3.401-2.628h1.23v12.849zm13.413-6.442c0 2.221-.352 3.879-1.055 4.975-.697 1.096-1.767 1.644-3.208 1.644-1.383 0-2.435-.56-3.155-1.679-.721-1.125-1.081-2.771-1.081-4.939 0-2.238.349-3.899 1.046-4.983.697-1.084 1.761-1.626 3.19-1.626 1.395 0 2.452.565 3.173 1.696.726 1.129 1.09 2.767 1.09 4.912zm-7.023 0c0 1.869.22 3.231.659 4.087.44.85 1.14 1.274 2.101 1.274.973 0 1.676-.431 2.109-1.292.439-.867.659-2.224.659-4.069s-.22-3.196-.659-4.052c-.434-.861-1.137-1.292-2.109-1.292-.961 0-1.661.425-2.101 1.274-.439.844-.659 2.2-.659 4.07z"/><g id="Group_48_"><linearGradient id="path3_fill_2_" gradientUnits="userSpaceOnUse" x1="-196.919" y1="1912.93" x2="-195.919" y2="1912.93" gradientTransform="matrix(46.4627 51.944 46.5525 -51.8437 -79843.625 112107.266)"><stop offset="0" stop-color="#e35c67"/><stop offset="1" stop-color="#381ce2"/></linearGradient><path id="path3_fill_11_" class="st9" d="M95.5 2723.96c0 11.046-8.954 20-20 20s-20-8.954-20-20 8.954-20 20-20 20 8.954 20 20z"/><path id="path24_fill" class="st8" d="M79.675 2722.595c0 5.027-1.945 7.541-5.836 7.541-.68 0-1.219-.059-1.617-.176v-1.257a5.18 5.18 0 0 0 1.6.229c1.406 0 2.467-.434 3.182-1.301.721-.873 1.113-2.209 1.178-4.008h-.105c-.322.486-.75.858-1.283 1.116-.533.252-1.134.378-1.802.378-1.137 0-2.039-.34-2.707-1.02-.668-.68-1.002-1.629-1.002-2.848 0-1.336.372-2.391 1.116-3.164.75-.773 1.734-1.16 2.953-1.16.873 0 1.635.226 2.285.677.656.445 1.16 1.099 1.512 1.96.35.856.526 1.867.526 3.033zm-4.324-4.421c-.838 0-1.485.27-1.942.809-.457.539-.686 1.289-.686 2.25 0 .844.211 1.509.633 1.995.422.48 1.063.721 1.925.721.533 0 1.022-.108 1.468-.325.451-.217.806-.513 1.063-.888s.387-.768.387-1.178c0-.615-.12-1.184-.36-1.705a2.952 2.952 0 0 0-1.011-1.23 2.512 2.512 0 0 0-1.477-.449z"/></g><linearGradient id="path3_fill_3_" gradientUnits="userSpaceOnUse" x1="-196.919" y1="1912.93" x2="-195.919" y2="1912.93" gradientTransform="matrix(46.4627 51.944 46.5525 -51.8437 -79842.625 111538.547)"><stop offset="0" stop-color="#e35c67"/><stop offset="1" stop-color="#381ce2"/></linearGradient><path id="path3_fill_19_" class="st10" d="M96.5 2155.24c0 11.046-8.954 20-20 20s-20-8.954-20-20 8.954-20 20-20 20 8.954 20 20z"/><path id="path35_fill" class="st8" d="M76.482 2148.206c1.172 0 2.101.272 2.786.817.686.545 1.028 1.298 1.028 2.259 0 .633-.196 1.21-.589 1.731s-1.02.996-1.881 1.424c1.043.498 1.784 1.022 2.224 1.573.439.545.659 1.178.659 1.898 0 1.066-.372 1.919-1.116 2.558-.744.633-1.764.949-3.059.949-1.371 0-2.426-.299-3.164-.896-.738-.604-1.107-1.456-1.107-2.558 0-1.471.896-2.616 2.689-3.437-.809-.457-1.389-.949-1.74-1.477a3.167 3.167 0 0 1-.527-1.784c0-.932.343-1.673 1.028-2.224.692-.555 1.615-.833 2.769-.833zm-2.777 9.791c0 .703.243 1.251.729 1.644.492.393 1.181.589 2.065.589.873 0 1.553-.205 2.039-.615.486-.41.729-.973.729-1.688 0-.568-.229-1.072-.686-1.512-.457-.445-1.254-.876-2.391-1.292-.873.375-1.506.791-1.898 1.248-.391.451-.587.993-.587 1.626zm2.76-8.605c-.732 0-1.307.176-1.723.527s-.624.82-.624 1.406c0 .539.173 1.002.519 1.389.346.387.984.773 1.916 1.16.838-.352 1.43-.729 1.775-1.134.352-.404.527-.876.527-1.415 0-.592-.214-1.061-.642-1.406-.421-.351-1.004-.527-1.748-.527z"/><g id="Group_19_"><linearGradient id="path3_fill_4_" gradientUnits="userSpaceOnUse" x1="-196.919" y1="1912.93" x2="-195.919" y2="1912.93" gradientTransform="matrix(46.4627 51.944 46.5525 -51.8437 -79843.625 111238.547)"><stop offset="0" stop-color="#e35c67"/><stop offset="1" stop-color="#381ce2"/></linearGradient><path id="path3_fill_9_" class="st11" d="M95.5 1855.24c0 11.046-8.954 20-20 20s-20-8.954-20-20 8.954-20 20-20 20 8.954 20 20z"/><path id="path22_fill" class="st8" d="M72.854 1861.24l5.326-11.505h-7.005v-1.345h8.552v1.169l-5.256 11.681h-1.617z"/></g><linearGradient id="path3_fill_5_" gradientUnits="userSpaceOnUse" x1="-196.919" y1="1912.93" x2="-195.919" y2="1912.93" gradientTransform="matrix(46.4627 51.944 46.5525 -51.8437 -79842.625 110932.89)"><stop offset="0" stop-color="#e35c67"/><stop offset="1" stop-color="#381ce2"/></linearGradient><path id="path3_fill_15_" class="st12" d="M96.5 1549.58c0 11.046-8.954 20-20 20s-20-8.954-20-20 8.954-20 20-20 20 8.954 20 20z"/><path id="path30_fill" class="st8" d="M72.378 1550.087c0-2.525.489-4.412 1.468-5.66.984-1.254 2.438-1.881 4.359-1.881.662 0 1.184.056 1.564.167v1.257a5.02 5.02 0 0 0-1.547-.22c-1.377 0-2.429.431-3.155 1.292-.727.855-1.125 2.203-1.195 4.043h.105c.645-1.008 1.664-1.512 3.059-1.512 1.154 0 2.062.349 2.725 1.046.668.697 1.002 1.644 1.002 2.839 0 1.336-.366 2.388-1.099 3.155-.727.762-1.711 1.143-2.953 1.143-1.33 0-2.385-.498-3.164-1.494-.779-1.002-1.169-2.394-1.169-4.175zm4.315 4.429c.832 0 1.477-.261 1.934-.782.463-.527.694-1.286.694-2.276 0-.85-.214-1.518-.642-2.004-.428-.486-1.066-.729-1.916-.729-.527 0-1.011.108-1.45.325s-.791.516-1.055.896c-.258.381-.387.776-.387 1.187 0 .604.117 1.166.352 1.688s.565.935.993 1.239c.434.304.927.456 1.477.456z"/><g id="Group_15_"><linearGradient id="path3_fill_6_" gradientUnits="userSpaceOnUse" x1="-196.919" y1="1912.93" x2="-195.919" y2="1912.93" gradientTransform="matrix(46.4627 51.944 46.5525 -51.8437 -79843.625 110632.883)"><stop offset="0" stop-color="#e35c67"/><stop offset="1" stop-color="#381ce2"/></linearGradient><path id="path3_fill_7_" class="st13" d="M95.5 1249.578c0 11.046-8.954 20-20 20s-20-8.954-20-20 8.954-20 20-20 20 8.954 20 20z"/><path id="path20_fill" class="st8" d="M75.245 1247.729c1.354 0 2.417.337 3.19 1.011.779.668 1.169 1.585 1.169 2.751 0 1.33-.425 2.373-1.274 3.129-.844.756-2.01 1.134-3.498 1.134-1.447 0-2.552-.231-3.313-.694v-1.406c.41.264.92.472 1.529.624.609.146 1.21.22 1.802.22 1.031 0 1.831-.243 2.399-.729.574-.486.861-1.189.861-2.109 0-1.793-1.099-2.689-3.296-2.689-.557 0-1.301.085-2.232.255l-.756-.483.483-6.012h6.39v1.345h-5.142l-.325 3.858a10.083 10.083 0 0 1 2.013-.205z"/></g><g id="Group_29_"><linearGradient id="path3_fill_8_" gradientUnits="userSpaceOnUse" x1="-196.921" y1="1912.928" x2="-195.921" y2="1912.928" gradientTransform="matrix(46.4627 51.944 46.5525 -51.8437 -79842.625 110332.883)"><stop offset="0" stop-color="#e35c67"/><stop offset="1" stop-color="#381ce2"/></linearGradient><path id="path3_fill_13_" class="st14" d="M96.296 949.578c0 11.046-8.954 20-20 20s-20-8.954-20-20 8.954-20 20-20 20 8.954 20 20z"/><path id="path27_fill" class="st8" d="M81.077 952.625H79.17v2.953h-1.397v-2.953h-6.249v-1.274l6.1-8.692h1.547v8.64h1.907v1.326zm-3.304-1.327v-4.272c0-.838.029-1.784.088-2.839h-.07a13.204 13.204 0 0 1-.791 1.397l-4.017 5.713h4.79z"/></g><g id="Group_11_"><linearGradient id="SVGID_8_" gradientUnits="userSpaceOnUse" x1="50.401" y1="649.578" x2="119.676" y2="649.578"><stop offset="0" stop-color="#e35c67"/><stop offset="1" stop-color="#381ce2"/></linearGradient><path class="st15" d="M95.5 649.578c0 11.046-8.954 20-20 20s-20-8.954-20-20 8.954-20 20-20 20 8.954 20 20z"/><path id="path17_fill" class="st8" d="M79.191 645.752c0 .82-.231 1.491-.694 2.013-.457.521-1.107.87-1.951 1.046v.07c1.031.129 1.796.457 2.294.984.498.527.747 1.219.747 2.074 0 1.225-.425 2.168-1.274 2.83-.85.656-2.057.984-3.621.984-.68 0-1.304-.053-1.872-.158a6.302 6.302 0 0 1-1.644-.536v-1.389a8.243 8.243 0 0 0 3.568.844c2.221 0 3.331-.87 3.331-2.61 0-1.559-1.225-2.338-3.674-2.338h-1.266v-1.257h1.283c1.002 0 1.796-.22 2.382-.659.586-.445.879-1.061.879-1.846 0-.627-.217-1.119-.65-1.477-.428-.357-1.011-.536-1.749-.536-.562 0-1.093.076-1.591.229s-1.066.434-1.705.844l-.738-.984a6.107 6.107 0 0 1 1.819-.976 6.598 6.598 0 0 1 2.18-.36c1.248 0 2.218.287 2.909.861.692.569 1.037 1.351 1.037 2.347z"/></g><g id="Group_7_"><linearGradient id="SVGID_9_" gradientUnits="userSpaceOnUse" x1="52.078" y1="342.738" x2="121.353" y2="342.738"><stop offset="0" stop-color="#e35c67"/><stop offset="1" stop-color="#381ce2"/></linearGradient><path class="st16" d="M97.176 342.737c0 11.046-8.954 20-20 20s-20-8.954-20-20 8.954-20 20-20 20 8.955 20 20z"/><path class="st8" d="M80.675 348.578h-8.446v-1.257l3.384-3.401c1.031-1.043 1.711-1.787 2.039-2.232a5.69 5.69 0 0 0 .738-1.301c.164-.422.246-.876.246-1.362 0-.686-.208-1.228-.624-1.626-.416-.404-.993-.606-1.731-.606-.533 0-1.04.088-1.521.264-.475.176-1.005.495-1.591.958l-.773-.993c1.184-.984 2.473-1.477 3.867-1.477 1.207 0 2.153.311 2.839.932.686.615 1.028 1.444 1.028 2.487 0 .814-.229 1.62-.686 2.417-.457.797-1.312 1.805-2.566 3.023l-2.812 2.751v.07h6.609v1.353z"/></g><g id="Group"><linearGradient id="SVGID_10_" gradientUnits="userSpaceOnUse" x1="50.927" y1="42.552" x2="120.202" y2="42.552"><stop offset="0" stop-color="#e35c67"/><stop offset="1" stop-color="#381ce2"/></linearGradient><path class="st17" d="M96.026 42.552c0 11.046-8.954 20-20 20s-20-8.954-20-20 8.954-20 20-20 20 8.954 20 20z"/><path id="_x31_" class="st8" d="M76.634 48.578H75.21V39.42c0-.762.023-1.482.07-2.162a9.63 9.63 0 0 1-.413.387c-.152.135-.85.706-2.092 1.714l-.773-1.002 3.401-2.628h1.23v12.849z"/></g><g><linearGradient id="SVGID_11_" gradientUnits="userSpaceOnUse" x1="30.995" y1="1654.195" x2="31.827" y2="1654.195"><stop offset="0" stop-color="#e35c67"/><stop offset="1" stop-color="#381ce2"/></linearGradient><path class="st18" d="M75.813 1653.695H30.995v1h44.818"/><linearGradient id="SVGID_12_" gradientUnits="userSpaceOnUse" x1="20.685" y1="1654.307" x2="35.893" y2="1654.307"><stop offset="0" stop-color="#e35c67"/><stop offset="1" stop-color="#381ce2"/></linearGradient><path class="st19" d="M29.959 1654.243a3.758 3.758 0 1 1-7.516 0 3.758 3.758 0 0 1 7.516 0zm1.884.064a5.649 5.649 0 1 1-11.298 0 5.649 5.649 0 0 1 11.298 0zm-.936.021a4.706 4.706 0 1 0-9.412 0 4.706 4.706 0 0 0 9.412 0z"/></g><g><linearGradient id="SVGID_13_" gradientUnits="userSpaceOnUse" x1="31.37" y1="3149.195" x2="32.202" y2="3149.195"><stop offset="0" stop-color="#e35c67"/><stop offset="1" stop-color="#381ce2"/></linearGradient><path class="st20" d="M31.37 3148.695h44.818v1H31.37z"/><linearGradient id="SVGID_14_" gradientUnits="userSpaceOnUse" x1="21.06" y1="3149.308" x2="36.268" y2="3149.308"><stop offset="0" stop-color="#e35c67"/><stop offset="1" stop-color="#381ce2"/></linearGradient><path class="st21" d="M30.334 3149.243a3.758 3.758 0 1 1-7.516 0 3.758 3.758 0 0 1 7.516 0zm1.884.065a5.649 5.649 0 1 1-11.297-.001 5.649 5.649 0 0 1 11.297.001zm-.936.02a4.706 4.706 0 1 0-9.412 0 4.706 4.706 0 0 0 9.412 0z"/></g><g><linearGradient id="SVGID_15_" gradientUnits="userSpaceOnUse" x1="-105.813" y1="1110.732" x2="-104.981" y2="1110.732" gradientTransform="rotate(180 7.188 1970.307)"><stop offset="0" stop-color="#e35c67"/><stop offset="1" stop-color="#381ce2"/></linearGradient><path class="st22" d="M75.37 2830.383h44.819v-1H75.37"/><linearGradient id="SVGID_16_" gradientUnits="userSpaceOnUse" x1="-116.123" y1="1110.845" x2="-100.915" y2="1110.845" gradientTransform="rotate(180 7.188 1970.307)"><stop offset="0" stop-color="#e35c67"/><stop offset="1" stop-color="#381ce2"/></linearGradient><path class="st23" d="M121.224 2829.834a3.758 3.758 0 1 1 7.516 0 3.758 3.758 0 0 1-7.516 0zm-1.884-.063a5.649 5.649 0 1 1 11.298 0 5.649 5.649 0 0 1-11.298 0zm.937-.021a4.706 4.706 0 1 0 9.412 0 4.706 4.706 0 0 0-9.412 0z"/></g><g><linearGradient id="SVGID_17_" gradientUnits="userSpaceOnUse" x1="-106.946" y1="2585.089" x2="-106.114" y2="2585.089" gradientTransform="rotate(180 7.188 1970.307)"><stop offset="0" stop-color="#e35c67"/><stop offset="1" stop-color="#381ce2"/></linearGradient><path class="st24" d="M76.503 1356.026h44.818v-1H76.503"/><linearGradient id="SVGID_18_" gradientUnits="userSpaceOnUse" x1="-117.256" y1="2585.202" x2="-102.048" y2="2585.202" gradientTransform="rotate(180 7.188 1970.307)"><stop offset="0" stop-color="#e35c67"/><stop offset="1" stop-color="#381ce2"/></linearGradient><path class="st25" d="M122.357 1355.477a3.758 3.758 0 1 1 7.516 0 3.758 3.758 0 0 1-7.516 0zm-1.884-.064a5.649 5.649 0 1 1 11.298 0 5.649 5.649 0 0 1-11.298 0zm.936-.02a4.706 4.706 0 1 0 9.412 0 4.706 4.706 0 0 0-9.412 0z"/></g><g><linearGradient id="SVGID_19_" gradientUnits="userSpaceOnUse" x1="31.245" y1="1055.195" x2="32.077" y2="1055.195"><stop offset="0" stop-color="#e35c67"/><stop offset="1" stop-color="#381ce2"/></linearGradient><path class="st26" d="M76.063 1054.695H31.245v1h44.818"/><linearGradient id="SVGID_20_" gradientUnits="userSpaceOnUse" x1="20.935" y1="1055.307" x2="36.143" y2="1055.307"><stop offset="0" stop-color="#e35c67"/><stop offset="1" stop-color="#381ce2"/></linearGradient><path class="st27" d="M30.209 1055.243a3.758 3.758 0 1 1-7.516 0 3.758 3.758 0 0 1 7.516 0zm1.884.064a5.649 5.649 0 1 1-11.298 0 5.649 5.649 0 0 1 11.298 0zm-.936.021a4.706 4.706 0 1 0-9.412 0 4.706 4.706 0 0 0 9.412 0z"/></g><g><linearGradient id="SVGID_21_" gradientUnits="userSpaceOnUse" x1="-106.279" y1="3185.589" x2="-105.447" y2="3185.589" gradientTransform="rotate(180 7.188 1970.307)"><stop offset="0" stop-color="#e35c67"/><stop offset="1" stop-color="#381ce2"/></linearGradient><path class="st28" d="M75.837 755.526h44.818v-1H75.837"/><linearGradient id="SVGID_22_" gradientUnits="userSpaceOnUse" x1="-116.589" y1="3185.702" x2="-101.381" y2="3185.702" gradientTransform="rotate(180 7.188 1970.307)"><stop offset="0" stop-color="#e35c67"/><stop offset="1" stop-color="#381ce2"/></linearGradient><path class="st29" d="M121.69 754.977a3.758 3.758 0 1 1 7.516 0 3.758 3.758 0 0 1-7.516 0zm-1.884-.064a5.648 5.648 0 1 1 11.297 0 5.649 5.649 0 1 1-11.297 0zm.937-.02a4.706 4.706 0 1 0 9.412 0 4.706 4.706 0 0 0-9.412 0z"/></g><g><linearGradient id="SVGID_23_" gradientUnits="userSpaceOnUse" x1="-106.127" y1="3792.538" x2="-105.295" y2="3792.538" gradientTransform="rotate(180 7.188 1970.307)"><stop offset="0" stop-color="#e35c67"/><stop offset="1" stop-color="#381ce2"/></linearGradient><path class="st30" d="M75.684 148.577h44.818v-1H75.684"/><linearGradient id="SVGID_24_" gradientUnits="userSpaceOnUse" x1="-116.437" y1="3792.65" x2="-101.229" y2="3792.65" gradientTransform="rotate(180 7.188 1970.307)"><stop offset="0" stop-color="#e35c67"/><stop offset="1" stop-color="#381ce2"/></linearGradient><path class="st31" d="M121.538 148.029a3.758 3.758 0 1 1 7.516 0 3.758 3.758 0 0 1-7.516 0zm-1.884-.064a5.649 5.649 0 1 1 11.299.001 5.649 5.649 0 0 1-11.299-.001zm.936-.02a4.706 4.706 0 1 0 9.412 0 4.706 4.706 0 0 0-9.412 0z"/></g><g><linearGradient id="SVGID_25_" gradientUnits="userSpaceOnUse" x1="30.604" y1="455.11" x2="31.436" y2="455.11"><stop offset="0" stop-color="#e35c67"/><stop offset="1" stop-color="#381ce2"/></linearGradient><path class="st32" d="M75.422 454.61H30.604v1h44.818"/><linearGradient id="SVGID_26_" gradientUnits="userSpaceOnUse" x1="20.294" y1="455.223" x2="35.502" y2="455.223"><stop offset="0" stop-color="#e35c67"/><stop offset="1" stop-color="#381ce2"/></linearGradient><path class="st33" d="M29.568 455.159a3.758 3.758 0 1 1-7.516 0 3.758 3.758 0 0 1 7.516 0zm1.884.064a5.648 5.648 0 1 1-11.297 0 5.649 5.649 0 1 1 11.297 0zm-.936.02a4.706 4.706 0 1 0-9.412 0 4.706 4.706 0 0 0 9.412 0z"/></g></svg>