<?xml version="1.0" encoding="utf-8"?>
<!-- Generator: Adobe Illustrator 21.1.0, SVG Export Plug-In . SVG Version: 6.00 Build 0)  -->
<svg version="1.1" id="Слой_1" xmlns="http://www.w3.org/2000/svg" xmlns:xlink="http://www.w3.org/1999/xlink" x="0px" y="0px"
	 viewBox="0 0 150 3292" style="enable-background:new 0 0 150 3292;" xml:space="preserve">
<style type="text/css">
	.st0{fill:url(#SVGID_1_);}
	.st1{fill:url(#SVGID_2_);}
	.st2{fill:url(#SVGID_3_);}
	.st3{fill:url(#SVGID_4_);}
	.st4{fill:url(#SVGID_5_);}
	.st5{fill:url(#SVGID_6_);}
	.st6{fill:url(#SVGID_7_);}
	.st7{fill:url(#path3_fill_1_);}
	.st8{fill:#FFFFFF;}
	.st9{fill:url(#path3_fill_2_);}
	.st10{fill:url(#path3_fill_3_);}
	.st11{fill:url(#path3_fill_4_);}
	.st12{fill:url(#path3_fill_5_);}
	.st13{fill:url(#path3_fill_6_);}
	.st14{fill:url(#path3_fill_8_);}
	.st15{fill:url(#SVGID_8_);}
	.st16{fill:url(#SVGID_9_);}
	.st17{fill:url(#SVGID_10_);}
	.st18{fill:url(#SVGID_11_);}
	.st19{fill:url(#SVGID_12_);}
	.st20{fill:url(#SVGID_13_);}
	.st21{fill:url(#SVGID_14_);}
	.st22{fill:url(#SVGID_15_);}
	.st23{fill:url(#SVGID_16_);}
	.st24{fill:url(#SVGID_17_);}
	.st25{fill:url(#SVGID_18_);}
	.st26{fill:url(#SVGID_19_);}
	.st27{fill:url(#SVGID_20_);}
	.st28{fill:url(#SVGID_21_);}
	.st29{fill:url(#SVGID_22_);}
	.st30{fill:url(#SVGID_23_);}
	.st31{fill:url(#SVGID_24_);}
	.st32{fill:url(#SVGID_25_);}
	.st33{fill:url(#SVGID_26_);}
</style>
<linearGradient id="SVGID_1_" gradientUnits="userSpaceOnUse" x1="75.3734" y1="1652.1219" x2="76.5" y2="1652.1219">
	<stop  offset="0" style="stop-color:#A34496"/>
	<stop  offset="1" style="stop-color:#000000"/>
</linearGradient>
<rect x="75.427" y="50.282" class="st0" width="1" height="3203.68"/>
<g>
	<linearGradient id="SVGID_2_" gradientUnits="userSpaceOnUse" x1="31.6201" y1="2528.4451" x2="32.4519" y2="2528.4451">
		<stop  offset="0" style="stop-color:#E35C67"/>
		<stop  offset="1" style="stop-color:#381CE2"/>
	</linearGradient>
	<rect x="31.62" y="2527.945" class="st1" width="44.818" height="1"/>
	<linearGradient id="SVGID_3_" gradientUnits="userSpaceOnUse" x1="21.31" y1="2528.5576" x2="36.518" y2="2528.5576">
		<stop  offset="0" style="stop-color:#E35C67"/>
		<stop  offset="1" style="stop-color:#381CE2"/>
	</linearGradient>
	<path class="st2" d="M30.584,2528.493c0,2.075-1.682,3.758-3.758,3.758c-2.075,0-3.758-1.682-3.758-3.758
		c0-2.075,1.682-3.758,3.758-3.758C28.902,2524.736,30.584,2526.418,30.584,2528.493z M32.468,2528.558
		c0,3.119-2.529,5.648-5.649,5.648c-3.12,0-5.648-2.529-5.648-5.648c0-3.12,2.529-5.649,5.648-5.649
		C29.94,2522.909,32.468,2525.438,32.468,2528.558z M31.532,2528.578c0-2.599-2.107-4.706-4.706-4.706
		c-2.599,0-4.706,2.107-4.706,4.706s2.107,4.706,4.706,4.706C29.425,2533.284,31.532,2531.177,31.532,2528.578z"/>
</g>
<g>
	<linearGradient id="SVGID_4_" gradientUnits="userSpaceOnUse" x1="31.8701" y1="2272.1951" x2="32.7019" y2="2272.1951">
		<stop  offset="0" style="stop-color:#E35C67"/>
		<stop  offset="1" style="stop-color:#381CE2"/>
	</linearGradient>
	<rect x="31.87" y="2271.695" class="st3" width="44.818" height="1"/>
	<linearGradient id="SVGID_5_" gradientUnits="userSpaceOnUse" x1="21.56" y1="2272.3076" x2="36.768" y2="2272.3076">
		<stop  offset="0" style="stop-color:#E35C67"/>
		<stop  offset="1" style="stop-color:#381CE2"/>
	</linearGradient>
	<path class="st4" d="M30.834,2272.243c0,2.075-1.682,3.758-3.758,3.758c-2.075,0-3.758-1.682-3.758-3.758
		c0-2.075,1.682-3.758,3.758-3.758C29.152,2268.486,30.834,2270.168,30.834,2272.243z M32.718,2272.308
		c0,3.119-2.529,5.648-5.649,5.648c-3.12,0-5.648-2.529-5.648-5.648c0-3.12,2.529-5.649,5.648-5.649
		C30.19,2266.659,32.718,2269.188,32.718,2272.308z M31.782,2272.328c0-2.599-2.107-4.706-4.706-4.706
		c-2.599,0-4.706,2.107-4.706,4.706s2.107,4.706,4.706,4.706C29.675,2277.034,31.782,2274.927,31.782,2272.328z"/>
</g>
<g>
	
		<linearGradient id="SVGID_6_" gradientUnits="userSpaceOnUse" x1="-106.2824" y1="1978.5894" x2="-105.4506" y2="1978.5894" gradientTransform="matrix(-1 0 0 -1 14.3756 3940.615)">
		<stop  offset="0" style="stop-color:#E35C67"/>
		<stop  offset="1" style="stop-color:#381CE2"/>
	</linearGradient>
	<polyline class="st5" points="75.84,1962.526 120.658,1962.526 120.658,1961.526 75.84,1961.526 	"/>
	
		<linearGradient id="SVGID_7_" gradientUnits="userSpaceOnUse" x1="-116.5925" y1="1978.7018" x2="-101.3845" y2="1978.7018" gradientTransform="matrix(-1 0 0 -1 14.3756 3940.615)">
		<stop  offset="0" style="stop-color:#E35C67"/>
		<stop  offset="1" style="stop-color:#381CE2"/>
	</linearGradient>
	<path class="st6" d="M121.694,1961.977c0-2.075,1.682-3.758,3.758-3.758c2.075,0,3.758,1.682,3.758,3.758s-1.682,3.758-3.758,3.758
		C123.376,1965.735,121.694,1964.053,121.694,1961.977z M119.81,1961.913c0-3.12,2.529-5.649,5.649-5.649
		c3.12,0,5.648,2.529,5.648,5.649s-2.529,5.649-5.648,5.649C122.339,1967.562,119.81,1965.033,119.81,1961.913z M120.746,1961.893
		c0,2.599,2.107,4.706,4.706,4.706c2.599,0,4.706-2.107,4.706-4.706c0-2.599-2.107-4.706-4.706-4.706
		C122.853,1957.187,120.746,1959.294,120.746,1961.893z"/>
</g>
<g>
	
		<linearGradient id="path3_fill_1_" gradientUnits="userSpaceOnUse" x1="-196.9189" y1="1912.9301" x2="-195.9189" y2="1912.9301" gradientTransform="matrix(46.4627 51.944 46.5525 -51.8437 -79842.625 112407.2656)">
		<stop  offset="0" style="stop-color:#E35C67"/>
		<stop  offset="1" style="stop-color:#381CE2"/>
	</linearGradient>
	<path id="path3_fill_17_" class="st7" d="M96.5,3023.96c0,11.046-8.954,20-20,20s-20-8.954-20-20s8.954-20,20-20
		S96.5,3012.914,96.5,3023.96z"/>
	<path id="path32_fill" class="st8" d="M72.983,3029.96H71.56v-9.158c0-0.762,0.023-1.482,0.07-2.162
		c-0.123,0.123-0.261,0.252-0.413,0.387s-0.85,0.706-2.092,1.714l-0.773-1.002l3.401-2.628h1.23V3029.96z M86.396,3023.518
		c0,2.221-0.352,3.879-1.055,4.975c-0.697,1.096-1.767,1.644-3.208,1.644c-1.383,0-2.435-0.56-3.155-1.679
		c-0.721-1.125-1.081-2.771-1.081-4.939c0-2.238,0.349-3.899,1.046-4.983c0.697-1.084,1.761-1.626,3.19-1.626
		c1.395,0,2.452,0.565,3.173,1.696C86.032,3019.735,86.396,3021.373,86.396,3023.518z M79.373,3023.518
		c0,1.869,0.22,3.231,0.659,4.087c0.44,0.85,1.14,1.274,2.101,1.274c0.973,0,1.676-0.431,2.109-1.292
		c0.439-0.867,0.659-2.224,0.659-4.069s-0.22-3.196-0.659-4.052c-0.434-0.861-1.137-1.292-2.109-1.292
		c-0.961,0-1.661,0.425-2.101,1.274C79.593,3020.292,79.373,3021.648,79.373,3023.518z"/>
</g>
<g id="Group_48_">
	
		<linearGradient id="path3_fill_2_" gradientUnits="userSpaceOnUse" x1="-196.9189" y1="1912.9301" x2="-195.9189" y2="1912.9301" gradientTransform="matrix(46.4627 51.944 46.5525 -51.8437 -79843.625 112107.2656)">
		<stop  offset="0" style="stop-color:#E35C67"/>
		<stop  offset="1" style="stop-color:#381CE2"/>
	</linearGradient>
	<path id="path3_fill_11_" class="st9" d="M95.5,2723.96c0,11.046-8.954,20-20,20s-20-8.954-20-20s8.954-20,20-20
		S95.5,2712.914,95.5,2723.96z"/>
	<path id="path24_fill" class="st8" d="M79.675,2722.595c0,5.027-1.945,7.541-5.836,7.541c-0.68,0-1.219-0.059-1.617-0.176v-1.257
		c0.469,0.152,1.002,0.229,1.6,0.229c1.406,0,2.467-0.434,3.182-1.301c0.721-0.873,1.113-2.209,1.178-4.008h-0.105
		c-0.322,0.486-0.75,0.858-1.283,1.116c-0.533,0.252-1.134,0.378-1.802,0.378c-1.137,0-2.039-0.34-2.707-1.02
		c-0.668-0.68-1.002-1.629-1.002-2.848c0-1.336,0.372-2.391,1.116-3.164c0.75-0.773,1.734-1.16,2.953-1.16
		c0.873,0,1.635,0.226,2.285,0.677c0.656,0.445,1.16,1.099,1.512,1.96C79.499,2720.418,79.675,2721.429,79.675,2722.595z
		 M75.351,2718.174c-0.838,0-1.485,0.27-1.942,0.809c-0.457,0.539-0.686,1.289-0.686,2.25c0,0.844,0.211,1.509,0.633,1.995
		c0.422,0.48,1.063,0.721,1.925,0.721c0.533,0,1.022-0.108,1.468-0.325c0.451-0.217,0.806-0.513,1.063-0.888
		s0.387-0.768,0.387-1.178c0-0.615-0.12-1.184-0.36-1.705c-0.24-0.521-0.577-0.932-1.011-1.23
		C76.399,2718.323,75.907,2718.174,75.351,2718.174z"/>
</g>
<g>
	
		<linearGradient id="path3_fill_3_" gradientUnits="userSpaceOnUse" x1="-196.9189" y1="1912.9301" x2="-195.9189" y2="1912.9301" gradientTransform="matrix(46.4627 51.944 46.5525 -51.8437 -79842.625 111538.5469)">
		<stop  offset="0" style="stop-color:#E35C67"/>
		<stop  offset="1" style="stop-color:#381CE2"/>
	</linearGradient>
	<path id="path3_fill_19_" class="st10" d="M96.5,2155.24c0,11.046-8.954,20-20,20s-20-8.954-20-20s8.954-20,20-20
		S96.5,2144.194,96.5,2155.24z"/>
	<path id="path35_fill" class="st8" d="M76.482,2148.206c1.172,0,2.101,0.272,2.786,0.817c0.686,0.545,1.028,1.298,1.028,2.259
		c0,0.633-0.196,1.21-0.589,1.731s-1.02,0.996-1.881,1.424c1.043,0.498,1.784,1.022,2.224,1.573
		c0.439,0.545,0.659,1.178,0.659,1.898c0,1.066-0.372,1.919-1.116,2.558c-0.744,0.633-1.764,0.949-3.059,0.949
		c-1.371,0-2.426-0.299-3.164-0.896c-0.738-0.604-1.107-1.456-1.107-2.558c0-1.471,0.896-2.616,2.689-3.437
		c-0.809-0.457-1.389-0.949-1.74-1.477c-0.352-0.533-0.527-1.128-0.527-1.784c0-0.932,0.343-1.673,1.028-2.224
		C74.405,2148.484,75.328,2148.206,76.482,2148.206z M73.705,2157.997c0,0.703,0.243,1.251,0.729,1.644
		c0.492,0.393,1.181,0.589,2.065,0.589c0.873,0,1.553-0.205,2.039-0.615c0.486-0.41,0.729-0.973,0.729-1.688
		c0-0.568-0.229-1.072-0.686-1.512c-0.457-0.445-1.254-0.876-2.391-1.292c-0.873,0.375-1.506,0.791-1.898,1.248
		C73.901,2156.822,73.705,2157.364,73.705,2157.997z M76.465,2149.392c-0.732,0-1.307,0.176-1.723,0.527s-0.624,0.82-0.624,1.406
		c0,0.539,0.173,1.002,0.519,1.389c0.346,0.387,0.984,0.773,1.916,1.16c0.838-0.352,1.43-0.729,1.775-1.134
		c0.352-0.404,0.527-0.876,0.527-1.415c0-0.592-0.214-1.061-0.642-1.406C77.792,2149.568,77.209,2149.392,76.465,2149.392z"/>
</g>
<g id="Group_19_">
	
		<linearGradient id="path3_fill_4_" gradientUnits="userSpaceOnUse" x1="-196.9189" y1="1912.9301" x2="-195.9189" y2="1912.9301" gradientTransform="matrix(46.4627 51.944 46.5525 -51.8437 -79843.625 111238.5469)">
		<stop  offset="0" style="stop-color:#E35C67"/>
		<stop  offset="1" style="stop-color:#381CE2"/>
	</linearGradient>
	<path id="path3_fill_9_" class="st11" d="M95.5,1855.24c0,11.046-8.954,20-20,20s-20-8.954-20-20s8.954-20,20-20
		S95.5,1844.194,95.5,1855.24z"/>
	<path id="path22_fill" class="st8" d="M72.854,1861.24l5.326-11.505h-7.005v-1.345h8.552v1.169l-5.256,11.681H72.854z"/>
</g>
<g>
	
		<linearGradient id="path3_fill_5_" gradientUnits="userSpaceOnUse" x1="-196.9189" y1="1912.9301" x2="-195.9189" y2="1912.9301" gradientTransform="matrix(46.4627 51.944 46.5525 -51.8437 -79842.625 110932.8906)">
		<stop  offset="0" style="stop-color:#E35C67"/>
		<stop  offset="1" style="stop-color:#381CE2"/>
	</linearGradient>
	<path id="path3_fill_15_" class="st12" d="M96.5,1549.58c0,11.046-8.954,20-20,20s-20-8.954-20-20s8.954-20,20-20
		S96.5,1538.534,96.5,1549.58z"/>
	<path id="path30_fill" class="st8" d="M72.378,1550.087c0-2.525,0.489-4.412,1.468-5.66c0.984-1.254,2.438-1.881,4.359-1.881
		c0.662,0,1.184,0.056,1.564,0.167v1.257c-0.451-0.146-0.967-0.22-1.547-0.22c-1.377,0-2.429,0.431-3.155,1.292
		c-0.727,0.855-1.125,2.203-1.195,4.043h0.105c0.645-1.008,1.664-1.512,3.059-1.512c1.154,0,2.062,0.349,2.725,1.046
		c0.668,0.697,1.002,1.644,1.002,2.839c0,1.336-0.366,2.388-1.099,3.155c-0.727,0.762-1.711,1.143-2.953,1.143
		c-1.33,0-2.385-0.498-3.164-1.494C72.768,1553.26,72.378,1551.868,72.378,1550.087z M76.693,1554.516
		c0.832,0,1.477-0.261,1.934-0.782c0.463-0.527,0.694-1.286,0.694-2.276c0-0.85-0.214-1.518-0.642-2.004
		c-0.428-0.486-1.066-0.729-1.916-0.729c-0.527,0-1.011,0.108-1.45,0.325s-0.791,0.516-1.055,0.896
		c-0.258,0.381-0.387,0.776-0.387,1.187c0,0.604,0.117,1.166,0.352,1.688s0.565,0.935,0.993,1.239
		C75.65,1554.364,76.143,1554.516,76.693,1554.516z"/>
</g>
<g id="Group_15_">
	
		<linearGradient id="path3_fill_6_" gradientUnits="userSpaceOnUse" x1="-196.9189" y1="1912.9301" x2="-195.9189" y2="1912.9301" gradientTransform="matrix(46.4627 51.944 46.5525 -51.8437 -79843.625 110632.8828)">
		<stop  offset="0" style="stop-color:#E35C67"/>
		<stop  offset="1" style="stop-color:#381CE2"/>
	</linearGradient>
	<path id="path3_fill_7_" class="st13" d="M95.5,1249.578c0,11.046-8.954,20-20,20s-20-8.954-20-20s8.954-20,20-20
		S95.5,1238.532,95.5,1249.578z"/>
	<path id="path20_fill" class="st8" d="M75.245,1247.729c1.354,0,2.417,0.337,3.19,1.011c0.779,0.668,1.169,1.585,1.169,2.751
		c0,1.33-0.425,2.373-1.274,3.129c-0.844,0.756-2.01,1.134-3.498,1.134c-1.447,0-2.552-0.231-3.313-0.694v-1.406
		c0.41,0.264,0.92,0.472,1.529,0.624c0.609,0.146,1.21,0.22,1.802,0.22c1.031,0,1.831-0.243,2.399-0.729
		c0.574-0.486,0.861-1.189,0.861-2.109c0-1.793-1.099-2.689-3.296-2.689c-0.557,0-1.301,0.085-2.232,0.255l-0.756-0.483l0.483-6.012
		h6.39v1.345h-5.142l-0.325,3.858C73.906,1247.797,74.577,1247.729,75.245,1247.729z"/>
</g>
<g id="Group_29_">
	
		<linearGradient id="path3_fill_8_" gradientUnits="userSpaceOnUse" x1="-196.9211" y1="1912.9279" x2="-195.9211" y2="1912.9279" gradientTransform="matrix(46.4627 51.944 46.5525 -51.8437 -79842.625 110332.8828)">
		<stop  offset="0" style="stop-color:#E35C67"/>
		<stop  offset="1" style="stop-color:#381CE2"/>
	</linearGradient>
	<path id="path3_fill_13_" class="st14" d="M96.296,949.578c0,11.046-8.954,20-20,20s-20-8.954-20-20s8.954-20,20-20
		S96.296,938.532,96.296,949.578z"/>
	<path id="path27_fill" class="st8" d="M81.077,952.625H79.17v2.953h-1.397v-2.953h-6.249v-1.274l6.1-8.692h1.547v8.64h1.907
		V952.625z M77.773,951.298v-4.272c0-0.838,0.029-1.784,0.088-2.839h-0.07c-0.281,0.562-0.545,1.028-0.791,1.397l-4.017,5.713
		H77.773z"/>
</g>
<g id="Group_11_">
	<linearGradient id="SVGID_8_" gradientUnits="userSpaceOnUse" x1="50.4013" y1="649.5781" x2="119.6762" y2="649.5781">
		<stop  offset="0" style="stop-color:#E35C67"/>
		<stop  offset="1" style="stop-color:#381CE2"/>
	</linearGradient>
	<path class="st15" d="M95.5,649.578c0,11.046-8.954,20-20,20s-20-8.954-20-20c0-11.046,8.954-20,20-20S95.5,638.532,95.5,649.578z"
		/>
	<path id="path17_fill" class="st8" d="M79.191,645.752c0,0.82-0.231,1.491-0.694,2.013c-0.457,0.521-1.107,0.87-1.951,1.046v0.07
		c1.031,0.129,1.796,0.457,2.294,0.984c0.498,0.527,0.747,1.219,0.747,2.074c0,1.225-0.425,2.168-1.274,2.83
		c-0.85,0.656-2.057,0.984-3.621,0.984c-0.68,0-1.304-0.053-1.872-0.158c-0.562-0.1-1.11-0.278-1.644-0.536v-1.389
		c0.557,0.275,1.148,0.486,1.775,0.633c0.633,0.141,1.23,0.211,1.793,0.211c2.221,0,3.331-0.87,3.331-2.61
		c0-1.559-1.225-2.338-3.674-2.338h-1.266v-1.257h1.283c1.002,0,1.796-0.22,2.382-0.659c0.586-0.445,0.879-1.061,0.879-1.846
		c0-0.627-0.217-1.119-0.65-1.477c-0.428-0.357-1.011-0.536-1.749-0.536c-0.562,0-1.093,0.076-1.591,0.229s-1.066,0.434-1.705,0.844
		l-0.738-0.984c0.527-0.416,1.134-0.741,1.819-0.976c0.691-0.24,1.418-0.36,2.18-0.36c1.248,0,2.218,0.287,2.909,0.861
		C78.846,643.974,79.191,644.756,79.191,645.752z"/>
</g>
<g id="Group_7_">
	<linearGradient id="SVGID_9_" gradientUnits="userSpaceOnUse" x1="52.0776" y1="342.7375" x2="121.3525" y2="342.7375">
		<stop  offset="0" style="stop-color:#E35C67"/>
		<stop  offset="1" style="stop-color:#381CE2"/>
	</linearGradient>
	<path class="st16" d="M97.176,342.737c0,11.046-8.954,20-20,20s-20-8.954-20-20c0-11.046,8.954-20,20-20
		S97.176,331.692,97.176,342.737z"/>
	<path class="st8" d="M80.675,348.578h-8.446v-1.257l3.384-3.401c1.031-1.043,1.711-1.787,2.039-2.232
		c0.328-0.445,0.574-0.879,0.738-1.301c0.164-0.422,0.246-0.876,0.246-1.362c0-0.686-0.208-1.228-0.624-1.626
		c-0.416-0.404-0.993-0.606-1.731-0.606c-0.533,0-1.04,0.088-1.521,0.264c-0.475,0.176-1.005,0.495-1.591,0.958l-0.773-0.993
		c1.184-0.984,2.473-1.477,3.867-1.477c1.207,0,2.153,0.311,2.839,0.932c0.686,0.615,1.028,1.444,1.028,2.487
		c0,0.814-0.229,1.62-0.686,2.417c-0.457,0.797-1.312,1.805-2.566,3.023l-2.812,2.751v0.07h6.609V348.578z"/>
</g>
<g id="Group">
	<linearGradient id="SVGID_10_" gradientUnits="userSpaceOnUse" x1="50.9274" y1="42.5517" x2="120.2023" y2="42.5517">
		<stop  offset="0" style="stop-color:#E35C67"/>
		<stop  offset="1" style="stop-color:#381CE2"/>
	</linearGradient>
	<path class="st17" d="M96.026,42.552c0,11.046-8.954,20-20,20s-20-8.954-20-20c0-11.046,8.954-20,20-20
		S96.026,31.506,96.026,42.552z"/>
	<path id="_x31_" class="st8" d="M76.634,48.578H75.21V39.42c0-0.762,0.023-1.482,0.07-2.162c-0.123,0.123-0.261,0.252-0.413,0.387
		c-0.152,0.135-0.85,0.706-2.092,1.714l-0.773-1.002l3.401-2.628h1.23V48.578z"/>
</g>
<g>
	<linearGradient id="SVGID_11_" gradientUnits="userSpaceOnUse" x1="30.9951" y1="1654.1951" x2="31.8269" y2="1654.1951">
		<stop  offset="0" style="stop-color:#E35C67"/>
		<stop  offset="1" style="stop-color:#381CE2"/>
	</linearGradient>
	<polyline class="st18" points="75.813,1653.695 30.995,1653.695 30.995,1654.695 75.813,1654.695 	"/>
	<linearGradient id="SVGID_12_" gradientUnits="userSpaceOnUse" x1="20.685" y1="1654.3075" x2="35.893" y2="1654.3075">
		<stop  offset="0" style="stop-color:#E35C67"/>
		<stop  offset="1" style="stop-color:#381CE2"/>
	</linearGradient>
	<path class="st19" d="M29.959,1654.243c0,2.075-1.682,3.758-3.758,3.758c-2.075,0-3.758-1.682-3.758-3.758
		c0-2.075,1.682-3.758,3.758-3.758C28.277,1650.486,29.959,1652.168,29.959,1654.243z M31.843,1654.307
		c0,3.12-2.529,5.649-5.649,5.649c-3.12,0-5.648-2.529-5.648-5.649s2.529-5.649,5.648-5.649
		C29.315,1648.659,31.843,1651.188,31.843,1654.307z M30.907,1654.328c0-2.599-2.107-4.706-4.706-4.706
		c-2.599,0-4.706,2.107-4.706,4.706c0,2.599,2.107,4.706,4.706,4.706C28.8,1659.034,30.907,1656.927,30.907,1654.328z"/>
</g>
<g>
	<linearGradient id="SVGID_13_" gradientUnits="userSpaceOnUse" x1="31.3701" y1="3149.1951" x2="32.2019" y2="3149.1951">
		<stop  offset="0" style="stop-color:#E35C67"/>
		<stop  offset="1" style="stop-color:#381CE2"/>
	</linearGradient>
	<rect x="31.37" y="3148.695" class="st20" width="44.818" height="1"/>
	<linearGradient id="SVGID_14_" gradientUnits="userSpaceOnUse" x1="21.06" y1="3149.3076" x2="36.268" y2="3149.3076">
		<stop  offset="0" style="stop-color:#E35C67"/>
		<stop  offset="1" style="stop-color:#381CE2"/>
	</linearGradient>
	<path class="st21" d="M30.334,3149.243c0,2.075-1.682,3.758-3.758,3.758c-2.075,0-3.758-1.682-3.758-3.758
		c0-2.075,1.682-3.758,3.758-3.758C28.652,3145.486,30.334,3147.168,30.334,3149.243z M32.218,3149.308
		c0,3.119-2.529,5.648-5.649,5.648c-3.12,0-5.648-2.529-5.648-5.648c0-3.12,2.529-5.649,5.648-5.649
		C29.69,3143.659,32.218,3146.188,32.218,3149.308z M31.282,3149.328c0-2.599-2.107-4.706-4.706-4.706
		c-2.599,0-4.706,2.107-4.706,4.706s2.107,4.706,4.706,4.706C29.175,3154.034,31.282,3151.927,31.282,3149.328z"/>
</g>
<g>
	
		<linearGradient id="SVGID_15_" gradientUnits="userSpaceOnUse" x1="-105.813" y1="1110.7322" x2="-104.9811" y2="1110.7322" gradientTransform="matrix(-1 0 0 -1 14.3756 3940.615)">
		<stop  offset="0" style="stop-color:#E35C67"/>
		<stop  offset="1" style="stop-color:#381CE2"/>
	</linearGradient>
	<polyline class="st22" points="75.37,2830.383 120.189,2830.383 120.189,2829.383 75.37,2829.383 	"/>
	
		<linearGradient id="SVGID_16_" gradientUnits="userSpaceOnUse" x1="-116.1231" y1="1110.8446" x2="-100.9151" y2="1110.8446" gradientTransform="matrix(-1 0 0 -1 14.3756 3940.615)">
		<stop  offset="0" style="stop-color:#E35C67"/>
		<stop  offset="1" style="stop-color:#381CE2"/>
	</linearGradient>
	<path class="st23" d="M121.224,2829.834c0-2.075,1.682-3.758,3.758-3.758c2.075,0,3.758,1.682,3.758,3.758
		c0,2.075-1.682,3.758-3.758,3.758C122.907,2833.592,121.224,2831.91,121.224,2829.834z M119.34,2829.771
		c0-3.12,2.529-5.649,5.649-5.649c3.12,0,5.648,2.529,5.648,5.649s-2.529,5.648-5.648,5.648
		C121.869,2835.419,119.34,2832.89,119.34,2829.771z M120.277,2829.75c0,2.599,2.107,4.706,4.706,4.706
		c2.599,0,4.706-2.107,4.706-4.706c0-2.599-2.107-4.706-4.706-4.706C122.384,2825.044,120.277,2827.151,120.277,2829.75z"/>
</g>
<g>
	
		<linearGradient id="SVGID_17_" gradientUnits="userSpaceOnUse" x1="-106.9458" y1="2585.0894" x2="-106.114" y2="2585.0894" gradientTransform="matrix(-1 0 0 -1 14.3756 3940.615)">
		<stop  offset="0" style="stop-color:#E35C67"/>
		<stop  offset="1" style="stop-color:#381CE2"/>
	</linearGradient>
	<polyline class="st24" points="76.503,1356.026 121.321,1356.026 121.321,1355.026 76.503,1355.026 	"/>
	
		<linearGradient id="SVGID_18_" gradientUnits="userSpaceOnUse" x1="-117.2559" y1="2585.2017" x2="-102.0479" y2="2585.2017" gradientTransform="matrix(-1 0 0 -1 14.3756 3940.615)">
		<stop  offset="0" style="stop-color:#E35C67"/>
		<stop  offset="1" style="stop-color:#381CE2"/>
	</linearGradient>
	<path class="st25" d="M122.357,1355.477c0-2.075,1.682-3.758,3.758-3.758c2.075,0,3.758,1.682,3.758,3.758
		s-1.682,3.758-3.758,3.758C124.039,1359.235,122.357,1357.553,122.357,1355.477z M120.473,1355.413c0-3.12,2.529-5.649,5.649-5.649
		c3.12,0,5.649,2.529,5.649,5.649s-2.529,5.649-5.649,5.649C123.002,1361.062,120.473,1358.533,120.473,1355.413z M121.409,1355.393
		c0,2.599,2.107,4.706,4.706,4.706c2.599,0,4.706-2.107,4.706-4.706c0-2.599-2.107-4.706-4.706-4.706
		C123.516,1350.687,121.409,1352.794,121.409,1355.393z"/>
</g>
<g>
	<linearGradient id="SVGID_19_" gradientUnits="userSpaceOnUse" x1="31.2451" y1="1055.1951" x2="32.0769" y2="1055.1951">
		<stop  offset="0" style="stop-color:#E35C67"/>
		<stop  offset="1" style="stop-color:#381CE2"/>
	</linearGradient>
	<polyline class="st26" points="76.063,1054.695 31.245,1054.695 31.245,1055.695 76.063,1055.695 	"/>
	<linearGradient id="SVGID_20_" gradientUnits="userSpaceOnUse" x1="20.935" y1="1055.3075" x2="36.143" y2="1055.3075">
		<stop  offset="0" style="stop-color:#E35C67"/>
		<stop  offset="1" style="stop-color:#381CE2"/>
	</linearGradient>
	<path class="st27" d="M30.209,1055.243c0,2.075-1.682,3.758-3.758,3.758c-2.075,0-3.758-1.682-3.758-3.758
		c0-2.075,1.682-3.758,3.758-3.758C28.527,1051.486,30.209,1053.168,30.209,1055.243z M32.093,1055.307
		c0,3.12-2.529,5.649-5.649,5.649c-3.12,0-5.648-2.529-5.648-5.649s2.529-5.649,5.648-5.649
		C29.565,1049.659,32.093,1052.188,32.093,1055.307z M31.157,1055.328c0-2.599-2.107-4.706-4.706-4.706
		c-2.599,0-4.706,2.107-4.706,4.706c0,2.599,2.107,4.706,4.706,4.706C29.05,1060.034,31.157,1057.927,31.157,1055.328z"/>
</g>
<g>
	
		<linearGradient id="SVGID_21_" gradientUnits="userSpaceOnUse" x1="-106.2791" y1="3185.5894" x2="-105.4473" y2="3185.5894" gradientTransform="matrix(-1 0 0 -1 14.3756 3940.615)">
		<stop  offset="0" style="stop-color:#E35C67"/>
		<stop  offset="1" style="stop-color:#381CE2"/>
	</linearGradient>
	<polyline class="st28" points="75.837,755.526 120.655,755.526 120.655,754.526 75.837,754.526 	"/>
	
		<linearGradient id="SVGID_22_" gradientUnits="userSpaceOnUse" x1="-116.5893" y1="3185.7017" x2="-101.3812" y2="3185.7017" gradientTransform="matrix(-1 0 0 -1 14.3756 3940.615)">
		<stop  offset="0" style="stop-color:#E35C67"/>
		<stop  offset="1" style="stop-color:#381CE2"/>
	</linearGradient>
	<path class="st29" d="M121.69,754.977c0-2.075,1.682-3.758,3.758-3.758c2.075,0,3.758,1.682,3.758,3.758
		c0,2.075-1.682,3.758-3.758,3.758C123.373,758.735,121.69,757.053,121.69,754.977z M119.806,754.913
		c0-3.12,2.529-5.648,5.649-5.648c3.12,0,5.648,2.529,5.648,5.648c0,3.12-2.529,5.649-5.648,5.649
		C122.335,760.562,119.806,758.033,119.806,754.913z M120.743,754.893c0,2.599,2.107,4.706,4.706,4.706
		c2.599,0,4.706-2.107,4.706-4.706c0-2.599-2.107-4.706-4.706-4.706C122.85,750.187,120.743,752.294,120.743,754.893z"/>
</g>
<g>
	
		<linearGradient id="SVGID_23_" gradientUnits="userSpaceOnUse" x1="-106.1268" y1="3792.5376" x2="-105.295" y2="3792.5376" gradientTransform="matrix(-1 0 0 -1 14.3756 3940.615)">
		<stop  offset="0" style="stop-color:#E35C67"/>
		<stop  offset="1" style="stop-color:#381CE2"/>
	</linearGradient>
	<polyline class="st30" points="75.684,148.577 120.502,148.577 120.502,147.577 75.684,147.577 	"/>
	
		<linearGradient id="SVGID_24_" gradientUnits="userSpaceOnUse" x1="-116.4369" y1="3792.6499" x2="-101.2289" y2="3792.6499" gradientTransform="matrix(-1 0 0 -1 14.3756 3940.615)">
		<stop  offset="0" style="stop-color:#E35C67"/>
		<stop  offset="1" style="stop-color:#381CE2"/>
	</linearGradient>
	<path class="st31" d="M121.538,148.029c0-2.075,1.682-3.758,3.758-3.758c2.075,0,3.758,1.682,3.758,3.758
		c0,2.075-1.682,3.758-3.758,3.758C123.22,151.787,121.538,150.104,121.538,148.029z M119.654,147.965
		c0-3.12,2.529-5.648,5.649-5.648c3.12,0,5.649,2.529,5.649,5.648c0,3.12-2.529,5.649-5.649,5.649
		C122.183,153.614,119.654,151.085,119.654,147.965z M120.59,147.945c0,2.599,2.107,4.706,4.706,4.706
		c2.599,0,4.706-2.107,4.706-4.706c0-2.599-2.107-4.706-4.706-4.706C122.697,143.239,120.59,145.346,120.59,147.945z"/>
</g>
<g>
	<linearGradient id="SVGID_25_" gradientUnits="userSpaceOnUse" x1="30.6038" y1="455.1104" x2="31.4357" y2="455.1104">
		<stop  offset="0" style="stop-color:#E35C67"/>
		<stop  offset="1" style="stop-color:#381CE2"/>
	</linearGradient>
	<polyline class="st32" points="75.422,454.61 30.604,454.61 30.604,455.61 75.422,455.61 	"/>
	<linearGradient id="SVGID_26_" gradientUnits="userSpaceOnUse" x1="20.2937" y1="455.2229" x2="35.5017" y2="455.2229">
		<stop  offset="0" style="stop-color:#E35C67"/>
		<stop  offset="1" style="stop-color:#381CE2"/>
	</linearGradient>
	<path class="st33" d="M29.568,455.159c0,2.075-1.682,3.758-3.758,3.758c-2.075,0-3.758-1.682-3.758-3.758
		c0-2.075,1.682-3.758,3.758-3.758C27.886,451.401,29.568,453.083,29.568,455.159z M31.452,455.223c0,3.12-2.529,5.648-5.649,5.648
		c-3.12,0-5.648-2.529-5.648-5.648c0-3.12,2.529-5.649,5.648-5.649C28.923,449.574,31.452,452.103,31.452,455.223z M30.516,455.243
		c0-2.599-2.107-4.706-4.706-4.706c-2.599,0-4.706,2.107-4.706,4.706c0,2.599,2.107,4.706,4.706,4.706
		C28.409,459.949,30.516,457.842,30.516,455.243z"/>
</g>
</svg>
