<?xml version="1.0" encoding="utf-8"?>
<!-- Generator: Adobe Illustrator 21.1.0, SVG Export Plug-In . SVG Version: 6.00 Build 0)  -->
<svg version="1.1" id="Слой_1" xmlns="http://www.w3.org/2000/svg" xmlns:xlink="http://www.w3.org/1999/xlink" x="0px" y="0px"
	 viewBox="0 0 512 512" style="enable-background:new 0 0 512 512;" xml:space="preserve">
<style type="text/css">
	.st0{fill:url(#SVGID_1_);}
</style>
<linearGradient id="SVGID_1_" gradientUnits="userSpaceOnUse" x1="-26.3925" y1="255.9983" x2="693.8282" y2="255.9983">
	<stop  offset="0" style="stop-color:#E35C67"/>
	<stop  offset="1" style="stop-color:#381CE2"/>
</linearGradient>
<path class="st0" d="M424.578,344.826l-53.176,95.862h-15.737l53.176-95.862H424.578z M356.518,403.642
	c-7.213,0-12.786-2.579-16.72-7.737c-3.934-5.202-5.901-12.699-5.901-22.49c0-19.977,7.54-29.966,22.621-29.966
	c7.387,0,13.048,2.601,16.982,7.803c3.978,5.158,5.967,12.546,5.967,22.163c0,10.054-1.945,17.616-5.836,22.686
	C369.741,401.129,364.036,403.642,356.518,403.642z M356.649,390.069c4.196,0,6.295-5.508,6.295-16.523
	c0-10.928-2.098-16.392-6.295-16.392c-2.186,0-3.781,1.355-4.787,4.065c-0.961,2.667-1.443,6.776-1.443,12.327
	c0,5.552,0.481,9.704,1.443,12.459C352.868,388.714,354.463,390.069,356.649,390.069z M440.643,389.545
	c3.978,5.158,5.966,12.545,5.966,22.163c0,10.01-1.945,17.55-5.835,22.621c-3.89,5.026-9.595,7.54-17.113,7.54
	c-7.213,0-12.786-2.579-16.721-7.737c-3.934-5.201-5.901-12.677-5.901-22.425c0-19.977,7.54-29.966,22.622-29.966
	C431.048,381.742,436.708,384.343,440.643,389.545z M430.086,411.838c0-10.928-2.098-16.392-6.295-16.392
	c-2.185,0-3.781,1.354-4.787,4.065c-0.962,2.667-1.443,6.775-1.443,12.326c0,5.552,0.481,9.705,1.443,12.459
	c1.006,2.71,2.601,4.065,4.787,4.065C427.988,428.362,430.086,422.854,430.086,411.838z M146.333,67.803
	c-4.332,0-7.833,3.504-7.833,7.84c0,4.336,3.501,7.842,7.833,7.842c4.332,0,7.833-3.504,7.833-7.841S150.665,67.803,146.333,67.803z
	 M162.283,107.011c4.332,0,7.833-3.505,7.833-7.841c0-4.336-3.501-7.842-7.833-7.842c-4.332,0-7.833,3.505-7.833,7.841
	C154.45,103.505,157.951,107.011,162.283,107.011z M130.4,91.328c-4.332,0-7.833,3.505-7.833,7.841c0,4.336,3.501,7.841,7.833,7.841
	c4.332,0,7.833-3.504,7.833-7.841C138.233,94.833,134.732,91.328,130.4,91.328z M146.333,114.853c-4.332,0-7.833,3.504-7.833,7.841
	s3.501,7.841,7.833,7.841c4.332,0,7.833-3.505,7.833-7.841S150.665,114.853,146.333,114.853z M115.286,130.535
	c4.332,0,7.833-3.505,7.833-7.841s-3.501-7.841-7.833-7.841c-4.332,0-7.833,3.504-7.833,7.841S110.954,130.535,115.286,130.535z
	 M162.283,154.061c4.332,0,7.833-3.505,7.833-7.841s-3.501-7.842-7.833-7.842c-4.332,0-7.833,3.505-7.833,7.841
	C154.45,150.556,157.951,154.061,162.283,154.061z M130.4,138.378c-4.332,0-7.833,3.505-7.833,7.841
	c0,4.336,3.501,7.841,7.833,7.841c4.332,0,7.833-3.504,7.833-7.841C138.233,141.883,134.732,138.378,130.4,138.378z
	 M177.396,161.903c-4.332,0-7.833,3.505-7.833,7.841s3.501,7.841,7.833,7.841c4.332,0,7.833-3.504,7.833-7.841
	S181.729,161.903,177.396,161.903z M146.333,161.903c-4.332,0-7.833,3.504-7.833,7.84c0,4.336,3.501,7.842,7.833,7.842
	c4.332,0,7.833-3.504,7.833-7.841S150.665,161.903,146.333,161.903z M193.346,185.42c-4.332,0-7.833,3.505-7.833,7.841
	s3.501,7.841,7.833,7.841c4.332,0,7.833-3.504,7.833-7.841S197.678,185.42,193.346,185.42z M162.283,185.42
	c-4.332,0-7.833,3.505-7.833,7.841s3.501,7.841,7.833,7.841c4.332,0,7.833-3.504,7.833-7.841S166.615,185.42,162.283,185.42z
	 M209.279,208.945c-4.332,0-7.833,3.505-7.833,7.841c0,4.335,3.501,7.841,7.833,7.841c4.332,0,7.833-3.505,7.833-7.841
	S213.612,208.945,209.279,208.945z M177.396,208.946c-4.332,0-7.833,3.504-7.833,7.841s3.501,7.841,7.833,7.841
	c4.332,0,7.833-3.505,7.833-7.841S181.729,208.946,177.396,208.946z M146.333,208.946c-4.332,0-7.833,3.504-7.833,7.841
	s3.501,7.841,7.833,7.841c4.332,0,7.833-3.505,7.833-7.841C154.167,212.45,150.665,208.946,146.333,208.946z M115.286,208.946
	c-4.332,0-7.833,3.504-7.833,7.841s3.501,7.841,7.833,7.841c4.332,0,7.833-3.505,7.833-7.841S119.618,208.946,115.286,208.946z
	 M83.387,208.946c-4.332,0-7.833,3.504-7.833,7.841s3.501,7.841,7.833,7.841c4.332,0,7.833-3.505,7.833-7.841
	S87.719,208.946,83.387,208.946z M130.4,185.42c-4.332,0-7.833,3.505-7.833,7.841s3.501,7.841,7.833,7.841
	c4.332,0,7.833-3.504,7.833-7.841S134.732,185.42,130.4,185.42z M99.336,185.42c-4.332,0-7.833,3.505-7.833,7.841
	s3.501,7.841,7.833,7.841c4.332,0,7.833-3.504,7.833-7.841S103.668,185.42,99.336,185.42z M68.289,185.42
	c-4.332,0-7.833,3.505-7.833,7.841s3.501,7.841,7.833,7.841c4.332,0,7.833-3.504,7.833-7.841S72.621,185.42,68.289,185.42z
	 M115.286,177.585c4.332,0,7.833-3.504,7.833-7.841s-3.501-7.841-7.833-7.841c-4.332,0-7.833,3.505-7.833,7.841
	S110.954,177.585,115.286,177.585z M83.387,161.903c-4.332,0-7.833,3.505-7.833,7.841s3.501,7.841,7.833,7.841
	c4.332,0,7.833-3.504,7.833-7.841S87.719,161.903,83.387,161.903z M99.336,138.378c-4.332,0-7.833,3.505-7.833,7.841
	c0,4.336,3.501,7.842,7.833,7.842c4.332,0,7.833-3.505,7.833-7.841S103.668,138.378,99.336,138.378z M52.34,208.946
	c-4.332,0-7.833,3.504-7.833,7.841s3.501,7.841,7.833,7.841c4.332,0,7.833-3.505,7.833-7.841
	C60.173,212.45,56.672,208.946,52.34,208.946z M491,389.3c0,56.206-45.684,101.936-101.833,101.936
	c-33.683,0-63.595-16.46-82.143-41.762c-21.567,6.895-43.975,10.398-66.691,10.398C119.394,459.872,21,361.378,21,240.315
	C21,148.063,78.142,68.927,158.853,36.48c0.01-0.004,0.018-0.009,0.03-0.014c0.007-0.003,0.015-0.005,0.024-0.008
	c25.189-10.118,52.668-15.698,81.427-15.698c120.939,0,219.334,98.494,219.334,219.556c0,22.738-3.499,45.169-10.388,66.758
	C474.556,325.641,491,355.583,491,389.3z M36.832,232.475h191.931l-22.073-55.235c-3.202-0.985-5.524-3.964-5.524-7.496
	c0-1.391,0.364-2.697,0.999-3.83l-5.111-12.79c-1.107,0.598-2.373,0.938-3.721,0.938c-4.332,0-7.833-3.505-7.833-7.841
	c0-3.623,2.446-6.656,5.775-7.559l-5.882-14.722c-0.595,3.743-3.818,6.599-7.726,6.599c-4.332,0-7.833-3.504-7.833-7.841
	c0-4.337,3.501-7.842,7.833-7.842c1.783,0,3.42,0.601,4.736,1.603L157.48,54.091c-12.295,5.503-23.953,12.185-34.822,19.913
	c0.113,0.531,0.175,1.081,0.175,1.646c0,4.336-3.501,7.841-7.833,7.841c-1.299,0-2.519-0.321-3.597-0.879
	c-3.499,2.872-6.895,5.861-10.194,8.955c3.422,0.842,5.958,3.919,5.958,7.607c0,4.336-3.501,7.841-7.833,7.841
	c-3.684,0-6.759-2.538-7.599-5.963c-4.78,5.107-9.302,10.459-13.543,16.039c1.412-1.381,3.341-2.234,5.475-2.234
	c4.332,0,7.833,3.505,7.833,7.842c0,4.336-3.501,7.841-7.833,7.841c-4.332,0-7.833-3.504-7.833-7.841
	c0-1.349,0.339-2.617,0.936-3.725c-5.027,6.772-9.64,13.868-13.811,21.247c1.361-1.147,3.118-1.84,5.04-1.84
	c4.332,0,7.833,3.504,7.833,7.841c0,4.337-3.501,7.842-7.833,7.842c-4.332,0-7.833-3.505-7.833-7.842
	c0-0.35,0.031-0.693,0.075-1.031c-2.875,5.431-5.516,11.005-7.901,16.713c4.329,0.004,7.826,3.507,7.826,7.841
	c0,4.337-3.501,7.842-7.833,7.842c-1.98,0-3.78-0.737-5.158-1.946C41.157,193.607,37.584,212.685,36.832,232.475z M298.505,435.691
	c-7.139-13.923-11.171-29.695-11.171-46.392c0-56.206,45.684-101.936,101.833-101.936c16.679,0,32.436,4.036,46.345,11.182
	c5.633-18.892,8.489-38.429,8.489-58.23c0-112.42-91.36-203.873-203.667-203.873c-23.953,0-46.949,4.173-68.314,11.811
	l75.592,189.154c0.963,2.415,0.665,5.151-0.791,7.308c-1.457,2.148-3.885,3.442-6.486,3.442H36.831
	c4.132,108.798,93.819,196.031,203.502,196.031C260.114,444.189,279.631,441.331,298.505,435.691z M475.335,389.3
	c0-30.169-15.56-56.768-39.064-72.189c-0.389-0.208-0.756-0.444-1.095-0.708c-13.321-8.454-29.102-13.357-46.007-13.357
	c-47.509,0-86.167,38.697-86.167,86.254c0,16.925,4.901,32.725,13.349,46.062c0.26,0.337,0.493,0.697,0.698,1.08
	c15.404,23.533,41.978,39.112,72.119,39.112C436.675,475.553,475.333,436.857,475.335,389.3z"/>
</svg>
