<?xml version="1.0" encoding="utf-8"?>
<!-- Generator: Adobe Illustrator 21.1.0, SVG Export Plug-In . SVG Version: 6.00 Build 0)  -->
<svg version="1.1" id="Слой_1" xmlns="http://www.w3.org/2000/svg" xmlns:xlink="http://www.w3.org/1999/xlink" x="0px" y="0px"
	 viewBox="0 0 512 512" style="enable-background:new 0 0 512 512;" xml:space="preserve">
<style type="text/css">
	.st0{fill:url(#SVGID_1_);}
</style>
<linearGradient id="SVGID_1_" gradientUnits="userSpaceOnUse" x1="-26.1069" y1="255.9984" x2="693.3854" y2="255.9984">
	<stop  offset="0" style="stop-color:#E35C67"/>
	<stop  offset="1" style="stop-color:#381CE2"/>
</linearGradient>
<path class="st0" d="M154.3,75.8c0,4.3-3.5,7.8-7.8,7.8s-7.8-3.5-7.8-7.8s3.5-7.8,7.8-7.8S154.3,71.5,154.3,75.8z M162.4,107.2
	c4.3,0,7.8-3.5,7.8-7.8c0-4.3-3.5-7.8-7.8-7.8s-7.8,3.5-7.8,7.8C154.6,103.7,158.1,107.2,162.4,107.2z M130.5,91.5
	c-4.3,0-7.8,3.5-7.8,7.8c0,4.3,3.5,7.8,7.8,7.8s7.8-3.5,7.8-7.8C138.4,95,134.9,91.5,130.5,91.5z M146.4,115c-4.3,0-7.8,3.5-7.8,7.8
	s3.5,7.8,7.8,7.8s7.8-3.5,7.8-7.8S150.8,115,146.4,115z M115.4,130.7c4.3,0,7.8-3.5,7.8-7.8s-3.5-7.8-7.8-7.8
	c-4.3,0-7.8,3.5-7.8,7.8S111.1,130.7,115.4,130.7z M162.4,154.2c4.3,0,7.8-3.5,7.8-7.8s-3.5-7.8-7.8-7.8s-7.8,3.5-7.8,7.8
	C154.6,150.7,158.1,154.2,162.4,154.2z M130.5,138.5c-4.3,0-7.8,3.5-7.8,7.8c0,4.3,3.5,7.8,7.8,7.8s7.8-3.5,7.8-7.8
	C138.4,142,134.9,138.5,130.5,138.5z M177.5,162c-4.3,0-7.8,3.5-7.8,7.8c0,4.3,3.5,7.8,7.8,7.8s7.8-3.5,7.8-7.8
	C185.3,165.5,181.8,162,177.5,162z M146.4,162c-4.3,0-7.8,3.5-7.8,7.8c0,4.3,3.5,7.8,7.8,7.8s7.8-3.5,7.8-7.8
	C154.3,165.5,150.8,162,146.4,162z M193.4,185.5c-4.3,0-7.8,3.5-7.8,7.8c0,4.3,3.5,7.8,7.8,7.8s7.8-3.5,7.8-7.8
	C201.2,189,197.7,185.5,193.4,185.5z M162.4,185.5c-4.3,0-7.8,3.5-7.8,7.8c0,4.3,3.5,7.8,7.8,7.8s7.8-3.5,7.8-7.8
	C170.2,189,166.7,185.5,162.4,185.5z M209.3,209c-4.3,0-7.8,3.5-7.8,7.8c0,4.3,3.5,7.8,7.8,7.8s7.8-3.5,7.8-7.8S213.7,209,209.3,209
	z M177.5,209c-4.3,0-7.8,3.5-7.8,7.8s3.5,7.8,7.8,7.8s7.8-3.5,7.8-7.8S181.8,209,177.5,209z M146.4,209c-4.3,0-7.8,3.5-7.8,7.8
	s3.5,7.8,7.8,7.8s7.8-3.5,7.8-7.8C154.3,212.5,150.8,209,146.4,209z M115.4,209c-4.3,0-7.8,3.5-7.8,7.8s3.5,7.8,7.8,7.8
	c4.3,0,7.8-3.5,7.8-7.8S119.8,209,115.4,209z M83.6,209c-4.3,0-7.8,3.5-7.8,7.8s3.5,7.8,7.8,7.8s7.8-3.5,7.8-7.8S87.9,209,83.6,209z
	 M130.5,185.5c-4.3,0-7.8,3.5-7.8,7.8c0,4.3,3.5,7.8,7.8,7.8s7.8-3.5,7.8-7.8C138.4,189,134.9,185.5,130.5,185.5z M99.5,185.5
	c-4.3,0-7.8,3.5-7.8,7.8c0,4.3,3.5,7.8,7.8,7.8s7.8-3.5,7.8-7.8C107.3,189,103.8,185.5,99.5,185.5z M68.5,185.5
	c-4.3,0-7.8,3.5-7.8,7.8c0,4.3,3.5,7.8,7.8,7.8s7.8-3.5,7.8-7.8C76.3,189,72.8,185.5,68.5,185.5z M115.4,177.7
	c4.3,0,7.8-3.5,7.8-7.8c0-4.3-3.5-7.8-7.8-7.8c-4.3,0-7.8,3.5-7.8,7.8C107.6,174.2,111.1,177.7,115.4,177.7z M83.6,162
	c-4.3,0-7.8,3.5-7.8,7.8c0,4.3,3.5,7.8,7.8,7.8s7.8-3.5,7.8-7.8C91.4,165.5,87.9,162,83.6,162z M99.5,138.5c-4.3,0-7.8,3.5-7.8,7.8
	c0,4.3,3.5,7.8,7.8,7.8s7.8-3.5,7.8-7.8S103.8,138.5,99.5,138.5z M52.5,209c-4.3,0-7.8,3.5-7.8,7.8s3.5,7.8,7.8,7.8s7.8-3.5,7.8-7.8
	C60.4,212.5,56.9,209,52.5,209z M490.8,389.2c0,56.1-45.6,101.8-101.7,101.8c-33.6,0-63.5-16.4-82.1-41.7
	c-21.5,6.9-43.9,10.4-66.6,10.4c-120.8,0-219.1-98.4-219.1-219.3c0-92.2,57.1-171.2,137.7-203.6c0,0,0,0,0,0c0,0,0,0,0,0
	C184.2,26.6,211.6,21,240.3,21c120.8,0,219.1,98.4,219.1,219.3c0,22.7-3.5,45.1-10.4,66.7C474.3,325.6,490.8,355.5,490.8,389.2z
	 M37.1,232.5h191.7l-22.1-55.2c-3.2-1-5.5-4-5.5-7.5c0-1.4,0.4-2.7,1-3.8l-5.1-12.8c-1.1,0.6-2.4,0.9-3.7,0.9
	c-4.3,0-7.8-3.5-7.8-7.8c0-3.6,2.4-6.6,5.8-7.6l-5.9-14.7c-0.6,3.7-3.8,6.6-7.7,6.6c-4.3,0-7.8-3.5-7.8-7.8c0-4.3,3.5-7.8,7.8-7.8
	c1.8,0,3.4,0.6,4.7,1.6l-24.9-62.3c-12.3,5.5-23.9,12.2-34.8,19.9c0.1,0.5,0.2,1.1,0.2,1.6c0,4.3-3.5,7.8-7.8,7.8
	c-1.3,0-2.5-0.3-3.6-0.9c-3.5,2.9-6.9,5.9-10.2,8.9c3.4,0.8,6,3.9,6,7.6c0,4.3-3.5,7.8-7.8,7.8c-3.7,0-6.8-2.5-7.6-6
	c-4.8,5.1-9.3,10.4-13.5,16c1.4-1.4,3.3-2.2,5.5-2.2c4.3,0,7.8,3.5,7.8,7.8c0,4.3-3.5,7.8-7.8,7.8c-4.3,0-7.8-3.5-7.8-7.8
	c0-1.3,0.3-2.6,0.9-3.7c-5,6.8-9.6,13.9-13.8,21.2c1.4-1.1,3.1-1.8,5-1.8c4.3,0,7.8,3.5,7.8,7.8s-3.5,7.8-7.8,7.8s-7.8-3.5-7.8-7.8
	c0-0.3,0-0.7,0.1-1c-2.9,5.4-5.5,11-7.9,16.7c4.3,0,7.8,3.5,7.8,7.8c0,4.3-3.5,7.8-7.8,7.8c-2,0-3.8-0.7-5.2-1.9
	C41.4,193.7,37.8,212.7,37.1,232.5z M298.5,435.5c-7.1-13.9-11.2-29.7-11.2-46.3c0-56.1,45.6-101.8,101.7-101.8
	c16.7,0,32.4,4,46.3,11.2c5.6-18.9,8.5-38.4,8.5-58.2c0-112.3-91.3-203.7-203.5-203.7c-23.9,0-46.9,4.2-68.2,11.8l75.5,189
	c1,2.4,0.7,5.1-0.8,7.3c-1.5,2.1-3.9,3.4-6.5,3.4H37.1C41.2,356.9,130.8,444,240.3,444C260.1,444,279.6,441.1,298.5,435.5z
	 M475.1,389.2c0-30.1-15.5-56.7-39-72.1c-0.4-0.2-0.8-0.4-1.1-0.7c-13.3-8.4-29.1-13.3-46-13.3c-47.5,0-86.1,38.7-86.1,86.2
	c0,16.9,4.9,32.7,13.3,46c0.3,0.3,0.5,0.7,0.7,1.1c15.4,23.5,41.9,39.1,72,39.1C436.5,475.3,475.1,436.7,475.1,389.2z M350.3,373.4
	c0,5.5,0.5,9.7,1.4,12.4c1,2.7,2.6,4.1,4.8,4.1c4.2,0,6.3-5.5,6.3-16.5c0-10.9-2.1-16.4-6.3-16.4c-2.2,0-3.8,1.4-4.8,4.1
	C350.8,363.8,350.3,367.9,350.3,373.4z M379.3,373.3c0,10-1.9,17.6-5.8,22.7c-3.9,5-9.6,7.5-17.1,7.5c-7.2,0-12.8-2.6-16.7-7.7
	c-3.9-5.2-5.9-12.7-5.9-22.5c0-20,7.5-29.9,22.6-29.9c7.4,0,13,2.6,17,7.8C377.4,356.3,379.3,363.7,379.3,373.3z M424.4,344.7
	l-53.1,95.8h-15.7l53.1-95.8H424.4z M417.4,411.7c0,5.5,0.5,9.7,1.4,12.4c1,2.7,2.6,4.1,4.8,4.1c4.2,0,6.3-5.5,6.3-16.5
	c0-10.9-2.1-16.4-6.3-16.4c-2.2,0-3.8,1.4-4.8,4.1C417.9,402,417.4,406.1,417.4,411.7z M446.4,411.5c0,10-1.9,17.5-5.8,22.6
	c-3.9,5-9.6,7.5-17.1,7.5c-7.2,0-12.8-2.6-16.7-7.7c-3.9-5.2-5.9-12.7-5.9-22.4c0-20,7.5-29.9,22.6-29.9c7.4,0,13,2.6,17,7.8
	C444.4,394.6,446.4,401.9,446.4,411.5z"/>
</svg>
