<?xml version="1.0" encoding="utf-8"?>
<!-- Generator: Adobe Illustrator 21.1.0, SVG Export Plug-In . SVG Version: 6.00 Build 0)  -->
<svg version="1.1" id="Слой_1" xmlns="http://www.w3.org/2000/svg" xmlns:xlink="http://www.w3.org/1999/xlink" x="0px" y="0px"
	 viewBox="0 0 512 512" style="enable-background:new 0 0 512 512;" xml:space="preserve">
<style type="text/css">
	.st0{fill:url(#SVGID_1_);}
</style>
<linearGradient id="SVGID_1_" gradientUnits="userSpaceOnUse" x1="30.5059" y1="104.4073" x2="594.2318" y2="577.4295">
	<stop  offset="0" style="stop-color:#E35C67"/>
	<stop  offset="1" style="stop-color:#381CE2"/>
</linearGradient>
<path class="st0" d="M478.2,224.2l-43.7-42.6h8c5.9,0,11.4-2.3,15.6-6.5c4.2-4.2,6.4-9.7,6.4-15.6c0-12.2-9.9-22-22-22h-23.3
	c-3.9-35.7-34.2-63.5-70.9-63.5H163.6c-3.8,0-6.9,3.1-6.9,6.9c0,3.8,3.1,6.9,6.9,6.9h184.8c31.8,0,57.6,25.8,57.6,57.6v18.5H106
	v-18.5c0-31.8,25.8-57.6,57.6-57.6c3.8,0,6.9-3.1,6.9-6.9c0-3.8-3.1-6.9-6.9-6.9c-36.7,0-67,27.9-70.9,63.5H69.4
	c-5.9,0-11.4,2.3-15.6,6.5c-4.2,4.2-6.4,9.7-6.4,15.6c0,12.2,9.9,22.1,22,22.1h8l-43.7,42.6c-7.5,2.9-12.8,10.2-12.8,18.7v135.6
	c0,7.4,4.1,13.9,10.1,17.4v16.5c0,13.2,10,24.1,22.8,25.5c0.5,0.1,1,0.2,1.5,0.2c0.2,0,0.3,0,0.5,0c0.3,0,0.6,0,0.9,0h51
	c14.1,0,25.6-11.5,25.6-25.7v-13.8h18.2c3.8,0,6.9-3.1,6.9-6.9c0-3.8-3.1-6.9-6.9-6.9H41.1c-3.5,0-6.3-2.8-6.3-6.3v-45.7h119.5h34.7
	h134.1h34.7h119.5v45.7c0,3.5-2.8,6.3-6.3,6.3H142.5c-3.8,0-6.9,3.1-6.9,6.9c0,3.8,3.1,6.9,6.9,6.9h236v13.8
	c0,14.1,11.5,25.7,25.6,25.7h51c14.1,0,25.7-11.5,25.7-25.7v-16.5c6-3.5,10.1-10,10.1-17.4V242.9C491,234.4,485.7,227.1,478.2,224.2
	z M119.7,398.6v13.8c0,6.6-5.3,11.9-11.9,11.9h-1.7l3.8-3.8c2.7-2.7,2.7-7,0-9.7c-2.7-2.7-7-2.7-9.7,0l-13.5,13.5H72l3.8-3.8
	c2.7-2.7,2.7-7,0-9.7c-2.7-2.7-7-2.7-9.7,0l-12.9,12.9c-4.8-1.5-8.2-6-8.2-11.3v-13.8H119.7z M467.1,412.4c0,6.4-5.1,11.6-11.4,11.9
	l3.7-3.7c2.7-2.7,2.7-7,0-9.7c-2.7-2.7-7-2.7-9.7,0l-13.5,13.5h-14.6l3.8-3.8c2.7-2.7,2.7-7,0-9.7c-2.7-2.7-7-2.7-9.7,0l-13.3,13.3
	c-5.6-0.9-9.9-5.8-9.9-11.7v-13.8h74.8V412.4z M457.1,222.8h-92.5v-7.1h85.2L457.1,222.8z M442.6,151.2c4.6,0,8.3,3.7,8.3,8.3
	c0,2.2-0.9,4.3-2.4,5.9c-1.6,1.6-3.6,2.4-5.9,2.4h-22.1l-0.7-0.7v-15.9H442.6z M69.4,167.8c-4.6,0-8.3-3.7-8.3-8.3
	c0-2.2,0.9-4.3,2.4-5.8c1.6-1.6,3.7-2.4,5.9-2.4h22.8v15.9l-0.7,0.7H69.4z M70.9,319.1c-6.5,0-11.7-5.3-11.7-11.7
	c0-6.5,5.3-11.7,11.7-11.7c6.5,0,11.7,5.3,11.7,11.7C82.6,313.8,77.3,319.1,70.9,319.1z M58.3,271.5v-5.3c0-4.1,3.3-7.4,7.4-7.4
	h47.6c4.1,0,7.4,3.3,7.4,7.4v5.3c0,4.1-3.3,7.4-7.4,7.4H65.7C61.6,279,58.3,275.6,58.3,271.5z M147.4,319.1H93.5
	c1.8-3.5,2.9-7.5,2.9-11.7c0-5.4-1.7-10.5-4.6-14.6h21.6c11.7,0,21.2-9.5,21.2-21.2v-5.3c0-11.7-9.5-21.2-21.2-21.2H65.7
	c-11.7,0-21.2,9.5-21.2,21.2v5.3c0,7.1,3.5,13.4,8.9,17.3c-4.9,4.7-8,11.2-8,18.5c0,4.2,1,8.2,2.9,11.7H34.8v-76.2
	c0-3.5,2.8-6.3,6.3-6.3h106.3V319.1z M147.4,222.8H54.9l7.3-7.1h85.2V222.8z M152.7,187.7c-3.1,0.7-5.3,3.5-5.3,6.7v7.5H76.3
	l25-24.4h94.9L152.7,187.7z M182.1,319.1h-20.9v-82.5h20.9V319.1z M204.5,319.1h-8.7v-82.5h8.7V319.1z M226.8,319.1h-8.5v-82.5h8.5
	V319.1z M249.1,319.1h-8.5v-82.5h8.5V319.1z M272.1,319.1h-9.2v-82.5h9.2V319.1z M294.4,319.1h-8.5v-82.5h8.5V319.1z M316.2,319.1
	h-8v-82.5h8V319.1z M350.8,319.1h-20.9v-82.5h20.9V319.1z M350.8,222.8h-27.8H188.9h-27.8v-22.9l94.8-22.1l94.8,22.1V222.8z
	 M359.3,187.7l-43.5-10.2h94.9l25,24.4h-71.1v-7.5C364.6,191.2,362.4,188.4,359.3,187.7z M441.1,318.8c-6.5,0-11.7-5.3-11.7-11.7
	c0-6.5,5.3-11.7,11.7-11.7c6.5,0,11.7,5.3,11.7,11.7C452.8,313.6,447.6,318.8,441.1,318.8z M453.7,271.3c0,4.1-3.3,7.4-7.4,7.4
	h-47.6c-4.1,0-7.4-3.3-7.4-7.4V266c0-4.1,3.3-7.4,7.4-7.4h47.6c4.1,0,7.4,3.3,7.4,7.4V271.3z M477.2,319.1h-13.6c1.9-3.6,3-7.6,3-12
	c0-7.3-3.1-13.9-8-18.5c5.4-3.8,8.9-10.1,8.9-17.3V266c0-11.7-9.5-21.2-21.2-21.2h-47.6c-11.7,0-21.2,9.5-21.2,21.2v5.3
	c0,11.7,9.5,21.2,21.2,21.2h21.6c-2.9,4.1-4.6,9.2-4.6,14.6c0,4.3,1.1,8.4,3,12h-54v-82.5h106.3c3.5,0,6.3,2.8,6.3,6.3V319.1z
	 M70.5,337.2c-11.1,0-20.1,9-20.1,20.1c0,11.1,9,20.1,20.1,20.1s20.1-9,20.1-20.1C90.5,346.2,81.5,337.2,70.5,337.2z M70.5,363.5
	c-3.5,0-6.3-2.8-6.3-6.3c0-3.5,2.8-6.3,6.3-6.3s6.3,2.8,6.3,6.3C76.8,360.7,74,363.5,70.5,363.5z M440.9,337.2
	c-11.1,0-20.1,9-20.1,20.1c0,11.1,9,20.1,20.1,20.1c11.1,0,20.1-9,20.1-20.1C460.9,346.2,451.9,337.2,440.9,337.2z M440.9,363.5
	c-3.5,0-6.3-2.8-6.3-6.3c0-3.5,2.8-6.3,6.3-6.3s6.3,2.8,6.3,6.3C447.1,360.7,444.3,363.5,440.9,363.5z M398.4,341.7h-49.5
	c-3.8,0-6.9,3.1-6.9,6.9s3.1,6.9,6.9,6.9h42.6v8.9H120.9v-8.9h228c3.8,0,6.9-3.1,6.9-6.9s-3.1-6.9-6.9-6.9H114
	c-3.8,0-6.9,3.1-6.9,6.9v22.6c0,3.8,3.1,6.9,6.9,6.9h284.4c3.8,0,6.9-3.1,6.9-6.9v-22.6C405.3,344.8,402.2,341.7,398.4,341.7z"/>
</svg>
