<?xml version="1.0" encoding="utf-8"?>
<!-- Generator: Adobe Illustrator 21.1.0, SVG Export Plug-In . SVG Version: 6.00 Build 0)  -->
<svg version="1.1" id="Слой_1" xmlns="http://www.w3.org/2000/svg" xmlns:xlink="http://www.w3.org/1999/xlink" x="0px" y="0px"
	 viewBox="0 0 512 512" style="enable-background:new 0 0 512 512;" xml:space="preserve">
<style type="text/css">
	.st0{fill:url(#SVGID_1_);}
</style>
<linearGradient id="SVGID_1_" gradientUnits="userSpaceOnUse" x1="30.6408" y1="256" x2="614.2117" y2="256">
	<stop  offset="0" style="stop-color:#E35C67"/>
	<stop  offset="1" style="stop-color:#381CE2"/>
</linearGradient>
<path class="st0" d="M462.4,290.6H256c-5,0-8.8,3.9-8.8,8.4v43v5.9h-5.9h-14.7c-5,0-8.8,3.9-8.8,8.4v57.3c0,4.5,3.8,8.4,8.8,8.4
	h14.7h5.9v5.9v43c0,4.5,3.8,8.4,8.8,8.4h206.4c5,0,8.8-3.9,8.8-8.4v-57.3c0-4.5-3.8-8.4-8.8-8.4h-14.7h-5.9v-5.9v-28.6v-5.9h5.9
	h14.7c5,0,8.8-3.9,8.8-8.4V299C471.3,294.5,467.5,290.6,462.4,290.6z M264.8,341.9v-28.6v-5.9h5.9h118h5.9v5.9v28.6v5.9h-5.9h-118
	h-5.9V341.9z M418.2,364.6h5.9v5.9v28.6v5.9h-5.9h-29.5h-5.9v-5.9v-28.6v-5.9h5.9H418.2z M241.3,405.1h-5.9v-5.9v-28.6v-5.9h5.9H256
	h103.2h5.9v5.9v28.6v5.9h-5.9H256H241.3z M394.6,427.8v28.6v5.9h-5.9h-118h-5.9v-5.9v-28.6v-5.9h5.9h118h5.9V427.8z M447.7,421.9
	h5.9v5.9v28.6v5.9h-5.9h-29.5h-5.9v-5.9v-28.6v-5.9h5.9h14.7H447.7z M453.6,313.3v28.6v5.9h-5.9h-14.7h-14.7h-5.9v-5.9v-28.6v-5.9
	h5.9h29.5h5.9V313.3z M256.2,135.5h10.3h4.3c5,0,8.8-3.9,8.8-8.4s-3.8-8.4-8.8-8.4h-1.9h-11.3l6.4-9.3l43.7-63.7l0,0l0,0
	c1.7-2.5,1.9-5.8,0.4-8.5l0,0c-1.5-2.7-4.4-4.5-7.8-4.5H123.3c-3.4,0-6.3,1.8-7.8,4.5l0,0c-1.5,2.7-1.3,5.9,0.4,8.5l0,0l43.7,63.6
	l6.4,9.3h-11.3h-1.9c-5,0-8.8,3.9-8.8,8.4s3.8,8.4,8.8,8.4h4.3h10.3l-5.2,8.9L56.3,327.3l0,0c-10.4,17.8-15.6,37.2-15.6,57.6
	c0,51.8,43.5,94.3,97.3,94.3h59c5,0,8.8-3.9,8.8-8.4s-3.8-8.4-8.8-8.4h-59c-43.8,0-79.7-34.6-79.7-77.5c0.1-17,4.8-34.6,13.4-49.5h0
	l114-196.9l1.7-3h3.4h41.8h3.4l1.7,3l62.1,107.2v0c2.3,4,7.8,5.6,12.1,3.2l0,0l0,0c4.2-2.3,5.6-7.4,3.3-11.3l0,0l-54-93.2
	L256.2,135.5z M236.5,118.8h-3.1h-43.2h-3.1l-1.8-2.6L146,58.9l-6.4-9.3h11.3h121.8h11.3l-6.4,9.3l-39.3,57.3L236.5,118.8z"/>
</svg>
