<?xml version="1.0" encoding="utf-8"?>
<!-- Generator: Adobe Illustrator 21.1.0, SVG Export Plug-In . SVG Version: 6.00 Build 0)  -->
<svg version="1.1" id="Слой_1" xmlns="http://www.w3.org/2000/svg" xmlns:xlink="http://www.w3.org/1999/xlink" x="0px" y="0px"
	 viewBox="0 0 512 512" style="enable-background:new 0 0 512 512;" xml:space="preserve">
<style type="text/css">
	.st0{fill:url(#SVGID_1_);}
</style>
<linearGradient id="SVGID_1_" gradientUnits="userSpaceOnUse" x1="44.415" y1="256" x2="810.1799" y2="256">
	<stop  offset="0" style="stop-color:#E35C67"/>
	<stop  offset="1" style="stop-color:#381CE2"/>
</linearGradient>
<path class="st0" d="M455.7,275.8c-5.2,0-10,1.3-14.2,3.2c-6.5-8.3-16.5-13.6-27.8-13.6c-5.8,0-11.2,1.5-15.8,3.9l-0.5,0.3
	l-14.4,8.6c-6.5-7.7-16.2-12.7-27-12.7c-5.8,0-11.2,1.5-15.8,3.9l-0.6,0.3l-55.2,33.8c-12.5-3.7-26.3-7.7-39.7-11.5
	c-14.1-4-27.7-7.7-38.6-10.5c-5.5-1.4-10.2-2.5-14.1-3.3c-2-0.4-3.7-0.7-5.2-1c-1.6-0.2-2.9-0.4-4.3-0.4c-1.1,0-2.1,0.1-3.2,0.2
	c-4.1,0.5-9.9,1.8-16.7,3.4c-13.9,3.3-31.7,8-41.6,10.7v-16.6c0-11.6-9.5-21-21-21H42c-11.6,0-21,9.5-21,21v162.8
	c0,11.6,9.5,21,21,21h57.8c11.6,0,21-9.5,21-21v-12.6c12.5,2.7,40.1,8.7,69.3,14.7c19.7,4,40.1,8.1,57,11.2c8.4,1.5,16,2.8,22.1,3.7
	c6.2,0.9,10.9,1.5,14.4,1.5c2.8,0,5.4-0.5,8.2-1.3c5.2-1.5,11.2-4,18-7.3c23.7-11.6,57.8-33.3,90-54.7
	c32.1-21.4,62.1-42.6,76.9-52.7c9.2-6.3,14.4-17.1,14.4-28.4C491,291.6,475.2,275.8,455.7,275.8z M105,437.2c0,2.8-2.4,5.3-5.3,5.3
	H42c-2.8,0-5.3-2.4-5.3-5.3V274.4c0-2.8,2.4-5.3,5.3-5.3h57.8c2.8,0,5.3,2.4,5.3,5.3V437.2z M467.7,326.5
	c-18.1,12.5-58.6,41.1-97.8,66.5c-19.6,12.7-38.8,24.6-54.6,33.3c-7.9,4.3-14.9,7.8-20.5,10.2c-2.8,1.2-5.3,2-7.2,2.6
	c-1.9,0.6-3.4,0.7-3.9,0.7c-1.7,0-6.3-0.4-12.1-1.3c-20.7-3-59.4-10.8-92.8-17.7c-16.7-3.5-32.1-6.8-43.3-9.2
	c-6.5-1.4-11.5-2.5-14.7-3.2v-101c1.5-0.4,3.6-1,6-1.6c8.3-2.3,21-5.6,32.3-8.4c5.7-1.4,11-2.7,15.3-3.5c2.1-0.4,4-0.8,5.4-1
	c1.4-0.2,2.5-0.3,2.5-0.3c0,0,0.9,0,2,0.2c4.3,0.7,13.3,2.7,24.1,5.6c32.7,8.5,84.3,24,105.1,30.3c7.2,2.2,13.7,5.5,18,9.4
	c2.2,2,3.8,4.1,4.9,6.4c1.1,2.3,1.7,4.8,1.7,7.9c0,6.2-2.5,11.7-6.5,15.8c-4,4-9.5,6.5-15.6,6.5l-20.3-2l-69.4-8.9
	c-4.3-0.6-8.3,2.5-8.8,6.8c-0.6,4.3,2.5,8.3,6.8,8.8l69.6,8.9l21.5,2.1h0.4c21,0,38-17,38.1-38.1c0-5.3-1.2-10.3-3.2-14.6
	c-3.1-6.6-8.1-11.6-13.8-15.5c-5.7-3.9-12.1-6.6-18.7-8.6c-3.7-1.1-8.3-2.5-13.5-4.1l42.8-26.2c2.8-1.4,5.6-2.1,8.6-2.1
	c5.1,0,9.7,2,13.2,5.2L348,298.7c-3.7,2.2-5,7.1-2.8,10.8c2.2,3.7,7.1,5,10.8,2.8l49-29.1c2.8-1.4,5.6-2.2,8.7-2.2
	c5.4,0,10.3,2.3,13.9,5.9l-57.1,33.9c-3.7,2.2-5,7.1-2.8,10.8c2.2,3.7,7.1,5,10.8,2.8l61.7-36.6c0.6-0.1,1.2-0.2,1.8-0.5
	c1.3-0.5,2.3-1.4,3.1-2.4l1.9-1.1c2.8-1.4,5.6-2.2,8.7-2.2c5.4,0,10.3,2.2,13.8,5.7c3.5,3.6,5.7,8.4,5.7,13.8
	C475.2,317.7,472.2,323.4,467.7,326.5z M337.3,100.7c0-24.1-14.5-46.9-52.6-46.9c-25.1,0-45.4,3.2-45.4,3.2v76.4H227v21.9h12.3v20.1
	H227v21.9h12.3v25.5H268v-25.5h38.6v-21.9H268v-20.1h9.8C326,155.3,337.3,125.1,337.3,100.7z M306.3,103.4c0,19.9-8.1,30-29.5,30
	H268v-56c2.9-0.7,7.6-1.2,12.5-1.2C298.7,76.2,306.3,87.2,306.3,103.4z"/>
</svg>
