<?xml version="1.0" encoding="utf-8"?>
<!-- Generator: Adobe Illustrator 21.1.0, SVG Export Plug-In . SVG Version: 6.00 Build 0)  -->
<svg version="1.1" id="Слой_1" xmlns="http://www.w3.org/2000/svg" xmlns:xlink="http://www.w3.org/1999/xlink" x="0px" y="0px"
	 viewBox="0 0 512 512" style="enable-background:new 0 0 512 512;" xml:space="preserve">
<style type="text/css">
	.st0{fill:url(#SVGID_1_);}
</style>
<linearGradient id="SVGID_1_" gradientUnits="userSpaceOnUse" x1="36.8865" y1="256" x2="641.6631" y2="256">
	<stop  offset="0" style="stop-color:#E35C67"/>
	<stop  offset="1" style="stop-color:#381CE2"/>
</linearGradient>
<path class="st0" d="M280.9,395.1h-58.7c-4.9,0-8.8,4-8.8,8.8c0,4.9,4,8.8,8.8,8.8h58.7c4.9,0,8.8-4,8.8-8.8
	C289.8,399.1,285.8,395.1,280.9,395.1z M138.9,445.4c0,6.5-5.2,11.7-11.7,11.7c-6.5,0-11.7-5.3-11.7-11.7c0-6.5,5.2-11.7,11.7-11.7
	C133.7,433.7,138.9,438.9,138.9,445.4z M375.2,433.7c-6.5,0-11.7,5.3-11.7,11.7c0,6.5,5.2,11.7,11.7,11.7c6.5,0,11.7-5.3,11.7-11.7
	C387,438.9,381.7,433.7,375.2,433.7z M468.2,387.1v59.3c0,4.9-4,8.8-8.8,8.8h-40.3c-1.9,8.6-6.3,16.5-12.7,22.8
	c-8.6,8.3-19.9,12.9-31.8,12.9c-11.9,0-23.2-4.6-31.8-12.9c-6.4-6.3-10.8-14.1-12.7-22.8H171.5c-1.9,8.6-6.3,16.5-12.7,22.8
	c-8.6,8.3-19.9,12.9-31.8,12.9c-12,0-23.2-4.6-31.8-12.9c-6.4-6.3-10.8-14.2-12.7-22.8H44.5c-4.9,0-8.8-4-8.8-8.8v-31.6
	c0-13.1,4.7-25.8,13.3-35.7c8.6-9.9,20.5-16.4,33.4-18.3L136,353l74.7-38c16.1-8.2,34.2-12.5,52.3-12.5h50.5c14.8,0,29.2,2.8,43,8.3
	l82.4,33C456.7,350.9,468.2,367.9,468.2,387.1z M344.4,325.1l21.1,27.5h48l-63.6-25.5C348.1,326.4,346.2,325.8,344.4,325.1z
	 M271.3,352.7h71.9l-24.9-32.4c-1.6-0.1-3.2-0.1-4.8-0.1h-42.2V352.7z M175.6,352.7h78v-32c-12.1,1.2-24.1,4.6-34.9,10.2
	L175.6,352.7z M56,401.3c13.1-1.3,24-10.5,27.6-22.8C70.9,380.9,60.6,389.8,56,401.3z M154.9,445.4c0-15.4-12.5-27.9-27.9-27.9
	c-15.4,0-27.9,12.5-27.9,27.9s12.5,27.9,27.9,27.9C142.4,473.3,154.9,460.8,154.9,445.4z M402.5,445.4c0-15.4-12.5-27.9-27.9-27.9
	s-27.9,12.5-27.9,27.9s12.5,27.9,27.9,27.9S402.5,460.8,402.5,445.4z M450.6,411.2h-4c-16.2,0-29.4-13.2-29.4-29.4v-11.5h-56
	c0,0,0,0,0,0c0,0,0,0,0,0H139.4l-37.2,5.4c-3.1,24.3-23.8,43.2-48.8,43.4v18.5h28.7c3.7-21.4,22.4-37.8,44.9-37.8
	c22.5,0,41.2,16.4,44.9,37.8h157.7c3.7-21.4,22.4-37.8,44.9-37.8c22.5,0,41.2,16.4,44.9,37.8h31.1V411.2z M450.6,387.1
	c0-6.2-1.9-12-5.3-16.8h-10.4v11.5c0,6.4,5.2,11.7,11.7,11.7h4V387.1z M103,100.1c7.8,0,14.9-3.1,20.2-8.1l64,33.5
	c-0.4,1.9-0.6,3.9-0.6,5.9c0,16.2,13.2,29.4,29.4,29.4s29.4-13.2,29.4-29.4c0-2.4-0.3-4.8-0.9-7.1l68-49.7
	c4.7,3.2,10.4,5.1,16.5,5.1c7.5,0,14.4-2.8,19.6-7.5l66.8,47c-1.7,3.7-2.6,7.8-2.6,12.2c0,16.2,13.2,29.4,29.4,29.4
	s29.4-13.2,29.4-29.4s-13.2-29.4-29.4-29.4c-5.2,0-10.2,1.4-14.4,3.8l-69.9-49.3c0.4-2,0.7-4.1,0.7-6.3c0-16.2-13.2-29.4-29.4-29.4
	s-29.4,13.2-29.4,29.4c0,3.5,0.6,6.9,1.8,10.1L235,109.1c-5.1-4.3-11.7-6.9-18.9-6.9c-7.6,0-14.6,2.9-19.9,7.7l-64.3-33.7
	c0.3-1.8,0.5-3.6,0.5-5.4c0-16.2-13.2-29.4-29.4-29.4c-16.2,0-29.4,13.2-29.4,29.4C73.6,87,86.8,100.1,103,100.1z M442.2,120.2
	c6.2,0,11.3,5.1,11.3,11.3c0,6.2-5.1,11.3-11.3,11.3c-6.2,0-11.3-5.1-11.3-11.3C430.9,125.3,436,120.2,442.2,120.2z M329.1,39.1
	c6.2,0,11.3,5.1,11.3,11.3s-5.1,11.3-11.3,11.3c-6.2,0-11.3-5.1-11.3-11.3S322.9,39.1,329.1,39.1z M216.1,120.2
	c6.2,0,11.3,5.1,11.3,11.3c0,6.2-5.1,11.3-11.3,11.3c-6.2,0-11.3-5.1-11.3-11.3C204.8,125.3,209.8,120.2,216.1,120.2z M103,59.4
	c6.2,0,11.3,5.1,11.3,11.3s-5.1,11.3-11.3,11.3c-6.2,0-11.3-5.1-11.3-11.3S96.8,59.4,103,59.4z M98.3,293.2
	c16.2,0,29.4-13.2,29.4-29.4c0-0.5,0-1,0-1.4l68.1-20.7c5.3,5.4,12.7,8.7,20.8,8.7c16.2,0,29.4-13.2,29.4-29.4
	c0-1.2-0.1-2.3-0.2-3.4l61.3-22.5c5.4,6.5,13.5,10.6,22.6,10.6c7.5,0,14.3-2.8,19.5-7.4l69.9,49.8c-1,3-1.6,6.2-1.6,9.6
	c0,16.2,13.2,29.4,29.4,29.4c16.2,0,29.4-13.2,29.4-29.4c0-16.2-13.2-29.4-29.4-29.4c-6.3,0-12.1,2-16.9,5.4l-71.6-51
	c0.4-2,0.7-4.1,0.7-6.3c0-16.2-13.2-29.4-29.4-29.4s-29.4,13.2-29.4,29.4c0,0.7,0,1.3,0.1,2l-62.1,22.9c-5.4-5.8-13.1-9.5-21.6-9.5
	c-16.2,0-29.4,13.2-29.4,29.4c0,1.5,0.1,2.9,0.3,4.3l-66.3,20.1c-5.4-6.7-13.7-11-22.9-11c-16.2,0-29.4,13.2-29.4,29.4
	C68.9,280.1,82.1,293.2,98.3,293.2z M446.9,246.3c6.2,0,11.3,5.1,11.3,11.3c0,6.2-5.1,11.3-11.3,11.3c-6.2,0-11.3-5.1-11.3-11.3
	C435.6,251.3,440.7,246.3,446.9,246.3z M329.7,165c6.2,0,11.3,5.1,11.3,11.3c0,6.2-5.1,11.3-11.3,11.3c-6.2,0-11.3-5.1-11.3-11.3
	C318.4,170,323.4,165,329.7,165z M216.6,209.7c6.2,0,11.3,5.1,11.3,11.3c0,6.2-5.1,11.3-11.3,11.3c-6.2,0-11.3-5.1-11.3-11.3
	C205.3,214.8,210.4,209.7,216.6,209.7z M98.3,252.5c6.2,0,11.3,5.1,11.3,11.3c0,6.2-5.1,11.3-11.3,11.3c-6.2,0-11.3-5.1-11.3-11.3
	C87,257.6,92,252.5,98.3,252.5z"/>
</svg>
