<?xml version="1.0" encoding="utf-8"?>
<!-- Generator: Adobe Illustrator 21.1.0, SVG Export Plug-In . SVG Version: 6.00 Build 0)  -->
<svg version="1.1" id="Layer_1" xmlns="http://www.w3.org/2000/svg" xmlns:xlink="http://www.w3.org/1999/xlink" x="0px" y="0px"
	 viewBox="0 0 508 508" style="enable-background:new 0 0 508 508;" xml:space="preserve">
<style type="text/css">
	.st0{fill:#45005C;}
	.st1{fill:#7383BF;}
	.st2{fill:#424A60;}
	.st3{fill:#556080;}
	.st4{fill:#7FABDA;}
</style>
<circle class="st0" cx="254" cy="254" r="254"/>
<g>
	<g>
		<path class="st1" d="M313.852,214.459c9.908-6.613,15.865-17.738,15.865-29.651v-56.646H178.284v56.646
			c0,11.913,5.956,23.038,15.865,29.651l49.756,33.169v13.462l-49.756,33.169c-9.908,6.608-15.865,17.733-15.865,29.646v56.646
			h151.433v-56.646c0-11.913-5.956-23.038-15.865-29.651l-49.756-33.169v-13.462L313.852,214.459z"/>
		<path class="st2" d="M305.447,201.859c5.714-3.811,9.126-10.186,9.126-17.046l0,0c0-6.593-4.487-12.342-10.883-13.942
			l-75.985-18.995c-17.409-4.356-34.28,8.813-34.28,26.763v6.174c0,6.86,3.412,13.235,9.126,17.046l46.399,34.053v80.144
			c0,18.324-19,30.469-35.627,22.77l0,0c-8.954-4.145-19.797,1.988-19.893,11.857c0,0.07,0,0.136,0,0.206v29.661h121.147v-56.651
			c0-0.07,0-0.136,0-0.206c-0.096-9.748-9.535-16.769-19.136-15.097l-10.343,1.802c-13.603,2.368-26.051-8.102-26.051-21.903
			v-52.583L305.447,201.859z"/>
		<rect x="153.044" y="380.55" class="st2" width="201.911" height="20.191"/>
		<rect x="153.044" y="107.971" class="st2" width="201.911" height="20.191"/>
		<path class="st3" d="M132.853,405.078h15.143h5.048h201.911h5.048h15.143c2.787,0,5.048-2.257,5.048-5.048
			s-2.261-5.048-5.048-5.048h-15.143V374.79H147.996v20.191h-15.143c-2.787,0-5.048,2.256-5.048,5.048
			S130.067,405.078,132.853,405.078z M158.093,384.886h191.815v10.095H158.092C158.092,394.981,158.092,384.886,158.093,384.886z"/>
		<path class="st3" d="M375.147,102.923h-15.143h-5.048H153.044h-5.048h-15.143c-2.787,0-5.048,2.257-5.048,5.048
			c0,2.792,2.261,5.048,5.048,5.048h15.143v20.191h212.006v-20.191h15.143c2.787,0,5.048-2.257,5.048-5.048
			C380.194,105.179,377.933,102.923,375.147,102.923z M349.908,123.114H158.092v-10.095h191.815V123.114z"/>
		<path class="st4" d="M228.756,224.069c-0.959,0-1.933-0.278-2.797-0.848l-23.412-15.608c-5.709-3.806-9.121-10.176-9.121-17.051
			v-11.216c0-2.792,2.261-5.048,5.048-5.048s5.048,2.257,5.048,5.048v11.216c0,3.482,1.731,6.719,4.629,8.652l23.412,15.608
			c2.317,1.55,2.942,4.68,1.398,7.002C231.987,223.282,230.387,224.069,228.756,224.069z"/>
		<path class="st4" d="M309.525,335.121c-2.787,0-5.048-2.256-5.048-5.048v-11.216c0-3.482-1.731-6.719-4.629-8.652l-23.412-15.608
			c-2.317-1.55-2.942-4.68-1.398-7.002c1.55-2.322,4.674-2.947,7.002-1.398l23.412,15.608c5.709,3.806,9.121,10.181,9.121,17.051
			v11.216C314.573,332.865,312.312,335.121,309.525,335.121z"/>
	</g>
</g>
</svg>
