<?xml version="1.0" encoding="utf-8"?>
<!-- Generator: Adobe Illustrator 21.1.0, SVG Export Plug-In . SVG Version: 6.00 Build 0)  -->
<svg version="1.1" id="Layer_1" xmlns="http://www.w3.org/2000/svg" xmlns:xlink="http://www.w3.org/1999/xlink" x="0px" y="0px"
	 viewBox="0 0 508 508" style="enable-background:new 0 0 508 508;" xml:space="preserve">
<style type="text/css">
	.st0{fill:#45005C;}
	.st1{fill:#66C6B9;}
	.st2{fill:#FFD15C;}
	.st3{fill:#415A6B;}
	.st4{fill:#F7B64C;}
	.st5{fill:#F3705A;}
	.st6{fill:#E8EAE9;}
</style>
<circle class="st0" cx="254" cy="254" r="254"/>
<g>
	<path class="st1" d="M223,148.084c0,9.041-7.104,16.146-16.146,16.146c-3.229,0-6.459-1.291-9.041-2.584v35.521h-36.166
		c1.938-2.584,2.584-5.812,2.584-9.041c0-9.041-7.104-16.146-16.146-16.146s-16.146,7.104-16.146,16.145
		c0,3.229,1.291,6.459,2.584,9.041H99v-80.083C99,107.396,107.396,99,117.084,99h80.084v35.521c2.584-1.938,5.812-2.584,9.041-2.584
		C215.896,131.938,223,139.042,223,148.084z"/>
	<path class="st2" d="M171.979,246.896c0,9.041,7.104,16.146,16.146,16.146c3.229,0,6.459-1.291,9.041-2.584v35.521h-80.083
		c-9.688,0-18.084-8.396-18.084-18.084v-80.73h35.521c-1.938-2.584-2.584-5.812-2.584-9.041c0-9.041,7.104-16.146,16.146-16.146
		s16.146,7.104,16.146,16.146c0,3.229-1.291,6.459-2.584,9.041h35.521v35.521c-2.584-1.938-5.812-2.584-9.041-2.584
		C179.084,230.104,171.979,237.854,171.979,246.896z"/>
	<path class="st3" d="M295.979,197.167h-35.521c1.938,2.584,2.584,5.812,2.584,9.041c0,9.041-7.104,16.146-16.146,16.146
		c-9.042,0-16.145-7.104-16.145-16.145c0-3.229,1.291-6.459,2.584-9.041h-35.521v-35.521c2.584,1.938,5.812,2.584,9.041,2.584
		c9.041,0,16.146-7.104,16.146-16.146s-7.104-16.146-16.146-16.146c-3.229,0-6.459,1.291-9.041,2.584V99h80.084
		c9.688,0,18.084,8.396,18.084,18.084L295.979,197.167L295.979,197.167z"/>
	<path class="st2" d="M409,373.479c-3.229-5.812-5.812-12.271-7.75-21.312C396.084,325.688,393.5,316,393.5,316
		s-1.291-20.021-24.541-30.354c-23.896-10.334-46.5-26.479-69.75-18.084c-23.25,8.395-36.166,20.021-37.459,24.541
		c-0.646,3.229,0.646,5.812,3.229,7.75h3.229c0,0-2.584,3.875,1.291,10.979c0,0,7.75,9.688,19.375,18.729
		c11.625,9.688,16.146,23.25,17.438,27.125c0.646,3.875,3.875,31.646,28.416,52.312H409V373.479z"/>
	<path class="st4" d="M268.209,299.854c3.229-5.812,8.395-7.104,14.854-7.104c5.166,0,10.334,1.291,15.5,3.875
		c7.75,3.875,14.209,9.688,19.375,16.146c2.584,3.229,4.521,6.459,8.396,7.75c3.875,1.291,7.75-0.646,10.979-1.938
		c0.646,0,1.291-0.646,1.938-1.291c2.584-2.584,0.646-5.812,0-8.396c-0.646-3.875,1.291-7.75,4.521-9.041
		c-1.938,1.291-3.875,2.584-5.812,3.875c-0.646,0-0.646,0.646-1.291,0.646c-1.291,0-1.291-1.291-1.291-2.584
		c0.646-5.166,3.229-9.688,6.459-13.562c-3.229,5.166-9.688,6.459-14.854,5.812c-3.229-0.646-6.459-1.938-8.396-4.521
		c-1.938-1.938-2.584-5.166-2.584-7.75c0-2.584,0-5.812,0.646-8.396c-2.584,4.521-2.584,7.75-3.229,12.271
		c-1.291,3.875-9.688,3.229-10.979,3.229c-6.459,0-12.271-5.166-14.209-11.625c0.646,4.521,1.938,8.396,3.875,12.271
		c-3.875-1.291-7.75-2.584-11.625-1.938c-0.646,0-1.938,0.646-2.584,0.646C272.084,290.813,268.854,295.334,268.209,299.854
		L268.209,299.854z"/>
	<path class="st5" d="M310.834,221.063v80.084c0,9.688-8.396,18.084-18.084,18.084h-80.729v-35.521
		c-2.584,1.938-5.812,2.584-9.041,2.584c-9.041,0-16.146-7.104-16.146-16.146S193.938,254,202.979,254
		c3.229,0,6.459,1.291,9.041,2.584v-35.521h35.521c-1.938,2.584-2.584,5.812-2.584,9.041c0,9.041,7.104,16.146,16.146,16.146
		c9.041,0,16.146-7.104,16.146-16.146c0-3.229-1.291-6.459-2.584-9.041H310.834L310.834,221.063z"/>
	<path class="st2" d="M297.916,296.625c-4.521-2.584-9.688-3.875-15.5-3.875c-6.459,0-10.979,1.291-14.854,7.104
		c0,0-2.584,3.875,1.291,10.979c0,0,7.75,9.688,19.375,18.729c4.521,3.875,7.75,7.75,10.334,12.271h12.271l14.209-21.312
		c-3.875-1.291-5.812-4.521-8.396-7.75C312.125,305.667,305.666,300.5,297.916,296.625z"/>
	<path class="st6" d="M280.479,314.709c1.938-3.229,6.459-9.688,9.041-12.916c1.291-1.291,1.291-3.875,0-5.166l0,0
		c-2.584-1.938-8.396-6.459-14.854-3.875c-6.458,2.584-10.334,12.271-1.938,19.375l5.166,3.229
		C278.541,316,279.834,315.354,280.479,314.709z"/>
</g>
</svg>
