<?xml version="1.0" encoding="utf-8"?>
<!-- Generator: Adobe Illustrator 21.1.0, SVG Export Plug-In . SVG Version: 6.00 Build 0)  -->
<svg version="1.1" id="Layer_1" xmlns="http://www.w3.org/2000/svg" xmlns:xlink="http://www.w3.org/1999/xlink" x="0px" y="0px"
	 viewBox="0 0 508 508" style="enable-background:new 0 0 508 508;" xml:space="preserve">
<style type="text/css">
	.st0{fill:#45005C;}
	.st1{fill:#3DB39E;}
	.st2{fill:#7383BF;}
	.st3{fill:#81CEC0;}
	.st4{fill:#26B999;}
	.st5{fill:#F9E3D7;}
	.st6{fill:#FF2727;}
	.st7{fill:none;stroke:#FF2727;stroke-width:20;stroke-miterlimit:10;}
</style>
<circle class="st0" cx="254" cy="254" r="254"/>
<g>
	<polygon class="st1" points="222.722,257.683 230.245,287.113 253.999,287.113 253.999,125.384 191.322,142.179 222.367,258.039 	
		"/>
	<path class="st2" d="M174.274,404.867h-58.873c-6.774,0-12.265-5.491-12.265-12.265V292.64c0-6.774,5.491-12.266,12.265-12.266
		h58.874c6.774,0,12.265,5.491,12.265,12.266v99.963C186.54,399.376,181.048,404.867,174.274,404.867z"/>
	<polygon class="st1" points="253.999,404.887 253.999,103.14 404.863,103.132 404.863,404.867 321.206,404.867 	"/>
	<path class="st3" d="M380.618,321.073v-87.74v-40.341V158.9c-12.507,0-22.645-10.139-22.645-22.645h-57.081
		c0,12.506-10.139,22.645-22.645,22.645v128.218L380.618,321.073z"/>
	<circle class="st4" cx="329.434" cy="254.002" r="23.218"/>
	<path class="st5" d="M370.014,316.557h-19.195c8.129,0,14.718-6.59,14.718-14.718l0,0c0-8.129-6.59-14.718-14.718-14.718H230.245
		l-9.464-27.495l-34.241,34.241v90.15l16.913,14.749c4.511,3.934,10.295,6.102,16.28,6.102h115.909
		c8.252,0,15.203-6.753,15.047-15.003c-0.151-7.998-6.682-14.434-14.716-14.434h20.59c8.252,0,15.203-6.753,15.047-15.003
		c-0.151-7.998-6.682-14.434-14.716-14.434h13.119c8.129,0,14.718-6.59,14.718-14.718l0,0
		C384.733,323.147,378.143,316.557,370.014,316.557z"/>
	<path class="st3" d="M252.916,161.097l-7.573,2.029c3.237,12.081-3.932,24.498-16.012,27.735l24.668,91.345"/>
	<path d="M144.838,374.204c-1.613,0-3.195,0.656-4.336,1.797s-1.797,2.723-1.797,4.336s0.656,3.195,1.797,4.335
		c1.141,1.141,2.723,1.798,4.336,1.798s3.195-0.656,4.335-1.798c1.141-1.14,1.798-2.722,1.798-4.335s-0.656-3.195-1.798-4.336
		C148.032,374.859,146.45,374.204,144.838,374.204z"/>
	<path d="M380.614,207.395c-1.613,0-3.195,0.656-4.336,1.797c-1.14,1.141-1.797,2.723-1.797,4.336c0,1.613,0.656,3.195,1.797,4.335
		c1.141,1.141,2.723,1.798,4.336,1.798c1.619,0,3.195-0.656,4.336-1.798c1.146-1.14,1.802-2.722,1.802-4.335
		s-0.656-3.195-1.802-4.336C383.81,208.051,382.234,207.395,380.614,207.395z"/>
	<path d="M409.2,98.796c-1.151-1.15-2.711-1.796-4.338-1.796l-150.864,0.008c-3.387,0-6.132,2.746-6.132,6.133v17.538
		l-58.132,15.577c-3.272,0.877-5.214,4.24-4.337,7.511l30.129,112.441l-26.064,26.064c-3.317-4.844-8.887-8.029-15.187-8.029
		h-58.873c-10.145,0-18.398,8.254-18.398,18.398v99.963C97.003,402.747,105.256,411,115.401,411h58.874
		c8.618,0,15.869-5.959,17.856-13.971l7.292,6.359c5.629,4.909,12.842,7.612,20.311,7.612h185.13c3.387,0,6.133-2.746,6.133-6.133
		V103.132C410.995,101.506,410.35,99.945,409.2,98.796z M247.866,235.975l-11.186-41.418c4.672-2.413,8.496-6.022,11.186-10.331
		V235.975z M247.866,133.375v22.726l-4.11,1.101c-1.572,0.421-2.911,1.449-3.724,2.857c-0.813,1.409-1.034,3.082-0.613,4.654
		c2.357,8.795-2.881,17.867-11.676,20.224c-1.573,0.422-2.914,1.451-3.727,2.863c-0.813,1.411-1.032,3.088-0.607,4.66l23.905,88.52
		h-12.309l-6.343-24.816c-0.202-0.79-0.555-1.518-1.028-2.151l-28.803-107.499L247.866,133.375z M174.274,398.735h-58.873
		c-3.382,0-6.133-2.751-6.133-6.133V292.64c0-3.382,2.751-6.133,6.133-6.133h23.304v70.647c0,3.387,2.746,6.133,6.133,6.133
		s6.133-2.746,6.133-6.133v-70.647h23.304c3.382,0,6.133,2.751,6.133,6.133v99.963C180.407,395.983,177.656,398.735,174.274,398.735
		z M219.732,398.735c-4.505,0-8.855-1.63-12.25-4.59l-14.81-12.916v-84.822l26.775-26.775l4.856,19
		c0.694,2.715,3.139,4.614,5.941,4.614l120.574,0.007c4.735,0,8.586,3.851,8.586,8.586s-3.851,8.586-8.586,8.586h-61.782
		c-3.387,0-6.133,2.746-6.133,6.133s2.746,6.133,6.133,6.133h80.978c4.735,0,8.586,3.851,8.586,8.586s-3.851,8.586-8.586,8.586
		h-80.978c-3.387,0-6.133,2.746-6.133,6.133s2.746,6.133,6.133,6.133h67.855c4.735,0,8.586,3.851,8.586,8.586
		s-3.851,8.586-8.586,8.586h-67.855c-3.387,0-6.133,2.746-6.133,6.133s2.746,6.133,6.133,6.133h46.936
		c4.735,0,8.586,3.851,8.586,8.586s-3.851,8.586-8.586,8.586h-116.24V398.735z M398.73,398.735h-43.763
		c1.189-2.621,1.857-5.526,1.857-8.586s-0.668-5.965-1.857-8.586h1.925c11.497,0,20.851-9.354,20.851-20.851
		c0-3.353-0.8-6.522-2.213-9.332c8.829-2.425,15.335-10.517,15.335-20.105c0-4.651-1.532-8.951-4.116-12.422v-77.728
		c0-3.387-2.746-6.133-6.133-6.133s-6.133,2.746-6.133,6.133v69.787c-1.441-0.316-2.936-0.488-4.47-0.488h-0.201
		c1.189-2.621,1.857-5.526,1.857-8.586c0-11.497-9.354-20.851-20.851-20.851h-9.859c10.468-4.489,17.82-14.894,17.82-26.988
		c0-16.184-13.166-29.35-29.35-29.35s-29.349,13.167-29.349,29.35c0,12.093,7.353,22.498,17.82,26.988h-33.524V164.376
		c10.956-2.388,19.601-11.032,21.987-21.988h46.132c2.387,10.956,11.032,19.601,21.987,21.988v19.067
		c0,3.387,2.746,6.133,6.133,6.133s6.133-2.746,6.133-6.133v-24.542c0-3.387-2.746-6.133-6.133-6.133
		c-9.105,0-16.512-7.408-16.512-16.513c0-3.387-2.746-6.133-6.133-6.133h-57.08c-3.387,0-6.133,2.746-6.133,6.133
		c0,9.105-7.407,16.513-16.512,16.513c-3.387,0-6.133,2.746-6.133,6.133v122.086h-11.98V109.272l138.598-0.007L398.73,398.735
		L398.73,398.735L398.73,398.735z M329.431,271.085c-9.421,0-17.084-7.664-17.084-17.084s7.664-17.085,17.084-17.085
		s17.084,7.664,17.084,17.084C346.515,263.42,338.852,271.085,329.431,271.085z"/>
	<rect x="242.5" y="32" transform="matrix(0.7071 -0.7071 0.7071 0.7071 -105.296 252.7929)" class="st6" width="20" height="443"/>
	<circle class="st7" cx="254" cy="254" r="215.344"/>
</g>
</svg>
