<svg xmlns="http://www.w3.org/2000/svg" viewBox="0 0 508 508"><defs><style>.cls-1{fill:#45005c;}.cls-2{fill:#f7b081;}.cls-3{fill:#546f7a;}.cls-4{fill:#465a65;}.cls-5{fill:#efe7e4;}.cls-6{fill:#d8d1d0;}.cls-7{fill:#ffc89f;}.cls-8{fill:#dd9a76;}.cls-9{fill:#f7cb4f;}.cls-10{fill:#fbab00;}</style></defs><title>Ресурс 1</title><g id="Слой_2" data-name="Слой 2"><g id="Layer_1" data-name="Layer 1"><circle class="cls-1" cx="254" cy="254" r="254"/><path class="cls-2" d="M317,316.4l10.89-54.87a52.78,52.78,0,0,0,.44-18.81c-1.88-11.43-7.23-19.87-20-19.87h0l-3.35,19.72a156.48,156.48,0,0,1-5.58,22.8c-6.12,18.55-14.17,30.57-31,37.76-8.77,3.75-15.27,6.74-15.27,6.74H225.84v92.5h27.28l12.38,10A46.81,46.81,0,0,0,295,422.82h33.62V316.4Z"/><rect class="cls-3" x="100.31" y="290.06" width="85.84" height="130.42"/><rect class="cls-4" x="100.31" y="406" width="85.84" height="14.48"/><rect class="cls-5" x="186.16" y="300.68" width="39.68" height="109.19"/><rect class="cls-6" x="186.16" y="394.62" width="39.68" height="15.24"/><path class="cls-7" d="M314.73,330.31v-2.86a12,12,0,0,1,12-12h53.2a12,12,0,0,1,12,12v2.86a12,12,0,0,1-12,12h-53.2A12,12,0,0,1,314.73,330.31Z"/><path class="cls-2" d="M378.51,330.88H328.17A13.42,13.42,0,0,1,316,323.16a13.35,13.35,0,0,0-1.29,5.72h0a13.44,13.44,0,0,0,13.44,13.44h50.34a13.44,13.44,0,0,0,13.44-13.44h0a13.36,13.36,0,0,0-1.29-5.72A13.42,13.42,0,0,1,378.51,330.88Z"/><path class="cls-7" d="M314.73,382.62h0a13.44,13.44,0,0,1,13.44-13.44h50.34a13.44,13.44,0,0,1,13.44,13.44h0a13.44,13.44,0,0,1-13.44,13.44H328.17A13.44,13.44,0,0,1,314.73,382.62Z"/><path class="cls-2" d="M378.51,384.62H328.17A13.42,13.42,0,0,1,316,376.9a13.41,13.41,0,0,0,12.15,19.15h50.34a13.41,13.41,0,0,0,12.14-19.15A13.42,13.42,0,0,1,378.51,384.62Z"/><path class="cls-7" d="M314.73,409.49h0a13.44,13.44,0,0,1,13.44-13.44h36.48a13.44,13.44,0,0,1,13.44,13.44h0a13.44,13.44,0,0,1-13.44,13.44H328.17A13.43,13.43,0,0,1,314.73,409.49Z"/><path class="cls-2" d="M364.65,411.49H328.17A13.42,13.42,0,0,1,316,403.77a13.41,13.41,0,0,0,12.15,19.15h36.48a13.41,13.41,0,0,0,12.15-19.15A13.42,13.42,0,0,1,364.65,411.49Z"/><path class="cls-7" d="M314.73,357.18v-2.86a12,12,0,0,1,12-12h59.41a12,12,0,0,1,12,12v2.86a12,12,0,0,1-12,12H326.74A12,12,0,0,1,314.73,357.18Z"/><path class="cls-2" d="M384.72,357.75H328.17A13.42,13.42,0,0,1,316,350a13.35,13.35,0,0,0-1.29,5.72h0a13.44,13.44,0,0,0,13.44,13.44h56.55a13.44,13.44,0,0,0,13.44-13.44h0a13.35,13.35,0,0,0-1.29-5.72A13.42,13.42,0,0,1,384.72,357.75Z"/><path class="cls-8" d="M314.73,409.49a13.44,13.44,0,0,1,13.44-13.44,13.44,13.44,0,0,1,0-26.87,13.44,13.44,0,1,1,0-26.87,13.44,13.44,0,1,1,0-26.87H312.93a13.44,13.44,0,0,0,0,26.87,13.44,13.44,0,0,0,0,26.87,13.44,13.44,0,0,0,0,26.87,13.44,13.44,0,0,0,0,26.87h15.24A13.43,13.43,0,0,1,314.73,409.49Z"/><path id="SVGCleanerId_0" data-name="SVGCleanerId 0" class="cls-9" d="M151.76,125l10.54,21.35a4.45,4.45,0,0,0,3.35,2.43l23.57,3.42a4.45,4.45,0,0,1,2.46,7.58l-17.05,16.62a4.44,4.44,0,0,0-1.28,3.93l4,23.47a4.45,4.45,0,0,1-6.45,4.69l-21.08-11.08a4.44,4.44,0,0,0-4.14,0l-21.08,11.08a4.45,4.45,0,0,1-6.45-4.69l4-23.47a4.45,4.45,0,0,0-1.28-3.93L103.88,159.8a4.45,4.45,0,0,1,2.46-7.58l23.57-3.42a4.45,4.45,0,0,0,3.35-2.43L143.79,125A4.45,4.45,0,0,1,151.76,125Z"/><path id="SVGCleanerId_0-2" data-name="SVGCleanerId 0" class="cls-9" d="M151.76,125l10.54,21.35a4.45,4.45,0,0,0,3.35,2.43l23.57,3.42a4.45,4.45,0,0,1,2.46,7.58l-17.05,16.62a4.44,4.44,0,0,0-1.28,3.93l4,23.47a4.45,4.45,0,0,1-6.45,4.69l-21.08-11.08a4.44,4.44,0,0,0-4.14,0l-21.08,11.08a4.45,4.45,0,0,1-6.45-4.69l4-23.47a4.45,4.45,0,0,0-1.28-3.93L103.88,159.8a4.45,4.45,0,0,1,2.46-7.58l23.57-3.42a4.45,4.45,0,0,0,3.35-2.43L143.79,125A4.45,4.45,0,0,1,151.76,125Z"/><path class="cls-10" d="M191.68,159.8a4.45,4.45,0,0,0-2.46-7.58l-4.1-.6L163.18,173a5.72,5.72,0,0,0-1.65,5.06l4.81,28,4.58,2.41a4.45,4.45,0,0,0,6.45-4.69l-4-23.47a4.45,4.45,0,0,1,1.28-3.93Z"/><path id="SVGCleanerId_1" data-name="SVGCleanerId 1" class="cls-9" d="M259.19,87.55l10.54,21.35a4.45,4.45,0,0,0,3.35,2.43l23.57,3.42a4.45,4.45,0,0,1,2.46,7.58L282.05,139a4.44,4.44,0,0,0-1.28,3.93l4,23.47a4.45,4.45,0,0,1-6.45,4.69L257.27,160a4.44,4.44,0,0,0-4.14,0l-21.08,11.08a4.45,4.45,0,0,1-6.45-4.69l4-23.47a4.44,4.44,0,0,0-1.28-3.93l-17.05-16.62a4.45,4.45,0,0,1,2.46-7.58l23.57-3.42a4.44,4.44,0,0,0,3.35-2.43l10.54-21.35A4.45,4.45,0,0,1,259.19,87.55Z"/><path id="SVGCleanerId_1-2" data-name="SVGCleanerId 1" class="cls-9" d="M259.19,87.55l10.54,21.35a4.45,4.45,0,0,0,3.35,2.43l23.57,3.42a4.45,4.45,0,0,1,2.46,7.58L282.05,139a4.44,4.44,0,0,0-1.28,3.93l4,23.47a4.45,4.45,0,0,1-6.45,4.69L257.27,160a4.44,4.44,0,0,0-4.14,0l-21.08,11.08a4.45,4.45,0,0,1-6.45-4.69l4-23.47a4.44,4.44,0,0,0-1.28-3.93l-17.05-16.62a4.45,4.45,0,0,1,2.46-7.58l23.57-3.42a4.44,4.44,0,0,0,3.35-2.43l10.54-21.35A4.45,4.45,0,0,1,259.19,87.55Z"/><path class="cls-10" d="M299.11,122.35a4.44,4.44,0,0,0-2.46-7.58l-4.1-.6-21.94,21.38a5.72,5.72,0,0,0-1.65,5.06l4.81,28,4.58,2.41a4.45,4.45,0,0,0,6.45-4.69l-4-23.47a4.45,4.45,0,0,1,1.28-3.93Z"/><path id="SVGCleanerId_2" data-name="SVGCleanerId 2" class="cls-9" d="M366.42,125,377,146.36a4.45,4.45,0,0,0,3.35,2.43l23.57,3.42a4.45,4.45,0,0,1,2.46,7.58l-17.05,16.62a4.44,4.44,0,0,0-1.28,3.93l4,23.47a4.45,4.45,0,0,1-6.45,4.69L364.5,197.43a4.44,4.44,0,0,0-4.14,0l-21.08,11.08a4.45,4.45,0,0,1-6.45-4.69l4-23.47a4.45,4.45,0,0,0-1.28-3.93L318.54,159.8a4.44,4.44,0,0,1,2.46-7.58l23.57-3.42a4.45,4.45,0,0,0,3.35-2.43L358.45,125A4.45,4.45,0,0,1,366.42,125Z"/><path id="SVGCleanerId_2-2" data-name="SVGCleanerId 2" class="cls-9" d="M366.42,125,377,146.36a4.45,4.45,0,0,0,3.35,2.43l23.57,3.42a4.45,4.45,0,0,1,2.46,7.58l-17.05,16.62a4.44,4.44,0,0,0-1.28,3.93l4,23.47a4.45,4.45,0,0,1-6.45,4.69L364.5,197.43a4.44,4.44,0,0,0-4.14,0l-21.08,11.08a4.45,4.45,0,0,1-6.45-4.69l4-23.47a4.45,4.45,0,0,0-1.28-3.93L318.54,159.8a4.44,4.44,0,0,1,2.46-7.58l23.57-3.42a4.45,4.45,0,0,0,3.35-2.43L358.45,125A4.45,4.45,0,0,1,366.42,125Z"/><path class="cls-10" d="M406.34,159.8a4.44,4.44,0,0,0-2.46-7.58l-4.1-.6L377.84,173a5.72,5.72,0,0,0-1.65,5.06l4.81,28,4.58,2.41a4.45,4.45,0,0,0,6.45-4.69l-4-23.47a4.45,4.45,0,0,1,1.28-3.93Z"/><circle cx="159.05" cy="394.24" r="8.13"/><path d="M394.45,339.36a17,17,0,0,0,2.6-9.05v-2.86a17.13,17.13,0,0,0-17.11-17.11h-53.2a17.06,17.06,0,0,0-3.38.34l9.55-48.14a57.71,57.71,0,0,0,.47-20.63c-1.81-11-7.63-24.15-25.09-24.15a5.11,5.11,0,0,0-5,4.25l-3.35,19.72a152.07,152.07,0,0,1-5.4,22.06c-6.25,19-14.14,28.67-28.14,34.66-6.72,2.88-12.19,5.34-14.37,6.33H230.94v-4.08a5.11,5.11,0,0,0-5.11-5.11H191.26v-5.51a5.11,5.11,0,0,0-5.11-5.11H100.31a5.11,5.11,0,0,0-5.11,5.11v30.3a5.11,5.11,0,0,0,10.21,0v-25.2h75.63V415.38H105.42v-78a5.11,5.11,0,0,0-10.21,0v83.1a5.11,5.11,0,0,0,5.11,5.11h85.85a5.11,5.11,0,0,0,5.11-5.11V415h34.57a5.11,5.11,0,0,0,5.11-5.11v-2.39h20.37l11,8.88A52.08,52.08,0,0,0,295,427.93h31.22a18.81,18.81,0,0,0,2,.11h36.48A18.53,18.53,0,0,0,381.11,401,18.53,18.53,0,0,0,394,372.39a17.12,17.12,0,0,0,9.29-15.21v-2.86A17.12,17.12,0,0,0,394.45,339.36Zm-8.3,24.72H326.74a6.91,6.91,0,0,1-6.9-6.9v-2.86a6.91,6.91,0,0,1,6.9-6.9h59.41a6.91,6.91,0,0,1,6.9,6.9v2.86A6.9,6.9,0,0,1,386.15,364.07Zm-6.21-43.53a6.91,6.91,0,0,1,6.9,6.9v2.86a6.91,6.91,0,0,1-6.9,6.9h-53.2a6.91,6.91,0,0,1-6.9-6.9v-2.75c.33-1.24.62-2.4.87-3.47a6.9,6.9,0,0,1,6-3.55ZM268.71,408.42l-12.38-10a5.11,5.11,0,0,0-3.21-1.14H230.94V382.62a5.11,5.11,0,0,0-10.21,0v22.15H191.27v-99h29.46v59.81h0a5.11,5.11,0,0,0,10.21,0h0V315h22.18a5.1,5.1,0,0,0,2.13-.47c.06,0,6.55-3,15.14-6.68,16.83-7.2,26.62-19,33.82-40.85A162.34,162.34,0,0,0,310,243.43l2.55-15c6,1.4,9.3,6.15,10.77,15.15a47.54,47.54,0,0,1-.41,17L312,315.4c0,.1,0,.21-.05.31s-.29,2-1,5a17,17,0,0,0-1.29,5.11c-4,14.44-14.46,39.19-38.29,39.19a5.11,5.11,0,0,0,0,10.21c15.81,0,29-8.16,38.44-23.67a17.22,17.22,0,0,0-.22,2.72v2.86A17.06,17.06,0,0,0,315,369.6a18.5,18.5,0,0,0,.43,26.46,18.49,18.49,0,0,0-3.85,21.66H295A41.85,41.85,0,0,1,268.71,408.42Zm95.94,9.39H328.17a8.33,8.33,0,0,1,0-16.66h36.48a8.33,8.33,0,1,1,0,16.66Zm13.86-26.87H328.17a8.33,8.33,0,0,1,0-16.66h50.34a8.33,8.33,0,1,1,0,16.66Z"/><path d="M117.12,179.83l-4,23.13A9.54,9.54,0,0,0,127,213l20.77-10.92L168.55,213A9.55,9.55,0,0,0,182.41,203l-4-23.13,16.8-16.38a9.55,9.55,0,0,0-5.29-16.29l-23.22-3.37-10.38-21a9.55,9.55,0,0,0-17.13,0l-10.38,21-23.22,3.37a9.55,9.55,0,0,0-5.3,16.29Zm13.52-26a9.55,9.55,0,0,0,7.19-5.23l9.94-20.15,9.94,20.15a9.55,9.55,0,0,0,7.19,5.23l22.24,3.23-16.09,15.69a9.55,9.55,0,0,0-2.75,8.45l3.8,22.15-19.89-10.46a9.55,9.55,0,0,0-8.89,0l-19.89,10.46,3.8-22.15a9.55,9.55,0,0,0-2.75-8.45L108.4,157.08Z"/><path d="M224.54,142.38l-4,23.13a9.55,9.55,0,0,0,13.86,10.07l20.77-10.92L276,175.58a9.55,9.55,0,0,0,13.86-10.07l-4-23.13L302.67,126a9.55,9.55,0,0,0-5.3-16.29l-23.22-3.37-10.38-21a9.55,9.55,0,0,0-17.13,0l-10.38,21L213,109.71a9.55,9.55,0,0,0-5.3,16.29Zm13.52-26a9.55,9.55,0,0,0,7.19-5.23L255.21,91l9.94,20.15a9.55,9.55,0,0,0,7.19,5.22l22.24,3.23-16.09,15.69a9.55,9.55,0,0,0-2.75,8.45l3.8,22.15-19.89-10.46a9.55,9.55,0,0,0-8.89,0l-19.89,10.46,3.8-22.15a9.55,9.55,0,0,0-2.75-8.45l-16.09-15.69Z"/><path d="M412.32,153.66a9.49,9.49,0,0,0-7.71-6.5l-23.22-3.37-10.38-21a9.55,9.55,0,0,0-17.13,0l-10.38,21-23.22,3.37A9.55,9.55,0,0,0,315,163.45l16.8,16.38-4,23.13A9.55,9.55,0,0,0,341.67,213l20.77-10.92L383.21,213A9.55,9.55,0,0,0,397.06,203l-4-23.13,16.8-16.38A9.5,9.5,0,0,0,412.32,153.66Zm-26.6,19.1a9.55,9.55,0,0,0-2.75,8.45l3.8,22.15-19.89-10.46a9.55,9.55,0,0,0-8.89,0L338.1,203.36l3.8-22.15a9.55,9.55,0,0,0-2.75-8.45l-16.09-15.69,22.24-3.23a9.55,9.55,0,0,0,7.19-5.23l9.95-20.15,9.94,20.15a9.55,9.55,0,0,0,7.19,5.22l22.24,3.23Z"/></g></g></svg>