<?xml version="1.0" encoding="utf-8"?>
<!-- Generator: Adobe Illustrator 21.1.0, SVG Export Plug-In . SVG Version: 6.00 Build 0)  -->
<svg version="1.1" id="Layer_1" xmlns="http://www.w3.org/2000/svg" xmlns:xlink="http://www.w3.org/1999/xlink" x="0px" y="0px"
	 viewBox="0 0 508 508" style="enable-background:new 0 0 508 508;" xml:space="preserve">
<style type="text/css">
	.st0{fill:#45005C;}
	.st1{fill:#FBDF97;}
	.st2{fill:#FBC640;}
</style>
<circle class="st0" cx="254" cy="254" r="254"/>
<g>
	<polygon class="st1" points="253.999,75.377 333.29,163.724 441.814,211.833 382.293,314.543 370.075,432.622 253.999,407.754 
		137.923,432.622 125.704,314.543 66.184,211.833 174.709,163.724 	"/>
	<polygon class="st2" points="253.999,75.377 174.709,163.724 66.184,211.833 125.704,314.543 137.923,432.622 253.999,407.754 	"/>
	<path d="M229.461,325.472c-4.234,0-7.666,3.433-7.666,7.666s3.432,7.666,7.666,7.666h49.075c4.234,0,7.666-3.433,7.666-7.666
		s-3.432-7.666-7.666-7.666h-16.872v-88.517h16.872c4.234,0,7.666-3.433,7.666-7.666s-3.432-7.666-7.666-7.666h-49.075
		c-4.234,0-7.666,3.433-7.666,7.666s3.432,7.666,7.666,7.666h16.871v88.517H229.461L229.461,325.472z"/>
	<path d="M173.207,334.901c0.817,3.46,3.906,5.903,7.46,5.903s6.643-2.444,7.46-5.903l24.537-103.849
		c0.974-4.12-1.578-8.25-5.698-9.223c-4.119-0.974-8.249,1.578-9.223,5.698l-17.077,72.274l-17.077-72.274
		c-0.974-4.12-5.102-6.672-9.223-5.698c-4.12,0.974-6.672,5.103-5.698,9.223L173.207,334.901z"/>
	<path d="M302.793,340.804c4.234,0,7.666-3.433,7.666-7.666v-44.258h15.447c18.542,0,33.628-15.086,33.628-33.628
		c0-18.542-15.085-33.629-33.628-33.629h-23.113c-4.234,0-7.666,3.433-7.666,7.666v103.848
		C295.127,337.372,298.559,340.804,302.793,340.804z M344.202,255.252c0,10.089-8.208,18.296-18.296,18.296h-15.448v-36.592h15.447
		C335.995,236.955,344.202,245.163,344.202,255.252z"/>
	<path d="M130.298,433.411c0.224,2.165,1.358,4.133,3.119,5.413c1.762,1.281,3.984,1.749,6.112,1.294l114.471-24.524l114.471,24.524
		c0.532,0.114,1.07,0.17,1.606,0.17c1.605,0,3.185-0.505,4.506-1.465c1.761-1.28,2.896-3.248,3.119-5.413l12.05-116.445
		l58.696-101.289c1.092-1.884,1.331-4.142,0.657-6.213c-0.672-2.071-2.194-3.757-4.184-4.64L337.899,157.38l-78.194-87.123
		c-0.043-0.047-0.091-0.089-0.135-0.135c-0.099-0.106-0.202-0.208-0.308-0.309c-0.082-0.078-0.167-0.156-0.253-0.23
		c-0.111-0.096-0.226-0.189-0.344-0.278c-0.086-0.066-0.172-0.133-0.26-0.195c-0.13-0.091-0.263-0.176-0.399-0.259
		c-0.082-0.05-0.163-0.102-0.245-0.15c-0.154-0.087-0.314-0.166-0.474-0.242c-0.07-0.034-0.139-0.069-0.21-0.102
		c-0.183-0.08-0.37-0.15-0.56-0.215c-0.055-0.019-0.109-0.042-0.164-0.06c-0.207-0.066-0.418-0.121-0.632-0.17
		c-0.043-0.01-0.084-0.024-0.128-0.033c-0.221-0.047-0.447-0.08-0.674-0.108c-0.038-0.005-0.075-0.013-0.114-0.018
		c-0.263-0.027-0.532-0.042-0.803-0.042c-0.27,0-0.539,0.015-0.803,0.042c-0.038,0.004-0.075,0.013-0.114,0.018
		c-0.228,0.027-0.453,0.061-0.674,0.108c-0.043,0.009-0.085,0.023-0.128,0.033c-0.214,0.049-0.426,0.104-0.632,0.17
		c-0.055,0.018-0.109,0.04-0.164,0.06c-0.19,0.066-0.378,0.136-0.56,0.215c-0.071,0.031-0.141,0.068-0.21,0.102
		c-0.161,0.076-0.321,0.155-0.474,0.242c-0.083,0.047-0.164,0.099-0.245,0.15c-0.135,0.083-0.269,0.168-0.399,0.259
		c-0.089,0.062-0.174,0.128-0.26,0.195c-0.118,0.089-0.232,0.182-0.344,0.278c-0.086,0.074-0.17,0.152-0.253,0.23
		c-0.106,0.101-0.208,0.203-0.309,0.309c-0.044,0.047-0.092,0.087-0.135,0.135l-78.194,87.124L63.078,204.825
		c-1.99,0.882-3.512,2.569-4.184,4.64c-0.672,2.07-0.433,4.328,0.657,6.213l58.696,101.289L130.298,433.411z M177.816,170.732
		c0.99-0.438,1.875-1.082,2.599-1.888l65.919-73.448v102.642c0,4.233,3.432,7.666,7.666,7.666c4.234,0,7.666-3.433,7.666-7.666
		V95.396l65.919,73.448c0.723,0.806,1.609,1.449,2.599,1.888l100.715,44.647l-55.238,95.32c-0.543,0.937-0.881,1.978-0.992,3.054
		l-11.34,109.583l-101.662-21.78V362.09c0-4.233-3.432-7.666-7.666-7.666c-4.234,0-7.666,3.433-7.666,7.666v39.467l-101.664,21.78
		l-11.341-109.583c-0.111-1.077-0.449-2.118-0.992-3.054L77.1,215.379L177.816,170.732z"/>
	<path d="M349.288,334.415c-9.866,0-9.882,15.332,0,15.332C359.153,349.747,359.17,334.415,349.288,334.415z"/>
	<path d="M347.336,356.901c-4.197-0.551-8.049,2.4-8.602,6.598l-4.708,35.721c-0.554,4.198,2.401,8.048,6.598,8.602
		c0.34,0.045,0.677,0.066,1.011,0.066c3.787,0,7.082-2.807,7.59-6.665l4.708-35.721
		C354.487,361.305,351.533,357.454,347.336,356.901z"/>
</g>
</svg>
