<?xml version="1.0" encoding="utf-8"?>
<!-- Generator: Adobe Illustrator 21.1.0, SVG Export Plug-In . SVG Version: 6.00 Build 0)  -->
<svg version="1.1" id="Layer_1" xmlns="http://www.w3.org/2000/svg" xmlns:xlink="http://www.w3.org/1999/xlink" x="0px" y="0px"
	 viewBox="0 0 508 508" style="enable-background:new 0 0 508 508;" xml:space="preserve">
<style type="text/css">
	.st0{fill:#45005C;}
	.st1{fill:#2B8272;}
	.st2{fill:#4B9587;}
	.st3{fill:#359685;}
	.st4{fill:#53A697;}
	.st5{fill:#3DB39E;}
	.st6{fill:#81CEC0;}
	.st7{fill:#7383BF;}
	.st8{fill:#424A60;}
	.st9{fill:#556080;}
	.st10{fill:#7FABDA;}
</style>
<circle class="st0" cx="254" cy="254" r="254"/>
<g>
	<g>
		<path class="st1" d="M194.714,165.862l124.831-24.67c3.701-0.74,7.155,1.727,7.894,5.181l48.847,232.886
			c0.74,3.701-1.727,7.155-5.181,7.894l-125.077,24.67c-3.701,0.74-7.155-1.727-7.894-5.181l-48.6-232.885
			C188.793,170.056,191.014,166.602,194.714,165.862z"/>
		<path class="st2" d="M326.206,212.488l-11.348-55.508c-0.247-1.727-2.221-2.96-3.948-2.714l-105.588,20.97
			c-1.727,0.247-2.96,2.221-2.714,3.948l11.348,55.508c0.247,1.727,2.221,2.96,3.948,2.714s2.96-2.221,2.714-3.948l-10.608-52.3
			l98.927-19.736l10.608,52.3c0.247,1.727,2.221,2.96,3.948,2.714C325.219,215.942,326.453,214.215,326.206,212.488z"/>
		<path class="st3" d="M226.538,127.13l126.804-12.335c3.701-0.247,6.908,2.221,7.401,5.921l30.344,248.675
			c0.247,3.701-2.221,6.908-5.921,7.155L258.363,388.88c-3.701,0.247-6.908-2.221-7.401-5.921l-30.344-248.675
			C220.371,130.83,223.085,127.376,226.538,127.13z"/>
		<path class="st4" d="M347.175,130.09c-0.247-1.727-1.727-3.207-3.701-2.96l-107.068,10.361c-1.727,0.247-3.207,1.727-2.96,3.701
			l5.674,56.495c0.247,1.727,1.727,3.207,3.701,2.96c1.727-0.247,3.207-1.727,2.96-3.701l-5.181-53.041l100.407-9.621l5.181,53.041
			c0.247,1.727,1.727,3.207,3.701,2.96c1.727-0.247,3.207-1.727,2.96-3.701C352.85,186.585,347.175,130.09,347.175,130.09z"/>
		<path class="st5" d="M270.205,96.045h129.518c3.701,0,6.908,2.96,6.908,6.908v257.803c0,3.701-2.96,6.908-6.908,6.908H270.205
			c-3.701,0-6.908-2.96-6.908-6.908V102.953C263.298,99.006,266.258,96.045,270.205,96.045z"/>
		<path class="st6" d="M285.501,231.731c0,27.384,22.203,49.34,49.34,49.34s49.34-22.203,49.34-49.34s-22.203-49.34-49.34-49.34
			S285.501,204.594,285.501,231.731z M308.443,230.497h3.701c0.74-6.167,4.194-10.855,7.894-12.828
			c0.494-0.247,1.233-0.494,1.727-0.494c1.974,0,3.454,1.48,3.454,3.207c0,1.48-0.74,2.221-1.48,2.714
			c-2.714,2.714-4.934,5.921-4.934,10.362c0,5.674,1.974,8.388,5.921,8.388c9.621,0,5.181-22.943,20.97-22.943
			c5.921,0,10.855,3.454,11.842,11.595h3.701c1.727,0,3.207,1.233,3.207,2.96s-1.48,2.96-3.207,2.96h-3.701
			c-0.74,4.934-2.714,9.128-5.921,11.348c-0.494,0.494-1.233,0.74-2.221,0.74c-1.974,0-3.454-1.48-3.454-3.454
			c0-0.987,0.494-1.727,1.48-2.714c1.974-1.974,3.454-5.181,3.454-8.881c0-5.181-2.467-7.155-5.181-7.155
			c-8.635,0-4.687,22.943-20.97,22.943c-7.155,0-11.842-4.44-12.828-12.828h-3.701c-1.727,0-3.207-1.233-3.207-2.96
			C305.236,231.731,306.716,230.497,308.443,230.497z M390.348,305.741c-1.974,0-3.701,1.727-3.701,3.701v38.239H283.033v-38.239
			c0-1.974-1.727-3.701-3.701-3.701s-3.701,1.727-3.701,3.701v41.939c0,1.974,1.727,3.701,3.701,3.701h111.016
			c1.974,0,3.701-1.727,3.701-3.701v-41.939C394.049,307.468,392.322,305.741,390.348,305.741z M390.348,108.38H279.333
			c-1.974,0-3.701,1.727-3.701,3.701v41.939c0,1.974,1.727,3.701,3.701,3.701s3.701-1.727,3.701-3.701v-38.239h103.614v38.239
			c0,1.974,1.727,3.701,3.701,3.701s3.701-1.727,3.701-3.701v-41.939C394.049,110.107,392.322,108.38,390.348,108.38z
			 M327.44,315.609c0,4.194,3.207,7.401,7.401,7.401c4.194,0,7.401-3.207,7.401-7.401c0-4.194-3.207-7.401-7.401-7.401
			C330.647,308.209,327.44,311.662,327.44,315.609z M342.241,147.853c0-4.194-3.207-7.401-7.401-7.401
			c-4.194,0-7.401,3.207-7.401,7.401s3.207,7.401,7.401,7.401C339.034,155.254,342.241,152.047,342.241,147.853z"/>
	</g>
	<g>
		<path class="st7" d="M251.921,221.102c8.018-5.351,12.838-14.354,12.838-23.994v-45.839H142.217v45.839
			c0,9.64,4.82,18.643,12.838,23.994l40.263,26.841v10.894l-40.263,26.841c-8.018,5.347-12.838,14.35-12.838,23.99v45.839h122.542
			v-45.839c0-9.64-4.82-18.643-12.838-23.994l-40.263-26.841v-10.894L251.921,221.102z"/>
		<path class="st8" d="M245.12,210.906c4.624-3.084,7.385-8.243,7.385-13.794l0,0c0-5.335-3.631-9.987-8.807-11.282l-61.488-15.371
			c-14.088-3.525-27.74,7.132-27.74,21.657v4.996c0,5.551,2.761,10.71,7.385,13.794l37.547,27.556v64.854
			c0,14.828-15.375,24.656-28.83,18.426l0,0c-7.246-3.354-16.02,1.609-16.098,9.595c0,0.057,0,0.11,0,0.167v24.002h98.034v-45.843
			c0-0.057,0-0.11,0-0.167c-0.078-7.888-7.716-13.57-15.485-12.217l-8.37,1.458c-11.008,1.916-21.081-6.556-21.081-17.724v-42.551
			L245.12,210.906z"/>
		<rect x="121.793" y="355.506" class="st8" width="163.39" height="16.339"/>
		<rect x="121.793" y="134.93" class="st8" width="163.39" height="16.339"/>
		<path class="st9" d="M105.454,375.354h12.254h4.085h163.39h4.085h12.254c2.255,0,4.085-1.826,4.085-4.085
			c0-2.259-1.83-4.085-4.085-4.085h-12.254v-16.339H117.708v16.339h-12.254c-2.255,0-4.085,1.826-4.085,4.085
			C101.369,373.528,103.199,375.354,105.454,375.354z M125.878,359.015h155.22v8.169h-155.22V359.015z"/>
		<path class="st9" d="M301.522,130.845h-12.254h-4.085h-163.39h-4.085h-12.254c-2.255,0-4.085,1.826-4.085,4.085
			s1.83,4.085,4.085,4.085h12.254v16.339h171.559v-16.339h12.254c2.255,0,4.085-1.826,4.085-4.085S303.777,130.845,301.522,130.845z
			 M281.098,147.184h-155.22v-8.169h155.22V147.184z"/>
		<path class="st10" d="M183.06,228.879c-0.776,0-1.564-0.225-2.263-0.686l-18.945-12.63c-4.62-3.08-7.381-8.235-7.381-13.798
			v-9.076c0-2.259,1.83-4.085,4.085-4.085s4.085,1.826,4.085,4.085v9.076c0,2.818,1.401,5.437,3.746,7.001l18.945,12.63
			c1.875,1.254,2.381,3.787,1.131,5.666C185.675,228.242,184.38,228.879,183.06,228.879z"/>
		<path class="st10" d="M248.42,318.744c-2.255,0-4.085-1.826-4.085-4.085v-9.076c0-2.818-1.401-5.437-3.746-7.001l-18.945-12.63
			c-1.875-1.254-2.381-3.787-1.131-5.666c1.254-1.879,3.782-2.385,5.666-1.131l18.945,12.63c4.62,3.08,7.381,8.239,7.381,13.798
			v9.076C252.505,316.918,250.675,318.744,248.42,318.744z"/>
	</g>
</g>
</svg>
