<?xml version="1.0" encoding="utf-8"?>
<!-- Generator: Adobe Illustrator 21.1.0, SVG Export Plug-In . SVG Version: 6.00 Build 0)  -->
<svg version="1.1" id="Layer_1" xmlns="http://www.w3.org/2000/svg" xmlns:xlink="http://www.w3.org/1999/xlink" x="0px" y="0px"
	 viewBox="0 0 508 508" style="enable-background:new 0 0 508 508;" xml:space="preserve">
<style type="text/css">
	.st0{fill:#45005C;}
	.st1{fill:#FF8E4B;}
	.st2{fill:#D8D8E4;}
	.st3{fill:#EF3C3C;}
	.st4{stroke:#FFFFFF;stroke-miterlimit:10;}
</style>
<circle class="st0" cx="254" cy="254" r="254"/>
<g>
	<polygon class="st1" points="218.3,247.8 218.3,405.3 405.3,405.3 405.3,102.7 218.3,102.7 218.3,157.4 	"/>
	<path class="st2" d="M334.5,254.1c-23.3,10.5-49.6,12-74,4.2l-85-27.4v-28.7L334.5,254.1L334.5,254.1z"/>
	<polygon class="st3" points="218.3,149.9 218.3,201.1 405.3,201.1 405.3,102.7 218.3,102.7 218.3,120.5 	"/>
	<path class="st2" d="M334.5,150.2c-23.3-10.5-49.6-12-74-4.2l-85,27.4v28.7L334.5,150.2L334.5,150.2z"/>
	<path class="st4" d="M331.2,286.5l-49.5,88.8c-1.7,3-0.6,6.7,2.4,8.4c0.9,0.5,2,0.8,3,0.8c2.2,0,4.3-1.1,5.4-3.2l49.5-88.8
		c1.7-3,0.6-6.7-2.4-8.4C336.6,282.4,332.8,283.5,331.2,286.5z M320.6,363.5c0,11.5,9.4,20.9,20.9,20.9s20.9-9.4,20.9-20.9
		s-9.4-20.9-20.9-20.9S320.6,352,320.6,363.5z M350.1,363.5c0,4.7-3.9,8.6-8.6,8.6s-8.6-3.9-8.6-8.6s3.9-8.6,8.6-8.6
		S350.1,358.7,350.1,363.5z M282.2,283.3c-11.5,0-20.9,9.4-20.9,20.9s9.4,20.9,20.9,20.9s20.9-9.4,20.9-20.9
		S293.7,283.3,282.2,283.3z M282.2,312.8c-4.7,0-8.6-3.9-8.6-8.6s3.9-8.6,8.6-8.6s8.6,3.9,8.6,8.6S286.9,312.8,282.2,312.8z
		 M405.3,96.5h-187c-3.4,0-6.2,2.8-6.2,6.2v52.4l-38.6,12.4c-2.5,0.8-4.3,3.2-4.3,5.9v20.2l-24.4-8c7.9-5.6,13.1-14.8,13.1-25.2
		c0-17-13.8-30.8-30.8-30.8s-30.8,13.8-30.8,30.8c0,13.3,8.5,24.7,20.4,29c0,0,0,0,0,0l38.7,12.6l-37.3,12.2c-0.3,0.1-1.9,0.7-2,0.7
		c-11.6,4.4-19.8,15.6-19.8,28.7c0,17,13.8,30.8,30.8,30.8s30.8-13.8,30.8-30.8c0-10.4-5.2-19.6-13.1-25.2l24.4-8v20.2
		c0,2.7,1.7,5,4.3,5.9l38.6,12.4v36.3c0,3.4,2.8,6.2,6.2,6.2c3.4,0,6.2-2.8,6.2-6.2v-32.3l34.2,11c10.9,3.5,22.2,5.3,33.5,5.3
		c15.3,0,30.6-3.2,44.9-9.7c2.3-1,3.7-3.4,3.6-5.9c-0.1-2.5-1.8-4.7-4.2-5.5l-141.1-46.1L336.4,156c2.4-0.8,4.1-3,4.2-5.5
		c0.1-2.5-1.3-4.9-3.6-5.9c-24.7-11.2-52.6-12.7-78.4-4.4l-34.2,11v-42.3h174.7v290.3H224.5v-57.6c0-3.4-2.8-6.2-6.2-6.2
		c-3.4,0-6.2,2.8-6.2,6.2v63.8c0,3.4,2.8,6.2,6.2,6.2h187c3.4,0,6.2-2.8,6.2-6.2V102.7C411.5,99.3,408.7,96.5,405.3,96.5z
		 M127.3,179c-1.8,0-3.6-0.3-5.3-0.8l-0.9-0.3c-7.2-2.5-12.3-9.4-12.3-17.4c0-10.2,8.3-18.5,18.5-18.5s18.5,8.3,18.5,18.5
		C145.7,170.7,137.5,179,127.3,179z M145.7,243.7c0,10.2-8.3,18.5-18.5,18.5s-18.5-8.3-18.5-18.5c0-8,5.1-14.8,12.3-17.4l0.9-0.3
		c1.7-0.5,3.4-0.8,5.3-0.8C137.5,225.3,145.7,233.6,145.7,243.7z M262.4,252.4l-80.8-26v-15.7l133.6,43.7
		C297.9,258.5,279.6,257.9,262.4,252.4z M262.4,151.9c17.2-5.6,35.5-6.1,52.8-1.9l-133.6,43.7v-15.7L262.4,151.9z M303.4,195
		c-3.4,0-6.2,2.8-6.2,6.2c0,3.4,2.8,6.2,6.2,6.2h7.4c3.4,0,6.2-2.8,6.2-6.2c0-3.4-2.8-6.2-6.2-6.2H303.4z M269,195
		c-3.4,0-6.2,2.8-6.2,6.2c0,3.4,2.8,6.2,6.2,6.2h7.4c3.4,0,6.2-2.8,6.2-6.2c0-3.4-2.8-6.2-6.2-6.2H269z M234.5,195
		c-3.4,0-6.2,2.8-6.2,6.2c0,3.4,2.8,6.2,6.2,6.2h7.4c3.4,0,6.2-2.8,6.2-6.2c0-3.4-2.8-6.2-6.2-6.2H234.5z M366.2,201.2
		c0,3.4,2.8,6.2,6.2,6.2h7.4c3.4,0,6.2-2.8,6.2-6.2c0-3.4-2.8-6.2-6.2-6.2h-7.4C368.9,195,366.2,197.8,366.2,201.2z M345.2,195h-7.4
		c-3.4,0-6.2,2.8-6.2,6.2c0,3.4,2.8,6.2,6.2,6.2h7.4c3.4,0,6.2-2.8,6.2-6.2C351.4,197.8,348.6,195,345.2,195z M218.3,318.6
		c1.6,0,3.2-0.7,4.3-1.8c1.1-1.1,1.8-2.7,1.8-4.3s-0.7-3.2-1.8-4.3c-1.1-1.1-2.7-1.8-4.3-1.8c-1.6,0-3.2,0.7-4.3,1.8
		c-1.1,1.1-1.8,2.7-1.8,4.3s0.7,3.2,1.8,4.3C215.1,318,216.7,318.6,218.3,318.6z"/>
</g>
</svg>
