<?xml version="1.0" encoding="utf-8"?>
<!-- Generator: Adobe Illustrator 21.1.0, SVG Export Plug-In . SVG Version: 6.00 Build 0)  -->
<svg version="1.1" id="Layer_1" xmlns="http://www.w3.org/2000/svg" xmlns:xlink="http://www.w3.org/1999/xlink" x="0px" y="0px"
	 viewBox="0 0 508 508" style="enable-background:new 0 0 508 508;" xml:space="preserve">
<style type="text/css">
	.st0{fill:#45005C;}
	.st1{fill:#E8EAE9;}
	.st2{fill:#CED6E0;}
	.st3{fill:#66C6B9;}
	.st4{fill:#ADB3BA;}
	.st5{fill:#415A6B;}
	.st6{fill:#F3705A;}
	.st7{fill:#F7B64C;}
	.st8{fill:#FFFFFF;}
</style>
<circle class="st0" cx="254" cy="254" r="254"/>
<g>
	<path class="st1" d="M313.113,411.277H158.481l-61.59-61.591V116.43c0-11.138,8.518-19.656,19.656-19.656h196.565
		c11.138,0,19.656,8.518,19.656,19.656v275.191C332.769,402.759,324.251,411.277,313.113,411.277z"/>
	<g>
		<rect x="191.242" y="366.067" class="st2" width="110.732" height="19.001"/>
		<rect x="128.342" y="311.684" class="st2" width="172.977" height="19.001"/>
		<rect x="128.342" y="256.646" class="st2" width="172.977" height="19.001"/>
		<rect x="231.21" y="201.608" class="st2" width="70.763" height="19.001"/>
	</g>
	<rect x="231.21" y="146.57" class="st3" width="70.763" height="19.001"/>
	<path class="st4" d="M158.481,411.277v-41.934c0-11.138-8.518-19.656-19.656-19.656H96.891L158.481,411.277z"/>
	<g>
		<circle class="st5" cx="170.275" cy="149.191" r="21.622"/>
		<path class="st5" d="M211.554,220.609h-83.212c0-22.932,18.346-41.934,41.934-41.934
			C193.208,178.675,211.554,197.676,211.554,220.609z"/>
		<path class="st5" d="M326.217,164.26c1.966,1.31,4.587,0.655,5.897-1.31c9.828-13.76,19.001-36.037,23.588-48.486
			c0.655-1.31,1.966-1.966,2.621-2.621c1.31-0.655,2.621,0,3.931,0.655l11.138,7.207c1.966,1.31,4.587,0.655,5.897-1.31
			c1.31-1.966,0.655-4.587-1.31-5.897l-11.138-7.207c-3.276-1.966-7.207-2.621-11.138-1.31c-3.931,1.31-6.552,3.931-7.863,7.863
			c-4.587,11.794-13.76,34.071-22.932,46.52C323.596,160.329,324.251,162.95,326.217,164.26L326.217,164.26z"/>
	</g>
	<path class="st6" d="M294.766,292.027c15.07-14.415,28.174-30.14,38.658-47.831l43.9-70.108l-31.45-20.312l-43.9,70.108
		c-11.138,17.691-19.656,36.037-26.209,55.694L294.766,292.027z"/>
	<path class="st5" d="M277.731,272.371c-0.655,2.621-1.966,4.587-2.621,7.207l19.656,12.449c1.966-1.966,3.276-3.931,5.242-5.242
		L277.731,272.371z"/>
	<path class="st6" d="M376.013,105.946l-30.14,47.831l32.106,20.312l30.14-48.486c5.897-9.173,2.621-20.312-5.897-26.209l0,0
		C393.704,94.152,381.91,96.773,376.013,105.946z"/>
	
		<rect x="357.353" y="145.525" transform="matrix(0.5328 -0.8462 0.8462 0.5328 29.8657 383.1466)" class="st5" width="9.173" height="38"/>
	<polygon class="st7" points="277.076,280.889 265.282,291.373 262.006,322.823 288.869,306.442 292.801,291.373 	"/>
	<circle class="st8" cx="277.076" cy="298.58" r="2.621"/>
</g>
</svg>
