<?xml version="1.0" encoding="utf-8"?>
<!-- Generator: Adobe Illustrator 21.1.0, SVG Export Plug-In . SVG Version: 6.00 Build 0)  -->
<svg version="1.1" id="Layer_1" xmlns="http://www.w3.org/2000/svg" xmlns:xlink="http://www.w3.org/1999/xlink" x="0px" y="0px"
	 viewBox="0 0 508 508" style="enable-background:new 0 0 508 508;" xml:space="preserve">
<style type="text/css">
	.st0{fill:#45005C;}
	.st1{fill:#3DB39E;}
	.st2{fill:#7383BF;}
	.st3{fill:#81CEC0;}
	.st4{fill:#26B999;}
	.st5{fill:#F9E3D7;}
	.st6{stroke:#FFFFFF;stroke-miterlimit:10;}
</style>
<circle class="st0" cx="254" cy="254" r="254"/>
<g>
	<polygon class="st1" points="222.7,257.7 230.2,287.1 254,287.1 254,125.4 191.3,142.2 222.4,258 	"/>
	<path class="st2" d="M174.3,404.9h-58.9c-6.8,0-12.3-5.5-12.3-12.3v-100c0-6.8,5.5-12.3,12.3-12.3h58.9c6.8,0,12.3,5.5,12.3,12.3
		v100C186.5,399.4,181,404.9,174.3,404.9z"/>
	<polygon class="st1" points="254,404.9 254,103.1 404.9,103.1 404.9,404.9 321.2,404.9 	"/>
	<path class="st3" d="M380.6,321.1v-87.7V193v-34.1c-12.5,0-22.6-10.1-22.6-22.6h-57.1c0,12.5-10.1,22.6-22.6,22.6v128.2
		L380.6,321.1z"/>
	<circle class="st4" cx="329.4" cy="254" r="23.2"/>
	<path class="st5" d="M370,316.6h-19.2c8.1,0,14.7-6.6,14.7-14.7l0,0c0-8.1-6.6-14.7-14.7-14.7H230.2l-9.5-27.5l-34.2,34.2V384
		l16.9,14.7c4.5,3.9,10.3,6.1,16.3,6.1h115.9c8.3,0,15.2-6.8,15-15c-0.2-8-6.7-14.4-14.7-14.4h20.6c8.3,0,15.2-6.8,15-15
		c-0.2-8-6.7-14.4-14.7-14.4H370c8.1,0,14.7-6.6,14.7-14.7l0,0C384.7,323.1,378.1,316.6,370,316.6z"/>
	<path class="st3" d="M252.9,161.1l-7.6,2c3.2,12.1-3.9,24.5-16,27.7l24.7,91.3"/>
	<path class="st6" d="M144.8,374.2c-1.6,0-3.2,0.7-4.3,1.8s-1.8,2.7-1.8,4.3s0.7,3.2,1.8,4.3c1.1,1.1,2.7,1.8,4.3,1.8
		s3.2-0.7,4.3-1.8c1.1-1.1,1.8-2.7,1.8-4.3s-0.7-3.2-1.8-4.3C148,374.9,146.4,374.2,144.8,374.2z M380.6,207.4
		c-1.6,0-3.2,0.7-4.3,1.8c-1.1,1.1-1.8,2.7-1.8,4.3c0,1.6,0.7,3.2,1.8,4.3c1.1,1.1,2.7,1.8,4.3,1.8c1.6,0,3.2-0.7,4.3-1.8
		c1.1-1.1,1.8-2.7,1.8-4.3s-0.7-3.2-1.8-4.3C383.8,208.1,382.2,207.4,380.6,207.4z M409.2,98.8c-1.2-1.2-2.7-1.8-4.3-1.8L254,97
		c-3.4,0-6.1,2.7-6.1,6.1v17.5l-58.1,15.6c-3.3,0.9-5.2,4.2-4.3,7.5l30.1,112.4l-26.1,26.1c-3.3-4.8-8.9-8-15.2-8h-58.9
		c-10.1,0-18.4,8.3-18.4,18.4v100c0,10.1,8.3,18.4,18.4,18.4h58.9c8.6,0,15.9-6,17.9-14l7.3,6.4c5.6,4.9,12.8,7.6,20.3,7.6h185.1
		c3.4,0,6.1-2.7,6.1-6.1V103.1C411,101.5,410.4,99.9,409.2,98.8z M247.9,236l-11.2-41.4c4.7-2.4,8.5-6,11.2-10.3V236z M247.9,133.4
		v22.7l-4.1,1.1c-1.6,0.4-2.9,1.4-3.7,2.9c-0.8,1.4-1,3.1-0.6,4.7c2.4,8.8-2.9,17.9-11.7,20.2c-1.6,0.4-2.9,1.5-3.7,2.9
		c-0.8,1.4-1,3.1-0.6,4.7l23.9,88.5H235l-6.3-24.8c-0.2-0.8-0.6-1.5-1-2.2l-28.8-107.5L247.9,133.4z M174.3,398.7h-58.9
		c-3.4,0-6.1-2.8-6.1-6.1v-100c0-3.4,2.8-6.1,6.1-6.1h23.3v70.6c0,3.4,2.7,6.1,6.1,6.1s6.1-2.7,6.1-6.1v-70.6h23.3
		c3.4,0,6.1,2.8,6.1,6.1v100C180.4,396,177.7,398.7,174.3,398.7z M219.7,398.7c-4.5,0-8.9-1.6-12.2-4.6l-14.8-12.9v-84.8l26.8-26.8
		l4.9,19c0.7,2.7,3.1,4.6,5.9,4.6l120.6,0c4.7,0,8.6,3.9,8.6,8.6s-3.9,8.6-8.6,8.6H289c-3.4,0-6.1,2.7-6.1,6.1s2.7,6.1,6.1,6.1h81
		c4.7,0,8.6,3.9,8.6,8.6s-3.9,8.6-8.6,8.6h-81c-3.4,0-6.1,2.7-6.1,6.1s2.7,6.1,6.1,6.1h67.9c4.7,0,8.6,3.9,8.6,8.6s-3.9,8.6-8.6,8.6
		H289c-3.4,0-6.1,2.7-6.1,6.1s2.7,6.1,6.1,6.1H336c4.7,0,8.6,3.9,8.6,8.6s-3.9,8.6-8.6,8.6L219.7,398.7L219.7,398.7z M398.7,398.7
		H355c1.2-2.6,1.9-5.5,1.9-8.6s-0.7-6-1.9-8.6h1.9c11.5,0,20.9-9.4,20.9-20.9c0-3.4-0.8-6.5-2.2-9.3c8.8-2.4,15.3-10.5,15.3-20.1
		c0-4.7-1.5-9-4.1-12.4v-77.7c0-3.4-2.7-6.1-6.1-6.1s-6.1,2.7-6.1,6.1v69.8c-1.4-0.3-2.9-0.5-4.5-0.5h-0.2c1.2-2.6,1.9-5.5,1.9-8.6
		c0-11.5-9.4-20.9-20.9-20.9H341c10.5-4.5,17.8-14.9,17.8-27c0-16.2-13.2-29.4-29.4-29.4s-29.3,13.2-29.3,29.4
		c0,12.1,7.4,22.5,17.8,27h-33.5V164.4c11-2.4,19.6-11,22-22h46.1c2.4,11,11,19.6,22,22v19.1c0,3.4,2.7,6.1,6.1,6.1s6.1-2.7,6.1-6.1
		v-24.5c0-3.4-2.7-6.1-6.1-6.1c-9.1,0-16.5-7.4-16.5-16.5c0-3.4-2.7-6.1-6.1-6.1h-57.1c-3.4,0-6.1,2.7-6.1,6.1
		c0,9.1-7.4,16.5-16.5,16.5c-3.4,0-6.1,2.7-6.1,6.1V281h-12V109.3l138.6,0L398.7,398.7L398.7,398.7L398.7,398.7z M329.4,271.1
		c-9.4,0-17.1-7.7-17.1-17.1s7.7-17.1,17.1-17.1s17.1,7.7,17.1,17.1C346.5,263.4,338.9,271.1,329.4,271.1z"/>
</g>
</svg>
