<?xml version="1.0" encoding="utf-8"?>
<!-- Generator: Adobe Illustrator 21.1.0, SVG Export Plug-In . SVG Version: 6.00 Build 0)  -->
<svg version="1.1" id="Layer_1" xmlns="http://www.w3.org/2000/svg" xmlns:xlink="http://www.w3.org/1999/xlink" x="0px" y="0px"
	 viewBox="0 0 508 508" style="enable-background:new 0 0 508 508;" xml:space="preserve">
<style type="text/css">
	.st0{fill:#45005C;}
	.st1{display:none;}
	.st2{display:inline;fill:#324A5E;}
	.st3{display:inline;fill:#FFFFFF;}
	.st4{display:inline;}
	.st5{fill:#FFD05B;}
	.st6{display:inline;fill:#84DBFF;}
	.st7{fill:#CED5E0;}
	.st8{fill:#5E3118;}
	.st9{fill:#77442B;}
	.st10{display:inline;fill:#EAEAD6;}
	.st11{display:inline;fill:#BFBDA3;}
	.st12{display:inline;fill:#6D8C60;}
	.st13{display:inline;fill:#91553D;}
	.st14{display:inline;fill:#6D3D25;}
	.st15{display:inline;fill:#5E3118;}
	.st16{display:inline;fill:#E4C05C;}
	.st17{display:inline;fill:#4DC95B;}
	.st18{display:inline;fill:#298430;}
	.st19{display:inline;fill:#E8EAE9;}
	.st20{fill:#CED6E0;}
	.st21{display:inline;fill:#66C6B9;}
	.st22{display:inline;fill:#ADB3BA;}
	.st23{fill:#415A6B;}
	.st24{display:inline;fill:#F3705A;}
	.st25{display:inline;fill:#415A6B;}
	.st26{display:inline;fill:#F7B64C;}
	.st27{display:inline;fill:#D89932;}
	.st28{display:inline;fill:#E2E5E7;}
	.st29{display:inline;opacity:0.07;fill:#2D404E;enable-background:new    ;}
	.st30{display:inline;fill:#F2B643;}
	.st31{display:inline;opacity:0.54;fill:#D89932;enable-background:new    ;}
	.st32{fill:#D1D5D5;}
	.st33{display:inline;fill:#D1D5D5;}
	.st34{fill:#DF584C;}
	.st35{fill:#E2E5E7;}
	.st36{fill:#2D404E;}
	.st37{fill:#545E73;}
	.st38{fill:#8697CB;}
	.st39{fill:#323A45;}
	.st40{fill:#26B999;}
	.st41{fill:#FFFFFF;}
	.st42{display:inline;fill:#FF8E4B;}
	.st43{display:inline;fill:#D8D8E4;}
	.st44{display:inline;fill:#EF3C3C;}
	.st45{display:inline;fill:#C8523B;}
	.st46{display:inline;fill:#EDEEF0;}
	.st47{display:inline;fill:#59595A;}
	.st48{display:inline;opacity:0.4;fill:#5B5B5F;enable-background:new    ;}
	.st49{fill:#2B8272;}
	.st50{fill:#4B9587;}
	.st51{fill:#359685;}
	.st52{fill:#53A697;}
	.st53{fill:#3DB39E;}
	.st54{fill:#81CEC0;}
	.st55{fill:#7383BF;}
	.st56{fill:#424A60;}
	.st57{fill:#556080;}
	.st58{fill:#7FABDA;}
	.st59{display:inline;fill:#3DB39E;}
	.st60{display:inline;fill:#7383BF;}
	.st61{display:inline;fill:#81CEC0;}
	.st62{display:inline;fill:#26B999;}
	.st63{display:inline;fill:#F9E3D7;}
	.st64{fill:#EFEFEF;}
</style>
<circle class="st0" cx="254" cy="254" r="254"/>
<g class="st1">
	<path class="st2" d="M382.4,431.2H125.6c-8.4,0-15.2-6.8-15.2-15.2V92.4c0-8.4,6.8-15.2,15.2-15.2h256.8c8.4,0,15.2,6.8,15.2,15.2
		V416C397.6,424.4,390.8,431.2,382.4,431.2z"/>
	<path class="st3" d="M131.6,386.4V121.6c12.8,0,23.2-10.4,23.2-23.2h197.6c0,12.8,10.4,23.2,23.2,23.2V386
		c-12.8,0-23.2,10.4-23.2,23.2H155.2C155.2,396.8,144.8,386.4,131.6,386.4z"/>
	<g class="st4">
		<path class="st5" d="M217.6,124c-11.2-1.6-25.2,8.8-26.4,18.8l0,0C201.2,140,210.8,132.8,217.6,124L217.6,124z"/>
		<path class="st5" d="M186,128L186,128c-10.8,10.4-10.8,23.6-4,27.2l0,0C187.6,145.2,191.2,134,186,128z"/>
		<path class="st5" d="M205.6,148.8c-5.2-6-17.2-4-23.6,6.4l0,0C189.2,159.2,198.4,155.2,205.6,148.8L205.6,148.8z"/>
		<path class="st5" d="M172,144.4L172,144.4c-8,12-4.8,25.2,2.8,27.2l0,0C178,160.4,178.4,148.8,172,144.4z"/>
		<path class="st5" d="M196,160c-6.4-4.8-17.2-0.4-21.2,11.2l0,0C182.4,173.6,190.8,168,196,160L196,160z"/>
		<path class="st5" d="M162.8,162.8L162.8,162.8c-4.8,13.2,0.8,25.2,8.4,25.6l0,0C172.4,177.2,170,166,162.8,162.8z"/>
		<path class="st5" d="M189.2,172.8c-7.2-3.2-16.8,3.2-18,15.2l0,0C179.2,188.8,186,181.6,189.2,172.8L189.2,172.8z"/>
		<path class="st5" d="M157.6,182.4L157.6,182.4c-2,14,6,24.4,14,23.2l0,0C170,194.4,165.2,184,157.6,182.4z"/>
		<path class="st5" d="M186,186.8c-7.6-1.6-15.6,6.8-14.4,18.8l0,0C179.2,204.4,184.4,195.6,186,186.8L186,186.8z"/>
		<path class="st5" d="M156.8,202.8L156.8,202.8c0.8,14,11.2,22.4,18.4,19.6l0,0C171.6,212,164.8,202.8,156.8,202.8z"/>
		<path class="st5" d="M185.2,200.8c-8,0-14,10-10,21.6l0,0C182.4,219.6,186,210,185.2,200.8L185.2,200.8z"/>
		<path class="st5" d="M160.4,223.2L160.4,223.2c4,13.6,16,20,22.4,15.2l0,0C176.4,228.8,168,221.2,160.4,223.2z"/>
		<path class="st5" d="M187.6,214.8c-7.6,2-11.6,12.8-5.2,23.6l0,0C189.2,234,190.4,224,187.6,214.8L187.6,214.8z"/>
		<path class="st5" d="M168.4,242L168.4,242c6.8,12.4,20.4,16,25.6,10.4l0,0C185.2,244,175.6,238.4,168.4,242z"/>
		<path class="st5" d="M193.2,228c-7.2,3.6-8.4,15.2,0.4,24.4l0,0C199.2,246.4,197.6,236.4,193.2,228L193.2,228z"/>
		<path class="st5" d="M219.6,264.8c-8.4-2-16-5.6-23.2-10c5.2,6.8,11.6,12.8,19.6,18C217.2,270,218.4,267.6,219.6,264.8z"/>
		<path class="st5" d="M290.4,124c11.2-1.6,25.2,8.8,26.4,18.8l0,0C306.8,140,297.2,132.8,290.4,124L290.4,124z"/>
		<path class="st5" d="M322,128L322,128c10.8,10.4,10.8,23.6,4,27.2l0,0C320.4,145.2,316.8,134,322,128z"/>
		<path class="st5" d="M302.4,148.8c5.2-6,17.2-4,23.6,6.4l0,0C318.8,159.2,309.6,155.2,302.4,148.8L302.4,148.8z"/>
		<path class="st5" d="M336,144.4L336,144.4c8,12,4.8,25.2-2.8,27.2l0,0C330,160.4,329.6,148.8,336,144.4z"/>
		<path class="st5" d="M312,160c6.4-4.8,17.2-0.4,21.2,11.2l0,0C325.6,173.6,317.2,168,312,160L312,160z"/>
		<path class="st5" d="M345.2,162.8L345.2,162.8c4.8,13.2-0.8,25.2-8.4,25.6l0,0C335.6,177.2,338,166,345.2,162.8z"/>
		<path class="st5" d="M318.8,172.8c7.2-3.2,16.8,3.2,18,15.2l0,0C328.8,188.8,322,181.6,318.8,172.8L318.8,172.8z"/>
		<path class="st5" d="M350.4,182.4L350.4,182.4c2,14-6,24.4-14,23.2l0,0C338,194.4,342.8,184,350.4,182.4z"/>
		<path class="st5" d="M322,186.8c7.6-1.6,15.6,6.8,14.4,18.8l0,0C328.8,204.4,323.6,195.6,322,186.8L322,186.8z"/>
		<path class="st5" d="M351.2,202.8L351.2,202.8c-0.8,14-11.2,22.4-18.4,19.6l0,0C336.4,212,343.2,202.8,351.2,202.8z"/>
		<path class="st5" d="M322.8,200.8c8,0,14,10,10,21.6l0,0C325.6,219.6,322,210,322.8,200.8L322.8,200.8z"/>
		<path class="st5" d="M347.6,223.2L347.6,223.2c-4,13.6-16,20-22.4,15.2l0,0C331.6,228.8,340,221.2,347.6,223.2z"/>
		<path class="st5" d="M320.4,214.8c7.6,2,11.6,12.8,5.2,23.6l0,0C318.8,234,317.6,224,320.4,214.8L320.4,214.8z"/>
		<path class="st5" d="M339.6,242L339.6,242c-6.8,12.4-20.4,16-25.6,10.4l0,0C322.8,244,332.4,238.4,339.6,242z"/>
		<path class="st5" d="M314.8,228c7.2,3.6,8.4,15.2-0.4,24.4l0,0C308.8,246.4,310.4,236.4,314.8,228L314.8,228z"/>
		<path class="st5" d="M288.4,264.8c8.4-2,16-5.6,23.2-10c-5.2,6.8-11.6,12.8-19.6,18C290.8,270,289.6,267.6,288.4,264.8z"/>
	</g>
	<path class="st6" d="M294,224.8c-10,9.6-24,15.6-40,15.6s-30-6-40-15.6l0,0c1.6-5.2,5.6-9.6,10.4-12l15.6-7.6
		c0.4-2,2.8-4.8,2.8-4.8c-1.2-1.6-2-3.6-2.8-5.6c-1.2,0-2.4-1.2-3.2-2.4c-0.8-1.6-0.8-3.2,0-4c-2.4-6.4-4-16.4,4-23.6l-4,0.8
		c0,0,4.8-8.8,14.4-5.6c0,0-0.8-1.6-4-2.4c0,0,4.4-2,6.8,1.2c0,0,1.6-1.2,0-2.4c0,0,7.6,0.4,14,6.4c8.8,8.4,6.8,19.2,3.6,26.4
		c0.4,0.8,0.4,2.4-0.4,3.6c-0.8,1.2-1.6,2.4-2.8,2.4c-0.8,0.8-2.4,4.4-3.2,5.6c0,0,2.4,2.8,2.8,4.8l15.6,7.6
		C288.4,215.2,292.4,219.6,294,224.8L294,224.8z"/>
	<g class="st4">
		<rect x="165.2" y="306.8" class="st7" width="177.6" height="8.4"/>
		<rect x="165.2" y="327.2" class="st7" width="177.6" height="8.4"/>
		<rect x="165.2" y="347.6" class="st7" width="177.6" height="8.4"/>
		<rect x="165.2" y="368" class="st7" width="102" height="8.4"/>
	</g>
</g>
<g class="st1">
	<g class="st4">
		<polygon class="st8" points="324.048,124.753 399.373,200.079 396.421,203.031 416.147,203.031 416.147,124.753 		"/>
		<path class="st8" d="M227.016,124.753h-96.025c-21.616,0-39.139,17.523-39.139,39.139s17.523,39.139,39.139,39.139h23.651
			l-2.952-2.952L227.016,124.753z"/>
	</g>
	<g class="st4">
		<path class="st9" d="M184.349,138.636c-3.584,0.268-7.257,0.447-10.965,0.581c-3.086,0.112-5.496,2.701-5.384,5.787
			c0.112,3.019,2.589,5.39,5.58,5.39c0.073,0,0.134,0,0.207-0.006c3.847-0.134,7.666-0.33,11.389-0.604
			c3.081-0.229,5.39-2.913,5.161-5.988C190.108,140.722,187.436,138.396,184.349,138.636z"/>
		<path class="st9" d="M151.053,139.766c-3.892,0.112-7.71,0.252-11.373,0.481c-3.086,0.19-5.429,2.846-5.239,5.927
			c0.185,2.963,2.645,5.245,5.575,5.245c0.117,0,0.235-0.006,0.352-0.011c3.545-0.218,7.23-0.358,10.992-0.458
			c3.086-0.089,5.519-2.656,5.44-5.742C156.723,142.12,154.05,139.911,151.053,139.766z"/>
		<path class="st9" d="M116.225,143.959c-5.071,1.661-8.957,3.88-11.854,6.782c-2.186,2.186-2.186,5.72,0,7.906
			c1.09,1.09,2.522,1.638,3.953,1.638s2.863-0.548,3.953-1.638c1.61-1.605,4.104-2.975,7.431-4.065
			c2.93-0.962,4.535-4.115,3.573-7.056C122.325,144.602,119.189,142.992,116.225,143.959z"/>
		<path class="st9" d="M371.417,141.527h-11.183c-3.092,0-5.591,2.499-5.591,5.591s2.499,5.591,5.591,5.591h11.183
			c3.092,0,5.591-2.499,5.591-5.591S374.509,141.527,371.417,141.527z"/>
		<path class="st9" d="M404.965,141.527h-11.183c-3.092,0-5.591,2.499-5.591,5.591s2.499,5.591,5.591,5.591h11.183
			c3.092,0,5.591-2.499,5.591-5.591S408.057,141.527,404.965,141.527z"/>
	</g>
	<path class="st10" d="M402.482,203.031L292.021,92.726c-0.302-0.302-0.794-0.302-1.096,0L180.469,203.031H402.482z"/>
	<path class="st11" d="M180.62,203.031l94.912-94.912l-15.393-15.393c-0.302-0.302-0.794-0.302-1.096,0L148.588,203.031H180.62z"/>
	<path class="st12" d="M356.494,206.526l1.728-1.728l-66.43-66.341c-0.179-0.179-0.464-0.179-0.643,0l-66.396,66.341l1.728,1.728
		H356.494z"/>
	<g class="st4">
		<path class="st9" d="M91.853,163.892v217.21c0,18.999,15.398,34.398,34.398,34.398h289.897V203.031H130.992
			C109.376,203.031,91.853,185.508,91.853,163.892z"/>
	</g>
	<path class="st13" d="M382.599,230.988h-11.183c-3.092,0-5.591-2.499-5.591-5.591s2.499-5.591,5.591-5.591h11.183
		c3.092,0,5.591,2.499,5.591,5.591S385.691,230.988,382.599,230.988z M349.052,230.988h-11.183c-3.092,0-5.591-2.499-5.591-5.591
		s2.499-5.591,5.591-5.591h11.183c3.092,0,5.591,2.499,5.591,5.591S352.144,230.988,349.052,230.988z M315.504,230.988h-11.183
		c-3.092,0-5.591-2.499-5.591-5.591s2.499-5.591,5.591-5.591h11.183c3.092,0,5.591,2.499,5.591,5.591
		S318.596,230.988,315.504,230.988z M281.956,230.988h-11.183c-3.092,0-5.591-2.499-5.591-5.591s2.499-5.591,5.591-5.591h11.183
		c3.092,0,5.591,2.499,5.591,5.591S285.048,230.988,281.956,230.988z M248.409,230.988h-11.183c-3.092,0-5.591-2.499-5.591-5.591
		s2.499-5.591,5.591-5.591h11.183c3.092,0,5.591,2.499,5.591,5.591S251.501,230.988,248.409,230.988z M214.861,230.988h-11.183
		c-3.092,0-5.591-2.499-5.591-5.591s2.499-5.591,5.591-5.591h11.183c3.092,0,5.591,2.499,5.591,5.591
		S217.953,230.988,214.861,230.988z M181.313,230.988H170.13c-3.092,0-5.591-2.499-5.591-5.591s2.499-5.591,5.591-5.591h11.183
		c3.092,0,5.591,2.499,5.591,5.591S184.405,230.988,181.313,230.988z M147.766,230.988h-11.183c-3.092,0-5.591-2.499-5.591-5.591
		s2.499-5.591,5.591-5.591h11.183c3.092,0,5.591,2.499,5.591,5.591S150.858,230.988,147.766,230.988z M114.727,227.465
		c-0.777,0-1.566-0.162-2.32-0.509c-3.875-1.772-7.476-4.087-10.702-6.883c-2.332-2.03-2.583-5.563-0.565-7.895
		c2.03-2.332,5.558-2.583,7.889-0.565c2.421,2.102,5.122,3.841,8.029,5.172c2.807,1.28,4.043,4.602,2.757,7.408
		C118.875,226.252,116.851,227.465,114.727,227.465z"/>
	<path class="st13" d="M382.599,398.726h-11.183c-3.092,0-5.591-2.499-5.591-5.591s2.499-5.591,5.591-5.591h11.183
		c3.092,0,5.591,2.499,5.591,5.591C388.191,396.227,385.691,398.726,382.599,398.726z M349.052,398.726h-11.183
		c-3.092,0-5.591-2.499-5.591-5.591s2.499-5.591,5.591-5.591h11.183c3.092,0,5.591,2.499,5.591,5.591
		C354.643,396.227,352.144,398.726,349.052,398.726z M315.504,398.726h-11.183c-3.092,0-5.591-2.499-5.591-5.591
		s2.499-5.591,5.591-5.591h11.183c3.092,0,5.591,2.499,5.591,5.591C321.095,396.227,318.596,398.726,315.504,398.726z
		 M281.956,398.726h-11.183c-3.092,0-5.591-2.499-5.591-5.591s2.499-5.591,5.591-5.591h11.183c3.092,0,5.591,2.499,5.591,5.591
		C287.548,396.227,285.048,398.726,281.956,398.726z M248.409,398.726h-11.183c-3.092,0-5.591-2.499-5.591-5.591
		s2.499-5.591,5.591-5.591h11.183c3.092,0,5.591,2.499,5.591,5.591C254,396.227,251.501,398.726,248.409,398.726z M214.861,398.726
		h-11.183c-3.092,0-5.591-2.499-5.591-5.591s2.499-5.591,5.591-5.591h11.183c3.092,0,5.591,2.499,5.591,5.591
		C220.452,396.227,217.953,398.726,214.861,398.726z M181.313,398.726H170.13c-3.092,0-5.591-2.499-5.591-5.591
		s2.499-5.591,5.591-5.591h11.183c3.092,0,5.591,2.499,5.591,5.591C186.905,396.227,184.405,398.726,181.313,398.726z
		 M147.766,398.726h-11.183c-3.092,0-5.591-2.499-5.591-5.591s2.499-5.591,5.591-5.591h11.183c3.092,0,5.591,2.499,5.591,5.591
		C153.357,396.227,150.858,398.726,147.766,398.726z M114.727,395.204c-0.777,0-1.566-0.162-2.32-0.509
		c-3.875-1.772-7.476-4.087-10.702-6.883c-2.332-2.03-2.583-5.563-0.565-7.895c2.03-2.332,5.558-2.583,7.889-0.565
		c2.421,2.102,5.122,3.841,8.029,5.172c2.807,1.28,4.043,4.602,2.757,7.408C118.875,393.99,116.851,395.204,114.727,395.204z"/>
	<path class="st14" d="M416.147,343.747h-67.095c-18.529,0-33.548-15.018-33.548-33.548l0,0c0-18.53,15.018-33.548,33.548-33.548
		h67.095V343.747z"/>
	<path class="st15" d="M416.147,337.222h-67.095c-18.529,0-33.548-15.018-33.548-33.548l0,0c0-18.53,15.018-33.548,33.548-33.548
		h67.095V337.222z"/>
	<circle class="st16" cx="354.643" cy="303.674" r="16.774"/>
</g>
<g class="st1">
	<path class="st17" d="M101.056,161.73c-5.106,0-9.245,4.139-9.245,9.245v186.5v44.742l44.742-44.742h197.686
		c5.106,0,9.245-4.139,9.245-9.245V170.975c0-5.106-4.139-9.245-9.245-9.245L101.056,161.73L101.056,161.73z"/>
	<path class="st3" d="M214.851,223.25h-67.113c-3.093,0-5.593-2.506-5.593-5.593s2.5-5.593,5.593-5.593h67.113
		c3.093,0,5.593,2.506,5.593,5.593S217.944,223.25,214.851,223.25z"/>
	<path class="st3" d="M287.556,262.399H147.738c-3.093,0-5.593-2.506-5.593-5.593c0-3.087,2.5-5.593,5.593-5.593h139.818
		c3.093,0,5.593,2.506,5.593,5.593C293.149,259.894,290.649,262.399,287.556,262.399z"/>
	<path class="st3" d="M287.556,301.548H147.738c-3.093,0-5.593-2.506-5.593-5.593c0-3.087,2.5-5.593,5.593-5.593h139.818
		c3.093,0,5.593,2.506,5.593,5.593C293.149,299.043,290.649,301.548,287.556,301.548z"/>
	<path class="st18" d="M406.944,105.803H173.761c-5.106,0-9.245,4.139-9.245,9.245v46.682h169.722c5.106,0,9.245,4.139,9.245,9.245
		v130.573h63.461c5.106,0,9.245-4.139,9.245-9.245V115.048C416.189,109.942,412.05,105.803,406.944,105.803z"/>
</g>
<g class="st1">
	<path class="st19" d="M313.113,411.277H158.481l-61.59-61.591V116.43c0-11.138,8.518-19.656,19.656-19.656h196.565
		c11.138,0,19.656,8.518,19.656,19.656v275.191C332.769,402.759,324.251,411.277,313.113,411.277z"/>
	<g class="st4">
		<rect x="191.242" y="366.067" class="st20" width="110.732" height="19.001"/>
		<rect x="128.342" y="311.684" class="st20" width="172.977" height="19.001"/>
		<rect x="128.342" y="256.646" class="st20" width="172.977" height="19.001"/>
		<rect x="231.21" y="201.608" class="st20" width="70.763" height="19.001"/>
	</g>
	<rect x="231.21" y="146.57" class="st21" width="70.763" height="19.001"/>
	<path class="st22" d="M158.481,411.277v-41.934c0-11.138-8.518-19.656-19.656-19.656H96.891L158.481,411.277z"/>
	<g class="st4">
		<circle class="st23" cx="170.275" cy="149.191" r="21.622"/>
		<path class="st23" d="M211.554,220.609h-83.212c0-22.932,18.346-41.934,41.934-41.934
			C193.208,178.675,211.554,197.676,211.554,220.609z"/>
		<path class="st23" d="M326.217,164.26c1.966,1.31,4.587,0.655,5.897-1.31c9.828-13.76,19.001-36.037,23.588-48.486
			c0.655-1.31,1.966-1.966,2.621-2.621c1.31-0.655,2.621,0,3.931,0.655l11.138,7.207c1.966,1.31,4.587,0.655,5.897-1.31
			c1.31-1.966,0.655-4.587-1.31-5.897l-11.138-7.207c-3.276-1.966-7.207-2.621-11.138-1.31c-3.931,1.31-6.552,3.931-7.863,7.863
			c-4.587,11.794-13.76,34.071-22.932,46.52C323.596,160.329,324.251,162.95,326.217,164.26L326.217,164.26z"/>
	</g>
	<path class="st24" d="M294.766,292.027c15.07-14.415,28.174-30.14,38.658-47.831l43.9-70.108l-31.45-20.312l-43.9,70.108
		c-11.138,17.691-19.656,36.037-26.209,55.694L294.766,292.027z"/>
	<path class="st25" d="M277.731,272.371c-0.655,2.621-1.966,4.587-2.621,7.207l19.656,12.449c1.966-1.966,3.276-3.931,5.242-5.242
		L277.731,272.371z"/>
	<path class="st24" d="M376.013,105.946l-30.14,47.831l32.106,20.312l30.14-48.486c5.897-9.173,2.621-20.312-5.897-26.209l0,0
		C393.704,94.152,381.91,96.773,376.013,105.946z"/>
	
		<rect x="357.342" y="145.533" transform="matrix(0.5328 -0.8462 0.8462 0.5328 29.854 383.1407)" class="st25" width="9.173" height="37.999"/>
	<polygon class="st26" points="277.076,280.889 265.282,291.373 262.006,322.823 288.869,306.442 292.801,291.373 	"/>
	<circle class="st3" cx="277.076" cy="298.58" r="2.621"/>
</g>
<g class="st1">
	<path class="st27" d="M404.183,187.587c0,0-59.59-54.758-89.385-85.358S254,74.045,254,74.045s-31.003-2.417-60.798,28.184
		s-89.385,85.358-89.385,85.358l-7.247,26.574V434h314.86V214.161L404.183,187.587z"/>
	<path class="st28" d="M385.661,317.529c0,5.048-4.092,9.141-9.141,9.141h-238.6c-5.048,0-9.141-4.092-9.141-9.141V150.022
		c0-5.048,4.092-9.141,9.141-9.141h238.6c5.048,0,9.141,4.092,9.141,9.141V317.529z"/>
	<polygon class="st29" points="207.16,306.499 218.162,305.963 124.217,217.919 96.57,214.161 	"/>
	<polygon class="st29" points="300.773,306.499 289.771,305.963 383.716,217.919 411.364,214.161 	"/>
	<polygon class="st30" points="96.57,214.161 96.57,433.999 207.25,306.364 123.144,220.067 	"/>
	<polygon class="st30" points="411.364,214.161 411.364,433.999 300.684,306.364 384.79,220.067 	"/>
	<polygon class="st31" points="96.57,433.999 96.57,407.426 203.434,302.449 207.25,306.364 	"/>
	<polygon class="st31" points="411.364,433.999 411.364,407.426 304.5,302.449 300.684,306.364 	"/>
	<path class="st30" d="M403.545,408.633c0,0-84.979-88.981-92.669-96.228c-7.691-7.247-13.843-6.441-13.843-6.441h-43.066H210.9
		c0,0-6.152-0.806-13.843,6.441c-7.691,7.248-92.669,96.228-92.669,96.228l-7.307,25.366h156.885H410.85L403.545,408.633z"/>
	<g class="st4">
		<path class="st32" d="M166.906,233.497l20.992-39.067l8.959,21.611c0,0-0.203-9.819,6.545-9.663
			c6.749,0.156,11.902,27.12,11.902,27.12L166.906,233.497L166.906,233.497z"/>
		<circle class="st32" cx="200.925" cy="198.709" r="4.28"/>
	</g>
	<path class="st33" d="M336.725,202.888c0,2.223-1.802,4.027-4.027,4.027h-79.136c-2.224,0-4.027-1.803-4.027-4.027v-0.152
		c0-2.223,1.803-4.027,4.027-4.027h79.136c2.224,0,4.027,1.803,4.027,4.027V202.888z"/>
	<path class="st33" d="M336.725,218.339c0,2.223-1.802,4.027-4.027,4.027h-79.136c-2.224,0-4.027-1.803-4.027-4.027v-0.152
		c0-2.223,1.803-4.027,4.027-4.027h79.136c2.224,0,4.027,1.803,4.027,4.027V218.339z"/>
	<path class="st33" d="M336.725,233.792c0,2.223-1.802,4.026-4.027,4.026h-79.136c-2.224,0-4.027-1.802-4.027-4.026v-0.152
		c0-2.224,1.803-4.027,4.027-4.027h79.136c2.224,0,4.027,1.802,4.027,4.027V233.792z"/>
	<g class="st4">
		<g>
			<g>
				<g>
					<polygon class="st34" points="191.106,140.881 181.316,158.866 196.857,158.866 206.646,140.881 					"/>
					<polygon class="st35" points="175.564,140.881 165.776,158.866 181.316,158.866 191.106,140.881 					"/>
					<polygon class="st35" points="206.646,140.881 196.857,158.866 212.398,158.866 222.187,140.881 					"/>
					<polygon class="st35" points="237.728,140.881 227.938,158.866 243.479,158.866 253.268,140.881 					"/>
					<polygon class="st34" points="128.781,140.881 128.781,158.866 134.694,158.866 144.483,140.881 					"/>
					<polygon class="st35" points="144.483,140.881 134.694,158.866 150.234,158.866 160.024,140.881 					"/>
					<polygon class="st35" points="330.972,140.881 321.183,158.866 336.725,158.866 346.514,140.881 					"/>
					<polygon class="st35" points="362.054,140.881 352.264,158.866 367.806,158.866 377.595,140.881 					"/>
					<polygon class="st34" points="253.268,140.881 243.479,158.866 259.02,158.866 268.81,140.881 					"/>
					<polygon class="st34" points="377.595,140.881 367.806,158.866 385.661,158.866 385.661,140.881 					"/>
					<polygon class="st34" points="315.432,140.881 305.643,158.866 321.183,158.866 330.972,140.881 					"/>
					<polygon class="st35" points="268.81,140.881 259.02,158.866 274.561,158.866 284.35,140.881 					"/>
					<g>
						<polygon class="st36" points="222.187,140.881 212.398,158.866 227.938,158.866 237.728,140.881 						"/>
						<polygon class="st36" points="160.024,140.881 150.234,158.866 165.776,158.866 175.564,140.881 						"/>
						<polygon class="st36" points="346.514,140.881 336.725,158.866 352.264,158.866 362.054,140.881 						"/>
						<polygon class="st36" points="284.35,140.881 274.561,158.866 290.102,158.866 299.891,140.881 						"/>
					</g>
					<polygon class="st35" points="299.891,140.881 290.102,158.866 305.643,158.866 315.432,140.881 					"/>
				</g>
			</g>
		</g>
	</g>
</g>
<g class="st1">
	<g class="st4">
		<path class="st37" d="M295.227,437.68H132.941c-12.119,0-21.938-9.825-21.938-21.938V85.938c0-12.112,9.825-21.938,21.938-21.938
			h162.286c12.119,0,21.938,9.825,21.938,21.938v329.798C317.171,427.854,307.346,437.68,295.227,437.68z"/>
		<rect x="111.003" y="102.657" class="st38" width="206.168" height="257.71"/>
		<circle class="st39" cx="214.087" cy="399.023" r="19.328"/>
		<path class="st39" d="M214.087,89.771h-25.771c-3.563,0-6.443-2.88-6.443-6.443s2.88-6.443,6.443-6.443h25.771
			c3.563,0,6.443,2.88,6.443,6.443C220.53,86.891,217.65,89.771,214.087,89.771z"/>
		<path class="st39" d="M239.858,89.771h-6.443c-3.563,0-6.443-2.88-6.443-6.443s2.88-6.443,6.443-6.443h6.443
			c3.563,0,6.443,2.88,6.443,6.443C246.301,86.891,243.421,89.771,239.858,89.771z"/>
	</g>
	<g class="st4">
		<circle class="st40" cx="319.684" cy="366.687" r="77.313"/>
		<path class="st41" d="M362.019,329.19c-2.931-2.036-6.939-1.314-8.968,1.611l-36.054,51.8l-25.442-20.887
			c-2.745-2.261-6.81-1.855-9.065,0.896c-2.261,2.751-1.862,6.81,0.896,9.065l30.835,25.314c1.16,0.947,2.603,1.463,4.085,1.463
			c0.29,0,0.586-0.019,0.883-0.058c1.778-0.251,3.376-1.224,4.407-2.699l40.035-57.527
			C365.659,335.24,364.938,331.22,362.019,329.19z"/>
	</g>
</g>
<g class="st1">
	<polygon class="st42" points="218.324,247.849 218.324,405.319 405.319,405.319 405.319,102.681 218.324,102.681 218.324,157.427 	
		"/>
	<path class="st43" d="M334.463,254.061c-23.282,10.507-49.638,11.987-73.951,4.154l-85.044-27.401v-28.707L334.463,254.061
		L334.463,254.061z"/>
	<polygon class="st44" points="218.324,149.891 218.324,201.101 405.319,201.101 405.319,102.682 218.324,102.682 218.324,120.485 	
		"/>
	<path class="st43" d="M334.463,150.152c-23.282-10.507-49.638-11.987-73.951-4.154l-85.044,27.401v28.707L334.463,150.152
		L334.463,150.152z"/>
	<path class="st4" d="M331.171,286.476l-49.517,88.782c-1.655,2.967-0.591,6.713,2.376,8.368c0.948,0.529,1.976,0.781,2.991,0.781
		c2.158,0,4.252-1.138,5.377-3.156l49.517-88.782c1.655-2.967,0.591-6.713-2.376-8.368
		C336.573,282.444,332.825,283.509,331.171,286.476z"/>
	<path class="st4" d="M320.552,363.491c0,11.532,9.382,20.914,20.914,20.914c11.532,0,20.914-9.382,20.914-20.914
		c0-11.532-9.382-20.914-20.914-20.914C329.934,342.577,320.552,351.959,320.552,363.491z M350.078,363.491
		c0,4.749-3.863,8.612-8.612,8.612c-4.749,0-8.612-3.863-8.612-8.612c0-4.749,3.863-8.612,8.612-8.612
		C346.215,354.879,350.078,358.742,350.078,363.491z"/>
	<path class="st4" d="M282.178,283.321c-11.532,0-20.914,9.382-20.914,20.914c0,11.532,9.382,20.914,20.914,20.914
		s20.914-9.382,20.914-20.914C303.092,292.703,293.71,283.321,282.178,283.321z M282.178,312.846c-4.749,0-8.612-3.863-8.612-8.612
		c0-4.749,3.863-8.612,8.612-8.612s8.612,3.863,8.612,8.612C290.79,308.983,286.926,312.846,282.178,312.846z"/>
	<path class="st4" d="M405.319,96.53H218.324c-3.397,0-6.151,2.754-6.151,6.151v52.429l-38.591,12.434
		c-2.542,0.819-4.265,3.184-4.265,5.855v20.24l-24.38-7.967c7.922-5.569,13.114-14.772,13.114-25.17
		c0-16.959-13.797-30.756-30.756-30.756s-30.756,13.797-30.756,30.756c0,13.33,8.526,24.701,20.408,28.96
		c-0.001,0.002-0.002,0.004-0.004,0.006l38.699,12.646l-37.31,12.192c-0.272,0.083-1.941,0.663-2.005,0.692
		c-11.562,4.425-19.798,15.631-19.798,28.731c0,16.959,13.797,30.756,30.756,30.756s30.756-13.797,30.756-30.756
		c0-10.398-5.192-19.601-13.114-25.17l24.399-7.973v20.246c0,2.671,1.723,5.036,4.265,5.855l38.581,12.431v36.254
		c0,3.397,2.755,6.151,6.151,6.151c3.397,0,6.151-2.755,6.151-6.151V253.08l34.161,11.007c10.933,3.523,22.227,5.272,33.494,5.272
		c15.337,0,30.622-3.243,44.873-9.675c2.315-1.044,3.749-3.403,3.612-5.939c-0.137-2.536-1.818-4.727-4.231-5.515l-141.133-46.118
		l141.123-46.114c2.413-0.789,4.094-2.98,4.231-5.515c0.137-2.536-1.297-4.894-3.612-5.939
		c-24.72-11.156-52.553-12.719-78.367-4.401l-34.151,11.003v-42.315h174.693v290.335H224.475v-57.616
		c0-3.397-2.755-6.151-6.151-6.151c-3.397,0-6.151,2.754-6.151,6.151v63.767c0,3.397,2.755,6.151,6.151,6.151h186.996
		c3.397,0,6.151-2.754,6.151-6.151V102.681C411.471,99.284,408.716,96.53,405.319,96.53z M127.295,178.956
		c-1.835,0-3.607-0.273-5.281-0.774l-0.888-0.29c-7.15-2.544-12.285-9.377-12.285-17.389c0-10.175,8.278-18.454,18.454-18.454
		s18.454,8.278,18.454,18.454C145.749,170.677,137.47,178.956,127.295,178.956z M145.739,243.728
		c0,10.175-8.278,18.454-18.454,18.454s-18.454-8.278-18.454-18.454c0-8.013,5.134-14.845,12.285-17.389l0.888-0.29
		c1.674-0.501,3.446-0.774,5.281-0.774C137.461,225.274,145.739,233.552,145.739,243.728z M262.408,252.377l-80.779-26.027v-15.745
		l133.581,43.651C297.889,258.519,279.642,257.93,262.408,252.377z M262.398,151.853c17.236-5.553,35.482-6.141,52.802-1.879
		l-133.581,43.651v-15.745L262.398,151.853z"/>
	<path class="st4" d="M303.415,195.031c-3.397,0-6.151,2.755-6.151,6.151c0,3.397,2.754,6.151,6.151,6.151h7.381
		c3.397,0,6.151-2.755,6.151-6.151c0-3.397-2.754-6.151-6.151-6.151H303.415z"/>
	<path class="st4" d="M268.968,195.031c-3.397,0-6.151,2.755-6.151,6.151c0,3.397,2.754,6.151,6.151,6.151h7.381
		c3.397,0,6.151-2.755,6.151-6.151c0-3.397-2.754-6.151-6.151-6.151H268.968z"/>
	<path class="st4" d="M234.522,195.031c-3.397,0-6.151,2.755-6.151,6.151c0,3.397,2.754,6.151,6.151,6.151h7.381
		c3.397,0,6.151-2.755,6.151-6.151c0-3.397-2.754-6.151-6.151-6.151H234.522z"/>
	<path class="st4" d="M366.157,201.182c0,3.397,2.754,6.151,6.151,6.151h7.381c3.397,0,6.151-2.755,6.151-6.151
		c0-3.397-2.754-6.151-6.151-6.151h-7.381C368.911,195.031,366.157,197.785,366.157,201.182z"/>
	<path class="st4" d="M345.243,195.031h-7.381c-3.397,0-6.151,2.755-6.151,6.151c0,3.397,2.754,6.151,6.151,6.151h7.381
		c3.397,0,6.151-2.755,6.151-6.151C351.394,197.786,348.639,195.031,345.243,195.031z"/>
	<path class="st4" d="M218.326,318.624c1.618,0,3.205-0.658,4.348-1.802c1.144-1.144,1.803-2.731,1.803-4.349
		s-0.658-3.205-1.803-4.348c-1.143-1.144-2.73-1.803-4.348-1.803c-1.625,0-3.212,0.658-4.349,1.803
		c-1.15,1.144-1.802,2.73-1.802,4.348s0.652,3.205,1.802,4.349C215.122,317.966,216.702,318.624,218.326,318.624z"/>
</g>
<g class="st1">
	<rect x="90.961" y="111.442" class="st45" width="326.078" height="106.686"/>
	<rect x="90.961" y="218.129" class="st46" width="326.078" height="194.841"/>
	<rect x="140.645" y="95.031" class="st47" width="26.672" height="59.495"/>
	<rect x="340.683" y="95.031" class="st47" width="26.672" height="59.495"/>
	<rect x="90.961" y="194.122" class="st48" width="326.078" height="24.006"/>
	<path class="st45" d="M292.314,362.103v21.766h-72.493v-21.766h25.005v-83.105c-3.959,5.576-19.429,15.47-29.141,15.47v-22.305
		c12.949,0,28.781-16.55,29.141-17.269h24.643v107.21H292.314z"/>
</g>
<g class="st1">
	<g class="st4">
		<path class="st49" d="M194.714,165.862l124.831-24.67c3.701-0.74,7.155,1.727,7.894,5.181l48.847,232.886
			c0.74,3.701-1.727,7.155-5.181,7.894l-125.077,24.67c-3.701,0.74-7.155-1.727-7.894-5.181l-48.6-232.885
			C188.793,170.056,191.014,166.602,194.714,165.862z"/>
		<path class="st50" d="M326.206,212.488l-11.348-55.508c-0.247-1.727-2.221-2.96-3.948-2.714l-105.588,20.97
			c-1.727,0.247-2.96,2.221-2.714,3.948l11.348,55.508c0.247,1.727,2.221,2.96,3.948,2.714s2.96-2.221,2.714-3.948l-10.608-52.3
			l98.927-19.736l10.608,52.3c0.247,1.727,2.221,2.96,3.948,2.714C325.219,215.942,326.453,214.215,326.206,212.488z"/>
		<path class="st51" d="M226.538,127.13l126.804-12.335c3.701-0.247,6.908,2.221,7.401,5.921l30.344,248.675
			c0.247,3.701-2.221,6.908-5.921,7.155L258.363,388.88c-3.701,0.247-6.908-2.221-7.401-5.921l-30.344-248.675
			C220.371,130.83,223.085,127.376,226.538,127.13z"/>
		<path class="st52" d="M347.175,130.09c-0.247-1.727-1.727-3.207-3.701-2.96l-107.068,10.361c-1.727,0.247-3.207,1.727-2.96,3.701
			l5.674,56.495c0.247,1.727,1.727,3.207,3.701,2.96c1.727-0.247,3.207-1.727,2.96-3.701l-5.181-53.041l100.407-9.621l5.181,53.041
			c0.247,1.727,1.727,3.207,3.701,2.96c1.727-0.247,3.207-1.727,2.96-3.701C352.85,186.585,347.175,130.09,347.175,130.09z"/>
		<path class="st53" d="M270.205,96.045h129.518c3.701,0,6.908,2.96,6.908,6.908v257.803c0,3.701-2.96,6.908-6.908,6.908H270.205
			c-3.701,0-6.908-2.96-6.908-6.908V102.953C263.298,99.006,266.258,96.045,270.205,96.045z"/>
		<path class="st54" d="M285.501,231.731c0,27.384,22.203,49.34,49.34,49.34s49.34-22.203,49.34-49.34s-22.203-49.34-49.34-49.34
			S285.501,204.594,285.501,231.731z M308.443,230.497h3.701c0.74-6.167,4.194-10.855,7.894-12.828
			c0.494-0.247,1.233-0.494,1.727-0.494c1.974,0,3.454,1.48,3.454,3.207c0,1.48-0.74,2.221-1.48,2.714
			c-2.714,2.714-4.934,5.921-4.934,10.362c0,5.674,1.974,8.388,5.921,8.388c9.621,0,5.181-22.943,20.97-22.943
			c5.921,0,10.855,3.454,11.842,11.595h3.701c1.727,0,3.207,1.233,3.207,2.96s-1.48,2.96-3.207,2.96h-3.701
			c-0.74,4.934-2.714,9.128-5.921,11.348c-0.494,0.494-1.233,0.74-2.221,0.74c-1.974,0-3.454-1.48-3.454-3.454
			c0-0.987,0.494-1.727,1.48-2.714c1.974-1.974,3.454-5.181,3.454-8.881c0-5.181-2.467-7.155-5.181-7.155
			c-8.635,0-4.687,22.943-20.97,22.943c-7.155,0-11.842-4.44-12.828-12.828h-3.701c-1.727,0-3.207-1.233-3.207-2.96
			C305.236,231.731,306.716,230.497,308.443,230.497z M390.348,305.741c-1.974,0-3.701,1.727-3.701,3.701v38.239H283.033v-38.239
			c0-1.974-1.727-3.701-3.701-3.701s-3.701,1.727-3.701,3.701v41.939c0,1.974,1.727,3.701,3.701,3.701h111.016
			c1.974,0,3.701-1.727,3.701-3.701v-41.939C394.049,307.468,392.322,305.741,390.348,305.741z M390.348,108.38H279.333
			c-1.974,0-3.701,1.727-3.701,3.701v41.939c0,1.974,1.727,3.701,3.701,3.701s3.701-1.727,3.701-3.701v-38.239h103.614v38.239
			c0,1.974,1.727,3.701,3.701,3.701s3.701-1.727,3.701-3.701v-41.939C394.049,110.107,392.322,108.38,390.348,108.38z
			 M327.44,315.609c0,4.194,3.207,7.401,7.401,7.401c4.194,0,7.401-3.207,7.401-7.401c0-4.194-3.207-7.401-7.401-7.401
			C330.647,308.209,327.44,311.662,327.44,315.609z M342.241,147.853c0-4.194-3.207-7.401-7.401-7.401
			c-4.194,0-7.401,3.207-7.401,7.401s3.207,7.401,7.401,7.401C339.034,155.254,342.241,152.047,342.241,147.853z"/>
	</g>
	<g class="st4">
		<path class="st55" d="M251.921,221.102c8.018-5.351,12.838-14.354,12.838-23.994v-45.839H142.217v45.839
			c0,9.64,4.82,18.643,12.838,23.994l40.263,26.841v10.894l-40.263,26.841c-8.018,5.347-12.838,14.35-12.838,23.99v45.839h122.542
			v-45.839c0-9.64-4.82-18.643-12.838-23.994l-40.263-26.841v-10.894L251.921,221.102z"/>
		<path class="st56" d="M245.12,210.906c4.624-3.084,7.385-8.243,7.385-13.794l0,0c0-5.335-3.631-9.987-8.807-11.282l-61.488-15.371
			c-14.088-3.525-27.74,7.132-27.74,21.657v4.996c0,5.551,2.761,10.71,7.385,13.794l37.547,27.556v64.854
			c0,14.828-15.375,24.656-28.83,18.426l0,0c-7.246-3.354-16.02,1.609-16.098,9.595c0,0.057,0,0.11,0,0.167v24.002h98.034v-45.843
			c0-0.057,0-0.11,0-0.167c-0.078-7.888-7.716-13.57-15.485-12.217l-8.37,1.458c-11.008,1.916-21.081-6.556-21.081-17.724v-42.551
			L245.12,210.906z"/>
		<rect x="121.793" y="355.506" class="st56" width="163.39" height="16.339"/>
		<rect x="121.793" y="134.93" class="st56" width="163.39" height="16.339"/>
		<path class="st57" d="M105.454,375.354h12.254h4.085h163.39h4.085h12.254c2.255,0,4.085-1.826,4.085-4.085
			c0-2.259-1.83-4.085-4.085-4.085h-12.254v-16.339H117.708v16.339h-12.254c-2.255,0-4.085,1.826-4.085,4.085
			C101.369,373.528,103.199,375.354,105.454,375.354z M125.878,359.015h155.22v8.169h-155.22V359.015z"/>
		<path class="st57" d="M301.522,130.845h-12.254h-4.085h-163.39h-4.085h-12.254c-2.255,0-4.085,1.826-4.085,4.085
			s1.83,4.085,4.085,4.085h12.254v16.339h171.559v-16.339h12.254c2.255,0,4.085-1.826,4.085-4.085S303.777,130.845,301.522,130.845z
			 M281.098,147.184h-155.22v-8.169h155.22V147.184z"/>
		<path class="st58" d="M183.06,228.879c-0.776,0-1.564-0.225-2.263-0.686l-18.945-12.63c-4.62-3.08-7.381-8.235-7.381-13.798
			v-9.076c0-2.259,1.83-4.085,4.085-4.085s4.085,1.826,4.085,4.085v9.076c0,2.818,1.401,5.437,3.746,7.001l18.945,12.63
			c1.875,1.254,2.381,3.787,1.131,5.666C185.675,228.242,184.38,228.879,183.06,228.879z"/>
		<path class="st58" d="M248.42,318.744c-2.255,0-4.085-1.826-4.085-4.085v-9.076c0-2.818-1.401-5.437-3.746-7.001l-18.945-12.63
			c-1.875-1.254-2.381-3.787-1.131-5.666c1.254-1.879,3.782-2.385,5.666-1.131l18.945,12.63c4.62,3.08,7.381,8.239,7.381,13.798
			v9.076C252.505,316.918,250.675,318.744,248.42,318.744z"/>
	</g>
</g>
<g class="st1">
	<polygon class="st59" points="222.722,257.683 230.245,287.113 253.999,287.113 253.999,125.384 191.322,142.179 222.367,258.039 	
		"/>
	<path class="st60" d="M174.274,404.867h-58.873c-6.774,0-12.265-5.491-12.265-12.265V292.64c0-6.774,5.491-12.266,12.265-12.266
		h58.874c6.774,0,12.265,5.491,12.265,12.266v99.963C186.54,399.376,181.048,404.867,174.274,404.867z"/>
	<polygon class="st59" points="253.999,404.887 253.999,103.14 404.863,103.132 404.863,404.867 321.206,404.867 	"/>
	<path class="st61" d="M380.618,321.073v-87.74v-40.341v-34.092c-12.507,0-22.645-10.139-22.645-22.645h-57.081
		c0,12.506-10.139,22.645-22.645,22.645v128.218L380.618,321.073z"/>
	<circle class="st62" cx="329.434" cy="254.002" r="23.218"/>
	<path class="st63" d="M370.014,316.557h-19.195c8.129,0,14.718-6.59,14.718-14.718l0,0c0-8.129-6.59-14.718-14.718-14.718H230.245
		l-9.464-27.495l-34.241,34.241v90.15l16.913,14.749c4.511,3.934,10.295,6.102,16.28,6.102h115.909
		c8.252,0,15.203-6.753,15.047-15.003c-0.151-7.998-6.682-14.434-14.716-14.434h20.59c8.252,0,15.203-6.753,15.047-15.003
		c-0.151-7.998-6.682-14.434-14.716-14.434h13.119c8.129,0,14.718-6.59,14.718-14.718l0,0
		C384.733,323.147,378.143,316.557,370.014,316.557z"/>
	<path class="st61" d="M252.916,161.097l-7.573,2.029c3.237,12.081-3.932,24.498-16.012,27.735l24.668,91.345"/>
	<path class="st4" d="M144.838,374.204c-1.613,0-3.195,0.656-4.336,1.797s-1.797,2.723-1.797,4.336c0,1.613,0.656,3.195,1.797,4.335
		c1.141,1.141,2.723,1.798,4.336,1.798s3.195-0.656,4.335-1.798c1.141-1.14,1.798-2.722,1.798-4.335
		c0-1.613-0.656-3.195-1.798-4.336C148.032,374.859,146.45,374.204,144.838,374.204z"/>
	<path class="st4" d="M380.614,207.395c-1.613,0-3.195,0.656-4.336,1.797c-1.14,1.141-1.797,2.723-1.797,4.336
		c0,1.613,0.656,3.195,1.797,4.335c1.141,1.141,2.723,1.798,4.336,1.798c1.619,0,3.195-0.656,4.336-1.798
		c1.146-1.14,1.802-2.722,1.802-4.335c0-1.613-0.656-3.195-1.802-4.336C383.81,208.051,382.234,207.395,380.614,207.395z"/>
	<path class="st4" d="M409.2,98.796c-1.151-1.15-2.711-1.796-4.338-1.796l-150.864,0.008c-3.387,0-6.132,2.746-6.132,6.133v17.538
		l-58.132,15.577c-3.272,0.877-5.214,4.24-4.337,7.511l30.129,112.441l-26.064,26.064c-3.317-4.844-8.887-8.029-15.187-8.029
		h-58.873c-10.145,0-18.398,8.254-18.398,18.398v99.963C97.003,402.747,105.256,411,115.401,411h58.874
		c8.618,0,15.869-5.959,17.856-13.971l7.292,6.359c5.629,4.909,12.842,7.612,20.311,7.612h185.13c3.387,0,6.133-2.746,6.133-6.133
		V103.132C410.995,101.506,410.35,99.945,409.2,98.796z M247.866,235.975l-11.186-41.418c4.672-2.413,8.496-6.022,11.186-10.331
		V235.975z M247.866,133.375v22.726l-4.11,1.101c-1.572,0.421-2.911,1.449-3.724,2.857c-0.813,1.409-1.034,3.082-0.613,4.654
		c2.357,8.795-2.881,17.867-11.676,20.224c-1.573,0.422-2.914,1.451-3.727,2.863c-0.813,1.411-1.032,3.088-0.607,4.66l23.905,88.52
		h-12.309l-6.343-24.816c-0.202-0.79-0.555-1.518-1.028-2.151l-28.803-107.499L247.866,133.375z M174.274,398.735h-58.873
		c-3.382,0-6.133-2.751-6.133-6.133V292.64c0-3.382,2.751-6.133,6.133-6.133h23.304v70.647c0,3.387,2.746,6.133,6.133,6.133
		s6.133-2.746,6.133-6.133v-70.647h23.304c3.382,0,6.133,2.751,6.133,6.133v99.963C180.407,395.983,177.656,398.735,174.274,398.735
		z M219.732,398.735c-4.505,0-8.855-1.63-12.25-4.59l-14.81-12.916v-84.822l26.775-26.775l4.856,19
		c0.694,2.715,3.139,4.614,5.941,4.614l120.574,0.007c4.735,0,8.586,3.851,8.586,8.586s-3.851,8.586-8.586,8.586h-61.782
		c-3.387,0-6.133,2.746-6.133,6.133c0,3.387,2.746,6.133,6.133,6.133h80.978c4.735,0,8.586,3.851,8.586,8.586
		s-3.851,8.586-8.586,8.586h-80.978c-3.387,0-6.133,2.746-6.133,6.133c0,3.387,2.746,6.133,6.133,6.133h67.855
		c4.735,0,8.586,3.851,8.586,8.586c0,4.735-3.851,8.586-8.586,8.586h-67.855c-3.387,0-6.133,2.746-6.133,6.133
		c0,3.387,2.746,6.133,6.133,6.133h46.936c4.735,0,8.586,3.851,8.586,8.586c0,4.735-3.851,8.586-8.586,8.586h-116.24V398.735z
		 M398.73,398.735h-43.763c1.189-2.621,1.857-5.526,1.857-8.586s-0.668-5.965-1.857-8.586h1.925
		c11.497,0,20.851-9.354,20.851-20.851c0-3.353-0.8-6.522-2.213-9.332c8.829-2.425,15.335-10.517,15.335-20.105
		c0-4.651-1.532-8.951-4.116-12.422v-77.728c0-3.387-2.746-6.133-6.133-6.133c-3.387,0-6.133,2.746-6.133,6.133v69.787
		c-1.441-0.316-2.936-0.488-4.47-0.488h-0.201c1.189-2.621,1.857-5.526,1.857-8.586c0-11.497-9.354-20.851-20.851-20.851h-9.859
		c10.468-4.489,17.82-14.894,17.82-26.988c0-16.184-13.166-29.35-29.35-29.35s-29.349,13.167-29.349,29.35
		c0,12.093,7.353,22.498,17.82,26.988h-33.524V164.376c10.956-2.388,19.601-11.032,21.987-21.988h46.132
		c2.387,10.956,11.032,19.601,21.987,21.988v19.067c0,3.387,2.746,6.133,6.133,6.133c3.387,0,6.133-2.746,6.133-6.133v-24.542
		c0-3.387-2.746-6.133-6.133-6.133c-9.105,0-16.512-7.408-16.512-16.513c0-3.387-2.746-6.133-6.133-6.133H300.89
		c-3.387,0-6.133,2.746-6.133,6.133c0,9.105-7.407,16.513-16.512,16.513c-3.387,0-6.133,2.746-6.133,6.133v122.086h-11.98V109.272
		l138.598-0.007L398.73,398.735L398.73,398.735L398.73,398.735z M329.431,271.085c-9.421,0-17.084-7.664-17.084-17.084
		s7.664-17.085,17.084-17.085s17.084,7.664,17.084,17.084C346.515,263.42,338.852,271.085,329.431,271.085z"/>
</g>
<g>
	<circle class="st55" cx="254" cy="254" r="200"/>
	<path class="st64" d="M203.519,208.555l-32.232,3.555c-0.791-6.636-2.844-11.533-6.162-14.694c-3.318-3.159-7.625-4.74-12.917-4.74
		c-7.033,0-12.976,3.161-17.834,9.48c-4.859,6.321-7.921,19.475-9.184,39.461c8.295-9.795,18.605-14.694,30.929-14.694
		c13.903,0,25.813,5.294,35.728,15.879c9.913,10.587,14.872,24.254,14.872,41.001c0,17.775-5.214,32.036-15.642,42.779
		c-10.428,10.745-23.819,16.116-40.172,16.116c-17.538,0-31.956-6.814-43.253-20.441c-11.299-13.628-16.946-35.965-16.946-67.012
		c0-31.836,5.884-54.786,17.657-68.849c11.77-14.061,27.057-21.093,45.86-21.093c13.192,0,24.115,3.694,32.765,11.08
		C195.638,183.77,201.149,194.494,203.519,208.555z M128.034,281.196c0,10.825,2.489,19.179,7.466,25.063
		c4.977,5.886,10.665,8.828,17.064,8.828c6.162,0,11.296-2.409,15.405-7.229c4.106-4.817,6.162-12.718,6.162-23.7
		c0-11.296-2.213-19.571-6.636-24.826c-4.426-5.253-9.954-7.88-16.59-7.88c-6.399,0-11.811,2.509-16.235,7.525
		C130.244,263.995,128.034,271.401,128.034,281.196z M281.966,165.302c16.827,0,29.981,6.005,39.461,18.012
		c11.296,14.22,16.946,37.802,16.946,70.745c0,32.866-5.688,56.486-17.064,70.863c-9.403,11.85-22.515,17.775-39.342,17.775
		c-16.907,0-30.534-6.497-40.883-19.493c-10.35-12.994-15.523-36.161-15.523-69.501c0-32.706,5.688-56.247,17.064-70.626
		C252.024,171.227,265.139,165.302,281.966,165.302z M281.966,192.913c-4.029,0-7.625,1.285-10.784,3.851
		c-3.161,2.568-5.611,7.169-7.347,13.805c-2.293,8.612-3.436,23.108-3.436,43.49s1.025,34.386,3.081,42.008
		c2.053,7.625,4.64,12.7,7.762,15.227c3.12,2.53,6.695,3.792,10.724,3.792s7.623-1.283,10.784-3.851
		c3.158-2.566,5.608-7.169,7.347-13.805c2.29-8.532,3.437-22.989,3.437-43.371s-1.028-34.384-3.081-42.008
		c-2.056-7.623-4.642-12.718-7.762-15.287C289.568,194.198,285.995,192.913,281.966,192.913z M343.224,268.083
		c0-6.225,1.367-10.838,4.1-13.841c2.733-3.002,6.439-4.503,11.115-4.503c4.835,0,8.619,1.493,11.352,4.479
		c2.733,2.986,4.1,7.608,4.1,13.865c0,6.226-1.367,10.84-4.1,13.841c-2.733,3.003-6.439,4.503-11.115,4.503
		c-4.835,0-8.62-1.493-11.352-4.479C344.59,278.961,343.224,274.339,343.224,268.083z M353.604,267.988
		c0,4.52,0.521,7.553,1.564,9.101c0.789,1.138,1.879,1.706,3.271,1.706c1.422,0,2.528-0.569,3.318-1.706
		c1.011-1.548,1.517-4.581,1.517-9.101c0-4.518-0.506-7.537-1.517-9.053c-0.79-1.169-1.896-1.754-3.318-1.754
		c-1.391,0-2.481,0.569-3.271,1.706C354.126,260.436,353.604,263.469,353.604,267.988z M364.658,328.523h-9.859l37.02-73.328h9.575
		L364.658,328.523z M386.626,310.692c0-6.224,1.367-10.838,4.1-13.841c2.733-3.001,6.47-4.503,11.21-4.503
		c4.771,0,8.524,1.502,11.258,4.503c2.733,3.003,4.1,7.616,4.1,13.841c0,6.257-1.367,10.886-4.1,13.888
		c-2.733,3.002-6.439,4.503-11.115,4.503c-4.835,0-8.62-1.501-11.352-4.503C387.993,321.578,386.626,316.949,386.626,310.692z
		 M397.007,310.645c0,4.52,0.521,7.537,1.564,9.053c0.789,1.169,1.879,1.754,3.271,1.754c1.422,0,2.512-0.569,3.271-1.706
		c1.043-1.548,1.564-4.581,1.564-9.101c0-4.518-0.506-7.552-1.517-9.101c-0.79-1.138-1.896-1.706-3.318-1.706
		c-1.422,0-2.512,0.569-3.271,1.706C397.528,303.093,397.007,306.127,397.007,310.645z"/>
</g>
</svg>
