<?xml version="1.0" encoding="utf-8"?>
<!-- Generator: Adobe Illustrator 21.1.0, SVG Export Plug-In . SVG Version: 6.00 Build 0)  -->
<svg version="1.1" id="Layer_1" xmlns="http://www.w3.org/2000/svg" xmlns:xlink="http://www.w3.org/1999/xlink" x="0px" y="0px"
	 viewBox="0 0 508 508" style="enable-background:new 0 0 508 508;" xml:space="preserve">
<style type="text/css">
	.st0{fill:#45005C;}
	.st1{fill:#7383BF;}
	.st2{fill:#EFEFEF;}
</style>
<circle class="st0" cx="254" cy="254" r="254"/>
<g>
	<circle class="st1" cx="254" cy="254" r="200"/>
	<path class="st2" d="M203.5,208.6l-32.2,3.6c-0.8-6.6-2.8-11.5-6.2-14.7c-3.3-3.2-7.6-4.7-12.9-4.7c-7,0-13,3.2-17.8,9.5
		c-4.9,6.3-7.9,19.5-9.2,39.5c8.3-9.8,18.6-14.7,30.9-14.7c13.9,0,25.8,5.3,35.7,15.9c9.9,10.6,14.9,24.3,14.9,41
		c0,17.8-5.2,32-15.6,42.8c-10.4,10.7-23.8,16.1-40.2,16.1c-17.5,0-32-6.8-43.3-20.4c-11.3-13.6-16.9-36-16.9-67
		c0-31.8,5.9-54.8,17.7-68.8c11.8-14.1,27.1-21.1,45.9-21.1c13.2,0,24.1,3.7,32.8,11.1C195.6,183.8,201.1,194.5,203.5,208.6z
		 M128,281.2c0,10.8,2.5,19.2,7.5,25.1c5,5.9,10.7,8.8,17.1,8.8c6.2,0,11.3-2.4,15.4-7.2c4.1-4.8,6.2-12.7,6.2-23.7
		c0-11.3-2.2-19.6-6.6-24.8c-4.4-5.3-10-7.9-16.6-7.9c-6.4,0-11.8,2.5-16.2,7.5C130.2,264,128,271.4,128,281.2z M282,165.3
		c16.8,0,30,6,39.5,18c11.3,14.2,16.9,37.8,16.9,70.7c0,32.9-5.7,56.5-17.1,70.9c-9.4,11.9-22.5,17.8-39.3,17.8
		c-16.9,0-30.5-6.5-40.9-19.5c-10.4-13-15.5-36.2-15.5-69.5c0-32.7,5.7-56.2,17.1-70.6C252,171.2,265.1,165.3,282,165.3z M282,192.9
		c-4,0-7.6,1.3-10.8,3.9c-3.2,2.6-5.6,7.2-7.3,13.8c-2.3,8.6-3.4,23.1-3.4,43.5s1,34.4,3.1,42c2.1,7.6,4.6,12.7,7.8,15.2
		c3.1,2.5,6.7,3.8,10.7,3.8s7.6-1.3,10.8-3.9c3.2-2.6,5.6-7.2,7.3-13.8c2.3-8.5,3.4-23,3.4-43.4s-1-34.4-3.1-42
		c-2.1-7.6-4.6-12.7-7.8-15.3C289.6,194.2,286,192.9,282,192.9z M343.2,268.1c0-6.2,1.4-10.8,4.1-13.8c2.7-3,6.4-4.5,11.1-4.5
		c4.8,0,8.6,1.5,11.4,4.5s4.1,7.6,4.1,13.9c0,6.2-1.4,10.8-4.1,13.8c-2.7,3-6.4,4.5-11.1,4.5c-4.8,0-8.6-1.5-11.4-4.5
		C344.6,279,343.2,274.3,343.2,268.1z M353.6,268c0,4.5,0.5,7.6,1.6,9.1c0.8,1.1,1.9,1.7,3.3,1.7c1.4,0,2.5-0.6,3.3-1.7
		c1-1.5,1.5-4.6,1.5-9.1c0-4.5-0.5-7.5-1.5-9.1c-0.8-1.2-1.9-1.8-3.3-1.8c-1.4,0-2.5,0.6-3.3,1.7C354.1,260.4,353.6,263.5,353.6,268
		z M364.7,328.5h-9.9l37-73.3h9.6L364.7,328.5z M386.6,310.7c0-6.2,1.4-10.8,4.1-13.8c2.7-3,6.5-4.5,11.2-4.5
		c4.8,0,8.5,1.5,11.3,4.5c2.7,3,4.1,7.6,4.1,13.8c0,6.3-1.4,10.9-4.1,13.9s-6.4,4.5-11.1,4.5c-4.8,0-8.6-1.5-11.4-4.5
		C388,321.6,386.6,316.9,386.6,310.7z M397,310.6c0,4.5,0.5,7.5,1.6,9.1c0.8,1.2,1.9,1.8,3.3,1.8c1.4,0,2.5-0.6,3.3-1.7
		c1-1.5,1.6-4.6,1.6-9.1c0-4.5-0.5-7.6-1.5-9.1c-0.8-1.1-1.9-1.7-3.3-1.7s-2.5,0.6-3.3,1.7C397.5,303.1,397,306.1,397,310.6z"/>
</g>
</svg>
